<?xml version="1.0" encoding="utf-8"?>
<!-- Generator: Adobe Illustrator 23.1.0, SVG Export Plug-In . SVG Version: 6.00 Build 0)  -->
<svg version="1.1" id="Capa_1" xmlns="http://www.w3.org/2000/svg" xmlns:xlink="http://www.w3.org/1999/xlink" x="0px" y="0px"
	 viewBox="0 0 50 50" style="enable-background:new 0 0 50 50;" xml:space="preserve">
<style type="text/css">
	.st0{fill:#E9E9E9;}
	.st1{fill:#F6F6F5;}
	.st2{fill:#F6F6F6;}
	.st3{fill:#554E4A;}
	.st4{fill:#281B0E;}
	.st5{fill:#734C5F;}
	.st6{fill:#4F4F4F;}
	.st7{fill:#B1B1B1;}
	.st8{fill:#543042;}
	.st9{fill:#46382D;}
	.st10{fill:#3C3C3C;}
	.st11{fill:#B2879C;}
	.st12{fill:#291C0F;}
	.st13{fill:#EDCFCA;}
	.st14{fill:#535454;}
	.st15{fill:#7B7B7B;}
	.st16{fill:#686969;}
	.st17{fill:#676767;}
	.st18{fill:#6A6B6B;}
	.st19{fill:#CCA4A1;}
	.st20{fill:#959595;}
	.st21{fill:#CECDCC;}
	.st22{fill:#EECFCA;}
	.st23{fill:#6B6C6D;}
	.st24{fill:#666766;}
	.st25{fill:#686867;}
	.st26{fill:#B3B4B3;}
	.st27{fill:#404040;}
	.st28{fill:#35291B;}
	.st29{fill:#4F5253;}
	.st30{fill:#FDEDE8;}
	.st31{fill:#CBA29E;}
	.st32{fill:#8B7470;}
	.st33{fill:#EACDC8;}
	.st34{fill:#3A3A3A;}
	.st35{fill:#95637C;}
	.st36{fill:#6C6D6F;}
	.st37{fill:#6E7072;}
	.st38{fill:#CCA29E;}
	.st39{fill:#E9CEC9;}
	.st40{fill:#6B6D6E;}
	.st41{fill:#ECCEC9;}
	.st42{fill:#6E7071;}
	.st43{fill:#383A38;}
	.st44{fill:#88726F;}
	.st45{fill:#957977;}
	.st46{fill:#EDCEC9;}
	.st47{fill:#B99F9D;}
	.st48{fill:#FEF4F2;}
	.st49{fill:#4D3E34;}
	.st50{fill:#4E4035;}
	.st51{fill:#313030;}
	.st52{fill:#8D7673;}
	.st53{fill:#937B78;}
	.st54{fill:#EFD2CD;}
	.st55{fill:#C4ACA6;}
	.st56{fill:#E9CCC6;}
	.st57{fill:#636363;}
	.st58{fill:#3F3F3F;}
	.st59{fill:#353535;}
	.st60{fill:#505655;}
	.st61{fill:#8A7370;}
	.st62{fill:#8C7572;}
	.st63{fill:#8B7471;}
	.st64{fill:#313130;}
</style>
<path class="st0" d="M88.1,206.9c10.2,1,20.4,1.9,30.5,3.1c11.1,1.3,22.2,2.8,33.3,4.8c-9,0.7-18,1.3-27,2.1
	c-13.8,1.2-27.6,2.6-41.4,3.8c-9.4,0.8-18.8,1.7-28.2,2c-5.5,0.2-10.8,1.8-16.3,1.1c-1.9,1.2-4.2-0.3-6,1c-3.3,0-6.7,0-10,0
	c-1.5-1.2-3.5,0.2-5-1c-10.5-1.1-21-2.2-31.5-3.4c-10.3-1.2-20.7-2.4-31-3.6c-12.5-1.5-25-2.9-38.7-4.5c4.8-2.6,9.2-1.9,13-2.1
	c6.1-0.4,11-0.8,11.3-8.3c1.4,4.9,4.9,5.6,9.5,5.5c12.4-0.3,24.8-0.1,37.2-0.1c2.1,0,4.3,0.2,6.3-0.7c1.9-0.9,1.5-3.5,3.3-4.4
	c17.8-3.1,35.7-5.8,53.7-1.2c2,1.2,1,2.8,0.5,4.3c-0.8,2.1-2.1,4.1-2.6,6.3c-0.8,3.2,0.4,4.7,3.7,4.8c10.2,0.1,20.5,0,30.7,0
	c3.4,0,4.2-2,4.1-4.8C87.7,210,86.7,208.3,88.1,206.9z"/>
<path class="st1" d="M33,224.9c1.8-1.8,4-0.7,6-1c0,0.3,0,0.7,0,1C37,224.9,35,224.9,33,224.9z"/>
<path class="st2" d="M18,223.9c1.7,0.2,3.6-0.7,5,1c-1.7,0-3.3,0-5,0C18,224.6,18,224.2,18,223.9z"/>
<path class="st3" d="M-18-167.9c0.6-0.3,1.3-0.4,1.8-0.8c5.4-5.1,10.8-4.3,16.3-0.1c8.8,2,15.5,8.2,23.6,11.4
	c9.6,3.9,15.6,11.2,20.8,19.7c6.4,10.3,13.1,20.4,19.8,30.5c1.6,2.4,3,4.9,2.8,7.8c-0.5,8.5,1.3,16.9,1,25.4
	c-0.1,3.6,1.2,6.4,3.8,8.8c3.2,3,6.1,6.1,9.2,9.1c2.2,2.2,2.7,4.6,1.1,7.2c-2.5,3.9-2.8,8.9-6.4,12.3c-4,0.1-7.9-0.8-11.8-1.9
	c-0.4-0.3-0.8-0.8-1-1.2c-2.3-7.8-5.5-15.3-8-23.1c-1.3-3.9-1.6-7.7-0.9-11.8c1.2-6.4,2-12.8,3.3-19.2c0.7-3.3-0.2-5.9-3.3-6.9
	C43.8-103.9,40-112,38-121.8c-0.9-4.4-2.6-8.6-3.7-12.9c-0.8-3.1-2.2-5-5.7-5c-12.3,0.2-22.1-4.8-29.4-14.7
	c-4.5-6.1-10.1-8.5-17.8-6.5c-2.7,0.7-5.9,1.2-8.9,0.5c-1.8-2.1,0.3-2.9,1.5-3.7C-23.6-165.8-20.8-166.9-18-167.9z"/>
<path class="st4" d="M76.2-37c0.9-4.5,3-8.4,5.1-12.3c1.2-2.3,1.4-4-0.9-5.5c-0.1-0.1-0.2-0.3-0.4-0.3c-11-7.6-15.4-18.4-13.8-31.2
	c1.7-13.3-4.4-23.2-11.4-33.3c-6.3-9-12.1-18.3-18-27.5c-1.4-2.2-3.5-3.5-5.7-4.7c-10.4-5.6-20.7-11.3-31-16.9
	c6.3-1.7,12.6-3.5,19-5.2c2.1-0.5,3.8,0.3,5.4,1.6c5.1,3.8,10,7.9,15.4,11c5.7,3.3,8.5,8,9.1,14.3c0.4,4.5,2.5,7.9,6,10.9
	c6.6,5.5,12.9,11.5,19.4,17.2c1.4,1.2,2.5,2.4,2.6,4.5c0.6,8.8,1.4,17.6,2.1,26.4c2.2,2.2,2.1,5.1,2.3,7.9c0.1,2.6-0.1,5.3,0.6,7.9
	c0.6,2.6-0.3,5.4,1,7.9c1.5,1.6,3.4,2.6,5.1,3.9c5,3.6,5.1,4.3,2,12.7c-1.8,3.9-1.6,8.7-4.7,12.1c-0.5,0.3-1,0.4-1.5,0.4
	C81.2-35.7,78.4-35,76.2-37z"/>
<path class="st3" d="M-25.1-13.9c-9.6-5.3-19.1-10.7-28.8-15.9c-2.5-1.3-3.1-3-3-5.5c0.4-9.1,0.6-18.3,1-27.4
	c0.1-2.9-0.5-5.4-2.2-7.9c-4.4-6.3-8.5-12.7-12.8-19c-1.5-2.2-2.1-4.1-1-6.8c4.4-10.6,8.5-21.2,12.7-31.9c3.3,1.7,2.9,5.7,4.8,8.2
	c0.4,1.2,0.5,2.4-0.1,3.6c-3.6,4.7-4.6,10.4-6.4,15.9c-0.4,1.1,0.2,2.3,0.9,3.3c4,5.7,7.5,11.7,12.3,16.8c0.8,0.9,1.3,2,1.7,3.1
	c1,2.6,2.6,4.8,3.9,7.3c1.4,2.7,3.8,5,3.6,8.4c-2,6.9-1.9,14.1-2.9,21.2c-0.4,2.5,1.5,3.8,3.3,5.2c5.9,4.4,12.1,8.2,18,12.5
	c0.4,0.4,0.6,0.8,0.6,1.3c0,0.8-0.4,1.4-0.7,2.1C-22-17.6-21.7-14.1-25.1-13.9z"/>
<path class="st5" d="M-25.1-13.9c2.2-1.5,2.1-4.5,4.1-6.1c2.6,4.5,0.8,9.2,0.2,13.5c-2,13.8-0.8,27.4,0.8,41c0.2,2,0.6,3.9-0.3,5.9
	c-1.1,1.8-2.8,1.6-4.4,1.2c-7.4-1.9-14.7-4.2-21.9-6.7c-1.2-0.4-2.5-1.1-2.4-2.8C-41,16.8-33.1,1.5-25.1-13.9z"/>
<path class="st6" d="M-3.1,202.9c-0.6,1.6,0.4,3.6-0.8,5.1c-1.2-4-3.8-4.8-7.8-4.6c-13.6,0.4-27.3,0-41,0.1c-1.9,0-4.1,0.7-5.3-1.6
	c8.1-5.7,16.3-11.3,24.3-17.1c1.3-1,3.6-1.3,3.5-3.7c0.4-0.4,0.8-0.6,1.4-0.6c9,2.1,17.4,6,26.3,8.2c1.2,0.4,2.7,0.6,2.6,2.4
	c-1.3,1.9-1.8,4.1-1.8,6.4C-1.6,199.4-1.5,201.4-3.1,202.9z"/>
<path class="st7" d="M-50,135c-0.3-0.1-0.7-0.1-1-0.2c-9.2-5.3-9-5.2-3.4-14c4.4-7,10-13.2,13.5-20.8c0.1-1.4,1-2.4,1.6-3.5
	c1.8-2.5,3.5-5,4.8-7.8c1.3-2.1,2.4-4.4,4.3-6.1c4.6-5.1,7.7-11.2,11.7-16.8c1.3-1.9,2.3-4.1,4.5-5.2c3.8-0.6,6.1,2.2,8.4,4.4
	c2,1.8,0.4,3.7-0.8,5.3c-2.6,3.6-5.5,7-8.4,10.3c-3.1,3.7-6.2,7.3-9.2,11.1c-2,2.7-4.7,4.9-6.3,8c-1.9,2.9-3.1,6.2-5,9.1
	c-3.9,7-7.3,14.3-11,21.5C-47.2,132-47.7,134.3-50,135z"/>
<path class="st8" d="M-28.9,180.9c-0.4,0-0.8,0.1-1.3,0.1c-5.5-1.8-10.9-3.7-16.5-5.3c-2.8-0.8-2.9-2.3-2.3-4.7
	c2.9-10.7,5.8-21.4,8.7-32c6.7-0.3,12.4,2.2,17.6,6.3c0.7,5.5-1,10.8-1.8,16.1c-0.5,3.4-1.1,6.8-1.3,10.3
	C-27,174.7-25.5,178.7-28.9,180.9z"/>
<path class="st5" d="M-23,145c-5.7-2-11.5-3.9-17.2-5.9c-3.3-1.3-6.5-2.7-9.8-4c4.7-9,9.4-18,14.1-27.1c7.2,1.9,13.4,5.5,17.8,11.6
	c-1.2,8.3-1.8,16.7-4.3,24.8C-22.6,144.6-22.8,144.8-23,145z"/>
<path class="st9" d="M-55.1-120c-2.9-2-2.2-5.7-4-8.2c-0.9-2.7-1.5-5.5-2.9-7.9c-2.4-4.4-1.6-7.4,2.3-10.5
	c4.8-3.7,9.2-8.1,13.7-12.2c5-1.1,9.9,0.3,14.8,1.1c2.6,1,3.3,3,2.8,5.6c-0.5,2.9-0.3,5.9-0.1,8.8c0,0.6-0.1,1.1-0.4,1.6
	c-0.8,0.8-1.9,1-3,1c-0.7,0-1.3,0-2-0.1c-7.3-1.3-7.6-1.1-11.2,5.5c-2.1,3.8-4.2,7.5-6.2,11.2C-52.1-122.4-52.9-120.5-55.1-120z"/>
<path class="st5" d="M-69.9,80.9c-0.1-0.2-0.1-0.4-0.1-0.7c-0.6-1,0-1.8,0.5-2.6c2.5-2.3,4.3-5.4,7.7-6.6c2.6-1,4.1-3.2,6-4.9
	c3.1-0.7,5.7,1.6,8.6,1.6c0.4,0.2,0.8,0.4,1.2,0.7c2.5,2.3,6.4,2.4,8.6,5.3c0.1,0.5,0.1,0.9,0,1.4c-1.1,3.4-3.6,6.1-4.9,9.4
	c-2.7,3-2.8,8.1-7.5,9.5C-57.5,91.1-63.9,86.2-69.9,80.9z"/>
<path class="st10" d="M-58,201.9c5,1.2,10,0.4,15.1,0.5c11.1,0.1,22.2,0.3,33.2-0.1c4.8-0.2,6.5,1.2,5.8,5.8
	c-0.6,0.2-1.1,0.7-1.7,0.7c-16.7,0-33.4,0-50.1,0c-6,0-2.2-4.5-3.2-6.8C-58.6,201.9-58.3,201.9-58,201.9z"/>
<path class="st11" d="M-49,32.1c8.9,4.3,18.5,6.5,28,9c1.5,0.5,1.8,1.6,1.4,3c-2.5,3.2-3.9,7.1-6.2,10.5c-1,1.4-1.5,3.3-3.6,3.7
	c-2.8-1.4-2.7-4.2-3.4-6.7c-0.9-3.3-1.8-6.6-2.4-10c-0.2-1.1-0.5-1.9-1.9-1.2c-3.9,2.8-7.8,5.5-11.9,7.9c-1.2,0.7-3.7,2.6-3.1-1.4
	C-51.2,41.9-50.8,36.9-49,32.1z"/>
<path class="st12" d="M-31-156.9c-5,0-10-0.6-14.9-1.9c0.3-0.4,0.6-0.8,0.9-1.2c6.8-10,16.6-10.2,27-7.9c-2.7,3.1-7.3,3.5-9.8,6.9
	C-28-158.9-27.2-156.2-31-156.9z"/>
<path class="st13" d="M-69.9,80.9c6.6,4.1,13.2,8.2,19.8,12.3c1.1,0.3,1.9,1,2.2,2.2c0.4,1.7,0.2,3.2-0.9,4.6c-5.3-0.6-10-3-15-4.5
	c-2.2-0.7-2.7-2.7-3.2-4.6C-68.1,87.5-69.9,84.4-69.9,80.9z"/>
<path class="st8" d="M-52.1,46.9c0.3,1.7,1,1.6,2.3,0.7c4.3-3,8.6-5.8,12.9-8.7c2.1,0.3,1.2,1.6,0.8,2.6c-0.7,1.9-2,3.5-3.3,4.9
	c-3.4,3.7-5.2,8-5.4,13.1c-0.1,2.6-0.4,5.3-2,7.6c-2.5,0.3-2.9-1.6-3.5-3.3c-1.3-3.9-2.5-7.7-2.6-11.8
	C-52.8,50.3-53.3,48.4-52.1,46.9z"/>
<path class="st14" d="M-81.3,75.1c-1.5-0.1-3.1-0.2-4.6-0.3c-1.2-1.4-0.1-2.6,0.5-3.6c2.4-4.1,5-8.1,8-11.9c0.6-0.8,1.2-2.1,2.7-1.6
	c1.8,2.1,2.9,4.5,3.9,7C-70.6,71.3-75.1,75.7-81.3,75.1z"/>
<path class="st15" d="M-74.7,57.8c-4.1,5.4-8.2,10.8-11.2,17c-2.1-4-1.7-8.5-2.4-12.7c-0.2-0.9,0.5-1.7,1.4-1.8
	C-82.8,59.7-79.1,57.1-74.7,57.8z"/>
<path class="st16" d="M-48.9,94.9c-0.4-0.6-0.8-1.2-1.2-1.8c4.2-1.7,3.8-7.2,7.5-9.3c1.9-0.7,2.6,0.4,3.1,1.9c0.6,3.8-0.9,6-6.1,6.1
	c2.8,1.2,4.2-1,5.7,0.5s2.1,2.9,1,4.8c-0.2,1.3-0.8,2.3-2.1,2.8c-1.3-0.8-2.4-2-4-2.1C-46.9,97.7-48,96.4-48.9,94.9z"/>
<path class="st11" d="M-52.9,52c2.4,3.4,2.4,7.7,3.8,11.4c0.5,1.4,0.5,2.9,2.1,3.5c0.1,0.2,0.2,0.4,0.3,0.6
	c-0.1,0.2-0.3,0.3-0.4,0.5c-3.5,1.8-5.9-1-8.8-1.9C-54.9,61.4-53.9,56.7-52.9,52z"/>
<path class="st17" d="M-81.3,75.1c6.9,0,7.9-5.9,10.4-10.3c1,0.7,1.9,1.4,2.9,2.1c0.6,1.5,0.2,2.7-0.7,3.9c-3.8,1.2-3.9,2.7-0.4,6.4
	c0,0.2,0,0.5,0.1,0.7c-0.4,0.7-0.7,1.5-1.1,2.2C-73.9,78.8-76.9,75.3-81.3,75.1z"/>
<path class="st18" d="M-69,71c-0.2-1.5,0.3-2.8,1-4c2.2,1,4.3,2.3,6,4c-2,2.7-4.3,5-7,7l0,0C-68.8,75.6-71.7,73.3-69,71z"/>
<path class="st19" d="M-48.9,94.9c1.5,0.7,3.1,1.3,4,2.9c-0.9,1.5-2.3,2.2-4,2.1C-48.9,98.3-48.9,96.6-48.9,94.9z"/>
<path class="st5" d="M110.7,135.9c0,0.7,0.1,1.4,0.1,2.1c-0.4,0.9-0.9,1.8-1.8,2.3c-9,6.1-18.1,12.2-27.2,18.1
	c-0.8,0.5-1.7,1-2.8,0.7c-0.4-0.3-0.8-0.7-1-1.2c-2.3-7.5-2.5-15.3-3.8-22.9c-1-5.6-1-11.4-4.2-16.4c1.4-2.2,1.4-4.6,1.1-7.2
	c-1.7-17.3-4-34.6-5.4-52c-0.2-3.3-1.7-6.5-0.3-9.8c3.6-1.8,3.6,1.7,4.3,3.3c3,6.8,6.5,13.3,9.7,20c0.7,1.5,1.5,3,2.5,4.2
	c4.9,9.6,9.8,19.2,14.5,28.9c3.6,7.5,7.9,14.5,11.6,22C109.1,130.5,110.2,133.1,110.7,135.9z"/>
<path class="st8" d="M110.7,135.9C100.3,116.8,90.6,97.4,81,78c-3.6-12.5-4.2-25.4-6.3-38.2c-1.2-7.3-2.1-14.7-2.7-22.2
	c0.1-0.5,0.3-1,0.6-1.5c0.5-0.5,1.2-0.6,1.8-0.3c7,4,14.1,7.7,20.2,13.1c2,4.3,2.7,9,4.3,13.4c0.4,1.2,0.7,2.4,1.1,3.5
	c1.1,4.5,2.7,8.9,3.7,13.5c0,0.5,0,1-0.1,1.4c-2,5.3-4.2,10.5-6.6,15.6c-2,4.3-2,4.3,0.9,8.6c2.6-1.1,4.7-3.8,8-3.4
	c0.4,0.3,0.7,0.7,0.9,1.2c0.6,6,3.1,11.9,2,18.1C109.4,112.6,110,124.3,110.7,135.9z"/>
<path class="st20" d="M-19,119c-5.3-4.2-11.1-7.7-17-11.1c1.8-3,2.6-6.5,5.1-9c2.7-0.6,4.3,1.3,6.3,2.5
	c20.1,12.7,39.8,26.1,59.7,39.2c27.2,18,54.6,35.7,81.7,54c2.3,1.6,4.7,3.2,6.5,5.4c-0.1,0.9-0.4,1.4-1.4,1
	c-8.1-2.3-16.1-4.6-24.2-6.8c-1.6-0.4-3.1-1.2-4.8-0.5c-3.6-2-7-4.5-10.4-6.7c-2.3-1.5-4.5-3.1-6.9-4.4c-11.7-7.4-23-15.3-34.6-22.8
	c-1.5-1.1-3-2.1-4.6-3.1c-7.4-4.9-14.6-9.9-22.1-14.6c-10.3-6.4-20.1-13.4-30.2-20C-17.2,121.3-18.2,120.3-19,119z"/>
<path class="st21" d="M123,199.9c-13.9-9.1-27.8-18.2-41.7-27.4c-36.5-24-73-48.1-109.6-72.2c-0.8-0.5-1.7-1-2.6-1.5
	c1-3.5,4.5-5.1,6-8.2c3.8,0.1,6.1,3.2,9.3,4.7c8.8,6.3,18.1,11.8,27,17.8c3.4,2.7,7.3,4.7,10.9,7.1c2,1.5,4.1,2.9,6.3,4.2
	c14.9,10.3,30.3,19.7,45.2,29.9c1.9,1.3,4,2.4,5.2,4.5l0,0c8,3.3,14.6,8.9,21.9,13.2c5.8,3.4,10,8.5,12.9,14.6
	c3.4,4.4,6.8,8.8,10.2,13.2C123.7,200.2,123.3,200.2,123,199.9z"/>
<path class="st5" d="M93.9,29c-7-4.3-13.9-8.7-20.9-13c-1.4-1.4-0.9-3.1-0.6-4.7C75.8-3.3,79-17.9,82.9-32.3
	c0.2-0.8,0.6-1.5,1.1-2.2c2.4-1.9,3.6,0.2,4.6,1.7c2.1,2.9,4.3,5.7,5.9,8.9c-0.7,2.4,1.2,3.6,2.2,5.2c8,11.9,16.2,23.8,24.3,35.7
	c1,2.7-1.2,3.1-2.8,3.7c-3.4,1.3-6.7,2.7-10.2,3.8c-0.4,0.2-0.9,0.4-1.3,0.6C102.4,26.2,98.5,28.9,93.9,29z"/>
<path class="st8" d="M113.8,186.7c-8.7-12.8-23-18.8-34.8-27.8c10.6-7,21.2-14,31.8-20.9C111.8,154.2,112.8,170.4,113.8,186.7z"/>
<path class="st6" d="M88.1,206.9c0.2,1.3,0.5,2.7,0.7,4c-1.6,1.6-3.6,1.6-5.5,1.6c-10,0.1-20.1,0.1-30.1,0c-2,0-4,0-5.5-1.7
	c1.3-3,2.6-5.9,4-8.9c-0.8-1.7,0.1-3.1,1-4.4c-1.3,0-2.9,0.6-2.7-1.7c3.7-0.9,5-4.6,7.9-6.5c8.3,0,16.5,0.8,24.7,1.9
	c2.3,1.4,3.3,3.3,2.5,6C86.1,200.3,87.1,203.6,88.1,206.9z"/>
<path class="st5" d="M102.9,61.3c0-0.4,0.1-0.8,0.1-1.1c3.2-2.6,7.4-1.8,11-3.1c3.6,0,7.5-3.3,10.8,0.8c2.4,6.6,5.7,12.9,7,19.8
	c-0.5,0.7-1.1,1.3-2,1.4c-8,1-15.7,3.8-23.9,2.9h0.1c-0.8-0.4-1.6-0.8-1.7-1.7C103.3,74,101.4,67.8,102.9,61.3z"/>
<path class="st22" d="M105.9,82c8.6-1.4,17.3-2.9,25.9-4.3c-1.8,5.1-3.6,10.2-5.4,15.3c-0.4,1.2-1.3,1.7-2.5,2.2
	c-5.1,1.9-10.1,3.9-15.1,5.9C107.1,94.8,106.2,88.4,105.9,82z"/>
<path class="st23" d="M88.9-48c0.3-1.1,0.5-2.3,1-3.3c1.9-3.9,1.1-6.8-2.9-8.6c6-10,12.9-19.3,19.7-28.8c1.3-1,2.7-1.4,4.3-0.7
	c1.3,1.1,1.8,2.4,1.6,4.1c-4.6,8.4-10.7,15.9-16.1,23.9c-3,4.5-3.1,4.4,1.5,7.6c1.4,1.2,3.2,1.9,3.8,3.8c0.2,0.3,0.3,0.6,0.6,0.8
	c6.9,5.3,6.9,5.3,0.9,12.3c-3.1,1.5-4.8-1.1-6.9-2.3s-4.2-2.6-6.1-4.1C88.7-44.6,87.9-46,88.9-48z"/>
<path class="st24" d="M101.8-50c-1.4-0.9-3.2-1.2-3.9-2.9c-0.7-2.5,1.2-4,2.4-5.6c4-5.6,7.8-11.3,11.9-16.9
	c3.4-5,6.6-10.2,10.3-14.9c0.9-1.2,1.4-3.1,3.6-2.7c1.3,0.8,2.5,1.6,3.8,2.4c0.7,0.7,0.6,1.6,0.1,2.2c-3.9,5.4-6.9,11.6-12.1,15.9
	C112.6-65,107.2-57.5,101.8-50z"/>
<path class="st24" d="M82.2-63.1c-2.1-2.8-1-6-1.1-9c1-4.7,4.4-7.9,6.9-11.7c1.4-2.2,3-4.3,4.4-6.5c3.2-4.6,6.2-9.3,9.6-13.8
	c1-1.3,1.6-3.4,4-2.9c1.3,0.8,2.6,1.6,3.8,2.4c0.2,3.1-2.1,5.1-3.6,7.3c-2.5,3.6-5.2,7.2-7.3,11.1C92.9-78.9,88.2-70.5,82.2-63.1z"
	/>
<path class="st5" d="M117.9-72.5c4-6.1,8-12.1,12-18.2c4.5-0.9,9-1.8,14.5-3c-4.3,6.2-8,11.8-11.9,17.1c-2,2.7-5.4,2.1-8.2,2.8
	C122.2-73.2,120.1-72.9,117.9-72.5z"/>
<path class="st5" d="M85-95.9c-6-13.3,3.3-21.4,10.6-31.5c0.6,4.5,1,7.9,1.5,11.4c1.5,2.7,0.9,5-0.9,7.3c-1.5,1.9-2.8,4.1-4.3,6
	C89.3-100.8,89.2-96.3,85-95.9z"/>
<path class="st11" d="M90.9-102.9c1.6-4.6,6.9-7.5,6.2-13.2c1,1.1,1.8,1.1,2.7-0.2c1.1-1.6,2.3-3.2,4-5.5c0.9,5.5,1.6,10.1,2.3,14.8
	c-5.1,5.1-8.1,11.9-12.9,17.2c-1.9-1.5-1.9-3.8-2.4-5.9C90.8-98.1,89.7-100.5,90.9-102.9z"/>
<path class="st11" d="M126.1-93.1c-4.3,6-8.6,12-13,18.1c-2.5-3-2.9-6.3-1.3-9.8c-0.3-1.4-0.6-2.8-0.9-4.1c-0.4-3.2,2.4-4.8,3.7-7.1
	c2.1-3.8,5.1-7.1,7.2-11c3-1.8,2.5,1.2,2.7,2.3C125.3-100.9,125.6-97,126.1-93.1z"/>
<path class="st5" d="M121.8-107.1c1,0.7,1,1.5,0.3,2.5c-3.7,5.2-7.4,10.4-11.1,15.7c-1.5-0.2-2.8,0.3-4.1,1.1
	c-2.8,1.5-5.6,3.2-8.9,1.1c3.1-6.5,8.1-11.8,11.9-17.9C113.9-105.5,117.8-106.3,121.8-107.1z"/>
<path class="st6" d="M88.9-48c0,1.3,0.2,2.5,1.5,3.3c4.3,2.5,7.9,6.2,12.8,7.8c-2.4,4.7-5.6,8.8-8.7,13c-3.2-1-3.7-4.3-5.5-6.4
	c-1.3-1.6-2-3.8-4.1-4.7c-0.3-0.2-0.3-0.4-0.3-0.6c0.1-0.2,0.2-0.3,0.2-0.3C86.3-40,87.6-44,88.9-48z"/>
<path class="st8" d="M122.8,35.9c0,0.7,0,1.4,0.1,2.1c-0.8,6.1-3.9,11.4-6.3,17c-0.5,1.1-1.1,3-3.2,1.6c-0.3-0.6-0.7-1.2-0.6-1.9
	c0.6-9.9-1.6-19.3-4.7-28.6c0.2-2.4,1.7-3,3.2-1.5C115.2,28.4,120.2,31,122.8,35.9z"/>
<path class="st11" d="M122.8,35.9c-3.6-3.1-7.2-6.3-10.9-9.4c-0.9-0.7-1.3-2.5-3.1-1.5c-0.3,0.3-0.7,0.4-1.1,0.2
	c-0.3-0.3-0.5-0.6-0.7-1.1c3.1-2.2,6.9-2.9,10.3-4.4c1.4-0.6,3.4-0.5,3.7-2.7C123.1,23.2,122.8,29.6,122.8,35.9z"/>
<path class="st11" d="M114,56.9c3-6.3,5.9-12.6,8.9-18.8c0.6,6.6,1.2,13.2,1.9,19.8c-3.6-2.4-7.2,0.9-10.8,0.1l-0.3-0.3
	C113.6,57.3,113.7,57,114,56.9z"/>
<path class="st25" d="M90.9-102.9c0.7,2.3,1.2,4.6,1,7.1c-2.9,6.1-5.9,12.2-11.8,16c-0.3-2.8-0.7-5.5-1-8.3c3.2-1.7,4.4-4.8,5.9-7.8
	C87.8-97.6,88.1-101.3,90.9-102.9z"/>
<path class="st8" d="M85,197c-0.7-1.7-1.4-3.4-2.1-5.1c-0.9-1.9-1.8-3.9,0-5.8c3.4,2.4,7.7,3.6,9.9,7.5
	C90.2,194.8,87.6,195.9,85,197z"/>
<path class="st26" d="M123,199.9c0.3,0,0.7,0,1,0c0.4,0.6,1.4,1.2,0.3,1.8c-0.9,0.5-1.8,0.1-2.5-0.7
	C122.2,200.7,122.6,200.3,123,199.9z"/>
<path class="st27" d="M47.7,210.8c13.7,0,27.4,0.1,41.1,0.1c0.6,6.6,0.6,6.6-5.8,6.6c-10.1,0-20.3,0-30.4,0
	C46.2,217.5,46.1,217.4,47.7,210.8z"/>
<path class="st28" d="M-31-156.9c2.8,0,1.3-3.3,3.1-4.1c4.6-0.6,9.2-1.3,13.8-1.9c4-0.5,7.5-0.2,10.2,3.4c1.7,2.2,4.3,3.8,5.9,6.1
	c6.7,9.9,16.9,11.9,27.7,12.3c3.2,0.1,4.6,1.2,5.4,4.4c2.3,8.8,5.3,17.5,7.7,26.3c0.8,2.9,3.1,3.8,5.2,4.9c12.1,6.6,12.4,6.6,9.2,20
	c-2.8,11.6-2.3,22.5,3,33.3c1.9,3.8,3.4,7.9,3.8,12.3c-3.5,2.3-6.9,0.4-10.4-0.2c-4.6-3.6-9.9-6.5-12.7-12
	c-0.7-5.1-0.2-10.2-0.4-15.4c0-5.1-0.3-10.3,0.1-15.4c0.4-4.8-0.9-8.8-4.2-12.2c-0.6-0.8-1.1-1.7-1.8-2.4c-6.7-6.7-10-15-11.5-24.1
	c-0.4-1.3-0.5-2.7-1.6-3.6c-11.3-0.8-18.3-8.6-25.1-16.2c-4.9-5.5-9.6-6.6-16.1-3.5c-2.8,1.3-5.7,3.6-9.3,2
	c-2.4-2.9-1.5-6.4-0.8-9.5C-29.1-154.4-29.5-155.6-31-156.9z"/>
<path class="st29" d="M76.2-37c2.7,0.1,5.4-0.4,7.9,1.2c-0.4,4.1-3.9,6-6.5,8.3C67.2-18.6,57-9.3,46.6-0.4
	c-9.7,8.6-19.5,17.1-29,25.9c-2,1.9-4.5,3.3-6.3,5.4C4.8,36.8-1.9,42.6-8.8,48.8c6.2-0.3,12,0.4,17.8-0.8c1.8-0.4,3.6-0.5,5.2,0.9
	C13.6,54,11.2,58,7,61c-6.9,0.8-13.7,1-20.5-0.6c-1.5-0.8-1.5-2.2-1.3-3.5c0.8-7.4-0.2-15,1.6-22.3c0.1-1.3,0.6-2.6,1.3-3.7
	c9-9.2,18.6-17.8,28.2-26.4c1.9-1.6,3.4-3.7,5.2-5.4c4.4-4.4,9.3-8.2,13.8-12.5c1.5-1.4,2.9-2.8,4.3-4.3c2.3-2.4,5.4-3.9,7.2-6.8
	c5-4,9.1-9.1,14.3-12.8C62-38,62.8-38.9,64-39C68.2-39.3,72.2-38.4,76.2-37z"/>
<path class="st5" d="M64-39c-5.6,5.1-10.5,11-17.1,15c-3.1,2.3-6.6,3.3-10.5,2.7c-3-2-4.3-5-4.8-8.4c0.4-1,1.2-1.6,2-2.2
	C40-35.1,46-39.2,53-41c3.7,0.4,7.3,0.8,11,1.1C64-39.5,64-39.3,64-39z"/>
<path class="st11" d="M46-1.1c9.6-8.6,19.1-17.3,28.8-25.8c3.2-2.8,6.5-5.7,9.2-9c0.3-0.1,0.6-0.1,0.9-0.1c0,0.3,0,0.6,0,1
	c-4.1,17-8.7,33.9-12,51l0,0c-0.7,8.4-2.8,16.6-4.8,24.8c-0.4,1.8-0.7,3.6-2,5.1c-0.4,0.3-0.9,0.4-1.5,0.2c-1.4-0.8-1.9-2.2-2.5-3.6
	C56.9,29.2,52,15.7,46.6,2.3C46.1,1.3,45.9,0.1,46-1.1z"/>
<path class="st30" d="M22.9-125.9c1.3,1,1,2.5,1.1,3.9c2.1,11.8,2.9,23.6,3.1,35.5c-0.1,0.5-0.3,1-0.6,1.5c-4.9,2-6,1.6-7.2-2.5
	c-2.4,1.5-4.4,3.5-7,4.6c-4.9,1.7-9.9,1.4-14.9,1.3c-3-0.3-5.9-0.8-8.8-1.6c-0.5-0.2-0.8-0.6-1.1-1c-0.5-1.4-0.2-2.6,0.6-3.7
	c5.9-8.2,11.2-16.9,17.5-24.7c0.6-1.7-1.1-0.8-1.5-1.3c-5.8-3.2-11.7-3.9-17.9-1.1c-1.9,0.9-3.4,1.8-4.3,3.8
	c-0.2,0.4-0.5,0.8-0.9,1.2c-2.7,1.6-5.6,2.1-8.6,1.8c-0.7-0.2-1.3-0.6-1.9-1c-7.2-3.3-12.7-1.1-16.3,6.3c0,0.5-0.9,1.1-0.5,1.2
	c2.6,0.2,4.7,1.7,6.8,2.8c1,0.7,1.7,1.6,2.7,2.2c4.9,1.6,10.1,2.7,13.6,7.1c0.7,2,0.7,4.1,0.4,6.2c-0.2,1-0.7,1.9-1.4,2.7
	c-2.2,1.5-4,3.5-6.3,4.9c-2.8,1.3-5,3.9-8.5,3.7c-2.8-1.3-5.9-2.2-7.9-4.8c-0.4-1-0.8-2-1.2-3c-2.7-3.3-2.6-7.5-3.4-11.4
	c-1.1-5-2.4-10-2.8-15.2c-0.2-5.3,2.4-9.9,4.1-14.7c1.4-4.1,3-8.1,4.6-12.1c2.8-6.9,4.3-8,11.8-8.1c0.7,0,1.3,0,1.9-0.4
	c1-0.1,1.9-0.1,2.9-0.2c5.9-1.9,11.8-0.1,17.7,0.1c2,0,3.7,1.3,5.3,2.6c1.8,1.5,3.7,2.8,5.5,4.3C6.3-129.7,12.8-123.3,22.9-125.9z"
	/>
<path class="st11" d="M-11,31c-0.3,1-0.7,2-1,3c-1.4,4.2-3.1,8.4-5,12.4c-0.6,1.3-0.9,3.6-3.4,2.3c-0.9-1.6-0.7-3.1,0.3-4.6
	c0.3-1.2-0.3-2.1-0.8-3c-0.9-8.9-1.6-17.7-2.7-26.6c-0.7-6,1-11.8,1.1-17.8c0.1-5.6,1.1-11.2,1.6-16.7c0.3-0.4,0.7-0.7,1-1.1
	c6-1.3,11.5-0.6,16.6,3.1c1.3,3.9-0.3,7.6-0.8,11.3C-5.5,3.5-7.4,13.7-8.8,23.9C-9.2,26.4-9.6,28.9-11,31z"/>
<path class="st9" d="M-20-22c-7.9-3.6-14.3-9.4-21.4-14c-1-0.6-1.7-1.7-1.5-3c0.9-7.2,1.8-14.3,2.8-21.5c0.1-0.6,0.8-1,1.2-1.5
	c1.3,0.2,2.1,1.1,2.8,2.1c2.3,4.6,5.1,9,7.3,13.6c2,4,4.6,5.3,8.8,4c1.5-0.5,3.2-1,4.9-0.1c1.2,0.5-1.5,1.8,0.9,2.7
	c4.5,1.8,8.7,4.4,12.5,7.5c0.2,0.5,0.1,0.9-0.1,1.4C-7.7-27.3-13.3-23.6-20-22z"/>
<path class="st5" d="M-20-22c5.8-3.6,11.9-6.8,18.4-9.1c6.5,0,12.3,2.4,17.7,5.7c0.6,2.8-1.8,3.5-3.4,4.7C11-19.4,9-18.5,7.3-17.3
	c-0.9,0.5-1.8,1-2.9,1.2c-2.9,0-5.8,0-8.4-1.9c-5.2-1.8-10.7-2.2-16-3.1C-20-21.4-20-21.7-20-22z"/>
<path class="st12" d="M-53.1-106.8c1.7,8.9,3.3,17.9,5,26.8c-4.2-1.5-4.7-6.2-7.4-8.8c-7.2-6.8-7.7-14.3-2.7-22.5
	c1-1.6-0.5-5,3.2-4.7C-51.8-113.4-54.5-109.7-53.1-106.8z"/>
<path class="st31" d="M-53.1-106.8c-0.7-3-1.3-6.1-2-9.1c0-1.4,0-2.7,0-4.1c3.3-5.7,6.9-11.3,9.8-17.3c2.3-4.8,5.3-6.8,10.5-5.2
	c0.9,0.3,1.9,0.4,2.9,0.5c-10.1,0.8-13,8.2-15.3,16.3C-49-119.2-52.8-113.6-53.1-106.8z"/>
<path class="st32" d="M-37.2-59.8c-0.6-0.7-1.2-1.5-1.8-2.2c-1.3-2.6-2.7-5.2-4-7.8c0.4-1.3,1.3-1.8,2.6-1.8
	C-36.9-69.1-35.6-64.6-37.2-59.8z"/>
<path class="st33" d="M-40.9-70.9c-0.7,0.4-1.4,0.7-2.1,1.1c-1.7-2.2-3.2-4.5-3.9-7.2c2.8,1.2,5.7,2.1,8.1,4.2
	C-38.6-71.1-40.4-71.8-40.9-70.9z"/>
<path class="st8" d="M50,196c-16.8-1.2-33.4-3.4-50.1-5.4c-1-0.3-2-0.6-3-0.9c-0.9-5,1-9,4.5-12.5c5.9-0.5,5.5-0.6,6.4-6.5
	c0.9-5.8-0.5-11.8,2.3-17.3c9.2-1.6,18.1-0.6,26.8,2.5c1.6,0.6,3.2,1.4,4.2,2.9c2,4.1,2.2,8.6,2.3,13.1c0.1,6-0.7,9.1,7.7,8.7
	c0.8,0,1.6,0.2,2.4,0.6c2.4,2.4,4.7,4.9,3.5,8.8C56.3,193.8,54.6,196.7,50,196z"/>
<path class="st34" d="M1,177.9c-1.4,3.9-2.8,7.9-4.1,11.8c-8.7-2.5-17.5-5-25.8-8.8c1.7-2.8,0.1-6.4,2-9.2c0.9-0.8,2.1-1.1,3.2-0.9
	c7.7,1.6,15.5,3.1,23.1,5.3C0.2,176.4,0.7,177.1,1,177.9z"/>
<path class="st35" d="M-13.9,60.1c7.3,0,14.5-0.1,21.8-0.1c4.4,1.5,9.6,1.7,11.6,7.1c1.3,11.6,0.5,23.3,1.9,34.8
	c0.3,2.5,0.1,5,0.1,7.5c0,4.1-1.8,6.3-6.1,5.9c-1.5-0.2-3.1-0.5-4.4-1.3c-9.2-5.7-18.5-11.2-27-18c-2.4-3.7-1.3-7.7-0.8-11.6
	c0.2-1.5,1.2-2.8,0.9-4.3c2.6-3.2,5.2-6.5,7.9-9.6c2.3-2.6,3.4-4.7-0.7-6.8c-1.7-0.9-3.1-2.5-5.2-2.7c-0.2-0.2-0.3-0.4-0.2-0.6
	C-14,60.2-14,60.1-13.9,60.1z"/>
<path class="st5" d="M-30.1,83.5c0.1-5.7,2.9-10.7,4.4-16.1c1.7-6.2,3.9-12.3,5.8-18.4c3.1-4.8,4.3-10.5,7.8-15
	c-1.7,8.6-0.3,17.5-1.9,26.1c0,0.3,0,0.6,0,0.9c-4.2,6.2-8.3,12.4-12.5,18.6C-27.5,81-28.2,82.7-30.1,83.5z"/>
<path class="st5" d="M-15.9,80c1.6,5.3-1.1,10.6-0.1,16c-3.4-1.1-5.9-3.5-8.8-5.3C-21.9,87.1-18.9,83.6-15.9,80z"/>
<path class="st36" d="M-36.9,86.9c1,0.7,1.9,1.4,2.9,2.1c-0.5,3.4-2.7,5.8-4.9,8.1c-0.6-2.8-0.3-7.3-4.9-2.6
	c-1.5,1.6-1.5-0.4-1.9-0.9c-1.8-1.7,0.5-3.5,1-3.4c4.4,1.3,3.4-3.1,5.1-4.5C-38.2,85-37.7,86.2-36.9,86.9z"/>
<path class="st37" d="M1,177.9c-9.3-2.3-18.5-4.7-27.9-6.2c0.3-9.1,2.3-17.9,3.9-26.8l0,0c1.1-1,2.4-1,3.8-0.6
	c9,2.2,18.1,4.3,27,6.8c0.8,0.2,1.5,0.7,2.1,1.3c0.4,0.5,0.5,1,0.3,1.5c-0.4,6.6-0.9,13.2-1.2,19.8c-0.2,5.8-0.1,5.8-6,4.4
	C2.4,177.9,1.7,178,1,177.9z"/>
<path class="st34" d="M10,153c-11-2.7-22-5.4-33-8c0.7-8.7,2.3-17.3,4-25.9c11.3,7.4,22.6,14.8,33.9,22.2
	C14.9,145.8,14.4,150.2,10,153z"/>
<path class="st38" d="M22.9-125.9c-8.4,3.7-14.8,0.2-20.8-5.4c-3-2.8-6.5-5.1-9.8-7.7c-1.5-1.2-3.1-1.8-5-1.9
	c-5.5-0.3-10.9-0.7-16.4-1.1c0.1-0.2,0.3-0.5,0.4-0.7c4.7-1.6,9.4-3,14-4.9c3.2-1.3,5.4-1.1,7.8,1.5c3.2,3.5,7.3,6.3,10.3,10
	C8.6-129.9,15.4-127.4,22.9-125.9z"/>
<path class="st8" d="M-29.1,57.9c-0.6,1-1.2,2.1-1.8,3.1c-3.4,2.6-7,4.8-10.7,6.9c-1.7,0.9-3.4,2.1-5.5,1.1c0-0.3-0.1-0.7-0.1-1h0.2
	c3.7-8.1,8.5-15.8,10-24.8c0.2-1.3,0.4-3.6,3-3.1C-33,46.3-32.1,52.4-29.1,57.9z"/>
<path class="st11" d="M-47,69c4.6-1,8-4.3,12-6.4c1.3-0.6,2.1-2.7,4.1-1.6c-2.4,4.3-4.7,8.6-7.1,12.9C-40.7,71.9-44.5,71.6-47,69z"
	/>
<path class="st39" d="M-36.9,86.9c-0.9-0.4-1.8-0.7-2.6-1.1c-0.8-0.9-1.8-1.7-3.1-2c0.5-3.5,2.8-6,4.7-8.8
	C-37,78.9-36.9,82.9-36.9,86.9z"/>
<path class="st11" d="M-34,40.1c-3.2,1.8-2.2,5.3-2.9,7.9c-1.8,7.5-5.2,14.1-10.1,19.9c0-0.4,0-0.7-0.1-1.1c0.3-9,1.7-17.7,8.8-24.3
	c1-0.9,2.4-2,1.3-3.7C-35.1,37.3-34.6,38.9-34,40.1z"/>
<path class="st40" d="M-69,71c-1,2.3,1.8,4.6,0,7c-3.4-1.6-5.8-2.8-2.6-7.5C-69,66.8-69.9,71.9-69,71z"/>
<path class="st35" d="M66.9,59.1c1.6,14.9,3.2,29.8,4.8,44.7c0.4,3.8,0.8,7.5,1.2,11.3c0.2,2.1,0.1,4.1-2.9,4c-0.9,0.9-2,1-3.1,1.2
	c-4.2,0.3-8.2-0.7-12.3-1.3c-4-0.8-4.5-3.1-3-6.5c0.8-1.8,1.6-3.6,2.1-5.5c1-4.2-1-8-1.9-11.9c-0.2-0.6-0.1,0.2-0.1-0.5
	C51,87,47.2,82.4,39.5,81.3c-1.6-0.2-3.2-1-4.2-2.5c-2-5.1-2.5-10.6-3.7-16c-0.3-1.3-0.5-2.7,1-3.6c7.9-3,16.1-1.5,24.2-1.7
	C60.2,57.4,63.8,56.5,66.9,59.1z"/>
<path class="st34" d="M66.9,119.1c1.1,0,2.1,0,3.2,0.1c5.9,1.6,3.9,7.1,4.7,10.8c1.9,9.5,2.9,19.3,4.3,28.9
	c-17.2-10.9-34.3-22-51.1-33.7c-0.4-0.6-0.3-1,0.2-1.5c10.7-1.9,21.6-3.2,32.4-3.7C62.7,119.8,64.8,119.7,66.9,119.1z"/>
<path class="st29" d="M66.9,59.1c-11.6,0-23.3-0.6-34.9,0.9c-1.5-1.1-1.6-3-2.3-4.5c-0.6-1.6-2-2.4-3.2-3.5
	c-1.1-0.9-2.3-1.8-1.4-3.6c1-1.3,2.4-1.8,3.9-1.8c11.4,0.1,22.7-1.6,34-1.3c0.7,0,1.3,0.3,1.8,0.7h0.1c0.9,0.8,1.7,1.6,1,3
	C65.5,52.4,66.6,55.7,66.9,59.1z"/>
<path class="st11" d="M66,49c-0.3-1-0.7-2-1-3c3.4-9,4.7-18.6,7-27.9c0.2-0.8,0.3-1.6,1-2.1c1.8,13.3,3.6,26.5,5.4,39.8
	c1,7.4,2.8,14.7,2.6,22.2c-4.8-7.4-8.2-15.5-12-23.4C68.1,52.6,67.6,50.5,66,49z"/>
<path class="st8" d="M107.1,24.1c0.3,0.3,0.6,0.6,1,0.9c0.5,1,0.8,2.2,0.8,3.3c-0.2,9.8,2,19.2,4.6,28.5c-1.2,2.9-2.7,0.6-3.5-0.1
	c-3.9-3.3-7.6-6.8-10.8-10.8c-0.3-1-0.6-1.9-0.9-2.9C99.8,36.1,103.3,30,107.1,24.1L107.1,24.1z"/>
<path class="st41" d="M102.9,61.3c1.4,6.9,1.2,14,3.1,20.7c-1.7,0.9-3.4,1.9-5.2,2.8c-1.3,0.6-2.5,2.7-4.2,0.6
	c-1.3-1.7-3.7-3.1-2.2-5.9C97.4,73.5,99.3,67,102.9,61.3z"/>
<path class="st11" d="M107,24.1c-2.1,6.7-5.4,12.9-8.9,19c-2.1-4.5-3.1-9.3-4.2-14C98,26.6,102.4,25.1,107,24.1z"/>
<path class="st11" d="M99.1,45.9c5.5,2.9,9,8.3,13.8,12c0.4-0.4,0.7-0.4,1.1,0l0,0c-3.5,1.8-7.2,1.9-11,2.1
	C101.3,55.5,99.7,50.8,99.1,45.9z"/>
<path class="st42" d="M54,182c-11.7-0.3-11.7-0.3-12-11.9c-0.1-3.8-1.6-7.4-0.9-11.2c12.1,6.9,23.3,15.3,35,22.8
	c-1,1.4-2.5,1.8-4,1.7C66.1,183.1,59.8,184.9,54,182z"/>
<path class="st34" d="M54,182c7.4-0.1,14.7-0.2,22.1-0.3c2.3,1.5,4.6,3,6.9,4.4c0,1.9,0,3.9,0,5.8c-8.7-0.1-17.4-0.7-26-2
	C56,187.3,55,184.6,54,182z"/>
<path class="st5" d="M10,153c2.4-3.6,3.2-7.9,4.9-11.7c7.5,4.6,15,9.4,22,14.7c-8.9-0.7-17.8-2.1-26.7-2C10.1,153.6,10,153.3,10,153
	z"/>
<path class="st43" d="M11,114c1.3,0,2.7,0,4,0c3.1,1.4,6-0.6,9-0.4c1.9,0.1,4-0.2,5.2,1.8c-0.3,1.6-1.8,1.6-2.9,2.1
	c-2.2,0.4-1.7,4-4.5,3.7C18,119,14.2,117,11,114z"/>
<path class="st5" d="M21.8,121.1c1.9-1.2,1.3-4,3.2-5.2c1.6,2.4,3.6,4.7,3,8c0,0.4-0.1,0.8-0.1,1.2
	C25.6,124.2,23.5,122.9,21.8,121.1z"/>
<path class="st11" d="M113.9,58c-0.4,0-0.7,0-1.1,0c-0.1-0.8,0.1-1.8-0.2-2.4c-5.4-9.6-5-20-4.6-30.5c0.3,0,0.5,0,0.8,0
	c4.2,10.2,6.1,20.8,5.2,31.9C114,57.2,114,57.6,113.9,58z"/>
<path class="st44" d="M34-30.8c-0.6,0.3-1.2,0.7-1.9,1c-4-5.6-8.8-3-13.6-1.5c-1.1,1.4,1,3.3-0.7,4.7c-5.5-1.2-9.3-5.5-14.2-7.6
	c-3-2-6-4-8.9-6.1c-1.2-1-3.2-1.4-2.7-3.7c2-1.8,4.6-1.6,7-2.1c9.6-1.6,19.2-3.4,28.7-5.2c0.5-0.1,1-0.2,1.5-0.3
	c9.7-2,9.7-2,10.5-12c0.1-1.7-0.4-3.8,2.2-4.4c0.1,5.6,0.2,11.1,0.3,16.7C40.3-44.1,36.8-37.6,34-30.8z"/>
<path class="st45" d="M41.8-67.9c-1.8,3.7-0.7,7.7-0.8,11.6c-0.1,3-0.6,4.5-4,4.6c-3,0.2-6,1.1-9.1,1.8c-2.7-3.9-1.6-8.4-2-12.6
	c-0.7-6.9-1.6-13.8-1-20.8c0.3-0.6,0.6-1.1,1-1.5l0,0c2.4-5,7.1-7.8,11.1-11.2c4.1,3.6,5.5,8,5,13.4C41.7-77.8,41.9-72.8,41.8-67.9z
	"/>
<path class="st46" d="M37.2-96.1c-2.6,4.9-7.4,7.5-11.1,11.2c-0.4-12.4-2.4-24.7-2-37.1c0.2,0.3,0.5,0.5,0.5,0.8
	C25.7-111.3,30.8-103.4,37.2-96.1z"/>
<path class="st41" d="M34-30.8c1-7.5,4.6-13.9,8.1-20.4c3.6,3.4,7.3,6.8,10.9,10.2C46.7-37.6,40.4-34.2,34-30.8z"/>
<path class="st35" d="M64.9,46c-11.3,1.4-22.7,1.8-34.1,2.1c-2.1,0-4.4-0.7-5.8,1.8c-2.9,0.6-4.1-1.5-5.4-3.3
	c0.5-2.3-1.2-3.4-2.8-4.4c-0.1-0.5,0-0.9,0.3-1.3c2.8-2.3,6.7,0.1,9.9-2.3c-2-2-5.1-0.6-6.7-2.8c-0.9-1.8-0.9-3.6-0.1-5.4
	c0.6-0.9,1.5-1.2,2.5-1.5c1.2-0.4,3.6,0,3-2.2c-0.5-1.8-2.5-1-3.9-0.9c-1.8,0.1-3.6,0.9-5-0.9C26.3,15.9,36,7.2,46-1
	c4.6,8.3,7.2,17.4,10.8,26.1C59.7,32,62.2,39,64.9,46z"/>
<path class="st35" d="M-4-18c3.1-0.4,6,0.8,9,1c2.4-0.3,4.7,0.1,6.5,1.9c3,6.5,4.3,13.4,5.4,20.3C7.7,13.8-1.7,22.4-11,31
	c0.6-10.7,3-21.2,4.5-31.9C-5.7-6.6-4.8-12.3-4-18z"/>
<path class="st35" d="M14,49c-8.3,1.3-16.8,0.7-25.9,1.5C-4.5,42.8,3.2,36.4,11,30c2-1.2,4-1.7,6.1-0.4c1.4,1.8,1.4,3.7,0.7,5.7
	c-0.8,1.5-2.3,1.6-3.7,1.9c-1.2,0.3-3,0.1-2.9,1.8c0.1,1.6,1.9,1.4,3.1,1.7c0.9,0.2,1.9,0.3,2.6,1.1L17,42c0.8,0.9,1.6,1.7,1.2,3.1
	C16.9,46.5,16.6,49.1,14,49z"/>
<path class="st5" d="M14,49c1.8-0.9,1.5-3.9,4-4c1.1-0.4,1.7,0.2,1.9,1.2c1.7,1.2,3.4,2.5,5.1,3.7c2,1.6,5,2.1,5.9,5.1
	C28.5,59.7,27,65,22,67.8c-1.4,0.1-2.5-0.3-3-1.8c-3.5-2.3-7.8-3.2-11.1-6C9.9,56.3,12,52.6,14,49z"/>
<path class="st41" d="M17,5.2c-3.3-6.3-4.1-13.4-5.9-20.1c4.8-1.3,8.5,1.1,12.2,3.5c0.4,0.7,0.7,1.4,0.8,2.2
	c0.6,3.3,0.6,6.6-2.2,9.1C20.3,1.7,18.6,3.4,17,5.2z"/>
<path class="st5" d="M22-0.1c1.4-2.8,1.7-5.8,1.2-8.8C24-9.3,24.7-7.2,25.8-9c2.1-3.6,5.2-6.6,7.2-10.3c0.6-0.9,1.2-1.6,2.2-1.9
	c0.6,0,1,0.2,1.3,0.7s0.5,1,0.6,1.5c0.3,2.2,0.2,4.3-1.1,6.2C31.8-8.1,26.7-4.3,22-0.1z"/>
<path class="st8" d="M17,30c-2,0-4,0-6,0c1.4-2.4,3.9-3.5,5.9-5.2c2.4,0.7,4.5-0.8,6.8-0.8c1.9,0.1,4.1-0.6,4.3,2.6
	c0.2,3.2-1.7,3.5-4.1,3.4c-1,0-2,0.1-3,0.1C19.6,31.1,18.3,31,17,30z"/>
<path class="st5" d="M36-20c0-0.3,0-0.7,0-1c-0.3-0.2-0.3-0.4-0.3-0.6c0.1-0.2,0.2-0.3,0.3-0.3c3.7-0.7,7.3-1.4,11-2.1
	c-0.7,3.9-4.7,4.6-6.9,7C37.4-16.3,37.3-18.9,36-20z"/>
<path class="st11" d="M36-20c2.2-0.1,2.3,2.6,4,3.1c-1,1.6-2.3,3-4.1,4C36-15.3,36-17.6,36-20z"/>
<path class="st5" d="M36-21.9c0,0.3,0,0.6,0,0.9c-0.3,0-0.6,0-1,0c-0.9,0-1.7-0.2-2.4-0.8c-0.4-0.3-0.7-0.6-1-0.8
	c-3.2-2.3-7-3.5-10.3-5.5c-1.7-1-3.4-1.9-4.3-3.8c3-1.8,6.5-2.1,9.8-2.9c3.9-0.9,4.5,2.3,5.4,5C33.4-27.2,34.7-24.5,36-21.9z"/>
<path class="st47" d="M25.9-84c0.6,11.3,2.2,22.6,2.1,34c-11.1,2-22.2,4-33.3,6c-1,0.2-2,0.1-2.7,0.9c-2.1,1.8-4.3,2.7-6.9,1.3
	c-0.2,0-0.3-0.1-0.5,0c-11.1,1.7-11.1,1.8-16.8-8.3c-1.8-3.1-3.9-6.1-4.9-9.6c-1.4-3.7,0.3-8.4-3.8-11.1c0.7-0.6,1.4-1.3,2.1-1.9
	c2.7-1.3,5.3-2.6,8-4c1,0.8,0.9,2.1,1.5,3.7c1.8-3,2.7-5.9,4.4-8.4c0.4-0.5,0.7-0.9,1.1-1.4c0.5-0.7,1.2-0.7,1.9-0.4
	c1.1,1.3,1.7,3.5,3.9,3.2s2.4-2.4,2.7-4.1c0.4-1,1.2-1.4,2.2-1.4c0.5,0.1,0.9,0.3,1.2,0.7c0.1,0.3,0.1,0.5,0,0.8
	c2.7,1.8,5.7,3,8.2,5.6c1-1.5-0.5-3.1,0.7-4.2c5.4-0.4,10.8-0.1,16.1-1.3c0.9-0.5,1.9-0.8,2.8-0.2c-2.4,3.8-2.7,7.8-1.4,11.7
	c1.8-3.7,1.4-8.7,5.1-11.9C21.7-84.2,23.9-84.9,25.9-84z"/>
<path class="st22" d="M-12-84.9c-0.4,0-0.7,0-1.1-0.1c-5.8-7.7-9.1-16-6.3-25.7l0.4-0.2c6.9-4.5,14.3-6.1,22.4-3.5
	c1.2,0.5,2.6,0.5,3.6,1.5C0.6-103.6-6.3-94.7-12-84.9z"/>
<path class="st48" d="M-19.3-110.8c-0.6,9.2,2.6,17.5,6.3,25.7c-0.7,0.3-1.3,0.7-2,1c-2,2.1-4.2,2.9-6.9,1.2c-0.7,0-1.3,0-2,0
	c0-2.4,0-4.8-0.1-7.2c-1.7-5.4-2.5-11-4.6-16.3c-0.4-0.9,0-1.9,0.8-2.6C-25-109.5-22.1-110.1-19.3-110.8z"/>
<path class="st13" d="M-27.8-108.9c-0.4,1.6,0.3,2.9,0.9,4.2c2.4,4.6,3.4,9.5,2.9,14.7c-4.5-2.3-9.1-4.5-14-5.9
	c0.9-1.6,4-1.2,3.9-3.8c0-0.9-0.8-1.4-1.7-1.6c-2.7-0.6-2.8,2.2-4.2,3.3c-2-2.1-6.3-0.9-7-4.8c3-4.6,7.1-7.1,12.8-6.5
	c1.8,0.2,3.6-0.4,5.4-0.6C-28.5-109.6-28.2-109.3-27.8-108.9z"/>
<path class="st49" d="M4-113.8c-8-2.3-15.3,1.4-22.9,2.8c0-2.9,1.5-4,4.2-5.1c6.9-2.9,13.3-2.4,19.7,1.2C5.3-114,5-113.6,4-113.8z"
	/>
<path class="st50" d="M-28.9-110c-0.2,1.9-1.8,1.9-3,1.8c-6-0.8-10.8,1.7-15.2,5.4c2.7-7.3,8.3-10.6,15.7-9.3
	C-30-111.8-29.7-110.6-28.9-110z"/>
<path class="st51" d="M-40-97.9c-0.1-2,0-4,2.3-4.9c1.6-0.6,3.2-0.6,4.5,0.9c1,1.2,1.4,2.5,0.7,4c-1.1,2.5-3.3,2.2-5.4,2.1
	C-38.6-96.6-39.3-97.3-40-97.9z"/>
<path class="st52" d="M-3.1-82.8c0.6,2,1.3,4,2.3,7.2c-4.6-2.9-8.3-5.1-11.2-8.6C-9-83.7-6-83.2-3.1-82.8z"/>
<path class="st53" d="M-25-81.5c0.1,4.4-2.7,7.6-4.7,11.6c-1.9-2.4-0.8-4.7-1.1-6.9C-28.9-78.3-27-79.9-25-81.5z"/>
<path class="st54" d="M16.1-83.7C15-83.9,14-84,13-84.1c2.3-1.9,4.5-3.7,7.9-6.5c-1.8,6.9,2.3,5.5,5.2,5.7c0,0.3,0,0.6-0.1,0.9
	c-2.4,0.1-4.7,0.2-7.1,0.3C17.9-83,17-83,16.1-83.7z"/>
<path class="st55" d="M4-113.8c0.5-0.2,1.1-0.4,1-1.2c1.2,0.1,2.6,0.1,2,2C6-113,4.8-112.7,4-113.8z"/>
<path class="st12" d="M-15-41.8c2.3-0.4,4.6-0.8,6.9-1.3c4.4,2.2,8.7,4.5,12.1,8.2c-1.1,2.5-2.9,3.8-5.7,3.1
	c-5.2-1.5-9.1-5.2-13.8-7.6C-17.6-40.4-15.3-41-15-41.8z"/>
<path class="st56" d="M-1.7-31.8c1.9-1,3.8-2.1,5.7-3.1c5.4,1.3,9,5.8,14.1,7.8c0.9,0.1,1.2,0.6,1,1.5c-0.8,1.1-1.8,1.7-3.2,0.8
	C10.1-27,4.2-29-1.6-31.1C-1.6-31.3-1.7-31.6-1.7-31.8z"/>
<path class="st11" d="M33.7-22.6c0.8,0,1.7,0.2,2.1,1c-0.3,0.6-0.7,1.3-1,2c-3.7,3.3-7,6.7-11.7,8.6c-4-1.9-8.2-3-12.4-4.2
	c-2.2-0.7-4.4-1.5-6.5-2.2c0.6-0.4,1.3-0.8,2-1.3c1.8-0.2,3.1-2.1,5.2-1.4c6.1,1.6,11.9-1.8,17.9-0.9c0.2,0-0.2-0.1-0.4-0.1
	c-0.5-0.1-0.7-0.6-0.7-1.2C30-24.2,31.9-23.8,33.7-22.6z"/>
<path class="st11" d="M33.1-22c-1.7,0.3-3.6-0.6-5.1,1c-5.6,1.3-11.1,2.9-17,2.1c-1.6-0.8-2.4,2.5-4.1,0.7c2.6-2.7,6.7-3.5,9.1-6.6
	c0.9-0.4,1.9-0.8,2.8-1.1c2.2-1.6,4.4-0.6,6.5,0.1c2.6,0.9,5.1,2,7.7,2.9C33-22.6,33-22.3,33.1-22z"/>
<path class="st35" d="M19,66c1,0.4,2,0.9,3,1.3c2.1,1.3,2.3,3.5,2.4,5.7c-0.4,11.6,1.1,23.2,1.2,34.8c0,2.5,0.4,5-1.5,7.1
	c-3-0.2-6.2,1-9.1-0.8c3.7,0.4,5.5-0.7,5.1-4.9c-1.2-11.6-0.5-23.4-1.9-35.1C17.9,71.4,17,68.5,19,66z"/>
<path class="st57" d="M23,71.9c-0.3-1.6-0.7-3.1-1-4.7c3.9-3.4,5.1-8.9,8.9-12.4c0.4,1.7,0.7,3.4,1.1,5.1c2.1,6.2,3.1,12.5,4,19
	c2.8,3.3,3.7,7,2.3,11.1c-3.8,2.3-7-0.4-10.5-1.2c-3.4-2.8-3-7-3.8-10.7C23.6,76.1,23.9,73.9,23,71.9z"/>
<path class="st58" d="M52.9,95c0.8,4,3.6,7.6,2,12c-4,5.4-5.7,5.7-10.6,1.4c-1.5-1.3-3-2.6-4-4.4c-0.2-0.5-0.4-0.9-0.6-1.4
	c-0.5-3.6-2.6-7-1.5-10.8C42,89.6,48.7,91.1,52.9,95z"/>
<path class="st59" d="M28,124c-1.1-2.6-3.2-4.9-3-8c1.3,0,2.7,0,4,0c2.4-2.1,5.1-1.3,7.8-1c5.7,0.8,11.7,0.7,17.1,3
	c4.3,0.4,8.6,0.8,12.9,1.2c-3.3,2.8-7.6,1.8-11.3,2.4c-8.7,1.4-17.5,2.1-26.2,3.1C28.9,124.6,28.5,124.2,28,124z"/>
<path class="st29" d="M52.9,95c-4.7-0.9-8.9-4-14-3c-1.6,0-1.7-0.8-1-2c-0.7-3.7-1.3-7.4-2-11c1,0.3,1.9,0.7,2.9,0.8
	C47.9,80.8,52.5,85.9,52.9,95z"/>
<path class="st35" d="M54,117.9c-5.7-0.5-11.5-0.5-17.1-1.8c1.5-4,1.8-8.4,4.2-12.2c0.9,0.8,1.8,1.5,2.6,2.3
	c5.6,5.2,5.6,5.2,11.3,0.8c-0.8,2.3-1.3,4.9-2.6,6.9C50.9,116.3,52.5,116.9,54,117.9z"/>
<path class="st35" d="M41.1,103.9c-0.3,4.4-0.5,8.9-4.2,12.2c-2.6,0-5.2-0.1-7.9-0.1c-1.4-1.4-3.3-0.6-5-1.1
	c0.3-14.3-1.8-28.6-1.1-42.9c2.7,5,2.3,11,5,16c5.5,4,9.2,9.5,12.9,15C41,103.3,41,103.6,41.1,103.9z"/>
<path class="st8" d="M33-23c-5,0-9.3-3-14.2-3.1c-0.2-0.4-0.4-0.8-0.7-1.2c0.2-1.7-2.4-2.8-1.1-4.8C22.3-29,27.7-26,33-23z"/>
<path class="st8" d="M16.9,41.9c-2.7-0.7-7.4,2.1-7.6-2.7c-0.2-5.3,4.9-2.3,7.6-3.2c1.3-1,2.6-1.1,4-0.1c1.6,0,3.3,0.1,4.9,0
	c1.9-0.1,3.2,0.4,3.1,2.7c-0.1,2.1-1.4,2.2-3,2.4C23,41.3,19.8,40.1,16.9,41.9z"/>
<path class="st8" d="M21,35.9c-1.3,0-2.6,0-4,0.1c0-2,0-4,0-6c1.3,0,2.6,0,3.9,0C21,32,21,34,21,35.9z"/>
<path class="st8" d="M19.9,46.1c-0.6-0.4-1.3-0.8-1.9-1.2c-0.3-1-0.6-1.9-0.9-2.9C20.1,41.9,22.6,42.2,19.9,46.1z"/>
<path class="st60" d="M18.9,50.8c2.2,1.5,5.5,2.1,5.5,4.6c0,2.1-1.7,5.1-4.3,5.3c-2.1,0.2-5.4-0.8-5.5-3
	C14.6,55.2,16.7,52.8,18.9,50.8z"/>
<path class="st8" d="M22.9-10.9c3.1-3.5,6.8-6.3,11.1-8.2c-1.8,4.3-5.3,7.4-7.8,11.3c-2,3.1-2-0.7-3-1.1C23.1-9.6,23-10.3,22.9-10.9
	z"/>
<path class="st61" d="M-25.4-62.9c-1.4-0.1-3.2,0.4-3.4-1.8c-0.2-2.3,1.6-2,3.1-2.2c7.3-1.2,14.6-2.6,21.9-3.8
	c1.2-0.3,2.6-0.3,3.8,0c0.6,0.1,1.1,1.2,1.3,1.9c0.3,1-0.6,1.5-1.4,1.6C-8.5-65.7-17-64.3-25.4-62.9z"/>
<path class="st62" d="M16.1-83.7c0.9,0,1.9,0,2.8,0c-1.3,5.1-2.7,10.1-4,15.2c-0.4,0-0.8,0-1.2,0c-0.5-4.1-1.2-8.2-1.5-12.4
	C11.9-83.8,15.1-82.3,16.1-83.7z"/>
<path class="st63" d="M-21.9-82.8c2.3-0.4,4.6-0.8,6.9-1.2c1.7,3.3-0.7,5.3-3,5.6C-19.6-78.2-23.3-79-21.9-82.8z"/>
<path class="st64" d="M-2-104.6c-0.1,1.6-1.4,2.8-3.8,2.8s-3.8-1.6-3.8-3.7c0-2.5,1.6-4,4.2-3.8C-3.1-109.2-1.9-107.9-2-104.6z"/>
<path class="st5" d="M11-19c5.7-0.3,11.2-2.7,17-2.1c0.6,0.1,1.3,0.1,1.9,0.2C23.6-19.8,17.6-16,11-19z"/>
<path class="st5" d="M41,103c-5.2-4.2-8.8-9.8-12.9-15c3.5-0.1,6.4,2.5,10,2c0,0.8,0.2,1.5,1,2C39.6,95.6,40.3,99.3,41,103z"/>
</svg>
