<?xml version="1.0" encoding="utf-8"?>
<!-- Generator: Adobe Illustrator 23.1.0, SVG Export Plug-In . SVG Version: 6.00 Build 0)  -->
<svg version="1.1" id="Capa_1" xmlns="http://www.w3.org/2000/svg" xmlns:xlink="http://www.w3.org/1999/xlink" x="0px" y="0px"
	 viewBox="0 0 87.2 150" style="enable-background:new 0 0 87.2 150;" xml:space="preserve">
<style type="text/css">
	.st0{fill:#E9E9E9;}
	.st1{fill:#F6F6F5;}
	.st2{fill:#F6F6F6;}
	.st3{fill:#554E4A;}
	.st4{fill:#281B0E;}
	.st5{fill:#734C5F;}
	.st6{fill:#4F4F4F;}
	.st7{fill:#B1B1B1;}
	.st8{fill:#543042;}
	.st9{fill:#46382D;}
	.st10{fill:#3C3C3C;}
	.st11{fill:#B2879C;}
	.st12{fill:#291C0F;}
	.st13{fill:#EDCFCA;}
	.st14{fill:#535454;}
	.st15{fill:#7B7B7B;}
	.st16{fill:#686969;}
	.st17{fill:#676767;}
	.st18{fill:#6A6B6B;}
	.st19{fill:#CCA4A1;}
	.st20{fill:#959595;}
	.st21{fill:#CECDCC;}
	.st22{fill:#EECFCA;}
	.st23{fill:#6B6C6D;}
	.st24{fill:#666766;}
	.st25{fill:#686867;}
	.st26{fill:#B3B4B3;}
	.st27{fill:#404040;}
	.st28{fill:#35291B;}
	.st29{fill:#4F5253;}
	.st30{fill:#FDEDE8;}
	.st31{fill:#CBA29E;}
	.st32{fill:#8B7470;}
	.st33{fill:#EACDC8;}
	.st34{fill:#3A3A3A;}
	.st35{fill:#95637C;}
	.st36{fill:#6C6D6F;}
	.st37{fill:#6E7072;}
	.st38{fill:#CCA29E;}
	.st39{fill:#E9CEC9;}
	.st40{fill:#6B6D6E;}
	.st41{fill:#ECCEC9;}
	.st42{fill:#6E7071;}
	.st43{fill:#383A38;}
	.st44{fill:#88726F;}
	.st45{fill:#957977;}
	.st46{fill:#EDCEC9;}
	.st47{fill:#B99F9D;}
	.st48{fill:#FEF4F2;}
	.st49{fill:#4D3E34;}
	.st50{fill:#4E4035;}
	.st51{fill:#313030;}
	.st52{fill:#8D7673;}
	.st53{fill:#937B78;}
	.st54{fill:#EFD2CD;}
	.st55{fill:#C4ACA6;}
	.st56{fill:#E9CCC6;}
	.st57{fill:#636363;}
	.st58{fill:#3F3F3F;}
	.st59{fill:#353535;}
	.st60{fill:#505655;}
	.st61{fill:#8A7370;}
	.st62{fill:#8C7572;}
	.st63{fill:#8B7471;}
	.st64{fill:#313130;}
</style>
<path class="st0" d="M66.6,142.9c3.8,0.4,7.6,0.7,11.4,1.2c4.2,0.5,8.3,1.1,12.5,1.8c-3.4,0.3-6.7,0.5-10.1,0.8
	c-5.2,0.5-10.3,1-15.5,1.4c-3.5,0.3-7,0.6-10.6,0.8c-2.1,0.1-4,0.7-6.1,0.4c-0.7,0.5-1.6-0.1-2.2,0.4c-1.2,0-2.5,0-3.7,0
	c-0.6-0.5-1.3,0.1-1.9-0.4c-3.9-0.4-7.9-0.8-11.8-1.3c-3.9-0.5-7.8-0.9-11.6-1.4c-4.7-0.6-9.4-1.1-14.5-1.7c1.8-1,3.4-0.7,4.9-0.8
	c2.3-0.2,4.1-0.3,4.2-3.1c0.5,1.8,1.8,2.1,3.6,2.1c4.6-0.1,9.3,0,13.9,0c0.8,0,1.6,0.1,2.4-0.3c0.7-0.3,0.6-1.3,1.2-1.7
	c6.7-1.2,13.4-2.2,20.1-0.5c0.7,0.5,0.4,1.1,0.2,1.6c-0.3,0.8-0.8,1.5-1,2.4c-0.3,1.2,0.1,1.8,1.4,1.8c3.8,0,7.7,0,11.5,0
	c1.3,0,1.6-0.8,1.5-1.8C66.5,144.1,66.1,143.4,66.6,142.9z"/>
<path class="st1" d="M46,149.7c0.7-0.7,1.5-0.3,2.2-0.4c0,0.1,0,0.3,0,0.4C47.5,149.7,46.7,149.7,46,149.7z"/>
<path class="st2" d="M40.3,149.3c0.6,0.1,1.3-0.3,1.9,0.4c-0.6,0-1.2,0-1.9,0C40.3,149.5,40.3,149.4,40.3,149.3z"/>
<path class="st3" d="M26.9,2c0.2-0.1,0.5-0.2,0.7-0.3c2-1.9,4-1.6,6.1,0c3.3,0.8,5.8,3.1,8.8,4.3c3.6,1.5,5.8,4.2,7.8,7.4
	c2.4,3.9,4.9,7.7,7.4,11.5c0.6,0.9,1.1,1.8,1,2.9c-0.2,3.2,0.5,6.4,0.4,9.6c0,1.4,0.4,2.4,1.4,3.3c1.2,1.1,2.3,2.3,3.4,3.4
	c0.8,0.8,1,1.7,0.4,2.7c-0.9,1.5-1,3.3-2.4,4.6c-1.5,0-3-0.3-4.4-0.7c-0.1-0.1-0.3-0.3-0.4-0.5c-0.9-2.9-2.1-5.8-3-8.7
	c-0.5-1.5-0.6-2.9-0.3-4.4c0.4-2.4,0.7-4.8,1.2-7.2c0.3-1.2-0.1-2.2-1.2-2.6c-3.9-1.2-5.3-4.2-6-7.9c-0.3-1.7-1-3.2-1.4-4.9
	c-0.3-1.2-0.8-1.9-2.1-1.9c-4.6,0.1-8.3-1.8-11-5.5c-1.7-2.3-3.8-3.2-6.7-2.4c-1,0.3-2.2,0.5-3.3,0.2c-0.7-0.8,0.1-1.1,0.6-1.4
	C24.8,2.8,25.8,2.3,26.9,2z"/>
<path class="st4" d="M62.1,51.2c0.3-1.7,1.1-3.2,1.9-4.6c0.4-0.9,0.5-1.5-0.3-2.1c0,0-0.1-0.1-0.1-0.1c-4.1-2.9-5.8-6.9-5.2-11.7
	c0.6-5-1.6-8.7-4.3-12.5c-2.4-3.4-4.5-6.9-6.7-10.3C46.9,9,46.1,8.5,45.3,8c-3.9-2.1-7.8-4.2-11.6-6.4c2.4-0.6,4.7-1.3,7.1-2
	c0.8-0.2,1.4,0.1,2,0.6c1.9,1.4,3.7,3,5.8,4.1c2.1,1.2,3.2,3,3.4,5.4c0.1,1.7,0.9,3,2.2,4.1c2.5,2.1,4.8,4.3,7.3,6.5
	c0.5,0.5,0.9,0.9,1,1.7c0.2,3.3,0.5,6.6,0.8,9.9c0.8,0.8,0.8,1.9,0.9,3c0,1,0,2,0.2,3c0.2,1-0.1,2,0.4,3c0.6,0.6,1.3,1,1.9,1.5
	c1.9,1.4,1.9,1.6,0.7,4.8c-0.7,1.5-0.6,3.3-1.8,4.5c-0.2,0.1-0.4,0.2-0.6,0.2C64,51.7,63,51.9,62.1,51.2z"/>
<path class="st3" d="M24.2,59.9c-3.6-2-7.2-4-10.8-6c-0.9-0.5-1.2-1.1-1.1-2.1c0.1-3.4,0.2-6.9,0.4-10.3c0-1.1-0.2-2-0.8-3
	c-1.6-2.4-3.2-4.8-4.8-7.1c-0.6-0.8-0.8-1.5-0.4-2.6c1.6-4,3.2-8,4.8-12c1.2,0.6,1.1,2.1,1.8,3.1c0.1,0.5,0.2,0.9,0,1.4
	c-1.3,1.8-1.7,3.9-2.4,6c-0.1,0.4,0.1,0.9,0.3,1.2c1.5,2.1,2.8,4.4,4.6,6.3c0.3,0.3,0.5,0.8,0.6,1.2c0.4,1,1,1.8,1.5,2.7
	c0.5,1,1.4,1.9,1.3,3.2c-0.7,2.6-0.7,5.3-1.1,8c-0.1,0.9,0.6,1.4,1.2,2c2.2,1.7,4.5,3.1,6.7,4.7c0.1,0.2,0.2,0.3,0.2,0.5
	c0,0.3-0.1,0.5-0.3,0.8C25.4,58.5,25.5,59.8,24.2,59.9z"/>
<path class="st5" d="M24.2,59.9c0.8-0.6,0.8-1.7,1.5-2.3c1,1.7,0.3,3.5,0.1,5.1c-0.7,5.2-0.3,10.3,0.3,15.4c0.1,0.8,0.2,1.5-0.1,2.2
	c-0.4,0.7-1,0.6-1.6,0.5c-2.8-0.7-5.5-1.6-8.2-2.5c-0.4-0.2-0.9-0.4-0.9-1.1C18.2,71.4,21.2,65.7,24.2,59.9z"/>
<path class="st6" d="M32.4,141.4c-0.2,0.6,0.1,1.4-0.3,1.9c-0.4-1.5-1.4-1.8-2.9-1.7c-5.1,0.2-10.2,0-15.4,0c-0.7,0-1.5,0.3-2-0.6
	c3-2.1,6.1-4.2,9.1-6.4c0.5-0.4,1.3-0.5,1.3-1.4c0.1-0.2,0.3-0.2,0.5-0.2c3.4,0.8,6.5,2.3,9.9,3.1c0.4,0.2,1,0.2,1,0.9
	c-0.5,0.7-0.7,1.5-0.7,2.4C33,140.1,33,140.8,32.4,141.4z"/>
<path class="st7" d="M14.9,115.9c-0.1,0-0.3,0-0.4-0.1c-3.4-2-3.4-2-1.3-5.3c1.6-2.6,3.7-5,5.1-7.8c0-0.5,0.4-0.9,0.6-1.3
	c0.7-0.9,1.3-1.9,1.8-2.9c0.5-0.8,0.9-1.7,1.6-2.3c1.7-1.9,2.9-4.2,4.4-6.3c0.5-0.7,0.9-1.5,1.7-2c1.4-0.2,2.3,0.8,3.1,1.7
	c0.7,0.7,0.1,1.4-0.3,2c-1,1.4-2.1,2.6-3.1,3.9c-1.2,1.4-2.3,2.7-3.4,4.2c-0.7,1-1.8,1.8-2.4,3c-0.7,1.1-1.2,2.3-1.9,3.4
	c-1.5,2.6-2.7,5.4-4.1,8.1C15.9,114.7,15.7,115.6,14.9,115.9z"/>
<path class="st8" d="M22.8,133.1c-0.1,0-0.3,0-0.5,0c-2.1-0.7-4.1-1.4-6.2-2c-1-0.3-1.1-0.9-0.9-1.8c1.1-4,2.2-8,3.3-12
	c2.5-0.1,4.6,0.8,6.6,2.4c0.3,2.1-0.4,4.1-0.7,6.1c-0.2,1.3-0.4,2.6-0.5,3.9C23.5,130.8,24,132.3,22.8,133.1z"/>
<path class="st5" d="M25,119.6c-2.1-0.8-4.3-1.5-6.4-2.2c-1.2-0.5-2.4-1-3.7-1.5c1.8-3.4,3.5-6.8,5.3-10.2c2.7,0.7,5,2.1,6.7,4.4
	c-0.4,3.1-0.7,6.3-1.6,9.3C25.1,119.5,25.1,119.5,25,119.6z"/>
<path class="st9" d="M13,20c-1.1-0.8-0.8-2.1-1.5-3.1c-0.3-1-0.6-2.1-1.1-3c-0.9-1.7-0.6-2.8,0.9-3.9c1.8-1.4,3.4-3,5.1-4.6
	c1.9-0.4,3.7,0.1,5.5,0.4c1,0.4,1.2,1.1,1,2.1c-0.2,1.1-0.1,2.2,0,3.3c0,0.2,0,0.4-0.1,0.6c-0.3,0.3-0.7,0.4-1.1,0.4
	c-0.3,0-0.5,0-0.7,0c-2.7-0.5-2.8-0.4-4.2,2.1c-0.8,1.4-1.6,2.8-2.3,4.2C14.1,19.1,13.8,19.8,13,20z"/>
<path class="st5" d="M7.4,95.5c0-0.1,0-0.2,0-0.3c-0.2-0.4,0-0.7,0.2-1c0.9-0.9,1.6-2,2.9-2.5c1-0.4,1.5-1.2,2.2-1.8
	c1.2-0.3,2.1,0.6,3.2,0.6c0.1,0.1,0.3,0.2,0.4,0.3c0.9,0.9,2.4,0.9,3.2,2c0,0.2,0,0.3,0,0.5c-0.4,1.3-1.3,2.3-1.8,3.5
	c-1,1.1-1,3-2.8,3.6C12.1,99.4,9.7,97.5,7.4,95.5z"/>
<path class="st10" d="M11.9,141c1.9,0.5,3.7,0.2,5.7,0.2c4.2,0,8.3,0.1,12.4,0c1.8-0.1,2.4,0.5,2.2,2.2c-0.2,0.1-0.4,0.3-0.6,0.3
	c-6.3,0-12.5,0-18.8,0c-2.2,0-0.8-1.7-1.2-2.6C11.6,141,11.8,141,11.9,141z"/>
<path class="st11" d="M15.2,77.2c3.3,1.6,6.9,2.4,10.5,3.4c0.6,0.2,0.7,0.6,0.5,1.1c-0.9,1.2-1.5,2.7-2.3,3.9
	c-0.4,0.5-0.6,1.2-1.3,1.4c-1-0.5-1-1.6-1.3-2.5c-0.3-1.2-0.7-2.5-0.9-3.8c-0.1-0.4-0.2-0.7-0.7-0.5c-1.5,1.1-2.9,2.1-4.5,3
	c-0.4,0.3-1.4,1-1.2-0.5C14.4,80.9,14.6,79,15.2,77.2z"/>
<path class="st12" d="M22,6.1c-1.9,0-3.7-0.2-5.6-0.7c0.1-0.2,0.2-0.3,0.3-0.5c2.5-3.8,6.2-3.8,10.1-3c-1,1.2-2.7,1.3-3.7,2.6
	C23.1,5.4,23.4,6.4,22,6.1z"/>
<path class="st13" d="M7.4,95.5c2.5,1.5,4.9,3.1,7.4,4.6c0.4,0.1,0.7,0.4,0.8,0.8c0.1,0.6,0.1,1.2-0.3,1.7c-2-0.2-3.7-1.1-5.6-1.7
	c-0.8-0.3-1-1-1.2-1.7C8.1,98,7.4,96.8,7.4,95.5z"/>
<path class="st8" d="M14.1,82.7c0.1,0.6,0.4,0.6,0.9,0.3c1.6-1.1,3.2-2.2,4.8-3.3c0.8,0.1,0.4,0.6,0.3,1c-0.3,0.7-0.7,1.3-1.2,1.8
	c-1.3,1.4-1.9,3-2,4.9c0,1-0.1,2-0.7,2.9c-0.9,0.1-1.1-0.6-1.3-1.2c-0.5-1.5-0.9-2.9-1-4.4C13.8,84,13.6,83.3,14.1,82.7z"/>
<path class="st14" d="M3.1,93.3c-0.6,0-1.2-0.1-1.7-0.1c-0.4-0.5,0-1,0.2-1.4c0.9-1.5,1.9-3,3-4.5c0.2-0.3,0.4-0.8,1-0.6
	c0.7,0.8,1.1,1.7,1.5,2.6C7.2,91.9,5.5,93.6,3.1,93.3z"/>
<path class="st15" d="M5.6,86.8c-1.5,2-3.1,4.1-4.2,6.4c-0.8-1.5-0.6-3.2-0.9-4.8c-0.1-0.3,0.2-0.6,0.5-0.7
	C2.6,87.5,4,86.6,5.6,86.8z"/>
<path class="st16" d="M15.3,100.8c-0.1-0.2-0.3-0.5-0.4-0.7c1.6-0.6,1.4-2.7,2.8-3.5c0.7-0.3,1,0.2,1.2,0.7c0.2,1.4-0.3,2.3-2.3,2.3
	c1,0.5,1.6-0.4,2.1,0.2c0.6,0.6,0.8,1.1,0.4,1.8c-0.1,0.5-0.3,0.9-0.8,1.1c-0.5-0.3-0.9-0.8-1.5-0.8C16,101.8,15.6,101.3,15.3,100.8
	z"/>
<path class="st11" d="M13.8,84.7c0.9,1.3,0.9,2.9,1.4,4.3c0.2,0.5,0.2,1.1,0.8,1.3c0,0.1,0.1,0.2,0.1,0.2c0,0.1-0.1,0.1-0.1,0.2
	c-1.3,0.7-2.2-0.4-3.3-0.7C13,88.2,13.4,86.4,13.8,84.7z"/>
<path class="st17" d="M3.1,93.3c2.6,0,3-2.2,3.9-3.9c0.4,0.3,0.7,0.5,1.1,0.8c0.2,0.6,0.1,1-0.3,1.5c-1.4,0.5-1.5,1-0.1,2.4
	c0,0.1,0,0.2,0,0.3c-0.1,0.3-0.3,0.6-0.4,0.8C5.9,94.7,4.8,93.4,3.1,93.3z"/>
<path class="st18" d="M7.8,91.8c-0.1-0.6,0.1-1.1,0.4-1.5c0.8,0.4,1.6,0.9,2.2,1.5c-0.7,1-1.6,1.9-2.6,2.6l0,0
	C7.8,93.5,6.7,92.7,7.8,91.8z"/>
<path class="st19" d="M15.3,100.8c0.6,0.3,1.2,0.5,1.5,1.1c-0.3,0.6-0.9,0.8-1.5,0.8C15.3,102.1,15.3,101.4,15.3,100.8z"/>
<path class="st5" d="M75.1,116.2c0,0.3,0,0.5,0,0.8c-0.1,0.3-0.3,0.7-0.7,0.9c-3.4,2.3-6.8,4.6-10.2,6.8c-0.3,0.2-0.6,0.4-1,0.3
	c-0.1-0.1-0.3-0.3-0.4-0.5c-0.9-2.8-0.9-5.8-1.4-8.6c-0.4-2.1-0.4-4.3-1.6-6.2c0.5-0.8,0.5-1.7,0.4-2.7c-0.6-6.5-1.5-13-2-19.6
	c-0.1-1.2-0.6-2.4-0.1-3.7c1.3-0.7,1.3,0.6,1.6,1.2c1.1,2.6,2.4,5,3.6,7.5c0.3,0.6,0.6,1.1,0.9,1.6c1.8,3.6,3.7,7.2,5.4,10.9
	c1.3,2.8,3,5.5,4.3,8.3C74.5,114.2,74.9,115.1,75.1,116.2z"/>
<path class="st8" d="M75.1,116.2c-3.9-7.2-7.5-14.5-11.1-21.8c-1.3-4.7-1.6-9.6-2.4-14.4c-0.4-2.7-0.8-5.5-1-8.3
	c0-0.2,0.1-0.4,0.2-0.6c0.2-0.2,0.4-0.2,0.7-0.1c2.6,1.5,5.3,2.9,7.6,4.9c0.7,1.6,1,3.4,1.6,5c0.1,0.5,0.3,0.9,0.4,1.3
	c0.4,1.7,1,3.3,1.4,5.1c0,0.2,0,0.4,0,0.5c-0.7,2-1.6,3.9-2.5,5.9c-0.7,1.6-0.7,1.6,0.3,3.2c1-0.4,1.8-1.4,3-1.3
	c0.1,0.1,0.3,0.3,0.3,0.5c0.2,2.3,1.2,4.5,0.7,6.8C74.6,107.4,74.8,111.8,75.1,116.2z"/>
<path class="st20" d="M26.5,109.8c-2-1.6-4.2-2.9-6.4-4.2c0.7-1.1,1-2.4,1.9-3.4c1-0.2,1.6,0.5,2.4,0.9c7.5,4.8,14.9,9.8,22.4,14.7
	c10.2,6.8,20.5,13.4,30.6,20.3c0.9,0.6,1.8,1.2,2.4,2c0,0.3-0.1,0.5-0.5,0.4c-3-0.9-6-1.7-9.1-2.6c-0.6-0.2-1.2-0.5-1.8-0.2
	c-1.3-0.8-2.6-1.7-3.9-2.5c-0.9-0.6-1.7-1.2-2.6-1.7c-4.4-2.8-8.6-5.8-13-8.6c-0.6-0.4-1.1-0.8-1.7-1.2c-2.8-1.8-5.5-3.7-8.3-5.5
	c-3.9-2.4-7.5-5-11.3-7.5C27.2,110.7,26.8,110.3,26.5,109.8z"/>
<path class="st21" d="M79.7,140.3c-5.2-3.4-10.4-6.8-15.6-10.3c-13.7-9-27.3-18.1-41.1-27.1c-0.3-0.2-0.6-0.4-1-0.6
	c0.4-1.3,1.7-1.9,2.2-3.1c1.4,0,2.3,1.2,3.5,1.8c3.3,2.4,6.8,4.4,10.1,6.7c1.3,1,2.7,1.8,4.1,2.7c0.7,0.6,1.5,1.1,2.4,1.6
	c5.6,3.9,11.4,7.4,16.9,11.2c0.7,0.5,1.5,0.9,1.9,1.7l0,0c3,1.2,5.5,3.3,8.2,5c2.2,1.3,3.7,3.2,4.8,5.5c1.3,1.7,2.5,3.3,3.8,5
	C79.9,140.4,79.8,140.4,79.7,140.3z"/>
<path class="st5" d="M68.8,76c-2.6-1.6-5.2-3.3-7.8-4.9c-0.5-0.5-0.3-1.2-0.2-1.8c1.3-5.5,2.5-11,3.9-16.4c0.1-0.3,0.2-0.6,0.4-0.8
	c0.9-0.7,1.3,0.1,1.7,0.6c0.8,1.1,1.6,2.1,2.2,3.3c-0.3,0.9,0.4,1.4,0.8,2c3,4.5,6.1,8.9,9.1,13.4c0.4,1-0.4,1.2-1,1.4
	c-1.3,0.5-2.5,1-3.8,1.4c-0.1,0.1-0.3,0.2-0.5,0.2C72,75,70.5,76,68.8,76z"/>
<path class="st8" d="M76.2,135.3c-3.3-4.8-8.6-7.1-13-10.5c4-2.6,7.9-5.3,11.9-7.9C75.5,123.1,75.9,129.2,76.2,135.3z"/>
<path class="st6" d="M66.6,142.9c0.1,0.5,0.2,1,0.3,1.5c-0.6,0.6-1.3,0.6-2.1,0.6c-3.7,0-7.5,0-11.3,0c-0.7,0-1.5,0-2.1-0.6
	c0.5-1.1,1-2.2,1.5-3.3c-0.3-0.6,0-1.2,0.4-1.7c-0.5,0-1.1,0.2-1-0.6c1.4-0.3,1.9-1.7,3-2.4c3.1,0,6.2,0.3,9.3,0.7
	c0.9,0.5,1.2,1.2,0.9,2.3C65.9,140.4,66.2,141.7,66.6,142.9z"/>
<path class="st5" d="M72.2,88.1c0-0.2,0-0.3,0-0.4c1.2-1,2.8-0.7,4.1-1.2c1.3,0,2.8-1.2,4,0.3c0.9,2.5,2.1,4.9,2.6,7.4
	c-0.2,0.3-0.4,0.5-0.7,0.5c-3,0.4-5.9,1.4-9,1.1h0c-0.3-0.2-0.6-0.3-0.6-0.6C72.3,92.9,71.6,90.6,72.2,88.1z"/>
<path class="st22" d="M73.3,95.9c3.2-0.5,6.5-1.1,9.7-1.6c-0.7,1.9-1.3,3.8-2,5.8c-0.1,0.5-0.5,0.6-0.9,0.8
	c-1.9,0.7-3.8,1.5-5.7,2.2C73.7,100.7,73.4,98.3,73.3,95.9z"/>
<path class="st23" d="M66.9,47.1c0.1-0.4,0.2-0.9,0.4-1.2c0.7-1.5,0.4-2.6-1.1-3.2c2.2-3.8,4.8-7.3,7.4-10.8c0.5-0.4,1-0.5,1.6-0.3
	c0.5,0.4,0.7,0.9,0.6,1.5c-1.7,3.2-4,6-6,9c-1.1,1.7-1.2,1.7,0.6,2.9c0.5,0.5,1.2,0.7,1.4,1.4c0.1,0.1,0.1,0.2,0.2,0.3
	c2.6,2,2.6,2,0.3,4.6c-1.2,0.6-1.8-0.4-2.6-0.9c-0.8-0.5-1.6-1-2.3-1.5C66.8,48.3,66.5,47.8,66.9,47.1z"/>
<path class="st24" d="M71.7,46.3c-0.5-0.3-1.2-0.5-1.5-1.1c-0.3-0.9,0.4-1.5,0.9-2.1c1.5-2.1,2.9-4.2,4.5-6.4
	c1.3-1.9,2.5-3.8,3.9-5.6c0.3-0.5,0.5-1.2,1.3-1c0.5,0.3,0.9,0.6,1.4,0.9c0.3,0.3,0.2,0.6,0,0.8c-1.5,2-2.6,4.4-4.5,6
	C75.8,40.7,73.8,43.5,71.7,46.3z"/>
<path class="st24" d="M64.4,41.4C63.6,40.3,64,39.1,64,38c0.4-1.8,1.6-3,2.6-4.4c0.5-0.8,1.1-1.6,1.6-2.4c1.2-1.7,2.3-3.5,3.6-5.2
	c0.4-0.5,0.6-1.3,1.5-1.1c0.5,0.3,1,0.6,1.4,0.9c0.1,1.2-0.8,1.9-1.3,2.7c-0.9,1.4-1.9,2.7-2.7,4.2C68.4,35.4,66.6,38.6,64.4,41.4z"
	/>
<path class="st5" d="M77.8,37.8c1.5-2.3,3-4.5,4.5-6.8c1.7-0.3,3.4-0.7,5.4-1.1c-1.6,2.3-3,4.4-4.5,6.4c-0.7,1-2,0.8-3.1,1.1
	C79.4,37.6,78.6,37.7,77.8,37.8z"/>
<path class="st5" d="M65.4,29c-2.2-5,1.2-8,4-11.8c0.2,1.7,0.4,3,0.6,4.3c0.6,1,0.3,1.9-0.3,2.7c-0.6,0.7-1,1.5-1.6,2.3
	C67.1,27.2,67,28.9,65.4,29z"/>
<path class="st11" d="M67.7,26.4c0.6-1.7,2.6-2.8,2.3-5c0.4,0.4,0.7,0.4,1-0.1c0.4-0.6,0.9-1.2,1.5-2.1c0.3,2.1,0.6,3.8,0.9,5.6
	c-1.9,1.9-3,4.5-4.8,6.5c-0.7-0.6-0.7-1.4-0.9-2.2C67.6,28.2,67.2,27.3,67.7,26.4z"/>
<path class="st11" d="M80.8,30.1c-1.6,2.3-3.2,4.5-4.9,6.8c-0.9-1.1-1.1-2.4-0.5-3.7c-0.1-0.5-0.2-1.1-0.3-1.5
	C75,30.5,76,29.9,76.5,29c0.8-1.4,1.9-2.7,2.7-4.1c1.1-0.7,0.9,0.5,1,0.9C80.5,27.2,80.7,28.6,80.8,30.1z"/>
<path class="st5" d="M79.2,24.8c0.4,0.3,0.4,0.6,0.1,0.9c-1.4,2-2.8,3.9-4.2,5.9c-0.6-0.1-1,0.1-1.5,0.4c-1,0.6-2.1,1.2-3.3,0.4
	c1.2-2.4,3-4.4,4.5-6.7C76.3,25.4,77.7,25.1,79.2,24.8z"/>
<path class="st6" d="M66.9,47.1c0,0.5,0.1,0.9,0.6,1.2c1.6,0.9,3,2.3,4.8,2.9c-0.9,1.8-2.1,3.3-3.3,4.9c-1.2-0.4-1.4-1.6-2.1-2.4
	c-0.5-0.6-0.7-1.4-1.5-1.8c-0.1-0.1-0.1-0.2-0.1-0.2c0-0.1,0.1-0.1,0.1-0.1C65.9,50.1,66.4,48.6,66.9,47.1z"/>
<path class="st8" d="M79.6,78.6c0,0.3,0,0.5,0,0.8c-0.3,2.3-1.5,4.3-2.4,6.4c-0.2,0.4-0.4,1.1-1.2,0.6c-0.1-0.2-0.3-0.5-0.2-0.7
	c0.2-3.7-0.6-7.3-1.8-10.8c0.1-0.9,0.6-1.1,1.2-0.6C76.8,75.8,78.6,76.8,79.6,78.6z"/>
<path class="st11" d="M79.6,78.6c-1.3-1.2-2.7-2.4-4.1-3.5c-0.3-0.3-0.5-0.9-1.2-0.6c-0.1,0.1-0.3,0.2-0.4,0.1
	c-0.1-0.1-0.2-0.2-0.3-0.4c1.2-0.8,2.6-1.1,3.9-1.7c0.5-0.2,1.3-0.2,1.4-1C79.7,73.8,79.6,76.2,79.6,78.6z"/>
<path class="st11" d="M76.3,86.5c1.1-2.4,2.2-4.7,3.3-7.1c0.2,2.5,0.4,5,0.7,7.4c-1.3-0.9-2.7,0.3-4,0l-0.1-0.1
	C76.2,86.6,76.2,86.5,76.3,86.5z"/>
<path class="st25" d="M67.7,26.4c0.3,0.9,0.4,1.7,0.4,2.7c-1.1,2.3-2.2,4.6-4.4,6C63.5,34,63.3,33,63.2,32c1.2-0.6,1.6-1.8,2.2-2.9
	C66.5,28.4,66.6,27,67.7,26.4z"/>
<path class="st8" d="M65.4,139.2c-0.3-0.6-0.5-1.3-0.8-1.9c-0.3-0.7-0.7-1.5,0-2.2c1.3,0.9,2.9,1.4,3.7,2.8
	C67.4,138.3,66.4,138.8,65.4,139.2z"/>
<path class="st26" d="M79.7,140.3c0.1,0,0.3,0,0.4,0c0.1,0.2,0.5,0.5,0.1,0.7c-0.3,0.2-0.7,0-0.9-0.3
	C79.4,140.6,79.5,140.4,79.7,140.3z"/>
<path class="st27" d="M51.5,144.4c5.1,0,10.3,0,15.4,0c0.2,2.5,0.2,2.5-2.2,2.5c-3.8,0-7.6,0-11.4,0
	C50.9,146.9,50.9,146.8,51.5,144.4z"/>
<path class="st28" d="M22,6.1c1,0,0.5-1.2,1.2-1.5c1.7-0.2,3.4-0.5,5.2-0.7c1.5-0.2,2.8-0.1,3.8,1.3c0.6,0.8,1.6,1.4,2.2,2.3
	c2.5,3.7,6.3,4.5,10.4,4.6c1.2,0,1.7,0.5,2,1.7c0.9,3.3,2,6.6,2.9,9.9c0.3,1.1,1.2,1.4,1.9,1.8c4.5,2.5,4.6,2.5,3.4,7.5
	c-1,4.4-0.9,8.5,1.1,12.5c0.7,1.4,1.3,3,1.4,4.6C56.3,51,55,50.2,53.7,50c-1.7-1.4-3.7-2.4-4.8-4.5c-0.3-1.9-0.1-3.8-0.1-5.8
	c0-1.9-0.1-3.9,0-5.8c0.1-1.8-0.3-3.3-1.6-4.6c-0.2-0.3-0.4-0.6-0.7-0.9c-2.5-2.5-3.7-5.6-4.3-9.1c-0.1-0.5-0.2-1-0.6-1.4
	c-4.2-0.3-6.9-3.2-9.4-6.1c-1.8-2.1-3.6-2.5-6-1.3c-1,0.5-2.1,1.4-3.5,0.8c-0.9-1.1-0.6-2.4-0.3-3.6C22.7,7,22.5,6.6,22,6.1z"/>
<path class="st29" d="M62.1,51.2c1,0,2-0.2,3,0.5c-0.1,1.5-1.5,2.3-2.4,3.1C58.8,58.1,55,61.6,51.1,65c-3.6,3.2-7.3,6.4-10.9,9.7
	c-0.7,0.7-1.7,1.2-2.4,2c-2.4,2.2-4.9,4.4-7.5,6.7c2.3-0.1,4.5,0.2,6.7-0.3c0.7-0.2,1.3-0.2,1.9,0.3c-0.2,1.9-1.1,3.4-2.7,4.5
	c-2.6,0.3-5.1,0.4-7.7-0.2C28,87.5,28,87,28.1,86.5c0.3-2.8-0.1-5.6,0.6-8.4c0-0.5,0.2-1,0.5-1.4c3.4-3.5,7-6.7,10.6-9.9
	c0.7-0.6,1.3-1.4,1.9-2c1.6-1.7,3.5-3.1,5.2-4.7c0.6-0.5,1.1-1.1,1.6-1.6c0.9-0.9,2-1.5,2.7-2.6c1.9-1.5,3.4-3.4,5.4-4.8
	c0.3-0.3,0.6-0.6,1.1-0.6C59.2,50.3,60.7,50.7,62.1,51.2z"/>
<path class="st5" d="M57.6,50.4c-2.1,1.9-3.9,4.1-6.4,5.6c-1.2,0.9-2.5,1.2-3.9,1c-1.1-0.8-1.6-1.9-1.8-3.2c0.1-0.4,0.4-0.6,0.7-0.8
	c2.4-1.2,4.6-2.7,7.3-3.4c1.4,0.2,2.7,0.3,4.1,0.4C57.6,50.2,57.6,50.3,57.6,50.4z"/>
<path class="st11" d="M50.8,64.7c3.6-3.2,7.2-6.5,10.8-9.7c1.2-1.1,2.4-2.1,3.4-3.4c0.1,0,0.2,0,0.3,0c0,0.1,0,0.2,0,0.4
	c-1.5,6.4-3.3,12.7-4.5,19.2l0,0c-0.3,3.2-1,6.2-1.8,9.3c-0.1,0.7-0.3,1.4-0.7,1.9c-0.1,0.1-0.3,0.2-0.6,0.1
	c-0.5-0.3-0.7-0.8-0.9-1.4c-1.9-5-3.8-10.1-5.8-15.1C50.9,65.6,50.8,65.1,50.8,64.7z"/>
<path class="st30" d="M42.2,17.8c0.5,0.4,0.4,0.9,0.4,1.5c0.8,4.4,1.1,8.9,1.2,13.3c0,0.2-0.1,0.4-0.2,0.6c-1.8,0.8-2.2,0.6-2.7-0.9
	c-0.9,0.6-1.6,1.3-2.6,1.7c-1.8,0.6-3.7,0.5-5.6,0.5c-1.1-0.1-2.2-0.3-3.3-0.6c-0.2-0.1-0.3-0.2-0.4-0.4c-0.2-0.5-0.1-1,0.2-1.4
	c2.2-3.1,4.2-6.4,6.6-9.3c0.2-0.6-0.4-0.3-0.6-0.5c-2.2-1.2-4.4-1.5-6.7-0.4c-0.7,0.3-1.3,0.7-1.6,1.4c-0.1,0.2-0.2,0.3-0.3,0.5
	c-1,0.6-2.1,0.8-3.2,0.7c-0.3-0.1-0.5-0.2-0.7-0.4c-2.7-1.2-4.8-0.4-6.1,2.4c0,0.2-0.3,0.4-0.2,0.5c1,0.1,1.8,0.6,2.5,1.1
	c0.4,0.3,0.6,0.6,1,0.8c1.8,0.6,3.8,1,5.1,2.7c0.3,0.8,0.3,1.5,0.1,2.3c-0.1,0.4-0.3,0.7-0.5,1c-0.8,0.6-1.5,1.3-2.4,1.8
	c-1,0.5-1.9,1.5-3.2,1.4c-1-0.5-2.2-0.8-3-1.8c-0.1-0.4-0.3-0.8-0.4-1.1c-1-1.2-1-2.8-1.3-4.3c-0.4-1.9-0.9-3.8-1-5.7
	c-0.1-2,0.9-3.7,1.5-5.5c0.5-1.5,1.1-3,1.7-4.5c1-2.6,1.6-3,4.4-3c0.3,0,0.5,0,0.7-0.2c0.4,0,0.7,0,1.1-0.1c2.2-0.7,4.4,0,6.6,0
	c0.7,0,1.4,0.5,2,1c0.7,0.6,1.4,1.1,2.1,1.6C36,16.3,38.4,18.7,42.2,17.8z"/>
<path class="st11" d="M29.5,76.8c-0.1,0.4-0.3,0.8-0.4,1.1c-0.5,1.6-1.2,3.2-1.9,4.7C27,83,26.9,83.9,26,83.4
	c-0.3-0.6-0.3-1.2,0.1-1.7c0.1-0.5-0.1-0.8-0.3-1.1c-0.3-3.3-0.6-6.7-1-10c-0.3-2.3,0.4-4.4,0.4-6.7c0-2.1,0.4-4.2,0.6-6.3
	c0.1-0.2,0.3-0.3,0.4-0.4c2.2-0.5,4.3-0.2,6.2,1.2c0.5,1.5-0.1,2.9-0.3,4.2c-0.5,3.8-1.2,7.7-1.8,11.5C30.2,75,30,76,29.5,76.8z"/>
<path class="st9" d="M26.1,56.8c-3-1.4-5.4-3.5-8-5.3c-0.4-0.2-0.6-0.6-0.6-1.1c0.3-2.7,0.7-5.4,1-8.1c0-0.2,0.3-0.4,0.4-0.6
	c0.5,0.1,0.8,0.4,1,0.8c0.9,1.7,1.9,3.4,2.7,5.1c0.7,1.5,1.7,2,3.3,1.5c0.6-0.2,1.2-0.4,1.8,0c0.4,0.2-0.6,0.7,0.3,1
	c1.7,0.7,3.3,1.7,4.7,2.8c0.1,0.2,0,0.3,0,0.5C30.7,54.8,28.6,56.2,26.1,56.8z"/>
<path class="st5" d="M26.1,56.8c2.2-1.4,4.5-2.6,6.9-3.4c2.4,0,4.6,0.9,6.6,2.1c0.2,1.1-0.7,1.3-1.3,1.8c-0.6,0.5-1.4,0.8-2,1.3
	C36,58.8,35.7,59,35.2,59c-1.1,0-2.2,0-3.1-0.7c-1.9-0.7-4-0.8-6-1.2C26.1,57.1,26.1,56.9,26.1,56.8z"/>
<path class="st12" d="M13.7,24.9c0.6,3.3,1.2,6.7,1.9,10.1c-1.6-0.6-1.8-2.3-2.8-3.3c-2.7-2.6-2.9-5.4-1-8.5
	c0.4-0.6-0.2-1.9,1.2-1.8C14.2,22.5,13.2,23.9,13.7,24.9z"/>
<path class="st31" d="M13.7,24.9c-0.3-1.1-0.5-2.3-0.7-3.4c0-0.5,0-1,0-1.5c1.2-2.1,2.6-4.2,3.7-6.5c0.9-1.8,2-2.6,3.9-2
	c0.3,0.1,0.7,0.2,1.1,0.2c-3.8,0.3-4.9,3.1-5.7,6.1C15.2,20.3,13.8,22.4,13.7,24.9z"/>
<path class="st32" d="M19.7,42.6c-0.2-0.3-0.4-0.6-0.7-0.8c-0.5-1-1-2-1.5-2.9c0.1-0.5,0.5-0.7,1-0.7C19.8,39.1,20.3,40.8,19.7,42.6
	z"/>
<path class="st33" d="M18.3,38.4c-0.3,0.2-0.5,0.3-0.8,0.4c-0.6-0.8-1.2-1.7-1.5-2.7c1,0.5,2.1,0.8,3,1.6
	C19.1,38.4,18.5,38.1,18.3,38.4z"/>
<path class="st8" d="M52.3,138.8c-6.3-0.5-12.5-1.3-18.8-2c-0.4-0.1-0.7-0.2-1.1-0.3c-0.3-1.9,0.4-3.4,1.7-4.7
	c2.2-0.2,2.1-0.2,2.4-2.4c0.3-2.2-0.2-4.4,0.9-6.5c3.4-0.6,6.8-0.2,10,0.9c0.6,0.2,1.2,0.5,1.6,1.1c0.7,1.5,0.8,3.2,0.9,4.9
	c0,2.3-0.3,3.4,2.9,3.3c0.3,0,0.6,0.1,0.9,0.2c0.9,0.9,1.8,1.8,1.3,3.3C54.7,138,54.1,139.1,52.3,138.8z"/>
<path class="st34" d="M34,132c-0.5,1.5-1,3-1.5,4.4c-3.3-0.9-6.6-1.9-9.7-3.3c0.6-1.1,0-2.4,0.7-3.5c0.3-0.3,0.8-0.4,1.2-0.3
	c2.9,0.6,5.8,1.2,8.7,2C33.7,131.4,33.9,131.7,34,132z"/>
<path class="st35" d="M28.4,87.7c2.7,0,5.4,0,8.2,0c1.6,0.6,3.6,0.6,4.3,2.7c0.5,4.4,0.2,8.8,0.7,13.1c0.1,0.9,0,1.9,0,2.8
	c0,1.5-0.7,2.4-2.3,2.2c-0.6-0.1-1.2-0.2-1.6-0.5c-3.4-2.1-6.9-4.2-10.1-6.8c-0.9-1.4-0.5-2.9-0.3-4.4c0.1-0.6,0.4-1.1,0.3-1.6
	c1-1.2,1.9-2.4,3-3.6c0.9-1,1.3-1.8-0.3-2.6c-0.6-0.3-1.2-0.9-1.9-1c-0.1-0.1-0.1-0.2-0.1-0.2S28.4,87.7,28.4,87.7z"/>
<path class="st5" d="M22.3,96.5c0-2.1,1.1-4,1.6-6.1c0.6-2.3,1.5-4.6,2.2-6.9c1.2-1.8,1.6-3.9,2.9-5.6c-0.6,3.2-0.1,6.6-0.7,9.8
	c0,0.1,0,0.2,0,0.3c-1.6,2.3-3.1,4.7-4.7,7C23.3,95.6,23,96.2,22.3,96.5z"/>
<path class="st5" d="M27.6,95.2c0.6,2-0.4,4,0,6c-1.3-0.4-2.2-1.3-3.3-2C25.4,97.8,26.5,96.5,27.6,95.2z"/>
<path class="st36" d="M19.8,97.8c0.4,0.3,0.7,0.5,1.1,0.8c-0.2,1.3-1,2.2-1.8,3c-0.2-1.1-0.1-2.7-1.8-1c-0.6,0.6-0.6-0.2-0.7-0.3
	c-0.7-0.6,0.2-1.3,0.4-1.3c1.6,0.5,1.3-1.2,1.9-1.7C19.3,97.1,19.5,97.5,19.8,97.8z"/>
<path class="st37" d="M34,132c-3.5-0.9-6.9-1.8-10.5-2.3c0.1-3.4,0.9-6.7,1.5-10.1l0,0c0.4-0.4,0.9-0.4,1.4-0.2
	c3.4,0.8,6.8,1.6,10.1,2.6c0.3,0.1,0.6,0.3,0.8,0.5c0.1,0.2,0.2,0.4,0.1,0.6c-0.1,2.5-0.3,5-0.4,7.4c-0.1,2.2,0,2.2-2.2,1.7
	C34.5,132,34.2,132,34,132z"/>
<path class="st34" d="M37.3,122.6c-4.1-1-8.2-2-12.4-3c0.3-3.3,0.9-6.5,1.5-9.7c4.2,2.8,8.5,5.6,12.7,8.3
	C39.2,119.9,39,121.6,37.3,122.6z"/>
<path class="st38" d="M42.2,17.8c-3.1,1.4-5.5,0.1-7.8-2c-1.1-1.1-2.4-1.9-3.7-2.9c-0.6-0.5-1.2-0.7-1.9-0.7
	c-2.1-0.1-4.1-0.3-6.1-0.4c0-0.1,0.1-0.2,0.1-0.3c1.8-0.6,3.5-1.1,5.2-1.8c1.2-0.5,2-0.4,2.9,0.6c1.2,1.3,2.7,2.4,3.9,3.8
	C36.8,16.3,39.4,17.2,42.2,17.8z"/>
<path class="st8" d="M22.7,86.9c-0.2,0.4-0.4,0.8-0.7,1.2c-1.3,1-2.6,1.8-4,2.6C17.4,91,16.7,91.4,16,91c0-0.1,0-0.3,0-0.4H16
	c1.4-3,3.2-5.9,3.7-9.3c0.1-0.5,0.1-1.4,1.1-1.2C21.2,82.5,21.6,84.8,22.7,86.9z"/>
<path class="st11" d="M16,91c1.7-0.4,3-1.6,4.5-2.4c0.5-0.2,0.8-1,1.5-0.6c-0.9,1.6-1.8,3.2-2.7,4.9C18.4,92.1,16.9,92,16,91z"/>
<path class="st39" d="M19.8,97.8c-0.3-0.2-0.7-0.3-1-0.4c-0.3-0.3-0.7-0.6-1.2-0.8c0.2-1.3,1-2.3,1.8-3.3
	C19.7,94.8,19.8,96.3,19.8,97.8z"/>
<path class="st11" d="M20.9,80.2c-1.2,0.7-0.8,2-1.1,3c-0.7,2.8-1.9,5.3-3.8,7.5c0-0.2,0-0.3,0-0.4c0.1-3.4,0.6-6.7,3.3-9.1
	c0.4-0.3,0.9-0.8,0.5-1.4C20.5,79.1,20.6,79.7,20.9,80.2z"/>
<path class="st40" d="M7.8,91.8c-0.4,0.9,0.7,1.7,0,2.6c-1.3-0.6-2.2-1.1-1-2.8C7.8,90.2,7.4,92.1,7.8,91.8z"/>
<path class="st35" d="M58.7,87.3c0.6,5.6,1.2,11.2,1.8,16.8c0.1,1.4,0.3,2.8,0.4,4.2c0.1,0.8,0,1.5-1.1,1.5
	c-0.3,0.3-0.7,0.4-1.2,0.5c-1.6,0.1-3.1-0.3-4.6-0.5c-1.5-0.3-1.7-1.2-1.1-2.4c0.3-0.7,0.6-1.4,0.8-2.1c0.4-1.6-0.4-3-0.7-4.5
	c-0.1-0.2,0,0.1,0-0.2c-0.3-2.9-1.7-4.6-4.6-5c-0.6-0.1-1.2-0.4-1.6-0.9c-0.7-1.9-0.9-4-1.4-6c-0.1-0.5-0.2-1,0.4-1.4
	c3-1.1,6-0.6,9.1-0.6C56.2,86.7,57.5,86.3,58.7,87.3z"/>
<path class="st34" d="M58.7,109.9c0.4,0,0.8,0,1.2,0c2.2,0.6,1.5,2.7,1.8,4.1c0.7,3.6,1.1,7.3,1.6,10.9c-6.4-4.1-12.8-8.3-19.1-12.7
	c-0.1-0.2-0.1-0.4,0.1-0.6c4-0.7,8.1-1.2,12.1-1.4C57.1,110.1,57.9,110.1,58.7,109.9z"/>
<path class="st29" d="M58.7,87.3c-4.3,0-8.7-0.2-13.1,0.3C45,87.2,45,86.5,44.7,86c-0.2-0.6-0.7-0.9-1.2-1.3
	c-0.4-0.3-0.9-0.7-0.5-1.4c0.4-0.5,0.9-0.7,1.5-0.7c4.3,0,8.5-0.6,12.7-0.5c0.3,0,0.5,0.1,0.7,0.3h0c0.3,0.3,0.6,0.6,0.4,1.1
	C58.1,84.8,58.6,86,58.7,87.3z"/>
<path class="st11" d="M58.3,83.5c-0.1-0.4-0.3-0.8-0.4-1.1c1.3-3.4,1.8-7,2.6-10.5c0.1-0.3,0.1-0.6,0.4-0.8c0.7,5,1.3,10,2,15
	c0.4,2.8,1,5.5,1,8.3c-1.8-2.8-3.1-5.8-4.5-8.8C59.1,84.9,58.9,84.1,58.3,83.5z"/>
<path class="st8" d="M73.7,74.2c0.1,0.1,0.2,0.2,0.4,0.3c0.2,0.4,0.3,0.8,0.3,1.2c-0.1,3.7,0.7,7.2,1.7,10.7c-0.4,1.1-1,0.2-1.3,0
	c-1.5-1.2-2.8-2.6-4-4.1c-0.1-0.4-0.2-0.7-0.3-1.1C71,78.7,72.3,76.4,73.7,74.2L73.7,74.2z"/>
<path class="st41" d="M72.2,88.1c0.5,2.6,0.4,5.3,1.2,7.8c-0.6,0.3-1.3,0.7-1.9,1.1c-0.5,0.2-0.9,1-1.6,0.2C69.3,96.6,68.4,96,69,95
	C70.1,92.7,70.8,90.3,72.2,88.1z"/>
<path class="st11" d="M73.7,74.2c-0.8,2.5-2,4.9-3.3,7.1c-0.8-1.7-1.2-3.5-1.6-5.3C70.3,75.1,72,74.5,73.7,74.2z"/>
<path class="st11" d="M70.7,82.4c2.1,1.1,3.4,3.1,5.2,4.5c0.1-0.2,0.3-0.2,0.4,0l0,0c-1.3,0.7-2.7,0.7-4.1,0.8
	C71.6,86,71,84.2,70.7,82.4z"/>
<path class="st42" d="M53.8,133.5c-4.4-0.1-4.4-0.1-4.5-4.5c0-1.4-0.6-2.8-0.3-4.2c4.5,2.6,8.7,5.8,13.1,8.6
	c-0.4,0.5-0.9,0.7-1.5,0.6C58.4,133.9,56,134.6,53.8,133.5z"/>
<path class="st34" d="M53.8,133.5c2.8,0,5.5-0.1,8.3-0.1c0.9,0.6,1.7,1.1,2.6,1.7c0,0.7,0,1.5,0,2.2c-3.3,0-6.5-0.3-9.7-0.8
	C54.6,135.5,54.2,134.5,53.8,133.5z"/>
<path class="st5" d="M37.3,122.6c0.9-1.4,1.2-3,1.8-4.4c2.8,1.7,5.6,3.5,8.2,5.5c-3.3-0.3-6.7-0.8-10-0.8
	C37.4,122.9,37.3,122.7,37.3,122.6z"/>
<path class="st43" d="M37.7,108c0.5,0,1,0,1.5,0c1.2,0.5,2.2-0.2,3.4-0.2c0.7,0,1.5-0.1,1.9,0.7c-0.1,0.6-0.7,0.6-1.1,0.8
	c-0.8,0.2-0.6,1.5-1.7,1.4C40.3,109.8,38.9,109.1,37.7,108z"/>
<path class="st5" d="M41.8,110.6c0.7-0.5,0.5-1.5,1.2-2c0.6,0.9,1.3,1.8,1.1,3c0,0.2,0,0.3,0,0.5C43.2,111.8,42.4,111.3,41.8,110.6z
	"/>
<path class="st11" d="M76.3,86.9c-0.1,0-0.3,0-0.4,0c0-0.3,0-0.7-0.1-0.9c-2-3.6-1.9-7.5-1.7-11.5c0.1,0,0.2,0,0.3,0
	c1.6,3.8,2.3,7.8,1.9,12C76.3,86.6,76.3,86.8,76.3,86.9z"/>
<path class="st44" d="M46.3,53.5c-0.2,0.1-0.4,0.3-0.7,0.4c-1.5-2.1-3.3-1.1-5.1-0.6c-0.4,0.5,0.4,1.2-0.3,1.8
	c-2.1-0.5-3.5-2.1-5.3-2.9c-1.1-0.8-2.2-1.5-3.3-2.3c-0.4-0.4-1.2-0.5-1-1.4c0.7-0.7,1.7-0.6,2.6-0.8c3.6-0.6,7.2-1.3,10.8-2
	c0.2,0,0.4-0.1,0.6-0.1c3.6-0.8,3.6-0.8,3.9-4.5c0-0.6-0.1-1.4,0.8-1.7c0,2.1,0.1,4.2,0.1,6.3C48.7,48.5,47.4,51,46.3,53.5z"/>
<path class="st45" d="M49.3,39.6C48.6,41,49,42.5,49,43.9c0,1.1-0.2,1.7-1.5,1.7c-1.1,0.1-2.2,0.4-3.4,0.7c-1-1.5-0.6-3.2-0.7-4.7
	c-0.3-2.6-0.6-5.2-0.4-7.8c0.1-0.2,0.2-0.4,0.4-0.6l0,0c0.9-1.9,2.7-2.9,4.2-4.2c1.5,1.4,2.1,3,1.9,5C49.2,35.8,49.3,37.7,49.3,39.6
	z"/>
<path class="st46" d="M47.5,29c-1,1.8-2.8,2.8-4.2,4.2c-0.1-4.7-0.9-9.3-0.7-13.9c0.1,0.1,0.2,0.2,0.2,0.3
	C43.2,23.3,45.1,26.2,47.5,29z"/>
<path class="st41" d="M46.3,53.5c0.4-2.8,1.7-5.2,3-7.7c1.3,1.3,2.7,2.6,4.1,3.8C51.1,51,48.7,52.2,46.3,53.5z"/>
<path class="st35" d="M57.9,82.4c-4.2,0.5-8.5,0.7-12.8,0.8c-0.8,0-1.6-0.3-2.2,0.7c-1.1,0.2-1.5-0.6-2-1.2c0.2-0.9-0.4-1.3-1-1.7
	c0-0.2,0-0.3,0.1-0.5c1-0.9,2.5,0,3.7-0.9c-0.7-0.8-1.9-0.2-2.5-1.1c-0.3-0.7-0.3-1.4,0-2c0.2-0.3,0.6-0.5,0.9-0.6
	c0.4-0.2,1.3,0,1.1-0.8c-0.2-0.7-0.9-0.4-1.5-0.3c-0.7,0-1.3,0.3-1.9-0.3c3.6-3.4,7.2-6.7,10.9-9.7c1.7,3.1,2.7,6.5,4,9.8
	C56,77.1,56.9,79.8,57.9,82.4z"/>
<path class="st35" d="M32.1,58.3c1.2-0.2,2.2,0.3,3.4,0.4c0.9-0.1,1.8,0,2.4,0.7c1.1,2.4,1.6,5,2,7.6c-3.4,3.2-7,6.5-10.5,9.7
	c0.2-4,1.1-8,1.7-12C31.5,62.6,31.8,60.5,32.1,58.3z"/>
<path class="st35" d="M38.8,83.5c-3.1,0.5-6.3,0.3-9.7,0.6c2.8-2.9,5.7-5.3,8.6-7.7c0.7-0.5,1.5-0.6,2.3-0.2
	c0.5,0.7,0.5,1.4,0.3,2.1c-0.3,0.6-0.9,0.6-1.4,0.7c-0.4,0.1-1.1,0-1.1,0.7c0,0.6,0.7,0.5,1.2,0.6c0.3,0.1,0.7,0.1,1,0.4l0,0.1
	c0.3,0.3,0.6,0.6,0.4,1.2C39.9,82.6,39.8,83.6,38.8,83.5z"/>
<path class="st5" d="M38.8,83.5c0.7-0.3,0.6-1.5,1.5-1.5c0.4-0.2,0.6,0.1,0.7,0.5c0.6,0.5,1.3,0.9,1.9,1.4c0.7,0.6,1.9,0.8,2.2,1.9
	c-0.9,1.8-1.5,3.8-3.3,4.8c-0.5,0-0.9-0.1-1.1-0.7c-1.3-0.9-2.9-1.2-4.2-2.3C37.3,86.3,38.1,84.9,38.8,83.5z"/>
<path class="st41" d="M40,67.1c-1.2-2.4-1.5-5-2.2-7.6c1.8-0.5,3.2,0.4,4.6,1.3c0.1,0.3,0.3,0.5,0.3,0.8c0.2,1.2,0.2,2.5-0.8,3.4
	C41.2,65.7,40.6,66.4,40,67.1z"/>
<path class="st5" d="M41.8,65.1c0.5-1.1,0.6-2.2,0.4-3.3c0.3-0.2,0.6,0.6,1,0c0.8-1.4,1.9-2.5,2.7-3.9c0.2-0.3,0.4-0.6,0.8-0.7
	c0.2,0,0.4,0.1,0.5,0.3c0.1,0.2,0.2,0.4,0.2,0.6c0.1,0.8,0.1,1.6-0.4,2.3C45.5,62.1,43.6,63.5,41.8,65.1z"/>
<path class="st8" d="M40,76.4c-0.7,0-1.5,0-2.2,0c0.5-0.9,1.5-1.3,2.2-2c0.9,0.3,1.7-0.3,2.5-0.3c0.7,0,1.5-0.2,1.6,1
	c0.1,1.2-0.6,1.3-1.5,1.3c-0.4,0-0.7,0-1.1,0C40.9,76.8,40.5,76.8,40,76.4z"/>
<path class="st5" d="M47.1,57.6c0-0.1,0-0.3,0-0.4C47,57.1,47,57.1,47,57c0-0.1,0.1-0.1,0.1-0.1c1.4-0.3,2.7-0.5,4.1-0.8
	c-0.3,1.5-1.8,1.7-2.6,2.6C47.6,59,47.6,58,47.1,57.6z"/>
<path class="st11" d="M47.1,57.6c0.8,0,0.9,1,1.5,1.2c-0.4,0.6-0.9,1.1-1.5,1.5C47.1,59.3,47.1,58.5,47.1,57.6z"/>
<path class="st5" d="M47.1,56.9c0,0.1,0,0.2,0,0.3c-0.1,0-0.2,0-0.4,0c-0.3,0-0.6-0.1-0.9-0.3c-0.1-0.1-0.3-0.2-0.4-0.3
	c-1.2-0.9-2.6-1.3-3.9-2.1c-0.6-0.4-1.3-0.7-1.6-1.4c1.1-0.7,2.4-0.8,3.7-1.1c1.5-0.3,1.7,0.9,2,1.9C46.1,54.9,46.6,55.9,47.1,56.9z
	"/>
<path class="st47" d="M43.3,33.5c0.2,4.2,0.8,8.5,0.8,12.8c-4.2,0.8-8.3,1.5-12.5,2.3c-0.4,0.1-0.7,0-1,0.3c-0.8,0.7-1.6,1-2.6,0.5
	c-0.1,0-0.1,0-0.2,0c-4.2,0.6-4.2,0.7-6.3-3.1c-0.7-1.2-1.5-2.3-1.8-3.6c-0.5-1.4,0.1-3.2-1.4-4.2c0.3-0.2,0.5-0.5,0.8-0.7
	c1-0.5,2-1,3-1.5c0.4,0.3,0.3,0.8,0.6,1.4c0.7-1.1,1-2.2,1.6-3.2c0.1-0.2,0.3-0.3,0.4-0.5c0.2-0.3,0.4-0.3,0.7-0.2
	c0.4,0.5,0.6,1.3,1.5,1.2c0.8-0.1,0.9-0.9,1-1.5c0.1-0.4,0.4-0.5,0.8-0.5c0.2,0,0.3,0.1,0.4,0.3c0,0.1,0,0.2,0,0.3
	c1,0.7,2.1,1.1,3.1,2.1c0.4-0.6-0.2-1.2,0.3-1.6c2-0.2,4,0,6-0.5c0.3-0.2,0.7-0.3,1-0.1c-0.9,1.4-1,2.9-0.5,4.4
	c0.7-1.4,0.5-3.3,1.9-4.5C41.7,33.4,42.6,33.2,43.3,33.5z"/>
<path class="st22" d="M29.1,33.2c-0.1,0-0.3,0-0.4,0c-2.2-2.9-3.4-6-2.4-9.7l0.1-0.1c2.6-1.7,5.4-2.3,8.4-1.3c0.4,0.2,1,0.2,1.3,0.6
	C33.8,26.1,31.2,29.5,29.1,33.2z"/>
<path class="st48" d="M26.4,23.4c-0.2,3.5,1,6.6,2.4,9.7c-0.3,0.1-0.5,0.3-0.7,0.4c-0.7,0.8-1.6,1.1-2.6,0.5c-0.3,0-0.5,0-0.7,0
	c0-0.9,0-1.8,0-2.7c-0.6-2-0.9-4.1-1.7-6.1c-0.1-0.3,0-0.7,0.3-1C24.2,23.9,25.3,23.7,26.4,23.4z"/>
<path class="st13" d="M23.2,24.2c-0.1,0.6,0.1,1.1,0.3,1.6c0.9,1.7,1.3,3.6,1.1,5.5c-1.7-0.9-3.4-1.7-5.2-2.2
	c0.3-0.6,1.5-0.5,1.5-1.4c0-0.3-0.3-0.5-0.6-0.6c-1-0.2-1,0.8-1.6,1.2c-0.7-0.8-2.4-0.3-2.6-1.8c1.1-1.7,2.7-2.7,4.8-2.4
	c0.7,0.1,1.3-0.2,2-0.2C22.9,23.9,23,24,23.2,24.2z"/>
<path class="st49" d="M35.1,22.3c-3-0.9-5.7,0.5-8.6,1.1c0-1.1,0.6-1.5,1.6-1.9c2.6-1.1,5-0.9,7.4,0.5
	C35.6,22.2,35.5,22.4,35.1,22.3z"/>
<path class="st50" d="M22.8,23.7c-0.1,0.7-0.7,0.7-1.1,0.7c-2.2-0.3-4,0.6-5.7,2c1-2.7,3.1-4,5.9-3.5C22.4,23.1,22.5,23.5,22.8,23.7
	z"/>
<path class="st51" d="M18.6,28.3c0-0.8,0-1.5,0.9-1.8c0.6-0.2,1.2-0.2,1.7,0.3c0.4,0.5,0.5,0.9,0.3,1.5c-0.4,0.9-1.2,0.8-2,0.8
	C19.1,28.8,18.9,28.5,18.6,28.3z"/>
<path class="st52" d="M32.4,34c0.2,0.8,0.5,1.5,0.9,2.7c-1.7-1.1-3.1-1.9-4.2-3.2C30.2,33.6,31.4,33.8,32.4,34z"/>
<path class="st53" d="M24.2,34.5c0,1.7-1,2.9-1.8,4.4c-0.7-0.9-0.3-1.8-0.4-2.6C22.8,35.7,23.5,35.1,24.2,34.5z"/>
<path class="st54" d="M39.6,33.6c-0.4-0.1-0.8-0.1-1.2-0.2c0.9-0.7,1.7-1.4,3-2.4c-0.7,2.6,0.9,2.1,1.9,2.1c0,0.1,0,0.2,0,0.3
	c-0.9,0-1.8,0.1-2.7,0.1C40.3,33.9,40,33.9,39.6,33.6z"/>
<path class="st55" d="M35.1,22.3c0.2-0.1,0.4-0.2,0.4-0.5c0.4,0,1,0,0.7,0.8C35.8,22.6,35.4,22.7,35.1,22.3z"/>
<path class="st12" d="M28,49.4c0.9-0.2,1.7-0.3,2.6-0.5c1.6,0.8,3.3,1.7,4.5,3.1c-0.4,0.9-1.1,1.4-2.1,1.2c-1.9-0.6-3.4-2-5.2-2.9
	C27,49.9,27.9,49.7,28,49.4z"/>
<path class="st56" d="M33,53.1c0.7-0.4,1.4-0.8,2.1-1.2c2,0.5,3.4,2.2,5.3,2.9c0.3,0,0.4,0.2,0.4,0.6c-0.3,0.4-0.7,0.6-1.2,0.3
	c-2.2-0.8-4.4-1.6-6.6-2.4C33,53.3,33,53.2,33,53.1z"/>
<path class="st11" d="M46.2,56.6c0.3,0,0.6,0.1,0.8,0.4c-0.1,0.2-0.3,0.5-0.4,0.8C45.3,59,44,60.3,42.3,61c-1.5-0.7-3.1-1.1-4.6-1.6
	c-0.8-0.3-1.6-0.6-2.4-0.8c0.2-0.2,0.5-0.3,0.7-0.5c0.7-0.1,1.2-0.8,1.9-0.5c2.3,0.6,4.5-0.7,6.7-0.3c0.1,0-0.1,0-0.1,0
	c-0.2,0-0.3-0.2-0.3-0.5C44.8,56,45.6,56.2,46.2,56.6z"/>
<path class="st11" d="M46,56.8c-0.6,0.1-1.3-0.2-1.9,0.4c-2.1,0.5-4.2,1.1-6.4,0.8c-0.6-0.3-0.9,0.9-1.5,0.3c1-1,2.5-1.3,3.4-2.5
	c0.3-0.2,0.7-0.3,1-0.4c0.8-0.6,1.6-0.2,2.4,0c1,0.3,1.9,0.8,2.9,1.1C46,56.6,46,56.7,46,56.8z"/>
<path class="st35" d="M40.7,89.9c0.4,0.2,0.7,0.3,1.1,0.5c0.8,0.5,0.9,1.3,0.9,2.1c-0.1,4.4,0.4,8.7,0.4,13.1c0,0.9,0.1,1.9-0.6,2.7
	c-1.1-0.1-2.3,0.4-3.4-0.3c1.4,0.2,2.1-0.3,1.9-1.8c-0.4-4.4-0.2-8.8-0.7-13.2C40.3,91.9,40,90.9,40.7,89.9z"/>
<path class="st57" d="M42.2,92.1c-0.1-0.6-0.3-1.2-0.4-1.8c1.5-1.3,1.9-3.3,3.3-4.7c0.1,0.6,0.3,1.3,0.4,1.9
	c0.8,2.3,1.2,4.7,1.5,7.1c1,1.2,1.4,2.6,0.9,4.2c-1.4,0.9-2.6-0.2-3.9-0.5c-1.3-1.1-1.1-2.6-1.4-4C42.4,93.7,42.6,92.9,42.2,92.1z"
	/>
<path class="st58" d="M53.4,100.8c0.3,1.5,1.3,2.9,0.7,4.5c-1.5,2-2.1,2.1-4,0.5c-0.6-0.5-1.1-1-1.5-1.7c-0.1-0.2-0.1-0.3-0.2-0.5
	c-0.2-1.4-1-2.6-0.6-4.1C49.3,98.8,51.8,99.4,53.4,100.8z"/>
<path class="st59" d="M44.1,111.7c-0.4-1-1.2-1.8-1.1-3c0.5,0,1,0,1.5,0c0.9-0.8,1.9-0.5,2.9-0.4c2.1,0.3,4.4,0.3,6.4,1.1
	c1.6,0.2,3.2,0.3,4.8,0.5c-1.2,1.1-2.8,0.7-4.2,0.9c-3.3,0.5-6.6,0.8-9.8,1.2C44.4,111.9,44.3,111.8,44.1,111.7z"/>
<path class="st29" d="M53.4,100.8c-1.8-0.3-3.3-1.5-5.2-1.1c-0.6,0-0.6-0.3-0.4-0.8c-0.3-1.4-0.5-2.8-0.7-4.1
	c0.4,0.1,0.7,0.3,1.1,0.3C51.5,95.5,53.3,97.4,53.4,100.8z"/>
<path class="st35" d="M53.8,109.4c-2.1-0.2-4.3-0.2-6.4-0.7c0.6-1.5,0.7-3.2,1.6-4.6c0.3,0.3,0.7,0.6,1,0.9c2.1,2,2.1,2,4.2,0.3
	c-0.3,0.9-0.5,1.8-1,2.6C52.7,108.8,53.3,109.1,53.8,109.4z"/>
<path class="st35" d="M49,104.2c-0.1,1.7-0.2,3.3-1.6,4.6c-1,0-1.9,0-3,0c-0.5-0.5-1.2-0.2-1.9-0.4c0.1-5.4-0.7-10.8-0.4-16.1
	c1,1.9,0.9,4.1,1.9,6c2.1,1.5,3.4,3.6,4.8,5.6C49,103.9,49,104.1,49,104.2z"/>
<path class="st8" d="M46,56.5c-1.9,0-3.5-1.1-5.3-1.2c-0.1-0.2-0.1-0.3-0.3-0.5c0.1-0.6-0.9-1.1-0.4-1.8C42,54.2,44,55.3,46,56.5z"
	/>
<path class="st8" d="M39.9,80.9c-1-0.3-2.8,0.8-2.8-1c-0.1-2,1.8-0.9,2.8-1.2c0.5-0.4,1-0.4,1.5,0c0.6,0,1.2,0,1.8,0
	c0.7,0,1.2,0.2,1.2,1c0,0.8-0.5,0.8-1.1,0.9C42.2,80.6,41,80.2,39.9,80.9z"/>
<path class="st8" d="M41.5,78.6c-0.5,0-1,0-1.5,0c0-0.8,0-1.5,0-2.3c0.5,0,1,0,1.5,0C41.5,77.1,41.5,77.9,41.5,78.6z"/>
<path class="st8" d="M41.1,82.4c-0.2-0.2-0.5-0.3-0.7-0.5c-0.1-0.4-0.2-0.7-0.3-1.1C41.1,80.9,42.1,81,41.1,82.4z"/>
<path class="st60" d="M40.7,84.2c0.8,0.6,2.1,0.8,2.1,1.7c0,0.8-0.6,1.9-1.6,2c-0.8,0.1-2-0.3-2.1-1.1C39.1,85.9,39.9,85,40.7,84.2z
	"/>
<path class="st8" d="M42.2,61c1.2-1.3,2.5-2.4,4.2-3.1c-0.7,1.6-2,2.8-2.9,4.2c-0.7,1.2-0.7-0.3-1.1-0.4
	C42.3,61.5,42.2,61.2,42.2,61z"/>
<path class="st61" d="M24.1,41.5c-0.5,0-1.2,0.2-1.3-0.7c-0.1-0.9,0.6-0.8,1.2-0.8c2.7-0.5,5.5-1,8.2-1.4c0.4-0.1,1-0.1,1.4,0
	c0.2,0,0.4,0.5,0.5,0.7c0.1,0.4-0.2,0.6-0.5,0.6C30.4,40.4,27.2,40.9,24.1,41.5z"/>
<path class="st62" d="M39.6,33.6c0.3,0,0.7,0,1,0c-0.5,1.9-1,3.8-1.5,5.7c-0.1,0-0.3,0-0.4,0c-0.2-1.5-0.4-3.1-0.6-4.7
	C38.1,33.6,39.3,34.2,39.6,33.6z"/>
<path class="st63" d="M25.4,34c0.9-0.2,1.7-0.3,2.6-0.5c0.6,1.2-0.3,2-1.1,2.1C26.3,35.7,24.9,35.4,25.4,34z"/>
<path class="st64" d="M32.9,25.8c0,0.6-0.5,1.1-1.4,1.1S30,26.2,30,25.4c0-0.9,0.6-1.5,1.6-1.4C32.4,24,32.9,24.5,32.9,25.8z"/>
<path class="st5" d="M37.7,58c2.1-0.1,4.2-1,6.4-0.8c0.2,0,0.5,0,0.7,0.1C42.4,57.7,40.2,59.1,37.7,58z"/>
<path class="st5" d="M49,103.8c-1.9-1.6-3.3-3.7-4.8-5.6c1.3,0,2.4,0.9,3.7,0.8c0,0.3,0.1,0.6,0.4,0.8C48.4,101,48.7,102.4,49,103.8
	z"/>
</svg>
