<svg id="Capa_1" data-name="Capa 1" xmlns="http://www.w3.org/2000/svg" viewBox="0 0 83.7 89.9"><defs><style>.cls-1{fill:#ececec;}.cls-2{fill:#e4e4e4;}.cls-3{fill:#fee5d5;}.cls-4{fill:#f4c9b2;}.cls-5{fill:#bebebe;}.cls-6{fill:#8f759f;}.cls-7{fill:#95637b;}.cls-8{fill:#95637c;}.cls-9{fill:#785d88;}.cls-10{fill:#b2879c;}.cls-11{fill:#a2a2a2;}.cls-12{fill:#734c5f;}.cls-13{fill:#543042;}.cls-14{fill:#594265;}.cls-15{fill:#b2889c;}.cls-16{fill:#9782a3;}.cls-17{fill:#7d596a;}.cls-18{fill:#775163;}.cls-19{fill:#bcbbbc;}.cls-20{fill:#959495;}.cls-21{fill:#785d87;}.cls-22{fill:#90759f;}.cls-23{fill:#d5d5d5;}.cls-24{fill:#a587b9;}.cls-25{fill:#70597e;}.cls-26{fill:#754e61;}.cls-27{fill:#9a7fab;}.cls-28{fill:#aeadae;}.cls-29{fill:#d4d3d4;}.cls-30{fill:#dddcdd;}.cls-31{fill:#9075a0;}.cls-32{fill:#594165;}.cls-33{fill:#734d5f;}.cls-34{fill:#816890;}.cls-35{fill:#edeaee;}.cls-36{fill:#fef0e7;}.cls-37{fill:#c3927d;}.cls-38{fill:#a07a8c;}.cls-39{fill:#f2c8b2;}.cls-40{fill:#c3937e;}.cls-41{fill:#895b71;}.cls-42{fill:#110f0e;}.cls-43{fill:#bea0aa;}.cls-44{fill:#694356;}.cls-45{fill:#c59580;}.cls-46{fill:#5e3a4c;}.cls-47{fill:#969596;}.cls-48{fill:#a3a3a3;}.cls-49{fill:#989798;}.cls-50{fill:#6d557b;}.cls-51{fill:#f3c9b2;}.cls-52{fill:#5f466a;}.cls-53{fill:#0a0808;}.cls-54{fill:#c69680;}.cls-55{fill:#b1869b;}.cls-56{fill:#563244;}</style></defs><title>Arquitecto</title><path class="cls-1" d="M88,108.53l-8.55-1.62-3-.54c-.67-.18-1,0-1,1.08,0,.73.34,1.62-.17,2.33a3.14,3.14,0,0,1-.33-1.79c.17-1.26-.34-1.62-1.34-1.8a38.61,38.61,0,0,1-4.53-.9c-2.52-.54-5-1.08-7.72-1.44a21.36,21.36,0,0,1-3.69-.9c-1.18-.89-1.18-2.51-1.18-4,0-.18.17-.18.34-.37,1-.18,2,0,3-.18,2.18,0,4.53.37,6.71.18A4.65,4.65,0,0,1,68,99a1.24,1.24,0,0,1,.67,1.26c-.33,1.08-1,.18-1.51.37,1.51.89,1.51.89,3.53.53h.83c.17,0,0-.18,0-.18-.16.37-.5.18-.83.18-.51,0-1.18.18-1.52-.53a1.15,1.15,0,0,1,.17-1.26,3.91,3.91,0,0,1,2.85-.18c1.85.18,3.69.18,5.37.18a2.06,2.06,0,0,1,1,.17c.84,1.44,2.18,2.34,3.19,3.42,1.67,1.8,3.52,3.42,5.36,5.21.17.18.5.37.67.54C88,108.35,88,108.35,88,108.53Z" transform="translate(-4.3 -28.24)"/><path class="cls-2" d="M74.41,109.78c.17,2.34.17,2.34,2,2.7,2.35.37,4.87.9,7.22,1.26a2.58,2.58,0,0,1,.83.37c-5.36,1.08-10.73,2-16.1,2.87-2.18.37-4.36-.18-6.37-.36-2.18-.18-4.36-.55-6.38-.74-3.18-.37-6.2-.72-9.39-.9-2-.18-4-.18-5.87-.54-3.86-.72-7.55,1.08-11.24,2-1.84.37-3.86,1.07-5.7,1.61-1.51.37-3-.37-4.53-.54-4.36-.72-8.56-1.61-12.75-2.51a3.16,3.16,0,0,0-1.84-.18c0-.18.17-.37.33-.54,3.36-.9,6.88-2,10.24-2.88H15c.34.9-.17,1.62-.17,2.34.34.72,1,.72,1.51,1.26,1.51,1.62,3.19,1.44,4.87.18l1-.54c.34-.37.17-.72,0-1.26,0-.54-.17-1.08.34-1.26,2-.18,3.86.18,5.87.18.67.37,1.34,0,1.84.37-.17-.9-1.34-1.44-1-2.88.5-.37.83,0,1.17,0a18.29,18.29,0,0,1,4.36,1.44c1.84.72,3.36.18,5.2-.37.84-.17,1.34-.72,1.68-1.79.16-.18.16-.18.33,0a.7.7,0,0,1,.19.55,12.46,12.46,0,0,1,0,2.52c0,.89.33,1.25,1,1.25h1c.67,0,1.18-.17,1.18-1.25-.17-.74.33-.9,1-1.08.67,0,1.34.18,1.85-.18.5-.72,0-1.8.5-2.52.17,0,.17,0,.34.18a1.2,1.2,0,0,0,1.34.71c4.2,0,8.23.54,12.42.54a25.49,25.49,0,0,1,3.69.37c.5.18.33.9.67,1.26.16.18.33.18.67.18,1.51.37,1.67.18,2.18-1.44.16-.18.16-.18.33-.18a5.94,5.94,0,0,0,1,1.08,11.11,11.11,0,0,0-.17,2.16c0,1.07.5,1.44,1.85,1.44.84,0,.84-.72.84-1.44v-2.52C74.08,110.5,73.91,110,74.41,109.78Z" transform="translate(-4.3 -28.24)"/><path class="cls-3" d="M39.69,49.93c-.67,2.51-1.17,4.85-1.84,7.37-.84,3.24-1.68,6.64-2.52,9.89-.17.54-.17,1.08-.84,1.08a1.7,1.7,0,0,1-1.84.18c-.34,0-.84-.18-1.18-.18h-.83a.56.56,0,0,1-.49-.19,7.7,7.7,0,0,0-2-.16,1,1,0,0,1-.67-.18c-.17,0-.17-.18-.17-.37A25,25,0,0,1,26.46,64a1.16,1.16,0,0,1,.16-1.26.48.48,0,0,1,.67,0c2.35.9,4.53,1.8,7.05,1.26.34,0,.5-.18.67,0a15,15,0,0,1-1.84-4.14A33.92,33.92,0,0,1,34,54.06c.51-.18.84.37,1,.72s0,1.08.5.9c.51,0,.51-.72.51-1.08s-.17-.54,0-.9c.16-.71.84-.71,1-1.26.33-.89,1-2,.66-2.69s-1.34-.18-2.18-.18c-2.51,0-5,.54-7.54.54a2,2,0,0,1-1-.18c-.67-.37-.84-1.08-1.17-1.8-.86-1.8-1.53-3.77-2.37-5.57a2,2,0,0,1-.16-1.44c1-1.08,2.51-1.26,3.68-1.8.68-.37,1.35-.54,2.18-.89a1.68,1.68,0,0,1,1.35.17c1.34.9,2.68,2,4,2.88s1.19.9,1.68-.72c.17-.54.17-1.26.67-1.61,1.17.89,1.85,2.51,2.85,3.77.34.54.84.9.84,1.8A27.08,27.08,0,0,1,39.69,49.93Z" transform="translate(-4.3 -28.24)"/><path class="cls-4" d="M23.26,41.3c0,1.08.67,1.8,1,2.7a58.7,58.7,0,0,0,2.52,5.75c.33.18.33.37.33.72-.17,3.77-.33,7.74-.5,11.5v.9c-.34.9.17,1.62.33,2.34l.51,2.15c-.84.56-1.68-.18-2.35-.55-1.51-.54-1.51-.54-1.51,1.44,0,1.26.5,2.51.17,3.77a.4.4,0,0,1-.5.28.32.32,0,0,1-.17-.1c-2.17-2.32-4.38-4.28-6-7.17.33-1.62.67-3.42,1.17-5,.17-.73,0-.9-.67-.9h-.68c.33-.89,1-.37,1.51-.71s1.17-.54,1.34-1.44a15.64,15.64,0,0,1,1.36-3c1-.18,1.5-1.08,1.84-2.33.17-.9.5-1.8.67-2.88,0-2-.5-4-.67-5.93a4.1,4.1,0,0,1,0-1.44Z" transform="translate(-4.3 -28.24)"/><path class="cls-5" d="M78.77,99.18c-.33.54-.83.37-1.17.18-2.68,0-5.37-.18-8-.18a.88.88,0,0,1-.17-1.08c.5-.9,1.51-1.08,2.35-1.44a7,7,0,0,1,1.18-.53c-1.35-.72-2.18-2-3.53-2.34a2.6,2.6,0,0,0-.33,1.62v4.13a2,2,0,0,1-.34,1.44c-.33,0-.33-.19-.33-.54.16-.9-.17-1.44-.84-1.26-.34,0-.67-.18-1-.18-2.35.18-4.53-.37-6.88-.37-.16,0,.34-.54-.16-.54a1.09,1.09,0,0,1-1.18-.9c0-.9-.33-2,.34-2.88l11.57-3.77,5-1.6c.67-.17,1,0,1.18.9C77.27,92.89,77.94,96.13,78.77,99.18Z" transform="translate(-4.3 -28.24)"/><path class="cls-6" d="M36.84,39.32a7.16,7.16,0,0,0-.67,2.7c-.17.54-.34.9-1,.37C33.49,41.12,32,40,30.3,39c-.33-.18-.67-.36-1-.18-1.84-1.61-4-2.87-5.87-4.49a13.86,13.86,0,0,1-2.51-2c1.17-1.25,2.51-2.51,3.68-3.77.34-.37.51-.37,1-.18,2.19,1.44,4.55,2.87,6.71,4.31,1.85,1.62,2.85,4.14,4.36,6.11A.72.72,0,0,1,36.84,39.32Z" transform="translate(-4.3 -28.24)"/><path class="cls-7" d="M13.86,99.9c-.5-2.7-1-5.21-1.34-7.91.67-.54,1.17,0,1.84,0,5,1.44,10.06,1.08,15.27,1.08.16,0,.33-.18.67-.18a5.14,5.14,0,0,1,2.34,0c.67.72.17,1.26-.33,1.8-2,.73-3.86,2.15-5.87,2.69-2.35.9-4.7,1.44-7,2.34a25.42,25.42,0,0,1-3.86.54A1.53,1.53,0,0,1,13.86,99.9Z" transform="translate(-4.3 -28.24)"/><path class="cls-8" d="M12.52,88.94V86.79a12.56,12.56,0,0,1,.17-4.32A28.08,28.08,0,0,1,13,78.7c.17-1.8.17-3.6.34-5.21a5.35,5.35,0,0,1,.33-2.34c1-1.08,2.35-2,3.86-1.62.5,2.16.34,4.32.67,6.47.17,2.34.34,4.68.67,7-.33,2-.33,4-1.34,5.76A16,16,0,0,1,12.52,88.94Z" transform="translate(-4.3 -28.24)"/><path class="cls-6" d="M23.09,41.3c.17,2.16.5,4.32.67,6.47,0,.37.17.72-.17,1.08-2.51-.54-5.2-.54-7.72-.9a4.21,4.21,0,0,0-1.5.18c-.34-3.23-.68-6.47-1-9.53,0-.73-.51-1.61,0-2.33,3,1.44,5.87,2.88,8.89,4.31A1.73,1.73,0,0,1,23.09,41.3Z" transform="translate(-4.3 -28.24)"/><path class="cls-9" d="M23.09,41.3a55.41,55.41,0,0,1-5.71-2.7C16.21,38.06,15.2,37.53,14,37a1.35,1.35,0,0,1-.67-.72c2.51-1.44,5-2.7,7.56-4,2.52,1.8,5.21,3.78,7.72,5.57.17.18.84.18.5.9-1.84.9-3.86,1.62-6,2.52Z" transform="translate(-4.3 -28.24)"/><path class="cls-10" d="M13.86,99.9a44.15,44.15,0,0,0,4.87-.37,1.41,1.41,0,0,1,.83.18c1.35,0,2.35.9,3.36,2-.15,2.52-.67,5-1,7.54a1.32,1.32,0,0,1-.67,1.11,25.47,25.47,0,0,1-5.37-.37.37.37,0,0,1-.33-.37C14.87,106.55,14.37,103.13,13.86,99.9Z" transform="translate(-4.3 -28.24)"/><path class="cls-10" d="M37.52,80.13c1.35,3.23,3.19,6.11,4.7,9.16.17.37.33.9.5,1.26a13.76,13.76,0,0,1-2.35,2.16A4.15,4.15,0,0,0,39.2,94c-.33,1.07.17,2.33-.33,3.41-.85,0-.51-.9-.51-1.25-.34-1.44,0-2.52-.67-3.24-.5-.72-1.17-1.44-1.85-2.34-1.17-1.62-2.51-3-3.68-4.67A4.74,4.74,0,0,1,32,82.82,17.66,17.66,0,0,1,35.68,81C36.34,80.67,36.84,80.48,37.52,80.13Z" transform="translate(-4.3 -28.24)"/><path class="cls-11" d="M45.06,92.71a19.38,19.38,0,0,1,4.19.9c.34,0,.67.18,1,.18.17.18.17.18.17.37a.68.68,0,0,1-.17.53c-.67.54-1.34,0-2,0,2.18,1.44,1.51,1.08,4.36.54-.51,0-.84.18-1.18-.18a.66.66,0,0,1-.16-.54c0-.18,0-.18.16-.37,1.68.37,3.36.9,5,1.26a3.11,3.11,0,0,1,.34,1.8c0,.18-.17.18-.17.37-.33.37-.83,0-1.17-.18a2.26,2.26,0,0,1,1.34.9v.37h0a1.85,1.85,0,0,1-1.34.53L40,101.89c-.67.18-1.34.54-1.85-.37a14.25,14.25,0,0,1-1-2.87c-.17-.37-.34-.72,0-1.08a3,3,0,0,1,2.18-.18c1.34.37,2.68,0,4,.37a8.13,8.13,0,0,0,4.87-1.44c-.84-1.08-1.85-1.8-2.69-2.87a.54.54,0,0,1-.54-.54A.45.45,0,0,1,45.06,92.71Z" transform="translate(-4.3 -28.24)"/><path class="cls-12" d="M37.52,80.13A1,1,0,0,1,37,81c-1.51.74-3.19,1.44-4.7,2.16-.5-.18-.5-.72-.5-1.08-.5-4.31-.84-8.45-1.17-12.76V69c.16-.54.67-.37,1-.74,1,0,2,.18,3.19.18C35.68,72.22,36.51,76.17,37.52,80.13Z" transform="translate(-4.3 -28.24)"/><path class="cls-10" d="M18.71,83.18c-.33,0-.33-.18-.5-.54-.17-3.23-.51-6.47-.67-9.7-.17-1.08-.17-2.34-.34-3.42a3.77,3.77,0,0,1-.49-2,9.81,9.81,0,0,0-.33-2.16c.17,0,.33-.18.5-.18,2.2,2.51,4.2,5,6.54,7.37.17.18.17.18.17.37a9.63,9.63,0,0,1-1.34,3c-1,2.16-1.85,4.14-2.85,6.11A1.14,1.14,0,0,1,18.71,83.18Z" transform="translate(-4.3 -28.24)"/><path class="cls-12" d="M13.86,71c-.17,2.52-.34,5.21-.67,7.75a1.65,1.65,0,0,0-1.34,0c-1.18.18-2.35.54-3.69.73-.5,0-.84.18-1.34-.18,1.17-4,2.18-7.74,3.52-11.5a5.09,5.09,0,0,1,1.18,2.34c.33.9.67,1.61,1.67,1.07a.42.42,0,0,1,.48-.31A.44.44,0,0,1,13.86,71Z" transform="translate(-4.3 -28.24)"/><path class="cls-9" d="M36.84,39.32C35.33,37,34,34.83,32.48,32.51c3.86,2.32,7.55,4.66,11.41,6.81.33.18.5.37.16.9A30.58,30.58,0,0,1,41.21,44c-.33.36-.5.73-1,.36C39,42.74,37.85,40.94,36.84,39.32Z" transform="translate(-4.3 -28.24)"/><path class="cls-9" d="M14.37,48.13c.16-.72.65-.54,1-.54,2.52.18,5.2.54,7.88.72q.51,0,.51.54l-1,4.31c-.37.9-1,.74-1.69.9A8,8,0,0,1,19.9,51c-.34-.9-.67-1.26-1.51-.9-1.84.54-1.84.54-1.84,3a4.82,4.82,0,0,1-.17,2.16c-1,.54-1.18-.37-1.51-1.26Z" transform="translate(-4.3 -28.24)"/><path class="cls-8" d="M15.39,109.78c2,.19,4,.19,5.87.37.67.55.67,1.44.84,2.34-.17.54.17,1.08.33,1.62.17.37.17.9-.33.9-2,0-4.19-.37-6.21-.37a3,3,0,0,1-1.68-.72c.17-.9.34-1.62.51-2.52A6.75,6.75,0,0,0,15.39,109.78Z" transform="translate(-4.3 -28.24)"/><path class="cls-13" d="M12.52,88.94c1.17-.54,2.35-.17,3.52-.17h1.2c1-.72,2-.37,3-.37.31,0,.49.17.67.54a10.36,10.36,0,0,1,0,3.24c-.16.72-.67.72-1.17.72a33,33,0,0,1-4-.54c-.5,0-.83.18-1.34-.18-.5,0-1.17-.18-1.67-.18A18.36,18.36,0,0,1,12.52,88.94Z" transform="translate(-4.3 -28.24)"/><path class="cls-13" d="M6.81,79.05a26.07,26.07,0,0,0,5.38-.9c.5-.18.83-.18.83.74a61.26,61.26,0,0,1-.67,7.91C10.84,84.46,9,82.12,7.32,80,7,79.58,6.81,79.41,6.81,79.05Z" transform="translate(-4.3 -28.24)"/><path class="cls-13" d="M13.86,71c-1.84.37-1.84.37-2.68-1.8a17,17,0,0,1-.67-1.8l6-2.15c.5,0,.67.36.67.9,0,1.07.16,2.15.16,3.23A31.43,31.43,0,0,1,13.86,71Z" transform="translate(-4.3 -28.24)"/><path class="cls-3" d="M45.06,92.71c.17.18.34.54.67.72-.17.54-.5.54-.84.89-.5.37-1,.37-1.34.72-1.68,1.62-3,.37-4.36-.89-.17-.18-.5-.54-.34-.9a30.43,30.43,0,0,1,3.69-2.88A34.07,34.07,0,0,1,45.06,92.71Z" transform="translate(-4.3 -28.24)"/><path class="cls-14" d="M14.87,54.06c.5.37.67,1.26,1.34,1.26.84.54,1.84.54,2.35,1.62a3.4,3.4,0,0,1-.34,1.8c-.5.53-1.17,0-1.67.53-1,0-2.18.19-3.19.19-.51,0-.67-.19-.34-.74C13.69,57.12,14.37,55.5,14.87,54.06Z" transform="translate(-4.3 -28.24)"/><path class="cls-15" d="M57.14,94.86l-2.52-1.07c-.5-.18-.84-.37-.17-.9,1-.72,2.18-1.62,3.19-2.34.67-.37,1-.37,1,.74v3.23c-.84-.53-.34-1.79-.51-2.33v4.67A3.72,3.72,0,0,1,58,98.3c-.34.18-.34-.18-.51-.37A16.79,16.79,0,0,0,57.14,94.86Z" transform="translate(-4.3 -28.24)"/><path class="cls-16" d="M40.2,44.36c1-.37,1.34-1.44,2-2.16.67-.54,1-1.44,1.84-2-1.17,3.24-2.68,6.3-4,9.35,0,.18-.17.18-.34.18C39.69,48,40.2,46.33,40.2,44.36Z" transform="translate(-4.3 -28.24)"/><path class="cls-10" d="M50.09,91.81c-1.17-.54-2.51-.9-3.85-1.62a26.66,26.66,0,0,1,3.85-2.87A6.78,6.78,0,0,1,50.09,91.81Z" transform="translate(-4.3 -28.24)"/><path class="cls-17" d="M50.09,91.81V87.32c.34-.37.51-.18.84-.18.34,1.61,0,3.41.17,5a4.63,4.63,0,0,0,.17,2.15v.54c0,.55-.51.55-.84.55s-.51-.37-.34-.74v-.54a5.43,5.43,0,0,0,0-2.34Z" transform="translate(-4.3 -28.24)"/><path class="cls-18" d="M57.81,98.1V91.46c0-.37-.16-1.08.34-1.08s.33.72.33,1.08c.17.9-.16,1.8.17,2.7v3.23C58.81,98.64,58.31,98.46,57.81,98.1Z" transform="translate(-4.3 -28.24)"/><path class="cls-19" d="M57.14,94.86c1,.72.33,1.8.5,2.88-.5.37-.84.18-1.18-.18,0-.74-.33-1.26-.16-2A1.74,1.74,0,0,1,57.14,94.86Z" transform="translate(-4.3 -28.24)"/><path class="cls-20" d="M51.1,94.32a14,14,0,0,1-.17-3.77V87.14a6.07,6.07,0,0,1,.17,2.51Z" transform="translate(-4.3 -28.24)"/><path class="cls-10" d="M50.09,91.63a2.31,2.31,0,0,1,0,2.34Z" transform="translate(-4.3 -28.24)"/><path class="cls-21" d="M69.88,110.14c0,.18-.16.18,0,0a4,4,0,0,0-1.5-.89c-1.51,0-1.68.17-1.68,1.61a1.41,1.41,0,0,1-.34,1.08c-.33-.37-.16-1.08-.33-1.62a1.48,1.48,0,0,0-1.68-1.07c-5-.37-10.07-.72-15.26-.72a1.52,1.52,0,0,1-.84-.18.16.16,0,0,0-.17.16v0c-.67-.37-1.51,0-2.35-.37-.33-.37,0-.54.17-.74a31.69,31.69,0,0,1,6.2-2.87c-.16-.18-.5.18-.5-.37a2.38,2.38,0,0,1,1.51-.54l8.56.54h2c.67.37,1.51-.18,2.18.37,2.52.89,5.2,1.61,7.88,2.33.51.18,1,.18,1.35.74a6.78,6.78,0,0,1,0,1.8h-.68c-.5.54-1.17.36-1.84.36a5.63,5.63,0,0,0-1.68-.18C70.56,109.42,70.22,109.78,69.88,110.14Z" transform="translate(-4.3 -28.24)"/><path class="cls-22" d="M70.72,109.23c1.34,0,2.52.18,3.69.18v.19a17.79,17.79,0,0,0-.17,4.14c0,1.07-.33,1.25-1,1.25-2.18,0-2.18,0-2.35-2.87,0-.37-.17-.74-.17-1.08A3.28,3.28,0,0,1,70.72,109.23Z" transform="translate(-4.3 -28.24)"/><path class="cls-23" d="M52.94,104c-.33,0-.67,0-.84.37-.33.54-1,.54-1.5.74-2.52.9-4.87,1.8-7.38,2.7l-1.51.54c-.17,0-.17,0-.34.18l-4.53,1.61c-1.17.37-1.34.18-1.5-1.26v-4.34c0-1.8.33-2.16,1.84-2.69.34-.18.5-.18.84-.37.5.72,1.17.37,1.68.18L55.3,99c.5,0,.83-.18,1.34-.18.33,1.26.16,2.88,1,3.78A11.16,11.16,0,0,1,52.94,104Z" transform="translate(-4.3 -28.24)"/><path class="cls-24" d="M52.94,104a21.78,21.78,0,0,1,4.7-1.62c1.17.19,2.35.54,3.52.72.84.54,1.85.37,2.86.9a.37.37,0,0,1,.37.36.34.34,0,0,1,0,.18.22.22,0,0,1-.31,0s0,0,0,0c-3.19.18-6.38-.37-9.57-.37A2.17,2.17,0,0,1,52.94,104Z" transform="translate(-4.3 -28.24)"/><path class="cls-25" d="M75.09,107.81a90,90,0,0,1-9.23-2.88c1-.74,2.18,0,3.19,0a41.34,41.34,0,0,0,4.7.72C74.92,105.83,75.42,106.37,75.09,107.81Z" transform="translate(-4.3 -28.24)"/><path class="cls-26" d="M69.55,97.92v2.52c0,1.07-.34.73-.84.54V94.15c0-.9.34-1.08.84-.9A8.91,8.91,0,0,1,69.55,97.92Z" transform="translate(-4.3 -28.24)"/><path class="cls-27" d="M69.05,104.93H65.86c-.67-.54-1.34.37-1.84-.18h.16c.17,0,.17-.18,0-.18-1-.37-2-.54-3-.9h0c.17,0,.17-.18.34-.18A40.41,40.41,0,0,1,69.05,104.93Z" transform="translate(-4.3 -28.24)"/><path class="cls-28" d="M56.46,97.38c.51,0,.85.18,1.18.18a.71.71,0,0,0,.17.54c.33,0,.84.18.84-.54.67.54,1.34.18,1.84.37-.17.72-.67.18-.84.72H56.46v-.18c0-.37-.33-.74,0-1.08Z" transform="translate(-4.3 -28.24)"/><path class="cls-29" d="M68.54,101c.34,0,.84.18.84-.54.5.37,1,.18,1.51.18.17.37-.16.37-.16.54a3.42,3.42,0,0,1-4.2-.9,3.09,3.09,0,0,1,1.85.18A.67.67,0,0,0,68.54,101Z" transform="translate(-4.3 -28.24)"/><path class="cls-30" d="M70.72,101.34c0-.18.17-.37.17-.55h1C71.56,101.34,71.06,101.16,70.72,101.34Z" transform="translate(-4.3 -28.24)"/><path class="cls-12" d="M32.15,94.86C30.47,99,29,103.13,27.28,107.27c-1.17,1.08-2.67,1.44-4.19,2.33,2.18,1.08,4.53,1.62,6.88,2.88a1.56,1.56,0,0,1-1.52.18c-2,0-4.19-.18-6.2-.18-.67-.54-.5-1.62-.84-2.34.5-2.33.67-4.67,1-6.81a5.2,5.2,0,0,0,.17-1.62,3.14,3.14,0,0,1,.84-1.26c1-.9,2-2,2.85-2.88,1.68-.73,3.18-1.61,4.86-2.33C31.64,94.86,31.81,94.51,32.15,94.86Z" transform="translate(-4.3 -28.24)"/><path class="cls-8" d="M28.62,112.66a4.4,4.4,0,0,0,1.35-.18c-2.69-1.08-5-2-7.57-2.88a42.91,42.91,0,0,1,5-2.52c.51.9,1.18,1.8,1.68,2.88.5.9.84,1.8,1.51,2.88C29.8,112.84,29.12,113,28.62,112.66Z" transform="translate(-4.3 -28.24)"/><path class="cls-31" d="M48.25,111.4a4.39,4.39,0,0,1-2.18.18c-.51,0-.84,0-.67.9.16,1.08,0,1.44-1,1.44-2.68,0-2.68,0-2.68-3.24v-.9a6,6,0,0,1,2.34-1.25c.84-.36,1.18-.18,1.35,1.07,0,.18.16.37.16.54.17.72.51.9,1,.9S47.74,110.86,48.25,111.4Z" transform="translate(-4.3 -28.24)"/><path class="cls-32" d="M48.25,111.4a6.34,6.34,0,0,0-1.85,0c-.84.18-1.17-.18-1.17-1.26-.17-.54,0-1.26-.17-1.79.34-.54.5-.54,1-.18h1.51c.33,0,.67,0,.84.54C48.25,109.42,48.59,110.5,48.25,111.4Z" transform="translate(-4.3 -28.24)"/><path class="cls-33" d="M14.37,113.92a33.89,33.89,0,0,0,6,.54,2.28,2.28,0,0,1,1.85.54c-1.17.54-2.35,1.61-3.54,1.61s-2.35-1.26-3.35-2c-.34-.18-.51-.37-.84-.54-.17,0-.17-.18-.17-.18Z" transform="translate(-4.3 -28.24)"/><path class="cls-32" d="M66.53,112.12v-.74c0-2.51.17-2.69,2.18-2.33.67.18,1,.37,1,1.25,0,2.16,0,2.16-1.68,2C67.54,112.3,67,112.12,66.53,112.12Z" transform="translate(-4.3 -28.24)"/><path class="cls-34" d="M45.23,108.17V110c-.51-1.62-.51-1.62-1.85-.9-.5.18-1,.72-1.67.72v-.56a1.62,1.62,0,0,1,0-1.26l1.51-.54c.5.18.83-.18,1.17,0A1.22,1.22,0,0,1,45.23,108.17Z" transform="translate(-4.3 -28.24)"/><path class="cls-35" d="M70.72,109.23a3.14,3.14,0,0,1,0,2.16c-.67.18-1-.37-1-1.08C69.72,109.23,70.05,109.07,70.72,109.23Z" transform="translate(-4.3 -28.24)"/><path class="cls-31" d="M41.71,108v1.24a.16.16,0,0,1-.17-.17h0v-1.26C41.54,108,41.54,108,41.71,108Z" transform="translate(-4.3 -28.24)"/><path class="cls-9" d="M28,49.93c3.35-.18,6.88-.54,10.4-.74A20.16,20.16,0,0,1,37.18,53c-1,.37-1.85-.18-2.85-.37a4.65,4.65,0,0,0-1.51-.37c-1.68-.72-3.53-.9-5.2-1.8C27.28,49.93,27.79,50.11,28,49.93Z" transform="translate(-4.3 -28.24)"/><path class="cls-9" d="M26.78,63.05a.58.58,0,0,1-.17-.37A15.14,15.14,0,0,1,31.3,59.8c.34.18.34.54.68.72.5.36.84.18,1-.54.17,0,.51,0,.51.18.49,1.08,1,2.16,1.51,3.24.5.9.16.9-.51.72-2.18.19-4.34-.53-6.37-1.07a1.52,1.52,0,0,1-.84-.18A.59.59,0,0,1,26.78,63.05Z" transform="translate(-4.3 -28.24)"/><path class="cls-36" d="M33.32,60.36h-.67c-.5.36-.84.17-1.35-.19-.66-.71-.33-1.43-.33-2.33.17-1.62.5-3.42.84-5,.17-.53.34-1.25,1-.9.5.19,1,.19,1.51.37a1.48,1.48,0,0,1-.17,2C34,56.22,33.65,58.38,33.32,60.36Z" transform="translate(-4.3 -28.24)"/><path class="cls-37" d="M23.59,72.58v-.37c-.17-1.8-.17-3.78-.33-5.58,0-.72.16-.9.67-.72a29.7,29.7,0,0,0,3.69,1.26v.18c0,.54-.34.9-.68,1.44-.83,1.08-1.84,2.16-2.68,3.42l-.33.37C23.76,72.76,23.59,72.76,23.59,72.58Z" transform="translate(-4.3 -28.24)"/><path class="cls-38" d="M23.93,72.4c1.17-1.62,2.34-3.06,3.69-4.68h.68a1.47,1.47,0,0,1,.34.9V69.7c0,.18,0,.18-.17.37a18.68,18.68,0,0,1-4,2.33C24.26,72.58,24.09,72.4,23.93,72.4Z" transform="translate(-4.3 -28.24)"/><path class="cls-39" d="M34.33,54.24c0-.72.33-1.25.16-2,.84.17,1.85.53,2.69.72-.34.54-1,.54-1.18,1.07-.5.18-.67.9-1.17.9C34.66,55,34.16,55,34.33,54.24Z" transform="translate(-4.3 -28.24)"/><path class="cls-40" d="M27.28,63.05c2.35.37,4.87.74,7.21,1.26a6.44,6.44,0,0,1-3.69,0A13.8,13.8,0,0,1,27.28,63.05Z" transform="translate(-4.3 -28.24)"/><path class="cls-41" d="M28.12,69.7V68.62c.17-.74.33-1.08,1-.9.34.18.85-.18,1.18.18h.34a.37.37,0,0,1,0,.52v.2A10.24,10.24,0,0,1,29,69.88C28.62,70.06,28.3,70.24,28.12,69.7Z" transform="translate(-4.3 -28.24)"/><path class="cls-42" d="M35,55.14c.33-.54.5-1.26,1.17-.9a1.65,1.65,0,0,1,.17.9c0,.74-.17,1.44-.84,1.44C34.83,56.4,35,55.68,35,55.14Z" transform="translate(-4.3 -28.24)"/><path class="cls-8" d="M30.3,67.92c-.67.18-1.68-.54-2.18.74v-.94A4.22,4.22,0,0,1,30.3,67.92Z" transform="translate(-4.3 -28.24)"/><path class="cls-43" d="M28,49.93c-.16.18-.33.37-.5.37-.17.17-.17.17-.34.17l-.17-.17c0-.18-.16-.37-.16-.54A3.08,3.08,0,0,0,28,49.93Z" transform="translate(-4.3 -28.24)"/><path class="cls-44" d="M30.64,68.44v-.52h.83A.9.9,0,0,1,30.64,68.44Z" transform="translate(-4.3 -28.24)"/><path class="cls-3" d="M31.47,57.84c0,.72-.5,1.25,0,2,0,.18-.17.18-.17,0-1.33.37-2.34,1.44-3.51,2a2.61,2.61,0,0,0-1.18.74c0-4,.17-7.75.33-11.68a.69.69,0,0,1,.17-.54h0a6.53,6.53,0,0,1,2,2.33V53c-.16,1.44-.16,1.44,1,1.08A2.32,2.32,0,0,1,31.3,57C31.47,57.3,31.3,57.66,31.47,57.84Z" transform="translate(-4.3 -28.24)"/><path class="cls-3" d="M18.71,56.76l-2-1.08a.5.5,0,0,1-.34-.54,29.64,29.64,0,0,0-.16-3.77,1,1,0,0,1,.56-1.23l.11,0c2.68-.9,2.68-.9,3.69,2.16l.52,1.63a8,8,0,0,1-1.35,3.22C19.23,57.48,18.89,57.12,18.71,56.76Z" transform="translate(-4.3 -28.24)"/><path class="cls-45" d="M18.71,56.76c.34-.18.67.18,1,.37a1.51,1.51,0,0,1-1.18,1.44A3.92,3.92,0,0,1,18.71,56.76Z" transform="translate(-4.3 -28.24)"/><path class="cls-15" d="M69.55,97.92V93.25c1.18.9,2.51,1.79,3.86,2.88Z" transform="translate(-4.3 -28.24)"/><path class="cls-12" d="M23.59,72.58h.17a.54.54,0,0,1,.5.53C25.44,76,26.78,78.69,28,81.57c.5,2,.67,4,1,5.75,0,.37.16.89-.17,1.25a4.39,4.39,0,0,1-2.18.18H22.4c-.67,0-1.17.18-1.17,1.26,0,1.62.17,2,1.17,2.16a29,29,0,0,1,4,.37h2.68a1.18,1.18,0,0,1,1,.53c-.34.37-.68.18-1.18.18-2.85,0-5.87.18-8.72,0a18.83,18.83,0,0,1-6-1.08c1.84-.18,3.69.18,5.7.18.67,0,.84-.18.84-1.08,0-2.7.17-2.7-2.19-2.7H17.38a49.93,49.93,0,0,1,1.35-5.39C20.23,79.58,21.91,76.17,23.59,72.58Z" transform="translate(-4.3 -28.24)"/><path class="cls-13" d="M26.61,88.57H29a4.1,4.1,0,0,1,3.52,0c0,1.62.17,3.06.17,4.68h-2.5a12,12,0,0,0-3.69-.37A5.47,5.47,0,0,1,26.61,88.57Z" transform="translate(-4.3 -28.24)"/><path class="cls-46" d="M26.46,97.38c0,1.08-1,1.26-1.35,1.8a27.07,27.07,0,0,1-2.35,2.33c-1-.53-2-1.25-3.18-1.79.84-.74,2-.74,3-1.08A32.82,32.82,0,0,1,26.46,97.38Z" transform="translate(-4.3 -28.24)"/><path class="cls-8" d="M32.48,88.57H29c-.51-2.33-.84-4.67-1.34-7-.34-3.42.17-7,.17-10.43a3.46,3.46,0,0,1,.33-1.26V69.7c.67.37,1-.37,1.51-.54l1-.54c.5,4.49.83,9,1.35,13.48a1.13,1.13,0,0,0,.17.74,9,9,0,0,0,.17,3.06A17,17,0,0,1,32.48,88.57Z" transform="translate(-4.3 -28.24)"/><path class="cls-4" d="M38.85,93.25c.68,1.26,1.68,1.61,2.52,2.51.17.18.5,0,.67-.18,1.18-.72,2.35-1.26,3.52-2,.84.9,1.85,1.8,2.69,2.69.5.37.5.74-.17.9a18.38,18.38,0,0,0-3.36,1.26c-.5.18-.83.37-1.34-.18a.92.92,0,0,1-.84-.54c-.5-.72-1-1.26-1.67,0-.34.54-1.85.18-2.35-.54C38.85,95.76,38.35,94.51,38.85,93.25Z" transform="translate(-4.3 -28.24)"/><path class="cls-47" d="M38.69,97c.67.54,1.34.18,1.84.54.5.18.5-.54.67-.9.34-.73.51-.73.84-.18.5.54.84,1.08,1.34,1.62A6.82,6.82,0,0,1,40,97.92a17,17,0,0,0-3-.18c-.67-1.8-1.34-3.77-1.84-5.57-.17-.72.17-.72.5-.54.67.18,1.51.18,2,.9.67.37.84,1.08.84,2A6,6,0,0,0,38.69,97Z" transform="translate(-4.3 -28.24)"/><path class="cls-48" d="M37.68,92.53l-2-.54c-.34,0-.51-.18-.51.37a9.83,9.83,0,0,1-.67-2c.67-.37,1,.18,1.51.18A4.71,4.71,0,0,1,37.68,92.53Z" transform="translate(-4.3 -28.24)"/><path class="cls-20" d="M50.09,94.51c.17.71.67.53,1,.18.5,0,1-.18,1.51.37-2.52,1.08-3,.9-5.2-.72C48.42,94.15,49.25,94.69,50.09,94.51Z" transform="translate(-4.3 -28.24)"/><path class="cls-49" d="M56.3,97.38c0,.37.16.74.16,1.08a16.11,16.11,0,0,0-1.84-1.08C55.46,96.84,56,97.38,56.3,97.38Z" transform="translate(-4.3 -28.24)"/><path class="cls-50" d="M45.23,108.17c-.51-.9-1.51-.18-2-.74l9.06-3.22h.66v.18l-5.53,2.7a2.59,2.59,0,0,0-1.17.72C45.73,108,45.4,107.81,45.23,108.17Z" transform="translate(-4.3 -28.24)"/><path class="cls-51" d="M31.47,57.84c-.17-.18-.17-.37-.17-.74a2.88,2.88,0,0,0-1.17-2.88c-.16-.53-.16-1.43-1-1.43a9.15,9.15,0,0,1-2-2.34h.51l5.53,1.62c-.34,0-.51,0-.67.54C32.15,54.24,31.81,56,31.47,57.84Z" transform="translate(-4.3 -28.24)"/><path class="cls-52" d="M31.3,60h.17c.51.18.84.18,1.35.37,0,.18.5.37.16.54s-.67.72-1,.18C31.64,60.71,31.3,60.36,31.3,60Z" transform="translate(-4.3 -28.24)"/><path class="cls-10" d="M28.12,70.06c0,3.59-.17,7.19-.17,11a1.19,1.19,0,0,1-.16.74c-1.33-3.07-2.69-6-4-9,0-.18.17-.18.17-.37C25.27,71.5,26.78,70.78,28.12,70.06Z" transform="translate(-4.3 -28.24)"/><path class="cls-53" d="M29.12,52.79c1-.54,1.18-.18,1,1.44-.33.37-.5,1.08-1,.54a2.09,2.09,0,0,1-.33-1.44C29,53.16,29,53,29.12,52.79Z" transform="translate(-4.3 -28.24)"/><path class="cls-54" d="M17.55,51c1.68-.18,1.68-.18,1.68,2.52C18.56,52.79,18.22,51.9,17.55,51Z" transform="translate(-4.3 -28.24)"/><path class="cls-10" d="M26.61,88.57c0,1.44-.17,2.88-.17,4.32a30.34,30.34,0,0,0-4-.37c-1,0-1.5-.37-1.33-1.8.16-2.34,0-2.34,1.84-2.34A24,24,0,0,0,26.61,88.57Z" transform="translate(-4.3 -28.24)"/><path class="cls-55" d="M24.76,80.67c-.33.53-.67.9-1.17.9s-.67-.9-1-1.44c-.17-.18,1.18-1.08,1.51-1.08A4.35,4.35,0,0,1,24.76,80.67Z" transform="translate(-4.3 -28.24)"/><path class="cls-55" d="M23.93,84.26a1.34,1.34,0,0,1,.83,1.26.89.89,0,0,1-.68,1.06l-.15,0c-.67,0-1-.9-1-1.44C22.77,84.8,23.42,84.62,23.93,84.26Z" transform="translate(-4.3 -28.24)"/><path class="cls-56" d="M23.59,91.45H22.4c-.34-.18-.34-.54-.34-.9s.17-.54.51-.54h1.84c.51,0,.51.18.51.72,0,.37,0,.9-.51.9,0-.18-.5-.18-.83-.18Z" transform="translate(-4.3 -28.24)"/></svg>