<?xml version="1.0" encoding="utf-8"?>
<!-- Generator: Adobe Illustrator 23.1.0, SVG Export Plug-In . SVG Version: 6.00 Build 0)  -->
<svg version="1.1" id="Capa_1" xmlns="http://www.w3.org/2000/svg" xmlns:xlink="http://www.w3.org/1999/xlink" x="0px" y="0px"
	 viewBox="0 0 50 50" style="enable-background:new 0 0 50 50;" xml:space="preserve">
<style type="text/css">
	.st0{fill:#ECECEC;}
	.st1{fill:#E4E4E4;}
	.st2{fill:#FEE5D5;}
	.st3{fill:#F4C9B2;}
	.st4{fill:#BEBEBE;}
	.st5{fill:#8F759F;}
	.st6{fill:#95637B;}
	.st7{fill:#95637C;}
	.st8{fill:#785D88;}
	.st9{fill:#B2879C;}
	.st10{fill:#A2A2A2;}
	.st11{fill:#734C5F;}
	.st12{fill:#543042;}
	.st13{fill:#594265;}
	.st14{fill:#B2889C;}
	.st15{fill:#9782A3;}
	.st16{fill:#7D596A;}
	.st17{fill:#775163;}
	.st18{fill:#BCBBBC;}
	.st19{fill:#959495;}
	.st20{fill:#785D87;}
	.st21{fill:#90759F;}
	.st22{fill:#D5D5D5;}
	.st23{fill:#A587B9;}
	.st24{fill:#70597E;}
	.st25{fill:#754E61;}
	.st26{fill:#9A7FAB;}
	.st27{fill:#AEADAE;}
	.st28{fill:#D4D3D4;}
	.st29{fill:#DDDCDD;}
	.st30{fill:#9075A0;}
	.st31{fill:#594165;}
	.st32{fill:#734D5F;}
	.st33{fill:#816890;}
	.st34{fill:#EDEAEE;}
	.st35{fill:#FEF0E7;}
	.st36{fill:#C3927D;}
	.st37{fill:#A07A8C;}
	.st38{fill:#F2C8B2;}
	.st39{fill:#C3937E;}
	.st40{fill:#895B71;}
	.st41{fill:#110F0E;}
	.st42{fill:#BEA0AA;}
	.st43{fill:#694356;}
	.st44{fill:#C59580;}
	.st45{fill:#5E3A4C;}
	.st46{fill:#969596;}
	.st47{fill:#A3A3A3;}
	.st48{fill:#989798;}
	.st49{fill:#6D557B;}
	.st50{fill:#F3C9B2;}
	.st51{fill:#5F466A;}
	.st52{fill:#0A0808;}
	.st53{fill:#C69680;}
	.st54{fill:#B1869B;}
	.st55{fill:#563244;}
</style>
<g>
	<path class="st0" d="M50,44.7c-1.7-0.3-3.4-0.6-5.1-0.9c-0.6-0.1-1.2-0.2-1.8-0.3c-0.4-0.1-0.6,0-0.6,0.6c0,0.4,0.2,0.9-0.1,1.3
		c-0.2-0.3-0.2-0.6-0.2-1c0.1-0.7-0.2-0.9-0.8-1c-0.9-0.1-1.8-0.3-2.7-0.5c-1.5-0.3-3-0.6-4.6-0.8c-0.8-0.1-1.5-0.3-2.2-0.5
		c-0.7-0.5-0.7-1.4-0.7-2.2c0-0.1,0.1-0.1,0.2-0.2c0.6-0.1,1.2,0,1.8-0.1c1.3,0,2.7,0.2,4,0.1c0.3,0,0.6,0.1,0.9,0.2
		c0.3,0.1,0.4,0.4,0.4,0.7c-0.2,0.6-0.6,0.1-0.9,0.2c0.9,0.5,0.9,0.5,2.1,0.3c0.2,0,0.4,0,0.5,0c0.1,0,0-0.1,0-0.1
		c-0.1,0.2-0.3,0.1-0.5,0.1c-0.3,0-0.7,0.1-0.9-0.3c-0.1-0.3-0.1-0.5,0.1-0.7c0.6-0.3,1.2-0.2,1.7-0.1c1.1,0.1,2.2,0.1,3.2,0.1
		c0.2,0,0.4,0,0.6,0.1c0.5,0.8,1.3,1.3,1.9,1.9c1,1,2.1,1.9,3.2,2.9c0.1,0.1,0.3,0.2,0.4,0.3C50,44.6,50,44.6,50,44.7z"/>
	<path class="st1" d="M41.9,45.4c0.1,1.3,0.1,1.3,1.2,1.5c1.4,0.2,2.9,0.5,4.3,0.7c0.1,0,0.3,0.1,0.5,0.2c-3.2,0.6-6.4,1.1-9.6,1.6
		c-1.3,0.2-2.6-0.1-3.8-0.2c-1.3-0.1-2.6-0.3-3.8-0.4c-1.9-0.2-3.7-0.4-5.6-0.5c-1.2-0.1-2.4-0.1-3.5-0.3c-2.3-0.4-4.5,0.6-6.7,1.1
		c-1.1,0.2-2.3,0.6-3.4,0.9c-0.9,0.2-1.8-0.2-2.7-0.3c-2.6-0.4-5.1-0.9-7.6-1.4c-0.4-0.1-0.7-0.2-1.1-0.1c0-0.1,0.1-0.2,0.2-0.3
		c2-0.5,4.1-1.1,6.1-1.6c0,0,0.1,0,0.1,0c0.2,0.5-0.1,0.9-0.1,1.3c0.2,0.4,0.6,0.4,0.9,0.7c0.9,0.9,1.9,0.8,2.9,0.1
		c0.2-0.1,0.4-0.2,0.6-0.3c0.2-0.2,0.1-0.4,0-0.7c0-0.3-0.1-0.6,0.2-0.7c1.2-0.1,2.3,0.1,3.5,0.1c0.4,0.2,0.8,0,1.1,0.2
		c-0.1-0.5-0.8-0.8-0.6-1.6c0.3-0.2,0.5,0,0.7,0c0.9,0.2,1.8,0.4,2.6,0.8c1.1,0.4,2,0.1,3.1-0.2c0.5-0.1,0.8-0.4,1-1
		c0.1-0.1,0.1-0.1,0.2,0c0.1,0.1,0.1,0.2,0.1,0.3c0.1,0.4,0,0.9,0,1.4c0,0.5,0.2,0.7,0.6,0.7c0.2,0,0.4,0,0.6,0
		c0.4,0,0.7-0.1,0.7-0.7c-0.1-0.4,0.2-0.5,0.6-0.6c0.4,0,0.8,0.1,1.1-0.1c0.3-0.4,0-1,0.3-1.4c0.1,0,0.1,0,0.2,0.1
		c0.2,0.4,0.5,0.4,0.8,0.4c2.5,0,4.9,0.3,7.4,0.3c0.7,0,1.5,0.1,2.2,0.2c0.3,0.1,0.2,0.5,0.4,0.7c0.1,0.1,0.2,0.1,0.4,0.1
		c0.9,0.2,1,0.1,1.3-0.8c0.1-0.1,0.1-0.1,0.2-0.1c0.2,0.2,0.4,0.5,0.6,0.6C40,46.6,40,47,40,47.3c0,0.6,0.3,0.8,1.1,0.8
		c0.5,0,0.5-0.4,0.5-0.8c0-0.4,0-0.9,0-1.4C41.7,45.8,41.6,45.5,41.9,45.4z"/>
	<path class="st2" d="M21.2,12.1c-0.4,1.4-0.7,2.7-1.1,4.1c-0.5,1.8-1,3.7-1.5,5.5c-0.1,0.3-0.1,0.6-0.5,0.6
		c-0.4,0.3-0.7,0.2-1.1,0.1c-0.2,0-0.5-0.1-0.7-0.1c-0.2,0-0.4,0-0.5,0c-0.1,0-0.2,0-0.3-0.1c-0.4-0.1-0.8-0.1-1.2-0.1
		c-0.1,0-0.3,0-0.4-0.1c-0.1,0-0.1-0.1-0.1-0.2c-0.2-0.6-0.4-1.3-0.5-1.9c-0.1-0.2-0.1-0.5,0.1-0.7c0.1-0.1,0.3-0.1,0.4,0
		c1.4,0.5,2.7,1,4.2,0.7c0.2,0,0.3-0.1,0.4,0c-0.4-0.7-0.9-1.4-1.1-2.3c0.1-1.1,0.2-2.1,0.5-3.2c0.3-0.1,0.5,0.2,0.6,0.4
		c0.1,0.2,0,0.6,0.3,0.5c0.3,0,0.3-0.4,0.3-0.6c0-0.2-0.1-0.3,0-0.5c0.1-0.4,0.5-0.4,0.6-0.7c0.2-0.5,0.6-1.1,0.4-1.5
		c-0.2-0.4-0.8-0.1-1.3-0.1c-1.5,0-3,0.3-4.5,0.3c-0.2,0-0.4,0-0.6-0.1c-0.4-0.2-0.5-0.6-0.7-1c-0.5-1-0.9-2.1-1.4-3.1
		c-0.1-0.2-0.2-0.5-0.1-0.8c0.6-0.6,1.5-0.7,2.2-1C14,6,14.4,5.9,14.9,5.7c0.3-0.1,0.6,0,0.8,0.1c0.8,0.5,1.6,1.1,2.4,1.6
		c0.8,0.5,0.7,0.5,1-0.4c0.1-0.3,0.1-0.7,0.4-0.9c0.7,0.5,1.1,1.4,1.7,2.1c0.2,0.3,0.5,0.5,0.5,1C21.6,10.2,21.5,11.1,21.2,12.1z"/>
	<path class="st3" d="M11.4,7.3c0,0.6,0.4,1,0.6,1.5c0.5,1.1,0.9,2.2,1.5,3.2c0.2,0.1,0.2,0.2,0.2,0.4c-0.1,2.1-0.2,4.3-0.3,6.4
		c0,0.2,0,0.3,0,0.5c-0.2,0.5,0.1,0.9,0.2,1.3c0.1,0.4,0.2,0.8,0.3,1.2c-0.5,0.3-1-0.1-1.4-0.3c-0.9-0.3-0.9-0.3-0.9,0.8
		c0,0.7,0.3,1.4,0.1,2.1c-0.1,0.2-0.3,0.2-0.4,0.1c-1.3-1.3-2.6-2.4-3.6-4c0.2-0.9,0.4-1.9,0.7-2.8c0.1-0.4,0-0.5-0.4-0.5
		c-0.1,0-0.3,0-0.4,0c0.2-0.5,0.6-0.2,0.9-0.4c0.3-0.2,0.7-0.3,0.8-0.8c0.3-0.6,0.4-1.2,0.8-1.7c0.6-0.1,0.9-0.6,1.1-1.3
		c0.1-0.5,0.3-1,0.4-1.6c0-1.1-0.3-2.2-0.4-3.3c0-0.3-0.1-0.5,0-0.8C11.3,7.3,11.4,7.3,11.4,7.3z"/>
	<path class="st4" d="M44.5,39.5c-0.2,0.3-0.5,0.2-0.7,0.1c-1.6,0-3.2-0.1-4.8-0.1c-0.2-0.2-0.2-0.4-0.1-0.6
		c0.3-0.5,0.9-0.6,1.4-0.8c0.2-0.1,0.4-0.2,0.7-0.3c-0.8-0.4-1.3-1.1-2.1-1.3c-0.2,0.2-0.2,0.6-0.2,0.9c0,0.8,0,1.6,0,2.3
		c0,0.3,0,0.6-0.2,0.8c-0.2,0-0.2-0.1-0.2-0.3c0.1-0.5-0.1-0.8-0.5-0.7c-0.2,0-0.4-0.1-0.6-0.1c-1.4,0.1-2.7-0.2-4.1-0.2
		c-0.1,0,0.2-0.3-0.1-0.3c-0.3,0-0.6-0.1-0.7-0.5c0-0.5-0.2-1.1,0.2-1.6c2.3-0.7,4.6-1.4,6.9-2.1c1-0.3,2-0.6,3-0.9
		c0.4-0.1,0.6,0,0.7,0.5C43.6,36,44,37.8,44.5,39.5z"/>
	<path class="st5" d="M19.5,6.2c-0.3,0.4-0.3,1-0.4,1.5C19,8,18.9,8.2,18.5,7.9c-1-0.7-1.9-1.3-2.9-1.9c-0.2-0.1-0.4-0.2-0.6-0.1
		c-1.1-0.9-2.4-1.6-3.5-2.5C11,3,10.4,2.8,10,2.3c0.7-0.7,1.5-1.4,2.2-2.1c0.2-0.2,0.3-0.2,0.6-0.1c1.3,0.8,2.7,1.6,4,2.4
		c1.1,0.9,1.7,2.3,2.6,3.4C19.5,6,19.5,6.1,19.5,6.2z"/>
	<path class="st6" d="M5.8,39.9C5.5,38.4,5.2,37,5,35.5c0.4-0.3,0.7,0,1.1,0c3,0.8,6,0.6,9.1,0.6c0.1,0,0.2-0.1,0.4-0.1
		c0.5-0.1,1-0.1,1.4,0c0.4,0.4,0.1,0.7-0.2,1c-1.2,0.4-2.3,1.2-3.5,1.5c-1.4,0.5-2.8,0.8-4.2,1.3C8.3,40,7.6,40,6.8,40.1
		C6.5,40.2,6.1,40.2,5.8,39.9z"/>
	<path class="st7" d="M5,33.8c0-0.4,0-0.8,0-1.2c-0.2-0.8,0-1.6,0.1-2.4c0-0.7,0.1-1.4,0.2-2.1c0.1-1,0.1-2,0.2-2.9
		c0-0.5,0-0.9,0.2-1.3C6.3,23.3,7.1,22.8,8,23c0.3,1.2,0.2,2.4,0.4,3.6c0.1,1.3,0.2,2.6,0.4,3.9c-0.2,1.1-0.2,2.2-0.8,3.2
		C6.9,33.9,6,33.9,5,33.8z"/>
	<path class="st5" d="M11.3,7.3c0.1,1.2,0.3,2.4,0.4,3.6c0,0.2,0.1,0.4-0.1,0.6c-1.5-0.3-3.1-0.3-4.6-0.5c-0.3,0-0.6,0-0.9,0.1
		C5.9,9.3,5.7,7.5,5.5,5.8c0-0.4-0.3-0.9,0-1.3C7.3,5.3,9,6.1,10.8,6.9C11,7,11.2,7.1,11.3,7.3z"/>
	<path class="st8" d="M11.3,7.3C10.1,6.9,9,6.3,7.9,5.8c-0.7-0.3-1.3-0.6-2-0.9C5.7,4.8,5.6,4.7,5.5,4.5C7,3.7,8.5,3,10,2.3
		c1.5,1,3.1,2.1,4.6,3.1c0.1,0.1,0.5,0.1,0.3,0.5C13.8,6.4,12.6,6.8,11.3,7.3L11.3,7.3L11.3,7.3z"/>
	<path class="st9" d="M5.8,39.9c1,0,1.9-0.1,2.9-0.2c0.2,0,0.3,0,0.5,0.1c0.8,0,1.4,0.5,2,1.1c-0.1,1.4-0.4,2.8-0.6,4.2
		c0,0.2-0.1,0.4-0.4,0.6C9.1,45.8,8,45.6,7,45.5c-0.1,0-0.2-0.1-0.2-0.2C6.4,43.6,6.1,41.7,5.8,39.9z"/>
	<path class="st9" d="M19.9,28.9c0.8,1.8,1.9,3.4,2.8,5.1c0.1,0.2,0.2,0.5,0.3,0.7c-0.4,0.5-0.9,0.8-1.4,1.2
		c-0.3,0.2-0.5,0.4-0.7,0.7c-0.2,0.6,0.1,1.3-0.2,1.9c-0.5,0-0.3-0.5-0.3-0.7C20.2,37,20.4,36.4,20,36c-0.3-0.4-0.7-0.8-1.1-1.3
		c-0.7-0.9-1.5-1.7-2.2-2.6c-0.2-0.6-0.3-1.1-0.1-1.7c0.7-0.5,1.5-0.7,2.2-1C19.2,29.2,19.5,29.1,19.9,28.9z"/>
	<path class="st10" d="M24.4,35.9c0.8,0,1.6,0.3,2.5,0.5c0.2,0,0.4,0.1,0.6,0.1c0.1,0.1,0.1,0.1,0.1,0.2c0,0.1,0,0.2-0.1,0.3
		c-0.4,0.3-0.8,0-1.2,0c1.3,0.8,0.9,0.6,2.6,0.3c-0.3,0-0.5,0.1-0.7-0.1c-0.1-0.1-0.1-0.2-0.1-0.3c0-0.1,0-0.1,0.1-0.2
		c1,0.2,2,0.5,3,0.7c0.2,0.3,0.2,0.6,0.2,1c0,0.1-0.1,0.1-0.1,0.2c-0.2,0.2-0.5,0-0.7-0.1c0.3,0.1,0.6,0.2,0.8,0.5
		c0,0.1,0,0.1,0,0.2h0c-0.2,0.2-0.5,0.3-0.8,0.3c-3.1,0.5-6.1,1-9.2,1.5c-0.4,0.1-0.8,0.3-1.1-0.2c-0.3-0.5-0.4-1-0.6-1.6
		c-0.1-0.2-0.2-0.4,0-0.6c0.4-0.2,0.9-0.2,1.3-0.1c0.8,0.2,1.6,0,2.4,0.2c0.7,0.1,2.3-0.3,2.9-0.8c-0.5-0.6-1.1-1-1.6-1.6
		C24.6,36.3,24.3,36.2,24.4,35.9z"/>
	<path class="st11" d="M19.9,28.9c0,0.2-0.1,0.4-0.3,0.5c-0.9,0.4-1.9,0.8-2.8,1.2c-0.3-0.1-0.3-0.4-0.3-0.6
		c-0.3-2.4-0.5-4.7-0.7-7.1c0-0.1,0-0.2,0-0.2c0.1-0.3,0.4-0.2,0.6-0.4c0.6,0,1.2,0.1,1.9,0.1C18.8,24.5,19.3,26.7,19.9,28.9z"/>
	<path class="st9" d="M8.7,30.6c-0.2,0-0.2-0.1-0.3-0.3c-0.1-1.8-0.3-3.6-0.4-5.4c-0.1-0.6-0.1-1.3-0.2-1.9
		c-0.2-0.3-0.3-0.7-0.3-1.1c0-0.4-0.1-0.8-0.2-1.2c0.1,0,0.2-0.1,0.3-0.1c1.3,1.4,2.5,2.8,3.9,4.1c0.1,0.1,0.1,0.1,0.1,0.2
		c-0.1,0.6-0.5,1.2-0.8,1.7c-0.6,1.2-1.1,2.3-1.7,3.4C9.1,30.2,9,30.5,8.7,30.6z"/>
	<path class="st11" d="M5.8,23.8c-0.1,1.4-0.2,2.9-0.4,4.3C5.2,28,4.9,28,4.6,28.1c-0.7,0.1-1.4,0.3-2.2,0.4c-0.3,0-0.5,0.1-0.8-0.1
		c0.7-2.2,1.3-4.3,2.1-6.4c0.4,0.3,0.5,0.8,0.7,1.3c0.2,0.5,0.4,0.9,1,0.6C5.5,23.7,5.7,23.7,5.8,23.8z"/>
	<path class="st8" d="M19.5,6.2c-0.9-1.3-1.7-2.5-2.6-3.8c2.3,1.3,4.5,2.6,6.8,3.8c0.2,0.1,0.3,0.2,0.1,0.5
		c-0.5,0.8-1.1,1.4-1.7,2.1C21.9,9,21.8,9.2,21.5,9C20.8,8.1,20.1,7.1,19.5,6.2z"/>
	<path class="st8" d="M6.1,11.1c0.1-0.4,0.4-0.3,0.6-0.3c1.5,0.1,3.1,0.3,4.7,0.4c0.2,0,0.3,0.1,0.3,0.3c-0.2,0.8-0.4,1.6-0.6,2.4
		c-0.2,0.5-0.6,0.4-1,0.5c-0.4-0.4-0.5-1.1-0.7-1.7C9.2,12.2,9,12,8.5,12.2c-1.1,0.3-1.1,0.3-1.1,1.7c0,0.4,0.1,0.8-0.1,1.2
		c-0.6,0.3-0.7-0.2-0.9-0.7C6.3,13.3,6.2,12.2,6.1,11.1z"/>
	<path class="st7" d="M6.7,45.4c1.2,0.1,2.4,0.1,3.5,0.2c0.4,0.3,0.4,0.8,0.5,1.3c-0.1,0.3,0.1,0.6,0.2,0.9c0.1,0.2,0.1,0.5-0.2,0.5
		c-1.2,0-2.5-0.2-3.7-0.2c-0.4,0-0.7-0.2-1-0.4c0.1-0.5,0.2-0.9,0.3-1.4C6.5,46,6.6,45.7,6.7,45.4z"/>
	<path class="st12" d="M5,33.8c0.7-0.3,1.4-0.1,2.1-0.1c0.2,0,0.5,0,0.7,0c0.6-0.4,1.2-0.2,1.8-0.2c0.2,0,0.3,0.1,0.4,0.3
		c0.1,0.6,0.1,1.2,0,1.8C9.9,36,9.6,36,9.3,36c-0.8,0-1.6-0.2-2.4-0.3c-0.3,0-0.5,0.1-0.8-0.1c-0.3,0-0.7-0.1-1-0.1
		C5,34.9,5,34.3,5,33.8z"/>
	<path class="st12" d="M1.6,28.3c1.1,0,2.2-0.3,3.2-0.5c0.3-0.1,0.5-0.1,0.5,0.4c-0.1,1.5-0.1,3-0.4,4.4C4,31.3,2.9,30,1.9,28.8
		C1.7,28.6,1.6,28.5,1.6,28.3z"/>
	<path class="st12" d="M5.8,23.8c-1.1,0.2-1.1,0.2-1.6-1c-0.1-0.3-0.3-0.6-0.4-1c1.2-0.4,2.4-0.8,3.6-1.2c0.3,0,0.4,0.2,0.4,0.5
		c0,0.6,0.1,1.2,0.1,1.8C7.2,23.3,6.5,23.5,5.8,23.8z"/>
	<path class="st2" d="M24.4,35.9c0.1,0.1,0.2,0.3,0.4,0.4c-0.1,0.3-0.3,0.3-0.5,0.5C24,37,23.7,37,23.5,37.2c-1,0.9-1.8,0.2-2.6-0.5
		c-0.1-0.1-0.3-0.3-0.2-0.5c0.7-0.5,1.4-1.2,2.2-1.6C23.5,35,23.9,35.5,24.4,35.9z"/>
	<path class="st13" d="M6.4,14.4c0.3,0.2,0.4,0.7,0.8,0.7c0.5,0.3,1.1,0.3,1.4,0.9c0,0.3,0,0.7-0.2,1c-0.3,0.3-0.7,0-1,0.3
		c-0.6,0-1.3,0.1-1.9,0.1c-0.3,0-0.4-0.1-0.2-0.4C5.7,16.1,6.1,15.2,6.4,14.4z"/>
	<path class="st14" d="M31.6,37.1c-0.5-0.2-1-0.4-1.5-0.6c-0.3-0.1-0.5-0.2-0.1-0.5c0.6-0.4,1.3-0.9,1.9-1.3
		c0.4-0.2,0.6-0.2,0.6,0.4c0,0.6,0,1.2,0,1.8c-0.5-0.3-0.2-1-0.3-1.3c0,0.8,0,1.7,0,2.6c0,0.3,0,0.6-0.1,0.8
		c-0.2,0.1-0.2-0.1-0.3-0.2C31.7,38.2,31.8,37.6,31.6,37.1z"/>
	<path class="st15" d="M21.5,9c0.6-0.2,0.8-0.8,1.2-1.2c0.4-0.3,0.6-0.8,1.1-1.1c-0.7,1.8-1.6,3.5-2.4,5.2c0,0.1-0.1,0.1-0.2,0.1
		C21.2,11,21.5,10.1,21.5,9z"/>
	<path class="st9" d="M27.4,35.4c-0.7-0.3-1.5-0.5-2.3-0.9c0.8-0.6,1.5-1.2,2.3-1.6C27.7,33.7,27.7,34.5,27.4,35.4z"/>
	<path class="st16" d="M27.4,35.4c0-0.8,0-1.7,0-2.5c0.2-0.2,0.3-0.1,0.5-0.1c0.2,0.9,0,1.9,0.1,2.8c0,0.4-0.1,0.8,0.1,1.2
		c0,0.1,0,0.2,0,0.3c0,0.3-0.3,0.3-0.5,0.3c-0.2,0-0.3-0.2-0.2-0.4c0-0.1,0-0.2,0-0.3C27.5,36.2,27.5,35.8,27.4,35.4L27.4,35.4z"/>
	<path class="st17" d="M32,38.9c0-1.2,0-2.5,0-3.7c0-0.2-0.1-0.6,0.2-0.6c0.3,0,0.2,0.4,0.2,0.6c0.1,0.5-0.1,1,0.1,1.5
		c0,0,0,0.1,0,0.1c0,0.6,0,1.2,0,1.7C32.6,39.2,32.3,39.1,32,38.9z"/>
	<path class="st18" d="M31.6,37.1c0.6,0.4,0.2,1,0.3,1.6c-0.3,0.2-0.5,0.1-0.7-0.1c0-0.4-0.2-0.7-0.1-1.1
		C31.2,37.3,31.4,37.2,31.6,37.1z"/>
	<path class="st19" d="M28,36.8c-0.2-0.7-0.1-1.4-0.1-2.1c0-0.6,0-1.3,0-1.9c0.2,0.4,0.1,0.9,0.1,1.4c0,0.8,0,1.7,0,2.5
		C28,36.7,28,36.8,28,36.8z"/>
	<path class="st9" d="M27.4,35.3c0.3,0.4,0.2,0.9,0,1.3c0-0.1,0-0.1,0-0.2C27.4,36.1,27.4,35.7,27.4,35.3z"/>
	<path class="st20" d="M39.2,45.6C39.2,45.7,39.1,45.7,39.2,45.6c-0.3-0.2-0.5-0.4-0.9-0.5c-0.9,0-1,0.1-1,0.9c0,0.2,0,0.4-0.2,0.6
		c-0.2-0.2-0.1-0.6-0.2-0.9c-0.2-0.5-0.5-0.6-1-0.6c-3-0.2-6-0.4-9.1-0.4c-0.2,0-0.3,0-0.5-0.1c0,0-0.1,0-0.1,0.1
		c-0.4-0.2-0.9,0-1.4-0.2c-0.2-0.2,0-0.3,0.1-0.4c1.2-0.7,2.5-1.2,3.7-1.6c-0.1-0.1-0.3,0.1-0.3-0.2C28.8,42,29,42,29.2,42
		c1.7,0.1,3.4,0.2,5.1,0.3c0.4,0,0.8,0,1.2,0c0.4,0.2,0.9-0.1,1.3,0.2c1.5,0.5,3.1,0.9,4.7,1.3c0.3,0.1,0.6,0.1,0.8,0.4
		c0,0.3,0.1,0.7,0,1c-0.1,0-0.3,0-0.4,0c-0.3,0.3-0.7,0.2-1.1,0.2c-0.3-0.1-0.7-0.1-1-0.1C39.6,45.2,39.4,45.4,39.2,45.6z"/>
	<path class="st21" d="M39.7,45.1c0.8,0,1.5,0.1,2.2,0.1c0,0,0,0.1,0,0.1c-0.2,0.8-0.1,1.6-0.1,2.3c0,0.6-0.2,0.7-0.6,0.7
		c-1.3,0-1.3,0-1.4-1.6c0-0.2-0.1-0.4-0.1-0.6C39.7,45.9,39.5,45.5,39.7,45.1z"/>
	<path class="st22" d="M29.1,42.2c-0.2,0-0.4,0-0.5,0.2c-0.2,0.3-0.6,0.3-0.9,0.4c-1.5,0.5-2.9,1-4.4,1.5c-0.3,0.1-0.6,0.2-0.9,0.3
		c-0.1,0-0.1,0-0.2,0.1c-0.9,0.3-1.8,0.6-2.7,0.9c-0.7,0.2-0.8,0.1-0.9-0.7c0-0.8,0-1.6,0-2.4c0-1,0.2-1.2,1.1-1.5
		c0.2-0.1,0.3-0.1,0.5-0.2c0.3,0.4,0.7,0.2,1,0.1c3.1-0.5,6.2-1,9.3-1.5c0.3,0,0.5-0.1,0.8-0.1c0.2,0.7,0.1,1.6,0.6,2.1
		C31,41.9,30.1,42.1,29.1,42.2z"/>
	<path class="st23" d="M29.1,42.2c0.9-0.4,1.8-0.7,2.8-0.9c0.7,0.1,1.4,0.3,2.1,0.4c0.5,0.3,1.1,0.2,1.7,0.5c0.1,0,0.3,0.1,0.2,0.3
		c-0.1,0.1-0.2,0-0.2,0c-1.9,0.1-3.8-0.2-5.7-0.2C29.7,42.4,29.4,42.3,29.1,42.2z"/>
	<path class="st24" d="M42.3,44.3c-1.8-0.5-3.7-0.9-5.5-1.6c0.6-0.4,1.3,0,1.9,0c0.9,0.2,1.9,0.3,2.8,0.4
		C42.2,43.2,42.5,43.5,42.3,44.3z"/>
	<path class="st25" d="M39,38.8c0,0.2,0,0.5,0,0.7s0,0.5,0,0.7c0,0.6-0.2,0.4-0.5,0.3c0-1.3,0-2.5,0-3.8c0-0.5,0.2-0.6,0.5-0.5
		C39.3,37.1,39.2,37.9,39,38.8z"/>
	<path class="st26" d="M38.7,42.7c-0.6,0-1.3,0-1.9,0c-0.4-0.3-0.8,0.2-1.1-0.1c0,0,0,0,0.1,0c0.1,0,0.1-0.1,0-0.1
		c-0.6-0.2-1.2-0.3-1.8-0.5c0,0,0,0,0,0c0.1,0,0.1-0.1,0.2-0.1C35.6,42,37.2,42.3,38.7,42.7z"/>
	<path class="st27" d="M31.2,38.5c0.3,0,0.5,0.1,0.7,0.1c0,0.1,0,0.2,0.1,0.3c0.2,0,0.5,0.1,0.5-0.3c0.4,0.3,0.8,0.1,1.1,0.2
		c-0.1,0.4-0.4,0.1-0.5,0.4c-0.6,0-1.3,0-1.9,0c0,0,0-0.1,0-0.1C31.2,38.9,31,38.7,31.2,38.5L31.2,38.5z"/>
	<path class="st28" d="M38.4,40.5c0.2,0,0.5,0.1,0.5-0.3c0.3,0.2,0.6,0.1,0.9,0.1c0.1,0.2-0.1,0.2-0.1,0.3c-0.9,0.4-1.8,0.2-2.5-0.5
		c0.4-0.1,0.8,0,1.1,0.1C38.3,40.3,38.3,40.4,38.4,40.5z"/>
	<path class="st29" d="M39.7,40.7c0-0.1,0.1-0.2,0.1-0.3c0.2,0,0.3,0,0.6,0C40.2,40.7,39.9,40.6,39.7,40.7z"/>
	<path class="st11" d="M16.7,37.1c-1,2.3-1.9,4.6-2.9,6.9c-0.7,0.6-1.6,0.8-2.5,1.3c1.3,0.6,2.7,0.9,4.1,1.6
		c-0.4,0.2-0.7,0.2-0.9,0.1c-1.2,0-2.5-0.1-3.7-0.1c-0.4-0.3-0.3-0.9-0.5-1.3c0.3-1.3,0.4-2.6,0.6-3.8c0.1-0.3,0.1-0.6,0.1-0.9
		c0.1-0.3,0.3-0.5,0.5-0.7c0.6-0.5,1.2-1.1,1.7-1.6c1-0.4,1.9-0.9,2.9-1.3C16.4,37.1,16.5,36.9,16.7,37.1z"/>
	<path class="st7" d="M14.6,47c0.2,0,0.4,0,0.8-0.1c-1.6-0.6-3-1.1-4.5-1.6c1.1-0.5,2-1.1,3-1.4c0.3,0.5,0.7,1,1,1.6
		c0.3,0.5,0.5,1,0.9,1.6C15.3,47.1,14.9,47.2,14.6,47z"/>
	<path class="st30" d="M26.3,46.3c-0.4,0.2-0.9,0.1-1.3,0.1c-0.3,0-0.5,0-0.4,0.5c0.1,0.6,0,0.8-0.6,0.8c-1.6,0-1.6,0-1.6-1.8
		c0-0.2,0-0.3,0-0.5c0.4-0.4,0.9-0.5,1.4-0.7c0.5-0.2,0.7-0.1,0.8,0.6c0,0.1,0.1,0.2,0.1,0.3c0.1,0.4,0.3,0.5,0.6,0.5
		C25.6,46.1,26,46,26.3,46.3z"/>
	<path class="st31" d="M26.3,46.3c-0.4,0-0.8-0.1-1.1,0c-0.5,0.1-0.7-0.1-0.7-0.7c-0.1-0.3,0-0.7-0.1-1c0.2-0.3,0.3-0.3,0.6-0.1
		c0.3,0,0.6,0,0.9,0c0.2,0,0.4,0,0.5,0.3C26.3,45.2,26.5,45.8,26.3,46.3z"/>
	<path class="st32" d="M6.1,47.7C7.3,47.9,8.5,48,9.7,48c0.4,0,0.8,0,1.1,0.3c-0.7,0.3-1.4,0.9-2.1,0.9c-0.7,0-1.4-0.7-2-1.1
		c-0.2-0.1-0.3-0.2-0.5-0.3C6.1,47.8,6.1,47.7,6.1,47.7C6.1,47.7,6.1,47.7,6.1,47.7z"/>
	<path class="st31" d="M37.2,46.7c0-0.1,0-0.3,0-0.4c0-1.4,0.1-1.5,1.3-1.3c0.4,0.1,0.6,0.2,0.6,0.7c0,1.2,0,1.2-1,1.1
		C37.8,46.8,37.5,46.7,37.2,46.7z"/>
	<path class="st33" d="M24.5,44.5c0,0.3,0,0.7,0,1c-0.3-0.9-0.3-0.9-1.1-0.5c-0.3,0.1-0.6,0.4-1,0.4c0-0.1,0-0.2,0-0.3
		c-0.1-0.2-0.1-0.5,0-0.7c0.3-0.1,0.6-0.2,0.9-0.3c0.3,0.1,0.5-0.1,0.7,0C24.2,44.1,24.4,44.3,24.5,44.5z"/>
	<path class="st34" d="M39.7,45.1c0.1,0.4,0.2,0.8,0,1.2c-0.4,0.1-0.6-0.2-0.6-0.6C39.1,45.1,39.3,45,39.7,45.1z"/>
	<path class="st30" d="M22.4,44.4c0,0.2,0,0.5,0,0.7c0,0-0.1,0-0.1-0.1c0-0.2,0-0.5,0-0.7C22.3,44.4,22.3,44.4,22.4,44.4z"/>
	<path class="st8" d="M14.2,12.1c2-0.1,4.1-0.3,6.2-0.4c-0.2,0.8-0.4,1.5-0.7,2.1c-0.6,0.2-1.1-0.1-1.7-0.2
		c-0.3-0.1-0.6-0.2-0.9-0.2C16.1,13,15,12.9,14,12.4C13.8,12.1,14.1,12.2,14.2,12.1z"/>
	<path class="st8" d="M13.5,19.4c-0.1-0.1-0.1-0.2-0.1-0.2c0.9-0.7,1.8-1.3,2.8-1.6c0.2,0.1,0.2,0.3,0.4,0.4
		c0.3,0.2,0.5,0.1,0.6-0.3c0.1,0,0.3,0,0.3,0.1c0.3,0.6,0.6,1.2,0.9,1.8c0.3,0.5,0.1,0.5-0.3,0.4c-1.3,0.1-2.6-0.3-3.8-0.6
		c-0.2,0-0.3,0-0.5-0.1C13.7,19.4,13.6,19.4,13.5,19.4z"/>
	<path class="st35" d="M17.4,17.9c-0.1,0-0.2,0-0.4,0c-0.3,0.2-0.5,0.1-0.8-0.1c-0.4-0.4-0.2-0.8-0.2-1.3c0.1-0.9,0.3-1.9,0.5-2.8
		c0.1-0.3,0.2-0.7,0.6-0.5c0.3,0.1,0.6,0.1,0.9,0.2c0.3,0.4,0.2,0.8-0.1,1.1C17.8,15.6,17.6,16.8,17.4,17.9z"/>
	<path class="st36" d="M11.6,24.7c0-0.1,0-0.1,0-0.2c-0.1-1-0.1-2.1-0.2-3.1c0-0.4,0.1-0.5,0.4-0.4c0.7,0.3,1.5,0.5,2.2,0.7
		c0,0,0,0.1,0,0.1c0,0.3-0.2,0.5-0.4,0.8c-0.5,0.6-1.1,1.2-1.6,1.9c-0.1,0.1-0.1,0.1-0.2,0.2C11.7,24.8,11.6,24.8,11.6,24.7z"/>
	<path class="st37" d="M11.8,24.6c0.7-0.9,1.4-1.7,2.2-2.6c0.1,0,0.2,0,0.4,0c0.1,0.1,0.2,0.3,0.2,0.5c0,0.2,0,0.4,0,0.6
		c0,0.1,0,0.1-0.1,0.2c-0.7,0.6-1.6,0.9-2.4,1.3C12,24.7,11.9,24.6,11.8,24.6z"/>
	<path class="st38" d="M18,14.5c0-0.4,0.2-0.7,0.1-1.1c0.5,0.1,1.1,0.3,1.6,0.4c-0.2,0.3-0.6,0.3-0.7,0.6c-0.3,0.1-0.4,0.5-0.7,0.5
		C18.2,14.9,17.9,14.9,18,14.5z"/>
	<path class="st39" d="M13.8,19.4c1.4,0.2,2.9,0.4,4.3,0.7c-0.8,0.2-1.5,0.2-2.2,0C15.2,19.9,14.5,19.8,13.8,19.4z"/>
	<path class="st40" d="M14.3,23.1c0-0.2,0-0.4,0-0.6c0.1-0.4,0.2-0.6,0.6-0.5c0.2,0.1,0.5-0.1,0.7,0.1c0.1,0,0.2,0,0.2,0
		c0.1,0.1,0.1,0.2,0,0.3c0,0,0,0.1,0,0.1c-0.3,0.3-0.7,0.5-1,0.7C14.6,23.3,14.4,23.4,14.3,23.1z"/>
	<path class="st41" d="M18.4,15c0.2-0.3,0.3-0.7,0.7-0.5c0.1,0.2,0.1,0.3,0.1,0.5c0,0.4-0.1,0.8-0.5,0.8
		C18.3,15.7,18.4,15.3,18.4,15z"/>
	<path class="st7" d="M15.6,22.1c-0.4,0.1-1-0.3-1.3,0.4c0-0.2,0-0.4,0-0.5C14.8,22,15.2,21.9,15.6,22.1z"/>
	<path class="st42" d="M14.2,12.1c-0.1,0.1-0.2,0.2-0.3,0.2c-0.1,0.1-0.1,0.1-0.2,0.1c0,0,0,0-0.1-0.1c0-0.1-0.1-0.2-0.1-0.3
		C13.8,12.1,14,12.1,14.2,12.1z"/>
	<path class="st43" d="M15.8,22.4c0-0.1,0-0.2,0-0.3c0.2,0,0.3,0,0.5,0C16.2,22.3,16,22.4,15.8,22.4z"/>
	<path class="st2" d="M16.3,16.5c0,0.4-0.3,0.7,0,1.1c0,0.1-0.1,0.1-0.1,0c-0.8,0.2-1.4,0.8-2.1,1.1c-0.3,0.1-0.5,0.2-0.7,0.4
		c0-2.2,0.1-4.3,0.2-6.5c0-0.1,0-0.2,0.1-0.3l0,0c0.5,0.3,0.9,0.8,1.2,1.3c0,0.1,0,0.1,0,0.2c-0.1,0.8-0.1,0.8,0.6,0.6
		c0.6,0.3,0.9,0.8,0.7,1.6C16.3,16.2,16.2,16.4,16.3,16.5z"/>
	<path class="st2" d="M8.7,15.9c-0.4-0.2-0.8-0.4-1.2-0.6c-0.2-0.1-0.2-0.2-0.2-0.3c0-0.7,0-1.4-0.1-2.1c-0.1-0.4,0.1-0.6,0.4-0.7
		c1.6-0.5,1.6-0.5,2.2,1.2c0.1,0.3,0.2,0.6,0.3,0.9c-0.2,0.6-0.3,1.3-0.8,1.8C9,16.3,8.8,16.1,8.7,15.9z"/>
	<path class="st44" d="M8.7,15.9c0.2-0.1,0.4,0.1,0.6,0.2c0,0.5-0.4,0.7-0.7,0.8C8.5,16.6,8.6,16.3,8.7,15.9z"/>
	<path class="st14" d="M39,38.8c0-0.9,0-1.7,0-2.6c0.7,0.5,1.5,1,2.3,1.6C40.4,38.2,39.7,38.5,39,38.8z"/>
	<path class="st11" d="M11.6,24.7c0,0,0.1,0,0.1,0c0.2,0,0.3,0.2,0.3,0.3c0.7,1.6,1.5,3.1,2.2,4.7c0.3,1.1,0.4,2.2,0.6,3.2
		c0,0.2,0.1,0.5-0.1,0.7c-0.4,0.2-0.9,0.1-1.3,0.1c-0.8,0-1.7,0-2.5,0c-0.4,0-0.7,0.1-0.7,0.7c0,0.9,0.1,1.1,0.7,1.2
		c0.8,0.1,1.6,0,2.4,0.2c0.5,0,1.1,0,1.6,0c0.2,0,0.5,0.1,0.6,0.3c-0.2,0.2-0.4,0.1-0.7,0.1c-1.7,0-3.5,0.1-5.2,0
		C8.5,36.2,7.2,36,6,35.6c1.1-0.1,2.2,0.1,3.4,0.1c0.4,0,0.5-0.1,0.5-0.6c0-1.5,0.1-1.5-1.3-1.5c-0.2,0-0.5,0-0.7,0
		c0.3-1,0.4-2.1,0.8-3C9.6,28.6,10.6,26.7,11.6,24.7z"/>
	<path class="st12" d="M13.4,33.6c0.5,0,0.9,0,1.4,0c0.7-0.3,1.4-0.3,2.1,0c0,0.9,0.1,1.7,0.1,2.6c-0.5,0-1,0-1.5,0
		C14.8,36,14.1,36,13.3,36C13,35.2,13,34.4,13.4,33.6z"/>
	<path class="st45" d="M13.3,38.5c0,0.6-0.6,0.7-0.8,1c-0.4,0.5-1,0.9-1.4,1.3c-0.6-0.3-1.2-0.7-1.9-1c0.5-0.4,1.2-0.4,1.8-0.6
		C11.8,38.9,12.5,38.7,13.3,38.5z"/>
	<path class="st7" d="M16.9,33.6c-0.7,0-1.4,0-2.1,0c-0.3-1.3-0.5-2.6-0.8-3.9c-0.2-1.9,0.1-3.9,0.1-5.8c0-0.2,0.1-0.5,0.2-0.7
		c0,0,0-0.1,0-0.1c0.4,0.2,0.6-0.2,0.9-0.3c0.2-0.1,0.4-0.2,0.6-0.3c0.3,2.5,0.5,5,0.8,7.5c0,0.1,0,0.3,0.1,0.4
		c-0.1,0.6,0,1.2,0.1,1.7C16.9,32.7,16.9,33.2,16.9,33.6z"/>
	<path class="st3" d="M20.7,36.2c0.4,0.7,1,0.9,1.5,1.4c0.1,0.1,0.3,0,0.4-0.1c0.7-0.4,1.4-0.7,2.1-1.1c0.5,0.5,1.1,1,1.6,1.5
		c0.3,0.2,0.3,0.4-0.1,0.5c-0.7,0.2-1.4,0.4-2,0.7c-0.3,0.1-0.5,0.2-0.8-0.1c-0.2,0-0.4-0.1-0.5-0.3c-0.3-0.4-0.6-0.7-1,0
		c-0.2,0.3-1.1,0.1-1.4-0.3C20.7,37.6,20.4,36.9,20.7,36.2z"/>
	<path class="st46" d="M20.6,38.3c0.4,0.3,0.8,0.1,1.1,0.3c0.3,0.1,0.3-0.3,0.4-0.5c0.2-0.4,0.3-0.4,0.5-0.1
		c0.3,0.3,0.5,0.6,0.8,0.9c-0.7,0.2-1.4,0-2-0.1c-0.6-0.1-1.2-0.1-1.8-0.1c-0.4-1-0.8-2.1-1.1-3.1c-0.1-0.4,0.1-0.4,0.3-0.3
		c0.4,0.1,0.9,0.1,1.2,0.5c0.4,0.2,0.5,0.6,0.5,1.1C20.5,37.4,20.4,37.9,20.6,38.3z"/>
	<path class="st47" d="M20,35.8c-0.4-0.1-0.8-0.2-1.2-0.3c-0.2,0-0.3-0.1-0.3,0.2c-0.2-0.4-0.3-0.7-0.4-1.1c0.4-0.2,0.6,0.1,0.9,0.1
		C19.4,34.9,19.7,35.3,20,35.8z"/>
	<path class="st19" d="M27.4,36.9c0.1,0.4,0.4,0.3,0.6,0.1c0.3,0,0.6-0.1,0.9,0.2c-1.5,0.6-1.8,0.5-3.1-0.4
		C26.4,36.7,26.9,37,27.4,36.9z"/>
	<path class="st48" d="M31.1,38.5c0,0.2,0.1,0.4,0.1,0.6c-0.3-0.2-0.7-0.4-1.1-0.6C30.6,38.2,30.9,38.5,31.1,38.5z"/>
	<path class="st49" d="M24.5,44.5c-0.3-0.5-0.9-0.1-1.2-0.4c1.8-0.6,3.6-1.2,5.4-1.8c0.1,0,0.3,0,0.4,0c0,0,0,0.1,0,0.1
		c-1.1,0.5-2.2,1-3.3,1.5c-0.3,0.1-0.5,0.2-0.7,0.4C24.8,44.4,24.6,44.3,24.5,44.5z"/>
	<path class="st50" d="M16.3,16.5c-0.1-0.1-0.1-0.2-0.1-0.4c0.1-0.8-0.2-1.2-0.7-1.6c-0.1-0.3-0.1-0.8-0.6-0.8
		c-0.5-0.3-0.8-0.8-1.2-1.3c0.1,0,0.2,0,0.3,0c1.1,0.3,2.2,0.6,3.3,0.9c-0.2,0-0.3,0-0.4,0.3C16.7,14.5,16.5,15.5,16.3,16.5z"/>
	<path class="st51" d="M16.2,17.7c0,0,0.1,0,0.1,0c0.3,0.1,0.5,0.1,0.8,0.2c0,0.1,0.3,0.2,0.1,0.3c-0.2,0.1-0.4,0.4-0.6,0.1
		C16.4,18.1,16.2,17.9,16.2,17.7z"/>
	<path class="st9" d="M14.3,23.3c0,2-0.1,4-0.1,6.1c0,0.1,0,0.3-0.1,0.4c-0.8-1.7-1.6-3.3-2.4-5c0-0.1,0.1-0.1,0.1-0.2
		C12.6,24.1,13.5,23.7,14.3,23.3z"/>
	<path class="st52" d="M14.9,13.7c0.6-0.3,0.7-0.1,0.6,0.8c-0.2,0.2-0.3,0.6-0.6,0.3c-0.2-0.2-0.2-0.5-0.2-0.8
		C14.8,13.9,14.8,13.8,14.9,13.7z"/>
	<path class="st53" d="M8,12.7c1-0.1,1-0.1,1,1.4C8.6,13.7,8.4,13.2,8,12.7z"/>
	<path class="st9" d="M13.4,33.6c0,0.8-0.1,1.6-0.1,2.4c-0.8-0.2-1.6-0.1-2.4-0.2c-0.6,0-0.9-0.2-0.8-1c0.1-1.3,0-1.3,1.1-1.3
		C11.9,33.6,12.7,33.6,13.4,33.6z"/>
	<path class="st54" d="M12.3,29.2c-0.2,0.3-0.4,0.5-0.7,0.5c-0.3,0-0.4-0.5-0.6-0.8c-0.1-0.1,0.7-0.6,0.9-0.6
		C12,28.4,12.3,29,12.3,29.2z"/>
	<path class="st54" d="M11.8,31.2c0.3,0.1,0.5,0.4,0.5,0.7c0.1,0.4-0.3,0.6-0.5,0.6c-0.4,0-0.6-0.5-0.6-0.8
		C11.1,31.5,11.5,31.4,11.8,31.2z"/>
	<path class="st55" d="M11.6,35.2c-0.2,0-0.5,0-0.7,0c-0.2-0.1-0.2-0.3-0.2-0.5c0-0.2,0.1-0.3,0.3-0.3c0.4,0,0.7,0,1.1,0
		c0.3,0,0.3,0.1,0.3,0.4c0,0.2,0,0.5-0.3,0.5C12.1,35.2,11.8,35.2,11.6,35.2C11.6,35.2,11.6,35.2,11.6,35.2z"/>
</g>
</svg>
