<?xml version="1.0" encoding="utf-8"?>
<!-- Generator: Adobe Illustrator 23.1.0, SVG Export Plug-In . SVG Version: 6.00 Build 0)  -->
<svg version="1.1" id="Capa_1" xmlns="http://www.w3.org/2000/svg" xmlns:xlink="http://www.w3.org/1999/xlink" x="0px" y="0px"
	 viewBox="0 0 91 151.7" style="enable-background:new 0 0 91 151.7;" xml:space="preserve">
<style type="text/css">
	.st0{fill:#4F5253;}
	.st1{fill:#CBA896;}
	.st2{fill:#734C5F;}
	.st3{fill:#E4E4E4;}
	.st4{fill:#543042;}
	.st5{fill:#95637C;}
	.st6{fill:#F4C9B2;}
	.st7{fill:#B99787;}
	.st8{fill:#2B2B2B;}
	.st9{fill:#A57862;}
	.st10{fill:#FEE5D5;}
	.st11{fill:#3F3F3F;}
	.st12{fill:#C3937D;}
	.st13{fill:#A67963;}
	.st14{fill:#FEF0E7;}
	.st15{fill:#A67862;}
	.st16{fill:#A77963;}
	.st17{fill:#C3937C;}
	.st18{fill:#FCFBF8;}
	.st19{fill:#474747;}
	.st20{fill:#2C2C2B;}
	.st21{fill:#2D2C2C;}
	.st22{fill:#514945;}
	.st23{fill:#F3C9B2;}
	.st24{fill:#040303;}
	.st25{fill:#C5957F;}
	.st26{fill:#090807;}
</style>
<g>
	<path class="st0" d="M30.7,135.1c-0.2-0.9-0.5-1.2-1.2-1.2c-2,0-3.9-0.3-5.9-0.3c-0.5,0-0.9,0-0.9-0.9c-0.5-9.3-1.1-18.6-1.6-27.9
		v-0.3c0.5-0.3,0.9,0.6,1.2,0.9c1.8,2.1,3.4,4.5,5.2,6.9c0.5,0.6,0.9,0.9,1.2-0.3c0.2-0.6,0.7-1.2,0.9-2.1c1.4-3,2.7-6,4.1-9.3
		c0.2-0.3,0.4-0.9,0.7-0.9c0.2,0,0.2,0,0.4,0.3c0.4,2.4,0.5,4.8,0.7,6.9c0.5,6.3,0.9,12.3,1.4,18.6c0.2,2.4,0.4,4.8,0.5,7.2
		c0,0.6,0,0.9-0.2,1.5c-0.5,0.6-1.2,0.6-1.8,0.3c-1.2-0.3-2.7,0-3.9,0C31.4,134.5,31,134.8,30.7,135.1z"/>
	<path class="st1" d="M59.5,37.7c0.4,4.8,0.5,9.6,0.9,14.4c0.2,0.6-0.2,0.9-0.7,1.2c-2.9,0.3-5.7,0.9-8.4,1.2c-0.4,0-0.7,0-1.2,0.3
		c-1.2,0.6-2.5,0.6-3.6,0.9c-2.7,0.3-5.2,0.9-7.7,1.2c-0.9,0-1.4-0.6-1.6-1.8c-0.4-4.2-0.9-8.1-1.2-12.3c-0.2-0.6-0.2-1.2,0.2-1.5
		c0.9-0.9,2-0.6,3-0.9c2.3-0.3,4.6-0.9,7.1-0.9c0.9,0.3,1.6,0.9,2.3,1.2c0.9,0.6,2.5,0,2.9-1.2c0,0-0.5,0-0.4-0.6
		c0.4-0.6,0.7-0.3,1.2-0.6c1.8-0.3,3.6-0.6,5.3-0.6C58.3,37.4,59,37.4,59.5,37.7z"/>
	<path class="st0" d="M47.9,63.2c6.2-3,12.3-6,18.5-9c0.4-0.3,0.7-0.6,1.2-0.3c1.2,2.4,2,5.1,2.7,8.1c0.4,1.2,1.1,2.4,0.9,3.6
		c-0.5,0.6-0.9,0-1.4-0.3c-1.2-0.9-2.7-1.8-3.7-2.7c-0.5-0.3-0.7-0.3-1.1,0.3c-1.1,2.4-2,4.8-3,7.2c-0.2,0.3-0.5,0.6-0.9,0.9
		c-0.9,0.6-2,1.2-3,1.5c-0.7,0.3-1.4,0.6-2.3,1.2c-1.2,0.6-2.7,1.2-3.9,1.8c-2.1,0.9-4.1,2.1-6.2,3c-0.7,0-0.9-0.6-1.1-1.2
		c-1.1-3.3-2-6.3-3-9.6c-0.4-0.9-0.2-1.5,0.7-1.8C44,64.9,46,64.1,47.9,63.2C47.6,62.9,47.8,63.2,47.9,63.2z"/>
	<path class="st2" d="M56.5,8.9c1.4,0.6,2.7,0,4.1-0.3c2.9-0.3,2.3-0.6,2.5,2.7c0.4,3.6,0.5,6.9,0.9,10.5c0.2,0.9,0,1.2-0.9,1.5
		c-1.4,0-2.7,0.3-4.1,0.6c-0.5,0-1.1,0.6-1.6,0.6c-2,0-3.7,0.6-5.7,0.6c-1.2-0.6-2-1.8-2.9-3c-0.9-1.2-0.9-1.2-1.6,0
		c-0.5,1.2-1.1,2.1-1.4,3.3c-0.2,0.6-0.4,0.9-0.7,0.9c-2.7,0.3-5.3,0.6-8.2,0.9c-0.5,0-1.1,0-1.6,0.3c-1.2,0-2.3,0.6-3.4,0
		c-0.2,0-0.2-0.3-0.4-0.3c-0.5-1.5-0.4-3-0.5-4.5c-0.4-2.7-0.4-5.4-0.5-8.4c-0.2-0.6-0.2-1.5,0.4-2.1c1.4-0.9,3-0.6,4.6-0.9
		c4.5-0.6,8.7-1.2,13.2-1.5C51.3,9.2,53.8,8.6,56.5,8.9z"/>
	<path class="st2" d="M30.7,135.1c0-0.6,0.2-0.9,0.7-0.9c2,0.3,3.7,0.3,5.7,0.3c0.5-0.6,1.2-0.6,2-0.9c1.2-0.3,1.4-0.6,1.2-2.1
		c-0.4-3.9-0.7-7.8-0.9-11.7c-0.2-1.2-0.4-2.7-0.2-3.9c0.4-0.6,0.7-0.6,1.1-0.3c2,0.9,4.1,1.5,6.2,2.4c0.2,0,0.4,0.3,0.4,0.6
		c0.2,3.6-0.2,7.2-0.4,10.8c-0.2,2.7-0.4,5.1-0.2,7.8c0.2,0.3-0.2,0.6-0.4,0.6c-4.6,1.8-9.1,3.9-13.5,5.7c-0.4,0.3-0.7,0.6-1.1,0.6
		c-0.2,0-0.2,0-0.4-0.3C30.8,140.7,30.7,137.8,30.7,135.1z"/>
	<path class="st2" d="M46.2,136.9c-0.9-0.6-0.5-1.5-0.4-2.1c0.4-2.4,0.2-4.8,0.4-7.5c0.2-2.7,0.5-5.7,0.4-8.4c0-0.3,0.2-0.6,0.2-1.2
		c0.5-1.5,1.6-2.4,2.5-3.3c2.3-2.4,4.6-5.1,6.8-7.5c0.5-0.6,1.2-1.2,1.6-1.8c0.4-0.3,0.5-0.6,0.9-0.3c-0.2,3-0.4,5.7-0.5,8.7
		c0,1.2-0.5,1.2-1.2,1.2c-0.9,0-2-0.3-3-0.3c-0.7,0-0.7,0.6-0.7,1.2c-0.4,3.6-0.5,7.2-0.9,10.8c-0.2,0.9,0.2,1.2,0.7,1.2
		c0.9,0,1.8,0.3,2.7,0.3c0.4,0,0.9,0,1.2,0.3c0.2,1.5-0.2,3-0.4,4.2c-0.4,0.3-0.5,0.6-0.9,0.6c-2.7,1.2-5.5,2.4-8.4,3.3
		C47,137.2,46.5,137.2,46.2,136.9z"/>
	<path class="st3" d="M31,143.4c0.2,0,0.2,0,0.2,0c1.1,0.6,1.6,2.1,2.5,3c0.5,0.6,0.9,0.9,1.6,0.9c4.1,0,8.2,0,12.5,0
		c1.4,0,1.4,0,0.7-1.5c-0.7-1.5-0.5-1.8,0.9-1.8c3.4,0,6.8,0,10.2,0c0.4-0.3-0.4-0.9,0.2-1.2c3,0,6.1,0.6,9.1,0.9
		c2.5,0.3,4.8,0.6,7.3,0.6c1.4,0,3,0.6,4.8,0.3c-0.9,0.9-1.8,0.6-2.7,0.9c-5,0.9-10.2,1.8-15.1,3c-4.1,0.6-8.4,1.8-12.5,2.1
		c-1.8,0.3-3.6-0.3-5.3-0.6c-2-0.3-4.1-0.6-6.2-0.9c-3.2-0.3-6.4-0.9-9.6-1.2c-2-0.3-3.7-0.6-5.7-0.6c-2.9-0.3-5.7-0.6-8.6-1.2
		c1.4-0.3,2.9-0.6,4.1-0.6c3.2-0.6,6.6-0.9,10-1.5C29.6,144,30.5,144.6,31,143.4z"/>
	<path class="st4" d="M56.5,8.9c-1.2,0.6-2.5,0.3-3.7,0.6c-5.2,0.6-10.3,1.2-15.5,1.8c-2.1,0.3-4.1,0.6-6.2,0.9
		c-0.2,0-0.2,0.3-0.4,0.3c-2.3,0.6-4.6,0.9-6.8,1.2c-0.4,0-0.5,0-0.7-0.3c-0.2-0.9,0.4-0.9,0.7-1.2C29.9,8.6,36,5,42.1,1.4
		c0.5-0.3,1.2-0.3,1.8-0.6c0.5-0.3,0.9,0.3,1.2,0.6C48.8,3.8,52.6,6.2,56.5,8.9z"/>
	<path class="st2" d="M23.7,82.6c-1.6-4.2-3.4-8.4-5-12.6c-0.2-0.6-0.2-0.9,0.4-1.2c1.4-0.9,2.7-1.8,3.9-2.4
		c0.4-0.3,0.7-0.3,0.7-0.9c1.1-0.6,2-1.5,3.2-1.8c0.2,0,0.2,0,0.2,0c0.7,0.9,1.1,2.1,1.4,3.3c1.4,3.9,3,7.8,4.5,11.7
		c0.4,0.9,0.9,1.5,0.4,2.7c-0.9,0.6-2,0.6-2.9,0.6c-1.8,0.3-3.7,0.6-5.5,0.9C24.8,82.9,24.1,82.9,23.7,82.6z"/>
	<path class="st2" d="M57,95.2c0.4,1.2,0.5,2.4,0.7,3.6c-0.7,0.6-1.6,0.6-2.3,0.6c-1.4,0-2.9,0-4.3,0c-1.2,0-2.5,0.3-3.9,0.3
		c-3,0-6.1,0.3-9.1,0.3c-1.2,0-2.5,0-3.6,0l0,0c-1.4,0.9-2.9,1.2-4.3,1.8c-0.5,0-1.2,0-1.2-0.9c-0.2-0.6,0.4-0.9,0.7-1.2
		c4.6-3.6,9.3-6.9,13.9-10.8c0.7-0.6,1.2-0.3,1.8,0.3c1.4,1.8,2.5,3.6,3.9,5.1c0.4,0.3,0.5,0.6,0.7,0.9c1.2,0.6,2.5,0,3.7,0.3
		C55.1,95.5,56,95.5,57,95.2z"/>
	<path class="st5" d="M19.8,45.5c1.4-0.9,3-1.8,4.6-2.7c0.5-0.3,0.7-0.3,1.1,0.3c0.7,2.1,1.6,4.2,2.5,6.3c0.4,0.9,0,0.9-0.5,1.2
		c-1.4,0.9-3,1.8-4.5,3c-0.9,0.9-2,1.8-3.2,1.8c-2.3,1.5-4.6,2.7-7,4.2c-0.7,0.3-0.9,0.6-0.9-0.6c0-2.4-0.2-4.5-0.4-6.9
		c-0.2-0.9,0.2-1.5,0.9-1.8c1.4-0.9,3-1.5,4.3-2.7C17.5,46.4,18.5,45.5,19.8,45.5z"/>
	<path class="st2" d="M58.6,105.4c-0.9,0.3-1.4,1.2-2,1.8c-3,3.3-5.9,6.6-8.9,9.9c-0.4,0.3-0.5,0.6-0.9,1.2c-2-0.6-3.9-1.5-5.9-2.1
		c-0.5-0.3-0.9-0.6-1.6-0.3c-0.7-2.1-0.7-4.2-0.7-6.3c0.4-0.9,0.9-0.9,1.6-0.9c2-0.6,3.9-0.9,6.1-1.2c0.7,0,1.2-0.3,1.8-0.9
		c1.4,0.6,2.7,0,4.1-0.3c2.1-0.3,4.3-1.2,6.4-1.2C58.6,104.8,58.6,105.1,58.6,105.4z"/>
	<path class="st2" d="M23.7,82.6c3.4-0.6,6.8-0.9,10-1.8c0.2,0,0.2,0,0.4,0c1.2,3,2.3,6,3.4,9c0.2,0.3,0.2,0.6,0.2,0.9
		c-0.2,0.6-0.5,0.6-0.7,0.9c-2.3,1.5-4.6,3-7,4.2c-0.4,0.3-0.5,0.3-0.9,0.3c-1.6-4.2-3-8.4-4.6-12.3C24.1,83.5,23.9,82.9,23.7,82.6z
		"/>
	<path class="st5" d="M30.1,110.2c-0.5,1.2-0.9,2.4-1.4,3.3c-1.4-1.8-3-3.3-4.5-5.1c-0.9-1.2-2-2.7-3-3.6c-2-4.2-2-4.2-6.4-5.4
		c-1.2-0.3-1.2-0.9-1.1-2.1c0.4-1.5,0.5-3.3,0.9-5.1c0.9,1.8,1.8,3.3,2.7,5.1c0.4,0.6,0.5,0.6,0.9,0.3c0.9-0.9,1.8-1.5,2.9-2.4
		c0.5-0.3,0.5-0.6,0.2-1.2c-0.9-1.5-1.6-3-2.7-4.8c1.8,0.6,3.4,0.9,5,1.2c0.5,0,0.5,0.6,0.4,1.2c-0.4,1.5-0.5,3-0.7,4.2
		c-0.4,1.2-0.2,2.1,0.5,3c0.7,1.2,1.4,2.7,2.3,4.2c0.4,0.3,0.7,0.6,1.1,1.2C28,106,29.2,107.8,30.1,110.2z"/>
	<path class="st6" d="M60.8,70.9c0.2-0.3,0.5-0.6,0.7-0.9c0.2,0,0.4,0,0.4,0.3c1.4,1.2,3,1.8,4.5,2.7c0.5,0.3,1.2,0.3,1.4,1.2
		c-1.6,4.2-3.2,8.4-4.8,12.6c-0.4,0.6-0.5,1.2-1.2,0.9c-2.1-0.6-4.3-0.9-6.4-1.5c-0.2,0-0.2-0.3-0.2-0.3c0-0.6,0.2-1.2,0.4-1.8
		c1.4-3.6,2.9-6.9,4.1-10.2C60.1,73,60.6,71.8,60.8,70.9z"/>
	<path class="st7" d="M36.2,41c0.4,3.6,0.7,6.9,1.1,10.2c0.2,1.2,0.4,2.4,0.4,3.9c0.2,0.9,0.4,1.5,1.2,1.5c-0.2,0.6-0.5,0.6-0.9,0.6
		c-1.2,0-1.2,0-0.7,1.5c0.2,0.6,0.7,1.2,0.4,1.8c-1.4,0-2.9-0.6-4.1-0.9c-0.2,0-0.2-0.3-0.2-0.3c-1.6-4.2-3-8.1-4.6-12.3
		c0.5-1.8,1.4-3.6,2.5-5.4C32.6,41,34.4,40.7,36.2,41L36.2,41z"/>
	<path class="st2" d="M33.9,80.8c-0.2,0-0.2,0-0.2,0c-2.1-5.7-4.3-11.4-6.4-17.1c2-1.5,4.1-3,6.1-4.5c0,0-0.2,0,0,0
		c0.5,0.3,0.5,1.2,0.7,1.8c0.9,6,2,12,3,18c0.2,0.6,0.2,1.2,0,1.5C36,80.8,35.1,81.1,33.9,80.8z"/>
	<path class="st4" d="M43.7,0.8C36.7,5,29.9,8.9,23,13.1c-0.2,0-0.2,0.3-0.4,0.3c-0.2,0-0.2,0-0.2,0c1.1-3.3,2-6.9,3-10.2
		c0.2-0.6,0.5-0.6,0.9-0.6c4.5-0.6,8.9-0.9,13.4-1.2C41.2,0.8,42.4,0.5,43.7,0.8z"/>
	<path class="st2" d="M30.7,12.2c0.2,0,0.2,0,0.2,0c0.2,4.5,0.5,9.3,0.9,14.1c0,0.3,0,0.6,0,1.2c-0.4,0.3-0.7,0-1.2,0
		c-3.2-1.2-6.8-2.1-10.2-3.3c-0.4,0-0.7-0.3-1.1-0.6l0,0c-0.2-0.3,0-0.3,0.2-0.6c3.2-3,6.4-6.3,9.8-9.6
		C29.6,12.8,30.3,12.5,30.7,12.2z"/>
	<path class="st4" d="M19.6,23c-0.2,0-0.2,0.3-0.2,0.3c-5,0.9-10,1.8-15,2.4C3,26,1.6,26.3,0.2,26.3H0c0,0,0,0,0-0.3
		c0.7-0.6,1.8-0.9,2.7-1.5c5.2-3,10.3-6,15.7-9c1.2-0.6,2.3-1.8,3.6-1.8c0.4,0.3,0.4,0.6,0.4,1.2C21.4,17.6,20.9,20.3,19.6,23z"/>
	<path class="st8" d="M19.4,23.3c2.9,0.6,5.3,1.8,8.2,2.4c1.4,0.3,2.7,0.9,4.1,1.2l0,0c0.5,0.9,0.4,1.8,0.5,2.7
		c0.2,1.5,0.2,3,0.4,4.5c0.2,1.8-0.4,2.1-2.3,2.1c-0.9-0.6-0.7-1.5-0.9-2.4c-0.4-1.5-0.5-1.5-1.6-0.9c-0.9,0.6-1.8,0.9-2.7,1.2
		c-0.5,0.3-0.9,0.6-1.4,0.3C22.5,30.8,20.9,27.2,19.4,23.3z"/>
	<path class="st2" d="M28.9,96.1c2.5-1.5,5-3,7.5-4.5c0.4-0.3,0.7-0.6,1.1-0.9c0.2-0.3,0.4-0.6,0.5-0.6c2.7-1.5,5.2-3.3,8-5.1
		c0.2,0,0.5-0.3,0.7-0.3c0.2,0,0.4,0,0.5,0.3c0.9,3,2.1,5.7,2.7,9c-0.2,0.3-0.2,0.6-0.5,0.6c-1.6-1.5-2.7-3.6-4.1-5.4
		c-0.4-0.6-0.7-0.6-1.2-0.3c-5,3.9-9.8,7.5-14.8,11.7c-0.2,0-0.2,0-0.2,0C29,99.1,29,97.6,28.9,96.1z"/>
	<path class="st9" d="M37.6,60.2c-0.4-0.9-0.5-1.8-0.9-2.4c-0.5-0.9-0.2-1.2,0.5-1.2c0.5,0,1.1,0.3,1.6-0.3c3-0.6,6.2-0.9,9.4-1.2
		c0.7,0,1.2,0,2,0c-0.7,2.4-1.4,4.5-2,6.9c-0.2,0.6-0.4,0.9-0.4,1.5c-0.2,0-0.2,0-0.2,0c-0.5,0-1.1,0-1.6,0
		c-2.5-0.6-4.8-1.2-7.1-2.1C38.5,61.1,38,60.8,37.6,60.2z"/>
	<path class="st6" d="M47.2,85c-0.2,0-0.4,0-0.5,0c-0.7-2.1-1.4-4.2-2-6.3c0.2-0.3,0.4-0.3,0.5-0.3c2.1-0.9,4.1-2.1,6.2-3
		c0.5,0,0.7,0.6,0.9,1.2c0.9,3,1.8,5.7,2.7,8.7c0,0.3,0.2,0.3,0.2,0.6c0,0,0,0.3,0,0.6c0,0,0,0-0.2,0.3c-1.8,0-3.4-0.6-5.2-0.6
		C49.2,85.6,48.1,85.9,47.2,85z"/>
	<path class="st10" d="M57.4,23.9c0.5,0,1.1,0,1.6-0.3c-0.4,0.3-0.5,0.6-0.4,1.2c0.4,4.2,0.5,8.7,0.9,12.9c-2,0-3.7,0.6-5.7,0.6
		c-0.5,0-0.9,0-1.4,0c-0.5-1.2-0.5-2.4-0.4-3.6c0.2,0,0.2-0.3,0.4,0c0.2,0,0.2,0.3,0.2,0.3c0-0.6-0.2-1.8,0.7-2.4
		c1.4,0,2-1.2,1.2-2.7c-0.2-0.3-0.4-0.6-0.4-0.6c0-0.9,0.7-1.5,1.1-2.1c0.5-0.9,1.2-1.8,1.8-3C57,23.9,57.2,23.9,57.4,23.9z"/>
	<path class="st0" d="M47.2,85c2.7,0.3,5.3,0.6,8.2,1.5c0.5,1.8,0.9,3.3,1.6,5.1c0.2,0.6,0.4,0.9-0.4,1.2c-1.4,1.5-3.2,1.8-4.8,2.7
		c0.4,0,0.9-0.3,1.6,0c0.4,0,0.9,0,0.9,0.6c-1.1,0-2,0-3,0c-0.4,0-0.9,0-1.1-0.6c0-0.6-0.2-0.9-0.2-1.5c-0.7-2.4-1.4-4.8-2.1-6.9
		C47.4,86.2,47.2,85.6,47.2,85z"/>
	<path class="st4" d="M21.9,13.7c-3.6,2.1-7,3.9-10.5,6c-3.7,2.1-7.5,4.2-11.2,6.6c3.2-4.2,6.8-7.8,10.2-11.7
		c2.7-0.6,5.5-0.9,8.4-0.9c0.9,0,2-0.6,3,0C21.9,13.4,21.9,13.7,21.9,13.7z"/>
	<path class="st4" d="M56.9,128.8c-1.4,0-2.9-0.3-4.3-0.3c-0.7,0-0.7-0.3-0.7-1.2c0.4-3.6,0.7-7.5,0.9-11.1c0-0.6,0.2-1.2,0.4-1.5
		c0.2-0.6,0.4-0.6,0.7,0c0.9,1.2,2,1.8,2.9,3c0.4,0.3,0.9,0.6,1.1,1.5C57.4,122.2,57.2,125.5,56.9,128.8z"/>
	<path class="st4" d="M46.2,136.9c3.2-1.2,6.2-2.4,9.4-3.6c0.4,0,0.5-0.3,0.9-0.3c0.2,1.8,0.2,3.6,0.4,5.1c-0.2,0.6-0.5,0.6-0.9,0.6
		c-2.7,1.2-5.2,2.4-7.8,3.6c-0.4,0.3-0.9,0.6-1.4,0.3c-0.7-1.5-1.2-3.3-1.2-5.1C46,137.2,46.2,137.2,46.2,136.9z"/>
	<path class="st11" d="M46.9,142.2c2.9-1.2,5.9-2.7,8.7-3.9c0.4,0,0.7-0.3,1.2-0.3c0.9,1.5,1.6,3,2.5,4.5c0.2,0.6,0.4,0.9,0.5,1.5
		c-0.5,0.3-0.9,0-1.4,0c-3.2,0-6.6,0-9.8,0C47.8,144.3,47.2,143.7,46.9,142.2C46.9,142.5,46.9,142.5,46.9,142.2z"/>
	<path class="st4" d="M21.9,13.7c-3.2,0.3-6.6,0.6-9.8,0.9c-0.5,0-1.2,0.3-1.8-0.3c2-2.4,3.9-4.5,5.9-6.9c0.5-0.6,0.7-0.6,1.2,0
		c1.2,1.8,2.9,3.6,4.3,5.1c0.2,0.3,0.4,0.6,0.7,0.6h0.2C22.5,14,22.1,13.7,21.9,13.7z"/>
	<path class="st4" d="M58.6,104.5c-0.7,0.9-1.6,0.6-2.3,0.9c-1.4,0.3-2.7,0.6-4.1,0.9c-0.7-2.4-1.2-4.5-0.9-7.2c2.1,0,4.3,0,6.4-0.3
		C58.1,100.6,58.3,102.7,58.6,104.5z"/>
	<path class="st0" d="M19.8,55.1c1.1-0.6,2-1.5,3.2-1.8c1.4,3.6,2.7,6.9,4.1,10.2c-0.9,0.6-2,1.8-3.2,1.8
		C22.5,62.3,21.2,58.7,19.8,55.1z"/>
	<path class="st11" d="M29.2,100.3c0.2,0,0.2,0,0.2,0c0,1.2,0.7,0.9,1.4,0.6c1.4-0.3,2.7-1.2,3.9-1.2c-1.4,3.6-2.9,6.9-4.6,10.2
		c-1.1-1.2-1.6-3-2.5-4.5c-0.5-0.9-1.1-1.8-1.6-3c0.9-0.3,1.8-0.6,2.7-0.9C29.4,101.8,29,100.9,29.2,100.3z"/>
	<path class="st10" d="M23.7,34.7c1.6-0.6,3-1.5,4.6-2.4c0.7-0.3,0.9-0.3,1.1,0.6c0.2,0.9,0.5,1.8,0.7,3c0.9,1.5,0.9,3.3,1.2,4.8
		c0.2,0.9-0.5,0.9-0.7,1.2c-1.2,0-2.5,0.6-3.7,0.3C25.8,39.8,24.8,37.4,23.7,34.7z"/>
	<path class="st10" d="M61.8,70.3c-0.2,0-0.2-0.3-0.4-0.3c1.1-2.4,2.1-5.1,3.2-7.5c0.4-0.6,0.5-0.9,1.1-0.6c1.8,1.2,3.6,2.4,5.2,3.6
		c0.2,0,0.2,0,0.2,0c-0.2,0.3-0.2,0.3-0.2,0.6c-2.7,1.2-5.2,2.4-7.8,3.9C62.7,70.3,62.4,70.6,61.8,70.3z"/>
	<path class="st12" d="M61.8,70.3c2.7-1.2,5.3-2.7,8-3.9c0.4,0,0.7-0.6,1.2-0.3c-1.1,2.7-2.3,5.1-3.2,8.1c-1.8-1.2-3.6-2.1-5.3-3
		C62,70.9,61.5,70.9,61.8,70.3z"/>
	<path class="st5" d="M71.3,65.5c-0.2,0-0.2,0-0.2,0c-0.5-2.7-1.6-5.1-2.3-7.8c-0.4-1.2-0.7-2.7-1.2-3.9c1.4,0.9,2.9,1.8,4.1,2.4
		c0.9,1.2,1.2,3,1.6,4.2C72.5,62.3,72,64.1,71.3,65.5z"/>
	<path class="st5" d="M75.4,54.8c0.9-0.6,2-1.2,3-1.5c0.5,1.8,0,3.6-0.5,5.1c-1.1,0.6-2.1,1.2-3.2,1.8
		C74.5,58.1,74.7,56.3,75.4,54.8z"/>
	<path class="st0" d="M78.1,58.4c-0.2-1.8,0.5-3.6,0.5-5.1c0.9-0.6,1.8-1.2,2.9-1.5c0.4,0,0.5,0.6,0.4,0.9c-0.2,1.5-0.2,3-0.7,4.2
		C80,57.5,79,57.8,78.1,58.4z"/>
	<path class="st5" d="M80.9,56.9c0.2-1.2,0.4-2.4,0.4-3.6c0.2-0.6,0.2-1.2-0.2-1.5c1.1-0.6,2.1-1.2,3.2-1.5c0.5,0.6,0.2,1.2,0.2,1.8
		c-0.2,1.2-0.2,2.1-0.4,3.3C83,55.7,82,56.3,80.9,56.9z"/>
	<path class="st0" d="M84.1,55.1c-0.5-1.2,0.2-2.4,0.2-3.6c0-0.6,0.2-0.9,0.2-1.5c0.9-0.3,1.8-0.9,2.7-1.2c0.4,0,0.5,0.3,0.5,0.6
		c-0.2,1.5,0,3.3-0.7,4.5C85.9,54.5,85,54.8,84.1,55.1z"/>
	<path class="st0" d="M75.4,54.8c-0.2,1.8-0.5,3.6-0.7,5.1c-0.5,0.3-0.9,0.6-1.4,0.6c-0.9-1.2-1.1-3-1.6-4.2
		C72.9,55.7,74.1,55.1,75.4,54.8z"/>
	<path class="st5" d="M86.8,53.9c0.2-1.5,0.4-3,0.5-4.5c0-0.3,0.2-0.6-0.2-0.6c0.9-0.6,1.8-0.9,2.9-1.5c0,1.8-0.4,3.3-0.5,5.1
		C89.3,53,88.9,53,88.6,53C88,53.6,87.3,53.6,86.8,53.9z"/>
	<path class="st13" d="M26.9,42.5c1.2-0.6,2.5-0.3,3.7-0.6c0.2,0,0.4,0,0.5,0c-0.5,1.8-1.4,3.6-2.3,5.1C28,45.5,27.4,44,26.9,42.5z"
		/>
	<path class="st4" d="M57.6,118.9c-1.4-1.2-2.7-2.4-3.9-3.6c-0.4-0.3-0.5-0.6,0-0.6c1.1,0,2.1,0.3,3.2,0.3c0.5,0,0.9,0,1.2-0.9
		C57.9,115.6,57.9,117.1,57.6,118.9z"/>
	<path class="st11" d="M54.2,95.8c-0.9-0.6-2,0-3.2-0.6c2-0.9,3.9-1.8,5.7-2.7c0.2,0.9,0.4,1.8,0.5,2.4c-0.4,0.9-0.9,0.6-1.4,0.6
		C55.1,95.8,54.7,95.8,54.2,95.8z"/>
	<path class="st0" d="M19.8,45.5c-1.1,0.6-2,1.5-3.2,1.8c-0.7-1.2-0.5-1.8,0.5-2.1c0.4,0,0.5-0.3,0.7-0.6
		C18.9,43.7,19.4,44,19.8,45.5z"/>
	<path class="st0" d="M38.9,109.3c0.2,2.1,0.4,4.2,0.5,6.3c0.4,3.3,0.5,6.6,0.9,9.9c0.2,2.4,0.4,4.5,0.5,6.9
		c0.2,1.2-0.4,1.5-1.1,1.8c-0.9,0-1.6,0.3-2.5,0.6c-0.2-3-0.4-6-0.5-9c-0.2-2.4-0.4-5.1-0.5-7.5c-0.4-4.2-0.5-8.1-0.9-12.3
		c-0.2-1.5-0.2-3-0.4-4.2c0-0.6,0.2-0.9-0.2-1.2c1.2-0.6,2.3,0,3.6-0.3c0.4,0.6,0.5,1.2,0.5,1.8c0.2,2.4,0.4,4.8,0.4,7.2
		C39,108.7,39,109,38.9,109.3z"/>
	<path class="st14" d="M52,35c-0.2,1.2,0.4,2.4,0.2,3.6c-0.4,0-0.9,0-1.2,0.3c-1.1,0.9-2.3,0.6-3.4,0.6c-0.4,0-0.9-0.3-1.2-0.3
		c-0.4-0.3-0.5-0.6-0.5-1.2c-0.2-3-0.5-5.7-0.7-8.7c-0.2-1.2-0.4-2.4,0-3.6c0.7-1.8,1.6-3.3,2.3-5.1c0.4-0.9,0.5-0.6,0.9,0
		c0.9,1.2,2,2.7,2.9,3.9c0.5,1.2,0.5,2.4,0.5,3.9c0.2,1.5,0.4,3,0.4,4.8C52.4,33.8,52.4,34.4,52,35z"/>
	<path class="st10" d="M46.5,39.2c0.4,0,0.7,0,1.2,0c-0.2,0.6-0.5,0.3-0.9,0.3c-2.5,0.3-4.8,0.6-7.1,0.9c-1.1,0-2.3,0.3-3.2,0.6l0,0
		c-0.4-0.6-0.5-1.2-0.5-1.8c-0.4-3.6-0.7-6.9-1.1-10.5c-0.2-0.6-0.2-1.2,0.4-1.5c0.2,0,0.4,0,0.4,0c2.1,0.9,3.9,2.4,6.1,3.6
		c0.2,0,0.5,0.3,0.4,0.6C41.9,32,41.5,32,41.2,32c-0.5,0-1.1,0-1.8,0.3c1.4,0.6,2.5,0.3,3.6,0.6c0.7,0.3,1.2,0.6,1.6,1.5
		C44.9,36.2,45.8,37.4,46.5,39.2z"/>
	<path class="st15" d="M40.3,45.2c2.7,0.6,5.2,0.9,7.7,1.2c1.1,0,2.3,0.3,3.2,0.6c0.5,0,1.1,0,0.9,0.9c-0.2,0.6-0.7,0.6-1.1,0.3
		c-3.6-0.6-7-1.2-10.3-1.8c-0.2,0-0.4,0-0.5,0c-0.4-0.3-0.9,0-0.9-0.9C39.4,44.9,40.1,45.5,40.3,45.2z"/>
	<path class="st16" d="M46.7,39.5c0.4,0,0.7,0,0.9-0.3c1.2,0,2.3-0.3,3.4-0.3c0.4,0,0.5,0,0.7,0c0,0,0,0.3-0.2,0.3
		C49.7,41.9,49.7,41.9,46.7,39.5z"/>
	<path class="st2" d="M45.3,78.4c-0.2,0-0.4,0.3-0.4,0.3c-2.5,1.2-5.2,1.5-7.7,1.8c-0.2,0-0.2,0-0.2-0.3c-1.2-6.9-2.5-14.1-3.7-21
		c1.6,0,2.9,0.9,4.5,1.2c3.2,0.9,6.8,1.8,10,3c-2,0.9-3.9,1.8-5.9,3c-0.5,0.3-0.7,0.6-0.5,1.2c1.1,3.6,2.3,6.9,3.2,10.5
		C44.7,77.8,44.9,78.4,45.3,78.4z"/>
	<path class="st2" d="M55.2,85.9c-0.2,0-0.2,0-0.2-0.3c-0.4-0.9-0.2-2.1-0.2-3c0-2.4,0-4.8,0-7.2c0-0.6,0-1.5,0.5-1.8
		c0.7-0.3,1.4-0.6,2.1-1.2c0.7,0.6,1.8,0.9,2.3,1.8C58.3,77.8,56.9,82,55.2,85.9z"/>
	<path class="st17" d="M55.4,73.3c-0.4,1.8-0.2,3.6-0.2,5.4c-0.2,2.4,0,4.5-0.2,6.9c-1.2-3-2-6.3-3-9.3c-0.2-0.3-0.2-0.9-0.5-1.2
		C52.9,74.8,54.2,74.2,55.4,73.3z"/>
	<path class="st18" d="M59.9,73.9c-0.7-0.6-1.8-0.6-2.3-1.8c1.1-0.6,2.1-0.9,3.2-1.5C61.1,72.1,60.2,73,59.9,73.9z"/>
	<path class="st19" d="M48.7,13.7c2.3-0.3,4.1-0.6,6.2-0.9c1.4-0.3,3-0.3,4.6-0.6c0.7,0,0.9,0,1.1,0.9c0.2,1.8,0.4,3.9,0.5,5.7
		c0.2,0.6-0.2,0.9-0.5,0.9c-2.3,0.3-4.5,0.6-6.8,0.6c-0.2,0-0.5,0-0.7-0.3C51.7,18.2,50.3,15.8,48.7,13.7z"/>
	<path class="st19" d="M46.2,14c-1.1,2.4-2.1,4.8-3.2,7.5c-0.2,0.3-0.4,0.6-0.7,0.6c-2.3,0.3-4.3,0.6-6.6,0.9
		c-0.7,0-0.7-0.3-0.9-0.9c0-2.1,0-4.2-0.2-6c0-0.9,0.4-0.9,0.7-0.9c2.9-0.3,5.7-0.6,8.6-1.2C44.6,14,45.3,13.7,46.2,14z"/>
	<path class="st6" d="M35.3,27.2c-0.5,0-0.5,0.6-0.5,1.2c0.5,4.2,0.9,8.4,1.4,12.6c-1.8,0.3-3.6,0.6-5.3,0.9c-0.2,0-0.4,0-0.5,0
		c0.7-0.3,0.5-0.6,0.4-1.2c-0.4-1.5-0.5-3-0.9-4.5c2.3-0.3,2.3-0.3,2.1-3c-0.2-1.8-0.2-3.9-0.4-5.7c1.2,0,2.3-0.6,3.6-0.3
		C35.3,26.9,35.5,26.9,35.3,27.2L35.3,27.2z"/>
	<path class="st20" d="M45.1,25.7c0.4,1.2,0,2.4,0.4,3.3c-0.2,0.6-0.4,0.6-0.7,0.6c-2.7-0.6-5.5-1.2-8.2-1.8c-0.2,0-0.4,0-0.4-0.3
		c-0.4-0.9,0.4-0.6,0.5-0.6C39.6,26.3,42.4,25.7,45.1,25.7z"/>
	<path class="st21" d="M51.5,28.4c-0.2-1.2-0.2-2.4-0.2-3.9c2-0.3,4.1-0.6,6.1-0.6c-0.2,0-0.2,0.3-0.4,0.6c-1.4,1.8-3.2,2.7-4.8,4.2
		C52,28.7,51.9,28.7,51.5,28.4z"/>
	<path class="st22" d="M36.7,26.9c-0.2,0-0.5,0.3-0.7,0.6c-0.2,0.3-0.5,0.3-0.7,0l0,0c0,0,0,0-0.2-0.3
		C35.8,26.9,36.2,26.6,36.7,26.9z"/>
	<path class="st4" d="M45.8,137.2c0.4,1.8,0.7,3.3,1.2,5.1l0,0c-0.4,0.6-0.7,0.6-1.1,0.9c-3.2,1.2-6.2,3-9.4,4.2
		c-0.5,0.3-1.1,0.3-1.6,0.6c-0.4,0-0.5,0-0.7-0.3c-0.9-1.2-2.1-2.4-3-4.2c4.5-1.8,8.9-3.9,13.5-5.7
		C44.9,137.5,45.3,137.5,45.8,137.2z"/>
	<path class="st11" d="M34.9,147.6c3.2-1.8,6.8-3,10-4.5c0.7-0.3,1.4-0.6,2-0.9c0.5,1.5,1.4,1.8,2.5,1.8c3.6,0,7,0,10.5,0
		c-0.2,0.6-0.5,0.3-0.9,0.3c-3.2,0-6.4,0-9.6,0c-0.4,0-0.7,0-1.4,0c0.5,1.2,1.2,2.1,1.8,3.6C44.7,147.6,39.7,147.6,34.9,147.6z"/>
	<path class="st4" d="M21.9,13.7c0.4,0,0.5,0,0.7-0.3c0.2,0,0.4-0.3,0.5-0.3c0.4,0.3,0.7,0.3,0.9,0.3c2.3-0.3,4.5-0.6,6.8-1.2
		c-2.7,2.7-5.3,5.4-8,8.1c-0.9,0.9-2,1.8-3,3c0.5-2.7,1.6-5.1,2.3-7.8C21.9,14.6,22.5,14.3,21.9,13.7L21.9,13.7z"/>
	<path class="st4" d="M38.9,109.3c-0.2-3.3-0.5-6.3-0.7-9.6c3,0,6.2-0.6,9.3-0.3c0.7,2.1,1.1,4.5,0.7,6.9c0,0.6-0.4,1.2-0.9,1.2
		C44.6,107.8,41.7,108.7,38.9,109.3z"/>
	<path class="st11" d="M48.1,106c-0.2-2.4-0.5-4.5-0.7-6.9c1.2,0,2.5-0.3,3.7-0.3c0.4,2.4,0.5,4.8,0.9,7.2c-0.9,0.3-2,0.3-2.9,0.6
		C48.5,107.2,48.3,106.6,48.1,106z"/>
	<path class="st11" d="M49.7,94c0.2,0.6,0.5,0.9,0.2,1.5c-0.2-0.3-0.4-0.6-0.5-0.9C49.7,94.3,49.7,94,49.7,94z"/>
	<path class="st10" d="M36.9,80.2c2.7-0.6,5.2-1.2,8-1.5c0.7,2.1,1.4,3.9,2,6c0,0-0.2,0.3-0.2,0.6c-3,2.1-6.1,4.2-9.3,5.7
		c-1.1-3-2.1-5.7-3-8.4C34.2,82,34,81.7,34,81.1C34.9,80.5,36,80.5,36.9,80.2z"/>
	<path class="st23" d="M51.5,28.4c1.2-0.3,2-1.5,2.9-2.1c0.9-0.6,1.8-1.2,2.7-2.1c-0.7,1.8-2,3.3-3,4.8c-0.9,1.2-0.9,2.4-0.7,3.6
		c-0.7,0.6-0.5,2.1-0.9,3c0-0.3-0.2-0.6-0.4-0.9C52,32.6,51.7,30.5,51.5,28.4z"/>
	<path class="st24" d="M53.5,32.9c-0.7-1.8-0.5-3,0.7-3.6c0.9,0.6,1.1,1.8,0.9,2.7C54.9,33.2,54.5,33.5,53.5,32.9z"/>
	<path class="st25" d="M25.8,35.9c1.8-1.2,2-1.2,2.5,1.2c0.2,0.6,0.5,1.2,0.4,2.1C27.6,38.3,26.9,37.1,25.8,35.9z"/>
	<path class="st6" d="M35.3,27.2c0.2,0,0.5,0,0.7,0c3.2,0.6,6.2,1.2,9.4,1.8c0.4,3.3,0.7,6.6,0.9,10.2c-1.1-1.2-1.6-3-2.5-4.5
		c-0.4-0.6-0.7-1.2-1.4-1.5c0.5-0.6,0.4-0.9-0.4-1.2c-0.5,0-1.2,0.3-1.6-0.6c0.4,0,0.5,0,0.9,0C39.4,29.9,37.4,28.7,35.3,27.2z"/>
	<path class="st26" d="M40.6,31.4c0.5,0.3,1.2,0,2,0.3c0.4,0,0.9,0,0.9,0.6c0,0.9-0.5,0.6-0.9,0.6c-1.2,0-2.3-0.3-3.4-0.6
		c-0.4,0-0.7,0-0.5-0.6c0.2-0.6,0.4-0.6,0.7-0.6S40.1,31.4,40.6,31.4z"/>
</g>
</svg>
