<?xml version="1.0" encoding="utf-8"?>
<!-- Generator: Adobe Illustrator 23.1.0, SVG Export Plug-In . SVG Version: 6.00 Build 0)  -->
<svg version="1.1" id="Capa_1" xmlns="http://www.w3.org/2000/svg" xmlns:xlink="http://www.w3.org/1999/xlink" x="0px" y="0px"
	 viewBox="0 0 50 50" style="enable-background:new 0 0 50 50;" xml:space="preserve">
<style type="text/css">
	.st0{fill:#4F5253;}
	.st1{fill:#CBA896;}
	.st2{fill:#734C5F;}
	.st3{fill:#E4E4E4;}
	.st4{fill:#543042;}
	.st5{fill:#95637C;}
	.st6{fill:#F4C9B2;}
	.st7{fill:#B99787;}
	.st8{fill:#2B2B2B;}
	.st9{fill:#A57862;}
	.st10{fill:#FEE5D5;}
	.st11{fill:#3F3F3F;}
	.st12{fill:#C3937D;}
	.st13{fill:#A67963;}
	.st14{fill:#FEF0E7;}
	.st15{fill:#A67862;}
	.st16{fill:#A77963;}
	.st17{fill:#C3937C;}
	.st18{fill:#FCFBF8;}
	.st19{fill:#474747;}
	.st20{fill:#2C2C2B;}
	.st21{fill:#2D2C2C;}
	.st22{fill:#514945;}
	.st23{fill:#F3C9B2;}
	.st24{fill:#040303;}
	.st25{fill:#C5957F;}
	.st26{fill:#090807;}
</style>
<g>
	<path class="st0" d="M16.7,44.9c-0.1-0.3-0.3-0.4-0.7-0.4c-1.1,0-2.2-0.1-3.3-0.1c-0.3,0-0.5,0-0.5-0.3c-0.3-3.1-0.6-6.2-0.9-9.3
		c0,0,0-0.1,0-0.1c0.3-0.1,0.5,0.2,0.7,0.3c1,0.7,1.9,1.5,2.9,2.3c0.3,0.2,0.5,0.3,0.7-0.1c0.1-0.2,0.4-0.4,0.5-0.7
		c0.8-1,1.5-2,2.3-3.1c0.1-0.1,0.2-0.3,0.4-0.3c0.1,0,0.1,0,0.2,0.1c0.2,0.8,0.3,1.6,0.4,2.3c0.3,2.1,0.5,4.1,0.8,6.2
		c0.1,0.8,0.2,1.6,0.3,2.4c0,0.2,0,0.3-0.1,0.5c-0.3,0.2-0.7,0.2-1,0.1c-0.7-0.1-1.5,0-2.2,0C17.1,44.7,16.9,44.8,16.7,44.9z"/>
	<path class="st1" d="M32.9,12.4c0.2,1.6,0.3,3.2,0.5,4.8c0.1,0.2-0.1,0.3-0.4,0.4c-1.6,0.1-3.2,0.3-4.7,0.4c-0.2,0-0.4,0-0.7,0.1
		c-0.7,0.2-1.4,0.2-2,0.3c-1.5,0.1-2.9,0.3-4.3,0.4c-0.5,0-0.8-0.2-0.9-0.6c-0.2-1.4-0.5-2.7-0.7-4.1c-0.1-0.2-0.1-0.4,0.1-0.5
		c0.5-0.3,1.1-0.2,1.7-0.3c1.3-0.1,2.6-0.3,4-0.3c0.5,0.1,0.9,0.3,1.3,0.4c0.5,0.2,1.4,0,1.6-0.4c0,0-0.3,0-0.2-0.2
		c0.2-0.2,0.4-0.1,0.7-0.2c1-0.1,2-0.2,3-0.2C32.2,12.3,32.6,12.3,32.9,12.4z"/>
	<path class="st0" d="M26.4,20.9c3.5-1,6.9-2,10.4-3c0.2-0.1,0.4-0.2,0.7-0.1c0.7,0.8,1.1,1.7,1.5,2.7c0.2,0.4,0.6,0.8,0.5,1.2
		c-0.3,0.2-0.5,0-0.8-0.1c-0.7-0.3-1.5-0.6-2.1-0.9c-0.3-0.1-0.4-0.1-0.6,0.1c-0.6,0.8-1.1,1.6-1.7,2.4c-0.1,0.1-0.3,0.2-0.5,0.3
		c-0.5,0.2-1.1,0.4-1.7,0.5c-0.4,0.1-0.8,0.2-1.3,0.4c-0.7,0.2-1.5,0.4-2.2,0.6c-1.2,0.3-2.3,0.7-3.5,1c-0.4,0-0.5-0.2-0.6-0.4
		c-0.6-1.1-1.1-2.1-1.7-3.2c-0.2-0.3-0.1-0.5,0.4-0.6c1-0.3,2.1-0.6,3.2-0.9C26.2,20.8,26.3,20.9,26.4,20.9z"/>
	<path class="st2" d="M31.2,2.8c0.8,0.2,1.5,0,2.3-0.1c1.6-0.1,1.3-0.2,1.4,0.9c0.2,1.2,0.3,2.3,0.5,3.5c0.1,0.3,0,0.4-0.5,0.5
		c-0.8,0-1.5,0.1-2.3,0.2c-0.3,0-0.6,0.2-0.9,0.2c-1.1,0-2.1,0.2-3.2,0.2c-0.7-0.2-1.1-0.6-1.6-1s-0.5-0.4-0.9,0
		c-0.3,0.4-0.6,0.7-0.8,1.1c-0.1,0.2-0.2,0.3-0.4,0.3c-1.5,0.1-3,0.2-4.6,0.3c-0.3,0-0.6,0-0.9,0.1c-0.7,0-1.3,0.2-1.9,0
		c-0.1,0-0.1-0.1-0.2-0.1c-0.3-0.5-0.2-1-0.3-1.5c-0.2-0.9-0.2-1.8-0.3-2.8c-0.1-0.2-0.1-0.5,0.2-0.7c0.8-0.3,1.7-0.2,2.6-0.3
		c2.5-0.2,4.9-0.4,7.4-0.5C28.3,2.9,29.7,2.7,31.2,2.8z"/>
	<path class="st2" d="M16.7,44.9c0-0.2,0.1-0.3,0.4-0.3c1.1,0.1,2.1,0.1,3.2,0.1c0.3-0.2,0.7-0.2,1.1-0.3c0.7-0.1,0.8-0.2,0.7-0.7
		c-0.2-1.3-0.4-2.6-0.5-3.9c-0.1-0.4-0.2-0.9-0.1-1.3c0.2-0.2,0.4-0.2,0.6-0.1c1.1,0.3,2.3,0.5,3.5,0.8c0.1,0,0.2,0.1,0.2,0.2
		c0.1,1.2-0.1,2.4-0.2,3.6c-0.1,0.9-0.2,1.7-0.1,2.6c0.1,0.1-0.1,0.2-0.2,0.2c-2.6,0.6-5.1,1.3-7.6,1.9c-0.2,0.1-0.4,0.2-0.6,0.2
		c-0.1,0-0.1,0-0.2-0.1C16.8,46.8,16.7,45.8,16.7,44.9z"/>
	<path class="st2" d="M25.4,45.5c-0.5-0.2-0.3-0.5-0.2-0.7c0.2-0.8,0.1-1.6,0.2-2.5c0.1-0.9,0.3-1.9,0.2-2.8c0-0.1,0.1-0.2,0.1-0.4
		c0.3-0.5,0.9-0.8,1.4-1.1c1.3-0.8,2.6-1.7,3.8-2.5c0.3-0.2,0.7-0.4,0.9-0.6c0.2-0.1,0.3-0.2,0.5-0.1c-0.1,1-0.2,1.9-0.3,2.9
		c0,0.4-0.3,0.4-0.7,0.4c-0.5,0-1.1-0.1-1.7-0.1c-0.4,0-0.4,0.2-0.4,0.4c-0.2,1.2-0.3,2.4-0.5,3.6c-0.1,0.3,0.1,0.4,0.4,0.4
		c0.5,0,1,0.1,1.5,0.1c0.2,0,0.5,0,0.7,0.1c0.1,0.5-0.1,1-0.2,1.4c-0.2,0.1-0.3,0.2-0.5,0.2c-1.5,0.4-3.1,0.8-4.7,1.1
		C25.9,45.6,25.6,45.6,25.4,45.5z"/>
	<path class="st3" d="M16.9,47.7c0.1,0,0.1,0,0.1,0c0.6,0.2,0.9,0.7,1.4,1c0.3,0.2,0.5,0.3,0.9,0.3c2.3,0,4.6,0,7,0
		c0.8,0,0.8,0,0.4-0.5c-0.4-0.5-0.3-0.6,0.5-0.6c1.9,0,3.8,0,5.7,0c0.2-0.1-0.2-0.3,0.1-0.4c1.7,0,3.4,0.2,5.1,0.3
		c1.4,0.1,2.7,0.2,4.1,0.2c0.8,0,1.7,0.2,2.7,0.1c-0.5,0.3-1,0.2-1.5,0.3c-2.8,0.3-5.7,0.6-8.5,1c-2.3,0.2-4.7,0.6-7,0.7
		c-1,0.1-2-0.1-3-0.2c-1.1-0.1-2.3-0.2-3.5-0.3c-1.8-0.1-3.6-0.3-5.4-0.4c-1.1-0.1-2.1-0.2-3.2-0.2c-1.6-0.1-3.2-0.2-4.8-0.4
		c0.8-0.1,1.6-0.2,2.3-0.2c1.8-0.2,3.7-0.3,5.6-0.5C16.1,47.9,16.6,48.1,16.9,47.7z"/>
	<path class="st4" d="M31.2,2.8C30.5,3,29.8,2.9,29.1,3c-2.9,0.2-5.8,0.4-8.7,0.6c-1.2,0.1-2.3,0.2-3.5,0.3c-0.1,0-0.1,0.1-0.2,0.1
		c-1.3,0.2-2.6,0.3-3.8,0.4c-0.2,0-0.3,0-0.4-0.1C12.4,4,12.7,4,12.9,3.9c3.4-1.2,6.8-2.4,10.2-3.6c0.3-0.1,0.7-0.1,1-0.2
		c0.3-0.1,0.5,0.1,0.7,0.2C26.9,1.1,29,1.9,31.2,2.8z"/>
	<path class="st2" d="M12.8,27.4c-0.9-1.4-1.9-2.8-2.8-4.2c-0.1-0.2-0.1-0.3,0.2-0.4c0.8-0.3,1.5-0.6,2.2-0.8
		c0.2-0.1,0.4-0.1,0.4-0.3c0.6-0.2,1.1-0.5,1.8-0.6c0.1,0,0.1,0,0.1,0c0.4,0.3,0.6,0.7,0.8,1.1c0.8,1.3,1.7,2.6,2.5,3.9
		c0.2,0.3,0.5,0.5,0.2,0.9c-0.5,0.2-1.1,0.2-1.6,0.2c-1,0.1-2.1,0.2-3.1,0.3C13.4,27.5,13,27.5,12.8,27.4z"/>
	<path class="st2" d="M31.5,31.6c0.2,0.4,0.3,0.8,0.4,1.2C31.5,33,31,33,30.6,33c-0.8,0-1.6,0-2.4,0c-0.7,0-1.4,0.1-2.2,0.1
		c-1.7,0-3.4,0.1-5.1,0.1c-0.7,0-1.4,0-2,0l0,0c-0.8,0.3-1.6,0.4-2.4,0.6c-0.3,0-0.7,0-0.7-0.3c-0.1-0.2,0.2-0.3,0.4-0.4
		c2.6-1.2,5.2-2.3,7.8-3.6c0.4-0.2,0.7-0.1,1,0.1c0.8,0.6,1.4,1.2,2.2,1.7c0.2,0.1,0.3,0.2,0.4,0.3c0.7,0.2,1.4,0,2.1,0.1
		C30.4,31.7,30.9,31.7,31.5,31.6z"/>
	<path class="st5" d="M10.6,15c0.8-0.3,1.7-0.6,2.6-0.9c0.3-0.1,0.4-0.1,0.6,0.1c0.4,0.7,0.9,1.4,1.4,2.1c0.2,0.3,0,0.3-0.3,0.4
		c-0.8,0.3-1.7,0.6-2.5,1c-0.5,0.3-1.1,0.6-1.8,0.6c-1.3,0.5-2.6,0.9-3.9,1.4c-0.4,0.1-0.5,0.2-0.5-0.2c0-0.8-0.1-1.5-0.2-2.3
		c-0.1-0.3,0.1-0.5,0.5-0.6c0.8-0.3,1.7-0.5,2.4-0.9C9.3,15.3,9.9,15,10.6,15z"/>
	<path class="st2" d="M32.4,35c-0.5,0.1-0.8,0.4-1.1,0.6c-1.7,1.1-3.3,2.2-5,3.3c-0.2,0.1-0.3,0.2-0.5,0.4c-1.1-0.2-2.2-0.5-3.3-0.7
		c-0.3-0.1-0.5-0.2-0.9-0.1c-0.4-0.7-0.4-1.4-0.4-2.1c0.2-0.3,0.5-0.3,0.9-0.3c1.1-0.2,2.2-0.3,3.4-0.4c0.4,0,0.7-0.1,1-0.3
		c0.8,0.2,1.5,0,2.3-0.1c1.2-0.1,2.4-0.4,3.6-0.4C32.4,34.8,32.4,34.9,32.4,35z"/>
	<path class="st2" d="M12.8,27.4c1.9-0.2,3.8-0.3,5.6-0.6c0.1,0,0.1,0,0.2,0c0.7,1,1.3,2,1.9,3c0.1,0.1,0.1,0.2,0.1,0.3
		c-0.1,0.2-0.3,0.2-0.4,0.3c-1.3,0.5-2.6,1-3.9,1.4c-0.2,0.1-0.3,0.1-0.5,0.1c-0.9-1.4-1.7-2.8-2.6-4.1C13,27.7,12.9,27.5,12.8,27.4
		z"/>
	<path class="st5" d="M16.4,36.6c-0.3,0.4-0.5,0.8-0.8,1.1c-0.8-0.6-1.7-1.1-2.5-1.7c-0.5-0.4-1.1-0.9-1.7-1.2
		c-1.1-1.4-1.1-1.4-3.6-1.8c-0.7-0.1-0.7-0.3-0.6-0.7c0.2-0.5,0.3-1.1,0.5-1.7c0.5,0.6,1,1.1,1.5,1.7c0.2,0.2,0.3,0.2,0.5,0.1
		c0.5-0.3,1-0.5,1.6-0.8c0.3-0.1,0.3-0.2,0.1-0.4c-0.5-0.5-0.9-1-1.5-1.6c1,0.2,1.9,0.3,2.8,0.4c0.3,0,0.3,0.2,0.2,0.4
		c-0.2,0.5-0.3,1-0.4,1.4c-0.2,0.4-0.1,0.7,0.3,1c0.4,0.4,0.8,0.9,1.3,1.4c0.2,0.1,0.4,0.2,0.6,0.4C15.2,35.2,15.9,35.8,16.4,36.6z"
		/>
	<path class="st6" d="M33.6,23.5c0.1-0.1,0.3-0.2,0.4-0.3c0.1,0,0.2,0,0.2,0.1c0.8,0.4,1.7,0.6,2.5,0.9c0.3,0.1,0.7,0.1,0.8,0.4
		c-0.9,1.4-1.8,2.8-2.7,4.2c-0.2,0.2-0.3,0.4-0.7,0.3c-1.2-0.2-2.4-0.3-3.6-0.5c-0.1,0-0.1-0.1-0.1-0.1c0-0.2,0.1-0.4,0.2-0.6
		c0.8-1.2,1.6-2.3,2.3-3.4C33.2,24.2,33.5,23.8,33.6,23.5z"/>
	<path class="st7" d="M19.8,13.5c0.2,1.2,0.4,2.3,0.6,3.4c0.1,0.4,0.2,0.8,0.2,1.3c0.1,0.3,0.2,0.5,0.7,0.5
		c-0.1,0.2-0.3,0.2-0.5,0.2c-0.7,0-0.7,0-0.4,0.5c0.1,0.2,0.4,0.4,0.2,0.6c-0.8,0-1.6-0.2-2.3-0.3c-0.1,0-0.1-0.1-0.1-0.1
		c-0.9-1.4-1.7-2.7-2.6-4.1c0.3-0.6,0.8-1.2,1.4-1.8C17.8,13.5,18.8,13.4,19.8,13.5L19.8,13.5z"/>
	<path class="st2" d="M18.5,26.8c-0.1,0-0.1,0-0.1,0c-1.2-1.9-2.4-3.8-3.6-5.7c1.1-0.5,2.3-1,3.4-1.5c0,0-0.1,0,0,0
		c0.3,0.1,0.3,0.4,0.4,0.6c0.5,2,1.1,4,1.7,6c0.1,0.2,0.1,0.4,0,0.5C19.7,26.8,19.2,26.9,18.5,26.8z"/>
	<path class="st4" d="M24,0.1c-3.9,1.4-7.7,2.7-11.6,4.1c-0.1,0-0.1,0.1-0.2,0.1c-0.1,0-0.1,0-0.1,0c0.6-1.1,1.1-2.3,1.7-3.4
		c0.1-0.2,0.3-0.2,0.5-0.2c2.5-0.2,5-0.3,7.5-0.4C22.6,0.1,23.3,0,24,0.1z"/>
	<path class="st2" d="M16.7,3.9c0.1,0,0.1,0,0.1,0c0.1,1.5,0.3,3.1,0.5,4.7c0,0.1,0,0.2,0,0.4c-0.2,0.1-0.4,0-0.7,0
		c-1.8-0.4-3.8-0.7-5.7-1.1c-0.2,0-0.4-0.1-0.6-0.2c0,0,0,0,0,0c-0.1-0.1,0-0.1,0.1-0.2c1.8-1,3.6-2.1,5.5-3.2
		C16.1,4.1,16.5,4,16.7,3.9z"/>
	<path class="st4" d="M10.5,7.5c-0.1,0-0.1,0.1-0.1,0.1C7.6,7.9,4.8,8.2,2,8.4C1.2,8.5,0.4,8.6-0.4,8.6h-0.1c0,0,0,0,0-0.1
		C-0.1,8.3,0.5,8.2,1,8c2.9-1,5.8-2,8.8-3c0.7-0.2,1.3-0.6,2-0.6c0.2,0.1,0.2,0.2,0.2,0.4C11.5,5.7,11.2,6.6,10.5,7.5z"/>
	<path class="st8" d="M10.4,7.6c1.6,0.2,3,0.6,4.6,0.8c0.8,0.1,1.5,0.3,2.3,0.4l0,0c0.3,0.3,0.2,0.6,0.3,0.9c0.1,0.5,0.1,1,0.2,1.5
		c0.1,0.6-0.2,0.7-1.3,0.7c-0.5-0.2-0.4-0.5-0.5-0.8c-0.2-0.5-0.3-0.5-0.9-0.3c-0.5,0.2-1,0.3-1.5,0.4c-0.3,0.1-0.5,0.2-0.8,0.1
		C12.1,10.1,11.2,8.9,10.4,7.6z"/>
	<path class="st2" d="M15.7,31.9c1.4-0.5,2.8-1,4.2-1.5c0.2-0.1,0.4-0.2,0.6-0.3c0.1-0.1,0.2-0.2,0.3-0.2c1.5-0.5,2.9-1.1,4.5-1.7
		c0.1,0,0.3-0.1,0.4-0.1c0.1,0,0.2,0,0.3,0.1c0.5,1,1.2,1.9,1.5,3c-0.1,0.1-0.1,0.2-0.3,0.2c-0.9-0.5-1.5-1.2-2.3-1.8
		c-0.2-0.2-0.4-0.2-0.7-0.1c-2.8,1.3-5.5,2.5-8.3,3.9c-0.1,0-0.1,0-0.1,0C15.8,32.9,15.8,32.4,15.7,31.9z"/>
	<path class="st9" d="M20.6,19.9c-0.2-0.3-0.3-0.6-0.5-0.8c-0.3-0.3-0.1-0.4,0.3-0.4c0.3,0,0.6,0.1,0.9-0.1c1.7-0.2,3.5-0.3,5.3-0.4
		c0.4,0,0.7,0,1.1,0c-0.4,0.8-0.8,1.5-1.1,2.3c-0.1,0.2-0.2,0.3-0.2,0.5c-0.1,0-0.1,0-0.1,0c-0.3,0-0.6,0-0.9,0
		c-1.4-0.2-2.7-0.4-4-0.7C21.1,20.2,20.8,20.1,20.6,19.9z"/>
	<path class="st6" d="M26,28.2c-0.1,0-0.2,0-0.3,0c-0.4-0.7-0.8-1.4-1.1-2.1c0.1-0.1,0.2-0.1,0.3-0.1c1.2-0.3,2.3-0.7,3.5-1
		c0.3,0,0.4,0.2,0.5,0.4c0.5,1,1,1.9,1.5,2.9c0,0.1,0.1,0.1,0.1,0.2c0,0,0,0.1,0,0.2c0,0,0,0-0.1,0.1c-1,0-1.9-0.2-2.9-0.2
		C27.1,28.4,26.5,28.5,26,28.2z"/>
	<path class="st10" d="M31.7,7.8c0.3,0,0.6,0,0.9-0.1c-0.2,0.1-0.3,0.2-0.2,0.4c0.2,1.4,0.3,2.9,0.5,4.3c-1.1,0-2.1,0.2-3.2,0.2
		c-0.3,0-0.5,0-0.8,0c-0.3-0.4-0.3-0.8-0.2-1.2c0.1,0,0.1-0.1,0.2,0c0.1,0,0.1,0.1,0.1,0.1c0-0.2-0.1-0.6,0.4-0.8
		c0.8,0,1.1-0.4,0.7-0.9c-0.1-0.1-0.2-0.2-0.2-0.2c0-0.3,0.4-0.5,0.6-0.7c0.3-0.3,0.7-0.6,1-1C31.5,7.8,31.6,7.8,31.7,7.8z"/>
	<path class="st0" d="M26,28.2c1.5,0.1,3,0.2,4.6,0.5c0.3,0.6,0.5,1.1,0.9,1.7c0.1,0.2,0.2,0.3-0.2,0.4c-0.8,0.5-1.8,0.6-2.7,0.9
		c0.2,0,0.5-0.1,0.9,0c0.2,0,0.5,0,0.5,0.2c-0.6,0-1.1,0-1.7,0c-0.2,0-0.5,0-0.6-0.2c0-0.2-0.1-0.3-0.1-0.5
		c-0.4-0.8-0.8-1.6-1.2-2.3C26.1,28.6,26,28.4,26,28.2z"/>
	<path class="st4" d="M11.8,4.4c-2,0.7-3.9,1.3-5.9,2C3.8,7.1,1.7,7.8-0.4,8.6c1.8-1.4,3.8-2.6,5.7-3.9C6.8,4.5,8.4,4.4,10,4.4
		c0.5,0,1.1-0.2,1.7,0C11.8,4.3,11.8,4.4,11.8,4.4z"/>
	<path class="st4" d="M31.4,42.8c-0.8,0-1.6-0.1-2.4-0.1c-0.4,0-0.4-0.1-0.4-0.4c0.2-1.2,0.4-2.5,0.5-3.7c0-0.2,0.1-0.4,0.2-0.5
		c0.1-0.2,0.2-0.2,0.4,0c0.5,0.4,1.1,0.6,1.6,1c0.2,0.1,0.5,0.2,0.6,0.5C31.7,40.6,31.6,41.7,31.4,42.8z"/>
	<path class="st4" d="M25.4,45.5c1.8-0.4,3.5-0.8,5.3-1.2c0.2,0,0.3-0.1,0.5-0.1c0.1,0.6,0.1,1.2,0.2,1.7c-0.1,0.2-0.3,0.2-0.5,0.2
		c-1.5,0.4-2.9,0.8-4.4,1.2c-0.2,0.1-0.5,0.2-0.8,0.1c-0.4-0.5-0.7-1.1-0.7-1.7C25.3,45.6,25.4,45.6,25.4,45.5z"/>
	<path class="st11" d="M25.8,47.3c1.6-0.4,3.3-0.9,4.9-1.3c0.2,0,0.4-0.1,0.7-0.1c0.5,0.5,0.9,1,1.4,1.5c0.1,0.2,0.2,0.3,0.3,0.5
		c-0.3,0.1-0.5,0-0.8,0c-1.8,0-3.7,0-5.5,0C26.3,48,26,47.8,25.8,47.3C25.8,47.4,25.8,47.4,25.8,47.3z"/>
	<path class="st4" d="M11.8,4.4C10,4.5,8.1,4.6,6.3,4.7C6,4.7,5.6,4.8,5.3,4.6c1.1-0.8,2.2-1.5,3.3-2.3c0.3-0.2,0.4-0.2,0.7,0
		C10,2.9,10.9,3.5,11.7,4c0.1,0.1,0.2,0.2,0.4,0.2l0.1,0C12.1,4.5,11.9,4.4,11.8,4.4z"/>
	<path class="st4" d="M32.4,34.7C32,35,31.5,34.9,31.1,35c-0.8,0.1-1.5,0.2-2.3,0.3c-0.4-0.8-0.7-1.5-0.5-2.4c1.2,0,2.4,0,3.6-0.1
		C32.1,33.4,32.2,34.1,32.4,34.7z"/>
	<path class="st0" d="M10.6,18.2c0.6-0.2,1.1-0.5,1.8-0.6c0.8,1.2,1.5,2.3,2.3,3.4c-0.5,0.2-1.1,0.6-1.8,0.6
		C12.1,20.6,11.4,19.4,10.6,18.2z"/>
	<path class="st11" d="M15.9,33.3c0.1,0,0.1,0,0.1,0c0,0.4,0.4,0.3,0.8,0.2c0.8-0.1,1.5-0.4,2.2-0.4c-0.8,1.2-1.6,2.3-2.6,3.4
		c-0.6-0.4-0.9-1-1.4-1.5c-0.3-0.3-0.6-0.6-0.9-1c0.5-0.1,1-0.2,1.5-0.3C16,33.8,15.8,33.5,15.9,33.3z"/>
	<path class="st10" d="M12.8,11.4c0.9-0.2,1.7-0.5,2.6-0.8c0.4-0.1,0.5-0.1,0.6,0.2c0.1,0.3,0.3,0.6,0.4,1c0.5,0.5,0.5,1.1,0.7,1.6
		c0.1,0.3-0.3,0.3-0.4,0.4c-0.7,0-1.4,0.2-2.1,0.1C14,13.1,13.4,12.3,12.8,11.4z"/>
	<path class="st10" d="M34.2,23.3c-0.1,0-0.1-0.1-0.2-0.1c0.6-0.8,1.2-1.7,1.8-2.5c0.2-0.2,0.3-0.3,0.6-0.2c1,0.4,2,0.8,2.9,1.2
		c0.1,0,0.1,0,0.1,0c-0.1,0.1-0.1,0.1-0.1,0.2c-1.5,0.4-2.9,0.8-4.4,1.3C34.7,23.3,34.5,23.4,34.2,23.3z"/>
	<path class="st12" d="M34.2,23.3c1.5-0.4,3-0.9,4.5-1.3c0.2,0,0.4-0.2,0.7-0.1c-0.6,0.9-1.3,1.7-1.8,2.7c-1-0.4-2-0.7-3-1
		C34.3,23.5,34,23.5,34.2,23.3z"/>
	<path class="st5" d="M39.5,21.7c-0.1,0-0.1,0-0.1,0c-0.3-0.9-0.9-1.7-1.3-2.6c-0.2-0.4-0.4-0.9-0.7-1.3c0.8,0.3,1.6,0.6,2.3,0.8
		c0.5,0.4,0.7,1,0.9,1.4C40.2,20.6,39.9,21.2,39.5,21.7z"/>
	<path class="st5" d="M41.8,18.1c0.5-0.2,1.1-0.4,1.7-0.5c0.3,0.6,0,1.2-0.3,1.7c-0.6,0.2-1.2,0.4-1.8,0.6
		C41.3,19.2,41.4,18.6,41.8,18.1z"/>
	<path class="st0" d="M43.3,19.3c-0.1-0.6,0.3-1.2,0.3-1.7c0.5-0.2,1-0.4,1.6-0.5c0.2,0,0.3,0.2,0.2,0.3c-0.1,0.5-0.1,1-0.4,1.4
		C44.4,19,43.8,19.1,43.3,19.3z"/>
	<path class="st5" d="M44.9,18.8c0.1-0.4,0.2-0.8,0.2-1.2c0.1-0.2,0.1-0.4-0.1-0.5c0.6-0.2,1.2-0.4,1.8-0.5c0.3,0.2,0.1,0.4,0.1,0.6
		c-0.1,0.4-0.1,0.7-0.2,1.1C46.1,18.4,45.5,18.6,44.9,18.8z"/>
	<path class="st0" d="M46.7,18.2c-0.3-0.4,0.1-0.8,0.1-1.2c0-0.2,0.1-0.3,0.1-0.5c0.5-0.1,1-0.3,1.5-0.4c0.2,0,0.3,0.1,0.3,0.2
		c-0.1,0.5,0,1.1-0.4,1.5C47.7,18,47.2,18.1,46.7,18.2z"/>
	<path class="st0" d="M41.8,18.1c-0.1,0.6-0.3,1.2-0.4,1.7c-0.3,0.1-0.5,0.2-0.8,0.2c-0.5-0.4-0.6-1-0.9-1.4
		C40.4,18.4,41.1,18.2,41.8,18.1z"/>
	<path class="st5" d="M48.2,17.8c0.1-0.5,0.2-1,0.3-1.5c0-0.1,0.1-0.2-0.1-0.2c0.5-0.2,1-0.3,1.6-0.5c0,0.6-0.2,1.1-0.3,1.7
		c-0.1,0.2-0.3,0.2-0.5,0.2C48.9,17.7,48.5,17.7,48.2,17.8z"/>
	<path class="st13" d="M14.6,14c0.7-0.2,1.4-0.1,2.1-0.2c0.1,0,0.2,0,0.3,0c-0.3,0.6-0.8,1.2-1.3,1.7C15.2,15,14.9,14.5,14.6,14z"/>
	<path class="st4" d="M31.8,39.5c-0.8-0.4-1.5-0.8-2.2-1.2c-0.2-0.1-0.3-0.2,0-0.2c0.6,0,1.2,0.1,1.8,0.1c0.3,0,0.5,0,0.7-0.3
		C32,38.4,32,38.9,31.8,39.5z"/>
	<path class="st11" d="M29.9,31.8c-0.5-0.2-1.1,0-1.8-0.2c1.1-0.3,2.2-0.6,3.2-0.9c0.1,0.3,0.2,0.6,0.3,0.8
		c-0.2,0.3-0.5,0.2-0.8,0.2C30.4,31.8,30.2,31.8,29.9,31.8z"/>
	<path class="st0" d="M10.6,15c-0.6,0.2-1.1,0.5-1.8,0.6c-0.4-0.4-0.3-0.6,0.3-0.7c0.2,0,0.3-0.1,0.4-0.2
		C10.1,14.4,10.4,14.5,10.6,15z"/>
	<path class="st0" d="M21.3,36.3c0.1,0.7,0.2,1.4,0.3,2.1c0.2,1.1,0.3,2.2,0.5,3.3c0.1,0.8,0.2,1.5,0.3,2.3c0.1,0.4-0.2,0.5-0.6,0.6
		c-0.5,0-0.9,0.1-1.4,0.2c-0.1-1-0.2-2-0.3-3c-0.1-0.8-0.2-1.7-0.3-2.5c-0.2-1.4-0.3-2.7-0.5-4.1c-0.1-0.5-0.1-1-0.2-1.4
		c0-0.2,0.1-0.3-0.1-0.4c0.7-0.2,1.3,0,2-0.1c0.2,0.2,0.3,0.4,0.3,0.6c0.1,0.8,0.2,1.6,0.2,2.4C21.4,36.1,21.4,36.2,21.3,36.3z"/>
	<path class="st14" d="M28.7,11.5c-0.1,0.4,0.2,0.8,0.1,1.2c-0.2,0-0.5,0-0.7,0.1c-0.6,0.3-1.3,0.2-1.9,0.2c-0.2,0-0.5-0.1-0.7-0.1
		c-0.2-0.1-0.3-0.2-0.3-0.4c-0.1-1-0.3-1.9-0.4-2.9c-0.1-0.4-0.2-0.8,0-1.2c0.4-0.6,0.9-1.1,1.3-1.7c0.2-0.3,0.3-0.2,0.5,0
		c0.5,0.4,1.1,0.9,1.6,1.3c0.3,0.4,0.3,0.8,0.3,1.3c0.1,0.5,0.2,1,0.2,1.6C28.9,11.1,28.9,11.3,28.7,11.5z"/>
	<path class="st10" d="M25.6,12.9c0.2,0,0.4,0,0.7,0c-0.1,0.2-0.3,0.1-0.5,0.1c-1.4,0.1-2.7,0.2-4,0.3c-0.6,0-1.3,0.1-1.8,0.2l0,0
		c-0.2-0.2-0.3-0.4-0.3-0.6c-0.2-1.2-0.4-2.3-0.6-3.5c-0.1-0.2-0.1-0.4,0.2-0.5c0.1,0,0.2,0,0.2,0c1.2,0.3,2.2,0.8,3.4,1.2
		c0.1,0,0.3,0.1,0.2,0.2c-0.1,0.2-0.3,0.2-0.5,0.2c-0.3,0-0.6,0-1,0.1c0.8,0.2,1.4,0.1,2,0.2c0.4,0.1,0.7,0.2,0.9,0.5
		C24.7,11.9,25.2,12.3,25.6,12.9z"/>
	<path class="st15" d="M22.1,14.9c1.5,0.2,2.9,0.3,4.3,0.4c0.6,0,1.3,0.1,1.8,0.2c0.3,0,0.6,0,0.5,0.3c-0.1,0.2-0.4,0.2-0.6,0.1
		c-2-0.2-3.9-0.4-5.8-0.6c-0.1,0-0.2,0-0.3,0c-0.2-0.1-0.5,0-0.5-0.3C21.6,14.8,22,15,22.1,14.9z"/>
	<path class="st16" d="M25.7,13c0.2,0,0.4,0,0.5-0.1c0.7,0,1.3-0.1,1.9-0.1c0.2,0,0.3,0,0.4,0c0,0,0,0.1-0.1,0.1
		C27.4,13.8,27.4,13.8,25.7,13z"/>
	<path class="st2" d="M24.9,26c-0.1,0-0.2,0.1-0.2,0.1c-1.4,0.4-2.9,0.5-4.3,0.6c-0.1,0-0.1,0-0.1-0.1c-0.7-2.3-1.4-4.7-2.1-7
		c0.9,0,1.6,0.3,2.5,0.4c1.8,0.3,3.8,0.6,5.6,1c-1.1,0.3-2.2,0.6-3.3,1c-0.3,0.1-0.4,0.2-0.3,0.4c0.6,1.2,1.3,2.3,1.8,3.5
		C24.6,25.8,24.7,26,24.9,26z"/>
	<path class="st2" d="M30.5,28.5c-0.1,0-0.1,0-0.1-0.1c-0.2-0.3-0.1-0.7-0.1-1c0-0.8,0-1.6,0-2.4c0-0.2,0-0.5,0.3-0.6
		c0.4-0.1,0.8-0.2,1.2-0.4c0.4,0.2,1,0.3,1.3,0.6C32.2,25.8,31.4,27.2,30.5,28.5z"/>
	<path class="st17" d="M30.6,24.3c-0.2,0.6-0.1,1.2-0.1,1.8c-0.1,0.8,0,1.5-0.1,2.3c-0.7-1-1.1-2.1-1.7-3.1
		c-0.1-0.1-0.1-0.3-0.3-0.4C29.2,24.8,29.9,24.6,30.6,24.3z"/>
	<path class="st18" d="M33.1,24.5c-0.4-0.2-1-0.2-1.3-0.6c0.6-0.2,1.2-0.3,1.8-0.5C33.8,23.9,33.3,24.2,33.1,24.5z"/>
	<path class="st19" d="M26.8,4.4c1.3-0.1,2.3-0.2,3.5-0.3C31.1,4,32,4,32.9,3.9c0.4,0,0.5,0,0.6,0.3c0.1,0.6,0.2,1.3,0.3,1.9
		c0.1,0.2-0.1,0.3-0.3,0.3c-1.3,0.1-2.5,0.2-3.8,0.2c-0.1,0-0.3,0-0.4-0.1C28.5,5.9,27.7,5.1,26.8,4.4z"/>
	<path class="st19" d="M25.4,4.5c-0.6,0.8-1.2,1.6-1.8,2.5c-0.1,0.1-0.2,0.2-0.4,0.2c-1.3,0.1-2.4,0.2-3.7,0.3
		c-0.4,0-0.4-0.1-0.5-0.3C19,6.5,19,5.8,18.9,5.2c0-0.3,0.2-0.3,0.4-0.3c1.6-0.1,3.2-0.2,4.8-0.4C24.5,4.5,24.9,4.4,25.4,4.5z"/>
	<path class="st6" d="M19.3,8.9c-0.3,0-0.3,0.2-0.3,0.4c0.3,1.4,0.5,2.8,0.8,4.2c-1,0.1-2,0.2-3,0.3c-0.1,0-0.2,0-0.3,0
		c0.4-0.1,0.3-0.2,0.2-0.4c-0.2-0.5-0.3-1-0.5-1.5c1.3-0.1,1.3-0.1,1.2-1c-0.1-0.6-0.1-1.3-0.2-1.9c0.7,0,1.3-0.2,2-0.1
		C19.3,8.8,19.4,8.8,19.3,8.9C19.3,8.9,19.3,8.9,19.3,8.9z"/>
	<path class="st20" d="M24.8,8.4C25,8.8,24.8,9.2,25,9.5c-0.1,0.2-0.2,0.2-0.4,0.2c-1.5-0.2-3.1-0.4-4.6-0.6c-0.1,0-0.2,0-0.2-0.1
		c-0.2-0.3,0.2-0.2,0.3-0.2C21.7,8.6,23.3,8.4,24.8,8.4z"/>
	<path class="st21" d="M28.4,9.3c-0.1-0.4-0.1-0.8-0.1-1.3c1.1-0.1,2.3-0.2,3.4-0.2c-0.1,0-0.1,0.1-0.2,0.2
		c-0.8,0.6-1.8,0.9-2.7,1.4C28.7,9.4,28.6,9.4,28.4,9.3z"/>
	<path class="st22" d="M20.1,8.8c-0.1,0-0.3,0.1-0.4,0.2c-0.1,0.1-0.3,0.1-0.4,0l0,0c0,0,0,0-0.1-0.1C19.6,8.8,19.8,8.7,20.1,8.8z"
		/>
	<path class="st4" d="M25.2,45.6c0.2,0.6,0.4,1.1,0.7,1.7v0c-0.2,0.2-0.4,0.2-0.6,0.3c-1.8,0.4-3.5,1-5.3,1.4
		c-0.3,0.1-0.6,0.1-0.9,0.2c-0.2,0-0.3,0-0.4-0.1c-0.5-0.4-1.2-0.8-1.7-1.4c2.5-0.6,5-1.3,7.6-1.9C24.7,45.7,24.9,45.7,25.2,45.6z"
		/>
	<path class="st11" d="M19.1,49.1c1.8-0.6,3.8-1,5.6-1.5c0.4-0.1,0.8-0.2,1.1-0.3c0.3,0.5,0.8,0.6,1.4,0.6c2,0,3.9,0,5.9,0
		C33,48.1,32.8,48,32.6,48c-1.8,0-3.6,0-5.4,0c-0.2,0-0.4,0-0.8,0c0.3,0.4,0.7,0.7,1,1.2C24.6,49.1,21.8,49.1,19.1,49.1z"/>
	<path class="st4" d="M11.8,4.4c0.2,0,0.3,0,0.4-0.1c0.1,0,0.2-0.1,0.3-0.1c0.2,0.1,0.4,0.1,0.5,0.1c1.3-0.1,2.5-0.2,3.8-0.4
		c-1.5,0.9-3,1.8-4.5,2.7c-0.5,0.3-1.1,0.6-1.7,1c0.3-0.9,0.9-1.7,1.3-2.6C11.8,4.7,12.1,4.6,11.8,4.4C11.8,4.4,11.8,4.4,11.8,4.4z"
		/>
	<path class="st4" d="M21.3,36.3c-0.1-1.1-0.3-2.1-0.4-3.2c1.7,0,3.5-0.2,5.2-0.1c0.4,0.7,0.6,1.5,0.4,2.3c0,0.2-0.2,0.4-0.5,0.4
		C24.5,35.8,22.9,36.1,21.3,36.3z"/>
	<path class="st11" d="M26.5,35.2c-0.1-0.8-0.3-1.5-0.4-2.3c0.7,0,1.4-0.1,2.1-0.1c0.2,0.8,0.3,1.6,0.5,2.4
		c-0.5,0.1-1.1,0.1-1.6,0.2C26.7,35.6,26.6,35.4,26.5,35.2z"/>
	<path class="st11" d="M27.4,31.2c0.1,0.2,0.3,0.3,0.1,0.5c-0.1-0.1-0.2-0.2-0.3-0.3C27.4,31.3,27.4,31.2,27.4,31.2z"/>
	<path class="st10" d="M20.2,26.6c1.5-0.2,2.9-0.4,4.5-0.5c0.4,0.7,0.8,1.3,1.1,2c0,0-0.1,0.1-0.1,0.2c-1.7,0.7-3.4,1.4-5.2,1.9
		c-0.6-1-1.2-1.9-1.7-2.8c-0.1-0.2-0.2-0.3-0.2-0.5C19.1,26.7,19.7,26.7,20.2,26.6z"/>
	<path class="st23" d="M28.4,9.3c0.7-0.1,1.1-0.5,1.6-0.7c0.5-0.2,1-0.4,1.5-0.7c-0.4,0.6-1.1,1.1-1.7,1.6c-0.5,0.4-0.5,0.8-0.4,1.2
		c-0.4,0.2-0.3,0.7-0.5,1c0-0.1-0.1-0.2-0.2-0.3C28.7,10.7,28.5,10,28.4,9.3z"/>
	<path class="st24" d="M29.5,10.8c-0.4-0.6-0.3-1,0.4-1.2c0.5,0.2,0.6,0.6,0.5,0.9C30.3,10.9,30.1,11,29.5,10.8z"/>
	<path class="st25" d="M14,11.8c1-0.4,1.1-0.4,1.4,0.4c0.1,0.2,0.3,0.4,0.2,0.7C15,12.6,14.6,12.2,14,11.8z"/>
	<path class="st6" d="M19.3,8.9c0.1,0,0.3,0,0.4,0c1.8,0.2,3.5,0.4,5.3,0.6c0.2,1.1,0.4,2.2,0.5,3.4c-0.6-0.4-0.9-1-1.4-1.5
		c-0.2-0.2-0.4-0.4-0.8-0.5c0.3-0.2,0.2-0.3-0.2-0.4c-0.3,0-0.7,0.1-0.9-0.2c0.2,0,0.3,0,0.5,0C21.6,9.8,20.5,9.4,19.3,8.9z"/>
	<path class="st26" d="M22.3,10.3c0.3,0.1,0.7,0,1.1,0.1c0.2,0,0.5,0,0.5,0.2c0,0.3-0.3,0.2-0.5,0.2c-0.7,0-1.3-0.1-1.9-0.2
		c-0.2,0-0.4,0-0.3-0.2c0.1-0.2,0.2-0.2,0.4-0.2S22,10.3,22.3,10.3z"/>
</g>
</svg>
