<?xml version="1.0" encoding="utf-8"?>
<!-- Generator: Adobe Illustrator 23.1.0, SVG Export Plug-In . SVG Version: 6.00 Build 0)  -->
<svg version="1.1" id="Capa_1" xmlns="http://www.w3.org/2000/svg" xmlns:xlink="http://www.w3.org/1999/xlink" x="0px" y="0px"
	 viewBox="0 0 50 50" style="enable-background:new 0 0 50 50;" xml:space="preserve">
<style type="text/css">
	.st0{fill:#8F8F8E;}
	.st1{fill:#543042;}
	.st2{fill:#FEE5D5;}
	.st3{fill:#F4C9B2;}
	.st4{fill:#FDFEFE;}
	.st5{fill:#E4E4E4;}
	.st6{fill:#675D52;}
	.st7{fill:#554B42;}
	.st8{fill:#C3937D;}
	.st9{fill:#474747;}
	.st10{fill:#C4937D;}
	.st11{fill:#F4C9B3;}
	.st12{fill:#95637C;}
	.st13{fill:#BDAB75;}
	.st14{fill:#747474;}
	.st15{fill:#C4937C;}
	.st16{fill:#A84100;}
	.st17{fill:#CB4F00;}
	.st18{fill:#484847;}
	.st19{fill:#802E00;}
	.st20{fill:#734C5F;}
	.st21{fill:#F3C9B1;}
	.st22{fill:#C5947D;}
	.st23{fill:#F3C8B0;}
	.st24{fill:#FEF0E7;}
	.st25{fill:#040403;}
	.st26{fill:#040404;}
	.st27{fill:#C5947F;}
	.st28{fill:#484848;}
	.st29{fill:#C5957F;}
</style>
<g>
	<path class="st0" d="M16.2,36.8c-1.5,0.3-3,0.7-4.4,1c-0.3,0.1-0.5,0-0.7,0c-2.3-0.6-4.6-1.2-6.9-1.7c-0.3-0.1-0.5-0.2-0.7-0.4
		c-1.1-1.3-2.2-2.6-3.4-3.9C0,31.6,0,31.4,0.1,31.2c0.8-1.5,1.6-3.1,2.4-4.7c0.1-0.3,0.3-0.4,0.7-0.4c2.5-0.3,4.9-0.5,7.4-0.8
		c0.4-0.1,0.6,0,0.7,0.4c0.2,0.5,0.4,1,0.6,1.6c0.3,0.2,0.3,0.5,0.4,0.7c0.2,0.7,0.5,1.3,0.7,2c0.1,0.2,0.1,0.4,0.3,0.5
		c1.2,0.3,2.5,0.4,3.7,0.5c1.5,0.2,1.7,0.1,1.8,1.4c0.1,1,0.3,2.1,0.4,3.1c0.1,0.6-0.1,0.7-0.8,0.9c-0.5,0.1-1.1,0.2-1.6,0.4
		C16.6,36.8,16.4,36.9,16.2,36.8z"/>
	<path class="st1" d="M18.3,36.3c0.7-0.1,0.8-0.4,0.7-0.8c-0.2-1.2-0.4-2.4-0.5-3.6c0-0.4-0.2-0.6-0.7-0.6c-0.3,0-0.6-0.1-0.9-0.1
		c-0.2-0.2-0.2-0.5-0.1-0.8c0.1-0.7,0.2-1.4,0.2-2.1c0-0.1,0-0.2,0-0.2c0.1-0.4-0.2-0.9,0.2-1.3c0.3,0,0.3,0.2,0.3,0.3
		c0,0.3,0.1,0.6,0,0.8c0.9-0.4,1.5-1.1,2.6-1.5c1.5-0.1,2.9-0.1,4.4-0.2c1.9-0.1,3.8-0.2,5.7-0.2c0.4,0,0.6,0.2,0.8,0.4
		c0.6,0.4,1.2,0.9,1.8,1.3c0.1,0.9,0,1.8,0.1,2.7c0,0.1-0.1,0.2-0.2,0.2c-0.6-0.1-0.7,0.2-0.8,0.5c0.8,0.1,0.9,0.2,1.1,1
		c0,1.2,0,2.4,0,3.6c-0.1,0.1-0.2,0.2-0.4,0.3c-2.3,0.8-4.6,1.6-6.9,2.4c-0.2,0.1-0.4,0.2-0.7,0.2c-2-0.6-4-1.2-6-1.8
		C18.5,36.6,18.2,36.5,18.3,36.3z"/>
	<path class="st2" d="M33.1,8.8c0,0.3,0.1,0.6,0.2,0.9c0.8,2.5,1.6,4.9,2.5,7.4c0.1,0.4,0,0.5-0.5,0.6c-1.6,0.4-3.2,0.8-4.9,1.3
		c-0.2,0.1-0.4,0.1-0.5,0.2c-1,0.4-2.1,0.6-3.2,0.9c-0.2,0-0.3,0.1-0.5,0c-0.6-0.7-0.9-1.5-1.3-2.3c-1.2-2.3-2.4-4.6-3.6-6.9
		c-0.1-0.3-0.4-0.5-0.3-0.8c0.1-0.1,0.3-0.2,0.5-0.2c3.6-0.7,7.2-1.4,10.7-2.1c0.1,0,0.2,0,0.3,0C33,8,33,8.4,33.1,8.8z"/>
	<path class="st1" d="M24.7,38.3c1.2-0.4,2.4-0.8,3.7-1.2c1.4-0.5,2.9-1,4.3-1.5c0.5,1.6,1.1,3.1,1.6,4.7c0.1,0.4,0.3,0.8,0.4,1.2
		c-0.1,0.2-0.3,0.2-0.5,0.3c-2.1,0.5-4.2,0.9-6.3,1.4c-0.2,0-0.4,0.1-0.6,0c-0.3-0.1-0.3-0.3-0.4-0.5c-0.6-1.2-1.3-2.5-1.9-3.7
		c-0.1-0.2-0.2-0.3-0.3-0.5C24.6,38.4,24.6,38.4,24.7,38.3z"/>
	<path class="st1" d="M24.7,38.3c0,0.1,0,0.1,0,0.2c0.2,0.2,0.2,0.5,0.2,0.8c-0.2,1-0.2,2-0.4,3.1c0,0.2-0.1,0.4-0.2,0.6
		C24,43.1,23.7,43,23.4,43c-2.3-0.3-4.6-0.6-6.9-0.9c-0.2,0-0.4-0.1-0.6-0.1c-0.1,0-0.1,0-0.2-0.1c0.1-1.5,0.3-3,0.5-4.6
		c0-0.2,0-0.4,0-0.6c0.7-0.2,1.4-0.3,2.1-0.5c1.1,0.5,2.3,0.7,3.4,1.1C22.7,37.7,23.7,38,24.7,38.3z"/>
	<path class="st3" d="M21.1,10c0.9,1.9,1.9,3.8,2.9,5.7c0.7,1.4,1.4,2.8,2.2,4.3c0,0.3-0.5,0.2-0.7,0.4c0.8,0.3,1.6,0.5,2.4,0.7
		c0.3,0.1,0.6,0.1,0.7,0.4c0,0.2-0.2,0.3-0.3,0.4c-1.2,0.8-2.5,1.5-3.7,2.3c-0.6,0.4-0.7,0.3-1.1-0.1c-0.7-0.8-1.3-1.7-2-2.5
		c-0.1-0.1-0.2-0.2-0.2-0.3c-0.4-0.8-1.1-1.4-1.6-2.1c0.9-0.4,1.9-0.8,2.8-1.2c0.4-0.2,0.4-0.3,0.2-0.6c-0.4-0.5-0.8-1-1.2-1.5
		c-0.2-0.2-0.4-0.4-0.7-0.4c-0.4-0.5-0.9-0.9-1-1.5c0.4-0.2,0.8-0.4,1.2-0.6c0.3-0.1,0.3-0.2,0.2-0.4c-0.5-0.6-1-1.3-1.5-1.9
		c-0.1-0.2-0.3-0.4-0.2-0.6C19.9,10.1,20.5,9.9,21.1,10z"/>
	<path class="st4" d="M21.3,21.2c0.9,0.8,1.5,1.8,2.3,2.7c0.3,0.4,0.5,0.5,1,0.1c1.3-0.9,2.7-1.7,4-2.5c0,0,0.1-0.1,0.1,0
		c0.6,0.1,1.2,0.3,1.8,0.4c0.2,0.2,0.2,0.4,0.2,0.6c-0.1,1-0.2,2.1-0.3,3.1c0,0.1,0,0.3-0.2,0.4c-0.6,0.2-1.3,0.1-1.9,0.2
		c-1.8,0.1-3.7,0.2-5.5,0.2c-1,0-1.9,0.2-2.9,0.1c-0.3-0.4-0.3-0.8-0.3-1.2c-0.1-0.9-0.1-1.7-0.2-2.6c0-0.3-0.1-0.6,0.1-0.9
		C20,21.6,20.6,21.4,21.3,21.2z"/>
	<path class="st5" d="M37.5,48.6c2.1,0.1,4.2,0.2,6.3,0.3c0,0,0,0,0,0.1c-1.2,0.1-2.4,0.1-3.6,0.2c-2.1,0.1-4.1,0.3-6.2,0.4
		c-1.2,0.1-2.4,0.1-3.6,0.2c-2,0.1-3.9,0.3-5.9,0.3c-1.5,0-3-0.2-4.6-0.3c-1.1-0.1-2.1-0.1-3.2-0.2c-1.5-0.1-3-0.2-4.4-0.3
		c-1-0.1-2-0.1-2.9-0.2c-0.5,0-1.1-0.1-1.6-0.2c3-0.1,6.1-0.2,9.1-0.4c0.1,0.1,0,0.2-0.1,0.2c-0.1,0.1-0.4,0.2-0.4,0.4
		c1.5,0,3,0,4.6,0c0.8,0,1.1,0.1,0.9-0.7c0-0.1,0-0.1,0.1-0.2c0,0,0.1-0.1,0.2-0.1c1.4-0.1,2.8-0.2,4.2-0.1c1.1,0.1,2.2,0.1,3.3,0.2
		c0.3,0,0.6,0,0.9,0.2c0.3,0.4,0.8,0.5,1.5,0.5c0.6,0,1.2,0,1.8,0C35,48.7,36.3,48.7,37.5,48.6z"/>
	<path class="st3" d="M44.5,25c-1.5,1.4-3,2.8-4.5,4.2c-0.2,0.2-0.5,0.2-0.8,0.2c-1.3-0.3-2.6-0.7-3.9-1c-0.1-0.2,0.2-0.3,0.4-0.4
		c0.8-0.5,1.6-1,2.4-1.5c0.2-0.1,0.4-0.2,0.7-0.3c1.1-0.7,2.2-1.4,3.3-2c0.6-0.2,1.1,0,1.7,0c0.4,0.1,0.7,0.4,0.9,0.7
		C44.5,25,44.5,25,44.5,25z"/>
	<path class="st6" d="M20.5,2.3c1.9-0.8,3.9-1.5,5.9-2.3c0.2,0.2,0.1,0.4,0,0.6C26.2,1,26,1.4,25.8,1.9c-0.2,0.6-0.2,0.6,0.5,1
		c0.6,0.3,1.2,0.6,1.8,0.9c0.2,0.1,0.4,0.2,0.4,0.4c0.1,0.3,0.1,0.6,0,0.9c-0.1,0.3-0.1,0.6,0.1,0.8c0,0.2-0.2,0.2-0.4,0.2
		c-1.2,0.2-2.4,0.5-3.6,0.7c-0.2,0-0.5,0.1-0.7,0c-0.2-0.2,0-0.4,0-0.6c0.4-1,0.7-2,1.1-3c0.2-0.6,0.2-0.6-0.7-0.6
		c-1,0-1.9-0.1-2.8-0.1C21.1,2.5,20.7,2.5,20.5,2.3z"/>
	<path class="st7" d="M19.4,10.4c0.6,0.8,1.3,1.6,1.9,2.5c0.2,0.2,0.2,0.3-0.2,0.5c-0.5,0.2-0.9,0.4-1.4,0.5
		c-0.3-0.1-0.4-0.2-0.5-0.4c-0.4-0.4-0.5-0.5-1.1-0.2c-0.6,0.3-1.2,0.5-1.9,0.8c-0.2,0.1-0.5,0.2-0.7,0.1c-0.2-0.3-0.5-0.6-0.7-0.9
		c-0.1-0.2-0.4-0.2-0.6-0.3c0.1-0.3-0.3-0.5-0.4-0.8c-0.1-0.2-0.4-0.4-0.3-0.7c0.2-0.2,0.4-0.2,0.7-0.2c1.4-0.2,2.7-0.5,4-0.8
		C18.6,10.4,19,10.2,19.4,10.4z"/>
	<path class="st1" d="M16.4,42c1.4,0.2,2.9,0.3,4.3,0.5c1.2,0.1,2.3,0.3,3.5,0.4c0.2,0.2,0.2,0.4,0.2,0.6c-0.1,0.8-0.1,1.6-0.3,2.4
		c-0.1,0.6-0.3,0.6-1,0.5c-0.5-0.1-1-0.1-1.5-0.2c-0.7-0.1-1.4-0.1-2-0.4c-1.3-0.2-2.5-0.4-3.8-0.6c-0.1,0-0.2-0.1-0.3-0.1
		c0.3-0.2,0.6-0.1,0.9-0.1c2.3,0,4.6,0,7,0C21.1,44,19,43.3,17,42.5c-0.3-0.1-0.6-0.2-0.8-0.4C16.2,42,16.2,42,16.4,42z"/>
	<path class="st6" d="M10.2,9.7C9.5,9.8,8.8,10,8,10.2c1-1.1,2-2.1,2.9-3.1C9.9,6.7,8.8,6.5,7.6,6.1c1.9-0.4,3.6-0.8,5.3-1.3
		c0.1,0.3-0.2,0.4-0.4,0.6c-0.3,0.4-0.7,0.8-1.1,1.2c-0.3,0.3-0.2,0.4,0.2,0.5c1.3,0.4,2.7,0.8,4.1,1.2c0.1,0,0.1,0.1,0.1,0.1
		c0,0,0,0.1,0,0.1C15,8.9,14.1,9,13.2,9.2c-0.4,0.1-0.8,0.2-1.3,0.3C11.3,9.5,10.8,9.8,10.2,9.7z"/>
	<path class="st2" d="M17.1,28c0,0.1,0,0.1,0,0.2c-0.9,0.7-2,1.2-3,1.9c-0.3,0.2-0.6,0.5-1.1,0.5c-0.4-0.4-0.4-0.9-0.6-1.3
		c-0.3-0.7-0.5-1.3-0.7-2c0.8-0.5,1.4-1.2,2.1-1.7C15.1,26.3,16.1,27.1,17.1,28z"/>
	<path class="st1" d="M34.2,41.6c0.2-0.1,0.3-0.1,0.5-0.2c0.5,1.1,1,2.2,1.3,3.4C35,45,34,45.1,33,45.1c-1.3,0-2.6,0-3.8,0
		c-0.3,0-0.5,0-0.8-0.1c-0.4-0.2-0.1-0.3,0.1-0.4c0.5-0.3,1.1-0.6,1.6-0.9C31.5,43,32.9,42.4,34.2,41.6z"/>
	<path class="st1" d="M16.2,42.1c2.5,0.9,5,1.8,7.5,2.7c0,0,0,0.1,0,0.1c-2.8,0-5.5,0-8.3,0c-0.1,0-0.2,0-0.2-0.1
		c0.2-1,0.2-2,0.5-2.9c0.1,0,0.1,0,0.1,0C16,42,16.2,42,16.2,42.1z"/>
	<path class="st7" d="M13,4.8c0.5-0.5,1.1-1.1,1.6-1.6c0.1,0,0.2,0,0.2,0C16,3.6,17,4,18,4.5c0,0,0.1,0.1,0.1,0.1
		c-0.5,1.2-1.1,2.3-1.7,3.5c-0.1,0.1-0.1,0.4-0.5,0.3l0,0c-0.2-0.1-0.3-0.3-0.5-0.4c-0.7-0.9-1.4-1.7-2.1-2.6
		C13.1,5.2,12.9,5,13,4.8z"/>
	<path class="st2" d="M38.6,26.3c-1,0.6-1.9,1.2-2.9,1.8c-0.2,0.1-0.3,0.3-0.5,0.4c-0.8-0.2-1.7-0.4-2.5-0.6c-0.1,0-0.1-0.1-0.1-0.2
		c0.7-1.1,1.6-2.2,2.3-3.3c0.1-0.1,0.1-0.1,0.2-0.2c1,0.6,2,1.2,2.9,1.8C38.2,26.2,38.4,26.2,38.6,26.3z"/>
	<path class="st1" d="M19.4,21.8c0.1,1.5,0.3,3.1,0.4,4.7C19,27,18.2,27.5,17.2,28c0-0.5,0-0.9,0-1.3c-0.1-0.1-0.2-0.2-0.2-0.3
		c-0.1-1.2,0.1-2.4,0.1-3.6c0-0.1,0.1-0.2,0.2-0.4C17.9,22.1,18.7,22,19.4,21.8z"/>
	<path class="st1" d="M30.1,26c0.1-1.4,0.2-2.7,0.3-4.1c0.8,0.2,1.6,0.3,2.3,0.6c0.1,0.1,0.2,0.3,0.2,0.4c0,1,0.1,2.1,0,3.1
		c-0.2,0.4-0.1,0.7-0.1,1.1c0,0.2,0.1,0.4-0.3,0.5C31.6,27.1,30.8,26.6,30.1,26z"/>
	<path class="st7" d="M28.4,4.1c-0.8-0.4-1.7-0.9-2.5-1.3c-0.3-0.2-0.4-0.3-0.3-0.6c0.3-0.7,0.5-1.4,0.8-2.2c0.3,0,0.4,0.1,0.6,0.2
		c1.3,0.6,2.5,1.2,3.8,1.8c0.1,0.2-0.1,0.3-0.2,0.4c-0.6,0.5-1.2,1-1.8,1.5C28.6,4,28.6,4.1,28.4,4.1z"/>
	<path class="st7" d="M20.5,2.3c1.4,0.1,2.9,0.2,4.3,0.2c0.5,0,0.6,0.1,0.4,0.4c-0.5,1.3-1,2.6-1.4,3.9c0,0.1-0.1,0.1-0.2,0.1
		c-0.1,0-0.1-0.1-0.1-0.1c-1-1.3-1.9-2.6-2.9-3.8C20.5,2.8,20.2,2.6,20.5,2.3C20.4,2.3,20.4,2.3,20.5,2.3z"/>
	<path class="st6" d="M20.4,2.3c0.5,0.9,1.3,1.7,1.9,2.6c0.4,0.6,1,1.2,1.4,1.9c-0.2,0.1-0.4,0-0.5-0.1c-0.7-0.3-1.5-0.6-2.2-0.9
		c-0.7-0.3-1.5-0.6-2.2-0.9c-0.3-0.1-0.6-0.2-0.8-0.4c0,0,0-0.1,0-0.1c0-0.6,0.5-1.1,0.7-1.6c0.1-0.2,0.3-0.4,0.1-0.7
		c0.4,0,0.4,0,0.8-0.8C20,1.7,20,2.1,20.4,2.3z"/>
	<path class="st7" d="M28.4,4.1c0.8-0.7,1.7-1.3,2.4-2c0.3-0.3,0.7-0.5,1-0.8c0.4,0.1,0.1,0.4,0.1,0.6c0,0.3,0,0.5,0,0.8
		C32,2.6,32,2.7,32,2.7c-0.1,0.8,0.1,1.7-0.3,2.5c-0.2,0.2-0.5,0.2-0.8,0.3c-0.6,0.1-1.2,0.3-1.8,0.4c-0.2,0-0.4,0.1-0.6,0
		c-0.5-0.2-0.3-0.5-0.2-0.7C28.4,4.8,28.4,4.4,28.4,4.1z"/>
	<path class="st4" d="M17.3,22.4c0,1.4-0.1,2.8-0.1,4.3c-0.2,0.4,0,0.9-0.1,1.3c-1.1-0.8-2.2-1.6-3.2-2.5
		C15,24.5,16.2,23.5,17.3,22.4z"/>
	<path class="st2" d="M15.6,14.1c0.3,0.1,0.5-0.1,0.8-0.2c0.7-0.3,1.4-0.6,2.1-0.9c0.3-0.1,0.5-0.2,0.7,0.1c0.2,0.2,0.4,0.5,0.6,0.7
		c0.3,0.5,0.8,0.9,1,1.5c-0.1,0.3-0.5,0.4-0.9,0.4c-0.6-0.2-0.7-0.6-1-0.9c-0.1-0.1-0.1-0.2-0.2-0.3c-0.4-0.5-0.5-0.5-1.1-0.1
		c0.2,0.2,0.7,0.1,0.8,0.4c0,0.3,0.2,0.5,0.3,0.7c0.1,0.2,0.3,0.3,0.3,0.5c-0.4,0.2-0.8,0.5-1.3,0.5C17,15.8,16.3,14.9,15.6,14.1z"
		/>
	<path class="st7" d="M10.2,9.7c0.6-0.1,1.1-0.3,1.6-0.3c0.7,0.6,1.4,1.3,1.6,2.1c-0.3,0.3-0.7,0.4-1.1,0.5
		c-0.4,0.1-0.8,0.2-1.2,0.4c-0.6,0-1,0.3-1.6,0.4C9.8,11.7,10,10.7,10.2,9.7z"/>
	<path class="st7" d="M18.8,2.2c0.3,0.1,0.3,0.2,0.2,0.4c-0.3,0.6-0.7,1.3-1,1.9c-1.1-0.4-2.2-0.9-3.3-1.3c-0.1-0.3-0.2-0.6-0.3-0.9
		C14.3,2,14.4,2,14.7,2C16.1,2.1,17.4,2.1,18.8,2.2z"/>
	<path class="st1" d="M17.7,16.7c0.4-0.2,0.8-0.4,1.3-0.6c0.4,0.1,0.5,0.3,0.5,0.6c-0.3,0.2-0.2,0.5,0,0.7c0.6,0.8,0.6,0.8,1.6,0.3
		c0.6-0.3,0.6-0.3,0.2-0.7c-0.2-0.3-0.3-0.7-1-0.6c-0.4-0.1-0.6-0.3-0.5-0.6c0.3-0.1,0.6-0.3,0.9-0.4c0.2-0.1,0.4-0.1,0.5,0.1
		c0.5,0.7,1.1,1.3,1.6,2c0.1,0.1,0.2,0.2,0,0.3c-1,0.4-2.1,0.9-3.1,1.3c0,0-0.1,0-0.2,0C19,18.3,18.4,17.5,17.7,16.7z"/>
	<path class="st7" d="M13,4.8c0.5,0.9,1.3,1.6,1.9,2.4c0.3,0.4,0.7,0.7,0.9,1.2c-1.2-0.2-2.2-0.6-3.4-0.9c-0.3-0.1-0.7-0.2-1-0.3
		C11,7.1,11,6.9,11.3,6.7c0.6-0.6,1.1-1.2,1.6-1.8C13,4.9,13,4.8,13,4.8z"/>
	<path class="st6" d="M32.2,2.7c1.6,0.7,3.2,1.4,4.7,2.1C37.1,4.9,37.2,5,37,5.1c-0.7,0.5-1.3,0.9-2,1.4c-0.1,0-0.2,0-0.2-0.1
		c-0.7-1-1.5-1.9-2.3-2.9C32.3,3.3,32,3,32,2.7C32,2.7,32.1,2.7,32.2,2.7C32.1,2.7,32.1,2.7,32.2,2.7z"/>
	<path class="st2" d="M32.5,46.2c0.7,0.5,1.4,1.1,2.1,1.6c0.1,0.1,0.2,0.2,0.4,0.2c-0.2,0.4-0.7,0.6-1.3,0.7
		c-0.6,0.1-1.2,0.1-1.9,0.1c-0.3,0-0.6-0.1-0.8-0.3c-0.2-0.2-0.5-0.4-0.7-0.6c-0.1-0.1-0.2-0.3-0.1-0.5C31,47,31.8,46.6,32.5,46.2z"
		/>
	<path class="st4" d="M32.7,26.1c0-1.2,0-2.4,0-3.6c0.8,0.6,1.6,1.2,2.4,1.8c-0.8,1.2-1.5,2.3-2.4,3.4
		C32.5,27.1,32.6,26.6,32.7,26.1z"/>
	<path class="st1" d="M28.2,44.9c0.2,0.1,0.4,0.1,0.7,0.1c1.6,0,3.2,0,4.9,0c0.7,0,1.5-0.1,2.2-0.1c-0.9,0.3-1.9,0.5-2.9,0.7
		c-0.3,0.1-0.7,0.2-1,0.2c-0.5,0.3-1.1,0.3-1.7,0.5c-1.5,0.4-1.5,0.4-2-0.7c-0.1-0.2-0.3-0.4-0.2-0.7C28.1,44.8,28.2,44.8,28.2,44.9
		z"/>
	<path class="st2" d="M43.7,24.3c-0.6,0.1-1.2,0-1.8-0.1c0.2-0.3,0.4-0.5,0.5-0.8c0.1-0.4,0.4-0.7,0.6-1.1c0.5-0.6,1.2-0.4,1.9-0.2
		c0.2,0.1,0.5,0,0.7,0.1c0.1,0.5,0.3,1,0.2,1.5c-0.3,0.3-0.5,0-0.7-0.1c-0.7-0.4-0.7-0.4-1.1,0.2C44,24,44,24.2,43.7,24.3z"/>
	<path class="st2" d="M18.6,47.8c0.3-0.5,0.4-1,0.6-1.5c0.8,0.3,1.7,0.6,2.6,0.8c0.2,0.3,0.3,0.6,0.2,0.9l0,0
		c-0.1,0.1-0.2,0.1-0.2,0.2c-0.8,0.9-1.6,0.9-2.6,0.1C19,48.2,18.6,48.1,18.6,47.8z"/>
	<path class="st7" d="M34.8,6.4c0.1,0,0.1,0.1,0.1,0.1c-0.6,0.7-1.3,1.5-1.9,2.2c-0.3-0.3-0.2-0.7-0.5-1c-0.5-0.8-0.8-1.5-0.8-2.4
		c0.1-0.1,0.2-0.1,0.3-0.1C33,5.6,34,5.9,34.8,6.4z"/>
	<path class="st8" d="M28.6,21.4c0,0-0.1,0-0.1,0c-0.8-0.4-1.7-0.5-2.6-0.8c-0.3-0.1-0.5-0.2-0.9-0.3c0.5-0.1,0.8-0.3,1.2-0.4
		c1-0.2,2-0.5,3-0.7c0.2,0,0.4-0.2,0.6-0.1C29.5,19.9,29.1,20.7,28.6,21.4z"/>
	<path class="st9" d="M43.1,22.3c0.1,0.5-0.4,0.7-0.6,1.1c-1.7-1.4-3.5-2.8-5.2-4.1c0.1,0,0.1-0.1,0.2,0
		C39.3,20.3,41.2,21.3,43.1,22.3z"/>
	<path class="st6" d="M34.8,6.4c-1.1-0.3-2-0.8-3-1.1c-0.1,0-0.1,0-0.1-0.1c0.2-0.9,0-1.8,0.3-2.7c0.1,0,0.2,0.1,0.2,0.1
		c0.1,0.5,0.6,0.9,0.9,1.4c0.5,0.7,1.1,1.4,1.7,2.2C34.9,6.3,34.9,6.4,34.8,6.4z"/>
	<path class="st0" d="M44.5,25C44.5,25,44.5,25,44.5,25c0.4-0.5,0.8-0.9,1.4-1.2c0.6,0.1,1,0.4,1.4,0.7c0.2,0.2,0.6,0.3,0.7,0.5
		c-0.5,0.5-1,1-1.6,1.4C45.6,26,45.2,25.4,44.5,25z"/>
	<path class="st1" d="M18.6,47.8c0.4,0.3,0.7,0.6,1.1,0.9c0.4,0.3,1.4,0.2,1.8-0.2c0.2-0.2,0.1-0.5,0.6-0.4c0.1,1,0.1,1-1.3,1
		c-1.5,0-3.1,0-4.6,0c0,0-0.1,0-0.1,0c0,0,0,0,0-0.1c0.7-0.3,1.4-0.1,2.1-0.1c0.3,0,0.7,0,0.9,0.1c-0.4-0.1-1-0.1-1.6-0.2
		c-0.3-0.1-0.6-0.1-0.8-0.2c0.1-0.1,0.1-0.1,0.1-0.2c0.3-0.2,0.6-0.4,0.9-0.6C18.1,47.4,18.3,47.5,18.6,47.8z"/>
	<path class="st1" d="M30.5,47.9c0.1,0.1,0.3,0.2,0.4,0.3c0.5,0.5,1.2,0.6,2,0.5c0.8-0.1,1.6-0.2,2.2-0.7c0.8-0.5,0.8-0.5,1.6,0.1
		c0.2,0.1,0.3,0.2,0.5,0.4c-1.1,0.3-2.2,0.4-3.3,0.4c-1,0.2-1.9,0.1-2.9,0.1c-0.4,0-0.2-0.4-0.4-0.5C30.4,48.1,30.4,48,30.5,47.9z"
		/>
	<path class="st7" d="M11.1,12.4c0.1-0.3,0.5-0.3,0.7-0.4c0.5-0.2,1.1-0.4,1.6-0.5c0,0,0.1,0,0.1,0c0.3,0.3,0.6,0.7,0.8,1
		c0.1,0.1,0.4,0.3-0.1,0.4C13.2,12.8,12.2,12.6,11.1,12.4z"/>
	<path class="st10" d="M21.8,47.2c-0.1,0.1-0.2,0.1-0.3,0c-0.6-0.2-1.3-0.4-1.9-0.6c-0.2-0.1-0.3-0.1-0.3-0.3
		c0.1-0.2,0.2-0.4,0.3-0.6c0.7,0.1,1.4,0.2,2.1,0.3C21.8,46.4,22,46.7,21.8,47.2z"/>
	<path class="st11" d="M47.2,24.5c-0.5-0.2-0.9-0.4-1.4-0.7l0,0l0,0c-0.1-0.4-0.1-0.7-0.2-1.1c0-0.2-0.1-0.4,0.1-0.5
		c0.9,0,1.3,0.4,1.3,1.1C47,23.7,47.3,24.1,47.2,24.5z"/>
	<path class="st10" d="M30.2,46.2c0.6-0.1,1.2-0.3,1.8-0.4c0.2,0.1,0.3,0.2,0.5,0.4c-0.6,0.5-1.3,0.9-2.1,1.3
		C30.1,47,30.1,46.6,30.2,46.2z"/>
	<path class="st12" d="M46.4,26.4c0.5-0.5,1-1,1.6-1.4c0.2,0.6,0.4,1.1,0.6,1.6c-0.4,0.3-0.6,0.1-0.9-0.1
		C47.2,26.6,46.8,26.5,46.4,26.4z"/>
	<path class="st12" d="M32.7,26.1c0,0.5,0,1.1,0,1.6c0,0.1,0,0.1,0,0.2c0,1.4,0,2.8,0,4.1c-0.1-0.2-0.2-0.3-0.3-0.5
		c-0.1-0.3-0.3-0.4-0.8-0.3c-0.1,0-0.3,0.1-0.4,0c-0.1-0.1,0.1-0.2,0.1-0.2c0.1-0.1,0.2-0.3,0.3-0.4c0.1-0.2,0.3-0.4,0.6-0.1
		c0.1,0.1,0.3,0.1,0.3-0.1c-0.1-0.9,0.2-1.8-0.1-2.7c0.3-0.3,0.1-0.6,0.1-0.9C32.6,26.5,32.5,26.3,32.7,26.1z"/>
	<path class="st12" d="M47.6,26.6c0.3,0,0.6,0.2,0.9,0.1c0.1,0,0.2,0.1,0.3,0.1c0.8,0,1,0.5,1.2,0.9c-0.6-0.1-1.2-0.1-1.8-0.2
		c-0.3,0-0.4-0.1-0.4-0.3C47.7,27.1,47.7,26.9,47.6,26.6z"/>
	<path class="st1" d="M33.8,48.7c0.8,0,1.6-0.2,2.4-0.3c0.3,0,0.6-0.1,0.9-0.1c0.1,0.1,0.3,0.2,0.4,0.3c0,0.1,0.1,0.2-0.1,0.2
		C36.2,48.8,35.1,48.8,33.8,48.7C33.9,48.8,33.8,48.8,33.8,48.7z"/>
	<path class="st13" d="M31.9,1.8c-0.1-0.2,0.1-0.4-0.1-0.6c0.1-0.1,0.2-0.1,0.2,0C32.1,1.4,32.1,1.6,31.9,1.8z"/>
	<path class="st14" d="M37.4,19.2c-0.1,0-0.1,0-0.2,0c-0.1-0.1-0.2-0.1-0.4-0.3C37.1,19,37.3,19.1,37.4,19.2z"/>
	<path class="st2" d="M7.3,31.2C7.3,31.2,7.3,31.2,7.3,31.2c-1-0.6-1-0.6,0-1.2c0.3-0.4,0.8-0.7,1.3-1c0.1,0,0.2,0,0.3,0
		c0.3,0.3,0.9,0.5,0.7,0.9c-0.5,0.3-0.9,0.6-1.4,0.8C7.9,31,7.7,31.2,7.3,31.2z"/>
	<path class="st15" d="M8.9,29.1c-0.1,0-0.2,0-0.2,0c-0.5,0.2-1,0.3-1.6,0.1c0.5-0.4,1.2-0.7,1.8-1.1c0.2-0.1,0.3,0,0.3,0.1
		c0.5,0.6,1,1.2,1.4,1.8c0.3,0.4-0.2,0.4-0.5,0.5c-0.3-0.1-0.3-0.4-0.4-0.6C9.6,29.6,9.5,29.2,8.9,29.1z"/>
	<path class="st16" d="M5.3,32.6c0,0.3-0.5,1.1-0.7,1.1c-0.4,0-1.5-0.4-1.4-0.5c0.2-0.3,0.1-0.9,0.7-0.9C4.4,32.2,4.9,32.4,5.3,32.6
		z"/>
	<path class="st1" d="M14.3,35.1c-0.2,0.4-0.3,0.7-0.5,1c-0.1,0.1-0.2,0.1-0.3,0.1c-0.4-0.1-0.7-0.2-1.1-0.3
		c-0.2-0.1-0.2-0.2-0.2-0.3c0.1-0.3,0.3-0.5,0.4-0.8c0-0.1,0.1-0.1,0.2-0.1c0.4,0.1,0.9,0.2,1.3,0.3C14.2,35,14.3,35,14.3,35.1z"/>
	<path class="st12" d="M17.2,33.8c0,0.5-0.5,1.1-0.7,1.1c-0.5,0-1.4-0.4-1.3-0.5c0.2-0.3,0.1-0.9,0.7-0.9
		C16.3,33.4,16.9,33.6,17.2,33.8z"/>
	<path class="st17" d="M8,34.2c0,0.4-0.5,1.1-0.7,1.1c-0.4,0-1.4-0.4-1.3-0.5c0-0.3,0.6-1,0.7-1C7,33.9,7.6,33.9,8,34.2z"/>
	<path class="st18" d="M4.6,29.3c-0.4-0.1-0.9-0.2-1.3-0.4c-0.1,0-0.1-0.1-0.1-0.2c0-0.1,0.1-0.1,0.1-0.2c0.4-0.9,0.6-1,1.8-0.5
		c0.1,0,0.2,0,0.2,0.1c-0.2,0.4-0.3,0.7-0.5,1C4.8,29.3,4.7,29.3,4.6,29.3z"/>
	<path class="st19" d="M4.3,30.3c-0.2,0.3-0.3,0.7-0.5,1c-0.1,0.1-0.2,0-0.3,0c-0.1,0-0.2,0-0.2-0.1C2.1,31,1.9,30.7,2.6,30
		c0.1-0.1,0.2-0.2,0.3-0.1c0.4,0.1,0.8,0.2,1.2,0.3C4.2,30.2,4.3,30.2,4.3,30.3z"/>
	<path class="st20" d="M9.5,34.5c0.4,0.1,0.9,0.2,1.3,0.4c0.2,0.1,0.1,0.2,0.1,0.3c-0.3,0.9-0.8,1-1.9,0.5c-0.1,0-0.2,0-0.2-0.1
		c0.2-0.3,0.3-0.7,0.5-1C9.3,34.6,9.4,34.6,9.5,34.5z"/>
	<path class="st21" d="M8.9,29.1c0.4-0.1,0.7,0,0.8,0.3c0.1,0.4,0.3,0.7,0.5,1.1c-0.4,0.3-0.7,0.6-1.3,0.7c-0.2-0.5,0.3-0.9,0.6-1.3
		C9.6,29.5,9,29.4,8.9,29.1z"/>
	<path class="st22" d="M9.5,29.9c-0.2,0.4-0.4,0.9-0.6,1.3c0,0.1-0.1,0.2-0.2,0.2c-0.3-0.2-0.5-0.4-0.5-0.6
		C8.6,30.5,9,30.2,9.5,29.9z"/>
	<path class="st23" d="M7.1,29.2c0.5,0,1-0.1,1.6-0.1c-0.4,0.4-0.8,0.6-1.3,0.9c0.1-0.2-0.1-0.3-0.2-0.4C7,29.5,6.8,29.3,7.1,29.2z"
		/>
	<path class="st0" d="M8.1,30.8c0.2,0.2,0.4,0.4,0.5,0.6c-0.4-0.1-0.9,0-1.3-0.2C7.6,31.1,7.8,30.9,8.1,30.8z"/>
	<path class="st12" d="M21.4,31c0-0.9,0-1.8,0-2.7c0-0.3,0.2-0.4,0.6-0.4c2,0,3.9,0,5.9,0c0.4,0,0.5,0.1,0.5,0.4c0,1.5,0,2.9,0,4.4
		c0,0.3-0.2,0.4-0.6,0.4c-1.9,0-3.8,0-5.6,0c-0.6,0-0.8-0.1-0.7-0.6c0.3-0.2,0.7-0.3,1.1-0.4c0.5-0.1,0.6-0.3,0.5-0.6
		c-0.1-0.3,0-0.6,0.4-0.8c0.5-0.2,0-0.5-0.1-0.8c-0.3,0.3-0.6,0.5-1.2,0.5c-0.2,0-0.3,0.1-0.3,0.2C21.7,30.8,21.7,31,21.4,31z"/>
	<path class="st20" d="M21.4,31c0.1-0.1,0.2-0.2,0.2-0.3c0.1-0.3,0.3-0.4,0.7-0.3c0.3,0,0.6,0,0.6-0.3c0-0.1,0.1-0.2,0.3-0.2
		c0.2,0,0.3,0.1,0.3,0.2c0.1,0.2,0.2,0.3,0.3,0.5c0.1,0.2,0.1,0.4-0.2,0.5c-0.4,0.1-0.5,0.2-0.4,0.5c0.2,0.7,0.1,0.7-0.8,0.9
		c-0.3,0.1-0.6,0.1-1,0.2v0C21.1,32,21.1,31.5,21.4,31C21.4,31,21.4,31,21.4,31z"/>
	<path class="st12" d="M29.1,34.3c-0.1,0.2-0.1,0.3-0.2,0.5c-0.2,0.3,0,0.7-0.5,0.9c-0.4,0.1-1.4-0.8-1.4-1.2c0-0.4,0.5-0.5,0.9-0.7
		c0.4-0.2,0.6,0.1,1,0.2C29.1,34,29.2,34.2,29.1,34.3z"/>
	<path class="st20" d="M21.4,31c0,0.5,0,1,0,1.5c-0.3,0-0.6,0.1-0.8-0.1c-0.2-0.3-0.4-0.7-0.5-1.1c-0.1-0.1,0.3-0.2,0.4-0.2
		C20.8,31.1,21.1,31.1,21.4,31z"/>
	<path class="st20" d="M24.9,34.3c0.1,0.3-0.3,0.3-0.6,0.3c-0.5,0-0.3-0.4-0.4-0.6c-0.1-0.1,0-0.2,0.2-0.2
		C24.5,34,25,33.9,24.9,34.3z"/>
	<path class="st12" d="M31.7,5.3c0,0,0.1,0.1,0.1,0.1c0.2,0.8,0.6,1.6,0.8,2.4c-2.3,0.5-4.6,0.9-6.9,1.4c-1.5,0.3-3,0.6-4.5,0.9
		c-0.6,0.1-1.2,0.2-1.8,0.4c-0.4,0-0.7,0.1-1.1,0.1c0,0,0,0,0-0.1c0.1-0.3,0.2-0.6,0.5-0.8c2.3-0.9,4.6-1.6,7-2.4
		c1-0.4,2.1-0.7,3.1-1.1c0.7-0.2,1.4-0.4,2.1-0.7C31.1,5.3,31.4,5.3,31.7,5.3z"/>
	<path class="st24" d="M30,12.1c0.1,0.3,0.5,0.6,0.3,1c-0.6,0.3-1.3,0.5-2,0.4c-0.1,0-0.2-0.1-0.3-0.1c-0.7-1-1-2.1-1.5-3.2
		c-0.1-0.1,0-0.2,0.1-0.4c0.6-0.1,1.2-0.2,1.7-0.4c0.2-0.1,0.4-0.1,0.7,0c0.2,0.1,0.3,0.2,0.3,0.4c0.2,0.6,0.5,1.1,0.7,1.7
		C30.1,11.7,30.1,11.9,30,12.1z"/>
	<path class="st3" d="M26.6,9.9c0.2,0.8,0.7,1.6,1,2.4c0.1,0.4,0.3,0.7,0.4,1.1c-0.5-0.3-0.7-0.8-1.3-1.1c-0.3,0-0.4-0.2-0.4-0.3
		c-0.1-0.4-0.4-0.5-0.9-0.4c-0.4,0.1-0.8,0.1-1.2,0c0.4-0.6,1.3-0.9,1.9-1.4C26.3,10,26.4,9.9,26.6,9.9z"/>
	<path class="st3" d="M30,12.1c-0.3-0.9-0.7-1.7-1-2.6c0-0.1,0-0.2,0.1-0.2c0.7,0,1.5,0.1,2.2,0.1c0.3,0,0.5,0,0.7,0.2
		c-0.3,0.2-0.7,0.3-1,0.5c-0.3,0.2-0.6,0.3-0.4,0.6c0.1,0.2,0.1,0.4-0.1,0.6C30.1,11.5,30.4,11.9,30,12.1z"/>
	<path class="st12" d="M27.7,15.7c0.6-0.3,1.3-0.7,1.9-1c0.3-0.1,0.6-0.1,0.8,0c0.4,0,0.9,0,1.3,0.1c0.3,0,0.6,0.1,0.2,0.3
		c-0.8,0.4-1.6,0.9-2.7,0.8c-0.4,0-0.8,0-1.1,0C28,15.9,27.8,16,27.7,15.7z"/>
	<path class="st12" d="M27.7,15.7c1.5,0.1,3,0,4.2-0.7c0.3-0.2,0-0.2-0.1-0.2c0.2,0,0.5,0,0.7,0.1c-0.6,0.5-1.3,1-1.9,1.5
		c-0.2,0.1-0.3,0.1-0.5,0.1c-1-0.2-2.1-0.4-3.2-0.6C27.3,15.8,27.5,15.8,27.7,15.7z"/>
	<path class="st7" d="M32,9.7c-0.9-0.1-1.7-0.2-2.6-0.3c-0.1,0-0.3,0-0.3-0.1c0.7-0.1,1.4-0.2,2-0.4c0.6-0.2,0.8,0,0.9,0.4
		C32,9.4,32.1,9.5,32,9.7z"/>
	<path class="st7" d="M26.1,10c-0.5,0.6-1.2,0.9-1.9,1.4c-0.5-0.8-0.5-0.8,0.6-1.1C25.2,10.2,25.6,10.1,26.1,10z"/>
	<path class="st25" d="M30.5,11.3c0-0.2,0-0.4,0.1-0.6c0.4-0.2,0.7-0.1,0.9,0.1c0.3,0.3,0.4,0.6,0.1,0.8c-0.2,0.2-0.5,0.2-0.8,0
		C30.7,11.7,30.6,11.5,30.5,11.3z"/>
	<path class="st26" d="M26.3,11.9c0.1,0.1,0.3,0.2,0.4,0.3c0,0.1,0,0.1,0,0.2c0.1,0.2,0.1,0.5-0.3,0.6c-0.3,0.1-0.5,0-0.7-0.1
		c-0.3-0.2-0.4-0.5-0.2-0.8C25.8,11.8,26,11.8,26.3,11.9z"/>
	<path class="st27" d="M28.3,13.5c0.7-0.1,1.3-0.2,2-0.4c0,0.4-0.4,0.6-0.6,0.9c0,0-0.2,0.1-0.2,0.1C29.1,13.8,28.5,13.8,28.3,13.5z
		"/>
	<path class="st1" d="M28.1,44.9c-0.4-0.6-0.6-1.2-0.9-1.8c2.3-0.5,4.6-1,6.9-1.5c0.4,0.1,0,0.1,0,0.2c-1.3,0.7-2.5,1.3-3.8,2
		c-0.7,0.4-1.4,0.7-2.1,1.1C28.2,44.9,28.2,44.9,28.1,44.9z"/>
	<path class="st20" d="M16.2,42.1C16.1,42,16,42,15.8,41.9c0.2,0,0.4,0,0.5,0.1C16.3,42,16.3,42.1,16.2,42.1z"/>
	<path class="st1" d="M16.7,48.5c0.9,0.1,1.8,0.3,2.7,0.4c0,0,0,0.1,0,0.1c-1.1,0-2.2,0-3.3,0C16.2,48.8,16.5,48.7,16.7,48.5z"/>
	<path class="st28" d="M45.8,23.8C45.8,23.8,45.8,23.8,45.8,23.8c-0.5,0.4-0.8,0.9-1.4,1.2c-0.3-0.2-0.5-0.4-0.8-0.6
		c0.2-0.4,0.5-0.8,0.7-1.3C44.9,23.3,45.4,23.6,45.8,23.8z"/>
	<path class="st12" d="M30.9,5.4c0.1,0.1-0.1,0.1-0.1,0.1c-4,1.4-7.9,2.7-11.9,4.1c0,0-0.1,0-0.1,0c0,0-0.1-0.1-0.1-0.1
		c0.3-0.7,0.5-1.4,1.2-2c1.1-0.3,2.2-0.5,3.2-0.7c0.2,0,0.4,0,0.6,0c0.1,0,0.1,0,0.2-0.1C24.9,6.7,26,6.4,27,6.2
		c0.5-0.1,1-0.2,1.5-0.3C29.3,5.7,30.1,5.6,30.9,5.4z"/>
	<path class="st12" d="M13.6,11.5C13.5,11.5,13.5,11.5,13.6,11.5c-0.6-0.7-1.2-1.4-1.7-2.1c0.9-0.4,1.9-0.4,2.8-0.7
		c0.4-0.1,0.8-0.2,1.2-0.3c0.1,0,0.2,0,0.3,0c0.6,0.5,1.3,0.9,1.5,1.5c-0.1,0.2-0.3,0.3-0.6,0.3c-1,0.3-1.9,0.7-2.9,0.9
		C14,11.4,13.8,11.4,13.6,11.5z"/>
	<path class="st12" d="M14.2,11.3c0.9-0.4,1.8-0.7,2.7-1c0.2-0.1,0.5-0.1,0.7-0.3c0.4,0,0.5,0.3,0.6,0.5l0,0
		C16.9,10.9,15.6,11.1,14.2,11.3z"/>
	<path class="st6" d="M18.2,10.5c-0.3-0.1-0.3-0.4-0.6-0.5c-0.6-0.5-1-1.1-1.8-1.6c0,0,0-0.1,0-0.1c0.4-0.1,0.4-0.4,0.5-0.6
		c0.6-1,1.1-2.1,1.6-3.2c1,0.4,2,0.8,3,1.2c-0.3,0.5-0.6,1-0.8,1.5c-0.1,0.1-0.2,0.3-0.3,0.4c-0.5,0.6-0.8,1.3-1.1,2
		C18.6,9.9,18.4,10.2,18.2,10.5z"/>
	<path class="st7" d="M19.9,7.7c0.2-0.6,0.6-1.1,0.8-1.7c0.1-0.1,0.1-0.2,0.3-0.2c0.9,0.4,1.8,0.7,2.6,1.1c0,0,0,0,0,0.1
		C22.4,7.1,21.2,7.4,19.9,7.7z"/>
	<path class="st1" d="M19.4,16.7c0-0.2-0.3-0.4-0.4-0.6c-0.2-0.3-0.4-0.5-0.6-0.8c-0.1-0.1-0.2-0.3,0-0.4c0.2-0.1,0.3-0.3,0.6-0.2
		c0.3,0.3,0.5,0.7,0.9,1c0.1,0.2,0.2,0.4,0.5,0.5c0.3,0.4,0.3,0.5-0.2,0.7C19.7,17.1,19.5,17,19.4,16.7z"/>
	<path class="st29" d="M19,14.7c-0.2,0.1-0.4,0.1-0.6,0.2c-0.3-0.2-0.8-0.2-1.1-0.4c0,0,0-0.1,0.1-0.1C18.6,13.9,18.2,13.8,19,14.7z
		"/>
	<path class="st21" d="M19.4,16.7c0.2,0,0.2,0.4,0.6,0.2c0.4-0.2,0.5-0.3,0.4-0.6c0.3-0.1,0.5-0.1,0.7,0.1c0.2,0.4,0.9,0.7,0.7,1.1
		c-0.1,0.3-0.9,0.4-1.3,0.6c-0.3,0.2-0.5,0.1-0.7-0.1c-0.2-0.2-0.4-0.5-0.6-0.7C18.9,17,19,16.8,19.4,16.7z"/>
</g>
</svg>
