<?xml version="1.0" encoding="utf-8"?>
<!-- Generator: Adobe Illustrator 23.1.0, SVG Export Plug-In . SVG Version: 6.00 Build 0)  -->
<svg version="1.1" id="Capa_1" xmlns="http://www.w3.org/2000/svg" xmlns:xlink="http://www.w3.org/1999/xlink" x="0px" y="0px"
	 viewBox="0 0 90.8 150.2" style="enable-background:new 0 0 90.8 150.2;" xml:space="preserve">
<style type="text/css">
	.st0{fill:#8F8F8E;}
	.st1{fill:#543042;}
	.st2{fill:#FEE5D5;}
	.st3{fill:#F4C9B2;}
	.st4{fill:#FDFEFE;}
	.st5{fill:#E4E4E4;}
	.st6{fill:#675D52;}
	.st7{fill:#554B42;}
	.st8{fill:#C3937D;}
	.st9{fill:#474747;}
	.st10{fill:#C4937D;}
	.st11{fill:#F4C9B3;}
	.st12{fill:#95637C;}
	.st13{fill:#BDAB75;}
	.st14{fill:#747474;}
	.st15{fill:#C4937C;}
	.st16{fill:#A84100;}
	.st17{fill:#CB4F00;}
	.st18{fill:#484847;}
	.st19{fill:#802E00;}
	.st20{fill:#734C5F;}
	.st21{fill:#F3C9B1;}
	.st22{fill:#C5947D;}
	.st23{fill:#F3C8B0;}
	.st24{fill:#FEF0E7;}
	.st25{fill:#040403;}
	.st26{fill:#040404;}
	.st27{fill:#C5947F;}
	.st28{fill:#484848;}
	.st29{fill:#C5957F;}
</style>
<g>
	<path class="st0" d="M28.2,110.2c-2.7,0.9-5.4,2.1-7.9,3c-0.5,0.3-0.9,0-1.3,0c-4.1-1.8-8.3-3.6-12.4-5.1c-0.5-0.3-0.9-0.6-1.3-1.2
		c-2-3.9-4-7.8-6.1-11.7C-1,94.6-1,94-0.8,93.4c1.4-4.5,2.9-9.3,4.3-14.1c0.2-0.9,0.5-1.2,1.3-1.2c4.5-0.9,8.8-1.5,13.3-2.4
		c0.7-0.3,1.1,0,1.3,1.2c0.4,1.5,0.7,3,1.1,4.8c0.5,0.6,0.5,1.5,0.7,2.1c0.4,2.1,0.9,3.9,1.3,6c0.2,0.6,0.2,1.2,0.5,1.5
		c2.2,0.9,4.5,1.2,6.7,1.5c2.7,0.6,3.1,0.3,3.2,4.2c0.2,3,0.5,6.3,0.7,9.3c0.2,1.8-0.2,2.1-1.4,2.7c-0.9,0.3-2,0.6-2.9,1.2
		C28.9,110.2,28.5,110.5,28.2,110.2z"/>
	<path class="st1" d="M32,108.7c1.3-0.3,1.4-1.2,1.3-2.4c-0.4-3.6-0.7-7.2-0.9-10.8c0-1.2-0.4-1.8-1.3-1.8c-0.5,0-1.1-0.3-1.6-0.3
		c-0.4-0.6-0.4-1.5-0.2-2.4c0.2-2.1,0.4-4.2,0.4-6.3c0-0.3,0-0.6,0-0.6c0.2-1.2-0.4-2.7,0.4-3.9c0.5,0,0.5,0.6,0.5,0.9
		c0,0.9,0.2,1.8,0,2.4c1.6-1.2,2.7-3.3,4.7-4.5c2.7-0.3,5.2-0.3,7.9-0.6c3.4-0.3,6.8-0.6,10.3-0.6c0.7,0,1.1,0.6,1.4,1.2
		c1.1,1.2,2.2,2.7,3.2,3.9c0.2,2.7,0,5.4,0.2,8.1c0,0.3-0.2,0.6-0.4,0.6c-1.1-0.3-1.3,0.6-1.4,1.5c1.4,0.3,1.6,0.6,2,3
		c0,3.6,0,7.2,0,10.8c-0.2,0.3-0.4,0.6-0.7,0.9c-4.1,2.4-8.3,4.8-12.4,7.2c-0.4,0.3-0.7,0.6-1.3,0.6c-3.6-1.8-7.2-3.6-10.8-5.4
		C32.3,109.6,31.8,109.3,32,108.7z"/>
	<path class="st2" d="M58.6,26.3c0,0.9,0.2,1.8,0.4,2.7c1.4,7.5,2.9,14.7,4.5,22.2c0.2,1.2,0,1.5-0.9,1.8c-2.9,1.2-5.8,2.4-8.8,3.9
		c-0.4,0.3-0.7,0.3-0.9,0.6c-1.8,1.2-3.8,1.8-5.8,2.7c-0.4,0-0.5,0.3-0.9,0c-1.1-2.1-1.6-4.5-2.3-6.9c-2.2-6.9-4.3-13.8-6.5-20.7
		c-0.2-0.9-0.7-1.5-0.5-2.4c0.2-0.3,0.5-0.6,0.9-0.6c6.5-2.1,13-4.2,19.3-6.3c0.2,0,0.4,0,0.5,0C58.4,24,58.4,25.1,58.6,26.3z"/>
	<path class="st1" d="M43.5,114.7c2.2-1.2,4.3-2.4,6.7-3.6c2.5-1.5,5.2-3,7.7-4.5c0.9,4.8,2,9.3,2.9,14.1c0.2,1.2,0.5,2.4,0.7,3.6
		c-0.2,0.6-0.5,0.6-0.9,0.9c-3.8,1.5-7.6,2.7-11.3,4.2c-0.4,0-0.7,0.3-1.1,0c-0.5-0.3-0.5-0.9-0.7-1.5c-1.1-3.6-2.3-7.5-3.4-11.1
		c-0.2-0.6-0.4-0.9-0.5-1.5C43.3,115,43.3,115,43.5,114.7z"/>
	<path class="st1" d="M43.5,114.7c0,0.3,0,0.3,0,0.6c0.4,0.6,0.4,1.5,0.4,2.4c-0.4,3-0.4,6-0.7,9.3c0,0.6-0.2,1.2-0.4,1.8
		c-0.5,0.3-1.1,0-1.6,0c-4.1-0.9-8.3-1.8-12.4-2.7c-0.4,0-0.7-0.3-1.1-0.3c-0.2,0-0.2,0-0.4-0.3c0.2-4.5,0.5-9,0.9-13.8
		c0-0.6,0-1.2,0-1.8c1.3-0.6,2.5-0.9,3.8-1.5c2,1.5,4.1,2.1,6.1,3.3C39.9,112.9,41.7,113.8,43.5,114.7z"/>
	<path class="st3" d="M37,29.9c1.6,5.7,3.4,11.4,5.2,17.1c1.3,4.2,2.5,8.4,4,12.9c0,0.9-0.9,0.6-1.3,1.2c1.4,0.9,2.9,1.5,4.3,2.1
		c0.5,0.3,1.1,0.3,1.3,1.2c0,0.6-0.4,0.9-0.5,1.2c-2.2,2.4-4.5,4.5-6.7,6.9c-1.1,1.2-1.3,0.9-2-0.3c-1.3-2.4-2.3-5.1-3.6-7.5
		c-0.2-0.3-0.4-0.6-0.4-0.9c-0.7-2.4-2-4.2-2.9-6.3c1.6-1.2,3.4-2.4,5-3.6c0.7-0.6,0.7-0.9,0.4-1.8c-0.7-1.5-1.4-3-2.2-4.5
		c-0.4-0.6-0.7-1.2-1.3-1.2c-0.7-1.5-1.6-2.7-1.8-4.5c0.7-0.6,1.4-1.2,2.2-1.8c0.5-0.3,0.5-0.6,0.4-1.2c-0.9-1.8-1.8-3.9-2.7-5.7
		c-0.2-0.6-0.5-1.2-0.4-1.8C34.8,30.2,35.9,29.6,37,29.9z"/>
	<path class="st4" d="M37.4,63.5c1.6,2.4,2.7,5.4,4.1,8.1c0.5,1.2,0.9,1.5,1.8,0.3c2.3-2.7,4.9-5.1,7.2-7.5c0,0,0.2-0.3,0.2,0
		c1.1,0.3,2.2,0.9,3.2,1.2c0.4,0.6,0.4,1.2,0.4,1.8c-0.2,3-0.4,6.3-0.5,9.3c0,0.3,0,0.9-0.4,1.2c-1.1,0.6-2.3,0.3-3.4,0.6
		c-3.2,0.3-6.7,0.6-9.9,0.6c-1.8,0-3.4,0.6-5.2,0.3c-0.5-1.2-0.5-2.4-0.5-3.6c-0.2-2.7-0.2-5.1-0.4-7.8c0-0.9-0.2-1.8,0.2-2.7
		C35,64.7,36.1,64.1,37.4,63.5z"/>
	<path class="st5" d="M66.5,145.5c3.8,0.3,7.6,0.6,11.3,0.9c0,0,0,0,0,0.3c-2.2,0.3-4.3,0.3-6.5,0.6c-3.8,0.3-7.4,0.9-11.2,1.2
		c-2.2,0.3-4.3,0.3-6.5,0.6c-3.6,0.3-7,0.9-10.6,0.9c-2.7,0-5.4-0.6-8.3-0.9c-2-0.3-3.8-0.3-5.8-0.6c-2.7-0.3-5.4-0.6-7.9-0.9
		c-1.8-0.3-3.6-0.3-5.2-0.6c-0.9,0-2-0.3-2.9-0.6c5.4-0.3,11-0.6,16.4-1.2c0.2,0.3,0,0.6-0.2,0.6c-0.2,0.3-0.7,0.6-0.7,1.2
		c2.7,0,5.4,0,8.3,0c1.4,0,2,0.3,1.6-2.1c0-0.3,0-0.3,0.2-0.6c0,0,0.2-0.3,0.4-0.3c2.5-0.3,5-0.6,7.6-0.3c2,0.3,4,0.3,5.9,0.6
		c0.5,0,1.1,0,1.6,0.6c0.5,1.2,1.4,1.5,2.7,1.5c1.1,0,2.2,0,3.2,0C62,145.8,64.4,145.8,66.5,145.5z"/>
	<path class="st3" d="M79.2,74.9c-2.7,4.2-5.4,8.4-8.1,12.6C70.7,88,70.1,88,69.6,88c-2.3-0.9-4.7-2.1-7-3c-0.2-0.6,0.4-0.9,0.7-1.2
		c1.4-1.5,2.9-3,4.3-4.5c0.4-0.3,0.7-0.6,1.3-0.9c2-2.1,4-4.2,5.9-6c1.1-0.6,2,0,3.1,0c0.7,0.3,1.3,1.2,1.6,2.1
		C79.2,74.9,79.2,74.9,79.2,74.9z"/>
	<path class="st6" d="M35.9,6.9c3.4-2.4,7-4.5,10.6-6.9c0.4,0.6,0.2,1.2,0,1.8c-0.4,1.2-0.7,2.4-1.1,3.9c-0.4,1.8-0.4,1.8,0.9,3
		c1.1,0.9,2.2,1.8,3.2,2.7c0.4,0.3,0.7,0.6,0.7,1.2c0.2,0.9,0.2,1.8,0,2.7c-0.2,0.9-0.2,1.8,0.2,2.4c0,0.6-0.4,0.6-0.7,0.6
		c-2.2,0.6-4.3,1.5-6.5,2.1c-0.4,0-0.9,0.3-1.3,0c-0.4-0.6,0-1.2,0-1.8c0.7-3,1.3-6,2-9c0.4-1.8,0.4-1.8-1.3-1.8
		c-1.8,0-3.4-0.3-5-0.3C37,7.5,36.3,7.5,35.9,6.9z"/>
	<path class="st7" d="M33.9,31.1c1.1,2.4,2.3,4.8,3.4,7.5c0.4,0.6,0.4,0.9-0.4,1.5c-0.9,0.6-1.6,1.2-2.5,1.5
		c-0.5-0.3-0.7-0.6-0.9-1.2c-0.7-1.2-0.9-1.5-2-0.6c-1.1,0.9-2.2,1.5-3.4,2.4c-0.4,0.3-0.9,0.6-1.3,0.3c-0.4-0.9-0.9-1.8-1.3-2.7
		c-0.2-0.6-0.7-0.6-1.1-0.9c0.2-0.9-0.5-1.5-0.7-2.4c-0.2-0.6-0.7-1.2-0.5-2.1c0.4-0.6,0.7-0.6,1.3-0.6c2.5-0.6,4.9-1.5,7.2-2.4
		C32.5,31.1,33.2,30.5,33.9,31.1z"/>
	<path class="st1" d="M28.5,125.7c2.5,0.6,5.2,0.9,7.7,1.5c2.2,0.3,4.1,0.9,6.3,1.2c0.4,0.6,0.4,1.2,0.4,1.8
		c-0.2,2.4-0.2,4.8-0.5,7.2c-0.2,1.8-0.5,1.8-1.8,1.5c-0.9-0.3-1.8-0.3-2.7-0.6c-1.3-0.3-2.5-0.3-3.6-1.2c-2.3-0.6-4.5-1.2-6.8-1.8
		c-0.2,0-0.4-0.3-0.5-0.3c0.5-0.6,1.1-0.3,1.6-0.3c4.1,0,8.3,0,12.6,0c-4.1-3-7.9-5.1-11.5-7.5c-0.5-0.3-1.1-0.6-1.4-1.2
		C28.2,125.7,28.2,125.7,28.5,125.7z"/>
	<path class="st6" d="M17.4,29c-1.3,0.3-2.5,0.9-4,1.5c1.8-3.3,3.6-6.3,5.2-9.3c-1.8-1.2-3.8-1.8-5.9-3c3.4-1.2,6.5-2.4,9.5-3.9
		c0.2,0.9-0.4,1.2-0.7,1.8c-0.5,1.2-1.3,2.4-2,3.6c-0.5,0.9-0.4,1.2,0.4,1.5c2.3,1.2,4.9,2.4,7.4,3.6c0.2,0,0.2,0.3,0.2,0.3v0.3
		c-1.4,1.2-3.1,1.5-4.7,2.1c-0.7,0.3-1.4,0.6-2.3,0.9C19.4,28.4,18.5,29.3,17.4,29z"/>
	<path class="st2" d="M29.8,83.8c0,0.3,0,0.3,0,0.6c-1.6,2.1-3.6,3.6-5.4,5.7c-0.5,0.6-1.1,1.5-2,1.5c-0.7-1.2-0.7-2.7-1.1-3.9
		c-0.5-2.1-0.9-3.9-1.3-6c1.4-1.5,2.5-3.6,3.8-5.1C26.2,78.7,28,81.1,29.8,83.8z"/>
	<path class="st1" d="M60.6,124.6c0.4-0.3,0.5-0.3,0.9-0.6c0.9,3.3,1.8,6.6,2.3,10.2c-1.8,0.6-3.6,0.9-5.4,0.9c-2.3,0-4.7,0-6.8,0
		c-0.5,0-0.9,0-1.4-0.3c-0.7-0.6-0.2-0.9,0.2-1.2c0.9-0.9,2-1.8,2.9-2.7C55.7,128.7,58.3,126.9,60.6,124.6z"/>
	<path class="st1" d="M28.2,126c4.5,2.7,9,5.4,13.5,8.1v0.3c-5,0-9.9,0-14.9,0c-0.2,0-0.4,0-0.4-0.3c0.4-3,0.4-6,0.9-8.7
		c0.2,0,0.2,0,0.2,0C27.8,125.7,28.2,125.7,28.2,126z"/>
	<path class="st7" d="M22.4,14.4c0.9-1.5,2-3.3,2.9-4.8c0.2,0,0.4,0,0.4,0c2.2,1.2,4,2.4,5.8,3.9l0.2,0.3c-0.9,3.6-2,6.9-3.1,10.5
		c-0.2,0.3-0.2,1.2-0.9,0.9l0,0c-0.4-0.3-0.5-0.9-0.9-1.2c-1.3-2.7-2.5-5.1-3.8-7.8C22.6,15.6,22.2,15,22.4,14.4z"/>
	<path class="st2" d="M68.5,78.7c-1.8,1.8-3.4,3.6-5.2,5.4c-0.4,0.3-0.5,0.9-0.9,1.2c-1.4-0.6-3.1-1.2-4.5-1.8
		c-0.2,0-0.2-0.3-0.2-0.6c1.3-3.3,2.9-6.6,4.1-9.9c0.2-0.3,0.2-0.3,0.4-0.6c1.8,1.8,3.6,3.6,5.2,5.4C67.8,78.4,68.2,78.4,68.5,78.7z
		"/>
	<path class="st1" d="M33.9,65.3c0.2,4.5,0.5,9.3,0.7,14.1c-1.4,1.5-2.9,3-4.7,4.5c0-1.5,0-2.7,0-3.9c-0.2-0.3-0.4-0.6-0.4-0.9
		c-0.2-3.6,0.2-7.2,0.2-10.8c0-0.3,0.2-0.6,0.4-1.2C31.2,66.2,32.7,65.9,33.9,65.3z"/>
	<path class="st1" d="M53.2,77.8c0.2-4.2,0.4-8.1,0.5-12.3c1.4,0.6,2.9,0.9,4.1,1.8c0.2,0.3,0.4,0.9,0.4,1.2c0,3,0.2,6.3,0,9.3
		c-0.4,1.2-0.2,2.1-0.2,3.3c0,0.6,0.2,1.2-0.5,1.5C55.9,81.1,54.5,79.6,53.2,77.8z"/>
	<path class="st7" d="M50.2,12.3c-1.4-1.2-3.1-2.7-4.5-3.9c-0.5-0.6-0.7-0.9-0.5-1.8C45.7,4.5,46,2.4,46.6,0c0.5,0,0.7,0.3,1.1,0.6
		C50,2.4,52.1,4.2,54.5,6c0.2,0.6-0.2,0.9-0.4,1.2c-1.1,1.5-2.2,3-3.2,4.5C50.5,12,50.5,12.3,50.2,12.3z"/>
	<path class="st7" d="M35.9,6.9c2.5,0.3,5.2,0.6,7.7,0.6c0.9,0,1.1,0.3,0.7,1.2c-0.9,3.9-1.8,7.8-2.5,11.7c0,0.3-0.2,0.3-0.4,0.3
		s-0.2-0.3-0.2-0.3c-1.8-3.9-3.4-7.8-5.2-11.4C35.9,8.4,35.4,7.8,35.9,6.9C35.8,6.9,35.8,6.9,35.9,6.9z"/>
	<path class="st6" d="M35.8,6.9c0.9,2.7,2.3,5.1,3.4,7.8c0.7,1.8,1.8,3.6,2.5,5.7c-0.4,0.3-0.7,0-0.9-0.3c-1.3-0.9-2.7-1.8-4-2.7
		c-1.3-0.9-2.7-1.8-4-2.7c-0.5-0.3-1.1-0.6-1.4-1.2v-0.3c0-1.8,0.9-3.3,1.3-4.8c0.2-0.6,0.5-1.2,0.2-2.1c0.7,0,0.7,0,1.4-2.4
		C35,5.1,35,6.3,35.8,6.9z"/>
	<path class="st7" d="M50.2,12.3c1.4-2.1,3.1-3.9,4.3-6c0.5-0.9,1.3-1.5,1.8-2.4c0.7,0.3,0.2,1.2,0.2,1.8c0,0.9,0,1.5,0,2.4
		c0.2-0.3,0.2,0,0.2,0c-0.2,2.4,0.2,5.1-0.5,7.5c-0.4,0.6-0.9,0.6-1.4,0.9c-1.1,0.3-2.2,0.9-3.2,1.2c-0.4,0-0.7,0.3-1.1,0
		c-0.9-0.6-0.5-1.5-0.4-2.1C50.2,14.4,50.2,13.2,50.2,12.3z"/>
	<path class="st4" d="M30.2,67.1c0,4.2-0.2,8.4-0.2,12.9c-0.4,1.2,0,2.7-0.2,3.9c-2-2.4-4-4.8-5.8-7.5C26,73.4,28.2,70.4,30.2,67.1z
		"/>
	<path class="st2" d="M27.1,42.2c0.5,0.3,0.9-0.3,1.4-0.6c1.3-0.9,2.5-1.8,3.8-2.7c0.5-0.3,0.9-0.6,1.3,0.3c0.4,0.6,0.7,1.5,1.1,2.1
		c0.5,1.5,1.4,2.7,1.8,4.5c-0.2,0.9-0.9,1.2-1.6,1.2c-1.1-0.6-1.3-1.8-1.8-2.7c-0.2-0.3-0.2-0.6-0.4-0.9c-0.7-1.5-0.9-1.5-2-0.3
		c0.4,0.6,1.3,0.3,1.4,1.2c0,0.9,0.4,1.5,0.5,2.1c0.2,0.6,0.5,0.9,0.5,1.5c-0.7,0.6-1.4,1.5-2.3,1.5C29.6,47.3,28.4,44.6,27.1,42.2z
		"/>
	<path class="st7" d="M17.4,29c1.1-0.3,2-0.9,2.9-0.9c1.3,1.8,2.5,3.9,2.9,6.3c-0.5,0.9-1.3,1.2-2,1.5c-0.7,0.3-1.4,0.6-2.2,1.2
		c-1.1,0-1.8,0.9-2.9,1.2C16.7,35,17,32,17.4,29z"/>
	<path class="st7" d="M32.9,6.6c0.5,0.3,0.5,0.6,0.4,1.2c-0.5,1.8-1.3,3.9-1.8,5.7c-2-1.2-4-2.7-5.9-3.9c-0.2-0.9-0.4-1.8-0.5-2.7
		C24.8,6,24.9,6,25.5,6C28,6.3,30.3,6.3,32.9,6.6z"/>
	<path class="st1" d="M30.9,50c0.7-0.6,1.4-1.2,2.3-1.8c0.7,0.3,0.9,0.9,0.9,1.8c-0.5,0.6-0.4,1.5,0,2.1c1.1,2.4,1.1,2.4,2.9,0.9
		c1.1-0.9,1.1-0.9,0.4-2.1c-0.4-0.9-0.5-2.1-1.8-1.8c-0.7-0.3-1.1-0.9-0.9-1.8c0.5-0.3,1.1-0.9,1.6-1.2c0.4-0.3,0.7-0.3,0.9,0.3
		c0.9,2.1,2,3.9,2.9,6c0.2,0.3,0.4,0.6,0,0.9c-1.8,1.2-3.8,2.7-5.6,3.9c0,0-0.2,0-0.4,0C33.2,54.8,32.1,52.4,30.9,50z"/>
	<path class="st7" d="M22.4,14.4c0.9,2.7,2.3,4.8,3.4,7.2c0.5,1.2,1.3,2.1,1.6,3.6c-2.2-0.6-4-1.8-6.1-2.7c-0.5-0.3-1.3-0.6-1.8-0.9
		c-0.7-0.3-0.7-0.9-0.2-1.5c1.1-1.8,2-3.6,2.9-5.4C22.4,14.7,22.4,14.4,22.4,14.4z"/>
	<path class="st6" d="M57,8.1c2.9,2.1,5.8,4.2,8.5,6.3c0.4,0.3,0.5,0.6,0.2,0.9c-1.3,1.5-2.3,2.7-3.6,4.2c-0.2,0-0.4,0-0.4-0.3
		c-1.3-3-2.7-5.7-4.1-8.7c-0.4-0.6-0.9-1.5-0.9-2.4C56.6,8.1,56.8,8.1,57,8.1C56.8,8.1,56.8,8.1,57,8.1z"/>
	<path class="st2" d="M57.5,138.3c1.3,1.5,2.5,3.3,3.8,4.8c0.2,0.3,0.4,0.6,0.7,0.6c-0.4,1.2-1.3,1.8-2.3,2.1
		c-1.1,0.3-2.2,0.3-3.4,0.3c-0.5,0-1.1-0.3-1.4-0.9c-0.4-0.6-0.9-1.2-1.3-1.8c-0.2-0.3-0.4-0.9-0.2-1.5
		C54.8,140.7,56.3,139.5,57.5,138.3z"/>
	<path class="st4" d="M57.9,78.1c0-3.6,0-7.2,0-10.8c1.4,1.8,2.9,3.6,4.3,5.4c-1.4,3.6-2.7,6.9-4.3,10.2
		C57.5,81.1,57.7,79.6,57.9,78.1z"/>
	<path class="st1" d="M49.8,134.4c0.4,0.3,0.7,0.3,1.3,0.3c2.9,0,5.8,0,8.8,0c1.3,0,2.7-0.3,4-0.3c-1.6,0.9-3.4,1.5-5.2,2.1
		c-0.5,0.3-1.3,0.6-1.8,0.6c-0.9,0.9-2,0.9-3.1,1.5c-2.7,1.2-2.7,1.2-3.6-2.1C50,135.9,49.6,135.3,49.8,134.4
		C49.6,134.1,49.8,134.1,49.8,134.4z"/>
	<path class="st2" d="M77.7,72.8c-1.1,0.3-2.2,0-3.2-0.3c0.4-0.9,0.7-1.5,0.9-2.4c0.2-1.2,0.7-2.1,1.1-3.3c0.9-1.8,2.2-1.2,3.4-0.6
		c0.4,0.3,0.9,0,1.3,0.3c0.2,1.5,0.5,3,0.4,4.5c-0.5,0.9-0.9,0-1.3-0.3c-1.3-1.2-1.3-1.2-2,0.6C78.3,71.9,78.3,72.5,77.7,72.8z"/>
	<path class="st2" d="M32.5,143.1c0.5-1.5,0.7-3,1.1-4.5c1.4,0.9,3.1,1.8,4.7,2.4c0.4,0.9,0.5,1.8,0.4,2.7l0,0
		c-0.2,0.3-0.4,0.3-0.4,0.6c-1.4,2.7-2.9,2.7-4.7,0.3C33.2,144.3,32.5,144,32.5,143.1z"/>
	<path class="st7" d="M61.7,19.2c0.2,0,0.2,0.3,0.2,0.3c-1.1,2.1-2.3,4.5-3.4,6.6c-0.5-0.9-0.4-2.1-0.9-3c-0.9-2.4-1.4-4.5-1.4-7.2
		c0.2-0.3,0.4-0.3,0.5-0.3C58.4,16.8,60.2,17.7,61.7,19.2z"/>
	<path class="st8" d="M50.5,64.1h-0.2c-1.4-1.2-3.1-1.5-4.7-2.4c-0.5-0.3-0.9-0.6-1.6-0.9c0.9-0.3,1.4-0.9,2.2-1.2
		c1.8-0.6,3.6-1.5,5.4-2.1c0.4,0,0.7-0.6,1.1-0.3C52.1,59.6,51.4,62,50.5,64.1z"/>
	<path class="st9" d="M76.6,66.8c0.2,1.5-0.7,2.1-1.1,3.3c-3.1-4.2-6.3-8.4-9.4-12.3c0.2,0,0.2-0.3,0.4,0
		C69.8,60.8,73.2,63.8,76.6,66.8z"/>
	<path class="st6" d="M61.7,19.2c-2-0.9-3.6-2.4-5.4-3.3c-0.2,0-0.2,0-0.2-0.3c0.4-2.7,0-5.4,0.5-8.1c0.2,0,0.4,0.3,0.4,0.3
		c0.2,1.5,1.1,2.7,1.6,4.2c0.9,2.1,2,4.2,3.1,6.6C61.9,18.9,61.9,19.2,61.7,19.2z"/>
	<path class="st0" d="M79.2,74.9L79.2,74.9c0.7-1.5,1.4-2.7,2.5-3.6c1.1,0.3,1.8,1.2,2.5,2.1c0.4,0.6,1.1,0.9,1.3,1.5
		c-0.9,1.5-1.8,3-2.9,4.2C81.1,77.8,80.4,76,79.2,74.9z"/>
	<path class="st1" d="M32.5,143.1c0.7,0.9,1.3,1.8,2,2.7c0.7,0.9,2.5,0.6,3.2-0.6c0.4-0.6,0.2-1.5,1.1-1.2c0.2,3,0.2,3-2.3,3
		c-2.7,0-5.6,0-8.3,0H28c0,0,0,0,0-0.3c1.3-0.9,2.5-0.3,3.8-0.3c0.5,0,1.3,0,1.6,0.3c-0.7-0.3-1.8-0.3-2.9-0.6
		c-0.5-0.3-1.1-0.3-1.4-0.6c0.2-0.3,0.2-0.3,0.2-0.6c0.5-0.6,1.1-1.2,1.6-1.8C31.6,141.9,32,142.2,32.5,143.1z"/>
	<path class="st1" d="M53.9,143.4c0.2,0.3,0.5,0.6,0.7,0.9c0.9,1.5,2.2,1.8,3.6,1.5c1.4-0.3,2.9-0.6,4-2.1c1.4-1.5,1.4-1.5,2.9,0.3
		c0.4,0.3,0.5,0.6,0.9,1.2c-2,0.9-4,1.2-5.9,1.2c-1.8,0.6-3.4,0.3-5.2,0.3c-0.7,0-0.4-1.2-0.7-1.5C53.8,144,53.8,143.7,53.9,143.4z"
		/>
	<path class="st7" d="M19,37.1c0.2-0.9,0.9-0.9,1.3-1.2c0.9-0.6,2-1.2,2.9-1.5h0.2c0.5,0.9,1.1,2.1,1.4,3c0.2,0.3,0.7,0.9-0.2,1.2
		C22.8,38.3,21,37.7,19,37.1z"/>
	<path class="st10" d="M38.3,141.3c-0.2,0.3-0.4,0.3-0.5,0c-1.1-0.6-2.3-1.2-3.4-1.8c-0.4-0.3-0.5-0.3-0.5-0.9
		c0.2-0.6,0.4-1.2,0.5-1.8c1.3,0.3,2.5,0.6,3.8,0.9C38.3,138.9,38.6,139.8,38.3,141.3z"/>
	<path class="st11" d="M84,73.4c-0.9-0.6-1.6-1.2-2.5-2.1l0,0l0,0c-0.2-1.2-0.2-2.1-0.4-3.3c0-0.6-0.2-1.2,0.2-1.5
		c1.6,0,2.3,1.2,2.3,3.3C83.7,71,84.2,72.2,84,73.4z"/>
	<path class="st10" d="M53.4,138.3c1.1-0.3,2.2-0.9,3.2-1.2c0.4,0.3,0.5,0.6,0.9,1.2c-1.1,1.5-2.3,2.7-3.8,3.9
		C53.2,140.7,53.2,139.5,53.4,138.3z"/>
	<path class="st12" d="M82.6,79c0.9-1.5,1.8-3,2.9-4.2c0.4,1.8,0.7,3.3,1.1,4.8c-0.7,0.9-1.1,0.3-1.6-0.3C84,79.6,83.3,79.3,82.6,79
		z"/>
	<path class="st12" d="M57.9,78.1c0,1.5,0,3.3,0,4.8c0,0.3,0,0.3,0,0.6c0,4.2,0,8.4,0,12.3c-0.2-0.6-0.4-0.9-0.5-1.5
		c-0.2-0.9-0.5-1.2-1.4-0.9c-0.2,0-0.5,0.3-0.7,0c-0.2-0.3,0.2-0.6,0.2-0.6c0.2-0.3,0.4-0.9,0.5-1.2c0.2-0.6,0.5-1.2,1.1-0.3
		c0.2,0.3,0.5,0.3,0.5-0.3c-0.2-2.7,0.4-5.4-0.2-8.1c0.5-0.9,0.2-1.8,0.2-2.7C57.7,79.3,57.5,78.7,57.9,78.1z"/>
	<path class="st12" d="M84.7,79.6c0.5,0,1.1,0.6,1.6,0.3c0.2,0,0.4,0.3,0.5,0.3c1.4,0,1.8,1.5,2.2,2.7c-1.1-0.3-2.2-0.3-3.2-0.6
		c-0.5,0-0.7-0.3-0.7-0.9C84.9,81.1,84.9,80.5,84.7,79.6z"/>
	<path class="st1" d="M59.9,145.8c1.4,0,2.9-0.6,4.3-0.9c0.5,0,1.1-0.3,1.6-0.3c0.2,0.3,0.5,0.6,0.7,0.9c0,0.3,0.2,0.6-0.2,0.6
		C64.2,146.1,62.2,146.1,59.9,145.8C60.1,146.1,59.9,146.1,59.9,145.8z"/>
	<path class="st13" d="M56.5,5.4c-0.2-0.6,0.2-1.2-0.2-1.8c0.2-0.3,0.4-0.3,0.4,0C56.8,4.2,56.8,4.8,56.5,5.4z"/>
	<path class="st14" d="M66.4,57.5c-0.2,0-0.2,0-0.4,0c-0.2-0.3-0.4-0.3-0.7-0.9C65.8,56.9,66.2,57.2,66.4,57.5z"/>
	<path class="st2" d="M12.2,93.4L12.2,93.4c-1.8-1.8-1.8-1.8,0-3.6c0.5-1.2,1.4-2.1,2.3-3c0.2,0,0.4,0,0.5,0
		c0.5,0.9,1.6,1.5,1.3,2.7c-0.9,0.9-1.6,1.8-2.5,2.4C13.2,92.8,12.9,93.4,12.2,93.4z"/>
	<path class="st15" d="M15,87.1c-0.2,0-0.4,0-0.4,0c-0.9,0.6-1.8,0.9-2.9,0.3c0.9-1.2,2.2-2.1,3.2-3.3c0.4-0.3,0.5,0,0.5,0.3
		c0.9,1.8,1.8,3.6,2.5,5.4c0.5,1.2-0.4,1.2-0.9,1.5c-0.5-0.3-0.5-1.2-0.7-1.8C16.3,88.6,16.1,87.4,15,87.1z"/>
	<path class="st16" d="M8.6,97.6c0,0.9-0.9,3.3-1.3,3.3c-0.7,0-2.7-1.2-2.5-1.5C5.1,98.5,5,96.7,6,96.7C6.9,96.4,7.8,97,8.6,97.6z"
		/>
	<path class="st1" d="M24.8,105.1c-0.4,1.2-0.5,2.1-0.9,3c-0.2,0.3-0.4,0.3-0.5,0.3c-0.7-0.3-1.3-0.6-2-0.9
		c-0.4-0.3-0.4-0.6-0.4-0.9c0.2-0.9,0.5-1.5,0.7-2.4c0-0.3,0.2-0.3,0.4-0.3c0.7,0.3,1.6,0.6,2.3,0.9
		C24.6,104.8,24.8,104.8,24.8,105.1z"/>
	<path class="st12" d="M30,101.2c0,1.5-0.9,3.3-1.3,3.3c-0.9,0-2.5-1.2-2.3-1.5c0.4-0.9,0.2-2.7,1.3-2.7
		C28.4,100,29.4,100.6,30,101.2z"/>
	<path class="st17" d="M13.4,102.4c0,1.2-0.9,3.3-1.3,3.3c-0.7,0-2.5-1.2-2.3-1.5c0-0.9,1.1-3,1.3-3
		C11.6,101.5,12.7,101.5,13.4,102.4z"/>
	<path class="st18" d="M7.3,87.7c-0.7-0.3-1.6-0.6-2.3-1.2c-0.2,0-0.2-0.3-0.2-0.6c0-0.3,0.2-0.3,0.2-0.6c0.7-2.7,1.1-3,3.2-1.5
		c0.2,0,0.4,0,0.4,0.3c-0.4,1.2-0.5,2.1-0.9,3C7.7,87.7,7.5,87.7,7.3,87.7z"/>
	<path class="st19" d="M6.8,90.7c-0.4,0.9-0.5,2.1-0.9,3c-0.2,0.3-0.4,0-0.5,0S5,93.7,5,93.4c-2.2-0.6-2.5-1.5-1.3-3.6
		c0.2-0.3,0.4-0.6,0.5-0.3c0.7,0.3,1.4,0.6,2.2,0.9C6.6,90.4,6.8,90.4,6.8,90.7z"/>
	<path class="st20" d="M16.1,103.3c0.7,0.3,1.6,0.6,2.3,1.2c0.4,0.3,0.2,0.6,0.2,0.9c-0.5,2.7-1.4,3-3.4,1.5c-0.2,0-0.4,0-0.4-0.3
		c0.4-0.9,0.5-2.1,0.9-3C15.8,103.6,15.9,103.6,16.1,103.3z"/>
	<path class="st21" d="M15,87.1c0.7-0.3,1.3,0,1.4,0.9c0.2,1.2,0.5,2.1,0.9,3.3c-0.7,0.9-1.3,1.8-2.3,2.1c-0.4-1.5,0.5-2.7,1.1-3.9
		C16.3,88.3,15.2,88,15,87.1z"/>
	<path class="st22" d="M16.1,89.5c-0.4,1.2-0.7,2.7-1.1,3.9c0,0.3-0.2,0.6-0.4,0.6c-0.5-0.6-0.9-1.2-0.9-1.8
		C14.5,91.3,15.2,90.4,16.1,89.5z"/>
	<path class="st23" d="M11.8,87.4c0.9,0,1.8-0.3,2.9-0.3c-0.7,1.2-1.4,1.8-2.3,2.7c0.2-0.6-0.2-0.9-0.4-1.2
		C11.6,88.3,11.3,87.7,11.8,87.4z"/>
	<path class="st0" d="M13.6,92.2c0.4,0.6,0.7,1.2,0.9,1.8c-0.7-0.3-1.6,0-2.3-0.6C12.7,93.1,13.1,92.5,13.6,92.2z"/>
	<path class="st12" d="M37.6,92.8c0-2.7,0-5.4,0-8.1c0-0.9,0.4-1.2,1.1-1.2c3.6,0,7,0,10.6,0c0.7,0,0.9,0.3,0.9,1.2
		c0,4.5,0,8.7,0,13.2c0,0.9-0.4,1.2-1.1,1.2c-3.4,0-6.8,0-10.1,0c-1.1,0-1.4-0.3-1.3-1.8c0.5-0.6,1.3-0.9,2-1.2
		c0.9-0.3,1.1-0.9,0.9-1.8c-0.2-0.9,0-1.8,0.7-2.4c0.9-0.6,0-1.5-0.2-2.4C40.6,90.4,40.1,91,39,91c-0.4,0-0.5,0.3-0.5,0.6
		C38.1,92.2,38.1,92.8,37.6,92.8z"/>
	<path class="st20" d="M37.6,92.8c0.2-0.3,0.4-0.6,0.4-0.9c0.2-0.9,0.5-1.2,1.3-0.9c0.5,0,1.1,0,1.1-0.9c0-0.3,0.2-0.6,0.5-0.6
		s0.5,0.3,0.5,0.6c0.2,0.6,0.4,0.9,0.5,1.5c0.2,0.6,0.2,1.2-0.4,1.5c-0.7,0.3-0.9,0.6-0.7,1.5c0.4,2.1,0.2,2.1-1.4,2.7
		c-0.5,0.3-1.1,0.3-1.8,0.6l0,0C37,95.8,37,94.3,37.6,92.8L37.6,92.8z"/>
	<path class="st12" d="M51.4,102.7c-0.2,0.6-0.2,0.9-0.4,1.5c-0.4,0.9,0,2.1-0.9,2.7c-0.7,0.3-2.5-2.4-2.5-3.6s0.9-1.5,1.6-2.1
		c0.7-0.6,1.1,0.3,1.8,0.6C51.4,101.8,51.6,102.4,51.4,102.7z"/>
	<path class="st20" d="M37.6,92.8c0,1.5,0,3,0,4.5c-0.5,0-1.1,0.3-1.4-0.3c-0.4-0.9-0.7-2.1-0.9-3.3c-0.2-0.3,0.5-0.6,0.7-0.6
		C36.5,93.1,37,93.1,37.6,92.8z"/>
	<path class="st20" d="M43.9,102.7c0.2,0.9-0.5,0.9-1.1,0.9c-0.9,0-0.5-1.2-0.7-1.8c-0.2-0.3,0-0.6,0.4-0.6
		C43.1,101.8,44,101.5,43.9,102.7z"/>
	<path class="st12" d="M56.1,15.9l0.2,0.3c0.4,2.4,1.1,4.8,1.4,7.2c-4.1,1.5-8.3,2.7-12.4,4.2c-2.7,0.9-5.4,1.8-8.1,2.7
		c-1.1,0.3-2.2,0.6-3.2,1.2c-0.7,0-1.3,0.3-2,0.3c0,0,0,0,0-0.3c0.2-0.9,0.4-1.8,0.9-2.4c4.1-2.7,8.3-4.8,12.6-7.2
		c1.8-1.2,3.8-2.1,5.6-3.3c1.3-0.6,2.5-1.2,3.8-2.1C55,15.9,55.6,15.9,56.1,15.9z"/>
	<path class="st24" d="M53,36.2c0.2,0.9,0.9,1.8,0.5,3c-1.1,0.9-2.3,1.5-3.6,1.2c-0.2,0-0.4-0.3-0.5-0.3c-1.3-3-1.8-6.3-2.7-9.6
		c-0.2-0.3,0-0.6,0.2-1.2c1.1-0.3,2.2-0.6,3.1-1.2c0.4-0.3,0.7-0.3,1.3,0c0.4,0.3,0.5,0.6,0.5,1.2c0.4,1.8,0.9,3.3,1.3,5.1
		C53.2,35,53.2,35.6,53,36.2z"/>
	<path class="st3" d="M46.9,29.6c0.4,2.4,1.3,4.8,1.8,7.2c0.2,1.2,0.5,2.1,0.7,3.3c-0.9-0.9-1.3-2.4-2.3-3.3c-0.5,0-0.7-0.6-0.7-0.9
		c-0.2-1.2-0.7-1.5-1.6-1.2c-0.7,0.3-1.4,0.3-2.2,0c0.7-1.8,2.3-2.7,3.4-4.2C46.4,29.9,46.6,29.6,46.9,29.6z"/>
	<path class="st3" d="M53,36.2c-0.5-2.7-1.3-5.1-1.8-7.8c0-0.3,0-0.6,0.2-0.6c1.3,0,2.7,0.3,4,0.3c0.5,0,0.9,0,1.3,0.6
		c-0.5,0.6-1.3,0.9-1.8,1.5c-0.5,0.6-1.1,0.9-0.7,1.8c0.2,0.6,0.2,1.2-0.2,1.8C53.2,34.4,53.8,35.6,53,36.2z"/>
	<path class="st12" d="M48.9,47c1.1-0.9,2.3-2.1,3.4-3c0.5-0.3,1.1-0.3,1.4,0c0.7,0,1.6,0,2.3,0.3c0.5,0,1.1,0.3,0.4,0.9
		c-1.4,1.2-2.9,2.7-4.9,2.4c-0.7,0-1.4,0-2,0C49.4,47.6,49.1,47.9,48.9,47z"/>
	<path class="st12" d="M48.9,47c2.7,0.3,5.4,0,7.6-2.1c0.5-0.6,0-0.6-0.2-0.6c0.4,0,0.9,0,1.3,0.3c-1.1,1.5-2.3,3-3.4,4.5
		c-0.4,0.3-0.5,0.3-0.9,0.3c-1.8-0.6-3.8-1.2-5.8-1.8C48.2,47.3,48.5,47.3,48.9,47z"/>
	<path class="st7" d="M56.6,29c-1.6-0.3-3.1-0.6-4.7-0.9c-0.2,0-0.5,0-0.5-0.3c1.3-0.3,2.5-0.6,3.6-1.2c1.1-0.6,1.4,0,1.6,1.2
		C56.6,28.1,56.8,28.4,56.6,29z"/>
	<path class="st7" d="M46,29.9c-0.9,1.8-2.2,2.7-3.4,4.2c-0.9-2.4-0.9-2.4,1.1-3.3C44.4,30.5,45.1,30.2,46,29.9z"/>
	<path class="st25" d="M53.9,33.8c0-0.6,0-1.2,0.2-1.8c0.7-0.6,1.3-0.3,1.6,0.3c0.5,0.9,0.7,1.8,0.2,2.4c-0.4,0.6-0.9,0.6-1.4,0
		C54.3,35,54.1,34.4,53.9,33.8z"/>
	<path class="st26" d="M46.4,35.6c0.2,0.3,0.5,0.6,0.7,0.9c0,0.3,0,0.3,0,0.6c0.2,0.6,0.2,1.5-0.5,1.8c-0.5,0.3-0.9,0-1.3-0.3
		c-0.5-0.6-0.7-1.5-0.4-2.4C45.5,35.3,45.8,35.3,46.4,35.6z"/>
	<path class="st27" d="M50,40.4c1.3-0.3,2.3-0.6,3.6-1.2c0,1.2-0.7,1.8-1.1,2.7l-0.4,0.3C51.4,41.3,50.3,41.3,50,40.4z"/>
	<path class="st1" d="M49.6,134.4c-0.7-1.8-1.1-3.6-1.6-5.4c4.1-1.5,8.3-3,12.4-4.5c0.7,0.3,0,0.3,0,0.6c-2.3,2.1-4.5,3.9-6.8,6
		c-1.3,1.2-2.5,2.1-3.8,3.3C49.8,134.4,49.8,134.4,49.6,134.4z"/>
	<path class="st20" d="M28.2,126c-0.2-0.3-0.4-0.3-0.7-0.6c0.4,0,0.7,0,0.9,0.3C28.4,125.7,28.4,126,28.2,126z"/>
	<path class="st1" d="M29.1,145.2c1.6,0.3,3.2,0.9,4.9,1.2v0.3c-2,0-4,0-5.9,0C28.2,146.1,28.7,145.8,29.1,145.2z"/>
	<path class="st28" d="M81.5,71.3L81.5,71.3c-0.9,1.2-1.4,2.7-2.5,3.6c-0.5-0.6-0.9-1.2-1.4-1.8c0.4-1.2,0.9-2.4,1.3-3.9
		C79.9,69.8,80.8,70.7,81.5,71.3z"/>
	<path class="st12" d="M54.7,16.2c0.2,0.3-0.2,0.3-0.2,0.3c-7.2,4.2-14.2,8.1-21.4,12.3h-0.2l-0.2-0.3c0.5-2.1,0.9-4.2,2.2-6
		c2-0.9,4-1.5,5.8-2.1c0.4,0,0.7,0,1.1,0c0.2,0,0.2,0,0.4-0.3c1.8,0,3.8-0.9,5.6-1.5c0.9-0.3,1.8-0.6,2.7-0.9
		C51.8,17.1,53.2,16.8,54.7,16.2z"/>
	<path class="st12" d="M23.5,34.4C23.3,34.4,23.3,34.4,23.5,34.4c-1.1-2.1-2.2-4.2-3.1-6.3c1.6-1.2,3.4-1.2,5-2.1
		c0.7-0.3,1.4-0.6,2.2-0.9c0.2,0,0.4,0,0.5,0c1.1,1.5,2.3,2.7,2.7,4.5c-0.2,0.6-0.5,0.9-1.1,0.9c-1.8,0.9-3.4,2.1-5.2,2.7
		C24.2,34.1,23.9,34.1,23.5,34.4z"/>
	<path class="st12" d="M24.6,33.8c1.6-1.2,3.2-2.1,4.9-3c0.4-0.3,0.9-0.3,1.3-0.9c0.7,0,0.9,0.9,1.1,1.5l0,0
		C29.4,32.6,27.1,33.2,24.6,33.8z"/>
	<path class="st6" d="M31.8,31.4c-0.5-0.3-0.5-1.2-1.1-1.5c-1.1-1.5-1.8-3.3-3.2-4.8v-0.3c0.7-0.3,0.7-1.2,0.9-1.8
		c1.1-3,2-6.3,2.9-9.6c1.8,1.2,3.6,2.4,5.4,3.6c-0.5,1.5-1.1,3-1.4,4.5c-0.2,0.3-0.4,0.9-0.5,1.2c-0.9,1.8-1.4,3.9-2,6
		C32.5,29.6,32.1,30.5,31.8,31.4z"/>
	<path class="st7" d="M34.8,23.1c0.4-1.8,1.1-3.3,1.4-5.1c0.2-0.3,0.2-0.6,0.5-0.6c1.6,1.2,3.2,2.1,4.7,3.3c0,0,0,0,0,0.3
		C39.4,21.3,37.2,22.2,34.8,23.1z"/>
	<path class="st1" d="M33.9,50c0-0.6-0.5-1.2-0.7-1.8c-0.4-0.9-0.7-1.5-1.1-2.4c-0.2-0.3-0.4-0.9,0-1.2c0.4-0.3,0.5-0.9,1.1-0.6
		c0.5,0.9,0.9,2.1,1.6,3c0.2,0.6,0.4,1.2,0.9,1.5c0.5,1.2,0.5,1.5-0.4,2.1C34.5,51.2,34.1,50.9,33.9,50z"/>
	<path class="st29" d="M33.2,44c-0.4,0.3-0.7,0.3-1.1,0.6c-0.5-0.6-1.4-0.6-2-1.2c0,0,0-0.3,0.2-0.3C32.5,41.6,31.8,41.3,33.2,44z"
		/>
	<path class="st21" d="M33.9,50c0.4,0,0.4,1.2,1.1,0.6c0.7-0.6,0.9-0.9,0.7-1.8c0.5-0.3,0.9-0.3,1.3,0.3c0.4,1.2,1.6,2.1,1.3,3.3
		c-0.2,0.9-1.6,1.2-2.3,1.8c-0.5,0.6-0.9,0.3-1.3-0.3c-0.4-0.6-0.7-1.5-1.1-2.1C33,50.9,33.2,50.3,33.9,50z"/>
</g>
</svg>
