<?xml version="1.0" encoding="utf-8"?>
<!-- Generator: Adobe Illustrator 23.1.0, SVG Export Plug-In . SVG Version: 6.00 Build 0)  -->
<svg version="1.1" id="Capa_1" xmlns="http://www.w3.org/2000/svg" xmlns:xlink="http://www.w3.org/1999/xlink" x="0px" y="0px"
	 viewBox="0 0 90.6 152.3" style="enable-background:new 0 0 90.6 152.3;" xml:space="preserve">
<style type="text/css">
	.st0{fill:#E4E4E4;}
	.st1{fill:#95637C;}
	.st2{fill:#F4F4F4;}
	.st3{fill:#FEE5D5;}
	.st4{fill:#6F7173;}
	.st5{fill:#4F5253;}
	.st6{fill:#734C5F;}
	.st7{fill:#F4C9B2;}
	.st8{fill:#C4937D;}
	.st9{fill:#C3937D;}
	.st10{fill:#EBBEA8;}
	.st11{fill:#2B2B2B;}
	.st12{fill:#C5947F;}
	.st13{fill:#EEEEEE;}
	.st14{fill:#FEF0E7;}
	.st15{fill:#F3C9B2;}
	.st16{fill:#545657;}
	.st17{fill:#31302F;}
	.st18{fill:#2F2F2E;}
	.st19{fill:#C99B86;}
	.st20{fill:#938277;}
	.st21{fill:#8FBEBA;}
	.st22{fill:#C2937E;}
	.st23{fill:#FEFEFE;}
	.st24{fill:#FDE8DF;}
	.st25{fill:#FDFEFE;}
	.st26{fill:#C5947E;}
</style>
<g>
	<path class="st0" d="M46.1,151.2c-8.8-0.3-17.6-0.9-26.5-1.5c-5.4-0.3-10.8-0.6-16.2-0.9c-0.4-0.3,0.2-0.6,0.5-0.9
		c8.1-0.9,16.4-2.1,24.7-3c0.9,0,1.8,0,2.5,0c0.7,0.6,0.2,1.2,0.2,2.1c0,0.9,0.7,1.2,1.8,1.2c3.1,0,6.1,0,9.2,0
		c1.1,0,1.8-0.3,1.6-1.2c-0.2-1.2-1.8-2.4-0.9-3.6c2.9-0.9,5.8-1.2,8.8-0.9c2,0.3,4,0.3,5.8,0.3c0.7,0.6,0.5,1.5,0.4,2.1
		c-0.5,1.2,0.2,1.8,1.6,1.8c5.2,0,10.3,0,15.5,0c2.3,0,1.6-1.8,2.5-2.4c0.5,2.7,3.8,2.7,6.5,3c2.2,0.3,4.1,0.6,6.5,0.9
		c-11.2,0.9-22,1.8-32.8,2.7c-0.4,0-0.5,0.3-0.9,0.3c-2.5,0-4.9,0-7.4,0C48.7,150.9,47.2,151.5,46.1,151.2z"/>
	<path class="st1" d="M48.1,1.8c0,0,0-0.3,0.2-0.3c0.5,0,1.1,0,1.6,0c3.6,1.5,7.7,2.4,11.5,3.6C65.2,6.3,69,7.5,73,8.4
		c2.5,0.6,2.7,1.5,2.3,3.3c-0.9,3.9-1.8,7.8-2.7,11.7c-0.9,0.3-1.6-0.3-2.3-0.6C64.5,20.1,58.6,17.7,53,15c-0.2,0-0.4-0.3-0.5-0.3
		c-0.5-0.6-0.5-1.2-0.2-1.8c0.5-0.6,0.7-1.2,0.7-1.8c0-0.3,0-0.9,0.5-0.9C57.1,9,54.2,8.7,53,8.1c-0.9-0.3-1.3-1.2-1.4-1.8
		c-0.4-0.9-1.1-1.5-2-1.8c-0.2,0-0.4-0.3-0.5-0.3C48.5,3.3,48.3,2.7,48.1,1.8z"/>
	<path class="st2" d="M46.1,151.2c1.3,0.3,2.5-0.3,3.6,0.3c-1.3,0-2.5,0-3.6,0V151.2z"/>
	<path class="st3" d="M75.3,37.2c0,4.2,1.3,8.1,1.8,12.3c0.2,2.1,0.7,4.2,1.1,6c0.2,1.2-1.1,1.2-2,1.2c-6.3,0.9-12.8,1.5-19.1,2.4
		c-0.5,0-1.1,0.3-1.4,0.3c-4.1,0.6-8.5,1.2-12.8,1.2c-2.2,0-2.5-1.2-2.9-2.4c-1.3-6-2.3-12-3.4-18c-0.5-2.7-1.3-5.4-1.4-8.4
		c0.4-1.2,1.6-1.5,2.9-1.8c4.3-0.9,8.5-1.8,12.8-2.7c5.8-1.2,11.7-2.4,17.5-3.6c1.4-0.3,3.1-0.9,4.5,0l0,0c0.4,0.3,0.5,0.6,0.7,0.9
		C74.2,28.8,75.3,33,75.3,37.2z"/>
	<path class="st1" d="M29.4,128.1c-1.3-1.5-1.8-3.3-2.3-4.8c0.2-0.6,0.5-1.2,1.3-1.8c7.6-6.9,14.9-13.5,22.3-20.4
		c0.5-0.6,1.1-1.2,2.2-1.2c1.6,0.3,1.6,1.5,2,2.1c2.2,5.4,4.7,10.5,6.5,16.2c0.2,0.6,0.2,1.5,0.5,2.1v0.3c-0.5,0.9-2,1.2-3.2,1.5
		c-8.5,1.8-16.9,3.6-25.2,5.4c-0.7,0.3-1.6,0-1.8,0.9c-0.4,0.3-0.7,0.3-1.1,0.3C29.9,128.7,29.8,128.4,29.4,128.1z"/>
	<path class="st1" d="M31.6,128.1c-0.4-0.3-0.7-0.3-1.1-0.6c10.4-2.4,20.9-4.5,31.3-6.9c0.9,3.3,1.1,6.6,1.4,9.9
		c-0.4,0.3-0.7,0.3-1.3,0.6c-4.1-0.3-8.3-0.6-12.4-0.9c-2.5,0-5.2-0.3-7.7-0.6c-2.7-0.3-5.6-0.3-8.3-0.9
		C32.8,128.7,31.9,128.7,31.6,128.1z"/>
	<path class="st4" d="M72.8,23.7c-3.4,0-6.3,1.2-9.4,1.8c-4.1,0.9-8.3,1.8-12.4,2.4c-1.1-2.7,0.2-5.1,0.2-7.5c0-1.2,0.4-2.7,0.5-3.9
		c0-0.6,0.2-1.5,1.1-1.8c6.5,3,13.1,5.7,19.6,8.7C72.6,23.4,72.6,23.4,72.8,23.7z"/>
	<path class="st1" d="M53.3,63.6c3.4,0.6,5.8,2.1,7.7,4.2c4.1,4.8,8.8,9.3,13.1,14.1c0.5,0.6,1.4,1.2,1.4,1.8
		c-0.4,0.3-1.1,0.3-1.4,0c-3.8-1.5-7.7-2.4-11.3-3.9c-1.4-0.9-1.4-2.4-2.3-3.6c-2.5-3.9-4.9-7.8-7.4-11.7c-0.2-0.3-0.4-0.6-0.2-1.2
		C53.3,63.9,53.3,63.9,53.3,63.6z"/>
	<path class="st3" d="M63.2,79.8c4.1,1.5,8.3,2.7,12.4,4.2c1.4,2.7,0,4.8-3.4,5.4c-3.4,0.6-6.7,0.9-10.1,1.5c-0.2,0-0.2-0.3-0.2-0.3
		c-0.7-1.5-0.9-3.3-1.6-4.8c0.4-1.8,1.1-3.6,2-5.4C62.5,80.1,62.9,80.1,63.2,79.8z"/>
	<path class="st1" d="M60.7,118.5c-2.2-5.4-4.5-11.1-6.7-16.5c-0.4-0.6-0.2-1.8-1.6-1.8c-0.2-0.3-0.2-0.3-0.2-0.6
		c1.8-1.5,3.2-3.3,5-4.8c0.2,0,0.5,0,0.7,0c0.7,4.5,1.4,9,2.2,13.5c0.4,3,0.7,5.7,1.1,8.7C61.4,117.6,62.2,118.2,60.7,118.5z"/>
	<path class="st5" d="M75.3,37.2c-1.4-3-1.3-6.3-2-9.6c-0.4-1.5-0.4-2.7-0.5-4.2c3.8,1.2,7,3,10.6,4.5c1.1,0.6,0.4,0.9-0.2,1.2
		C80.5,32.1,77.8,34.5,75.3,37.2z"/>
	<path class="st6" d="M57.5,145.2c0-0.9,0-1.5,0-2.1c-1.1-1.2-0.9-2.7-0.2-3.9c2.2-0.9,4.5-1.5,7-0.9c1.8,1.2,3.6,2.4,5.4,3.6
		c0.2,0.3,0.2,0.6,0,0.9c-1.4,1.8-7.7,4.2-10.6,3.6C58,146.1,56.9,146.1,57.5,145.2z"/>
	<path class="st6" d="M57.5,145.2c0.9,1.5,2.9,0.9,4,0.6c3.2-0.6,6.1-2.1,8.1-4.2c2.7,0.9,5.4,1.8,8.1,2.7c0,0.6,0,0.9,0.2,1.5
		c0.2,1.2-0.5,1.5-2.2,1.5c-5.4,0-10.8,0-16,0C57.3,147.3,56.8,146.7,57.5,145.2z"/>
	<path class="st7" d="M64.3,138c-2.2,0.3-4.3,0.6-6.5,0.9c-2.7-1.8-5-3.9-5.2-6.6c3.2-0.9,6.5-1.5,9.9-1.8c0.4,0,0.5,0,0.9,0
		C63.6,132.9,64,135.6,64.3,138z"/>
	<path class="st8" d="M43.1,60c3.4-0.3,7-0.6,10.4-0.9c0.7,0,1.4-0.3,2.2,0.3c-0.7,1.5-2,3-2.2,4.5l0,0c-0.5,0.6-0.2,1.5-1.3,1.8
		c-4.7-0.9-9-2.4-13.5-3.6c-0.5-0.3-1.4-0.6-1.3-0.9c0.2-0.6,1.1-0.6,1.8-0.6C40.4,59.7,41.8,60.6,43.1,60z"/>
	<path class="st9" d="M58,94.8c-0.2,0-0.4,0-0.5,0c-4.3,0-8.6-0.3-12.6-1.8c0.2-0.6,1.1-0.9,1.8-0.9c3.1-0.3,6.1-1.2,9.2-1.2
		c0.2,0,0.5,0,0.7,0.3C57.7,92.1,58.4,93.3,58,94.8C58.2,94.8,58.2,94.8,58,94.8z"/>
	<path class="st10" d="M58.2,94.5c-0.5-1.2-1.1-2.4-1.8-3.3c1.8-0.9,3.8-0.9,5.8-0.3l0,0C61.1,92.1,59.8,93.6,58.2,94.5z"/>
	<path class="st6" d="M60.7,118.5c0.7-0.3,0.4-0.9,0.5-1.5c0.5,1.2,0.5,2.4,0.5,3.3C60.9,120,61.3,119.1,60.7,118.5z"/>
	<path class="st5" d="M52.8,14.7c-0.5,3.6-1.1,7.2-1.4,10.8c-0.2,0.9,0,1.5-0.5,2.4c-4.5,0.9-8.8,2.1-13.3,3c-0.7,0.3-1.6,0-2,0.9
		c-0.2,0.3-0.4,0.3-0.7,0.3c-8.8,1.8-17.6,3.6-26.5,5.4c-1.1,0.3-2.2,0.6-3.2,0c2.5-2.4,4.9-4.8,7.4-7.2c1.8-2.7,4.7-4.8,7.4-7.2
		c10.1-3,20.3-5.4,30.4-8.4C51.4,14.4,52.1,14.1,52.8,14.7L52.8,14.7z"/>
	<path class="st1" d="M53,14.7c-10.1,2.7-20.2,5.1-30.2,7.8c-0.9,0.3-1.8,0.3-2.7,0.6c-1.8-0.6-2.5-2.1-3.6-3
		c-1.6-1.5-3.4-3-4.9-4.5c-0.5-0.6-0.7,0-1.1,0c-0.5-0.9-0.7-1.5,1.1-2.1C23.8,9.6,35.9,5.7,48.1,1.8c1.4,0.6,1.3,1.5,1.3,2.4
		c0,0.6-0.4,1.2-0.2,1.8c0.5,1.5,0,2.4-1.8,3c-0.5,0.3-1.3,0.6-0.9,0.9c0.2,0.6,1.1,0.3,1.6,0.3c1.4-0.3,2.3,0,2.7,1.2
		c0.2,0.6,0.5,0.9,1.3,1.2c0.4,0,0.5,0.3,0.5,0.6C52.3,13.5,52.4,14.1,53,14.7z"/>
	<path class="st7" d="M35.3,31.5c0.2,0,0.2,0,0.4,0c1.3,6,2.3,12.3,3.6,18.3c0.5,3,1.3,6,1.6,8.7c0.2,1.2,0.7,1.5,2.2,1.5
		c-1.8,0.6-3.8,0-5.6,0.9c5,1.5,9.9,2.7,14.8,4.2c0.2,0.3,0.4,0.3,0.2,0.6c-1.4,3-2.7,6.3-5,9c-0.2,0-0.5,0.3-0.7,0
		c-3.6-2.4-6.5-5.4-9.7-8.4c-1.1-0.9-2-1.8-3.1-2.7c0-0.3,0-0.3,0.2-0.6c-3.1-3-6.3-5.7-9.4-8.7c-0.2-1.5,0.5-3,0.9-4.8
		c-1.8,0.3-2.9,1.5-4.5,1.8c-2.3-1.8-5-3.6-6.8-6c0.7-1.8,3.2-1.8,5-2.7c3.2-1.5,3.8-1.2,5.8,1.2c0.7,0.9,1.4,1.5,2,2.4
		c2.2-4.2,4.3-8.4,6.5-12.3C33.9,33,34.1,32.1,35.3,31.5z"/>
	<path class="st1" d="M52.4,99.9v0.3c-5.9,5.4-12.1,11.1-18,16.5c-2.5,2.4-4.9,4.5-7.4,6.6c-3.2-7.2-6.5-14.1-9.4-21.3
		c1.3-0.9,2.7-0.6,4.1-0.9c9.9-0.6,19.8-1.5,29.9-1.8C51.9,99.6,52.1,99.6,52.4,99.9z"/>
	<path class="st1" d="M34.1,63.3c0,0,0,0.3,0.2,0.3c0.5,0.9,0.5,1.8,0.5,2.7c0,3.6,0,6.9,0,10.5c0,1.2,0.5,1.5,2,0.9
		c2.3-0.9,4.7-1.5,7-2.4c0.9-0.3,1.8-0.6,2.9-0.6c0.2,0,0.2,0,0.4,0c1.8-0.6,3.6,0.3,5.4,0.3c3.1,0.3,5.9,0.9,8.8,1.5
		c0.7,1.2,1.4,2.4,2,3.6c-0.2,0-0.2,0.3-0.4,0.3c-7.4,0.9-14.6,0.9-22,1.2c-3.6,0.3-7,0.3-10.6,0.6c-0.7,0.3-1.4,0-2.2-0.3
		c-1.3-4.8-2.9-9.6-3.4-14.7C27.6,65.4,31,64.5,34.1,63.3z"/>
	<path class="st11" d="M35.3,31.5c-2.5,5.1-5.2,10.5-8.1,15.9c-1.4-1.8-2.7-3-3.8-4.5c-0.5-0.6-0.9-0.9-2-0.6
		c-2.3,1.2-4.7,2.1-7.2,3c-3.4-2.4-6.1-5.1-9.2-7.8c0,0,0.2-0.3,0.2-0.6c5.8-0.9,11.3-2.1,16.9-3.3c3.8-0.9,7.6-1.5,11.3-2.4
		C34.3,31.2,34.8,30.9,35.3,31.5z"/>
	<path class="st3" d="M28.5,81.6c0.5,0,1.1,0.3,1.6,0.3s1.1,0,1.4,0.3c4,1.8,7.7,3.6,11.7,5.1c0.7,0.3,1.3,0.9,1.4,1.5
		c0.2,1.5,0.5,3-0.5,4.2c-0.9,0.3-1.8,0.6-2.7,0.3c-5-0.3-10.1-0.6-15.1-0.9c-0.9,0-1.8,0-2.3-0.6c-4.1-0.3-8.5-0.6-12.8-0.9
		c-1.1,0-1.8-0.3-1.1-1.2c2-1.5,4.7-2.4,7-3.6c2.9-1.5,5.8-2.7,8.6-4.2C26.7,82.2,27.4,81.6,28.5,81.6z"/>
	<path class="st1" d="M28.5,81.6c-5.6,2.7-11,5.4-16.6,7.8c-0.5,0.3-1.1,0.3-1.6,0.6c0-0.3-0.2-0.3-0.2-0.6c5-7.5,9.9-15,14.9-22.5
		c1.6,2.7,1.6,5.7,2.5,8.4C28,77.7,28.7,79.5,28.5,81.6z"/>
	<path class="st1" d="M23.8,91.8c5.6,0.3,11.2,0.6,16.7,0.9c1.1,0,2.2,0,3.4,0c0.4-0.3,0.7-0.3,1.1,0c3.6,0.6,7,0.9,10.6,1.5
		c0.7,0,1.3,0.3,2,0.3c-1.4,1.8-2.9,3.6-5.2,4.8c-0.2,0-0.4,0-0.5,0c-9.2-0.9-18-3.3-27-4.5c-0.9-0.3-1.8-0.3-2.2-0.9
		C23.1,93.3,23.5,92.7,23.8,91.8z"/>
	<path class="st1" d="M22.7,94.2c9.4,1.8,18.7,3.6,27.9,5.4c0.4,0,0.7,0.3,1.1,0.3c-11.3,0.9-22.9,1.5-34.2,2.4
		C19.3,99.3,20.9,96.9,22.7,94.2z"/>
	<path class="st7" d="M29.4,128.1c0.4,0,0.7,0,1.1,0c4.1,0.6,8.1,1.8,12.1,3.3c0,2.7-0.2,5.4-1.4,8.1c-2.5,0.3-4.9,0.3-7.2-0.3
		c-0.7-3-2.5-5.7-3.6-8.4C29.8,129.9,29.4,129,29.4,128.1z"/>
	<path class="st1" d="M10.7,15.9c0-0.3,0.2-0.9,0.2-1.5c3.2,3,6.5,5.7,9.2,9c-2.2,2.4-4.7,4.5-7.2,6.6
		C11.8,25.2,11.2,20.7,10.7,15.9z"/>
	<path class="st6" d="M33.7,139.2c2.3-0.3,4.7,0,7,0.3c1.8,1.2,2.3,2.4,2.2,4.2c0.5,1.2,1.1,2.4,1.4,3.3c-1.1,0.3-1.6-0.3-2.2-0.6
		c-3.1-2.1-5.8-2.1-9.2-0.3c-0.7,0.3-1.4,1.2-2.5,0.9c0.2-0.6,0.4-1.2,0.5-1.8C32.3,143.1,33,141.3,33.7,139.2z"/>
	<path class="st12" d="M21.1,51.6c1.1-1.5,3.2-1.8,5.4-2.7c-0.4,2.1-0.7,3.9-1.8,5.7C23.5,53.7,22.4,52.8,21.1,51.6z"/>
	<path class="st13" d="M3.8,148.2c0,0.3-0.4,0.3-0.5,0.6c-0.9,0-1.6,0-2.5,0c0,0,0-0.3-0.2-0.3C1.9,148.5,2.9,148.2,3.8,148.2z"/>
	<path class="st6" d="M30.7,147c2.3-1.2,4.3-2.7,7.7-2.7c3.1,0,4,2.1,6.1,2.7c1.1,1.5,0.2,1.8-1.6,1.8c-3.4,0-7,0-10.4,0
		C30.5,148.8,30.1,148.2,30.7,147z"/>
	<path class="st6" d="M51.9,12.3c-1.4,0.6-1.4,0-1.8-0.9c-0.2-0.9-0.9-1.5-2.7-0.9c-0.5,0.3-1.4,0.6-1.8-0.3
		c-0.2-0.6-1.1-1.5,0.5-1.8c2.5-0.6,3.2-1.5,2.2-3.3c-0.4-0.6,0.2-1.2,1.1-1.5c0.2,0,0.4,0,0.5,0C51.2,6.9,52.8,9.3,51.9,12.3z"/>
	<path class="st6" d="M51.9,12.3c-0.7-2.7-1.4-5.4-2.2-8.1C50.1,4.5,51,4.5,51,4.8c0.9,1.8,2.2,3.3,4.7,4.2c0.4,0,1.1,1.8-0.9,1.5
		c-2-0.3-1.6,0.6-1.4,1.2c0.2,0.9,0.4,1.5-1.1,1.2C52.3,12.6,52.1,12.6,51.9,12.3z"/>
	<path class="st14" d="M56.6,43.8c0-0.3-0.2-0.6-0.5-0.9C55.3,42.6,55,42,55,41.4c-0.4-2.7-1.3-5.1-1.4-7.8c0-0.3,0.2-0.3,0.5-0.6
		c1.4,0,3.1,0,4.5-0.3c0.4,0,0.7,0.3,0.9,0.3c1.1,2.1,2,4.5,0.9,6.6c0.4,1.2,0.5,2.4,0.9,3.6C59.6,44.1,58.2,44.7,56.6,43.8z"/>
	<path class="st15" d="M53.9,33.6c0.7,3.3,1.4,6.3,2.2,9.3c-0.5,1.2-1.1,0.3-1.3,0c-1.1-1.2-2.2-2.1-3.6-2.7
		c-0.2-0.3,0.2-0.6,0.2-0.9c0.5-1.5,0-1.8-2-1.8c-0.4,0-0.7,0.3-1.3,0c-0.9-0.9-2-1.5-2.9-2.4c-0.4-0.3-1.3-0.6-0.4-1.2
		C47.9,33.9,50.8,33,53.9,33.6z"/>
	<path class="st15" d="M60.2,40.2c-0.4-2.4-0.5-4.8-1.8-7.2h0.2c2.5-0.9,5.4-0.9,8.1-1.2c0.5,0,1.1,0,1.6,0.3
		c-0.9,1.2-2.5,2.1-3.1,3.6c-2.2,0.6-3.1,1.5-2.5,3C61.3,38.7,61.3,39.9,60.2,40.2z"/>
	<path class="st6" d="M66.5,49.2C66.5,49.2,66.3,49.2,66.5,49.2c-5.9,4.2-7,4.5-15.3,0.9c1.4-0.3,3.1,0.6,4.3,0
		c3.1,0.6,5.9-0.3,8.8-0.9c0.5-0.3,1.1-0.3,1.6-0.3C66.5,48.6,66.7,48.9,66.5,49.2z"/>
	<path class="st6" d="M64.3,49.2c-2.7,1.2-5.6,2.4-8.8,0.9C58.2,48,61.1,47.7,64.3,49.2z"/>
	<path class="st16" d="M53.9,33.6c-3.1,0.3-5.8,0.9-8.8,0.9c2.9-1.2,5.6-2.1,8.5-3.3c0.7,0.9,0.2,1.5,0.5,2.1
		C54.1,33.6,53.9,33.6,53.9,33.6z"/>
	<path class="st17" d="M62.9,38.7c-0.5-0.6-1.3-1.2-0.5-2.1c0.7-0.9,2-0.9,3.2-0.9c0.9,0.6,1.4,1.5,0.9,2.4
		C65.4,39,64.1,39,62.9,38.7z"/>
	<path class="st18" d="M48.3,37.8c1.3-0.9,2.5-1.2,3.8,0c1.1,1.2,0.5,2.1-0.9,2.7C48.3,40.2,48.1,39.9,48.3,37.8z"/>
	<path class="st16" d="M66.8,32.1c-2.7,0.3-5.4,0.9-8.1,0.9c-0.5-1.8-0.2-2.4,2.7-1.8c1.4,0.3,3.1,0.3,4.5,0.6
		C66.1,31.8,67.2,31.5,66.8,32.1z"/>
	<path class="st19" d="M56.6,43.8c1.4,0,3.1-0.3,4.5-0.3c-0.2,0.3-0.4,0.6-0.5,0.6c-0.5,0.6-0.9,1.5-1.8,1.5
		C57.7,45.6,56.8,45,56.6,43.8z"/>
	<path class="st20" d="M66.8,32.1c-0.4-0.3-0.7-0.3-1.1-0.6c1.1,0,2,0,2.5,0.6C67.9,32.1,67.4,32.1,66.8,32.1z"/>
	<path class="st21" d="M66.5,49.2c-0.2-0.3-0.4-0.3-0.5-0.3c0.4-0.3,1.1-0.9,1.4-0.3C67.6,48.6,66.8,48.9,66.5,49.2z"/>
	<path class="st22" d="M42.2,129c0,0.6-0.2,1.5-0.2,2.1c-0.7,0.3-1.6,0-2.2,0c-3.1-0.9-6.1-1.8-9.4-3c0.4,0,0.7,0,1.1,0
		C35.2,128.4,38.6,128.7,42.2,129z"/>
	<path class="st22" d="M52.3,132.3c-0.9-0.9-1.6-1.8-2.5-3c4.1,0.3,8.5,0.3,12.4,0.9C59.1,131.4,55.7,132,52.3,132.3z"/>
	<path class="st23" d="M61.3,76.5c-2.2,0.6-4-0.3-5.9-0.6c-2.7-0.3-5.6-0.9-8.3-1.5c1.8-3.3,3.4-6.3,5.2-9.6
		c0.4-0.6,0.4-1.2,1.3-1.5C56,68.1,58.6,72.3,61.3,76.5z"/>
	<path class="st1" d="M44.2,88.5c-4.7-2.1-9.4-4.2-14-6.3c0.2-0.6,0.7-0.6,1.3-0.6c5.9-0.3,11.9-0.6,17.8-0.9
		c3.6-0.3,7-0.6,10.6-0.6c1.1,0,2.2-0.3,3.2,0.3c-0.7,1.8-1.1,3.9-2.3,5.7c-2.3,0.3-4.3-0.9-6.5-0.9c-2.5,0.3-4.3,1.8-6.5,2.7
		C46.5,87.9,45.6,88.8,44.2,88.5z"/>
	<path class="st24" d="M53.9,84.3c2.2,0.6,4.5,0.9,6.7,1.5c1.4,1.5,1.4,3.3,1.6,5.1c-2,0.3-3.8,0.3-5.8,0.3l0,0
		C54.6,89.1,53.3,87,53.9,84.3z"/>
	<path class="st7" d="M53.9,84.3c0.4,2.4,1.8,4.5,2.5,6.9c-3.8,0.6-7.7,1.2-11.5,1.8c-0.4,0-0.7,0-1.1,0c0-1.5,0-3,0-4.5
		C47.4,87.3,50.3,85.5,53.9,84.3z"/>
	<path class="st25" d="M46.9,74.7c-4.1,1.5-8.1,3-12.4,4.5c0-5.4,0-10.5,0-15.3c3.8,2.4,6.5,5.4,9.7,8.4
		C45.1,72.9,46.3,73.5,46.9,74.7z"/>
	<path class="st26" d="M24.4,48c-2.5-0.6-4.5-1.5-6.5-2.1C22.2,43.5,21.5,43.8,24.4,48z"/>
</g>
</svg>
