<?xml version="1.0" encoding="utf-8"?>
<!-- Generator: Adobe Illustrator 23.1.0, SVG Export Plug-In . SVG Version: 6.00 Build 0)  -->
<svg version="1.1" id="Capa_1" xmlns="http://www.w3.org/2000/svg" xmlns:xlink="http://www.w3.org/1999/xlink" x="0px" y="0px"
	 viewBox="0 0 50 50" style="enable-background:new 0 0 50 50;" xml:space="preserve">
<style type="text/css">
	.st0{fill:#E4E4E4;}
	.st1{fill:#95637C;}
	.st2{fill:#F4F4F4;}
	.st3{fill:#FEE5D5;}
	.st4{fill:#6F7173;}
	.st5{fill:#4F5253;}
	.st6{fill:#734C5F;}
	.st7{fill:#F4C9B2;}
	.st8{fill:#C4937D;}
	.st9{fill:#C3937D;}
	.st10{fill:#EBBEA8;}
	.st11{fill:#2B2B2B;}
	.st12{fill:#C5947F;}
	.st13{fill:#EEEEEE;}
	.st14{fill:#FEF0E7;}
	.st15{fill:#F3C9B2;}
	.st16{fill:#545657;}
	.st17{fill:#31302F;}
	.st18{fill:#2F2F2E;}
	.st19{fill:#C99B86;}
	.st20{fill:#938277;}
	.st21{fill:#8FBEBA;}
	.st22{fill:#C2937E;}
	.st23{fill:#FEFEFE;}
	.st24{fill:#FDE8DF;}
	.st25{fill:#FDFEFE;}
	.st26{fill:#C5947E;}
</style>
<g>
	<path class="st0" d="M25.2,49.9c-4.9-0.1-9.8-0.3-14.7-0.5c-3-0.1-6-0.2-9-0.3c-0.2-0.1,0.1-0.2,0.3-0.3c4.5-0.3,9.1-0.7,13.7-1
		c0.5,0,1,0,1.4,0c0.4,0.2,0.1,0.4,0.1,0.7c0,0.3,0.4,0.4,1,0.4c1.7,0,3.4,0,5.1,0c0.6,0,1-0.1,0.9-0.4c-0.1-0.4-1-0.8-0.5-1.2
		c1.6-0.3,3.2-0.4,4.9-0.3c1.1,0.1,2.2,0.1,3.2,0.1c0.4,0.2,0.3,0.5,0.2,0.7c-0.3,0.4,0.1,0.6,0.9,0.6c2.9,0,5.7,0,8.6,0
		c1.3,0,0.9-0.6,1.4-0.8c0.3,0.9,2.1,0.9,3.6,1c1.2,0.1,2.3,0.2,3.6,0.3c-6.2,0.3-12.2,0.6-18.2,0.9c-0.2,0-0.3,0.1-0.5,0.1
		c-1.4,0-2.7,0-4.1,0C26.6,49.8,25.8,50,25.2,49.9z"/>
	<path class="st1" d="M26.3,0.1c0,0,0-0.1,0.1-0.1c0.3,0,0.6,0,0.9,0c2,0.5,4.3,0.8,6.4,1.2c2.1,0.4,4.2,0.8,6.4,1.1
		c1.4,0.2,1.5,0.5,1.3,1.1c-0.5,1.3-1,2.6-1.5,3.9c-0.5,0.1-0.9-0.1-1.3-0.2c-3.2-0.9-6.5-1.7-9.6-2.6c-0.1,0-0.2-0.1-0.3-0.1
		c-0.3-0.2-0.3-0.4-0.1-0.6C28.9,3.6,29,3.4,29,3.2c0-0.1,0-0.3,0.3-0.3c2-0.4,0.4-0.5-0.3-0.7c-0.5-0.1-0.7-0.4-0.8-0.6
		C28,1.3,27.6,1.1,27.1,1c-0.1,0-0.2-0.1-0.3-0.1C26.5,0.6,26.4,0.4,26.3,0.1z"/>
	<path class="st2" d="M25.2,49.9c0.7,0.1,1.4-0.1,2,0.1c-0.7,0-1.4,0-2,0C25.2,50,25.2,49.9,25.2,49.9z"/>
	<path class="st3" d="M41.4,11.9c0,1.4,0.7,2.7,1,4.1c0.1,0.7,0.4,1.4,0.6,2c0.1,0.4-0.6,0.4-1.1,0.4c-3.5,0.3-7.1,0.5-10.6,0.8
		c-0.3,0-0.6,0.1-0.8,0.1c-2.3,0.2-4.7,0.4-7.1,0.4c-1.2,0-1.4-0.4-1.6-0.8c-0.7-2-1.3-4-1.9-6c-0.3-0.9-0.7-1.8-0.8-2.8
		c0.2-0.4,0.9-0.5,1.6-0.6c2.4-0.3,4.7-0.6,7.1-0.9c3.2-0.4,6.5-0.8,9.7-1.2c0.8-0.1,1.7-0.3,2.5,0l0,0c0.2,0.1,0.3,0.2,0.4,0.3
		C40.8,9.1,41.4,10.5,41.4,11.9z"/>
	<path class="st1" d="M15.9,42.2c-0.7-0.5-1-1.1-1.3-1.6c0.1-0.2,0.3-0.4,0.7-0.6c4.2-2.3,8.3-4.5,12.4-6.8c0.3-0.2,0.6-0.4,1.2-0.4
		c0.9,0.1,0.9,0.5,1.1,0.7c1.2,1.8,2.6,3.5,3.6,5.4c0.1,0.2,0.1,0.5,0.3,0.7c0,0,0,0.1,0,0.1c-0.3,0.3-1.1,0.4-1.8,0.5
		c-4.7,0.6-9.4,1.2-14,1.8c-0.4,0.1-0.9,0-1,0.3c-0.2,0.1-0.4,0.1-0.6,0.1C16.2,42.4,16.1,42.3,15.9,42.2z"/>
	<path class="st1" d="M17.1,42.2c-0.2-0.1-0.4-0.1-0.6-0.2c5.8-0.8,11.6-1.5,17.4-2.3c0.5,1.1,0.6,2.2,0.8,3.3
		c-0.2,0.1-0.4,0.1-0.7,0.2c-2.3-0.1-4.6-0.2-6.9-0.3c-1.4,0-2.9-0.1-4.3-0.2c-1.5-0.1-3.1-0.1-4.6-0.3
		C17.8,42.4,17.3,42.4,17.1,42.2z"/>
	<path class="st4" d="M40,7.4c-1.9,0-3.5,0.4-5.2,0.6c-2.3,0.3-4.6,0.6-6.9,0.8C27.3,7.9,28,7.1,28,6.3c0-0.4,0.2-0.9,0.3-1.3
		c0-0.2,0.1-0.5,0.6-0.6c3.6,1,7.3,1.9,10.9,2.9C39.9,7.3,39.9,7.3,40,7.4z"/>
	<path class="st1" d="M29.2,20.7c1.9,0.2,3.2,0.7,4.3,1.4c2.3,1.6,4.9,3.1,7.3,4.7c0.3,0.2,0.8,0.4,0.8,0.6c-0.2,0.1-0.6,0.1-0.8,0
		c-2.1-0.5-4.3-0.8-6.3-1.3c-0.8-0.3-0.8-0.8-1.3-1.2c-1.4-1.3-2.7-2.6-4.1-3.9c-0.1-0.1-0.2-0.2-0.1-0.4
		C29.2,20.8,29.2,20.8,29.2,20.7z"/>
	<path class="st3" d="M34.7,26.1c2.3,0.5,4.6,0.9,6.9,1.4c0.8,0.9,0,1.6-1.9,1.8c-1.9,0.2-3.7,0.3-5.6,0.5c-0.1,0-0.1-0.1-0.1-0.1
		c-0.4-0.5-0.5-1.1-0.9-1.6c0.2-0.6,0.6-1.2,1.1-1.8C34.3,26.2,34.5,26.2,34.7,26.1z"/>
	<path class="st1" d="M33.3,39c-1.2-1.8-2.5-3.7-3.7-5.5c-0.2-0.2-0.1-0.6-0.9-0.6c-0.1-0.1-0.1-0.1-0.1-0.2c1-0.5,1.8-1.1,2.8-1.6
		c0.1,0,0.3,0,0.4,0c0.4,1.5,0.8,3,1.2,4.5c0.2,1,0.4,1.9,0.6,2.9C33.7,38.7,34.1,38.9,33.3,39z"/>
	<path class="st5" d="M41.4,11.9c-0.8-1-0.7-2.1-1.1-3.2c-0.2-0.5-0.2-0.9-0.3-1.4c2.1,0.4,3.9,1,5.9,1.5c0.6,0.2,0.2,0.3-0.1,0.4
		C44.3,10.2,42.8,11,41.4,11.9z"/>
	<path class="st6" d="M31.5,47.9c0-0.3,0-0.5,0-0.7c-0.6-0.4-0.5-0.9-0.1-1.3c1.2-0.3,2.5-0.5,3.9-0.3c1,0.4,2,0.8,3,1.2
		c0.1,0.1,0.1,0.2,0,0.3c-0.8,0.6-4.3,1.4-5.9,1.2C31.8,48.2,31.2,48.2,31.5,47.9z"/>
	<path class="st6" d="M31.5,47.9c0.5,0.5,1.6,0.3,2.2,0.2c1.8-0.2,3.4-0.7,4.5-1.4c1.5,0.3,3,0.6,4.5,0.9c0,0.2,0,0.3,0.1,0.5
		c0.1,0.4-0.3,0.5-1.2,0.5c-3,0-6,0-8.9,0C31.4,48.6,31.1,48.4,31.5,47.9z"/>
	<path class="st7" d="M35.3,45.5c-1.2,0.1-2.4,0.2-3.6,0.3c-1.5-0.6-2.8-1.3-2.9-2.2c1.8-0.3,3.6-0.5,5.5-0.6c0.2,0,0.3,0,0.5,0
		C34.9,43.8,35.1,44.7,35.3,45.5z"/>
	<path class="st8" d="M23.5,19.5c1.9-0.1,3.9-0.2,5.8-0.3c0.4,0,0.8-0.1,1.2,0.1c-0.4,0.5-1.1,1-1.2,1.5c0,0,0,0,0,0
		c-0.3,0.2-0.1,0.5-0.7,0.6c-2.6-0.3-5-0.8-7.5-1.2c-0.3-0.1-0.8-0.2-0.7-0.3c0.1-0.2,0.6-0.2,1-0.2C22,19.4,22.8,19.7,23.5,19.5z"
		/>
	<path class="st9" d="M31.8,31.1c-0.1,0-0.2,0-0.3,0c-2.4,0-4.8-0.1-7-0.6c0.1-0.2,0.6-0.3,1-0.3c1.7-0.1,3.4-0.4,5.1-0.4
		c0.1,0,0.3,0,0.4,0.1C31.6,30.2,32,30.6,31.8,31.1C31.9,31.1,31.9,31.1,31.8,31.1z"/>
	<path class="st10" d="M31.9,31c-0.3-0.4-0.6-0.8-1-1.1c1-0.3,2.1-0.3,3.2-0.1l0,0C33.5,30.2,32.8,30.7,31.9,31z"/>
	<path class="st6" d="M33.3,39c0.4-0.1,0.2-0.3,0.3-0.5c0.3,0.4,0.3,0.8,0.3,1.1C33.4,39.5,33.6,39.2,33.3,39z"/>
	<path class="st5" d="M28.9,4.4c-0.3,1.2-0.6,2.4-0.8,3.6c-0.1,0.3,0,0.5-0.3,0.8c-2.5,0.3-4.9,0.7-7.4,1c-0.4,0.1-0.9,0-1.1,0.3
		c-0.1,0.1-0.2,0.1-0.4,0.1c-4.9,0.6-9.8,1.2-14.7,1.8c-0.6,0.1-1.2,0.2-1.8,0c1.4-0.8,2.7-1.6,4.1-2.4c1-0.9,2.6-1.6,4.1-2.4
		c5.6-1,11.3-1.8,16.9-2.8C28.1,4.3,28.5,4.2,28.9,4.4L28.9,4.4z"/>
	<path class="st1" d="M29,4.4C23.4,5.3,17.8,6.1,12.2,7c-0.5,0.1-1,0.1-1.5,0.2c-1-0.2-1.4-0.7-2-1c-0.9-0.5-1.9-1-2.7-1.5
		c-0.3-0.2-0.4,0-0.6,0C5.1,4.4,5,4.2,6,4c6.8-1.3,13.5-2.6,20.3-3.9C27.1,0.3,27,0.6,27,0.9c0,0.2-0.2,0.4-0.1,0.6
		c0.3,0.5,0,0.8-1,1c-0.3,0.1-0.7,0.2-0.5,0.3c0.1,0.2,0.6,0.1,0.9,0.1c0.8-0.1,1.3,0,1.5,0.4c0.1,0.2,0.3,0.3,0.7,0.4
		c0.2,0,0.3,0.1,0.3,0.2C28.6,4,28.7,4.2,29,4.4z"/>
	<path class="st7" d="M19.2,10c0.1,0,0.1,0,0.2,0c0.7,2,1.3,4.1,2,6.1c0.3,1,0.7,2,0.9,2.9c0.1,0.4,0.4,0.5,1.2,0.5
		c-1,0.2-2.1,0-3.1,0.3c2.8,0.5,5.5,0.9,8.2,1.4c0.1,0.1,0.2,0.1,0.1,0.2c-0.8,1-1.5,2.1-2.8,3c-0.1,0-0.3,0.1-0.4,0
		c-2-0.8-3.6-1.8-5.4-2.8c-0.6-0.3-1.1-0.6-1.7-0.9c0-0.1,0-0.1,0.1-0.2c-1.7-1-3.5-1.9-5.2-2.9c-0.1-0.5,0.3-1,0.5-1.6
		c-1,0.1-1.6,0.5-2.5,0.6C10,16,8.5,15.4,7.5,14.6c0.4-0.6,1.8-0.6,2.8-0.9c1.8-0.5,2.1-0.4,3.2,0.4c0.4,0.3,0.8,0.5,1.1,0.8
		c1.2-1.4,2.4-2.8,3.6-4.1C18.4,10.5,18.5,10.2,19.2,10z"/>
	<path class="st1" d="M28.7,32.8c0,0,0,0.1,0,0.1c-3.3,1.8-6.7,3.7-10,5.5c-1.4,0.8-2.7,1.5-4.1,2.2c-1.8-2.4-3.6-4.7-5.2-7.1
		c0.7-0.3,1.5-0.2,2.3-0.3c5.5-0.2,11-0.5,16.6-0.6C28.4,32.7,28.5,32.7,28.7,32.8z"/>
	<path class="st1" d="M18.5,20.6c0,0,0,0.1,0.1,0.1c0.3,0.3,0.3,0.6,0.3,0.9c0,1.2,0,2.3,0,3.5c0,0.4,0.3,0.5,1.1,0.3
		c1.3-0.3,2.6-0.5,3.9-0.8c0.5-0.1,1-0.2,1.6-0.2c0.1,0,0.1,0,0.2,0c1-0.2,2,0.1,3,0.1c1.7,0.1,3.3,0.3,4.9,0.5
		c0.4,0.4,0.8,0.8,1.1,1.2c-0.1,0-0.1,0.1-0.2,0.1c-4.1,0.3-8.1,0.3-12.2,0.4c-2,0.1-3.9,0.1-5.9,0.2c-0.4,0.1-0.8,0-1.2-0.1
		c-0.7-1.6-1.6-3.2-1.9-4.9C14.9,21.3,16.8,21,18.5,20.6z"/>
	<path class="st11" d="M19.2,10c-1.4,1.7-2.9,3.5-4.5,5.3c-0.8-0.6-1.5-1-2.1-1.5c-0.3-0.2-0.5-0.3-1.1-0.2c-1.3,0.4-2.6,0.7-4,1
		c-1.9-0.8-3.4-1.7-5.1-2.6c0,0,0.1-0.1,0.1-0.2c3.2-0.3,6.3-0.7,9.4-1.1c2.1-0.3,4.2-0.5,6.3-0.8C18.6,9.9,18.9,9.8,19.2,10z"/>
	<path class="st3" d="M15.4,26.7c0.3,0,0.6,0.1,0.9,0.1c0.3,0,0.6,0,0.8,0.1c2.2,0.6,4.3,1.2,6.5,1.7c0.4,0.1,0.7,0.3,0.8,0.5
		c0.1,0.5,0.3,1-0.3,1.4c-0.5,0.1-1,0.2-1.5,0.1c-2.8-0.1-5.6-0.2-8.4-0.3c-0.5,0-1,0-1.3-0.2c-2.3-0.1-4.7-0.2-7.1-0.3
		c-0.6,0-1-0.1-0.6-0.4c1.1-0.5,2.6-0.8,3.9-1.2c1.6-0.5,3.2-0.9,4.8-1.4C14.4,26.9,14.8,26.7,15.4,26.7z"/>
	<path class="st1" d="M15.4,26.7c-3.1,0.9-6.1,1.8-9.2,2.6c-0.3,0.1-0.6,0.1-0.9,0.2c0-0.1-0.1-0.1-0.1-0.2c2.8-2.5,5.5-5,8.3-7.5
		c0.9,0.9,0.9,1.9,1.4,2.8C15.1,25.4,15.5,26,15.4,26.7z"/>
	<path class="st1" d="M12.8,30.1c3.1,0.1,6.2,0.2,9.3,0.3c0.6,0,1.2,0,1.9,0c0.2-0.1,0.4-0.1,0.6,0c2,0.2,3.9,0.3,5.9,0.5
		c0.4,0,0.7,0.1,1.1,0.1c-0.8,0.6-1.6,1.2-2.9,1.6c-0.1,0-0.2,0-0.3,0c-5.1-0.3-10-1.1-15-1.5c-0.5-0.1-1-0.1-1.2-0.3
		C12.4,30.6,12.6,30.4,12.8,30.1z"/>
	<path class="st1" d="M12.2,30.9c5.2,0.6,10.4,1.2,15.5,1.8c0.2,0,0.4,0.1,0.6,0.1c-6.3,0.3-12.7,0.5-19,0.8
		C10.3,32.6,11.2,31.8,12.2,30.9z"/>
	<path class="st7" d="M15.9,42.2c0.2,0,0.4,0,0.6,0c2.3,0.2,4.5,0.6,6.7,1.1c0,0.9-0.1,1.8-0.8,2.7c-1.4,0.1-2.7,0.1-4-0.1
		c-0.4-1-1.4-1.9-2-2.8C16.1,42.8,15.9,42.5,15.9,42.2z"/>
	<path class="st1" d="M5.5,4.8c0-0.1,0.1-0.3,0.1-0.5c1.8,1,3.6,1.9,5.1,3C9.5,8.1,8.1,8.8,6.7,9.5C6.1,7.9,5.8,6.4,5.5,4.8z"/>
	<path class="st6" d="M18.3,45.9c1.3-0.1,2.6,0,3.9,0.1c1,0.4,1.3,0.8,1.2,1.4c0.3,0.4,0.6,0.8,0.8,1.1c-0.6,0.1-0.9-0.1-1.2-0.2
		c-1.7-0.7-3.2-0.7-5.1-0.1c-0.4,0.1-0.8,0.4-1.4,0.3c0.1-0.2,0.2-0.4,0.3-0.6C17.5,47.2,17.9,46.6,18.3,45.9z"/>
	<path class="st12" d="M11.3,16.7c0.6-0.5,1.8-0.6,3-0.9c-0.2,0.7-0.4,1.3-1,1.9C12.6,17.4,12,17.1,11.3,16.7z"/>
	<path class="st13" d="M1.7,48.9C1.7,49,1.5,49,1.4,49.1c-0.5,0-0.9,0-1.4,0c0,0,0-0.1-0.1-0.1C0.6,49,1.2,48.9,1.7,48.9z"/>
	<path class="st6" d="M16.6,48.5c1.3-0.4,2.4-0.9,4.3-0.9c1.7,0,2.2,0.7,3.4,0.9c0.6,0.5,0.1,0.6-0.9,0.6c-1.9,0-3.9,0-5.8,0
		C16.5,49.1,16.3,48.9,16.6,48.5z"/>
	<path class="st6" d="M28.4,3.6c-0.8,0.2-0.8,0-1-0.3C27.3,3,26.9,2.8,25.9,3c-0.3,0.1-0.8,0.2-1-0.1c-0.1-0.2-0.6-0.5,0.3-0.6
		c1.4-0.2,1.8-0.5,1.2-1.1c-0.2-0.2,0.1-0.4,0.6-0.5c0.1,0,0.2,0,0.3,0C28,1.8,28.9,2.6,28.4,3.6z"/>
	<path class="st6" d="M28.4,3.6c-0.4-0.9-0.8-1.8-1.2-2.7C27.4,1,27.9,1,27.9,1.1c0.5,0.6,1.2,1.1,2.6,1.4c0.2,0,0.6,0.6-0.5,0.5
		c-1.1-0.1-0.9,0.2-0.8,0.4c0.1,0.3,0.2,0.5-0.6,0.4C28.6,3.7,28.5,3.7,28.4,3.6z"/>
	<path class="st14" d="M31,14.1c0-0.1-0.1-0.2-0.3-0.3c-0.4-0.1-0.6-0.3-0.6-0.5c-0.2-0.9-0.7-1.7-0.8-2.6c0-0.1,0.1-0.1,0.3-0.2
		c0.8,0,1.7,0,2.5-0.1c0.2,0,0.4,0.1,0.5,0.1c0.6,0.7,1.1,1.5,0.5,2.2c0.2,0.4,0.3,0.8,0.5,1.2C32.7,14.2,31.9,14.4,31,14.1z"/>
	<path class="st15" d="M29.5,10.7c0.4,1.1,0.8,2.1,1.2,3.1c-0.3,0.4-0.6,0.1-0.7,0c-0.6-0.4-1.2-0.7-2-0.9c-0.1-0.1,0.1-0.2,0.1-0.3
		c0.3-0.5,0-0.6-1.1-0.6c-0.2,0-0.4,0.1-0.7,0c-0.5-0.3-1.1-0.5-1.6-0.8c-0.2-0.1-0.7-0.2-0.2-0.4C26.2,10.8,27.8,10.5,29.5,10.7z"
		/>
	<path class="st15" d="M33,12.9c-0.2-0.8-0.3-1.6-1-2.4l0.1,0c1.4-0.3,3-0.3,4.5-0.4c0.3,0,0.6,0,0.9,0.1c-0.5,0.4-1.4,0.7-1.7,1.2
		c-1.2,0.2-1.7,0.5-1.4,1C33.6,12.4,33.6,12.8,33,12.9z"/>
	<path class="st6" d="M36.5,15.9C36.5,15.9,36.4,15.9,36.5,15.9c-3.3,1.4-3.9,1.5-8.5,0.3c0.8-0.1,1.7,0.2,2.4,0
		c1.7,0.2,3.3-0.1,4.9-0.3c0.3-0.1,0.6-0.1,0.9-0.1C36.5,15.7,36.6,15.8,36.5,15.9z"/>
	<path class="st6" d="M35.3,15.9c-1.5,0.4-3.1,0.8-4.9,0.3C31.9,15.5,33.5,15.4,35.3,15.9z"/>
	<path class="st16" d="M29.5,10.7c-1.7,0.1-3.2,0.3-4.9,0.3c1.6-0.4,3.1-0.7,4.7-1.1c0.4,0.3,0.1,0.5,0.3,0.7
		C29.6,10.7,29.5,10.7,29.5,10.7z"/>
	<path class="st17" d="M34.5,12.4c-0.3-0.2-0.7-0.4-0.3-0.7c0.4-0.3,1.1-0.3,1.8-0.3c0.5,0.2,0.8,0.5,0.5,0.8
		C35.9,12.5,35.2,12.5,34.5,12.4z"/>
	<path class="st18" d="M26.4,12.1c0.7-0.3,1.4-0.4,2.1,0c0.6,0.4,0.3,0.7-0.5,0.9C26.4,12.9,26.3,12.8,26.4,12.1z"/>
	<path class="st16" d="M36.7,10.2c-1.5,0.1-3,0.3-4.5,0.3c-0.3-0.6-0.1-0.8,1.5-0.6c0.8,0.1,1.7,0.1,2.5,0.2
		C36.3,10.1,36.9,10,36.7,10.2z"/>
	<path class="st19" d="M31,14.1c0.8,0,1.7-0.1,2.5-0.1c-0.1,0.1-0.2,0.2-0.3,0.2c-0.3,0.2-0.5,0.5-1,0.5
		C31.6,14.7,31.1,14.5,31,14.1z"/>
	<path class="st20" d="M36.7,10.2c-0.2-0.1-0.4-0.1-0.6-0.2c0.6,0,1.1,0,1.4,0.2C37.3,10.2,37,10.2,36.7,10.2z"/>
	<path class="st21" d="M36.5,15.9c-0.1-0.1-0.2-0.1-0.3-0.1c0.2-0.1,0.6-0.3,0.8-0.1C37.1,15.7,36.7,15.8,36.5,15.9z"/>
	<path class="st22" d="M23,42.5c0,0.2-0.1,0.5-0.1,0.7c-0.4,0.1-0.9,0-1.2,0c-1.7-0.3-3.4-0.6-5.2-1c0.2,0,0.4,0,0.6,0
		C19.1,42.3,21,42.4,23,42.5z"/>
	<path class="st22" d="M28.6,43.6c-0.5-0.3-0.9-0.6-1.4-1c2.3,0.1,4.7,0.1,6.9,0.3C32.4,43.3,30.5,43.5,28.6,43.6z"/>
	<path class="st23" d="M33.6,25c-1.2,0.2-2.2-0.1-3.3-0.2c-1.5-0.1-3.1-0.3-4.6-0.5c1-1.1,1.9-2.1,2.9-3.2c0.2-0.2,0.2-0.4,0.7-0.5
		C30.7,22.2,32.1,23.6,33.6,25z"/>
	<path class="st1" d="M24.1,29c-2.6-0.7-5.2-1.4-7.8-2.1c0.1-0.2,0.4-0.2,0.7-0.2c3.3-0.1,6.6-0.2,9.9-0.3c2-0.1,3.9-0.2,5.9-0.2
		c0.6,0,1.2-0.1,1.8,0.1c-0.4,0.6-0.6,1.3-1.3,1.9c-1.3,0.1-2.4-0.3-3.6-0.3c-1.4,0.1-2.4,0.6-3.6,0.9C25.4,28.8,24.9,29.1,24.1,29z
		"/>
	<path class="st24" d="M29.5,27.6c1.2,0.2,2.5,0.3,3.7,0.5c0.8,0.5,0.8,1.1,0.9,1.7c-1.1,0.1-2.1,0.1-3.2,0.1l0,0
		C29.9,29.2,29.2,28.5,29.5,27.6z"/>
	<path class="st7" d="M29.5,27.6c0.2,0.8,1,1.5,1.4,2.3c-2.1,0.2-4.3,0.4-6.4,0.6c-0.2,0-0.4,0-0.6,0c0-0.5,0-1,0-1.5
		C25.9,28.6,27.5,28,29.5,27.6z"/>
	<path class="st25" d="M25.6,24.4c-2.3,0.5-4.5,1-6.9,1.5c0-1.8,0-3.5,0-5.1c2.1,0.8,3.6,1.8,5.4,2.8C24.6,23.8,25.3,24,25.6,24.4z"
		/>
	<path class="st26" d="M13.1,15.5c-1.4-0.2-2.5-0.5-3.6-0.7C11.9,14,11.5,14.1,13.1,15.5z"/>
</g>
</svg>
