<?xml version="1.0" encoding="utf-8"?>
<!-- Generator: Adobe Illustrator 23.1.0, SVG Export Plug-In . SVG Version: 6.00 Build 0)  -->
<svg version="1.1" id="Capa_1" xmlns="http://www.w3.org/2000/svg" xmlns:xlink="http://www.w3.org/1999/xlink" x="0px" y="0px"
	 viewBox="0 0 91.1 152.2" style="enable-background:new 0 0 91.1 152.2;" xml:space="preserve">
<style type="text/css">
	.st0{fill:#E8E8E8;}
	.st1{fill:#F6F6F6;}
	.st2{fill:#543042;}
	.st3{fill:#CBAE2C;}
	.st4{fill:#FDEFEC;}
	.st5{fill:#C36155;}
	.st6{fill:#CEA49E;}
	.st7{fill:#95637C;}
	.st8{fill:#E2C621;}
	.st9{fill:#D26C5A;}
	.st10{fill:#675D52;}
	.st11{fill:#734C5F;}
	.st12{fill:#AA4943;}
	.st13{fill:#4D433C;}
	.st14{fill:#564C43;}
	.st15{fill:#3F3F3F;}
	.st16{fill:#D26F5B;}
	.st17{fill:#554B42;}
	.st18{fill:#EFCFCA;}
	.st19{fill:#FDF5F3;}
	.st20{fill:#FCEFEB;}
	.st21{fill:#675E53;}
	.st22{fill:#CFA7A1;}
	.st23{fill:#F1F1F1;}
	.st24{fill:#AB4943;}
	.st25{fill:#FDFDFB;}
	.st26{fill:#FDFCFA;}
	.st27{fill:#C27C5B;}
	.st28{fill:#FCF5F4;}
	.st29{fill:#534941;}
	.st30{fill:#554B44;}
	.st31{fill:#D0A8A2;}
	.st32{fill:#E7CDC2;}
	.st33{fill:#D0A7A1;}
	.st34{fill:#5A5048;}
	.st35{fill:#FEFEFE;}
	.st36{fill:#EECEC9;}
	.st37{fill:#A18780;}
	.st38{fill:#484848;}
	.st39{fill:#484849;}
	.st40{fill:#D3ABA5;}
	.st41{fill:#584E45;}
	.st42{fill:#30312E;}
	.st43{fill:#2F302D;}
	.st44{fill:#B5D889;}
</style>
<g>
	<path class="st0" d="M68.7,143.5c4.5,0.6,9,0.9,13.5,1.5c2,0.3,4.1,0.3,6.1,0.6c0.2,0.3,0.2,0.6,0,0.9c-3.1,0.6-6.1,0.9-9.4,1.2
		c-3.6,0.6-7.4,1.2-11,1.8c-2,0.3-4.1,0.3-6.1,1.2c-2.5,0-5.2,0-7.7,0c-0.5-0.6-1.1,0-1.6-0.3c-3.6-0.6-7.2-0.9-10.8-1.5
		c-3.4-0.3-6.7-0.9-10.1-1.2c-3.1-0.3-6.1-0.9-9.2-1.2c4.9-0.3,9.9-1.2,14.8-1.2c1.3,0.6,2.5,0.9,3.8,0.9c3.2,0.3,6.7,0.3,9.9,0
		c0.9-0.6,0.4-1.8,1.1-2.4c2-0.9,4.1-0.9,6.3-0.9c0.7,0.9-0.2,1.5,0,2.4c0.2,2.1,0.2,2.1,2,2.1c2,0,4,0,6.1,0c2,0,2,0,2.2-2.4
		C68.4,144.1,68.4,143.8,68.7,143.5z"/>
	<path class="st1" d="M52.5,150.1c0.5,0,1.1-0.3,1.6,0.3c-0.5,0-1.1,0-1.6,0V150.1z"/>
	<path class="st2" d="M69.1,107.8c-0.4,4.5-0.7,9-1.1,13.5c-0.5,0.9-1.3,0.9-2,1.2c-3.1,1.2-6.1,2.4-9.2,3.9
		c-0.5-0.3-0.7-0.9-0.7-1.2c-0.9-3.3-2.3-6.6-2.9-9.9c0.4,0.9,0,2.1-0.2,3c-0.4,2.4,0.2,5.1-1.1,7.2c-0.9,0.6-2,0-2.9,0
		c-2-0.3-4-0.6-5.9-0.9c-0.5,0-1.3-0.3-1.6-0.9c-1.3-6.6-2.2-12.9-3.1-19.5c0.4-0.6,0.9-0.6,1.4-0.3c1.6,0.6,3.2,0.6,4.9,1.5
		c2.3,1.8,4.5,4.2,6.7,6c1.6,1.5,1.6,1.5,3.2-0.3c1.8-1.8,3.6-3.9,5.4-5.7c1.6-1.5,2.9-3.6,4.9-4.5c1.6,1.2,2.7,3.3,4,4.8
		C69.1,106.6,69.3,107.2,69.1,107.8z"/>
	<path class="st3" d="M30.8,70.4c0.5,1.8,0.2,3.6,0.4,5.4c0,0.9,0,1.8,0.2,2.7c0.9,1.8,0.4,3.9,0.4,6c-0.2,0.6-0.4,1.2-0.5,1.5
		c-0.4,0.6-0.7,1.2-1.1,2.1c-0.5,1.8-1.4,3.3-2.2,4.8c-0.2,0.6-0.4,0.9-0.9,0.9c-0.2,0-0.4,0-0.4-0.3c-0.9-1.5-2.2-2.1-3.8-1.5
		c-0.2,0-0.4,0-0.5,0c-2.2,0-3.8,0.9-4.9,3.3c-0.4,0.9-0.5,1.2-0.9,1.2c-2.2-1.8-3.6-4.5-5.4-6.9C10.2,88.4,9,87.5,8.4,86
		c-0.4-3.9-0.7-7.8-0.9-11.7c0-0.3,0-0.6,0.2-0.9c1.8-0.9,3.8-0.9,5.8-1.2c4.9-0.6,9.5-1.5,14.4-2.1C28.8,70.1,29.9,69.8,30.8,70.4z
		"/>
	<path class="st4" d="M38.1,56.6c-1.4-1.8-3.1-3.3-4.5-5.1c-0.9-1.2-0.7-3-0.9-4.5c-0.5-3.6-1.4-7.2-1.6-10.8c0.7,0,0.7,0.9,1.1,1.5
		c1.3,0.9,2.7,0.6,4,0.9c1.6,0.3,3.4,0.3,5,0.9c0.2,0,0.4,0,0.4,0.3c0.2,0,0.4,0.3,0.5,0.6c1.3,1.2,1.4,0.9,2.3-0.6
		c0.2-0.6,0.4-1.2,0.7-1.5c2.7-0.6,5.2-0.3,7.9-0.3c2,0,3.2-0.6,3.8-3c0.2-0.9,0.4-1.8,1.3-2.1c0.7,0.3,0.7,1.2,0.7,1.8
		c0.2,5.4-0.2,10.8-0.4,16.2c0,0.9-0.5,1.8-1.1,2.4c-0.9,0.9-2,1.8-2.9,3c-1.1,0.6-2,1.2-2.9-0.3c-0.4-1.5,0.5-2.7,0.4-4.5
		c-1.4,3.6-3.8,3-6.1,3.3c-0.5,0-0.9-0.3-1.3-0.9c-0.2-0.6-0.2-1.2-0.9-1.5c-0.7,1.2-1.1,3-2.9,3c-1.6-0.3-2.7-1.2-3.8-2.1
		C37.6,54.2,38.7,55.1,38.1,56.6z"/>
	<path class="st5" d="M7.9,73.4c0.4,3.6,0.5,6.9,0.9,10.5c0,0.9,0,1.5,0.4,2.4c-1.3,1.5-2.7,2.4-4.3,3c-1.6-2.7-3.1-5.1-4.5-7.8
		C0,80.9,0,80.3,0,79.7c0.5-5.4,1.3-10.5,2-15.9c0.5-0.3,0.9,0.3,1.1,0.9c0.9,1.5,2,2.7,2.9,4.2C6.5,70.4,7.7,71.6,7.9,73.4z"/>
	<path class="st6" d="M52.2,55.1c0.7,1.5,1.6,0.6,2.5,0.3c2-0.9,4.1-0.3,6.1-0.6c0.9,0,1.1,1.2,0.7,2.1c-0.5,1.8-0.9,3.9-1.6,5.7
		c-0.2,0.6-0.5,0.9-1.1,1.2c-2.5,1.5-4.9,3-7.6,3.9c-1.4-0.6-2.3-2.1-3.6-3c-0.7-0.6-1.6-1.5-2.3-2.1c-0.2,0-0.2-0.3-0.4-0.3
		S44.8,62,44.8,62c-0.2-2.1-1.8-3.3-2.5-5.1c1.1-0.9,2.2-0.9,3.4-0.9C47.9,55.4,50,55.7,52.2,55.1z"/>
	<path class="st7" d="M31.7,37.8c-0.2-0.6-0.2-1.2-0.5-1.5c-0.7-2.1-0.5-4.5-0.9-6.6c0-0.6-0.2-1.2-0.4-1.8c0.2-0.3,0.4-0.3,0.4-0.3
		c0.9-0.3,1.8,0,2.9-0.3c4.7,0,9.4,0,14,0c0.7,0,1.4,0,2.2-0.3c2-0.3,4,0,5.9-0.3c1.1,0.3,2.3-0.3,3.4,0.3c0.7,0.9,0.5,1.8,0.5,3
		c0,0.6,0,1.2-0.2,1.5c-0.2,0.3-0.4,0.9-0.5,0.9l-0.2,0.3c-0.5,4.8-3.1,5.7-6.7,5.4c-2-0.3-4.1,0-6.3,0c-0.7-2.1-0.5-4.2-0.7-6.3
		c0-0.6,0.2-1.5-0.5-1.8c-0.9-0.6-1.8,0-1.8,1.5c-0.2,1.5,0,3,0,4.8c0,0.9,0.2,1.8-0.5,2.4c-1.8,0.9-3.8,0-5.6,0.3
		c-1.1,0-2.2-0.3-3.2-0.3C32.4,38.4,32,38.4,31.7,37.8z"/>
	<path class="st8" d="M7.9,73.4c-0.7-1.5-1.4-3-2.2-4.5c0-0.6,0.4-0.9,0.7-1.2c1.6-0.9,3.1-2.1,4.7-3c1.1-0.6,1.6-0.3,2.3,0.9
		c1.1,2.4,1.1,2.4,3.4,2.1c1.4-0.3,3.1-0.6,4.7-0.6c1.3,0,2.2-0.6,2-2.4c0-0.6,0-1.2,0.4-1.5c2.3,2.4,4.9,4.8,7,7.5
		c-4.5,0.6-9,1.2-13.5,1.8C14,72.8,11,73.4,7.9,73.4z"/>
	<path class="st9" d="M23.6,62.9c0,3.9,0,3.9-3.2,4.5c-1.8,0.3-3.6,0.6-5.6,0.9c-1.3,0.3-1.3-0.9-1.6-1.5c-1.1-2.4-1.1-2.7-3.1-1.2
		c-1.6,0.9-3.2,1.8-4.7,3.3c-1.3-1.8-2.3-3.6-3.6-5.1C3,62.6,4.8,62.6,6.3,62c1.3-0.6,2.5-0.6,3.8-1.2c2.7-1.2,5.4-1.2,8.3,0.3
		C20,61.7,21.8,62.3,23.6,62.9z"/>
	<path class="st10" d="M36.7,0.6c0.2,0,0.2,0,0.4,0c0.7,0.9,1.1,2.1,1.4,3c1.3,3.6,2.7,7.5,4,11.1c0.2,0.6,0.7,1.5-0.2,1.8
		c-3.4,0.6-6.8,0.3-10.3-0.3c-1.3-1.2-1.6-2.7-1.8-4.5v-0.3c-1.4-2.7-0.2-4.2,1.4-5.7C33.5,4.2,35.1,2.4,36.7,0.6z"/>
	<path class="st11" d="M30.9,85.1c0-2.1,0-4.2,0-6.3c1.1-3.3,2.3-6.6,3.4-10.2c1.8,1.2,2.3,3.6,2.9,5.7c0.2,4.5,0.7,9.3,0.7,13.8
		c-0.2,0.9,0.2,1.8-0.5,2.7c-0.9,1.5-1.6,2.7-2.5,4.2c-0.5,0.3-0.9,0-1.1-0.6c-1.1-2.7-2.3-5.4-3.1-8.4
		C30.9,85.7,30.9,85.4,30.9,85.1z"/>
	<path class="st2" d="M41.7,124c3.6,0.3,7,1.2,10.4,1.5c0.5,0.6,0.5,1.5,0.5,2.4c-0.4,3-0.2,6-0.7,9c-0.2,1.5-0.9,2.1-2.2,1.8
		c-1.3-0.3-2.5,0-3.8,0c-0.7,0-1.3,0-1.8-0.6C43.2,133.3,42.5,128.8,41.7,124z"/>
	<path class="st11" d="M37.1,73.7c-0.7-1.8-1.4-3.6-2.5-5.1c0.2-0.6,0.5-0.6,0.9-0.9c2.7-0.6,5.2-0.9,7.9-1.2
		c0.9-0.3,1.3-0.6,1.3-1.8s-0.2-2.1,0.4-3c0.2,0,0.2,0,0.4,0c0.9,1.5,0.4,3.3,0.5,5.1c-0.5,6-0.9,12-1.3,18c0,0.6-0.2,1.5-0.4,2.1
		c-0.4,0.6-0.5,0.6-0.9,0c-0.4-0.6-0.5-0.9-0.9-1.5c-1.4-3-2.9-6-4.1-8.7C37.6,75.8,37.2,74.9,37.1,73.7z"/>
	<path class="st12" d="M4.7,89.3c1.4-1.2,2.9-2.1,4.3-3c2.5,3.3,5,6.9,7.6,10.2c0.5,1.2,0.9,2.7,0.4,4.2c-3.6-1.5-7.4-3-9.5-7.2
		C6.5,91.7,5.6,90.5,4.7,89.3z"/>
	<path class="st11" d="M37.6,90.8c0-0.9,0-1.8,0-2.7c0.2,0,0.4,0,0.4,0c0.4,1.8,1.6,3,2.3,4.2c0,0.6-0.2,0.9-0.4,1.5
		c-0.4,0.6-0.4,1.2,0.2,1.5c0.5,0.3,0.5-0.3,0.9-0.6c0.2-0.3,0.4-0.6,0.7-0.6c1.1,0.3,1.6,1.2,2.3,1.8c0.2,0.3,0.4,0.6,0.4,0.6
		c0,0.3,0.2,0.3,0.2,0.6c0,1.2,0.2,2.7,0.4,3.9c0.2,1.8,0.5,3.6,0.2,5.1c-2.2-0.3-4.3-1.5-6.5-1.5c-0.4-3.9-0.4-8.1-0.5-12
		C38,92,38.1,91.1,37.6,90.8z"/>
	<path class="st2" d="M44.1,138.1c2.2,0.3,4.3-0.3,6.5,0.3c0.9,0.3,0.5-1.2,0.9-1.5c0.9,1.2,0.4,2.4,0.5,3.6c0,0.9,0,1.5-0.2,2.4
		v0.3c-0.4,0.9,0.2,1.8-0.4,2.7c-0.5-1.8-1.4-2.1-2.9-2.1c-3.4,0.3-6.8-0.3-10.3,0.3c-0.4,0-0.9,0-1.1-0.3c1.4-2.1,3.4-3,5-4.8
		C43,139,43.5,138.4,44.1,138.1z"/>
	<path class="st13" d="M30.2,12c0.7,1.2,1.1,2.7,1.4,4.2c0,0,0.2,0,0.2,0.3c0,3.9-0.4,7.8-1.6,11.4H30h-0.2
		c-1.3-1.8-2.3-3.9-3.6-5.7c-0.5-0.9-0.5-1.5,0-2.1C27.5,17.1,29,14.7,30.2,12z"/>
	<path class="st14" d="M52.2,55.1c-0.5,1.2-1.6,0.9-2.3,1.2c-2.5,0.3-5,0.3-7.6,0.6c-1.3-0.3-2.7,0.6-4,0c-0.5-1.5-0.9-3-1.6-5.4
		c1.1,0.9,1.6,1.5,2.3,2.1c0.5,0.3,0.9,0.9,1.4,0.9c1.4,0,2.7,0,2.9-2.1c0-0.6,0.2-0.9,0.7-1.2c0.5,0,0.7,0.6,0.9,1.2
		c0.2,1.5,0.9,1.5,2,1.5c2.7,0.3,4.3-1.5,5.8-3.9C53.1,51.8,52.4,53.3,52.2,55.1z"/>
	<path class="st5" d="M16.7,100.3c0-1.5-0.5-2.7-0.4-4.2c0.2-0.3,0.4-0.3,0.5-0.3c3.1-0.6,6.1-1.8,9.4-1.8c0.2,0,0.2,0,0.2,0
		c1.1,1.2,0.7,2.4,0.7,3.9c-2.7,1.2-5.4,1.5-8.1,2.1C18.3,100.3,17.6,100.6,16.7,100.3z"/>
	<path class="st15" d="M37.4,144.1c4-0.9,8.1-0.3,12.2-0.3c2.2,0,2.2,0,2.2,2.4c-3.8,0.3-7.4,0-11.2,0c-0.7,0-1.6-0.3-2.3,0
		c-0.7,0-0.9-0.6-0.9-1.2C37.2,144.4,37.2,144.4,37.4,144.1z"/>
	<path class="st11" d="M45,61.7c0,0.6,0,0.9,0,1.5c0,3.3,0,3.6-2.7,3.9c-2,0.3-4,0.6-5.9,0.9c-0.4,0-0.7,0-1.1-0.3
		c3.1-2.1,6.3-4.2,9.4-6.3C44.8,61.7,45,61.7,45,61.7z"/>
	<path class="st11" d="M30.9,85.1c1.1,3,2.2,6,3.2,9c0.2,0.6,0.4,0.9,0.9,0.9c-0.4,0.9-0.9,0.3-1.3,0c-1.6-0.6-3.2-1.5-4.9-2.1
		c-0.5-1.5,0.5-2.7,0.7-4.2c0.4-0.9,0.5-1.5,0.9-2.4C30.6,85.7,30.8,85.4,30.9,85.1z"/>
	<path class="st16" d="M29.9,88.7c-0.4,1.5-0.5,2.7-0.9,4.2c-0.5,1.8-1.1,3.6-1.6,5.4c-0.2-1.2-0.4-2.7-0.7-3.9
		c0.9-2.1,1.8-3.9,2.9-6C29.9,88.1,30,88.1,29.9,88.7z"/>
	<path class="st17" d="M42.5,16.5C40.7,11.1,38.7,6,36.9,0.6c4.7,0.9,9.4,1.5,14,2.4c3.2,0.6,6.5,1.2,9.7,1.8c0.5,0.6,0.2,1.5,0,2.1
		c-0.5,1.8-0.9,3.6-1.6,5.7c0.7-0.9,1.4-1.8,2.2-2.7c0.4-0.3,0.7-1.2,1.4-0.6c2,2.7,4,5.4,6.1,8.1c0.4,0.6,0.7,0.9,0.2,1.5
		c-1.4,0-2.7,0.9-4,1.5c-0.9,0.3-1.8,0.9-2.9,0.9c-1.3-0.6-1.4-2.1-2.2-3c-0.7-1.2-1.1-2.4-2-3.3c-2.5-0.6-4.9,0.6-7.4,0.9
		c-2,0.3-4,0.6-5.9,0.9C43.9,17.1,43.2,17.4,42.5,16.5z"/>
	<path class="st18" d="M58.5,32.7c0.2-0.3,0.2-0.6,0.4-0.9c1.4-0.6,2.7,0.3,4,0.9c0.5,1.5,0,2.7,0,3.9c0,0.9-0.4,2.1,0.2,3
		c0.2,0.9,0.7,1.5,1.3,2.4c0.5,0.9,1.3,1.5,1.4,2.7c-0.4,3.9-1.6,7.8-2.3,11.7c-0.4,1.8-1.1,3.3-0.7,5.4c-0.2,0.3-0.4,0.3-0.5,0.6
		c-0.7,0.3-1.4,0.9-2.3,0.6c0.5-2.1,1.1-4.2,1.4-6c0.2-0.9,0.2-1.5-0.7-1.2c-2,0.6-3.8,0.3-5.8,0.3c0.7-1.5,2-2.1,3.1-3.3
		c0.4-0.3,0.5-0.9,0.7-1.5c0.2-5.7,0.4-11.4,0.4-17.4C58.7,33.3,58.5,33,58.5,32.7z"/>
	<path class="st2" d="M57.2,126.4c0-0.6,0.4-0.9,0.9-0.9c3.4-1.2,6.7-2.7,10.1-3.9c-0.2,5.4-0.5,10.8-0.9,16.2
		c-2,1.2-4.1,1.2-6.3,0.9c-0.5-0.3-0.7-0.9-1.1-1.5c-1.1-3-1.8-6.3-2.7-9.3C57,127.3,56.9,126.7,57.2,126.4z"/>
	<path class="st11" d="M72.7,66.5c1.8,7.2,3.8,14.4,5.2,21.9c-1.1,0.9-2.2,0.6-3.4,0.6c-1.4,0-2.9,0-4.3,0c-1.1,0-1.6-0.6-1.6-1.8
		c0.5-5.1-0.2-10.2,0.5-15.3c0.5-2.1,1.6-3.3,2.7-4.8C72,66.8,72.3,66.5,72.7,66.5z"/>
	<path class="st11" d="M72.7,66.5c-1.3,1.5-2.2,3.3-3.1,4.8c-2,4.5-5,8.4-7.4,12.6c-0.7,0.9-0.9,2.1-2,2.4c0,0-0.2,0-0.2-0.3
		c-0.2-0.3-0.2-0.3-0.2-0.6c0.2-5.7,0.9-11.7,1.1-17.4c0-0.6,0.2-1.2,0.4-2.1c0.2-0.3,0.2-0.3,0.4-0.6c3.1-0.6,6.1-0.3,9-0.3
		c0.5,0,0.9,0.3,1.4,0C72.3,65.9,72.7,66.2,72.7,66.5z"/>
	<path class="st11" d="M74.7,88.4c1.1,0,2.2,0,3.2,0c-2.3,4.5-4.7,8.7-7,13.2c-0.4,0.3-0.7,0.3-1.1,0.3c-1.4-0.9-3.1-1.2-4.3-2.4
		c-0.2-0.3-0.2-0.6-0.2-0.9c1.1-3,1.8-6.3,3.2-9.3c0.5-0.9,1.3-0.6,2-0.6C71.8,88.7,73.2,89,74.7,88.4z"/>
	<path class="st13" d="M62.1,21.3c2-0.6,3.8-1.5,5.6-2.4c0.4-0.3,1.1-1.2,1.3,0.3c-0.4,3.9-1.1,7.8-1.6,11.4
		c-1.6,0.3-3.1-0.3-4.5-1.5c-0.4-0.6-0.4-1.2-0.5-1.8C62.3,25.5,61.4,23.4,62.1,21.3z"/>
	<path class="st2" d="M60.6,138.1c2.2,0.3,4.3-0.3,6.5-0.3c0.5,2.1,1.1,3.9,1.6,6c0,0.3,0,0.6,0,0.9c-0.4,0.6-1.1,0.6-1.6,0.6
		c-2.5,0-5,0-7.7,0c-0.5,0-1.1,0-1.6-0.6c-0.2-0.9,0.5-1.2,0.5-1.8C58.7,140.8,59.4,139.3,60.6,138.1z"/>
	<path class="st19" d="M63,29.1c1.4,0.6,2.9,0.9,4.3,1.5c0,3.3-1.1,6.6-1.3,9.9c-1.3,0.9-2.3,0.3-3.4-0.6c-0.4-0.3-0.9-0.3-0.7-1.2
		c0.4-1.8,0.4-3.9,0.5-5.7c-0.2-0.3-0.4-0.6-0.4-1.2C62.4,30.9,62.4,30,63,29.1z"/>
	<path class="st11" d="M72.2,65.9c-0.7,0.6-1.6,0.3-2.3,0.3c-2.7,0-5.4,0-8.1,0c-0.7-1.8-0.4-3.3,0.4-4.8c0.2,0,0.4,0,0.5,0
		C65.7,62.9,68.9,64.4,72.2,65.9z"/>
	<path class="st20" d="M65.5,99.5c1.8,0.9,3.6,1.5,5.2,2.1c-0.7,2.1-1.4,4.2-1.8,6.3c0-1.2-0.9-1.8-1.4-2.7
		c-0.9-1.2-1.8-2.4-2.7-3.6C64.4,100.6,64.8,99.8,65.5,99.5z"/>
	<path class="st21" d="M62.8,9.3c-1.3,0.6-1.8,1.8-2.7,2.7c-0.5,0.6-0.7,1.2-1.4,1.5c0.5-3,1.8-5.7,2.2-8.7
		C61.7,6,62.1,7.8,62.8,9.3z"/>
	<path class="st22" d="M62.8,39.9c1.1,0.3,2.3,0.3,3.4,0.6C66,42,66,43.2,65.7,44.7c-0.9-1.2-1.8-2.1-2.7-3.3
		C62.8,41.1,62.4,40.5,62.8,39.9z"/>
	<path class="st23" d="M88.2,146.2c0-0.3,0-0.6,0-0.9c0.5,0,1.1,0,1.8,0C89.3,146.2,88.9,146.2,88.2,146.2z"/>
	<path class="st15" d="M57.8,144.4c3.6,0,7.2,0,10.8,0v0.3c0.2,2.7,0.2,2.7-2,2.7c-2.2,0-4.5,0-6.7,0
		C57.8,147.4,57.8,147.4,57.8,144.4z"/>
	<path class="st2" d="M45,106c-0.2-1.8-0.4-3.6-0.5-5.1c1.1-0.9,2.3-0.6,3.4-0.3c1.1,0,2,0.3,3.1,0c0.2,0,0.4,0,0.5,0
		c2.3,0.3,4.5,0,6.8,0c0.7,0,1.4,0,2.2,0.6c0.5,1.8,0.5,3.3-0.2,5.1c-2.2,2.4-4.3,4.8-6.5,7.2c-0.4,0.6-0.9,0.6-1.4,0
		C50,110.8,47.3,108.7,45,106z"/>
	<path class="st11" d="M60.3,106c0-1.5,0-3.3,0-4.8c-0.7-1.5,0-3,0-4.5c0-0.3,0-0.3,0.2-0.6c0.5-0.9,1.3-1.8,2.3-1.8
		c0.5,0,0.7,0.6,1.1,0.9c0.4,0.6,0.7,0.6,1.1,0c0.4-0.6,0-0.9-0.2-1.2c-0.2-0.3-0.5-0.9-0.5-1.2c0.9-1.8,2.5-2.7,3.8-3.6
		c0.2-0.3,0.7-0.3,0.7,0.6c-1.1,3.3-2.2,6.6-3.1,9.6c-0.2,0.9-0.5,1.5-0.7,2.4C63.3,103,61.9,104.5,60.3,106z"/>
	<path class="st24" d="M26.4,94.1c-2.3,1.2-4.9,1.2-7.4,1.8c-0.5,0.3-1.3,0.9-2,0c0.7-3,2.5-3.9,4.7-3.9c0.4,0,0.7,0,1.3-0.3
		C24.8,91.4,25.9,92.3,26.4,94.1z"/>
	<path class="st25" d="M13.3,80.9c-0.7-0.3-1.1-0.9-0.9-1.5c0.2-1.2,0.7-0.6,1.3-0.3c1.4,0.3,2.7,0.6,4.1,0.6c0.7,0,1.3,0.6,0.9,1.5
		c0.2,1.5-0.2,1.5-1.3,1.2"/>
	<path class="st26" d="M25.4,77.9c0.5-0.3,1.1-0.6,1.8-0.9c0.4-0.3,0.9-0.6,1.1,0c0.2,0.6,0.4,1.5-0.4,1.8c-1.3,0.9-2.7,1.8-4.1,2.4
		"/>
	<path class="st27" d="M29.9,88.7c-0.2-0.3-0.2-0.3-0.4-0.6c0.4-0.6,0.4-1.5,0.9-1.8C30.4,87.2,30.2,87.8,29.9,88.7z"/>
	<path class="st28" d="M41.6,38.1c0-2.4,0.2-5.1,0-7.5c0-1.8,0.9-1.5,1.8-1.5c0.9,0,1.8-0.3,1.8,1.5c0,2.4,0.2,5.1,0.2,7.5
		c0,0.6-0.2,1.2-0.4,1.5c-1.1,0.6-2,0.6-3.1,0c-0.2,0-0.2,0-0.4,0C41.4,39.3,41.4,38.7,41.6,38.1z"/>
	<path class="st29" d="M46.6,42.6c0.5,0,1.1,0,1.4,0c0.5,0.3,1.1,0,1.6,0.3c1.4-0.3,2.2,0.9,2.7,2.1c0.4,0.6,0.5,1.5,1.1,2.4
		c-1.3-0.9-2.3-1.5-3.2-2.4c-1.8-0.6-3.6,0.3-5.2-0.3c0-0.3,0-0.6,0-1.2C44.8,41.7,45.9,42.6,46.6,42.6z"/>
	<path class="st30" d="M36.3,48.6c0.4-1.2,0.7-2.4,1.1-3.6c0.2-0.6,0.5-0.9,1.1-0.9c1.1-0.3,2.2-0.9,3.2-1.2c0.4,0,1.1-1.2,1.3,0.3
		c0.2,0.9,0.2,1.8-0.5,2.1c-0.2,0-0.2,0-0.4,0C39.9,45.9,38,46.8,36.3,48.6z"/>
	<path class="st31" d="M45.2,45c1.8,0.3,3.6-0.3,5.2,0.3c-0.2,0.6-0.2,1.2-0.9,1.5c-1.4,0.6-2.9,1.2-4.3,1.8
		c-1.6,0.6-3.1-0.3-4.7-0.9c3.1-0.3,5.9-0.9,8.8-2.1C48,45,46.4,45.9,45.2,45z"/>
	<path class="st32" d="M41.6,38.1c0,0.6,0,1.2,0,1.5c-3.1-0.3-6.1-1.2-9.2-1.2c-0.4,0-0.7-0.3-0.7-0.9c0.4,0.3,0.7,0.3,1.3,0.3
		C35.8,38.1,38.7,38.1,41.6,38.1z"/>
	<path class="st33" d="M41.9,39.6c1.1,0,2.2,0,3.1,0C43.7,41.7,43.4,41.7,41.9,39.6z"/>
	<path class="st34" d="M46.6,42.6c-0.7,0-1.6-0.3-1.6,1.2C44.4,41.1,45.9,42.9,46.6,42.6z"/>
	<path class="st34" d="M49.8,43.2c-0.5,0-1.1,0.3-1.6-0.3C48.8,42.9,49.3,42.9,49.8,43.2z"/>
	<path class="st35" d="M61.9,61.4c-0.2,1.5-0.2,3.3-0.4,4.8v0.3c-1.8,1.8-4,2.4-5.9,3.6c-0.7,0.6-1.6,0.9-2.5,1.5
		c-0.5,0.3-1.1,0.6-1.6,0c-0.4-1.5-0.4-3-0.2-4.5c2.9-1.2,5.6-3,8.5-4.5C60.5,62.3,61.2,61.7,61.9,61.4z"/>
	<path class="st35" d="M51.3,67.1c0.5,1.5,0.2,3,0.4,4.5c-0.2,0.3-0.5,0.3-0.7,0.3c-2-1.5-4-2.7-5.4-4.8c0-1.8,0-3.6,0-5.1
		C47.3,63.5,49.3,65.3,51.3,67.1z"/>
	<path class="st4" d="M42.5,16.5c4.9-0.3,9.7-1.5,14.4-2.1c0.5,0,1.1-0.6,1.4,0.6c0.2,0.6,0.5,1.2,0.5,2.1c0,3,0,5.7,0.4,8.7
		c0,0.6,0,1.2-0.2,1.5l-0.2,0.3c-1.1,0-2.3,0-3.4,0c-0.2-0.9,0.7-1.5,0.7-2.4c-0.9-1.5-2.2-2.1-3.6-1.5c-1.3,0.6-2.3,0.9-3.8,1.2
		c-1.1,0.3-1.3,0.9-1.1,1.8c-0.2,0.6-0.4,0.9-0.7,0.9c-1.8,0-3.6,0-5.4,0c-0.5,0-1.1,0.3-1.6-0.3c-0.4-2.7-2.2-3-3.8-3.3
		c-1.4-0.3-2.9,0.3-3.8,1.8c0,0.6,0.7,1.2,0.5,2.1c-0.9,0-1.8,0-2.7,0c0.5-3.9,1.1-7.8,1.6-11.4c3.1,0,6.1,0.3,9.2,0.3
		C41.6,16.5,42.1,16.5,42.5,16.5z"/>
	<path class="st8" d="M56.7,31.2c-0.4,1.5-0.7,2.7-1.1,4.2c-0.2,0.6-0.5,0.9-0.9,0.9c-2.3,0-4.5,0-6.8,0c-0.2,0-0.4-0.3-0.5-0.3
		c0.2-1.5,0.2-3,0.7-4.2c0.4-1.2,1.1-1.8,2-1.8c1.6,0,3.4-0.3,5-0.6C56.7,28.8,56.9,29.1,56.7,31.2z"/>
	<path class="st8" d="M38.1,36.3c-1.1,0-2,0-2.9,0c-2,0.3-2.7-0.6-3.2-2.7c-0.7-3-0.4-4.2,2.2-4.2c1.1,0,2.3-0.3,3.2,0.6
		c0.4,0.3,0.2,0.6,0,0.9c-0.4,0.6-0.7,1.5,0,1.8c1.1,0.6,1.1-0.9,1.4-1.5c0.2-0.3,0.2-0.3,0.4-0.3c0.9,1.2,0.5,2.7,0.7,3.9
		c0,0.6-0.2,0.9-0.7,0.9C39,36.3,38.7,36,38.1,36.3z"/>
	<path class="st36" d="M32.9,27.6c-0.4-0.6-0.5-1.2-0.9-1.8c2.5-2.1,4.9-1.5,8.1,0.6c0.4,0.9,0.9,0.9,1.6,0.9c1.8,0,3.8,0,5.6,0
		c0.7-0.3,1.4-0.9,2.2,0c-1.6,0.6-3.2,0.3-4.7,0.3C40.8,27.6,36.9,27.6,32.9,27.6z"/>
	<path class="st36" d="M49.5,27.3c-0.7,0-1.4,0-2.2,0c0.2-0.3,0.2-0.9,0.4-1.2c1.6-0.9,3.2-1.5,4.9-2.1c1.4-0.6,2.9,0,4,1.2
		c-0.4,0.6-0.7,1.5-1.3,2.1C53.4,27.3,51.5,27.3,49.5,27.3z"/>
	<path class="st3" d="M56.7,31.2c0.2-1.8-0.4-2.1-1.8-1.8c-1.3,0.3-2.7,0.6-4.1,0.6c-1.3,0-2.2,0.6-2.5,2.1
		c-0.2,1.2-0.7,2.4-0.9,3.6c-0.2-1.8-0.4-3.3-0.4-5.1c0-0.9,0.2-1.2,1.1-1.2c2.5,0.3,5-0.3,7.6-0.3C57,28.8,57,29.1,56.7,31.2z"/>
	<path class="st7" d="M63,29.1c-0.2,0.9-0.2,1.8-0.4,2.7c-1.6,0.3-2.7-0.3-4-1.5c0-0.9,0-2.1,0-3l0,0c0.7-0.6,1.4,0.3,2.2,0.6
		c0.7,0.3,1.3,0.6,2,0C63.2,28.2,63,28.8,63,29.1z"/>
	<path class="st3" d="M38.1,36.3C38.3,36,38.7,36,39,36c0.7,0,1.1-0.6,0.7-1.2c-0.4-1.2-0.4-2.4-0.9-3.3c-0.5-0.6-1.1-0.6-1.6-1.2
		c-1.1-0.6-2.3,0-3.4-0.9c1.8-0.9,3.8-0.3,5.6-0.3c0.5,0,0.5,0.6,0.5,0.9c0,1.8,0.2,3.6,0,5.1C40.1,37.2,39,36,38.1,36.3z"/>
	<path class="st37" d="M58.7,30.3c1.3,0.6,2.7,0.9,4,1.5c0,0.3,0,0.6,0,1.2c-1.4,0-2.7-0.9-4-1.2C58.7,31.2,58.7,30.9,58.7,30.3z"/>
	<path class="st11" d="M40.1,92.6c-0.2-0.3-0.2-0.6-0.4-0.6c-1.4-0.9-2-2.4-2.2-3.9c0.2-4.8-0.7-9.6-0.5-14.4
		c2,3.6,3.8,7.5,5.6,11.4c0.2,1.8,0.2,3.9-0.4,5.7C41.6,91.4,41.2,92.6,40.1,92.6z"/>
	<path class="st7" d="M45.3,67.1c1.6,1.2,3.1,2.4,4.7,3.6c0.5,0.3,0.9,0.9,1.4,0.9c2.7-0.9,4.9-2.4,7.4-3.6c0.9-0.3,1.6-0.9,2.5-1.2
		c-0.5,6.6-1.1,13.2-1.4,19.8c-0.5,0.9-1.4,0.9-2.2,0.9c-4-0.3-7.9,0.6-11.7,0.3c-0.7,0-1.3,0-2-0.3l-0.2-0.3
		C44.3,80.6,44.8,73.7,45.3,67.1z"/>
	<path class="st2" d="M41.9,90.8c0.5-1.8,0-3.9,0.5-5.7c0.4,0.9,0.9,1.5,1.3,2.4l0,0c0.2,0.3,0.2,0.6,0.2,0.9
		c-0.2,1.2-0.7,2.4-1.3,3.6c-0.2,0.3-0.4,1.2-0.9,0.6C41.6,92,41.7,91.4,41.9,90.8z"/>
	<path class="st7" d="M43.7,88.1c0-0.3,0-0.6,0-0.9c5.4,0,10.8-0.3,16.2-0.9l0,0c0.9,3,0.9,6.3,0.5,9.3v0.3c-0.9,0.9-2,0.6-2.9,0.6
		c-0.9,0-1.8,0-2.7,0c-2.5,0-5,0-7.6,0c-0.2,0-0.4,0-0.5,0c-0.9-0.3-2,0.3-2.7-0.6c-0.2-0.3-0.2-0.3-0.4-0.3
		C42.8,93.5,43.4,90.8,43.7,88.1z"/>
	<path class="st38" d="M47,96.5c0.2,0,0.2,0,0.4,0c1.6,1.2,2.9,2.7,3.8,4.5c-0.7,0.6-1.4,0.6-2.2,0.3c-1.4-0.3-2.9-0.3-4.3-0.3
		c-0.4-1.5-0.4-2.7-0.4-4.2C45,96.2,46.1,96.8,47,96.5z"/>
	<path class="st11" d="M43.7,88.1c0,2.7,0,5.4,0,7.8c-0.7-0.6-1.4-1.2-2.2-1.8c-0.4-0.6-0.2-1.2,0.4-1.5
		C42.6,91.1,43.2,89.6,43.7,88.1z"/>
	<path class="st2" d="M41.9,92.6c-0.2,0.6-0.2,0.9-0.4,1.5c-0.2,0.3-0.2,0.3-0.4,0.6c-0.4,0.6-0.4,1.5-0.9,1.5
		c-0.5,0-1.1-0.6-1.4-1.5c-0.2-0.9,0.5-0.9,0.7-1.5c0.2-0.3,0.2-0.3,0.4-0.6c0.5-0.6,1.3-1.2,1.8-1.8C41.9,91.4,41.9,92,41.9,92.6z"
		/>
	<path class="st39" d="M47,96.5c-0.9,0.6-1.8,0.3-2.7,0.3v-0.3C45,96.5,45.9,96.5,47,96.5z"/>
	<path class="st0" d="M51.6,141.1c0.5,0.6,0.2,1.5,0.2,2.4C51.5,142.6,51.6,141.7,51.6,141.1z"/>
	<path class="st18" d="M62.8,27.6c0,0.9-0.2,1.5-1.1,0.9c-1.1-0.6-2.2-0.9-3.1-1.5c-0.2-4.2-0.4-8.1-0.4-12.3
		c1.3,2.1,2.3,4.2,3.6,6.3C62.3,23.4,62.6,25.5,62.8,27.6z"/>
	<path class="st11" d="M68.7,89.6c-0.2-0.3-0.4-0.3-0.5-0.3c-1.3,1.2-2.5,2.4-3.8,3.6c-1.3-0.3-1.6-1.8-2.5-2.4
		c-0.2-0.3-0.2-0.3-0.2-0.6c0.2-2.1,0-3.9,0.2-6c2.5-4.2,5-8.4,7.7-12.6c-0.5,1.8-0.4,3.9-0.4,5.7c0,3.3,0,6.3-0.4,9.6
		c-0.2,1.2,0.4,1.8,1.4,1.8c1.4,0,2.9,0,4.1,0c-1.3,0.9-2.7,0.3-4.1,0.3C69.8,89,69.1,88.7,68.7,89.6z"/>
	<path class="st11" d="M61.9,90.5c0.2,0,0.2,0,0.4,0c0.4,1.2,0.7,2.7,0.5,4.2c-0.9,0-1.3,1.2-2.2,1.5c-0.5-3-0.4-6.3-0.5-9.3
		c0.2,0,0.2,0,0.2,0c0.7,1.2,0.9,2.4,1.3,3.9c0,0.3,0.2,0.6,0.2,0.6C61.7,90.8,61.5,90.5,61.9,90.5z"/>
	<path class="st2" d="M61.9,90.5c0,0.3,0,0.6,0,1.2c-0.7-1.5-1.4-3-1.6-4.8c0.5-0.9,1.1-1.8,1.6-2.7C62.4,86,62.3,88.1,61.9,90.5z"
		/>
	<path class="st40" d="M63.7,35.4c0.2-0.9,0.2-1.8,0.2-2.4s-0.2-1.2,0.4-1.2c0.5-0.3,0.9,0.3,1.4,0.3c0.2,0,0.4,0.6,0.2,0.6
		C65.1,33.6,64.8,34.8,63.7,35.4z"/>
	<path class="st38" d="M55.1,96.5c1.8,0,3.8,0,5.6,0c0.2,1.8-0.2,3.3-0.4,4.8c-2.5,0-5,0-7.6,0c-0.5,0-1.1,0.3-1.4-0.3
		c-0.2-0.3,0-0.9,0.2-0.9C52.7,98.9,53.6,97.4,55.1,96.5z"/>
	<path class="st2" d="M55.1,96.5c-1.1,1.8-2.7,2.7-3.8,4.5c-0.2,0-0.2,0-0.4,0c-1.3-1.5-2.5-3-3.8-4.5
		C49.8,96.5,52.4,96.5,55.1,96.5z"/>
	<path class="st2" d="M62.8,94.4c-0.7-1.2-0.7-2.7-0.5-4.2c0.9,0.6,1.3,1.8,2.2,2.7c0.2,0.3,0.4,0.6,0.5,0.6
		c0.2,0.6,1.4,0.9,0.4,1.8c-0.9,0.9-1.4,0.6-2-0.6C63.2,94.7,63,94.7,62.8,94.4z"/>
	<path class="st41" d="M56.5,25.2c-2.5-1.5-4.9-0.6-7.4,0.6c-0.5,0.3-1.1,0.6-1.6,0.3c-0.7-0.9-0.5-1.5,0.7-1.8
		c1.3-0.3,2.5-0.6,3.6-1.2c1.8-1.2,3.2,0,4.7,0.9C56.9,24.3,56.9,24.6,56.5,25.2z"/>
	<path class="st41" d="M40.1,26.4c-0.2,0-0.5,0-0.7-0.3c-2.3-1.2-4.9-1.5-7.4-0.6c0-0.3-0.4-0.6,0-0.9c1.6-0.9,3.1-2.7,5-1.5
		c0.5,0.3,1.1,0.3,1.6,0.6C39.9,24.3,40.5,24.9,40.1,26.4z"/>
	<path class="st42" d="M52.7,31.8c-0.2,0.9-0.4,1.5-1.1,1.5c-0.7,0-1.3-0.3-1.3-1.2c0-0.9,0.4-1.5,1.3-1.5
		C52.4,30.6,52.7,31.2,52.7,31.8z"/>
	<path class="st43" d="M39,31.8c0,0.9-0.2,1.5-1.1,1.8c-0.5,0-0.9,0-1.3-0.6c-0.5-0.9-0.2-1.5,0.4-2.1C38.1,30.6,38.9,30.6,39,31.8z
		"/>
	<path class="st44" d="M39,31.8c-0.4-0.9-1.1-1.2-1.8-0.9c0.2-0.3,0.2-0.3,0.4-0.6c0.7,0,1.4-0.3,1.6,1.2
		C39.2,31.5,39.2,31.8,39,31.8z"/>
</g>
</svg>
