<?xml version="1.0" encoding="utf-8"?>
<!-- Generator: Adobe Illustrator 23.1.0, SVG Export Plug-In . SVG Version: 6.00 Build 0)  -->
<svg version="1.1" id="Capa_1" xmlns="http://www.w3.org/2000/svg" xmlns:xlink="http://www.w3.org/1999/xlink" x="0px" y="0px"
	 viewBox="0 0 50 50" style="enable-background:new 0 0 50 50;" xml:space="preserve">
<style type="text/css">
	.st0{fill:#E8E8E8;}
	.st1{fill:#F6F6F6;}
	.st2{fill:#543042;}
	.st3{fill:#CBAE2C;}
	.st4{fill:#FDEFEC;}
	.st5{fill:#C36155;}
	.st6{fill:#CEA49E;}
	.st7{fill:#95637C;}
	.st8{fill:#E2C621;}
	.st9{fill:#D26C5A;}
	.st10{fill:#675D52;}
	.st11{fill:#734C5F;}
	.st12{fill:#AA4943;}
	.st13{fill:#4D433C;}
	.st14{fill:#564C43;}
	.st15{fill:#3F3F3F;}
	.st16{fill:#D26F5B;}
	.st17{fill:#554B42;}
	.st18{fill:#EFCFCA;}
	.st19{fill:#FDF5F3;}
	.st20{fill:#FCEFEB;}
	.st21{fill:#675E53;}
	.st22{fill:#CFA7A1;}
	.st23{fill:#F1F1F1;}
	.st24{fill:#AB4943;}
	.st25{fill:#FDFDFB;}
	.st26{fill:#FDFCFA;}
	.st27{fill:#C27C5B;}
	.st28{fill:#FCF5F4;}
	.st29{fill:#534941;}
	.st30{fill:#554B44;}
	.st31{fill:#D0A8A2;}
	.st32{fill:#E7CDC2;}
	.st33{fill:#D0A7A1;}
	.st34{fill:#5A5048;}
	.st35{fill:#FEFEFE;}
	.st36{fill:#EECEC9;}
	.st37{fill:#A18780;}
	.st38{fill:#484848;}
	.st39{fill:#484849;}
	.st40{fill:#D3ABA5;}
	.st41{fill:#584E45;}
	.st42{fill:#30312E;}
	.st43{fill:#2F302D;}
	.st44{fill:#B5D889;}
</style>
<g>
	<path class="st0" d="M38.2,47.7c2.5,0.2,5,0.3,7.5,0.5c1.1,0.1,2.3,0.1,3.4,0.2c0.1,0.1,0.1,0.2,0,0.3c-1.7,0.2-3.4,0.3-5.2,0.4
		c-2,0.2-4.1,0.4-6.1,0.6c-1.1,0.1-2.3,0.1-3.4,0.4c-1.4,0-2.9,0-4.3,0c-0.3-0.2-0.6,0-0.9-0.1c-2-0.2-4-0.3-6-0.5
		c-1.9-0.1-3.7-0.3-5.6-0.4c-1.7-0.1-3.4-0.3-5.1-0.4c2.7-0.1,5.5-0.4,8.2-0.4c0.7,0.2,1.4,0.3,2.1,0.3c1.8,0.1,3.7,0.1,5.5,0
		c0.5-0.2,0.2-0.6,0.6-0.8c1.1-0.3,2.3-0.3,3.5-0.3c0.4,0.3-0.1,0.5,0,0.8c0.1,0.7,0.1,0.7,1.1,0.7c1.1,0,2.2,0,3.4,0
		c1.1,0,1.1,0,1.2-0.8C38,47.9,38,47.8,38.2,47.7z"/>
	<path class="st1" d="M29.2,49.9c0.3,0,0.6-0.1,0.9,0.1c-0.3,0-0.6,0-0.9,0C29.2,50,29.2,49.9,29.2,49.9z"/>
	<path class="st2" d="M38.4,35.8c-0.2,1.5-0.4,3-0.6,4.5c-0.3,0.3-0.7,0.3-1.1,0.4c-1.7,0.4-3.4,0.8-5.1,1.3
		c-0.3-0.1-0.4-0.3-0.4-0.4c-0.5-1.1-1.3-2.2-1.6-3.3c0.2,0.3,0,0.7-0.1,1c-0.2,0.8,0.1,1.7-0.6,2.4c-0.5,0.2-1.1,0-1.6,0
		c-1.1-0.1-2.2-0.2-3.3-0.3c-0.3,0-0.7-0.1-0.9-0.3c-0.7-2.2-1.2-4.3-1.7-6.5c0.2-0.2,0.5-0.2,0.8-0.1c0.9,0.2,1.8,0.2,2.7,0.5
		c1.3,0.6,2.5,1.4,3.7,2c0.9,0.5,0.9,0.5,1.8-0.1c1-0.6,2-1.3,3-1.9c0.9-0.5,1.6-1.2,2.7-1.5c0.9,0.4,1.5,1.1,2.2,1.6
		C38.4,35.4,38.5,35.6,38.4,35.8z"/>
	<path class="st3" d="M17.1,23.3c0.3,0.6,0.1,1.2,0.2,1.8c0,0.3,0,0.6,0.1,0.9c0.5,0.6,0.2,1.3,0.2,2c-0.1,0.2-0.2,0.4-0.3,0.5
		c-0.2,0.2-0.4,0.4-0.6,0.7c-0.3,0.6-0.8,1.1-1.2,1.6c-0.1,0.2-0.2,0.3-0.5,0.3c-0.1,0-0.2,0-0.2-0.1c-0.5-0.5-1.2-0.7-2.1-0.5
		c-0.1,0-0.2,0-0.3,0c-1.2,0-2.1,0.3-2.7,1.1C9.5,31.9,9.4,32,9.2,32c-1.2-0.6-2-1.5-3-2.3C5.7,29.3,5,29,4.7,28.5
		c-0.2-1.3-0.4-2.6-0.5-3.9c0-0.1,0-0.2,0.1-0.3c1-0.3,2.1-0.3,3.2-0.4c2.7-0.2,5.3-0.5,8-0.7C16,23.2,16.6,23.1,17.1,23.3z"/>
	<path class="st4" d="M21.2,18.7c-0.8-0.6-1.7-1.1-2.5-1.7c-0.5-0.4-0.4-1-0.5-1.5c-0.3-1.2-0.8-2.4-0.9-3.6c0.4,0,0.4,0.3,0.6,0.5
		c0.7,0.3,1.5,0.2,2.2,0.3c0.9,0.1,1.9,0.1,2.8,0.3c0.1,0,0.2,0,0.2,0.1c0.1,0,0.2,0.1,0.3,0.2c0.7,0.4,0.8,0.3,1.3-0.2
		c0.1-0.2,0.2-0.4,0.4-0.5c1.5-0.2,2.9-0.1,4.4-0.1c1.1,0,1.8-0.2,2.1-1c0.1-0.3,0.2-0.6,0.7-0.7c0.4,0.1,0.4,0.4,0.4,0.6
		c0.1,1.8-0.1,3.6-0.2,5.4c0,0.3-0.3,0.6-0.6,0.8c-0.5,0.3-1.1,0.6-1.6,1c-0.6,0.2-1.1,0.4-1.6-0.1c-0.2-0.5,0.3-0.9,0.2-1.5
		c-0.8,1.2-2.1,1-3.4,1.1c-0.3,0-0.5-0.1-0.7-0.3c-0.1-0.2-0.1-0.4-0.5-0.5c-0.4,0.4-0.6,1-1.6,1c-0.9-0.1-1.5-0.4-2.1-0.7
		C20.9,17.9,21.5,18.2,21.2,18.7z"/>
	<path class="st5" d="M4.4,24.3c0.2,1.2,0.3,2.3,0.5,3.5c0,0.3,0,0.5,0.2,0.8c-0.7,0.5-1.5,0.8-2.4,1C1.8,28.7,1,27.9,0.2,27
		C0,26.8,0,26.6,0,26.4c0.3-1.8,0.7-3.5,1.1-5.3c0.3-0.1,0.5,0.1,0.6,0.3c0.5,0.5,1.1,0.9,1.6,1.4C3.6,23.3,4.3,23.7,4.4,24.3z"/>
	<path class="st6" d="M29,18.2c0.4,0.5,0.9,0.2,1.4,0.1c1.1-0.3,2.3-0.1,3.4-0.2c0.5,0,0.6,0.4,0.4,0.7c-0.3,0.6-0.5,1.3-0.9,1.9
		c-0.1,0.2-0.3,0.3-0.6,0.4c-1.4,0.5-2.7,1-4.2,1.3c-0.8-0.2-1.3-0.7-2-1c-0.4-0.2-0.9-0.5-1.3-0.7c-0.1,0-0.1-0.1-0.2-0.1
		c-0.1,0-0.1-0.1-0.1-0.1c-0.1-0.7-1-1.1-1.4-1.7c0.6-0.3,1.2-0.3,1.9-0.3C26.6,18.3,27.8,18.4,29,18.2z"/>
	<path class="st7" d="M17.6,12.4c-0.1-0.2-0.1-0.4-0.3-0.5c-0.4-0.7-0.3-1.5-0.5-2.2c0-0.2-0.1-0.4-0.2-0.6c0.1-0.1,0.2-0.1,0.2-0.1
		c0.5-0.1,1,0,1.6-0.1c2.6,0,5.2,0,7.8,0c0.4,0,0.8,0,1.2-0.1c1.1-0.1,2.2,0,3.3-0.1c0.6,0.1,1.3-0.1,1.9,0.1c0.4,0.3,0.3,0.6,0.3,1
		c0,0.2,0,0.4-0.1,0.5c-0.1,0.1-0.2,0.3-0.3,0.3c0,0-0.1,0.1-0.1,0.1c-0.3,1.6-1.7,1.9-3.7,1.8c-1.1-0.1-2.3,0-3.5,0
		c-0.4-0.7-0.3-1.4-0.4-2.1c0-0.2,0.1-0.5-0.3-0.6c-0.5-0.2-1,0-1,0.5c-0.1,0.5,0,1,0,1.6c0,0.3,0.1,0.6-0.3,0.8
		c-1,0.3-2.1,0-3.1,0.1c-0.6,0-1.2-0.1-1.8-0.1C18,12.6,17.8,12.6,17.6,12.4z"/>
	<path class="st8" d="M4.4,24.3c-0.4-0.5-0.8-1-1.2-1.5c0-0.2,0.2-0.3,0.4-0.4c0.9-0.3,1.7-0.7,2.6-1c0.6-0.2,0.9-0.1,1.3,0.3
		c0.6,0.8,0.6,0.8,1.9,0.7c0.8-0.1,1.7-0.2,2.6-0.2c0.7,0,1.2-0.2,1.1-0.8c0-0.2,0-0.4,0.2-0.5c1.3,0.8,2.7,1.6,3.9,2.5
		c-2.5,0.2-5,0.4-7.5,0.6C7.8,24.1,6.1,24.3,4.4,24.3z"/>
	<path class="st9" d="M13.1,20.8c0,1.3,0,1.3-1.8,1.5c-1,0.1-2,0.2-3.1,0.3c-0.7,0.1-0.7-0.3-0.9-0.5c-0.6-0.8-0.6-0.9-1.7-0.4
		c-0.9,0.3-1.8,0.6-2.6,1.1c-0.7-0.6-1.3-1.2-2-1.7c0.7-0.4,1.7-0.4,2.5-0.6c0.7-0.2,1.4-0.2,2.1-0.4c1.5-0.4,3-0.4,4.6,0.1
		C11.1,20.4,12.1,20.6,13.1,20.8z"/>
	<path class="st10" d="M20.4,0c0.1,0,0.1,0,0.2,0c0.4,0.3,0.6,0.7,0.8,1c0.7,1.2,1.5,2.5,2.2,3.7c0.1,0.2,0.4,0.5-0.1,0.6
		c-1.9,0.2-3.8,0.1-5.7-0.1c-0.7-0.4-0.9-0.9-1-1.5c0,0,0-0.1,0-0.1c-0.8-0.9-0.1-1.4,0.8-1.9C18.6,1.2,19.5,0.6,20.4,0z"/>
	<path class="st11" d="M17.2,28.2c0-0.7,0-1.4,0-2.1c0.6-1.1,1.3-2.2,1.9-3.4c1,0.4,1.3,1.2,1.6,1.9c0.1,1.5,0.4,3.1,0.4,4.6
		c-0.1,0.3,0.1,0.6-0.3,0.9c-0.5,0.5-0.9,0.9-1.4,1.4c-0.3,0.1-0.5,0-0.6-0.2c-0.6-0.9-1.3-1.8-1.7-2.8
		C17.2,28.4,17.2,28.3,17.2,28.2z"/>
	<path class="st2" d="M23.2,41.2c2,0.1,3.9,0.4,5.8,0.5c0.3,0.2,0.3,0.5,0.3,0.8c-0.2,1-0.1,2-0.4,3c-0.1,0.5-0.5,0.7-1.2,0.6
		c-0.7-0.1-1.4,0-2.1,0c-0.4,0-0.7,0-1-0.2C24,44.3,23.6,42.8,23.2,41.2z"/>
	<path class="st11" d="M20.6,24.4c-0.4-0.6-0.8-1.2-1.4-1.7c0.1-0.2,0.3-0.2,0.5-0.3c1.5-0.2,2.9-0.3,4.4-0.4
		c0.5-0.1,0.7-0.2,0.7-0.6c0-0.4-0.1-0.7,0.2-1c0.1,0,0.1,0,0.2,0c0.5,0.5,0.2,1.1,0.3,1.7c-0.3,2-0.5,4-0.7,6
		c0,0.2-0.1,0.5-0.2,0.7c-0.2,0.2-0.3,0.2-0.5,0c-0.2-0.2-0.3-0.3-0.5-0.5c-0.8-1-1.6-2-2.3-2.9C20.9,25.1,20.7,24.8,20.6,24.4z"/>
	<path class="st12" d="M2.6,29.6c0.8-0.4,1.6-0.7,2.4-1c1.4,1.1,2.8,2.3,4.2,3.4c0.3,0.4,0.5,0.9,0.2,1.4c-2-0.5-4.1-1-5.3-2.4
		C3.6,30.4,3.1,30,2.6,29.6z"/>
	<path class="st11" d="M20.9,30.1c0-0.3,0-0.6,0-0.9c0.1,0,0.2,0,0.2,0c0.2,0.6,0.9,1,1.3,1.4c0,0.2-0.1,0.3-0.2,0.5
		c-0.2,0.2-0.2,0.4,0.1,0.5c0.3,0.1,0.3-0.1,0.5-0.2c0.1-0.1,0.2-0.2,0.4-0.2c0.6,0.1,0.9,0.4,1.3,0.6c0.1,0.1,0.2,0.2,0.2,0.2
		c0,0.1,0.1,0.1,0.1,0.2c0,0.4,0.1,0.9,0.2,1.3c0.1,0.6,0.3,1.2,0.1,1.7c-1.2-0.1-2.4-0.5-3.6-0.5c-0.2-1.3-0.2-2.7-0.3-4
		C21.1,30.5,21.2,30.2,20.9,30.1z"/>
	<path class="st2" d="M24.5,45.9c1.2,0.1,2.4-0.1,3.6,0.1c0.5,0.1,0.3-0.4,0.5-0.5c0.5,0.4,0.2,0.8,0.3,1.2c0,0.3,0,0.5-0.1,0.8
		c0,0,0,0.1,0,0.1c-0.2,0.3,0.1,0.6-0.2,0.9c-0.3-0.6-0.8-0.7-1.6-0.7c-1.9,0.1-3.8-0.1-5.7,0.1c-0.2,0-0.5,0-0.6-0.1
		c0.8-0.7,1.9-1,2.8-1.6C23.9,46.2,24.2,46,24.5,45.9z"/>
	<path class="st13" d="M16.8,3.8c0.4,0.4,0.6,0.9,0.8,1.4c0,0,0.1,0,0.1,0.1c0,1.3-0.2,2.6-0.9,3.8l-0.1,0l-0.1,0
		c-0.7-0.6-1.3-1.3-2-1.9c-0.3-0.3-0.3-0.5,0-0.7C15.3,5.5,16.1,4.7,16.8,3.8z"/>
	<path class="st14" d="M29,18.2c-0.3,0.4-0.9,0.3-1.3,0.4c-1.4,0.1-2.8,0.1-4.2,0.2c-0.7-0.1-1.5,0.2-2.2,0c-0.3-0.5-0.5-1-0.9-1.8
		c0.6,0.3,0.9,0.5,1.3,0.7c0.3,0.1,0.5,0.3,0.8,0.3c0.8,0,1.5,0,1.6-0.7c0-0.2,0.1-0.3,0.4-0.4c0.3,0,0.4,0.2,0.5,0.4
		c0.1,0.5,0.5,0.5,1.1,0.5c1.5,0.1,2.4-0.5,3.2-1.3C29.5,17.1,29.1,17.6,29,18.2z"/>
	<path class="st5" d="M9.3,33.3c0-0.5-0.3-0.9-0.2-1.4c0.1-0.1,0.2-0.1,0.3-0.1c1.7-0.2,3.4-0.6,5.2-0.6c0.1,0,0.1,0,0.1,0
		c0.6,0.4,0.4,0.8,0.4,1.3c-1.5,0.4-3,0.5-4.5,0.7C10.2,33.3,9.8,33.4,9.3,33.3z"/>
	<path class="st15" d="M20.8,47.9c2.2-0.3,4.5-0.1,6.8-0.1c1.2,0,1.2,0,1.2,0.8c-2.1,0.1-4.1,0-6.2,0c-0.4,0-0.9-0.1-1.3,0
		c-0.4,0-0.5-0.2-0.5-0.4C20.7,48,20.7,48,20.8,47.9z"/>
	<path class="st11" d="M25,20.4c0,0.2,0,0.3,0,0.5c0,1.1,0,1.2-1.5,1.3c-1.1,0.1-2.2,0.2-3.3,0.3c-0.2,0-0.4,0-0.6-0.1
		c1.7-0.7,3.5-1.4,5.2-2.1C24.9,20.4,25,20.4,25,20.4z"/>
	<path class="st11" d="M17.2,28.2c0.6,1,1.2,2,1.8,3c0.1,0.2,0.2,0.3,0.5,0.3c-0.2,0.3-0.5,0.1-0.7,0c-0.9-0.2-1.8-0.5-2.7-0.7
		c-0.3-0.5,0.3-0.9,0.4-1.4c0.2-0.3,0.3-0.5,0.5-0.8C17,28.4,17.1,28.3,17.2,28.2z"/>
	<path class="st16" d="M16.6,29.4c-0.2,0.5-0.3,0.9-0.5,1.4c-0.3,0.6-0.6,1.2-0.9,1.8c-0.1-0.4-0.2-0.9-0.4-1.3c0.5-0.7,1-1.3,1.6-2
		C16.6,29.2,16.7,29.2,16.6,29.4z"/>
	<path class="st17" d="M23.6,5.3c-1-1.8-2.1-3.5-3.1-5.3c2.6,0.3,5.2,0.5,7.8,0.8c1.8,0.2,3.6,0.4,5.4,0.6c0.3,0.2,0.1,0.5,0,0.7
		c-0.3,0.6-0.5,1.2-0.9,1.9c0.4-0.3,0.8-0.6,1.2-0.9c0.2-0.1,0.4-0.4,0.8-0.2c1.1,0.9,2.2,1.8,3.4,2.7c0.2,0.2,0.4,0.3,0.1,0.5
		c-0.8,0-1.5,0.3-2.2,0.5c-0.5,0.1-1,0.3-1.6,0.3c-0.7-0.2-0.8-0.7-1.2-1c-0.4-0.4-0.6-0.8-1.1-1.1c-1.4-0.2-2.7,0.2-4.1,0.3
		c-1.1,0.1-2.2,0.2-3.3,0.3C24.4,5.5,24,5.6,23.6,5.3z"/>
	<path class="st18" d="M32.5,10.7c0.1-0.1,0.1-0.2,0.2-0.3c0.8-0.2,1.5,0.1,2.2,0.3c0.3,0.5,0,0.9,0,1.3c0,0.3-0.2,0.7,0.1,1
		c0.1,0.3,0.4,0.5,0.7,0.8c0.3,0.3,0.7,0.5,0.8,0.9c-0.2,1.3-0.9,2.6-1.3,3.9c-0.2,0.6-0.6,1.1-0.4,1.8c-0.1,0.1-0.2,0.1-0.3,0.2
		c-0.4,0.1-0.8,0.3-1.3,0.2c0.3-0.7,0.6-1.4,0.8-2c0.1-0.3,0.1-0.5-0.4-0.4c-1.1,0.2-2.1,0.1-3.2,0.1c0.4-0.5,1.1-0.7,1.7-1.1
		c0.2-0.1,0.3-0.3,0.4-0.5c0.1-1.9,0.2-3.8,0.2-5.8C32.6,10.9,32.5,10.8,32.5,10.7z"/>
	<path class="st2" d="M31.8,42c0-0.2,0.2-0.3,0.5-0.3c1.9-0.4,3.7-0.9,5.6-1.3c-0.1,1.8-0.3,3.6-0.5,5.4c-1.1,0.4-2.3,0.4-3.5,0.3
		c-0.3-0.1-0.4-0.3-0.6-0.5c-0.6-1-1-2.1-1.5-3.1C31.7,42.3,31.6,42.1,31.8,42z"/>
	<path class="st11" d="M40.4,22c1,2.4,2.1,4.8,2.9,7.3c-0.6,0.3-1.2,0.2-1.9,0.2c-0.8,0-1.6,0-2.4,0c-0.6,0-0.9-0.2-0.9-0.6
		c0.3-1.7-0.1-3.4,0.3-5.1c0.3-0.7,0.9-1.1,1.5-1.6C40,22.1,40.2,22,40.4,22z"/>
	<path class="st11" d="M40.4,22c-0.7,0.5-1.2,1.1-1.7,1.6c-1.1,1.5-2.8,2.8-4.1,4.2c-0.4,0.3-0.5,0.7-1.1,0.8c0,0-0.1,0-0.1-0.1
		c-0.1-0.1-0.1-0.1-0.1-0.2c0.1-1.9,0.5-3.9,0.6-5.8c0-0.2,0.1-0.4,0.2-0.7c0.1-0.1,0.1-0.1,0.2-0.2c1.7-0.2,3.4-0.1,5-0.1
		c0.3,0,0.5,0.1,0.8,0C40.2,21.8,40.4,21.9,40.4,22z"/>
	<path class="st11" d="M41.5,29.3c0.6,0,1.2,0,1.8,0c-1.3,1.5-2.6,2.9-3.9,4.4c-0.2,0.1-0.4,0.1-0.6,0.1c-0.8-0.3-1.7-0.4-2.4-0.8
		c-0.1-0.1-0.1-0.2-0.1-0.3c0.6-1,1-2.1,1.8-3.1c0.3-0.3,0.7-0.2,1.1-0.2C39.9,29.4,40.7,29.5,41.5,29.3z"/>
	<path class="st13" d="M34.5,6.9c1.1-0.2,2.1-0.5,3.1-0.8c0.2-0.1,0.6-0.4,0.7,0.1c-0.2,1.3-0.6,2.6-0.9,3.8
		c-0.9,0.1-1.7-0.1-2.5-0.5c-0.2-0.2-0.2-0.4-0.3-0.6C34.6,8.3,34.1,7.6,34.5,6.9z"/>
	<path class="st2" d="M33.7,45.9c1.2,0.1,2.4-0.1,3.6-0.1c0.3,0.7,0.6,1.3,0.9,2c0,0.1,0,0.2,0,0.3c-0.2,0.2-0.6,0.2-0.9,0.2
		c-1.4,0-2.8,0-4.3,0c-0.3,0-0.6,0-0.9-0.2c-0.1-0.3,0.3-0.4,0.3-0.6C32.6,46.8,33,46.3,33.7,45.9z"/>
	<path class="st19" d="M35,9.5c0.8,0.2,1.6,0.3,2.4,0.5c0,1.1-0.6,2.2-0.7,3.3c-0.7,0.3-1.3,0.1-1.9-0.2c-0.2-0.1-0.5-0.1-0.4-0.4
		c0.2-0.6,0.2-1.3,0.3-1.9c-0.1-0.1-0.2-0.2-0.2-0.4C34.7,10.1,34.7,9.8,35,9.5z"/>
	<path class="st11" d="M40.1,21.8c-0.4,0.2-0.9,0.1-1.3,0.1c-1.5,0-3,0-4.5,0c-0.4-0.6-0.2-1.1,0.2-1.6c0.1,0,0.2,0,0.3,0
		C36.5,20.8,38.3,21.3,40.1,21.8z"/>
	<path class="st20" d="M36.4,33c1,0.3,2,0.5,2.9,0.7c-0.4,0.7-0.8,1.4-1,2.1c0-0.4-0.5-0.6-0.8-0.9c-0.5-0.4-1-0.8-1.5-1.2
		C35.8,33.4,36,33.1,36.4,33z"/>
	<path class="st21" d="M34.9,2.9c-0.7,0.2-1,0.6-1.5,0.9c-0.3,0.2-0.4,0.4-0.8,0.5c0.3-1,1-1.9,1.2-2.9C34.3,1.8,34.5,2.4,34.9,2.9z
		"/>
	<path class="st22" d="M34.9,13.1c0.6,0.1,1.3,0.1,1.9,0.2c-0.1,0.5-0.1,0.9-0.3,1.4C36,14.3,35.5,14,35,13.6
		C34.9,13.5,34.7,13.3,34.9,13.1z"/>
	<path class="st23" d="M49,48.6c0-0.1,0-0.2,0-0.3c0.3,0,0.6,0,1,0C49.6,48.6,49.4,48.6,49,48.6z"/>
	<path class="st15" d="M32.1,48c2,0,4,0,6,0c0,0,0,0.1,0,0.1C38.2,49,38.2,49,37,49c-1.2,0-2.5,0-3.7,0C32.1,49,32.1,49,32.1,48z"/>
	<path class="st2" d="M25,35.2c-0.1-0.6-0.2-1.2-0.3-1.7c0.6-0.3,1.3-0.2,1.9-0.1c0.6,0,1.1,0.1,1.7,0c0.1,0,0.2,0,0.3,0
		c1.3,0.1,2.5,0,3.8,0c0.4,0,0.8,0,1.2,0.2c0.3,0.6,0.3,1.1-0.1,1.7c-1.2,0.8-2.4,1.6-3.6,2.4c-0.2,0.2-0.5,0.2-0.8,0
		C27.8,36.8,26.3,36.1,25,35.2z"/>
	<path class="st11" d="M33.5,35.2c0-0.5,0-1.1,0-1.6c-0.4-0.5,0-1,0-1.5c0-0.1,0-0.1,0.1-0.2c0.3-0.3,0.7-0.6,1.3-0.6
		c0.3,0,0.4,0.2,0.6,0.3c0.2,0.2,0.4,0.2,0.6,0c0.2-0.2,0-0.3-0.1-0.4c-0.1-0.1-0.3-0.3-0.3-0.4c0.5-0.6,1.4-0.9,2.1-1.2
		c0.1-0.1,0.4-0.1,0.4,0.2c-0.6,1.1-1.2,2.2-1.7,3.2c-0.1,0.3-0.3,0.5-0.4,0.8C35.2,34.2,34.4,34.7,33.5,35.2z"/>
	<path class="st24" d="M14.7,31.2c-1.3,0.4-2.7,0.4-4.1,0.6c-0.3,0.1-0.7,0.3-1.1,0c0.4-1,1.4-1.3,2.6-1.3c0.2,0,0.4,0,0.7-0.1
		C13.8,30.3,14.4,30.6,14.7,31.2z"/>
	<path class="st25" d="M7.4,26.8c-0.4-0.1-0.6-0.3-0.5-0.5c0.1-0.4,0.4-0.2,0.7-0.1c0.8,0.1,1.5,0.2,2.3,0.2c0.4,0,0.7,0.2,0.5,0.5
		c0.1,0.5-0.1,0.5-0.7,0.4"/>
	<path class="st26" d="M14.1,25.8c0.3-0.1,0.6-0.2,1-0.3c0.2-0.1,0.5-0.2,0.6,0c0.1,0.2,0.2,0.5-0.2,0.6c-0.7,0.3-1.5,0.6-2.3,0.8"
		/>
	<path class="st27" d="M16.6,29.4c-0.1-0.1-0.1-0.1-0.2-0.2c0.2-0.2,0.2-0.5,0.5-0.6C16.9,28.9,16.8,29.1,16.6,29.4z"/>
	<path class="st28" d="M23.1,12.5c0-0.8,0.1-1.7,0-2.5c0-0.6,0.5-0.5,1-0.5c0.5,0,1-0.1,1,0.5c0,0.8,0.1,1.7,0.1,2.5
		c0,0.2-0.1,0.4-0.2,0.5c-0.6,0.2-1.1,0.2-1.7,0c-0.1,0-0.1,0-0.2,0C23,12.9,23,12.7,23.1,12.5z"/>
	<path class="st29" d="M25.9,14c0.3,0,0.6,0,0.8,0c0.3,0.1,0.6,0,0.9,0.1c0.8-0.1,1.2,0.3,1.5,0.7c0.2,0.2,0.3,0.5,0.6,0.8
		c-0.7-0.3-1.3-0.5-1.8-0.8c-1-0.2-2,0.1-2.9-0.1c0-0.1,0-0.2,0-0.4C24.9,13.7,25.5,14,25.9,14z"/>
	<path class="st30" d="M20.2,16c0.2-0.4,0.4-0.8,0.6-1.2c0.1-0.2,0.3-0.3,0.6-0.3c0.6-0.1,1.2-0.3,1.8-0.4c0.2,0,0.6-0.4,0.7,0.1
		c0.1,0.3,0.1,0.6-0.3,0.7c-0.1,0-0.1,0-0.2,0C22.2,15.1,21.1,15.4,20.2,16z"/>
	<path class="st31" d="M25.1,14.8c1,0.1,2-0.1,2.9,0.1c-0.1,0.2-0.1,0.4-0.5,0.5c-0.8,0.2-1.6,0.4-2.4,0.6c-0.9,0.2-1.7-0.1-2.6-0.3
		c1.7-0.1,3.3-0.3,4.9-0.7C26.7,14.8,25.8,15.1,25.1,14.8z"/>
	<path class="st32" d="M23.1,12.5c0,0.2,0,0.4,0,0.5c-1.7-0.1-3.4-0.4-5.1-0.4c-0.2,0-0.4-0.1-0.4-0.3c0.2,0.1,0.4,0.1,0.7,0.1
		C19.9,12.5,21.5,12.5,23.1,12.5z"/>
	<path class="st33" d="M23.3,13c0.6,0,1.2,0,1.7,0C24.3,13.7,24.1,13.7,23.3,13z"/>
	<path class="st34" d="M25.9,14c-0.4,0-0.9-0.1-0.9,0.4C24.7,13.5,25.5,14.1,25.9,14z"/>
	<path class="st34" d="M27.7,14.2c-0.3,0-0.6,0.1-0.9-0.1C27.1,14.1,27.4,14.1,27.7,14.2z"/>
	<path class="st35" d="M34.4,20.3c-0.1,0.5-0.1,1.1-0.2,1.6c0,0,0,0.1,0,0.1c-1,0.6-2.2,0.8-3.3,1.2c-0.4,0.2-0.9,0.3-1.4,0.5
		c-0.3,0.1-0.6,0.2-0.9,0c-0.2-0.5-0.2-1-0.1-1.5c1.6-0.4,3.1-1,4.7-1.5C33.6,20.6,34,20.4,34.4,20.3z"/>
	<path class="st35" d="M28.5,22.2c0.3,0.5,0.1,1,0.2,1.5c-0.1,0.1-0.3,0.1-0.4,0.1c-1.1-0.5-2.2-0.9-3-1.6c0-0.6,0-1.2,0-1.7
		C26.3,21,27.4,21.6,28.5,22.2z"/>
	<path class="st4" d="M23.6,5.3c2.7-0.1,5.4-0.5,8-0.7c0.3,0,0.6-0.2,0.8,0.2c0.1,0.2,0.3,0.4,0.3,0.7c0,1,0,1.9,0.2,2.9
		c0,0.2,0,0.4-0.1,0.5c0,0-0.1,0.1-0.1,0.1c-0.6,0-1.3,0-1.9,0c-0.1-0.3,0.4-0.5,0.4-0.8c-0.5-0.5-1.2-0.7-2-0.5
		c-0.7,0.2-1.3,0.3-2.1,0.4c-0.6,0.1-0.7,0.3-0.6,0.6c-0.1,0.2-0.2,0.3-0.4,0.3c-1,0-2,0-3,0c-0.3,0-0.6,0.1-0.9-0.1
		c-0.2-0.9-1.2-1-2.1-1.1c-0.8-0.1-1.6,0.1-2.1,0.6c0,0.2,0.4,0.4,0.3,0.7c-0.5,0-1,0-1.5,0c0.3-1.3,0.6-2.6,0.9-3.8
		c1.7,0,3.4,0.1,5.1,0.1C23.1,5.3,23.4,5.3,23.6,5.3z"/>
	<path class="st8" d="M31.5,10.2c-0.2,0.5-0.4,0.9-0.6,1.4c-0.1,0.2-0.3,0.3-0.5,0.3c-1.3,0-2.5,0-3.8,0c-0.1,0-0.2-0.1-0.3-0.1
		c0.1-0.5,0.1-1,0.4-1.4c0.2-0.4,0.6-0.6,1.1-0.6c0.9,0,1.9-0.1,2.8-0.2C31.5,9.4,31.6,9.5,31.5,10.2z"/>
	<path class="st8" d="M21.2,11.9c-0.6,0-1.1,0-1.6,0c-1.1,0.1-1.5-0.2-1.8-0.9c-0.4-1-0.2-1.4,1.2-1.4c0.6,0,1.3-0.1,1.8,0.2
		c0.2,0.1,0.1,0.2,0,0.3c-0.2,0.2-0.4,0.5,0,0.6c0.6,0.2,0.6-0.3,0.8-0.5c0.1-0.1,0.1-0.1,0.2-0.1c0.5,0.4,0.3,0.9,0.4,1.3
		c0,0.2-0.1,0.3-0.4,0.3C21.7,11.9,21.5,11.8,21.2,11.9z"/>
	<path class="st36" d="M18.3,9c-0.2-0.2-0.3-0.4-0.5-0.6c1.4-0.7,2.7-0.5,4.5,0.2c0.2,0.3,0.5,0.3,0.9,0.3c1,0,2.1,0,3.1,0
		c0.4-0.1,0.8-0.3,1.2,0C26.6,9.1,25.7,9,24.9,9C22.7,9,20.5,9,18.3,9z"/>
	<path class="st36" d="M27.5,8.9c-0.4,0-0.8,0-1.2,0c0.1-0.1,0.1-0.3,0.2-0.4c0.9-0.3,1.8-0.5,2.7-0.7c0.8-0.2,1.6,0,2.2,0.4
		c-0.2,0.2-0.4,0.5-0.7,0.7C29.7,8.9,28.6,8.9,27.5,8.9z"/>
	<path class="st3" d="M31.5,10.2c0.1-0.6-0.2-0.7-1-0.6c-0.7,0.1-1.5,0.2-2.3,0.2c-0.7,0-1.2,0.2-1.4,0.7c-0.1,0.4-0.4,0.8-0.5,1.2
		c-0.1-0.6-0.2-1.1-0.2-1.7c0-0.3,0.1-0.4,0.6-0.4c1.4,0.1,2.8-0.1,4.2-0.1C31.7,9.4,31.7,9.5,31.5,10.2z"/>
	<path class="st7" d="M35,9.5c-0.1,0.3-0.1,0.6-0.2,0.9c-0.9,0.1-1.5-0.1-2.2-0.5c0-0.3,0-0.7,0-1l0,0c0.4-0.2,0.8,0.1,1.2,0.2
		c0.4,0.1,0.7,0.2,1.1,0C35.1,9.2,35,9.4,35,9.5z"/>
	<path class="st3" d="M21.2,11.9c0.1-0.1,0.3-0.1,0.5-0.1c0.4,0,0.6-0.2,0.4-0.4c-0.2-0.4-0.2-0.8-0.5-1.1c-0.3-0.2-0.6-0.2-0.9-0.4
		c-0.6-0.2-1.3,0-1.9-0.3c1-0.3,2.1-0.1,3.1-0.1c0.3,0,0.3,0.2,0.3,0.3c0,0.6,0.1,1.2,0,1.7C22.3,12.2,21.7,11.8,21.2,11.9z"/>
	<path class="st37" d="M32.6,9.9c0.7,0.2,1.5,0.3,2.2,0.5c0,0.1,0,0.2,0,0.4c-0.8,0-1.5-0.3-2.2-0.4C32.6,10.2,32.6,10.1,32.6,9.9z"
		/>
	<path class="st11" d="M22.3,30.7c-0.1-0.1-0.1-0.2-0.2-0.2c-0.8-0.3-1.1-0.8-1.2-1.3c0.1-1.6-0.4-3.2-0.3-4.8
		c1.1,1.2,2.1,2.5,3.1,3.8c0.1,0.6,0.1,1.3-0.2,1.9C23.1,30.3,22.9,30.7,22.3,30.7z"/>
	<path class="st7" d="M25.2,22.2c0.9,0.4,1.7,0.8,2.6,1.2c0.3,0.1,0.5,0.3,0.8,0.3c1.5-0.3,2.7-0.8,4.1-1.2c0.5-0.1,0.9-0.3,1.4-0.4
		c-0.3,2.2-0.6,4.4-0.8,6.6C33,29,32.5,29,32.1,29c-2.2-0.1-4.4,0.2-6.5,0.1c-0.4,0-0.7,0-1.1-0.1c0,0-0.1-0.1-0.1-0.1
		C24.6,26.7,24.9,24.4,25.2,22.2z"/>
	<path class="st2" d="M23.3,30.1c0.3-0.6,0-1.3,0.3-1.9c0.2,0.3,0.5,0.5,0.7,0.8l0,0c0.1,0.1,0.1,0.2,0.1,0.3
		c-0.1,0.4-0.4,0.8-0.7,1.2c-0.1,0.1-0.2,0.4-0.5,0.2C23.1,30.5,23.2,30.3,23.3,30.1z"/>
	<path class="st7" d="M24.3,29.2c0-0.1,0-0.2,0-0.3c3,0,6-0.1,9-0.3l0,0c0.5,1,0.5,2.1,0.3,3.1c0,0,0,0.1,0,0.1
		c-0.5,0.3-1.1,0.2-1.6,0.2c-0.5,0-1,0-1.5,0c-1.4,0-2.8,0-4.2,0c-0.1,0-0.2,0-0.3,0c-0.5-0.1-1.1,0.1-1.5-0.2
		c-0.1-0.1-0.1-0.1-0.2-0.1C23.8,31,24.1,30.1,24.3,29.2z"/>
	<path class="st38" d="M26.1,32c0.1,0,0.1,0,0.2,0c0.9,0.4,1.6,0.9,2.1,1.5c-0.4,0.2-0.8,0.2-1.2,0.1c-0.8-0.1-1.6-0.1-2.4-0.1
		c-0.2-0.5-0.2-0.9-0.2-1.4C25,31.9,25.6,32.1,26.1,32z"/>
	<path class="st11" d="M24.3,29.2c0,0.9,0,1.8,0,2.6c-0.4-0.2-0.8-0.4-1.2-0.6c-0.2-0.2-0.1-0.4,0.2-0.5
		C23.7,30.2,24,29.7,24.3,29.2z"/>
	<path class="st2" d="M23.3,30.7c-0.1,0.2-0.1,0.3-0.2,0.5c-0.1,0.1-0.1,0.1-0.2,0.2c-0.2,0.2-0.2,0.5-0.5,0.5
		c-0.3,0-0.6-0.2-0.8-0.5c-0.1-0.3,0.3-0.3,0.4-0.5c0.1-0.1,0.1-0.1,0.2-0.2c0.3-0.2,0.7-0.4,1-0.6C23.3,30.3,23.3,30.5,23.3,30.7z"
		/>
	<path class="st39" d="M26.1,32c-0.5,0.2-1,0.1-1.5,0.1c0,0,0-0.1,0-0.1C25,32,25.5,32,26.1,32z"/>
	<path class="st0" d="M28.7,46.9c0.3,0.2,0.1,0.5,0.1,0.8C28.6,47.4,28.7,47.1,28.7,46.9z"/>
	<path class="st18" d="M34.9,9c0,0.3-0.1,0.5-0.6,0.3c-0.6-0.2-1.2-0.3-1.7-0.5c-0.1-1.4-0.2-2.7-0.2-4.1c0.7,0.7,1.3,1.4,2,2.1
		C34.6,7.6,34.8,8.3,34.9,9z"/>
	<path class="st11" d="M38.2,29.7c-0.1-0.1-0.2-0.1-0.3-0.1c-0.7,0.4-1.4,0.8-2.1,1.2c-0.7-0.1-0.9-0.6-1.4-0.8
		c-0.1-0.1-0.1-0.1-0.1-0.2c0.1-0.7,0-1.3,0.1-2c1.4-1.4,2.8-2.8,4.3-4.2c-0.3,0.6-0.2,1.3-0.2,1.9c0,1.1,0,2.1-0.2,3.2
		c-0.1,0.4,0.2,0.6,0.8,0.6c0.8,0,1.6,0,2.3,0c-0.7,0.3-1.5,0.1-2.3,0.1C38.8,29.5,38.4,29.4,38.2,29.7z"/>
	<path class="st11" d="M34.4,30c0.1,0,0.1,0,0.2,0c0.2,0.4,0.4,0.9,0.3,1.4c-0.5,0-0.7,0.4-1.2,0.5c-0.3-1-0.2-2.1-0.3-3.1
		c0.1,0,0.1,0,0.1,0c0.4,0.4,0.5,0.8,0.7,1.3c0,0.1,0.1,0.2,0.1,0.2C34.3,30.1,34.2,30,34.4,30z"/>
	<path class="st2" d="M34.4,30c0,0.1,0,0.2,0,0.4c-0.4-0.5-0.8-1-0.9-1.6c0.3-0.3,0.6-0.6,0.9-0.9C34.7,28.5,34.6,29.2,34.4,30z"/>
	<path class="st40" d="M35.4,11.6c0.1-0.3,0.1-0.6,0.1-0.8c0-0.2-0.1-0.4,0.2-0.4c0.3-0.1,0.5,0.1,0.8,0.1c0.1,0,0.2,0.2,0.1,0.2
		C36.2,11,36,11.4,35.4,11.6z"/>
	<path class="st38" d="M30.6,32c1,0,2.1,0,3.1,0c0.1,0.6-0.1,1.1-0.2,1.6c-1.4,0-2.8,0-4.2,0c-0.3,0-0.6,0.1-0.8-0.1
		c-0.1-0.1,0-0.3,0.1-0.3C29.3,32.8,29.8,32.3,30.6,32z"/>
	<path class="st2" d="M30.6,32c-0.6,0.6-1.5,0.9-2.1,1.5c-0.1,0-0.1,0-0.2,0c-0.7-0.5-1.4-1-2.1-1.5C27.7,32,29.1,32,30.6,32z"/>
	<path class="st2" d="M34.9,31.3c-0.4-0.4-0.4-0.9-0.3-1.4c0.5,0.2,0.7,0.6,1.2,0.9c0.1,0.1,0.2,0.2,0.3,0.2
		c0.1,0.2,0.8,0.3,0.2,0.6c-0.5,0.3-0.8,0.2-1.1-0.2C35.1,31.4,35,31.4,34.9,31.3z"/>
	<path class="st41" d="M31.4,8.2C30,7.7,28.7,8,27.3,8.4c-0.3,0.1-0.6,0.2-0.9,0.1C26,8.2,26.1,8,26.8,7.9c0.7-0.1,1.4-0.2,2-0.4
		c1-0.4,1.8,0,2.6,0.3C31.6,7.9,31.6,8,31.4,8.2z"/>
	<path class="st41" d="M22.3,8.6c-0.1,0-0.3,0-0.4-0.1c-1.3-0.4-2.7-0.5-4.1-0.2c0-0.1-0.2-0.2,0-0.3c0.9-0.3,1.7-0.9,2.8-0.5
		c0.3,0.1,0.6,0.1,0.9,0.2C22.2,7.9,22.5,8.1,22.3,8.6z"/>
	<path class="st42" d="M29.3,10.4c-0.1,0.3-0.2,0.5-0.6,0.5c-0.4,0-0.7-0.1-0.7-0.4c0-0.3,0.2-0.5,0.7-0.5
		C29.1,10,29.3,10.2,29.3,10.4z"/>
	<path class="st43" d="M21.7,10.4c0,0.3-0.1,0.5-0.6,0.6c-0.3,0-0.5,0-0.7-0.2c-0.3-0.3-0.1-0.5,0.2-0.7C21.2,10,21.6,10,21.7,10.4z
		"/>
	<path class="st44" d="M21.7,10.4c-0.2-0.3-0.6-0.4-1-0.3c0.1-0.1,0.1-0.1,0.2-0.2c0.4,0,0.8-0.1,0.9,0.4
		C21.8,10.3,21.8,10.4,21.7,10.4z"/>
</g>
</svg>
