<?xml version="1.0" encoding="utf-8"?>
<!-- Generator: Adobe Illustrator 23.1.0, SVG Export Plug-In . SVG Version: 6.00 Build 0)  -->
<svg version="1.1" id="Capa_1" xmlns="http://www.w3.org/2000/svg" xmlns:xlink="http://www.w3.org/1999/xlink" x="0px" y="0px"
	 viewBox="0 0 50 50" style="enable-background:new 0 0 50 50;" xml:space="preserve">
<style type="text/css">
	.st0{fill:#E2E2E2;}
	.st1{fill:#C3C3C3;}
	.st2{fill:#D5D5D5;}
	.st3{fill:#FEE5D5;}
	.st4{fill:#CBCBCB;}
	.st5{fill:#95637C;}
	.st6{fill:#F4C9B2;}
	.st7{fill:#543042;}
	.st8{fill:#785D87;}
	.st9{fill:#BCBCBC;}
	.st10{fill:#A588B9;}
	.st11{fill:#734C5F;}
	.st12{fill:#B2879C;}
	.st13{fill:#785D88;}
	.st14{fill:#96637C;}
	.st15{fill:#B2889C;}
	.st16{fill:#8F8F8F;}
	.st17{fill:#B2889D;}
	.st18{fill:#D0A0B7;}
	.st19{fill:#F4C9B3;}
	.st20{fill:#734D5F;}
	.st21{fill:#9076A0;}
	.st22{fill:#563243;}
	.st23{fill:#C4947E;}
	.st24{fill:#A3A3A3;}
	.st25{fill:#050505;}
	.st26{fill:#A2A2A2;}
	.st27{fill:#C3937D;}
	.st28{fill:#90759F;}
	.st29{fill:#FEF0E7;}
	.st30{fill:#F4CAB4;}
	.st31{fill:#0A0908;}
	.st32{fill:#070606;}
	.st33{fill:#C69680;}
	.st34{fill:#F2C8B2;}
	.st35{fill:#9F9298;}
	.st36{fill:#8F759F;}
	.st37{fill:#C59480;}
</style>
<g>
	<path class="st0" d="M47,22.2c0.2,1.7,0.4,3.4,0.7,5c0.2,1.6,0.5,3.2,0.7,4.9c0,0.2,0.3,0.5,0,0.7c-1.6-0.5-3.2-1.1-4.6-1.7
		c-0.1,0-0.1-0.1-0.1-0.1c-1.1-1.3-2-2.6-3-3.9c-0.4-0.5-0.8-1-1.1-1.5c-0.1-0.1-0.2-0.3-0.4-0.3c-0.8,0.2-1.7,0.5-2.5,0.7
		c-0.5,0.1-0.7,0.3-0.4,0.7c0.3,0.4,0.5,0.8,0.7,1.2c0.1,0.1,0.1,0.2,0.2,0.2c0.9,1.4,1.8,2.9,2.6,4.4c-0.2,0.8-0.4,1.6-0.7,2.4
		c0,0.1-0.1,0.1-0.1,0.2c-0.3,0-0.4-0.1-0.7-0.3c-2.1-1.2-3.9-2.7-5.9-4c-0.2-0.2-0.4-0.3-0.4-0.5c0.3-0.8,0.8-1.6,1.2-2.4
		c0.7-1.6,1.5-3.2,2.3-4.7c0.1-0.2,0.2-0.3,0.3-0.5c0.2-0.2,0.4-0.3,0.7-0.3c1.2-0.4,2.3-0.7,3.5-1.2c0.6-0.2,1.1-0.1,1.7-0.2
		c1.7,0.1,3.3,0.2,5,0.3C47.1,21.4,47.2,21.7,47,22.2z"/>
	<path class="st1" d="M32,30.4c0,0.1,0.1,0.2,0.2,0.3c2,1.5,4.1,2.9,6.1,4.4c0.1,0,0.2,0.1,0.3,0.2c-0.4,0.7-1.2,1.2-1.8,1.8
		c-1.5,1.5-3.1,3-4.7,4.4c-0.1,0.4-0.5,0.6-0.8,0.9c-0.7,0.7-1.4,1.4-2.2,2c-0.2,0.2-0.3,0.3-0.7,0.3c-0.6-0.7-0.7-1.5-1.2-2.2
		c-0.6-1.2-1.2-2.4-1.7-3.7c-0.1-0.2-0.2-0.3-0.2-0.4c0.2-0.7,0.1-1.4,0.2-2c0.2-1.4,0.2-2.7,0.3-4.1c0-0.1,0-0.2-0.1-0.2
		c-0.1-0.2,0.2-0.3,0.4-0.3c1.8-0.4,3.5-0.8,5.2-1.3C31.6,30.4,31.8,30.3,32,30.4z"/>
	<path class="st2" d="M6,39.6c-0.4-0.7-0.8-1.4-1.2-2c-0.5-0.4-0.6-0.9-0.9-1.3c-0.7-1.3-0.8-1,0.6-2.2c0.8-0.7,1.5-1.4,2.5-2
		c0.2-0.1,0.4-0.1,0.7,0c1.2,0.3,2.4,0.6,3.5,0.9c0.2,0,0.4,0.2,0.6,0c1.5,0.7,3.1,1.2,4.6,1.9c0.3,0.1,0.6,0.2,0.5,0.5
		c-1.2,2-2.4,3.9-3.6,5.8c-0.1,0.2-0.2,0.4-0.4,0.5c-0.2,0.1-0.4,0-0.6,0c-2-0.6-4.1-1.3-6.1-1.9C6.2,39.7,6.1,39.7,6,39.6z"/>
	<path class="st3" d="M24.3,11.2c0.6,1.4,1.2,2.7,1.7,4.1c0.1,0.2,0.2,0.3,0.2,0.5c-0.1,0.3-0.5,0.3-0.8,0.3
		c-0.9,0.3-1.9,0.5-2.9,0.7c-0.1,0-0.1,0-0.2,0c-1.2,0.3-2.5,0.5-3.7,0.8c-0.3,0-0.6,0.1-0.8,0c-0.4-0.6-0.6-1.2-0.8-1.8
		c-0.6-1.5-1.2-3-1.7-4.5c-0.1-0.3-0.2-0.5,0.2-0.7c0.4-0.1,0.7-0.3,1.1,0c0.3,0.5,0.7,0.2,1,0c0.3,0,0.4,0.2,0.6,0.4
		c0.3,0.3,0.6,0.7,0.9,1c0.2,0.2,0.3,0.3,0.5,0.5c0.1,0.1,0.2,0.1,0.3,0.2c0.7,0.2,0.9,0.2,0.9-0.4c0.1-0.3-0.1-0.6-0.2-0.9
		c-0.1-0.2-0.2-0.4-0.2-0.6c0.2-0.3,0.5-0.5,0.9-0.7c0.4-0.2,0.2-0.5,0.3-0.7c0.1-0.1,0.1-0.1,0.2-0.2C22,9.2,22.1,9,21.9,8.9
		c-0.2-0.2-0.4-0.1-0.6,0c-1.6,0.4-3.2,0.8-4.8,1.2c-0.5,0.1-1,0.3-1.5,0.3c-0.4-0.3-0.8-0.6-0.8-1c0.2-0.2,0.4-0.2,0.7-0.2
		c2.3-0.4,4.6-0.8,7-1.2c0.9-0.2,1-0.1,1.3,0.5c0.4,0.8,0.8,1.6,1.2,2.4C24.3,10.9,24.4,11.1,24.3,11.2z"/>
	<path class="st4" d="M31,47.4c0,0.2,0.1,0.4,0.5,0.4c1.1,0.1,2.2,0.2,3.3,0.2c1.6,0.1,3.2,0.2,4.9,0.3c0.4,0,0.8,0,1.3,0
		c-0.6,0.3-1.1,0.2-1.6,0.2c-2.3,0.2-4.6,0.3-6.9,0.5c-2.3,0.2-4.6,0.4-6.9,0.5c-1.8,0.1-3.6,0.4-5.4,0.3c-2.4-0.1-4.9-0.2-7.4-0.3
		c-1.7-0.1-3.4-0.2-5-0.2c-1.8-0.1-3.5-0.1-5.3-0.2c-0.2,0-0.4-0.1-0.7-0.1c2.7-0.3,5.1-0.5,7.6-0.7c0.1,0,0.3,0,0.3-0.1
		c0.6,0.1,0.9,0.4,1.3,0.7c-0.1-0.2-0.6-0.5-0.2-0.8c0.8-0.1,1.7-0.2,2.4-0.3c0.5,0,0.6,0.3,0.8,0.5c0.1,0-0.1-0.1,0-0.2
		c0-0.2,0-0.3,0.2-0.4c0.9-0.3,1.8-0.2,2.7-0.3c1.6-0.2,3.2-0.3,4.8-0.5c0.9-0.1,1.9,0,2.8,0.1c0.6,0.3,0.2,0.7,0.1,1.1
		c0.2-0.3,0.5-0.5,0.8-0.8c0.2-0.2,0.3-0.3,0.6-0.3c1.3,0.2,2.5,0.2,3.8,0.3c0.6,0.2,0.4,0.7,0.8,1c0,0,0.1,0,0.1,0
		c-0.1,0-0.1,0-0.1,0C30.7,48.2,30.5,47.7,31,47.4z"/>
	<path class="st5" d="M17,35.4c0.1-0.2-0.2-0.3-0.4-0.3c-1.4-0.5-2.8-1.1-4.1-1.6c-0.2-0.1-0.6-0.2-0.6-0.4c0.1-1,0.3-2,0.3-2.9
		c0.1,0,0.1,0,0.2,0c2.2,0.4,4.3,0.7,6.4,1.1c0.2,0.1,0.3,0.3,0.4,0.4c0.3,0.6,0.7,1.2,0.9,1.9c0.4,1,1.2,2,1.7,3
		c0.1,0.2,0.3,0.4,0.3,0.7c0,0-0.1,0.1-0.1,0.1c-0.3,0.1-0.6-0.1-0.8-0.2c-1.1-0.4-2.2-0.8-3.3-1.3c-0.4-0.2-0.7-0.2-0.7,0.2
		c0,0.1-0.1,0.2-0.3,0.2C16.8,35.8,16.9,35.6,17,35.4z"/>
	<path class="st6" d="M15.5,10.9c-0.2,0.1-0.3,0.2-0.2,0.4c0.8,2,1.6,4,2.4,6c0.1,0.2,0.1,0.3,0.1,0.5c-0.2,0.4-0.7,0.3-1,0.3
		c1.4,0.3,2.9,0.5,4.3,1c0.2,0.3-0.1,0.5-0.2,0.7c-0.2,0.5-0.4,0.9-0.7,1.4c-0.1,0.1-0.2,0.2-0.3,0.2c-0.1,0-0.1,0-0.2,0
		c-0.4-0.5-0.8-1.1-1.2-1.7c-0.3-0.5-0.8-0.7-1.5-0.8c-1-0.2-1.9-0.3-2.9-0.5c-0.3,0-0.6-0.1-0.7-0.3c-0.1-0.4-0.2-0.8,0.1-1.1
		c0-0.3,0-0.7,0-1c0.2-0.4,0.5-0.7,0.8-1.2c-0.3,0-0.6,0.2-0.8,0.2c-0.4,0-0.8,0.2-1.2,0.3c-0.3,0.1-0.6,0.1-0.6-0.2
		c-0.1-0.4-0.6-0.5-1.1-0.5c0.1-0.3,0.5-0.2,0.7-0.3c0.3-0.1,0.4-0.3,0.8-0.3c0.4,0.3,0.8,0.2,1.2-0.1c-0.2-0.2-0.6-0.1-0.7-0.3
		c0,0,0-0.1,0-0.1c0.8-0.5,0.4-0.9,0-1.4c-0.6-0.7-1-1.4-1.4-2.1c0,0,0-0.1,0.1-0.2c0.8-0.2,1.6-0.5,2.5-0.4c0.3,0.3,0.6,0.6,0.8,1
		C15.2,10.5,15.3,10.7,15.5,10.9z"/>
	<path class="st7" d="M26,20c0.1,2.2,0.1,4.4,0.2,6.7c0,0.7,0.1,1.4,0.1,2.1c0.1,0.2-0.1,0.3-0.2,0.4c-0.4,0.4-0.8,0.8-1.1,1.3
		c-0.1,0.2-0.2,0.3-0.6,0.3c-0.4-0.5-0.3-1-0.4-1.5c-0.1-0.2,0-0.3-0.1-0.5c-0.1-0.3-0.2-0.5-0.2-0.8c-0.1-0.7-0.3-1.3-0.4-1.9
		c-0.1-0.3-0.1-0.5-0.2-0.8c-0.2-0.7-0.3-1.4-0.5-2.1c0-0.3-0.2-0.6-0.2-0.9c-0.2-0.8-0.4-1.5-0.4-2.3c0.1-0.2,0.2-0.3,0.4-0.4
		c0.9-0.6,1.8-1.2,2.7-1.7c0.2-0.1,0.4-0.3,0.7-0.2c0.3,0.1,0.2,0.3,0.2,0.5C26.1,18.8,26.1,19.4,26,20z"/>
	<path class="st5" d="M26,20c-0.2-0.5-0.1-1-0.1-1.5c0-0.2,0-0.4-0.2-0.7c-1.2,0.8-2.4,1.5-3.6,2.3c-0.3,0.5-1.1,0.8-1.6,1.1
		c-0.1,0.1-0.2,0.1-0.3,0c0.2-0.5,0.4-0.9,0.7-1.4c0.3-0.3,0.7-0.6,0.4-1c-0.1-0.3,0.1-0.6,0.4-0.9c0.2-0.1,0.5-0.2,0.3-0.4
		c0-0.1,0-0.1,0.1-0.2c0.4-0.3,0.9-0.3,1.5-0.1c0.5,0.2,1.1,0.3,1.6,0.3c0.6,0.1,0.9-0.1,1.3-0.3c0.8-0.5,1.5-1,2.4-1.4
		c2.3-0.1,4.7-0.2,7-0.3c-0.5,0.5-0.9,1.1-1.3,1.7c-0.1,0.2-0.2,0.3-0.4,0.4c-2.4,0.7-4.9,1.5-7.4,2.2C26.5,19.8,26.3,19.9,26,20z"
		/>
	<path class="st8" d="M32,30.4c-1.8,0.6-3.8,1-5.7,1.4c-0.1-0.1-0.1-0.2-0.1-0.2c0.5-0.6,0.8-1.3,1.5-1.9c1.3-1.6,2.5-3.2,3.8-4.9
		c0.3-0.4,0.7-0.8,0.9-1.2c0.8-0.5,1.9-0.7,2.9-1c0.1,0,0.3,0,0.3,0.1c-1.2,2.5-2.4,5-3.7,7.5C32,30.3,32,30.3,32,30.4z"/>
	<path class="st5" d="M14.1,9.4c-0.9,0.1-1.7,0.2-2.5,0.5c-0.2,0-0.2-0.2-0.4-0.2c-0.2,1.1-0.3,2.2-0.4,3.3c-0.1,0.3,0,0.5-0.5,0.6
		c-0.9-0.3-1.8-0.7-2.7-1.1c-0.1,0-0.2-0.1-0.1-0.2C8.1,10.6,9,9,9.7,7.4c0.6,0.2,0.7,0.6,0.9,0.9c0.5,0.5,0.4,0.6,1.4,0.4
		c2-0.4,4.1-0.8,6.2-1.3c1.4-0.3,2.7-0.6,4.1-0.8c0.3,0,0.4,0.2,0.6,0.4c0.6,0.6,1.2,1.3,1.8,1.9c0.2,0.2,0.3,0.3,0.5,0.4
		c0.7,0,1.2-0.2,1.8-0.3c0.2,0,0.5-0.2,0.6,0.1c-1.2,0.7-2.3,1.4-3.4,2.1c-0.5-1-1-2-1.5-3c-0.1-0.3-0.3-0.4-0.7-0.3
		c-2.7,0.5-5.3,0.9-7.9,1.4C14.2,9.3,14.2,9.4,14.1,9.4z"/>
	<path class="st7" d="M18.3,7.6c-2.2,0.5-4.4,0.9-6.6,1.4c-0.6,0.1-0.8,0-1.1-0.3c-0.3-0.4-0.6-0.8-0.9-1.2c0.6-1.2,1-2.3,1.7-3.4
		c0.3,0,0.4,0.1,0.6,0.2c1.6,0.8,3.2,1.6,4.8,2.4c0.4,0.2,0.9,0.4,1.3,0.7C18.3,7.3,18.5,7.4,18.3,7.6z"/>
	<path class="st9" d="M6,39.6c1.4,0.3,2.7,0.8,4.1,1.2c1,0.3,1.9,0.7,2.9,0.9c0.3-0.2,0.6-0.2,0.8,0c-0.1,0.2-0.4,0.2-0.7,0.2
		c-0.2,0-0.3,0.1-0.3,0.2c-0.6,1-1.2,1.9-1.8,2.9C11,45.2,11,45.3,11,45.4c-0.4,0.4-0.5,0.9-1,1.3c-0.2,0-0.3-0.1-0.3-0.2
		c-0.5-1-1.1-1.9-1.5-2.9c-0.1-0.6-0.5-1.1-0.8-1.6C7,41.2,6.5,40.4,6,39.6z"/>
	<path class="st10" d="M35.7,22.7c-0.8,0-1.4,0.4-2.1,0.6c-0.4,0.1-0.7,0.2-1.1,0.3c1.2-1.5,2.3-3,3.4-4.6c0.1-0.2,0.2-0.2,0.5-0.2
		c2,0.5,4,1,6,1.5c-0.4,0.4-1.1,0.5-1.8,0.6c0,0,0.1,0,0.1,0c0.2-0.1,0.4-0.2,0.5,0.1c-1-0.2-1.8,0.3-2.7,0.5
		C37.6,22,36.6,22.3,35.7,22.7z"/>
	<path class="st11" d="M18.3,7.6c-0.4-0.4-1.1-0.6-1.6-0.9c0.4-1.3,0.9-2.5,1.3-3.8c0.1-0.2,0.1-0.4,0.5-0.3c1.3,1,2.7,2.1,4,3.1
		c0.1,0.3,0.2,0.7-0.1,1C21.1,7,19.7,7.3,18.3,7.6z"/>
	<path class="st5" d="M13.7,18.1c1.2,0.3,2.4,0.5,3.7,0.7c0.7,0.1,1.2,0.3,1.5,0.8c0.3,0.6,0.8,1.2,1.2,1.7c-0.3,0.2-0.6,0-0.8,0
		c-0.6-0.1-1.1-0.3-1.7-0.3c-1.5-0.5-3.2-0.8-4.7-1.2c-0.3-0.1-0.8-0.1-0.9-0.5c-0.3-0.5-0.6-1-0.9-1.6c-0.1-0.1-0.3-0.2,0-0.4
		C12,17.5,12.9,17.8,13.7,18.1z"/>
	<path class="st10" d="M7.1,32.1C6.7,32.7,6,33,5.5,33.5C5,34,4.4,34.5,3.9,34.9c-0.3,0.2-0.2,0.4-0.1,0.6c0.4,0.7,0.7,1.4,1.1,2.1
		c-0.4,0.7-0.8,1.5-1.2,2.2c-0.3,0-0.3-0.3-0.4-0.4c-0.4-0.7-0.5-1.5-0.9-2.2c0.1-0.2,0.1-0.4,0-0.7c-0.3-0.8-0.6-1.6-0.9-2.4
		c-0.1-0.2-0.2-0.3,0.2-0.5C3.4,33.2,5.2,32.5,7.1,32.1z"/>
	<path class="st2" d="M39,25.3c0.3-0.1,0.3,0.1,0.4,0.2c1.3,1.7,2.5,3.3,3.8,5c0.1,0.2,0.2,0.3,0.3,0.4c-0.3,0.1-0.6,0-0.8-0.2
		c-0.9-0.4-1.8-0.8-2.9-1c-1.2-0.5-2.3-0.9-3.3-1.5c-0.1-0.1-0.1-0.2-0.1-0.2C37.3,27.1,38.1,26.2,39,25.3z"/>
	<path class="st12" d="M18.6,2.5c-0.4,0-0.3,0.3-0.3,0.4c-0.4,1.1-0.8,2.2-1.2,3.3C17,6.4,17,6.6,16.8,6.7C15,5.8,13.3,4.9,11.5,4
		c0.9-0.3,1.9-0.5,2.9-0.7c0.3-0.1,0.5,0.1,0.8,0.1c0.3-0.2-0.1-0.5,0.4-0.6c0,0.3,0.3,0.2,0.5,0.2c0.7-0.2,1.4-0.3,2.1-0.5
		C18.3,2.5,18.5,2.4,18.6,2.5z"/>
	<path class="st5" d="M9.1,27.3c-0.3-1-0.4-2-0.7-3c-0.1-0.3-0.1-0.5-0.1-0.8c0.2-0.1,0.4-0.2,0.6-0.1c1.2,0.1,2.3,0.1,3.4,0.3
		c0.1,0,0.3,0,0.4,0.1c0.1,0.1,0.2,0.3,0.2,0.4c-0.2,0.6-0.1,1.2-0.2,1.9c-0.1,0.2-0.2,0.3-0.4,0.3c-0.9,0.3-1.8,0.7-2.8,1
		C9.3,27.3,9.2,27.4,9.1,27.3z"/>
	<path class="st11" d="M34.2,17.6c0.3-0.7,0.9-1.2,1.3-1.9c0.1-0.2,0.3-0.2,0.4-0.2c1.3-0.1,2.6-0.1,3.9-0.2
		c0.3,0.2,0.2,0.4,0.1,0.6c-0.1,0.3-0.1,0.5-0.2,0.8c-0.1,0.2-0.1,0.4-0.3,0.6c-0.2,0.3,0.1,0.7-0.4,0.8c-0.3,0.1-0.8,0-1.2-0.1
		C36.7,17.9,35.5,17.7,34.2,17.6z"/>
	<path class="st11" d="M31,47.4c-0.1,0.5-0.2,1-0.3,1.5c-0.4-0.4-0.4-0.8-0.7-1.2c-0.3-0.2-0.3-0.5-0.5-0.7
		c-0.4-0.7-0.8-1.4-1.1-2.1c0,0,0-0.1,0.1-0.1c0.9-0.6,1.5-1.4,2.4-2.1c0.4-0.3,0.8-0.7,1.2-1.1c-0.1,1.1-0.4,2.2-0.6,3.3
		C31.4,45.6,31.2,46.5,31,47.4z"/>
	<path class="st7" d="M10.1,13.4c0.4,0,0.4-0.2,0.4-0.4c0.2-1.1,0.3-2.2,0.4-3.2c0-0.2,0.1-0.3,0.2-0.5c0.3,0.2,0.3,0.4,0.5,0.6
		c0,0,0,0.1,0,0.1c0.2,0.3,0.2,0.5,0.2,0.8c0,0.9,0,1.9,0,2.8c0,0.2-0.1,0.5-0.2,0.7c-0.2,0.2-0.6,0-0.8,0.2
		c-1.4,0.1-2.9,0.1-4.4,0.2c-0.6,0-0.9,0-0.8-0.5c0.1-0.3-0.3-0.6,0-0.9c0.7-0.2,1.3-0.1,1.9,0C8.4,13.3,9.3,13.2,10.1,13.4z"/>
	<path class="st11" d="M12.6,23.8c-1.4-0.1-2.9-0.3-4.4-0.3C8,22.7,7.8,21.8,7.7,21c0.2-0.1,0.4,0,0.7,0.1c1.3,0.5,2.5,0.9,3.8,1.3
		c0.2,0.1,0.4,0.2,0.6,0.4C12.8,23.1,13,23.5,12.6,23.8z"/>
	<path class="st11" d="M8.1,43.7c0.6,0.7,0.9,1.5,1.3,2.2c0.2,0.3,0.3,0.6,0.5,0.9c0.5,0.4,0.7,0.9,0.8,1.5c0.1,0.3,0.3,0.6,0.5,1
		c-0.6-0.3-1.1-0.6-1.5-0.9c-0.9-0.6-1.8-1.2-2.7-1.7c-0.3-0.2-0.3-0.3-0.2-0.6C7.3,45.2,7.7,44.5,8.1,43.7z"/>
	<path class="st12" d="M12.6,22.6c-1.4-0.5-2.8-1-4.2-1.5C8.2,21,8,21,7.7,20.9c1.1-0.5,2.3-0.7,3.3-1.2c0.3-0.1,0.7-0.1,0.8-0.4
		c0.2,0.2,0.6,0.3,0.9,0.4c0.3,0.4,0.2,0.8,0.2,1.2C12.9,21.5,13,22.1,12.6,22.6z"/>
	<path class="st13" d="M2.3,37.1c0.4-0.1,0.3,0.2,0.3,0.3C3,38.3,3.2,39,3.6,39.8c0,0.2-0.2,0.3-0.3,0.4c-0.9,0.7-1.8,1.3-2.7,2
		c-0.2,0.1-0.3,0.3-0.6,0.2C0.8,40.6,1.5,38.9,2.3,37.1z"/>
	<path class="st5" d="M27.7,29.7c-0.4,0.5-0.8,1-1.2,1.5c-0.1,0.2-0.3,0.3-0.3,0.5c-0.1,0-0.3,0.1-0.4,0.2c-0.8,0.4-1.8,0.7-2.8,0.8
		c-0.1,0-0.1-0.1-0.1-0.2c0.4-0.6,0.8-1.2,1.5-1.7c0.6-0.7,1.2-1.4,1.7-2C26.8,29.1,27.3,29.4,27.7,29.7z"/>
	<path class="st11" d="M9.1,27.3c1.2-0.4,2.3-0.8,3.4-1.2c0.3,0.3,0.2,0.7,0.2,1c-0.1,0.8-0.1,1.5-0.1,2.3c0,0.2,0.1,0.5-0.2,0.7
		c-0.1,0-0.1,0-0.1,0C11.2,29.1,10.1,28.3,9.1,27.3z"/>
	<path class="st3" d="M39.7,16.7c-0.1-0.5,0.3-0.9,0.2-1.4c1.8-0.1,3.5-0.2,5.3-0.3c0.3,0,0.8-0.2,0.8,0.1c0,0.3-0.3,0.6-0.7,0.7
		c-0.3,0.1-0.7,0-0.9,0.2c-0.7,0.3-1.4,0.3-2.2,0.4c-0.6,0.1-1.2,0.2-1.8,0.3C40.1,16.8,39.9,16.8,39.7,16.7z"/>
	<path class="st14" d="M43.6,31c1.5,0.5,3,1.1,4.5,1.7c0.1,0,0.1,0.1,0.1,0.1c-1.2,0.3-2.4,0.5-3.7,0.8c-0.2,0-0.5,0.2-0.7,0
		c-0.2-0.7-0.3-1.4-0.4-2C43.5,31.3,43.5,31.1,43.6,31z"/>
	<path class="st15" d="M28.9,15.8C28,16.4,27,17,26.2,17.6c-0.3,0.2-0.6,0.1-0.9,0c-0.9-0.1-1.8-0.4-2.6-0.5c-0.1,0-0.2-0.1-0.2-0.2
		c1.2-0.3,2.4-0.7,3.7-1C27.1,15.8,28,15.8,28.9,15.8z"/>
	<path class="st16" d="M36.6,28.3c1.2,0.4,2.3,0.8,3.3,1.5c-0.2,1-0.4,1.9-0.6,2.9c-0.6-0.6-0.8-1.3-1.3-1.9
		C37.6,29.8,37.1,29.1,36.6,28.3z"/>
	<path class="st7" d="M22.5,6.7c0.1-0.3-0.1-0.7,0.1-1c1,0.8,2,1.5,3,2.3c0.2,0.5,0,1-0.4,1.5c-0.5-0.2-0.7-0.6-1-0.9
		C23.6,7.9,23,7.3,22.5,6.7z"/>
	<path class="st15" d="M25.2,9.5c0.1-0.5,0.2-1,0.4-1.5c0.8-0.2,1.7-0.3,2.5-0.5c-0.1,0.5,0.2,1.1-0.4,1.5c-0.6-0.1-1,0.2-1.5,0.2
		C25.9,9.4,25.6,9.6,25.2,9.5z"/>
	<path class="st14" d="M47,22.2c-0.1-0.3,0.2-0.7-0.6-0.8c-0.1,0-0.1-0.1-0.1-0.1c0.3-0.4,0.6-0.8,1.3-1.1c0.7,0.3,1.5,0.5,2.4,0.8
		C48.9,21.4,48,21.8,47,22.2z"/>
	<path class="st17" d="M44.1,20.8c0.6-0.3,0.7-0.8,1-1.3c0.2-0.3,0.6-0.5,1.1-0.4c0.7,0,1.5,0,2.2,0.1c0.1,0,0.2,0,0.2,0.1
		c0,0.1-0.2,0.1-0.3,0.1C47.2,20,46,20.5,44.6,21C44.5,20.9,44.2,21,44.1,20.8z"/>
	<path class="st18" d="M15.2,3.7c-0.3-0.1-0.6-0.2-0.8-0.3c-0.2-0.4-0.8-0.6-1.2-0.8c-0.3-0.2-0.4-0.3-0.3-0.6
		c0.2-0.5,0.3-1.1,0.5-1.6c0.2,0,0.2,0.1,0.3,0.2C13.8,0.7,13.9,1,14,1.2c0.3,0.6,0.7,1.3,1.1,1.9C15.2,3.3,15.3,3.5,15.2,3.7z"/>
	<path class="st19" d="M39.7,16.7c0.8-0.1,1.6-0.2,2.4-0.3c0.2,0.2,0.6,0.3,0.8,0.5c-0.1,0.1-0.5,0-0.3,0.2c0.3,0.3,0,0.3-0.3,0.5
		c-0.7,0.4-1.4,0.3-2-0.1c-0.2-0.1-0.4-0.2-0.7-0.2C39.5,17.1,39.5,16.9,39.7,16.7z"/>
	<path class="st20" d="M43.6,31c0.1,0.7,0.3,1.4,0.4,2.2c0,0.1,0.1,0.2-0.1,0.3c-0.5-0.4-1-0.8-1.5-1.2c-0.2-0.2-0.3-0.3-0.1-0.5
		c0.2-0.3,0.4-0.7,0.6-1.1C43.1,30.7,43.4,30.9,43.6,31C43.6,31,43.6,31,43.6,31z"/>
	<path class="st11" d="M10.1,13.4c-1.5,0-3-0.1-4.5-0.2c0.6-0.3,1.2-0.7,1.9-1c0.7,0.4,1.5,0.7,2.3,1C9.9,13.3,10.1,13.3,10.1,13.4z
		"/>
	<path class="st14" d="M15.2,3.7c-0.4-0.8-0.9-1.7-1.4-2.6c-0.1-0.2-0.2-0.4-0.2-0.6c0.8,0.3,1.5,0.8,2.1,1.3c0.3,0.3-0.1,0.7-0.1,1
		C15.2,3,15.7,3.4,15.2,3.7z"/>
	<path class="st21" d="M44.1,20.8c0.2,0.1,0.4,0,0.6,0.1c0.6,0.1,1.2,0.2,1.7,0.5c0,0,0,0,0,0.1c-1.7-0.1-3.4-0.2-5.1-0.3
		c-0.2-0.1-0.4,0-0.6-0.2c0.6-0.2,1.2-0.4,1.8-0.6C43,20.5,43.6,20.6,44.1,20.8z"/>
	<path class="st11" d="M46.4,21.3c-0.6-0.1-1.2-0.2-1.7-0.5c1.2-0.5,2.5-1,3.7-1.5c-0.1,0.3-0.6,0.5-0.8,0.8
		C47.2,20.6,46.8,21,46.4,21.3z"/>
	<path class="st22" d="M13.7,18.1c-0.9-0.1-1.8-0.4-2.6-0.7c0.8-0.3,1.8-0.3,2.7-0.5C13.7,17.3,13.7,17.7,13.7,18.1z"/>
	<path class="st23" d="M42.9,16.8c-0.4,0-0.8-0.1-0.8-0.5c0.8,0,1.5-0.3,2.2-0.3c0.3,0.6,0.3,0.6-0.6,0.7
		C43.4,16.7,43.1,16.7,42.9,16.8z"/>
	<path class="st23" d="M13.7,14.9c0.3-0.2,0.7-0.4,1-0.3c0.3,0.2-0.2,0.4-0.4,0.6c-0.1,0.2-0.2,0.5-0.6,0.7
		C13.7,15.5,13.7,15.2,13.7,14.9z"/>
	<path class="st24" d="M39,25.3c-0.4,0.7-1.1,1.3-1.5,1.9c-0.3,0.3-0.4,0.7-0.9,0.9c-0.3-0.5-0.6-1-0.8-1.5
		c-0.2-0.2-0.1-0.3,0.3-0.5C36.9,25.9,37.9,25.5,39,25.3z"/>
	<path class="st25" d="M45,25.9c-0.1,0.3-0.3,0.5-0.7,0.5c-0.4,0-0.6-0.2-0.7-0.5c0-0.3,0.3-0.5,0.7-0.5C44.7,25.3,45,25.5,45,25.9z
		"/>
	<path class="st0" d="M23.1,32.7c0.9-0.2,1.8-0.5,2.8-0.7c0.4,0,0.3,0.3,0.3,0.4c-0.3,0.8-0.1,1.7-0.2,2.5c-0.2,1-0.1,1.9-0.2,2.9
		c0,0.3,0,0.5-0.3,0.7c-0.2,0.1-0.4,0-0.6-0.1c-0.8-0.3-1.6-0.7-2.4-1c-0.2-0.1-0.4-0.2-0.4-0.4c-0.6-1.1-1.2-2.2-1.8-3.3
		c-0.1-0.2-0.2-0.3-0.2-0.4c0.3-0.3,0.8-0.3,1.2-0.4c0.2-0.1,0.5-0.1,0.8-0.2C22.4,32.7,22.7,32.5,23.1,32.7z"/>
	<path class="st26" d="M22.1,37c0.3,0.3,0.7,0.4,1.1,0.5c0.8,0.3,1.5,0.6,2.3,0.9c0.1,0.1,0.3,0.1,0.3,0.3c0,0.9-0.1,1.8-0.2,2.7
		c0,0.3-0.1,0.5-0.2,0.8c-0.1,0-0.1,0.1-0.2,0.1c-0.2,0.1-0.5,0.1-0.7,0.1c-1.1-0.1-2.2,0-3.3-0.2c-0.2-0.1-0.3-0.2-0.4-0.3
		c-0.3-0.7-0.7-1.5-1-2.2c-0.1-0.2,0.1-0.3,0.2-0.5C20.6,38.5,21.4,37.8,22.1,37C22,37.1,22.1,37.1,22.1,37z"/>
	<path class="st7" d="M28.5,44.7c0,0,0,0.1,0,0.1c0,0.2-0.2,0.3-0.3,0.5c-0.6,0.6-1.2,1.1-1.8,1.7c-0.1,0.1-0.2,0.3-0.5,0.3
		c-0.4,0.4-0.9,0.8-1.4,1.3c-0.1-0.5,0.1-0.9,0.1-1.3c-0.2-0.1-0.2-0.3-0.2-0.4c0.2-1.4,0.3-2.7,0.5-4.1c0-0.2,0.1-0.3,0.2-0.5
		l0.1,0c0.8-0.2,1.5-0.1,2.2,0.2C27.8,43.2,28.2,44,28.5,44.7z"/>
	<path class="st16" d="M27.5,42.5c-0.7,0-1.5-0.1-2.2-0.2c0.2-1.2,0.1-2.4,0.5-3.5C26.3,40,26.9,41.3,27.5,42.5z"/>
	<path class="st26" d="M13.8,41.8c-0.2-0.2-0.5-0.1-0.8-0.1c0.7-1.2,1.4-2.4,2.2-3.6c0.6-0.9,1.1-1.9,1.8-2.8
		c0.1,0.2-0.1,0.5,0.2,0.7c0.2,0.1,0.2,0.3,0.2,0.4c0.1,1.6,0.2,3.2,0.3,4.9c0,0.2,0.1,0.5-0.2,0.7c-0.1,0-0.1,0.1-0.2,0.1
		C16.2,42.1,14.9,42.1,13.8,41.8z"/>
	<path class="st27" d="M21.8,18c-0.2,0.3-0.4,0.6-0.4,0.9c0,0.1,0.1,0.3-0.2,0.3c-1.5-0.3-3-0.7-4.6-1c0.4-0.2,0.9-0.2,1.2-0.3
		c1.5-0.2,3-0.6,4.5-0.9c0.2,0.2,0,0.4-0.3,0.5c0,0.1,0,0.1,0,0.2C22.1,17.8,21.9,17.9,21.8,18z"/>
	<path class="st28" d="M15.5,10.9c-0.6,0-0.4-0.3-0.7-0.5c2.2-0.5,4.3-1.1,6.4-1.6c0.2,0,0.6-0.3,0.7,0c0.2,0.3,0.4,0.6-0.3,0.7
		c-0.1,0-0.1,0-0.2,0.1c-0.3,0.2-0.7,0.2-1,0.3c-0.2,0-0.4,0.1-0.6,0.1c-0.6,0.2-1.2,0.3-1.8,0.4c-0.3,0.1-0.6,0.1-0.8,0.2
		c-0.3,0.1-0.7,0.2-1,0.3C16.2,10.6,15.9,10.8,15.5,10.9z"/>
	<path class="st29" d="M18.2,10.3c0.6-0.2,1.2-0.3,1.9-0.4c0.4,0.3,0.6,0.6,0.4,1c0.2,0.4,0.3,0.8,0.6,1.2c0.1,0.2,0.1,0.3-0.2,0.4
		c-0.4,0.2-0.9,0.3-1.4,0.2c-0.1-0.2-0.3-0.3-0.4-0.5c-0.4-0.5-0.6-1-0.9-1.6C18.1,10.5,18.1,10.4,18.2,10.3z"/>
	<path class="st23" d="M24.2,13.8c0.1,0.2-0.1,0.2-0.2,0.2c-2,0.4-4,0.8-6,1.3c-0.2,0-0.3,0-0.4-0.2c-0.1-0.2,0.1-0.2,0.3-0.2
		c2-0.4,4-0.8,6-1.2C24,13.6,24.2,13.7,24.2,13.8z"/>
	<path class="st30" d="M18.2,10.3c0.2,0.7,0.7,1.3,0.8,2c-0.6-0.3-0.7-0.7-1.1-1.1c-0.1-0.1-0.2-0.3-0.3-0.3
		c-0.2-0.1-0.2-0.2-0.2-0.4C17.6,10.4,17.9,10.3,18.2,10.3z"/>
	<path class="st5" d="M22.1,17.4c0.1-0.2,0.2-0.3,0.3-0.5c0.1,0,0.1,0,0.1,0c0.9,0.2,1.9,0.5,2.8,0.7c-0.5,0.2-1,0-1.4-0.2
		C23.2,17.3,22.6,17.2,22.1,17.4z"/>
	<path class="st31" d="M20.6,9.8c0.3-0.1,0.6-0.2,1-0.2c0.2,0.3,0.2,0.5-0.2,0.8C20.6,10.4,20.4,10.2,20.6,9.8z"/>
	<path class="st32" d="M17.4,10.5c0.2,0.1,0.1,0.3,0.2,0.4c-0.1,0.2-0.3,0.4-0.6,0.3c-0.3,0-0.4-0.2-0.5-0.3
		C16.5,10.5,17,10.5,17.4,10.5z"/>
	<path class="st33" d="M19.4,12.7c0.5-0.1,0.9-0.2,1.4-0.3c0.4,0.2-0.1,0.3-0.1,0.5c-0.1,0.2-0.3,0.2-0.4,0.2
		C20,13,19.6,12.9,19.4,12.7z"/>
	<path class="st34" d="M20.6,9.8c0,0.3,0.2,0.6,0.8,0.6c-0.4,0.1-0.6,0.4-0.9,0.5c-0.1-0.3-0.3-0.7-0.4-1
		C20.2,9.8,20.4,9.7,20.6,9.8z"/>
	<path class="st7" d="M13,41.8c0.4,2,0.7,4,1.1,6c0,0,0.1,0.1,0.1,0.1c0,0.2,0,0.3,0.1,0.5c0.1,0.1,0.1,0.2-0.2,0.2
		c-0.2-0.2-0.4-0.4-0.7-0.7c-0.7-0.3-1-0.8-1.5-1.3c-0.4-0.4-0.9-0.7-1.1-1.2c-0.1-0.1-0.1-0.2-0.1-0.3C11.6,44.1,12.2,42.9,13,41.8
		z"/>
	<path class="st35" d="M14.1,48.6c0.1,0,0.1-0.1,0.2-0.2c0.1,0.1,0.2,0.2,0.1,0.3C14.2,48.8,14.2,48.6,14.1,48.6z"/>
	<path class="st7" d="M12.4,30c0.1-1.3,0.1-2.6,0.2-3.9c0.1-0.8,0.1-1.5,0.1-2.3c0-0.4,0-0.8,0-1.2c0.1-1,0.1-1.9,0.2-2.9
		c1.4,0.3,2.8,0.7,4.2,1c0.3,0.1,0.4,0.2,0.6,0.3c0.3,0.4,0.3,0.9,0.3,1.4c0.1,0.2-0.1,0.4,0.1,0.6c0.1,0.3,0.1,0.6,0.2,0.9
		c0.1,0.7,0.2,1.4,0.2,2c0.1,0.2,0.1,0.4,0.1,0.5c0.1,0.7,0.3,1.5,0.3,2.2c0.1,0.4,0.1,0.8,0.2,1.1c-0.1,0.4,0.3,0.8-0.1,1.2
		c-1.5-0.2-2.9-0.5-4.4-0.7C13.8,30.3,13.1,30.3,12.4,30z"/>
	<path class="st11" d="M17.5,42.1c-0.1,0-0.1,0-0.2-0.1c0.1-1.4-0.1-2.7-0.2-4.1c0-0.6,0-1.3,0-1.9c0.1-0.8,0.1-0.8,1.1-0.4
		c1.2,0.5,2.5,1,3.8,1.5c-0.1,0.5-0.6,0.8-0.9,1.2c-0.4,0.5-0.9,0.9-1.3,1.4c0,0.1-0.1,0.2-0.2,0.3C18.9,40.7,18.3,41.5,17.5,42.1z"
		/>
	<path class="st36" d="M18.9,31.1c0-0.4-0.2-0.8-0.1-1.3c0.1-0.2,0.3-0.2,0.6-0.2c0.7,0,1.4-0.3,2.1-0.1c0.1,0,0.1,0.1,0.1,0.1
		c0.3,1.1,0.5,2.2,0.6,3.2c-0.7,0.2-1.3,0.3-2,0.5C19.6,32.6,19.2,31.8,18.9,31.1z"/>
	<path class="st28" d="M11.6,14.3c0-1.5,0-2.9,0-4.4c0.6,0.9,1.3,1.9,1.9,2.8c0.1,0.2,0.1,0.3-0.1,0.3c-0.2,0.1-0.3,0.3-0.6,0.4
		c-0.1,0.2-0.3,0.4-0.7,0.5C12.1,14,11.8,14.2,11.6,14.3z"/>
	<path class="st8" d="M20.2,21.2c0.8-0.3,1.3-0.7,2-1.1c0.2,0.8,0.3,1.5,0.5,2.3c-0.5,0.3-1.2,0.2-1.7,0.2c-0.9,0-1.3-0.5-0.9-1.3
		C20.1,21.3,20.1,21.3,20.2,21.2z"/>
	<path class="st36" d="M20,21.4c0.1,0.2,0.1,0.4,0.1,0.6c0,0.5,0.3,0.6,0.9,0.5c-0.1,0.2-0.4,0.2-0.7,0.2c-0.6,0-1.2,0.1-1.8,0.1
		c-0.3,0-0.6,0.2-0.8,0.2c-0.2-0.7-0.2-1.4-0.3-2c0.1-0.3,0.3-0.1,0.5-0.1c0.7,0.1,1.3,0.3,1.9,0.4C20,21.4,20,21.4,20,21.4z"/>
	<path class="st37" d="M12.3,13.9c0.2-0.2,0.4-0.3,0.6-0.4c0.3,0.1,0.6,0.2,0.8,0.3C13,14.3,12.7,14.3,12.3,13.9z"/>
	<path class="st5" d="M21.1,19.2c0.1-0.1,0.2-0.2,0.2-0.3c0.3,0.3,0.1,0.7-0.5,0.9C21,19.6,21,19.4,21.1,19.2z"/>
	<path class="st13" d="M22.1,32.9c-0.3-0.5-0.2-1-0.4-1.5c-0.2-0.6-0.2-1.2-0.3-1.8c0.3-0.3,0.9-0.2,1.3-0.3c0.5-0.1,1-0.1,1.4-0.3
		c0.1,0.6,0.3,1.1,0.4,1.7c0,0.1,0,0.2,0.1,0.2c-0.4,0.6-1.1,1.2-1.4,1.8C22.7,32.7,22.4,32.8,22.1,32.9z"/>
	<path class="st2" d="M24.1,28.9c0,0.3-0.1,0.3-0.5,0.4c-0.7,0.1-1.5,0.1-2.2,0.3c-0.9,0-1.8,0.1-2.7,0.3c-0.2-0.3-0.1-0.7-0.2-1
		c0.7-0.3,1.5-0.2,2.2-0.4c0.2,0,0.4,0,0.6-0.1c0.6-0.1,1.2-0.2,1.8-0.2c0.2,0,0.5,0,0.7,0C23.9,28.4,24,28.6,24.1,28.9z"/>
	<path class="st13" d="M23.9,28.2c-0.8,0.1-1.7,0.2-2.5,0.3c-0.3,0-0.4-0.1-0.4-0.2c-0.1-0.5-0.2-1-0.2-1.5c0-0.1,0.1-0.2,0.2-0.2
		c0.8-0.2,1.7-0.3,2.5-0.3C23.6,26.9,23.7,27.5,23.9,28.2z"/>
	<path class="st2" d="M23.5,26.2c-0.8,0.2-1.7,0.2-2.5,0.3c-0.7,0.3-1.5,0.3-2.3,0.3c-0.4,0-0.4-0.2-0.4-0.4c0-0.2-0.1-0.3-0.1-0.5
		c-0.1-0.3,0.2-0.3,0.4-0.3c0.7-0.1,1.4-0.2,2-0.2c0.6-0.1,1.3-0.2,1.9-0.2c0.3,0,0.7,0,0.8,0.3C23.4,25.7,23.5,26,23.5,26.2z"/>
	<path class="st2" d="M17.8,23.1c0-0.3,0.3-0.3,0.7-0.4c0.8,0,1.7-0.1,2.5-0.2c0.6,0,1.1,0,1.7-0.1c0.1,0.3,0.1,0.6,0.2,0.9
		c-0.1,0.2-0.4,0.2-0.6,0.2c-0.6,0-1.2,0.2-1.8,0.2c-0.6,0.1-1.2,0.1-1.9,0.2c-0.2,0-0.5,0.1-0.7,0C17.8,23.6,17.8,23.3,17.8,23.1z"
		/>
	<path class="st8" d="M20.5,23.6c0.8-0.1,1.6-0.2,2.4-0.3c0.2,0.7,0.3,1.4,0.5,2.1c-0.2-0.3-0.5-0.2-0.8-0.2
		c-0.6,0.1-1.2,0.2-1.9,0.2C20.3,24.9,20.1,24.3,20.5,23.6z"/>
	<path class="st5" d="M21.8,18c0-0.2,0.1-0.3,0.2-0.4C22.3,17.8,22.3,17.8,21.8,18z"/>
	<path class="st7" d="M17.5,42.1c0.6-0.9,1.5-1.6,2.3-2.4c0.4,0.8,0.8,1.7,1.2,2.5c0.3,0.6,0.5,1.2,0.8,1.9
		C20.3,43.4,18.9,42.7,17.5,42.1z"/>
	<path class="st28" d="M18.2,26.5c0.1,0.2,0.2,0.3,0.6,0.3c0.7-0.1,1.5-0.2,2.2-0.2c0,0.7-0.1,1.3,0.4,1.9c-0.9,0.1-1.9,0.2-2.8,0.3
		C18.5,28,18.4,27.2,18.2,26.5z"/>
	<path class="st36" d="M20.5,23.6c0,0.6,0.2,1.2,0.3,1.9c-0.7,0.1-1.4,0.2-2.1,0.3c-0.2,0-0.4,0-0.4,0.2c-0.1-0.7-0.3-1.4-0.2-2
		C18.7,23.8,19.6,23.7,20.5,23.6z"/>
</g>
</svg>
