<?xml version="1.0" encoding="utf-8"?>
<!-- Generator: Adobe Illustrator 23.1.0, SVG Export Plug-In . SVG Version: 6.00 Build 0)  -->
<svg version="1.1" id="Capa_1" xmlns="http://www.w3.org/2000/svg" xmlns:xlink="http://www.w3.org/1999/xlink" x="0px" y="0px"
	 viewBox="0 0 89.8 149.9" style="enable-background:new 0 0 89.8 149.9;" xml:space="preserve">
<style type="text/css">
	.st0{fill:#E2E2E2;}
	.st1{fill:#C3C3C3;}
	.st2{fill:#D5D5D5;}
	.st3{fill:#FEE5D5;}
	.st4{fill:#CBCBCB;}
	.st5{fill:#95637C;}
	.st6{fill:#F4C9B2;}
	.st7{fill:#543042;}
	.st8{fill:#785D87;}
	.st9{fill:#BCBCBC;}
	.st10{fill:#A588B9;}
	.st11{fill:#734C5F;}
	.st12{fill:#B2879C;}
	.st13{fill:#785D88;}
	.st14{fill:#96637C;}
	.st15{fill:#B2889C;}
	.st16{fill:#8F8F8F;}
	.st17{fill:#B2889D;}
	.st18{fill:#D0A0B7;}
	.st19{fill:#F4C9B3;}
	.st20{fill:#734D5F;}
	.st21{fill:#9076A0;}
	.st22{fill:#563243;}
	.st23{fill:#C4947E;}
	.st24{fill:#A3A3A3;}
	.st25{fill:#050505;}
	.st26{fill:#A2A2A2;}
	.st27{fill:#C3937D;}
	.st28{fill:#90759F;}
	.st29{fill:#FEF0E7;}
	.st30{fill:#F4CAB4;}
	.st31{fill:#0A0908;}
	.st32{fill:#070606;}
	.st33{fill:#C69680;}
	.st34{fill:#F2C8B2;}
	.st35{fill:#9F9298;}
	.st36{fill:#8F759F;}
	.st37{fill:#C59480;}
</style>
<g>
	<path class="st0" d="M84.6,66.1c0.4,5.2,0.7,10.3,1.3,15.2c0.4,4.9,0.9,9.7,1.3,14.9c0,0.6,0.5,1.5,0,2.1c-2.9-1.5-5.8-3.3-8.3-5.2
		c-0.2,0-0.2-0.3-0.2-0.3c-2-3.9-3.6-7.9-5.4-11.8c-0.7-1.5-1.4-3-2-4.6c-0.2-0.3-0.4-0.9-0.7-0.9c-1.4,0.6-3.1,1.5-4.5,2.1
		c-0.9,0.3-1.3,0.9-0.7,2.1c0.5,1.2,0.9,2.4,1.3,3.6c0.2,0.3,0.2,0.6,0.4,0.6c1.6,4.2,3.2,8.8,4.7,13.4c-0.4,2.4-0.7,4.9-1.3,7.3
		c0,0.3-0.2,0.3-0.2,0.6c-0.5,0-0.7-0.3-1.3-0.9c-3.8-3.6-7-8.2-10.6-12.1c-0.4-0.6-0.7-0.9-0.7-1.5c0.5-2.4,1.4-4.9,2.2-7.3
		c1.3-4.9,2.7-9.7,4.1-14.3c0.2-0.6,0.4-0.9,0.5-1.5c0.4-0.6,0.7-0.9,1.3-0.9c2.2-1.2,4.1-2.1,6.3-3.6c1.1-0.6,2-0.3,3.1-0.6
		c3.1,0.3,5.9,0.6,9,0.9C84.8,63.6,84.9,64.5,84.6,66.1z"/>
	<path class="st1" d="M57.6,90.9c0,0.3,0.2,0.6,0.4,0.9c3.6,4.6,7.4,8.8,11,13.4c0.2,0,0.4,0.3,0.5,0.6c-0.7,2.1-2.2,3.6-3.2,5.5
		c-2.7,4.6-5.6,9.1-8.5,13.4c-0.2,1.2-0.9,1.8-1.4,2.7c-1.3,2.1-2.5,4.2-4,6.1c-0.4,0.6-0.5,0.9-1.3,0.9c-1.1-2.1-1.3-4.6-2.2-6.7
		c-1.1-3.6-2.2-7.3-3.1-11.2c-0.2-0.6-0.4-0.9-0.4-1.2c0.4-2.1,0.2-4.2,0.4-6.1c0.4-4.2,0.4-8.2,0.5-12.4c0-0.3,0-0.6-0.2-0.6
		c-0.2-0.6,0.4-0.9,0.7-0.9c3.2-1.2,6.3-2.4,9.4-3.9C56.9,90.9,57.2,90.6,57.6,90.9z"/>
	<path class="st2" d="M10.8,118.9c-0.7-2.1-1.4-4.2-2.2-6.1c-0.9-1.2-1.1-2.7-1.6-3.9c-1.3-3.9-1.4-3,1.1-6.7
		c1.4-2.1,2.7-4.2,4.5-6.1c0.4-0.3,0.7-0.3,1.3,0c2.2,0.9,4.3,1.8,6.3,2.7c0.4,0,0.7,0.6,1.1,0c2.7,2.1,5.6,3.6,8.3,5.8
		c0.5,0.3,1.1,0.6,0.9,1.5c-2.2,6.1-4.3,11.8-6.5,17.6c-0.2,0.6-0.4,1.2-0.7,1.5c-0.4,0.3-0.7,0-1.1,0c-3.6-1.8-7.4-3.9-11-5.8
		C11.1,119.2,11,119.2,10.8,118.9z"/>
	<path class="st3" d="M43.7,32.7c1.1,4.2,2.2,8.2,3.1,12.4c0.2,0.6,0.4,0.9,0.4,1.5c-0.2,0.9-0.9,0.9-1.4,0.9
		c-1.6,0.9-3.4,1.5-5.2,2.1c-0.2,0-0.2,0-0.4,0c-2.2,0.9-4.5,1.5-6.7,2.4c-0.5,0-1.1,0.3-1.4,0c-0.7-1.8-1.1-3.6-1.4-5.5
		c-1.1-4.6-2.2-9.1-3.1-13.7c-0.2-0.9-0.4-1.5,0.4-2.1c0.7-0.3,1.3-0.9,2,0c0.5,1.5,1.3,0.6,1.8,0c0.5,0,0.7,0.6,1.1,1.2
		c0.5,0.9,1.1,2.1,1.6,3c0.4,0.6,0.5,0.9,0.9,1.5c0.2,0.3,0.4,0.3,0.5,0.6c1.3,0.6,1.6,0.6,1.6-1.2c0.2-0.9-0.2-1.8-0.4-2.7
		c-0.2-0.6-0.4-1.2-0.4-1.8c0.4-0.9,0.9-1.5,1.6-2.1c0.7-0.6,0.4-1.5,0.5-2.1c0.2-0.3,0.2-0.3,0.4-0.6c0.4,0,0.5-0.6,0.2-0.9
		c-0.4-0.6-0.7-0.3-1.1,0c-2.9,1.2-5.8,2.4-8.6,3.6c-0.9,0.3-1.8,0.9-2.7,0.9c-0.7-0.9-1.4-1.8-1.4-3c0.4-0.6,0.7-0.6,1.3-0.6
		c4.1-1.2,8.3-2.4,12.6-3.6c1.6-0.6,1.8-0.3,2.3,1.5c0.7,2.4,1.4,4.9,2.2,7.3C43.7,31.8,43.9,32.4,43.7,32.7z"/>
	<path class="st4" d="M55.8,142.5c0,0.6,0.2,1.2,0.9,1.2c2,0.3,4,0.6,5.9,0.6c2.9,0.3,5.8,0.6,8.8,0.9c0.7,0,1.4,0,2.3,0
		c-1.1,0.9-2,0.6-2.9,0.6c-4.1,0.6-8.3,0.9-12.4,1.5s-8.3,1.2-12.4,1.5c-3.2,0.3-6.5,1.2-9.7,0.9c-4.3-0.3-8.8-0.6-13.3-0.9
		c-3.1-0.3-6.1-0.6-9-0.6c-3.2-0.3-6.3-0.3-9.5-0.6c-0.4,0-0.7-0.3-1.3-0.3c4.9-0.9,9.2-1.5,13.7-2.1c0.2,0,0.5,0,0.5-0.3
		c1.1,0.3,1.6,1.2,2.3,2.1c-0.2-0.6-1.1-1.5-0.4-2.4c1.4-0.3,3.1-0.6,4.3-0.9c0.9,0,1.1,0.9,1.4,1.5c0.2,0-0.2-0.3,0-0.6
		c0-0.6,0-0.9,0.4-1.2c1.6-0.9,3.2-0.6,4.9-0.9c2.9-0.6,5.8-0.9,8.6-1.5c1.6-0.3,3.4,0,5,0.3c1.1,0.9,0.4,2.1,0.2,3.3
		c0.4-0.9,0.9-1.5,1.4-2.4c0.4-0.6,0.5-0.9,1.1-0.9c2.3,0.6,4.5,0.6,6.8,0.9c1.1,0.6,0.7,2.1,1.4,3h0.2c-0.2,0-0.2,0-0.2,0
		C55.2,145,54.9,143.5,55.8,142.5z"/>
	<path class="st5" d="M30.6,106.1c0.2-0.6-0.4-0.9-0.7-0.9c-2.5-1.5-5-3.3-7.4-4.9c-0.4-0.3-1.1-0.6-1.1-1.2c0.2-3,0.5-6.1,0.5-8.8
		c0.2,0,0.2,0,0.4,0c4,1.2,7.7,2.1,11.5,3.3c0.4,0.3,0.5,0.9,0.7,1.2c0.5,1.8,1.3,3.6,1.6,5.8c0.7,3,2.2,6.1,3.1,9.1
		c0.2,0.6,0.5,1.2,0.5,2.1l-0.2,0.3c-0.5,0.3-1.1-0.3-1.4-0.6c-2-1.2-4-2.4-5.9-3.9c-0.7-0.6-1.3-0.6-1.3,0.6c0,0.3-0.2,0.6-0.5,0.6
		C30.2,107.3,30.4,106.7,30.6,106.1z"/>
	<path class="st6" d="M27.9,31.8c-0.4,0.3-0.5,0.6-0.4,1.2c1.4,6.1,2.9,12.1,4.3,18.2c0.2,0.6,0.2,0.9,0.2,1.5
		c-0.4,1.2-1.3,0.9-1.8,0.9c2.5,0.9,5.2,1.5,7.7,3c0.4,0.9-0.2,1.5-0.4,2.1c-0.4,1.5-0.7,2.7-1.3,4.2c-0.2,0.3-0.4,0.6-0.5,0.6
		c-0.2,0-0.2,0-0.4,0c-0.7-1.5-1.4-3.3-2.2-5.2c-0.5-1.5-1.4-2.1-2.7-2.4c-1.8-0.6-3.4-0.9-5.2-1.5c-0.5,0-1.1-0.3-1.3-0.9
		c-0.2-1.2-0.4-2.4,0.2-3.3c0-0.9,0-2.1,0-3c0.4-1.2,0.9-2.1,1.4-3.6c-0.5,0-1.1,0.6-1.4,0.6c-0.7,0-1.4,0.6-2.2,0.9
		c-0.5,0.3-1.1,0.3-1.1-0.6c-0.2-1.2-1.1-1.5-2-1.5c0.2-0.9,0.9-0.6,1.3-0.9c0.5-0.3,0.7-0.9,1.4-0.9c0.7,0.9,1.4,0.6,2.2-0.3
		c-0.4-0.6-1.1-0.3-1.3-0.9v-0.3c1.4-1.5,0.7-2.7,0-4.2c-1.1-2.1-1.8-4.2-2.5-6.4c0,0,0-0.3,0.2-0.6c1.4-0.6,2.9-1.5,4.5-1.2
		c0.5,0.9,1.1,1.8,1.4,3C27.3,30.5,27.5,31.1,27.9,31.8z"/>
	<path class="st7" d="M46.8,59.4c0.2,6.7,0.2,13.4,0.4,20.3c0,2.1,0.2,4.2,0.2,6.4c0.2,0.6-0.2,0.9-0.4,1.2c-0.7,1.2-1.4,2.4-2,3.9
		c-0.2,0.6-0.4,0.9-1.1,0.9c-0.7-1.5-0.5-3-0.7-4.6c-0.2-0.6,0-0.9-0.2-1.5c-0.2-0.9-0.4-1.5-0.4-2.4c-0.2-2.1-0.5-3.9-0.7-5.8
		c-0.2-0.9-0.2-1.5-0.4-2.4c-0.4-2.1-0.5-4.2-0.9-6.4c0-0.9-0.4-1.8-0.4-2.7c-0.4-2.4-0.7-4.6-0.7-7c0.2-0.6,0.4-0.9,0.7-1.2
		c1.6-1.8,3.2-3.6,4.9-5.2c0.4-0.3,0.7-0.9,1.3-0.6c0.5,0.3,0.4,0.9,0.4,1.5C47,55.7,47,57.6,46.8,59.4z"/>
	<path class="st5" d="M46.8,59.4c-0.4-1.5-0.2-3-0.2-4.6c0-0.6,0-1.2-0.4-2.1c-2.2,2.4-4.3,4.6-6.5,7c-0.5,1.5-2,2.4-2.9,3.3
		c-0.2,0.3-0.4,0.3-0.5,0c0.4-1.5,0.7-2.7,1.3-4.2c0.5-0.9,1.3-1.8,0.7-3c-0.2-0.9,0.2-1.8,0.7-2.7c0.4-0.3,0.9-0.6,0.5-1.2
		c0-0.3,0-0.3,0.2-0.6c0.7-0.9,1.6-0.9,2.7-0.3c0.9,0.6,2,0.9,2.9,0.9c1.1,0.3,1.6-0.3,2.3-0.9c1.4-1.5,2.7-3,4.3-4.2
		c4.1-0.3,8.5-0.6,12.6-0.9c-0.9,1.5-1.6,3.3-2.3,5.2c-0.2,0.6-0.4,0.9-0.7,1.2c-4.3,2.1-8.8,4.6-13.3,6.7
		C47.7,58.8,47.3,59.1,46.8,59.4z"/>
	<path class="st8" d="M57.6,90.9c-3.2,1.8-6.8,3-10.3,4.2c-0.2-0.3-0.2-0.6-0.2-0.6c0.9-1.8,1.4-3.9,2.7-5.8
		c2.3-4.9,4.5-9.7,6.8-14.9c0.5-1.2,1.3-2.4,1.6-3.6c1.4-1.5,3.4-2.1,5.2-3c0.2,0,0.5,0,0.5,0.3c-2.2,7.6-4.3,15.2-6.7,22.8
		C57.6,90.6,57.6,90.6,57.6,90.9z"/>
	<path class="st5" d="M25.4,27.2c-1.6,0.3-3.1,0.6-4.5,1.5c-0.4,0-0.4-0.6-0.7-0.6c-0.4,3.3-0.5,6.7-0.7,10c-0.2,0.9,0,1.5-0.9,1.8
		c-1.6-0.9-3.2-2.1-4.9-3.3c-0.2,0-0.4-0.3-0.2-0.6c1.1-5.2,2.7-10,4-14.9c1.1,0.6,1.3,1.8,1.6,2.7c0.9,1.5,0.7,1.8,2.5,1.2
		c3.6-1.2,7.4-2.4,11.2-3.9c2.5-0.9,4.9-1.8,7.4-2.4c0.5,0,0.7,0.6,1.1,1.2c1.1,1.8,2.2,3.9,3.2,5.8c0.4,0.6,0.5,0.9,0.9,1.2
		c1.3,0,2.2-0.6,3.2-0.9c0.4,0,0.9-0.6,1.1,0.3c-2.2,2.1-4.1,4.2-6.1,6.4c-0.9-3-1.8-6.1-2.7-9.1c-0.2-0.9-0.5-1.2-1.3-0.9
		c-4.9,1.5-9.5,2.7-14.2,4.2C25.5,26.9,25.5,27.2,25.4,27.2z"/>
	<path class="st7" d="M32.9,21.7C29,23.3,25,24.5,21,26c-1.1,0.3-1.4,0-2-0.9c-0.5-1.2-1.1-2.4-1.6-3.6c1.1-3.6,1.8-7,3.1-10.3
		c0.5,0,0.7,0.3,1.1,0.6c2.9,2.4,5.8,4.9,8.6,7.3c0.7,0.6,1.6,1.2,2.3,2.1C32.9,20.8,33.3,21.1,32.9,21.7z"/>
	<path class="st9" d="M10.8,118.9c2.5,0.9,4.9,2.4,7.4,3.6c1.8,0.9,3.4,2.1,5.2,2.7c0.5-0.6,1.1-0.6,1.4,0c-0.2,0.6-0.7,0.6-1.3,0.6
		c-0.4,0-0.5,0.3-0.5,0.6c-1.1,3-2.2,5.8-3.2,8.8c0,0.6,0,0.9,0,1.2c-0.7,1.2-0.9,2.7-1.8,3.9c-0.4,0-0.5-0.3-0.5-0.6
		c-0.9-3-2-5.8-2.7-8.8c-0.2-1.8-0.9-3.3-1.4-4.9C12.6,123.7,11.7,121.3,10.8,118.9z"/>
	<path class="st10" d="M64.2,67.6c-1.4,0-2.5,1.2-3.8,1.8c-0.7,0.3-1.3,0.6-2,0.9c2.2-4.6,4.1-9.1,6.1-14c0.2-0.6,0.4-0.6,0.9-0.6
		c3.6,1.5,7.2,3,10.8,4.6c-0.7,1.2-2,1.5-3.2,1.8h0.2c0.4-0.3,0.7-0.6,0.9,0.3c-1.8-0.6-3.2,0.9-4.9,1.5
		C67.7,65.4,65.9,66.4,64.2,67.6z"/>
	<path class="st11" d="M32.9,21.7c-0.7-1.2-2-1.8-2.9-2.7c0.7-3.9,1.6-7.6,2.3-11.5c0.2-0.6,0.2-1.2,0.9-0.9c2.3,3,4.9,6.4,7.2,9.4
		c0.2,0.9,0.4,2.1-0.2,3C38,19.9,35.4,20.8,32.9,21.7z"/>
	<path class="st5" d="M24.6,53.6c2.2,0.9,4.3,1.5,6.7,2.1c1.3,0.3,2.2,0.9,2.7,2.4c0.5,1.8,1.4,3.6,2.2,5.2c-0.5,0.6-1.1,0-1.4,0
		c-1.1-0.3-2-0.9-3.1-0.9c-2.7-1.5-5.8-2.4-8.5-3.6c-0.5-0.3-1.4-0.3-1.6-1.5c-0.5-1.5-1.1-3-1.6-4.9c-0.2-0.3-0.5-0.6,0-1.2
		C21.6,51.8,23.2,52.7,24.6,53.6z"/>
	<path class="st10" d="M12.8,96.1c-0.7,1.8-2,2.7-2.9,4.2c-0.9,1.5-2,3-2.9,4.2c-0.5,0.6-0.4,1.2-0.2,1.8c0.7,2.1,1.3,4.2,2,6.4
		c-0.7,2.1-1.4,4.6-2.2,6.7c-0.5,0-0.5-0.9-0.7-1.2c-0.7-2.1-0.9-4.6-1.6-6.7c0.2-0.6,0.2-1.2,0-2.1c-0.5-2.4-1.1-4.9-1.6-7.3
		c-0.2-0.6-0.4-0.9,0.4-1.5C6.1,99.4,9.3,97.3,12.8,96.1z"/>
	<path class="st2" d="M70.2,75.5c0.5-0.3,0.5,0.3,0.7,0.6c2.3,5.2,4.5,10,6.8,15.2c0.2,0.6,0.4,0.9,0.5,1.2c-0.5,0.3-1.1,0-1.4-0.6
		c-1.6-1.2-3.2-2.4-5.2-3c-2.2-1.5-4.1-2.7-5.9-4.6c-0.2-0.3-0.2-0.6-0.2-0.6C67.1,80.9,68.6,78.2,70.2,75.5z"/>
	<path class="st12" d="M33.5,6.3c-0.7,0-0.5,0.9-0.5,1.2c-0.7,3.3-1.4,6.7-2.2,10c-0.2,0.6-0.2,1.2-0.5,1.5
		c-3.2-2.7-6.3-5.5-9.5-8.2c1.6-0.9,3.4-1.5,5.2-2.1C26.4,8.4,26.8,9,27.3,9c0.5-0.6-0.2-1.5,0.7-1.8c0,0.9,0.5,0.6,0.9,0.6
		c1.3-0.6,2.5-0.9,3.8-1.5C32.9,6.3,33.3,6,33.5,6.3z"/>
	<path class="st5" d="M16.4,81.5c-0.5-3-0.7-6.1-1.3-9.1c-0.2-0.9-0.2-1.5-0.2-2.4c0.4-0.3,0.7-0.6,1.1-0.3c2.2,0.3,4.1,0.3,6.1,0.9
		c0.2,0,0.5,0,0.7,0.3c0.2,0.3,0.4,0.9,0.4,1.2c-0.4,1.8-0.2,3.6-0.4,5.8c-0.2,0.6-0.4,0.9-0.7,0.9c-1.6,0.9-3.2,2.1-5,3
		C16.7,81.5,16.5,81.8,16.4,81.5z"/>
	<path class="st11" d="M61.5,52.1c0.5-2.1,1.6-3.6,2.3-5.8c0.2-0.6,0.5-0.6,0.7-0.6c2.3-0.3,4.7-0.3,7-0.6c0.5,0.6,0.4,1.2,0.2,1.8
		c-0.2,0.9-0.2,1.5-0.4,2.4c-0.2,0.6-0.2,1.2-0.5,1.8c-0.4,0.9,0.2,2.1-0.7,2.4c-0.5,0.3-1.4,0-2.2-0.3C66,53,63.9,52.4,61.5,52.1z"
		/>
	<path class="st11" d="M55.8,142.5c-0.2,1.5-0.4,3-0.5,4.6c-0.7-1.2-0.7-2.4-1.3-3.6c-0.5-0.6-0.5-1.5-0.9-2.1
		c-0.7-2.1-1.4-4.2-2-6.4c0,0,0-0.3,0.2-0.3c1.6-1.8,2.7-4.2,4.3-6.4c0.7-0.9,1.4-2.1,2.2-3.3c-0.2,3.3-0.7,6.7-1.1,10
		C56.5,137.1,56.1,139.8,55.8,142.5z"/>
	<path class="st7" d="M18.2,39.3c0.7,0,0.7-0.6,0.7-1.2c0.4-3.3,0.5-6.7,0.7-9.7c0-0.6,0.2-0.9,0.4-1.5c0.5,0.6,0.5,1.2,0.9,1.8V29
		c0.4,0.9,0.4,1.5,0.4,2.4c0,2.7,0,5.8,0,8.5c0,0.6-0.2,1.5-0.4,2.1c-0.4,0.6-1.1,0-1.4,0.6c-2.5,0.3-5.2,0.3-7.9,0.6
		c-1.1,0-1.6,0-1.4-1.5c0.2-0.9-0.5-1.8,0-2.7c1.3-0.6,2.3-0.3,3.4,0C15.1,39,16.7,38.7,18.2,39.3z"/>
	<path class="st11" d="M22.7,70.9c-2.5-0.3-5.2-0.9-7.9-0.9c-0.4-2.4-0.7-5.2-0.9-7.6c0.4-0.3,0.7,0,1.3,0.3
		c2.3,1.5,4.5,2.7,6.8,3.9c0.4,0.3,0.7,0.6,1.1,1.2C23,68.8,23.4,70,22.7,70.9z"/>
	<path class="st11" d="M14.6,131.3c1.1,2.1,1.6,4.6,2.3,6.7c0.4,0.9,0.5,1.8,0.9,2.7c0.9,1.2,1.3,2.7,1.4,4.6c0.2,0.9,0.5,1.8,0.9,3
		c-1.1-0.9-2-1.8-2.7-2.7c-1.6-1.8-3.2-3.6-4.9-5.2c-0.5-0.6-0.5-0.9-0.4-1.8C13.1,135.9,13.8,133.7,14.6,131.3z"/>
	<path class="st12" d="M22.7,67.3c-2.5-1.5-5-3-7.6-4.6c-0.4-0.3-0.7-0.3-1.3-0.6c2-1.5,4.1-2.1,5.9-3.6c0.5-0.3,1.3-0.3,1.4-1.2
		c0.4,0.6,1.1,0.9,1.6,1.2c0.5,1.2,0.4,2.4,0.4,3.6C23.2,63.9,23.4,65.8,22.7,67.3z"/>
	<path class="st13" d="M4.1,111.3c0.7-0.3,0.5,0.6,0.5,0.9c0.7,2.7,1.1,4.9,1.8,7.3c0,0.6-0.4,0.9-0.5,1.2c-1.6,2.1-3.2,3.9-4.9,6.1
		c-0.4,0.3-0.5,0.9-1.1,0.6C1.4,121.9,2.7,116.7,4.1,111.3z"/>
	<path class="st5" d="M49.8,88.8c-0.7,1.5-1.4,3-2.2,4.6c-0.2,0.6-0.5,0.9-0.5,1.5c-0.2,0-0.5,0.3-0.7,0.6c-1.4,1.2-3.2,2.1-5,2.4
		c-0.2,0-0.2-0.3-0.2-0.6c0.7-1.8,1.4-3.6,2.7-5.2c1.1-2.1,2.2-4.2,3.1-6.1C48.2,87,49.1,87.9,49.8,88.8z"/>
	<path class="st11" d="M16.4,81.5c2.2-1.2,4.1-2.4,6.1-3.6c0.5,0.9,0.4,2.1,0.4,3c-0.2,2.4-0.2,4.6-0.2,7c0,0.6,0.2,1.5-0.4,2.1
		c-0.2,0-0.2,0-0.2,0C20.1,87,18.2,84.6,16.4,81.5z"/>
	<path class="st3" d="M71.4,49.4c-0.2-1.5,0.5-2.7,0.4-4.2c3.2-0.3,6.3-0.6,9.5-0.9c0.5,0,1.4-0.6,1.4,0.3s-0.5,1.8-1.3,2.1
		c-0.5,0.3-1.3,0-1.6,0.6c-1.3,0.9-2.5,0.9-4,1.2c-1.1,0.3-2.2,0.6-3.2,0.9C72.2,49.7,71.8,49.7,71.4,49.4z"/>
	<path class="st14" d="M78.5,92.8c2.7,1.5,5.4,3.3,8.1,5.2c0.2,0,0.2,0.3,0.2,0.3c-2.2,0.9-4.3,1.5-6.7,2.4c-0.4,0-0.9,0.6-1.3,0
		c-0.4-2.1-0.5-4.2-0.7-6.1C78.3,93.7,78.3,93.1,78.5,92.8z"/>
	<path class="st15" d="M52,46.6c-1.6,1.8-3.4,3.6-4.9,5.5c-0.5,0.6-1.1,0.3-1.6,0c-1.6-0.3-3.2-1.2-4.7-1.5c-0.2,0-0.4-0.3-0.4-0.6
		c2.2-0.9,4.3-2.1,6.7-3C48.8,46.6,50.4,46.6,52,46.6z"/>
	<path class="st16" d="M65.9,84.6c2.2,1.2,4.1,2.4,5.9,4.6c-0.4,3-0.7,5.8-1.1,8.8c-1.1-1.8-1.4-3.9-2.3-5.8
		C67.7,89.1,66.8,87,65.9,84.6z"/>
	<path class="st7" d="M40.5,19c0.2-0.9-0.2-2.1,0.2-3c1.8,2.4,3.6,4.6,5.4,7c0.4,1.5,0,3-0.7,4.6c-0.9-0.6-1.3-1.8-1.8-2.7
		C42.5,22.7,41.4,20.8,40.5,19z"/>
	<path class="st15" d="M45.3,27.5c0.2-1.5,0.4-3,0.7-4.6c1.4-0.6,3.1-0.9,4.5-1.5c-0.2,1.5,0.4,3.3-0.7,4.6
		c-1.1-0.3-1.8,0.6-2.7,0.6C46.6,27.2,46.1,27.8,45.3,27.5z"/>
	<path class="st14" d="M84.6,66.1c-0.2-0.9,0.4-2.1-1.1-2.4c-0.2,0-0.2-0.3-0.2-0.3c0.5-1.2,1.1-2.4,2.3-3.3
		c1.3,0.9,2.7,1.5,4.3,2.4C88,63.6,86.4,64.8,84.6,66.1z"/>
	<path class="st17" d="M79.4,61.8c1.1-0.9,1.3-2.4,1.8-3.9c0.4-0.9,1.1-1.5,2-1.2c1.3,0,2.7,0,4,0.3c0.2,0,0.4,0,0.4,0.3
		c0,0.3-0.4,0.3-0.5,0.3c-2,1.8-4.1,3.3-6.7,4.9C80.1,62.1,79.5,62.4,79.4,61.8z"/>
	<path class="st18" d="M27.3,9.9c-0.5-0.3-1.1-0.6-1.4-0.9c-0.4-1.2-1.4-1.8-2.2-2.4C23.2,6,23,5.7,23.2,4.7
		c0.4-1.5,0.5-3.3,0.9-4.9c0.4,0,0.4,0.3,0.5,0.6s0.4,1.2,0.5,1.8c0.5,1.8,1.3,3.9,2,5.8C27.3,8.7,27.5,9.3,27.3,9.9z"/>
	<path class="st19" d="M71.4,49.4c1.4-0.3,2.9-0.6,4.3-0.9c0.4,0.6,1.1,0.9,1.4,1.5c-0.2,0.3-0.9,0-0.5,0.6c0.5,0.9,0,0.9-0.5,1.5
		c-1.3,1.2-2.5,0.9-3.6-0.3c-0.4-0.3-0.7-0.6-1.3-0.6C71.1,50.6,71.1,50,71.4,49.4z"/>
	<path class="st20" d="M78.5,92.8c0.2,2.1,0.5,4.2,0.7,6.7c0,0.3,0.2,0.6-0.2,0.9c-0.9-1.2-1.8-2.4-2.7-3.6
		c-0.4-0.6-0.5-0.9-0.2-1.5c0.4-0.9,0.7-2.1,1.1-3.3C77.6,91.9,78.1,92.5,78.5,92.8L78.5,92.8z"/>
	<path class="st11" d="M18.2,39.3c-2.7,0-5.4-0.3-8.1-0.6c1.1-0.9,2.2-2.1,3.4-3c1.3,1.2,2.7,2.1,4.1,3C17.8,39,18.2,39,18.2,39.3z"
		/>
	<path class="st14" d="M27.3,9.9c-0.7-2.4-1.6-5.2-2.5-7.9c-0.2-0.6-0.4-1.2-0.4-1.8c1.4,0.9,2.7,2.4,3.8,3.9c0.5,0.9-0.2,2.1-0.2,3
		C27.3,7.8,28.2,9,27.3,9.9z"/>
	<path class="st21" d="M79.4,61.8c0.4,0.3,0.7,0,1.1,0.3c1.1,0.3,2.2,0.6,3.1,1.5c0,0,0,0,0,0.3c-3.1-0.3-6.1-0.6-9.2-0.9
		c-0.4-0.3-0.7,0-1.1-0.6c1.1-0.6,2.2-1.2,3.2-1.8C77.4,60.9,78.5,61.2,79.4,61.8z"/>
	<path class="st11" d="M83.5,63.3c-1.1-0.3-2.2-0.6-3.1-1.5c2.2-1.5,4.5-3,6.7-4.6c-0.2,0.9-1.1,1.5-1.4,2.4
		C84.9,61.2,84.2,62.4,83.5,63.3z"/>
	<path class="st22" d="M24.6,53.6c-1.6-0.3-3.2-1.2-4.7-2.1c1.4-0.9,3.2-0.9,4.9-1.5C24.6,51.2,24.6,52.4,24.6,53.6z"/>
	<path class="st23" d="M77.2,49.7c-0.7,0-1.4-0.3-1.4-1.5c1.4,0,2.7-0.9,4-0.9c0.5,1.8,0.5,1.8-1.1,2.1
		C78.1,49.4,77.6,49.4,77.2,49.7z"/>
	<path class="st23" d="M24.6,43.9c0.5-0.6,1.3-1.2,1.8-0.9c0.5,0.6-0.4,1.2-0.7,1.8c-0.2,0.6-0.4,1.5-1.1,2.1
		C24.6,45.7,24.6,44.8,24.6,43.9z"/>
	<path class="st24" d="M70.2,75.5c-0.7,2.1-2,3.9-2.7,5.8c-0.5,0.9-0.7,2.1-1.6,2.7c-0.5-1.5-1.1-3-1.4-4.6
		c-0.4-0.6-0.2-0.9,0.5-1.5C66.4,77.3,68.2,76.1,70.2,75.5z"/>
	<path class="st25" d="M81,77.3c-0.2,0.9-0.5,1.5-1.3,1.5s-1.1-0.6-1.3-1.5c0-0.9,0.5-1.5,1.3-1.5C80.4,75.5,81,76.1,81,77.3z"/>
	<path class="st0" d="M41.6,97.9c1.6-0.6,3.2-1.5,5-2.1c0.7,0,0.5,0.9,0.5,1.2c-0.5,2.4-0.2,5.2-0.4,7.6c-0.4,3-0.2,5.8-0.4,8.8
		c0,0.9,0,1.5-0.5,2.1c-0.4,0.3-0.7,0-1.1-0.3c-1.4-0.9-2.9-2.1-4.3-3c-0.4-0.3-0.7-0.6-0.7-1.2c-1.1-3.3-2.2-6.7-3.2-10
		c-0.2-0.6-0.4-0.9-0.4-1.2c0.5-0.9,1.4-0.9,2.2-1.2c0.4-0.3,0.9-0.3,1.4-0.6C40.3,97.9,40.8,97.3,41.6,97.9z"/>
	<path class="st26" d="M39.8,111c0.5,0.9,1.3,1.2,2,1.5c1.4,0.9,2.7,1.8,4.1,2.7c0.2,0.3,0.5,0.3,0.5,0.9c0,2.7-0.2,5.5-0.4,8.2
		c0,0.9-0.2,1.5-0.4,2.4c-0.2,0-0.2,0.3-0.4,0.3c-0.4,0.3-0.9,0.3-1.3,0.3c-2-0.3-4,0-5.9-0.6c-0.4-0.3-0.5-0.6-0.7-0.9
		c-0.5-2.1-1.3-4.6-1.8-6.7c-0.2-0.6,0.2-0.9,0.4-1.5C37.1,115.5,38.5,113.4,39.8,111C39.6,111.3,39.8,111.3,39.8,111z"/>
	<path class="st7" d="M51.3,134.3v0.3c0,0.6-0.4,0.9-0.5,1.5c-1.1,1.8-2.2,3.3-3.2,5.2c-0.2,0.3-0.4,0.9-0.9,0.9
		c-0.7,1.2-1.6,2.4-2.5,3.9c-0.2-1.5,0.2-2.7,0.2-3.9c-0.4-0.3-0.4-0.9-0.4-1.2c0.4-4.2,0.5-8.2,0.9-12.4c0-0.6,0.2-0.9,0.4-1.5h0.2
		c1.4-0.6,2.7-0.3,4,0.6C50,129.8,50.7,132.2,51.3,134.3z"/>
	<path class="st16" d="M49.5,127.7c-1.3,0-2.7-0.3-4-0.6c0.4-3.6,0.2-7.3,0.9-10.6C47.3,120.1,48.4,124,49.5,127.7z"/>
	<path class="st26" d="M24.8,125.5c-0.4-0.6-0.9-0.3-1.4-0.3c1.3-3.6,2.5-7.3,4-10.9c1.1-2.7,2-5.8,3.2-8.5c0.2,0.6-0.2,1.5,0.4,2.1
		c0.4,0.3,0.4,0.9,0.4,1.2c0.2,4.9,0.4,9.7,0.5,14.9c0,0.6,0.2,1.5-0.4,2.1c-0.2,0-0.2,0.3-0.4,0.3
		C29.1,126.5,26.8,126.5,24.8,125.5z"/>
	<path class="st27" d="M39.2,53.3c-0.4,0.9-0.7,1.8-0.7,2.7c0,0.3,0.2,0.9-0.4,0.9c-2.7-0.9-5.4-2.1-8.3-3c0.7-0.6,1.6-0.6,2.2-0.9
		c2.7-0.6,5.4-1.8,8.1-2.7c0.4,0.6,0,1.2-0.5,1.5c0,0.3,0,0.3,0,0.6C39.8,52.7,39.4,53,39.2,53.3z"/>
	<path class="st28" d="M27.9,31.8c-1.1,0-0.7-0.9-1.3-1.5c4-1.5,7.7-3.3,11.5-4.9c0.4,0,1.1-0.9,1.3,0c0.4,0.9,0.7,1.8-0.5,2.1
		c-0.2,0-0.2,0-0.4,0.3c-0.5,0.6-1.3,0.6-1.8,0.9c-0.4,0-0.7,0.3-1.1,0.3c-1.1,0.6-2.2,0.9-3.2,1.2c-0.5,0.3-1.1,0.3-1.4,0.6
		c-0.5,0.3-1.3,0.6-1.8,0.9C29.1,30.8,28.6,31.5,27.9,31.8z"/>
	<path class="st29" d="M32.7,29.9c1.1-0.6,2.2-0.9,3.4-1.2c0.7,0.9,1.1,1.8,0.7,3c0.4,1.2,0.5,2.4,1.1,3.6c0.2,0.6,0.2,0.9-0.4,1.2
		c-0.7,0.6-1.6,0.9-2.5,0.6c-0.2-0.6-0.5-0.9-0.7-1.5c-0.7-1.5-1.1-3-1.6-4.9C32.6,30.5,32.6,30.2,32.7,29.9z"/>
	<path class="st23" d="M43.5,40.6c0.2,0.6-0.2,0.6-0.4,0.6c-3.6,1.2-7.2,2.4-10.8,3.9c-0.4,0-0.5,0-0.7-0.6
		c-0.2-0.6,0.2-0.6,0.5-0.6c3.6-1.2,7.2-2.4,10.8-3.6C43.2,40,43.5,40.3,43.5,40.6z"/>
	<path class="st30" d="M32.7,29.9c0.4,2.1,1.3,3.9,1.4,6.1c-1.1-0.9-1.3-2.1-2-3.3c-0.2-0.3-0.4-0.9-0.5-0.9
		c-0.4-0.3-0.4-0.6-0.4-1.2C31.7,30.2,32.2,29.9,32.7,29.9z"/>
	<path class="st5" d="M39.8,51.5c0.2-0.6,0.4-0.9,0.5-1.5c0.2,0,0.2,0,0.2,0c1.6,0.6,3.4,1.5,5,2.1c-0.9,0.6-1.8,0-2.5-0.6
		C41.7,51.2,40.7,50.9,39.8,51.5z"/>
	<path class="st31" d="M37.1,28.4c0.5-0.3,1.1-0.6,1.8-0.6c0.4,0.9,0.4,1.5-0.4,2.4C37.1,30.2,36.7,29.6,37.1,28.4z"/>
	<path class="st32" d="M31.3,30.5c0.4,0.3,0.2,0.9,0.4,1.2c-0.2,0.6-0.5,1.2-1.1,0.9c-0.5,0-0.7-0.6-0.9-0.9
		C29.7,30.5,30.6,30.5,31.3,30.5z"/>
	<path class="st33" d="M34.9,37.2c0.9-0.3,1.6-0.6,2.5-0.9c0.7,0.6-0.2,0.9-0.2,1.5c-0.2,0.6-0.5,0.6-0.7,0.6
		C36,38.1,35.3,37.8,34.9,37.2z"/>
	<path class="st34" d="M37.1,28.4c0,0.9,0.4,1.8,1.4,1.8c-0.7,0.3-1.1,1.2-1.6,1.5c-0.2-0.9-0.5-2.1-0.7-3
		C36.3,28.4,36.7,28.1,37.1,28.4z"/>
	<path class="st7" d="M23.4,125.5c0.7,6.1,1.3,12.1,2,18.2l0.2,0.3c0,0.6,0,0.9,0.2,1.5c0.2,0.3,0.2,0.6-0.4,0.6
		c-0.4-0.6-0.7-1.2-1.3-2.1c-1.3-0.9-1.8-2.4-2.7-3.9c-0.7-1.2-1.6-2.1-2-3.6c-0.2-0.3-0.2-0.6-0.2-0.9
		C20.9,132.5,21.9,128.9,23.4,125.5z"/>
	<path class="st35" d="M25.4,146.2c0.2,0,0.2-0.3,0.4-0.6c0.2,0.3,0.4,0.6,0.2,0.9C25.5,146.8,25.5,146.2,25.4,146.2z"/>
	<path class="st7" d="M22.3,89.7c0.2-3.9,0.2-7.9,0.4-11.8c0.2-2.4,0.2-4.6,0.2-7c0-1.2,0-2.4,0-3.6c0.2-3,0.2-5.8,0.4-8.8
		c2.5,0.9,5,2.1,7.6,3c0.5,0.3,0.7,0.6,1.1,0.9c0.5,1.2,0.5,2.7,0.5,4.2c0.2,0.6-0.2,1.2,0.2,1.8c0.2,0.9,0.2,1.8,0.4,2.7
		c0.2,2.1,0.4,4.2,0.4,6.1c0.2,0.6,0.2,1.2,0.2,1.5c0.2,2.1,0.5,4.6,0.5,6.7c0.2,1.2,0.2,2.4,0.4,3.3c-0.2,1.2,0.5,2.4-0.2,3.6
		c-2.7-0.6-5.2-1.5-7.9-2.1C24.8,90.6,23.6,90.6,22.3,89.7z"/>
	<path class="st11" d="M31.5,126.5c-0.2,0-0.2,0-0.4-0.3c0.2-4.2-0.2-8.2-0.4-12.4c0-1.8,0-3.9,0-5.8c0.2-2.4,0.2-2.4,2-1.2
		c2.2,1.5,4.5,3,6.8,4.6c-0.2,1.5-1.1,2.4-1.6,3.6c-0.7,1.5-1.6,2.7-2.3,4.2c0,0.3-0.2,0.6-0.4,0.9C34,122.2,32.9,124.6,31.5,126.5z
		"/>
	<path class="st36" d="M34,93.1c0-1.2-0.4-2.4-0.2-3.9c0.2-0.6,0.5-0.6,1.1-0.6c1.3,0,2.5-0.9,3.8-0.3c0.2,0,0.2,0.3,0.2,0.3
		c0.5,3.3,0.9,6.7,1.1,9.7c-1.3,0.6-2.3,0.9-3.6,1.5C35.3,97.6,34.5,95.2,34,93.1z"/>
	<path class="st28" d="M20.9,42.1c0-4.6,0-8.8,0-13.4c1.1,2.7,2.3,5.8,3.4,8.5c0.2,0.6,0.2,0.9-0.2,0.9c-0.4,0.3-0.5,0.9-1.1,1.2
		c-0.2,0.6-0.5,1.2-1.3,1.5C21.8,41.2,21.2,41.8,20.9,42.1z"/>
	<path class="st8" d="M36.3,63c1.4-0.9,2.3-2.1,3.6-3.3c0.4,2.4,0.5,4.6,0.9,7c-0.9,0.9-2.2,0.6-3.1,0.6c-1.6,0-2.3-1.5-1.6-3.9
		C36.2,63.3,36.2,63.3,36.3,63z"/>
	<path class="st36" d="M36,63.6c0.2,0.6,0.2,1.2,0.2,1.8c0,1.5,0.5,1.8,1.6,1.5c-0.2,0.6-0.7,0.6-1.3,0.6c-1.1,0-2.2,0.3-3.2,0.3
		c-0.5,0-1.1,0.6-1.4,0.6c-0.4-2.1-0.4-4.2-0.5-6.1c0.2-0.9,0.5-0.3,0.9-0.3c1.3,0.3,2.3,0.9,3.4,1.2C36,63.6,36,63.6,36,63.6z"/>
	<path class="st37" d="M22.1,40.9c0.4-0.6,0.7-0.9,1.1-1.2c0.5,0.3,1.1,0.6,1.4,0.9C23.4,42.1,22.8,42.1,22.1,40.9z"/>
	<path class="st5" d="M38,56.9c0.2-0.3,0.4-0.6,0.4-0.9c0.5,0.9,0.2,2.1-0.9,2.7C37.8,58.2,37.8,57.6,38,56.9z"/>
	<path class="st13" d="M39.8,98.5c-0.5-1.5-0.4-3-0.7-4.6c-0.4-1.8-0.4-3.6-0.5-5.5c0.5-0.9,1.6-0.6,2.3-0.9
		c0.9-0.3,1.8-0.3,2.5-0.9c0.2,1.8,0.5,3.3,0.7,5.2c0,0.3,0,0.6,0.2,0.6c-0.7,1.8-2,3.6-2.5,5.5C40.8,97.9,40.3,98.2,39.8,98.5z"/>
	<path class="st2" d="M43.4,86.4c0,0.9-0.2,0.9-0.9,1.2c-1.3,0.3-2.7,0.3-4,0.9c-1.6,0-3.2,0.3-4.9,0.9c-0.4-0.9-0.2-2.1-0.4-3
		c1.3-0.9,2.7-0.6,4-1.2c0.4,0,0.7,0,1.1-0.3c1.1-0.3,2.2-0.6,3.2-0.6c0.4,0,0.9,0,1.3,0C43,84.9,43.2,85.5,43.4,86.4z"/>
	<path class="st13" d="M43,84.3c-1.4,0.3-3.1,0.6-4.5,0.9c-0.5,0-0.7-0.3-0.7-0.6c-0.2-1.5-0.4-3-0.4-4.6c0-0.3,0.2-0.6,0.4-0.6
		c1.4-0.6,3.1-0.9,4.5-0.9C42.5,80.3,42.6,82.1,43,84.3z"/>
	<path class="st2" d="M42.3,78.2c-1.4,0.6-3.1,0.6-4.5,0.9C36.5,80,35.1,80,33.6,80c-0.7,0-0.7-0.6-0.7-1.2s-0.2-0.9-0.2-1.5
		c-0.2-0.9,0.4-0.9,0.7-0.9c1.3-0.3,2.5-0.6,3.6-0.6c1.1-0.3,2.3-0.6,3.4-0.6c0.5,0,1.3,0,1.4,0.9C42.1,76.7,42.3,77.6,42.3,78.2z"
		/>
	<path class="st2" d="M32,68.8c0-0.9,0.5-0.9,1.3-1.2c1.4,0,3.1-0.3,4.5-0.6c1.1,0,2,0,3.1-0.3c0.2,0.9,0.2,1.8,0.4,2.7
		C41,70,40.5,70,40.1,70c-1.1,0-2.2,0.6-3.2,0.6c-1.1,0.3-2.2,0.3-3.4,0.6c-0.4,0-0.9,0.3-1.3,0C32,70.3,32,69.4,32,68.8z"/>
	<path class="st8" d="M36.9,70.3c1.4-0.3,2.9-0.6,4.3-0.9c0.4,2.1,0.5,4.2,0.9,6.4c-0.4-0.9-0.9-0.6-1.4-0.6
		c-1.1,0.3-2.2,0.6-3.4,0.6C36.5,74.2,36.2,72.4,36.9,70.3z"/>
	<path class="st5" d="M39.2,53.3c0-0.6,0.2-0.9,0.4-1.2C40.1,52.7,40.1,52.7,39.2,53.3z"/>
	<path class="st7" d="M31.5,126.5c1.1-2.7,2.7-4.9,4.1-7.3c0.7,2.4,1.4,5.2,2.2,7.6c0.5,1.8,0.9,3.6,1.4,5.8
		C36.5,130.4,34,128.3,31.5,126.5z"/>
	<path class="st28" d="M32.7,79.1c0.2,0.6,0.4,0.9,1.1,0.9c1.3-0.3,2.7-0.6,4-0.6c0,2.1-0.2,3.9,0.7,5.8c-1.6,0.3-3.4,0.6-5,0.9
		C33.3,83.7,33.1,81.2,32.7,79.1z"/>
	<path class="st36" d="M36.9,70.3c0,1.8,0.4,3.6,0.5,5.8c-1.3,0.3-2.5,0.6-3.8,0.9c-0.4,0-0.7,0-0.7,0.6c-0.2-2.1-0.5-4.2-0.4-6.1
		C33.6,70.9,35.3,70.6,36.9,70.3z"/>
</g>
</svg>
