<?xml version="1.0" encoding="utf-8"?>
<!-- Generator: Adobe Illustrator 23.1.0, SVG Export Plug-In . SVG Version: 6.00 Build 0)  -->
<svg version="1.1" id="Capa_1" xmlns="http://www.w3.org/2000/svg" xmlns:xlink="http://www.w3.org/1999/xlink" x="0px" y="0px"
	 viewBox="0 0 105.3 148.8" style="enable-background:new 0 0 105.3 148.8;" xml:space="preserve">
<style type="text/css">
	.st0{fill:#C3C3C3;}
	.st1{fill:#FEDAC6;}
	.st2{fill:#95637C;}
	.st3{fill:#ECBFA7;}
	.st4{fill:#E4E4E4;}
	.st5{fill:#2B2B2B;}
	.st6{fill:#543042;}
	.st7{fill:#734C5F;}
	.st8{fill:#E2E2E2;}
	.st9{fill:#8E8E8E;}
	.st10{fill:#474747;}
	.st11{fill:#3C3C3C;}
	.st12{fill:#737373;}
	.st13{fill:#ECBFA8;}
	.st14{fill:#E4C937;}
	.st15{fill:#E3C936;}
	.st16{fill:#E4C936;}
	.st17{fill:#EAEAEA;}
	.st18{fill:#65A9BA;}
	.st19{fill:#8E8F8F;}
	.st20{fill:#C3937D;}
	.st21{fill:#C5947F;}
	.st22{fill:#EABEA6;}
	.st23{fill:#4D4C4B;}
	.st24{fill:#4C4B4A;}
	.st25{fill:#0D0B0A;}
	.st26{fill:#0E0C0B;}
	.st27{fill:#C79782;}
	.st28{fill:#C6957F;}
	.st29{fill:#69AEAD;}
	.st30{fill:#C2C3C3;}
	.st31{fill:#E0E1E1;}
	.st32{fill:#C79781;}
	.st33{fill:#E9BFA9;}
	.st34{fill:#FCFBFA;}
</style>
<g>
	<path class="st0" d="M52.9,125.2c-0.4,4.2-1.7,8.4-2.3,12.5c-0.2,1.2-0.8,0.6-1.2,0.6c-4.3-1.8-8.7-3.6-13-5.4
		c-0.8-0.3-1.7-0.6-2.3-0.9c-0.8,0.6-1.2,0-1.9-0.3c-3.7-1.5-7.4-3.3-11.1-4.8c-0.8-0.3-1.2-0.6-1.9,0.3c-0.2-1.8-1-2.4-2.1-2.4
		c-0.6-0.3-1.4-0.3-1.9-1.2c-0.4-0.9-0.2-1.8,0-2.7c0.8-3.9,1.4-7.8,2.3-11.6c1-6,2.3-11.9,3.3-17.9c0.2-0.9,0.2-1.5,0.4-2.4
		c0.2-0.6,0.6-0.9,1.2-0.6c4.5,4.8,8.9,9.3,13,14.3c0,0.3,0,0.3,0,0.6c-0.4,0.9-1.2,1.2-1.9,1.8c-0.8,0.6-1.2,1.2-0.8,2.7
		c0.2,0.3,0.2,0.6,0.2,1.2c-0.2,1.2-0.8,2.1-1.2,3.3c-0.4,1.2-0.4,1.8,0.2,2.7c3.1,4.8,6,9.6,9.1,14.3c0.6,0.9,1.2,1.2,2.3,0.6
		c2.5-1.2,4.7-2.4,7.2-3.6C51.2,125.5,51.8,124.3,52.9,125.2z"/>
	<path class="st1" d="M78.3,29.9c-1,5.4-2.3,10.8-3.7,15.8c-2.1,9-4.1,17.6-6.2,26.6c-0.2,0.6-0.2,0.9-0.2,1.5
		c-0.6,0.6-1.2,0.3-1.9-0.3c-1-0.3-1.9-0.6-2.9-1.2c-1.9-0.6-3.7-1.5-5.6-2.1c-1.2-0.6-2.7-1.2-4.1-1.8c-0.8-0.3-1.4-0.6-1.9-1.2
		c-0.2-0.9-0.2-1.5,0.2-2.4c3.1-13.7,6.2-27.5,9.1-41.2c0-0.3,0.2-0.6,0.2-0.6c0.2-0.3,0.2-0.3,0.4-0.3C63.2,23,64,24.8,65,26
		c1.7,1.8,3.3,3.9,5,5.7c2.3,0,4.3-1.2,6.6-1.8C77,29.9,77.6,29.3,78.3,29.9z"/>
	<path class="st2" d="M28.3,52.9c0.2-1.5,0.8-2.1,1.7-2.1c2.5-0.6,5.2-0.9,7.6-1.5c0.8-0.3,1,0.3,1.2,0.9C39,51.1,39,52,39,52.6
		c0,6,0,11.6,0,17.3c0,3.3,0.4,6.6,0.2,10.2c0,0.3-0.2,0.6-0.2,0.6c-0.2,0.6-0.8,0.9-1.2,1.2c-4.7,2.1-9.5,3.9-14.5,6
		c-0.6,0.3-1,0.6-1.7,0c-0.4-0.9-0.2-1.8,0.2-2.7c0.4-1.8,0.6-3.6,1-5.1c1.7-8.1,3.3-16.1,4.7-24.2C27.7,54.7,28.1,53.8,28.3,52.9z"
		/>
	<path class="st3" d="M61.5,23c-0.8,5.1-2.3,10.5-3.3,15.2c-2.1,9.3-4.1,18.2-6,27.5C52,66.3,52,66.6,52,67.2
		c-0.8,0.9-1.9,2.1-3.1,2.1c-1-1.2-1.2-3-1.9-4.8c-1.7-5.1-3.3-10.5-5-15.2c0-0.6,0-0.9,0.2-1.2c1-0.3,2.1-0.3,3.1-0.6
		c0.2,0.3,0.2,0.3,0.2,0.3c0.2,0.6,0.2,1.2,0.4,1.8c0.8-0.9,1.7-1.8,2.5-2.7c0.8-0.6,1.7-0.6,2.5-0.9c3.9-0.6,3.3-0.3,3.1-5.4
		c-0.4-4.8-0.8-9.3-1.2-14c-0.2-0.9-0.2-1.8,0.2-2.4c2.3-1.8,5-1.8,7.4-2.1C61.1,22.1,61.3,22.7,61.5,23z"/>
	<path class="st4" d="M32.6,144c3.7-0.9,7.2-0.3,10.9,0c5.6,0.3,11.4,0.9,16.9,1.2c3.1,0.3,6.2,0.6,9.3,0.6c0.2,0.6,1-0.3,1.2,0.9
		c-5.4,0.6-10.5,0.9-15.9,1.5c-3.3,0.3-6.8,0.6-10.3,0.9c-3.1,0.3-6,0.9-9.1,0.9c-5.2,0.3-10.3-0.9-15.3-1.2
		c-2.7-0.3-5.4-0.6-8.3-0.9c-3.1-0.3-6-0.6-9.1-1.2c6-0.6,12-1.2,18-1.8c0.8,1.2,1.9,1.5,3.1,1.5c2.7,0,5.4,0,8.3,0
		c0.8,0,1.2,0,1.9,0.3C33.7,146.1,32.8,145.5,32.6,144z"/>
	<path class="st2" d="M68.1,74.4c0.6,3.6,1.2,7.5,1.9,11c0.4,0.9,0.4,1.8,0.2,3c-0.6,4.5-1,9.3-1.7,13.7c-0.2,0.9-0.2,1.8-0.8,2.4
		c-2.7-1.8-5-4.2-7.4-6c-0.4-0.6-1-0.9-1.7-1.2c-0.4,0-0.6-0.3-0.6-0.9c1-3.3,2.7-6.3,3.9-9.6c1.7-3.6,3.1-7.5,4.7-11
		C67.3,75.3,67.5,74.4,68.1,74.4z"/>
	<path class="st5" d="M53.3,24.5c0.4,6.3,1,12.5,1.7,18.8c0.2,2.7,0.2,2.7-1.7,3c-0.8,0.3-1.4,0.6-2.3,0c-1-1.5-0.8-3.3-1-5.1
		c-0.2-2.7-0.4-3-2.3-2.4c-1,0.3-2.1,0.9-3.1-0.3c0.8-6.6,1.7-13.4,2.5-20c0-0.3,0-0.9,0.2-0.9s0.2-0.3,0.2,0
		C49.8,19.7,51.8,21.5,53.3,24.5z"/>
	<path class="st2" d="M67.9,104.6c0.6-5.4,1.2-10.8,1.9-16.1c0.2-0.9,0.2-2.1,0.2-3c1.9,0.6,3.9,0.9,5.8,0.9
		c1.9-0.3,3.9-0.6,5.8,0.3c0.8,3,0.2,5.7-0.4,8.7c-1.7,1.8-3.3,2.4-5.2,3.6C73.5,101,70.6,102.8,67.9,104.6z"/>
	<path class="st6" d="M25.8,2.4C31.4,3,36.8,3.3,42.3,3.6c4.1,0.3,8.3,0.6,12.4,1.2c0.4,0.6,1.2-0.6,1.4,0.6C56,5.7,55.8,6,55.5,6
		c-6,2.1-12,4.5-18.2,6.3c-0.8,0.3-1.2,0.6-2.3,0.6c-1.2-0.3-2.3-1.8-3.1-3c-1.9-2.1-3.5-3.9-5.2-5.7C26.4,3.9,25.8,3.6,25.8,2.4z"
		/>
	<path class="st7" d="M6.6,38c3.9-8.4,8.1-16.7,12-24.8c1.2-3,2.7-5.4,3.9-8.1c0.6,0,0.6,0.9,0.6,1.5c0,4.5,0.2,9.3,0,13.7
		c0,1.2-0.4,1.5-1,2.4c-4.7,5.1-9.5,10.2-14,14.9c-0.4,0.3-0.8,0.9-1.2,0.9C6.6,38.6,6.6,38.3,6.6,38z"/>
	<path class="st8" d="M42.5,48.1c0,0.3,0,0.9,0,1.2c0.2,0.3,0.2,0.9,0.2,1.2c0.2,0.9,0.2,2.1,0.4,3c0.2,7.5,0.8,14.6,1,22.1
		c0,0.9-0.2,1.2-0.8,1.8c-1,0.9-2.3,2.1-3.5,3c-0.4,0.3-0.8,0.6-1,0c-0.4-9.6-0.2-19.4-0.4-29.3c0-0.9,0.2-2.1-0.8-2.1
		c0.2-0.3,0.6-0.3,0.8-0.3c0.8-0.6,1.9-1.2,2.7-0.3C41.7,48.4,42.1,48.1,42.5,48.1z"/>
	<path class="st7" d="M34.9,12.3c3.3-0.6,6.2-2.1,9.5-3.3c3.3-1.2,6.6-2.4,10.1-3.6c0.4-0.3,0.8-0.3,1,0.3
		c-5.4,5.4-10.5,11-15.9,16.4c-0.6,0.6-1-0.3-1.2-0.6c-1.2-2.1-2.7-3.9-4.1-6c-0.6-0.6-1-0.9-0.8-1.8C33.7,12.9,34.3,12.6,34.9,12.3
		z"/>
	<path class="st2" d="M6.6,38c1.2,0,1.9-1.2,2.7-2.1c4.5-4.8,9.1-9.6,13.6-14.6c0.6-1.2,1.2-2.1,2.5-1.5c0.8,3.6,1.2,7.5,1.2,11.3
		c-4.7,2.1-9.5,3.9-14.2,5.7c-2.1,0.9-4.1,1.5-6.2,2.4C6,38.6,6.4,38.3,6.6,38z"/>
	<path class="st2" d="M103.4,66.3c0,1.8,0,3.6,0,5.1c-0.6,0.6-1.2,0.6-1.9,0.6c-7.2,0-14.7,0-21.9,0c-0.8,0-1.2,0-1.9-0.6
		c0-1.8,0-3.6,0-5.1c0.4-0.6,1-0.6,1.9-0.6c7.2,0,14.7,0,21.9,0C102.2,65.7,102.8,65.7,103.4,66.3z"/>
	<path class="st2" d="M25.2,19.7c-0.8,0.6-1.7,1.2-2.3,1.8c0-4.8,0-9.6,0-14.3c0-0.6,0.2-1.5-0.2-2.1c0.2-0.3,0.2-0.9,0.4-1.2
		C24,3,24.8,2.4,25.8,2.7c0.2,0,0.2,0,0.2,0c3.1,3.3,6.2,6.6,9.3,10.2c-0.4,0.3-1,0.9-1.4,1.2c-1,0.9-2.5,1.5-3.3,2.4
		c-0.8,0.9-1.9,1.2-2.9,2.1C26.6,18.8,26,20,25.2,19.7z"/>
	<path class="st9" d="M52.9,125.2c-3.3,1.2-6.4,3-9.7,4.8c-1,0.6-1.7,0.3-2.5-0.9c-3.1-4.8-6-9.6-9.1-14.3c-0.8-1.2-0.8-2.1-0.2-3.3
		c0.4-0.9,0.8-2.1,1.2-3c0.6,0.3,0.8,0.9,1,1.5c1.4,3.6,2.7,7.5,4.1,11c0.8,2.1,0.8,2.1,2.3,0.9c0.4-0.3,1-0.9,1.7-0.9
		c0.2,0.3,0.2,0.6,0.2,0.6c0,0.6,0.2,0.9,0.2,1.2c0.6,1.8,0.8,1.8,1.9,0.9c3.1-2.4,6-4.8,9.1-7.2c0.4-0.3,0.8-0.9,1.4-0.6
		C54.1,119.5,53.7,122.5,52.9,125.2z"/>
	<path class="st7" d="M77.8,71.7c8.7,0,17.1,0,25.8,0c0,1.8,0,3.3,0,4.8c-0.6,0.6-1.2,0.6-1.9,0.6c-7.2,0-14.7,0-21.9,0
		c-0.8,0-1.2,0-1.9-0.6C77.8,74.7,77.8,73.2,77.8,71.7z"/>
	<path class="st6" d="M103.4,66.3c-8.7,0-17.1,0-25.8,0c0-2.1,0-3.9,0-6c0.6-0.3,1,0.6,1.2,0.9c1.2,1.5,1.2,1.5,2.3,0
		c0.4-0.6,0.8-0.9,1.2-1.2c0.2,0,0.2,0,0.2,0c1,0.3,1.4,2.4,2.5,2.4s1.2-2.1,2.5-2.4c0.2,0,0.2,0,0.2,0c1,0.3,1.4,2.4,2.5,2.4
		s1.2-2.1,2.5-2.4c0.2,0,0.2,0,0.2,0c1,0.3,1.4,2.4,2.5,2.4s1.2-2.1,2.5-2.4c0.2,0,0.2,0,0.2,0c1,0.3,1.4,2.4,2.5,2.4
		s1.2-2.1,2.5-2.1C103.4,62.4,103.4,64.5,103.4,66.3z"/>
	<path class="st10" d="M69.6,32c-2.7-3-5.2-6.3-7.8-9.3c-2.1-1.5-3.7-3.9-5.2-6.3c-0.2-0.3-0.2-0.6,0-0.6c3.3-0.6,6.8-0.9,10.1-1.5
		c0.2,0,0.2,0.3,0.4,0.3c0.4,0.9,0.8,2.1,1,3.3c0.6,3.9,1.2,7.8,1.9,11.9C70,30.5,70.6,31.7,69.6,32z"/>
	<path class="st6" d="M17.6,108.7c-0.8,4.2-1.7,8.4-2.3,12.5c-0.2,0.6-0.2,1.2-0.2,1.8c-0.4,0.3-0.6,0.3-0.8-0.3
		c-1.7-5.4-3.7-10.8-5.6-16.1c-0.2-0.3-0.4-0.6-0.4-0.9c2.9-0.9,5.8-2.1,8.7-3.3c1,1.2,0.8,3.3,0.8,5.1
		C17.8,108.1,17.4,108.4,17.6,108.7z"/>
	<path class="st10" d="M54.7,116.5c-3.3,2.4-6.8,5.1-10.1,7.8c-1.9,1.5-2.7,1.2-2.9-2.4c1.7,0.6,2.9-0.9,4.1-1.8
		c4.5-3.6,9.1-7.2,13.6-10.8c0.4-0.3,1.2-0.6,1-1.8c-1.7-4.5-3.7-8.7-5.4-12.8c-0.6-1.5-1.7-1.8-2.5-2.4c-0.4-0.6-1-1.5-0.8-2.7
		c2.9-0.3,6,3,6.4,7.2c0,0.3,0.2,0.6,0.4,0.6c1,3.6,2.7,6.6,4.1,9.9c0.8,1.8,0.4,2.4-0.8,3.3C59.7,112.3,57.2,114.4,54.7,116.5z"/>
	<path class="st11" d="M32.6,144c0.8,0.9,1.2,1.8,2.3,3c-1.7,0-3.1,0-4.5,0c-2.5,0-5-0.3-7.4,0c-1.2,0-1.9-0.3-2.1-2.1
		c-0.4-2.7-0.6-5.4-1-8.1c0.2-0.3,0.4-0.3,0.4-0.3c2.7,0.6,5.4,0.9,7.6,3.3C29.7,141,31.2,142.5,32.6,144z"/>
	<path class="st2" d="M28.3,52.9c-0.4,3.9-1.2,7.5-1.9,10.8c-1.2,5.7-2.3,11-3.3,16.4c-1.7,0.6-2.7-1.2-3.9-1.5
		C18.6,78.3,18,78,18,76.8c3.1-7.5,6.2-14.6,9.5-22.1C27.7,54.1,27.7,53.2,28.3,52.9z"/>
	<path class="st6" d="M20.7,136.8c-0.2,0-0.2,0-0.4,0c-0.6-3.3-0.8-6.6-1.2-10.2c-0.2-1.2,0.2-1.5,1.2-1.2c4.5,2.1,9.3,3.9,13.8,6
		c-0.2,0.3-0.2,0.3-0.2,0.3c-3.1,1.8-6.6,2.4-9.7,3.6C22.9,136.2,21.7,136.2,20.7,136.8z"/>
	<path class="st6" d="M81.6,86.9c-1.9-0.3-3.9,0.3-5.8-0.3c-0.4-2.4,0.8-2.4,1.9-2.4c0.6-0.6,1.2-0.6,1.9-0.6c7.4,0,14.7,0,21.9,0
		c0.8,0,1.2,0,1.9,0.6c0.4,0,0.8,0.3,1,0.3c0.8-0.3,1,0.3,1,1.2c0,1.2-0.4,1.2-1,1.2c-3.7,0-7.4,0-11.1,0c-0.6,0-1.2,0.3-1.9,0.3
		c-0.8,0.6-1.4,0.6-2.3,0.6c-1.9,0-3.9,0-5.8,0C82.8,87.5,82,87.5,81.6,86.9z"/>
	<path class="st9" d="M69.6,32c0.4-2.1-0.4-3.9-0.8-6c-0.4-3.6-1.2-7.5-1.9-11c3.7,4.8,7.4,9.6,10.9,14.3c0.2,0.3,0.2,0.6,0.2,0.9
		c-2.5,0.6-5,1.5-7.4,2.1C70.4,32.3,70,32.9,69.6,32z"/>
	<path class="st6" d="M17.6,108.7c-0.8-2.1-0.4-4.2-0.8-6c-0.4-4.8-0.8-9.3-1.2-13.7c-0.2-1.8-0.2-3.3-0.4-5.1
		c0.8-0.6,1.7,0.6,2.3,0.9c1.4,0.9,2.9,1.5,4.1,3c0.2,0.3,0.2,0.6,0,0.9C20.2,95,18.8,101.9,17.6,108.7z"/>
	<path class="st11" d="M8.1,106.1c0.2,0.3,0.4,0.3,0.6,0.6c0,3.9-0.6,7.8-1,11.3c-0.2,0.6-0.4,0.9-0.8,1.5c-1.2,1.5-2.7,3-4.3,4.8
		c0-1.5,0-2.7,0-3.9c0-3.6,0-7.5,0-11c0-0.9,0.2-1.5,0.8-1.8C5,107.2,6.6,106.6,8.1,106.1z"/>
	<path class="st2" d="M77.6,76.5c8.7,0,17.1,0,25.8,0c0,0.9,0,1.8,0,3c-0.6,0.6-1.2,0.6-1.9,0.6c-7.2,0-14.7,0-21.9,0
		c-0.8,0-1.2,0-1.9-0.6C77.6,78.3,77.6,77.4,77.6,76.5z"/>
	<path class="st11" d="M41.3,48.4c-1,0-1.9,0.6-2.7,0.3c-2.3-6.3-4.5-12.8-6.6-19.4c-0.2-0.6-0.4-0.9-0.8-0.9
		c-0.2-0.9-0.6-1.8-0.4-3c0.8-0.9,1-2.1,2.3-2.4c0.4,0.9,1,1.8,0.8,3.3C36.3,33.8,38.8,41.2,41.3,48.4z"/>
	<path class="st12" d="M56.6,15.9c1.4,2.7,3.5,4.5,5.2,6.9c-0.2,0-0.2,0-0.2,0c-2.7,0.3-5.6,1.2-8.5,1.5c-1.9-2.4-3.7-4.5-5.4-6.9
		C50.6,16.8,53.7,16.2,56.6,15.9z"/>
	<path class="st6" d="M77.6,79.2c8.7,0,17.1,0,25.8,0c0,0.9,0,1.8,0,2.4c-0.6,0.6-1.2,0.6-1.9,0.6c-7.2,0-14.7,0-21.9,0
		c-0.8,0-1.2,0-1.9-0.6C77.8,80.7,77.6,80.1,77.6,79.2z"/>
	<path class="st2" d="M77.8,81.6c8.7,0,17.1,0,25.8,0c0,0.9,0,1.5,0,2.4c-8.7,0-17.1,0-25.8,0C77.6,83.1,77.6,82.5,77.8,81.6z"/>
	<path class="st8" d="M68.1,74.4c-1.4,2.1-2.3,4.8-3.3,7.5c-0.8,1.8-1.7,3.6-2.5,5.4c-1.7-0.9-2.5-3.3-3.1-5.1
		c0.2-1.8,1-2.7,1.7-4.2c0.8-2.1,1.9-3.9,2.7-6c1.7,0.6,3.1,1.5,4.7,1.8C68.1,74.1,68.1,74.4,68.1,74.4z"/>
	<path class="st6" d="M33.9,26.3c-0.4-0.9-0.8-2.1-1.2-3.3c-1-1.8-1.7-4.2-2.5-6.3c-0.2-0.3,0-0.6,0.2-0.9c1-0.9,2.1-1.5,3.1-2.1
		c0,0.9,0.6,1.2,1,2.1c1.2,2.1,2.7,3.6,3.9,6c0.2,0.6,0.6,0.9,1,0.9C37.8,24.2,35.7,25.1,33.9,26.3z"/>
	<path class="st6" d="M6.8,119.2c0.8-3.9,0.8-7.8,1.4-11.9c0-0.3,0-0.9,0.4-0.9c2.1,4.8,3.7,10.2,5.4,14.9c0.2,0.3,0.4,0.9,0,1.2
		C11.6,121.9,9.5,120.1,6.8,119.2z"/>
	<path class="st0" d="M21.5,87.5c-2.1-1.2-4.1-2.7-6.2-3.9c0.8-2.4,1.9-4.5,2.7-6.9c1.7,1.8,3.5,2.1,5.4,3.3c-0.4,2.4-1,5.1-1.4,7.5
		C21.7,87.8,21.5,87.8,21.5,87.5z"/>
	<path class="st6" d="M30.6,25.7c0,0.9,0.8,1.8,0.2,3c-1.2,0.9-2.7,1.8-4.1,2.7c-0.4-3.9-1-7.8-1.4-11.6c0.8-0.6,1.7-0.9,2.3-1.8
		c0.4-0.6,0.8,0.3,1,0.6C29.3,20.9,30.2,23,30.6,25.7z"/>
	<path class="st13" d="M81.6,86.9c3.3-0.3,6.6-0.3,9.9,0c-2.5,2.7-5.4,4.8-8.1,7.2c-0.6,0.6-1.2,1.2-2.1,1.5
		C81.1,92.6,81.8,89.6,81.6,86.9z"/>
	<path class="st1" d="M44.8,38.9c1.4,0,2.9-0.6,4.3-0.6c0.8-0.3,1,0,1.2,1.2c0.2,2.4,0.4,4.8,0.6,7.2c-0.6,0.9-1.4,0.6-2.1,0.9
		c-1,0.3-2.1,0.6-3.1,0.3v-0.3C45.2,44.5,45,41.5,44.8,38.9z"/>
	<path class="st6" d="M20.7,136.8c0.4-1.2,1.2-0.9,1.9-1.2c3.3-1.2,6.8-2.4,10.1-3.3c0.4-0.3,0.8-0.3,1-0.3c-1.7,2.1-3.1,3.9-4.5,6
		c-0.4,0.6-1,0.6-0.8,1.8C25.8,138.3,23.1,137.4,20.7,136.8z"/>
	<path class="st7" d="M101.4,49.6c0.6,1.8,0.2,3.6,0.2,5.1c0.2,1.8,0,3.6,0,5.4c-0.4,0.6-1,0.6-1.4,0c0-3,0-6,0-8.7
		c0-0.6-0.2-1.2,0.2-1.8C101,49.3,101.2,49.3,101.4,49.6z"/>
	<path class="st7" d="M84.7,60.1c0-3,0-6,0-8.7c0-0.6-0.2-1.2,0.2-1.8c0.4-0.3,0.6-0.3,1,0c0.6,1.5,0.2,3.3,0.2,4.8
		c0.2,1.8,0,3.9,0,5.7C85.7,60.7,85.3,60.7,84.7,60.1z"/>
	<path class="st7" d="M79.3,60.1c0-3,0-6,0-8.7c0-0.6-0.2-1.2,0.2-1.8c0.4-0.3,0.6-0.3,1,0c0.6,1.2,0.2,3,0.2,4.5
		c0.2,2.1,0,3.9,0,6.3C80.5,60.7,79.9,60.7,79.3,60.1z"/>
	<path class="st2" d="M87.8,56.2c0.4-1.8,1.7-2.4,2.5-3.9c0.2-0.3,0.4-0.3,0.6,0c0.8,1.2,1.9,2.1,2.5,3.9
		C91.7,57.1,89.6,57.1,87.8,56.2z"/>
	<path class="st2" d="M98.3,60.1c-2.5,3.9-2.5,3.9-5,0c0.6,0,1,0,1.7-0.3c0.8-0.6,0.8-1.8,0.8-2.7c0-1.8,0-3.6,0-5.4
		c0-0.9-0.2-1.8,0.4-2.4c0.4,2.4,0.2,5.1,0.2,7.8C96.4,59.2,96.6,60.4,98.3,60.1z"/>
	<path class="st7" d="M96.2,49.6c0,3-0.2,6,0,8.7c0,1.2-0.4,1.8-1.2,1.8c0-3,0-6,0-8.7c0-0.6-0.2-1.2,0.2-1.8
		C95.6,49.3,96,49.3,96.2,49.6L96.2,49.6z"/>
	<path class="st7" d="M87.8,56.2c1.9,0,3.7,0,5.6,0c-0.8,1.2-1.7,2.7-2.5,3.9c-0.2,0.3-0.2,0.3-0.4,0C89.6,58.6,88.6,57.4,87.8,56.2
		z"/>
	<path class="st2" d="M79.3,60.1c0.4,0,1,0,1.4,0c0.6,0,1.2,0,1.7,0c-0.8,1.2-1.4,3-2.5,3.3c-0.8,0-1.7-1.8-2.5-3
		C78.3,59.5,78.9,60.4,79.3,60.1z"/>
	<path class="st2" d="M84.7,60.1c0.4,0,1,0,1.4,0c0.6,0,1.2,0,1.7,0c-2.5,3.9-2.5,3.9-5,0C83.4,60.1,84,60.1,84.7,60.1z"/>
	<path class="st2" d="M90.4,60.1c0.2,0,0.2,0,0.4,0c0.8,0,1.4,0,2.3,0.3c-2.5,3.9-2.5,3.9-5,0C89,60.1,89.6,60.1,90.4,60.1z"/>
	<path class="st2" d="M100.3,60.1c0.4,0,1,0,1.4,0c0.6,0.3,1.2-0.3,1.7,0.3c-0.2,0-0.2,0.3-0.2,0.3c-0.8,0.9-1.4,3-2.3,2.7
		c-1-0.3-1.7-2.1-2.5-3.3C99.1,60.1,99.7,60.1,100.3,60.1z"/>
	<path class="st11" d="M25.6,2.4c-1,0.6-1.9,1.2-2.7,1.2c-0.8-2.1-0.6-3.3,1.2-3.6C25.2-0.3,25,1.5,25.6,2.4z"/>
	<path class="st14" d="M80.5,49.6c-0.4,0-0.6,0-1,0c-0.6-1.8-0.6-1.8,0.6-4.2C80.9,46.6,81.8,47.8,80.5,49.6z"/>
	<path class="st15" d="M85.9,49.6c-0.4,0-0.6,0-1,0c-1-1.5-0.4-3,0.4-4.2C86.1,46.6,86.9,47.8,85.9,49.6z"/>
	<path class="st16" d="M96.2,49.6c-0.4,0-0.6,0-1,0c-1-1.8-0.4-3,0.4-3.9C96.4,46.6,97.3,47.8,96.2,49.6z"/>
	<path class="st16" d="M101.4,49.6c-0.4,0-0.6,0-1,0c-1-1.5-0.4-3,0.4-4.2C101.8,46.6,102.4,47.8,101.4,49.6z"/>
	<path class="st17" d="M71,146.7c-0.2-0.6-0.8-0.3-1.2-0.9c0.8,0.3,1.9-0.3,2.9,0.9C72.1,146.7,71.4,146.7,71,146.7z"/>
	<path class="st18" d="M56.2,5.7c-0.4-0.6-1,0-1.4-0.6c0.4,0,1,0,1.2,0C56.4,5.1,56.2,5.4,56.2,5.7z"/>
	<path class="st10" d="M52,89.6c0,0.9,0.6,1.8,0.8,2.4c0.2,0,0.2,0.3,0.2,0.3c2.3,4.8,4.5,9.6,6.2,14.6c0,0.3,0,0.3,0,0.3
		c-0.8,1.8-2.3,2.4-3.5,3.3c-4.1,3.3-8.5,6.6-12.6,9.9c-0.4,0.3-1,0.9-1.7,0.9c-3.1,2.7-3.1,2.7-4.5-1.8c-1.2-3.6-2.7-7.5-4.1-11
		c-0.8-3-0.8-3,1.2-4.8c0.4-0.3,0.8-0.6,1.2-0.9c0.8-0.3,1.2,0.6,1.7,1.2c1.4,2.7,3.1,3.3,5.4,2.1c0.8-0.6,1.9-0.3,2.7-0.9
		c1.2-1.8,1.2-4.2,1.7-6.3c-0.2-1.8-1.7-2.4-1.7-4.2c0.4-0.9,1.2-1.2,1.7-2.1c1.2-0.9,2.7-2.4,4.1-3.3C51.2,89.3,51.6,88.4,52,89.6z
		"/>
	<path class="st2" d="M21.5,87.5c0.2,0,0.2,0,0.4,0c3.7-1.5,7.6-3,11.4-4.5c1.9-0.6,3.7-1.5,5.6-2.4c0.4,0,0.4,0.3,0.8,0.6
		c1.2,3,2.5,5.4,3.5,8.4c0.2,0.3,0.2,0.6,0,0.9c-2.1,2.1-4.1,3.9-6.6,5.1c-1.7-0.3-3.3-1.5-4.7-2.4c-3.1-1.8-6.2-3-9.1-5.1
		c-0.2-0.3-0.6-0.3-0.8,0C21.5,88.1,21.5,87.8,21.5,87.5z"/>
	<path class="st19" d="M22.3,88.4c3.1,0.9,5.6,3,8.7,4.5c1.9,0.9,3.7,2.1,5.6,3c1,1.2,1.4,3,1.4,4.8c-0.8,1.2-1.4,2.4-2.7,2.1
		c-2.7-2.4-5.2-5.4-7.8-8.4C25.6,92.3,24,90.2,22.3,88.4z"/>
	<path class="st10" d="M35.3,102.5c1-0.3,1.7-1.2,2.5-2.1c0.8,0.3,0.8,1.2,1,2.1s0.4,1.5,1,2.1c1.2,0.3,2.7,0.3,3.9,0.6
		c0.4,0,1-0.3,1.2,0.9c-1.9,0.6-3.7,1.2-5.4,1.8c-0.6,0.3-1-0.3-1.2-0.9c-1-1.2-1.9-3-3.1-3.9C35.3,102.8,35.3,102.5,35.3,102.5z"/>
	<path class="st2" d="M63.6,72c0.2,0.9-0.2,1.5-0.6,2.1c-1.2,2.4-2.3,5.1-3.5,7.8c-0.2,0.3-0.2,0.3-0.4,0.3c-2.3-0.9-4.7-1.2-7-2.7
		c-0.2-0.3-0.2-0.3,0-0.6c1.7-2.4,2.9-5.4,4.5-7.8c0.4-0.6,0.6-1.2,1.2-1.2C59.7,70.5,61.5,71.4,63.6,72z"/>
	<path class="st20" d="M57.8,69.9c-1.4,2.7-3.1,5.4-4.5,8.1c-0.2,0.6-0.4,1.2-1,1.2C51,77.4,50.6,75,50,72.9c-0.4-1.2-1-2.1-0.8-3.6
		c1-0.6,1.7-1.8,2.9-2.1C53.9,68.1,55.8,69,57.8,69.9z"/>
	<path class="st21" d="M57.8,53.8c3.9,1.8,7.6,3.3,11.6,5.1c0,0.3,0,0.3,0,0.3c-1.9,0.6-3.7,1.2-5.6,2.1c-0.4,0.3-0.6,0-1-0.3
		c-1.7-2.1-3.5-4.5-5.2-6.6C57.8,54.1,57.8,54.1,57.8,53.8z"/>
	<path class="st3" d="M66.5,38.9c-0.8,3.6-1.7,7.2-2.5,10.8c-0.2,0-0.2,0-0.2,0c0-2.1,0-3.9,0-6c-0.2-0.9,0-2.1-0.8-3
		c-0.2-0.9-0.8-1.2-1.2-1.8C63.4,38,64.8,38,66.5,38.9z"/>
	<path class="st22" d="M73.9,42.4c0,0.9-0.4,0.9-0.8,0.9s-1-0.3-1.4,0.6c-0.8,0.3-1,1.8-1.4,2.4c-0.8,0-1,1.5-2.1,1.8
		c0.6-3,1.2-5.4,1.9-8.1C71.2,40.9,72.5,41.8,73.9,42.4z"/>
	<path class="st23" d="M66.5,38.9c-1.7,0-3.1,0-4.5,0c-0.2-1.5,0.4-2.1,1.4-2.1c0.8,0.3,1.7,0.3,2.3,0.3
		C66.7,37.1,67.1,37.4,66.5,38.9z"/>
	<path class="st24" d="M73.9,42.4c-0.2,0.6-0.4,0.6-0.8,0.3c-1-1.2-2.7-0.9-3.3-3c0.2-0.6,0.2-0.9,0.6-0.9c1,0.6,2.3,1.2,3.3,2.1
		C74.3,41.2,73.9,41.8,73.9,42.4z"/>
	<path class="st25" d="M63,40.4c1.9,0.3,1,1.8,0.8,3c-0.4,0.3-0.8,0.6-1.2,0C62.2,42.4,62.6,41.2,63,40.4z"/>
	<path class="st26" d="M70.2,46c0-1.2-0.2-3,1.4-2.4c0.2,0.9,0.4,1.8,0,2.4C71,46.9,70.6,46.9,70.2,46z"/>
	<path class="st27" d="M64,52c1-0.3,1.7,0.6,2.7,0.9C64.8,54.4,64.6,54.4,64,52z"/>
	<path class="st0" d="M52,79.2c2.5,1.2,5,1.8,7.4,2.7c0.8,1.8,1.7,3.9,2.9,5.4c-1.2,3.3-2.7,6.3-3.9,9.6c-0.2-0.3-0.2-0.3-0.2-0.6
		c-1-3.9-3.3-5.7-6.2-6.6c-0.6-0.6-1,0.3-1.2,0.6c-1.2,0.9-2.5,2.1-3.9,3c-1.2-0.6-2.5-1.2-3.7-2.1C43,90.8,43,90.8,43,90.8
		c-1-3.6-2.7-6.6-4.1-9.9c0-0.3,0-0.3,0-0.6c1.9-1.2,3.5-2.4,5-4.5c2.5,0.6,5.2,1.8,7.6,2.7C51.6,78.6,51.8,78.9,52,79.2z"/>
	<path class="st2" d="M52,79.2c-2.5-0.9-5.2-1.8-7.4-2.4c-0.4-0.3-0.6-0.6-0.8-0.6c-0.4-7.5-0.6-15.2-1-22.7c-0.2-0.9,0-2.1-0.2-3
		c0-0.3,0-0.9,0-1.2c1.9,4.5,3.1,9.3,4.5,13.7c0.8,2.1,1.2,3.9,2.1,6.3C50.2,72.6,51.2,76.2,52,79.2C52.2,79.2,52,79.2,52,79.2z"/>
	<path class="st28" d="M45.6,47.8c1-0.3,2.1-0.6,3.1-0.6c-0.6,1.5-1.9,2.1-2.7,3.6C45.6,49.6,45.6,48.7,45.6,47.8z"/>
	<path class="st29" d="M42.5,50.5c0.4,0.9,0.2,1.8,0.2,3C42.3,52.3,42.5,51.4,42.5,50.5z"/>
	<path class="st11" d="M30.6,25.7c-1-1.8-1.2-4.2-2.3-6c-0.2-0.9-0.2-1.8-0.8-1.8c1-0.6,1.9-1.2,2.9-2.1c0.4,2.4,1.9,4.5,2.3,7.2
		C32,23.9,31.4,24.8,30.6,25.7z"/>
	<path class="st30" d="M41.5,121.3c5.6-4.5,10.9-8.7,16.5-12.8c0.4-0.3,0.8-0.6,1.2-1.2c0.6-0.3,1,0.3,1.7,0.3
		c0.8,1.2-0.2,1.5-0.6,1.8c-4.1,3.3-8.3,6.3-12.4,9.6c-1.2,0.9-2.5,1.8-3.7,3c-1,0.9-1.9,0.9-2.7,0.3
		C41.5,121.6,41.5,121.6,41.5,121.3z"/>
	<path class="st31" d="M61.1,107.5c-0.8,0.9-1.2-0.3-1.7-0.3c-2.3-5.1-4.1-10.2-6.4-15.2c1.2,0.3,2.3,1.2,2.9,3
		C57.6,99.2,59.3,103.4,61.1,107.5z"/>
	<path class="st32" d="M46.7,40.9c2.3-1.2,2.5-0.6,2.3,3C48.1,43,47.3,42.1,46.7,40.9z"/>
	<path class="st1" d="M42.7,90.8c0.2,0,0.2,0,0.4,0c1,0.9,1.7,2.4,2.1,3.9c0.6,1.2,1.4,2.4,1.9,3.9c-2.1,2.7-4.5,4.2-7,6
		c-0.2,0.3-0.4,0.3-0.8,0c-0.4-1.5-1-3-1.7-4.5c-0.4-1.8-0.8-3.3-1.2-4.8C38.6,94.1,40.7,92.6,42.7,90.8z"/>
	<path class="st20" d="M39.4,104.9c2.5-2.1,5.2-3.9,7.6-6c-0.4,1.8-0.8,3.9-1.2,5.7c-0.2,0.6-0.2,1.2-0.8,1.2
		C43.2,105.5,41.3,105.5,39.4,104.9z"/>
	<path class="st33" d="M45,94.7c-0.8-1.2-1.2-2.7-2.1-3.9c1.2,0.9,2.7,0.6,3.7,2.4C46.3,93.5,45.6,94.4,45,94.7z"/>
	<path class="st34" d="M66.9,58.9c-3.7,2.1-3.7,2.1-6.4-2.7C62.8,56.8,64.6,58,66.9,58.9z"/>
</g>
</svg>
