<?xml version="1.0" encoding="utf-8"?>
<!-- Generator: Adobe Illustrator 23.1.0, SVG Export Plug-In . SVG Version: 6.00 Build 0)  -->
<svg version="1.1" id="Capa_1" xmlns="http://www.w3.org/2000/svg" xmlns:xlink="http://www.w3.org/1999/xlink" x="0px" y="0px"
	 viewBox="0 0 50 50" style="enable-background:new 0 0 50 50;" xml:space="preserve">
<style type="text/css">
	.st0{fill:#C3C3C3;}
	.st1{fill:#FEDAC6;}
	.st2{fill:#95637C;}
	.st3{fill:#ECBFA7;}
	.st4{fill:#E4E4E4;}
	.st5{fill:#2B2B2B;}
	.st6{fill:#543042;}
	.st7{fill:#734C5F;}
	.st8{fill:#E2E2E2;}
	.st9{fill:#8E8E8E;}
	.st10{fill:#474747;}
	.st11{fill:#3C3C3C;}
	.st12{fill:#737373;}
	.st13{fill:#ECBFA8;}
	.st14{fill:#E4C937;}
	.st15{fill:#E3C936;}
	.st16{fill:#E4C936;}
	.st17{fill:#EAEAEA;}
	.st18{fill:#65A9BA;}
	.st19{fill:#8E8F8F;}
	.st20{fill:#C3937D;}
	.st21{fill:#C5947F;}
	.st22{fill:#EABEA6;}
	.st23{fill:#4D4C4B;}
	.st24{fill:#4C4B4A;}
	.st25{fill:#0D0B0A;}
	.st26{fill:#0E0C0B;}
	.st27{fill:#C79782;}
	.st28{fill:#C6957F;}
	.st29{fill:#69AEAD;}
	.st30{fill:#C2C3C3;}
	.st31{fill:#E0E1E1;}
	.st32{fill:#C79781;}
	.st33{fill:#E9BFA9;}
	.st34{fill:#FCFBFA;}
</style>
<g>
	<path class="st0" d="M24.4,41.9c-0.2,1.4-0.8,2.8-1.1,4.2c-0.1,0.4-0.4,0.2-0.6,0.2c-2.1-0.6-4.2-1.2-6.3-1.8
		c-0.4-0.1-0.8-0.2-1.1-0.3c-0.4,0.2-0.6,0-0.9-0.1c-1.8-0.5-3.6-1.1-5.4-1.6c-0.4-0.1-0.6-0.2-0.9,0.1c-0.1-0.6-0.5-0.8-1-0.8
		c-0.3-0.1-0.7-0.1-0.9-0.4c-0.2-0.3-0.1-0.6,0-0.9c0.4-1.3,0.7-2.6,1.1-3.9c0.5-2,1.1-4,1.6-6c0.1-0.3,0.1-0.5,0.2-0.8
		c0.1-0.2,0.3-0.3,0.6-0.2c2.2,1.6,4.3,3.1,6.3,4.8c0,0.1,0,0.1,0,0.2c-0.2,0.3-0.6,0.4-0.9,0.6c-0.4,0.2-0.6,0.4-0.4,0.9
		c0.1,0.1,0.1,0.2,0.1,0.4c-0.1,0.4-0.4,0.7-0.6,1.1s-0.2,0.6,0.1,0.9c1.5,1.6,2.9,3.2,4.4,4.8c0.3,0.3,0.6,0.4,1.1,0.2
		c1.2-0.4,2.3-0.8,3.5-1.2C23.6,42,23.9,41.6,24.4,41.9z"/>
	<path class="st1" d="M36.7,10c-0.5,1.8-1.1,3.6-1.8,5.3c-1,3-2,5.9-3,8.9c-0.1,0.2-0.1,0.3-0.1,0.5c-0.3,0.2-0.6,0.1-0.9-0.1
		c-0.5-0.1-0.9-0.2-1.4-0.4c-0.9-0.2-1.8-0.5-2.7-0.7c-0.6-0.2-1.3-0.4-2-0.6c-0.4-0.1-0.7-0.2-0.9-0.4c-0.1-0.3-0.1-0.5,0.1-0.8
		c1.5-4.6,3-9.2,4.4-13.8c0-0.1,0.1-0.2,0.1-0.2c0.1-0.1,0.1-0.1,0.2-0.1c0.7,0.1,1.1,0.7,1.6,1.1c0.8,0.6,1.6,1.3,2.4,1.9
		c1.1,0,2.1-0.4,3.2-0.6C36.1,10,36.4,9.8,36.7,10z"/>
	<path class="st2" d="M12.5,17.7c0.1-0.5,0.4-0.7,0.8-0.7c1.2-0.2,2.5-0.3,3.7-0.5c0.4-0.1,0.5,0.1,0.6,0.3c0.1,0.3,0.1,0.6,0.1,0.8
		c0,2,0,3.9,0,5.8c0,1.1,0.2,2.2,0.1,3.4c0,0.1-0.1,0.2-0.1,0.2c-0.1,0.2-0.4,0.3-0.6,0.4c-2.3,0.7-4.6,1.3-7,2
		c-0.3,0.1-0.5,0.2-0.8,0c-0.2-0.3-0.1-0.6,0.1-0.9c0.2-0.6,0.3-1.2,0.5-1.7c0.8-2.7,1.6-5.4,2.3-8.1C12.2,18.3,12.4,18,12.5,17.7z"
		/>
	<path class="st3" d="M28.6,7.7c-0.4,1.7-1.1,3.5-1.6,5.1c-1,3.1-2,6.1-2.9,9.2c-0.1,0.2-0.1,0.3-0.1,0.5c-0.4,0.3-0.9,0.7-1.5,0.7
		c-0.5-0.4-0.6-1-0.9-1.6c-0.8-1.7-1.6-3.5-2.4-5.1c0-0.2,0-0.3,0.1-0.4c0.5-0.1,1-0.1,1.5-0.2c0.1,0.1,0.1,0.1,0.1,0.1
		c0.1,0.2,0.1,0.4,0.2,0.6c0.4-0.3,0.8-0.6,1.2-0.9c0.4-0.2,0.8-0.2,1.2-0.3c1.9-0.2,1.6-0.1,1.5-1.8c-0.2-1.6-0.4-3.1-0.6-4.7
		c-0.1-0.3-0.1-0.6,0.1-0.8c1.1-0.6,2.4-0.6,3.6-0.7C28.4,7.4,28.5,7.6,28.6,7.7z"/>
	<path class="st4" d="M14.6,48.2c1.8-0.3,3.5-0.1,5.3,0c2.7,0.1,5.5,0.3,8.2,0.4c1.5,0.1,3,0.2,4.5,0.2c0.1,0.2,0.5-0.1,0.6,0.3
		c-2.6,0.2-5.1,0.3-7.7,0.5c-1.6,0.1-3.3,0.2-5,0.3c-1.5,0.1-2.9,0.3-4.4,0.3c-2.5,0.1-5-0.3-7.4-0.4c-1.3-0.1-2.6-0.2-4-0.3
		c-1.5-0.1-2.9-0.2-4.4-0.4c2.9-0.2,5.8-0.4,8.7-0.6c0.4,0.4,0.9,0.5,1.5,0.5c1.3,0,2.6,0,4,0c0.4,0,0.6,0,0.9,0.1
		C15.1,48.9,14.7,48.7,14.6,48.2z"/>
	<path class="st2" d="M31.8,24.9c0.3,1.2,0.6,2.5,0.9,3.7c0.2,0.3,0.2,0.6,0.1,1c-0.3,1.5-0.5,3.1-0.8,4.6c-0.1,0.3-0.1,0.6-0.4,0.8
		c-1.3-0.6-2.4-1.4-3.6-2c-0.2-0.2-0.5-0.3-0.8-0.4c-0.2,0-0.3-0.1-0.3-0.3c0.5-1.1,1.3-2.1,1.9-3.2c0.8-1.2,1.5-2.5,2.3-3.7
		C31.4,25.2,31.5,24.9,31.8,24.9z"/>
	<path class="st5" d="M24.6,8.2c0.2,2.1,0.5,4.2,0.8,6.3c0.1,0.9,0.1,0.9-0.8,1c-0.4,0.1-0.7,0.2-1.1,0C23,15,23.1,14.4,23,13.8
		c-0.1-0.9-0.2-1-1.1-0.8c-0.5,0.1-1,0.3-1.5-0.1c0.4-2.2,0.8-4.5,1.2-6.7c0-0.1,0-0.3,0.1-0.3c0.1,0,0.1-0.1,0.1,0
		C22.9,6.6,23.9,7.2,24.6,8.2z"/>
	<path class="st2" d="M31.7,35c0.3-1.8,0.6-3.6,0.9-5.4c0.1-0.3,0.1-0.7,0.1-1c0.9,0.2,1.9,0.3,2.8,0.3c0.9-0.1,1.9-0.2,2.8,0.1
		c0.4,1,0.1,1.9-0.2,2.9c-0.8,0.6-1.6,0.8-2.5,1.2C34.4,33.8,33,34.4,31.7,35z"/>
	<path class="st6" d="M11.3,0.8c2.7,0.2,5.3,0.3,8,0.4c2,0.1,4,0.2,6,0.4c0.2,0.2,0.6-0.2,0.7,0.2C25.9,1.9,25.8,2,25.7,2
		c-2.9,0.7-5.8,1.5-8.8,2.1c-0.4,0.1-0.6,0.2-1.1,0.2c-0.6-0.1-1.1-0.6-1.5-1c-0.9-0.7-1.7-1.3-2.5-1.9C11.6,1.3,11.3,1.2,11.3,0.8z
		"/>
	<path class="st7" d="M2,12.7c1.9-2.8,3.9-5.6,5.8-8.3c0.6-1,1.3-1.8,1.9-2.7C10,1.7,10,2,10,2.2c0,1.5,0.1,3.1,0,4.6
		C10,7.2,9.8,7.3,9.5,7.6c-2.3,1.7-4.6,3.4-6.8,5c-0.2,0.1-0.4,0.3-0.6,0.3C2,12.9,2,12.8,2,12.7z"/>
	<path class="st8" d="M19.4,16.1c0,0.1,0,0.3,0,0.4c0.1,0.1,0.1,0.3,0.1,0.4c0.1,0.3,0.1,0.7,0.2,1c0.1,2.5,0.4,4.9,0.5,7.4
		c0,0.3-0.1,0.4-0.4,0.6c-0.5,0.3-1.1,0.7-1.7,1c-0.2,0.1-0.4,0.2-0.5,0c-0.2-3.2-0.1-6.5-0.2-9.8c0-0.3,0.1-0.7-0.4-0.7
		c0.1-0.1,0.3-0.1,0.4-0.1c0.4-0.2,0.9-0.4,1.3-0.1C19,16.2,19.2,16.1,19.4,16.1z"/>
	<path class="st7" d="M15.7,4.1c1.6-0.2,3-0.7,4.6-1.1c1.6-0.4,3.2-0.8,4.9-1.2c0.2-0.1,0.4-0.1,0.5,0.1c-2.6,1.8-5.1,3.7-7.7,5.5
		c-0.3,0.2-0.5-0.1-0.6-0.2c-0.6-0.7-1.3-1.3-2-2C15.1,5,14.9,4.9,15,4.6C15.1,4.3,15.4,4.2,15.7,4.1z"/>
	<path class="st2" d="M2,12.7c0.6,0,0.9-0.4,1.3-0.7c2.2-1.6,4.4-3.2,6.6-4.9c0.3-0.4,0.6-0.7,1.2-0.5c0.4,1.2,0.6,2.5,0.6,3.8
		c-2.3,0.7-4.6,1.3-6.9,1.9c-1,0.3-2,0.5-3,0.8C1.7,12.9,1.9,12.8,2,12.7z"/>
	<path class="st2" d="M48.9,22.2c0,0.6,0,1.2,0,1.7c-0.3,0.2-0.6,0.2-0.9,0.2c-3.5,0-7.1,0-10.6,0c-0.4,0-0.6,0-0.9-0.2
		c0-0.6,0-1.2,0-1.7C36.7,22,37,22,37.4,22c3.5,0,7.1,0,10.6,0C48.3,22,48.6,22,48.9,22.2z"/>
	<path class="st2" d="M11,6.6c-0.4,0.2-0.8,0.4-1.1,0.6c0-1.6,0-3.2,0-4.8c0-0.2,0.1-0.5-0.1-0.7c0.1-0.1,0.1-0.3,0.2-0.4
		c0.4-0.3,0.8-0.5,1.3-0.4c0.1,0,0.1,0,0.1,0c1.5,1.1,3,2.2,4.5,3.4c-0.2,0.1-0.5,0.3-0.7,0.4C14.7,5,14,5.2,13.6,5.5
		c-0.4,0.3-0.9,0.4-1.4,0.7C11.7,6.3,11.4,6.7,11,6.6z"/>
	<path class="st9" d="M24.4,41.9c-1.6,0.4-3.1,1-4.7,1.6c-0.5,0.2-0.8,0.1-1.2-0.3c-1.5-1.6-2.9-3.2-4.4-4.8
		c-0.4-0.4-0.4-0.7-0.1-1.1c0.2-0.3,0.4-0.7,0.6-1c0.3,0.1,0.4,0.3,0.5,0.5c0.7,1.2,1.3,2.5,2,3.7c0.4,0.7,0.4,0.7,1.1,0.3
		c0.2-0.1,0.5-0.3,0.8-0.3c0.1,0.1,0.1,0.2,0.1,0.2c0,0.2,0.1,0.3,0.1,0.4c0.3,0.6,0.4,0.6,0.9,0.3c1.5-0.8,2.9-1.6,4.4-2.4
		c0.2-0.1,0.4-0.3,0.7-0.2C25,40,24.8,41,24.4,41.9z"/>
	<path class="st7" d="M36.5,24c4.2,0,8.3,0,12.5,0c0,0.6,0,1.1,0,1.6c-0.3,0.2-0.6,0.2-0.9,0.2c-3.5,0-7.1,0-10.6,0
		c-0.4,0-0.6,0-0.9-0.2C36.5,25,36.5,24.5,36.5,24z"/>
	<path class="st6" d="M48.9,22.2c-4.2,0-8.3,0-12.5,0c0-0.7,0-1.3,0-2c0.3-0.1,0.5,0.2,0.6,0.3c0.6,0.5,0.6,0.5,1.1,0
		c0.2-0.2,0.4-0.3,0.6-0.4c0.1,0,0.1,0,0.1,0c0.5,0.1,0.7,0.8,1.2,0.8c0.5,0,0.6-0.7,1.2-0.8c0.1,0,0.1,0,0.1,0
		c0.5,0.1,0.7,0.8,1.2,0.8c0.5,0,0.6-0.7,1.2-0.8c0.1,0,0.1,0,0.1,0c0.5,0.1,0.7,0.8,1.2,0.8c0.5,0,0.6-0.7,1.2-0.8
		c0.1,0,0.1,0,0.1,0c0.5,0.1,0.7,0.8,1.2,0.8c0.5,0,0.6-0.7,1.2-0.7C48.9,20.9,48.9,21.6,48.9,22.2z"/>
	<path class="st10" d="M32.5,10.7c-1.3-1-2.5-2.1-3.8-3.1c-1-0.5-1.8-1.3-2.5-2.1c-0.1-0.1-0.1-0.2,0-0.2c1.6-0.2,3.3-0.3,4.9-0.5
		c0.1,0,0.1,0.1,0.2,0.1c0.2,0.3,0.4,0.7,0.5,1.1c0.3,1.3,0.6,2.6,0.9,4C32.7,10.2,33,10.6,32.5,10.7z"/>
	<path class="st6" d="M7.3,36.4c-0.4,1.4-0.8,2.8-1.1,4.2c-0.1,0.2-0.1,0.4-0.1,0.6c-0.2,0.1-0.3,0.1-0.4-0.1
		c-0.8-1.8-1.8-3.6-2.7-5.4c-0.1-0.1-0.2-0.2-0.2-0.3c1.4-0.3,2.8-0.7,4.2-1.1c0.5,0.4,0.4,1.1,0.4,1.7C7.4,36.2,7.2,36.3,7.3,36.4z
		"/>
	<path class="st10" d="M25.3,39c-1.6,0.8-3.3,1.7-4.9,2.6c-0.9,0.5-1.3,0.4-1.4-0.8c0.8,0.2,1.4-0.3,2-0.6c2.2-1.2,4.4-2.4,6.6-3.6
		c0.2-0.1,0.6-0.2,0.5-0.6c-0.8-1.5-1.8-2.9-2.6-4.3c-0.3-0.5-0.8-0.6-1.2-0.8c-0.2-0.2-0.5-0.5-0.4-0.9c1.4-0.1,2.9,1,3.1,2.4
		c0,0.1,0.1,0.2,0.2,0.2c0.5,1.2,1.3,2.2,2,3.3c0.4,0.6,0.2,0.8-0.4,1.1C27.7,37.6,26.5,38.3,25.3,39z"/>
	<path class="st11" d="M14.6,48.2c0.4,0.3,0.6,0.6,1.1,1c-0.8,0-1.5,0-2.2,0c-1.2,0-2.4-0.1-3.6,0c-0.6,0-0.9-0.1-1-0.7
		c-0.2-0.9-0.3-1.8-0.5-2.7c0.1-0.1,0.2-0.1,0.2-0.1c1.3,0.2,2.6,0.3,3.7,1.1C13.2,47.2,13.9,47.7,14.6,48.2z"/>
	<path class="st2" d="M12.5,17.7c-0.2,1.3-0.6,2.5-0.9,3.6C11,23.2,10.5,25,10,26.8c-0.8,0.2-1.3-0.4-1.9-0.5
		c-0.3-0.1-0.6-0.2-0.6-0.6c1.5-2.5,3-4.9,4.6-7.4C12.2,18.1,12.2,17.8,12.5,17.7z"/>
	<path class="st6" d="M8.8,45.8c-0.1,0-0.1,0-0.2,0c-0.3-1.1-0.4-2.2-0.6-3.4C7.9,42,8.1,41.9,8.6,42c2.2,0.7,4.5,1.3,6.7,2
		c-0.1,0.1-0.1,0.1-0.1,0.1c-1.5,0.6-3.2,0.8-4.7,1.2C9.9,45.6,9.3,45.6,8.8,45.8z"/>
	<path class="st6" d="M38.3,29.1c-0.9-0.1-1.9,0.1-2.8-0.1c-0.2-0.8,0.4-0.8,0.9-0.8c0.3-0.2,0.6-0.2,0.9-0.2c3.6,0,7.1,0,10.6,0
		c0.4,0,0.6,0,0.9,0.2c0.2,0,0.4,0.1,0.5,0.1c0.4-0.1,0.5,0.1,0.5,0.4c0,0.4-0.2,0.4-0.5,0.4c-1.8,0-3.6,0-5.4,0
		c-0.3,0-0.6,0.1-0.9,0.1c-0.4,0.2-0.7,0.2-1.1,0.2c-0.9,0-1.9,0-2.8,0C38.9,29.3,38.5,29.3,38.3,29.1z"/>
	<path class="st9" d="M32.5,10.7c0.2-0.7-0.2-1.3-0.4-2c-0.2-1.2-0.6-2.5-0.9-3.7c1.8,1.6,3.6,3.2,5.3,4.8c0.1,0.1,0.1,0.2,0.1,0.3
		c-1.2,0.2-2.4,0.5-3.6,0.7C32.9,10.8,32.7,11,32.5,10.7z"/>
	<path class="st6" d="M7.3,36.4c-0.4-0.7-0.2-1.4-0.4-2c-0.2-1.6-0.4-3.1-0.6-4.6c-0.1-0.6-0.1-1.1-0.2-1.7c0.4-0.2,0.8,0.2,1.1,0.3
		c0.7,0.3,1.4,0.5,2,1c0.1,0.1,0.1,0.2,0,0.3C8.6,31.8,7.9,34.1,7.3,36.4z"/>
	<path class="st11" d="M2.7,35.5c0.1,0.1,0.2,0.1,0.3,0.2c0,1.3-0.3,2.6-0.5,3.8c-0.1,0.2-0.2,0.3-0.4,0.5C1.5,40.5,0.8,41,0,41.6
		c0-0.5,0-0.9,0-1.3c0-1.2,0-2.5,0-3.7c0-0.3,0.1-0.5,0.4-0.6C1.2,35.9,2,35.7,2.7,35.5z"/>
	<path class="st2" d="M36.4,25.6c4.2,0,8.3,0,12.5,0c0,0.3,0,0.6,0,1c-0.3,0.2-0.6,0.2-0.9,0.2c-3.5,0-7.1,0-10.6,0
		c-0.4,0-0.6,0-0.9-0.2C36.4,26.2,36.4,25.9,36.4,25.6z"/>
	<path class="st11" d="M18.8,16.2c-0.5,0-0.9,0.2-1.3,0.1c-1.1-2.1-2.2-4.3-3.2-6.5c-0.1-0.2-0.2-0.3-0.4-0.3
		c-0.1-0.3-0.3-0.6-0.2-1c0.4-0.3,0.5-0.7,1.1-0.8C15,8,15.3,8.3,15.2,8.8C16.4,11.3,17.6,13.8,18.8,16.2z"/>
	<path class="st12" d="M26.2,5.3c0.7,0.9,1.7,1.5,2.5,2.3c-0.1,0-0.1,0-0.1,0c-1.3,0.1-2.7,0.4-4.1,0.5c-0.9-0.8-1.8-1.5-2.6-2.3
		C23.3,5.6,24.8,5.4,26.2,5.3z"/>
	<path class="st6" d="M36.4,26.5c4.2,0,8.3,0,12.5,0c0,0.3,0,0.6,0,0.8c-0.3,0.2-0.6,0.2-0.9,0.2c-3.5,0-7.1,0-10.6,0
		c-0.4,0-0.6,0-0.9-0.2C36.5,27,36.4,26.8,36.4,26.5z"/>
	<path class="st2" d="M36.5,27.3c4.2,0,8.3,0,12.5,0c0,0.3,0,0.5,0,0.8c-4.2,0-8.3,0-12.5,0C36.4,27.8,36.4,27.6,36.5,27.3z"/>
	<path class="st8" d="M31.8,24.9c-0.7,0.7-1.1,1.6-1.6,2.5c-0.4,0.6-0.8,1.2-1.2,1.8c-0.8-0.3-1.2-1.1-1.5-1.7
		c0.1-0.6,0.5-0.9,0.8-1.4c0.4-0.7,0.9-1.3,1.3-2c0.8,0.2,1.5,0.5,2.3,0.6C31.8,24.8,31.8,24.9,31.8,24.9z"/>
	<path class="st6" d="M15.2,8.8c-0.2-0.3-0.4-0.7-0.6-1.1c-0.5-0.6-0.8-1.4-1.2-2.1c-0.1-0.1,0-0.2,0.1-0.3C14,5,14.5,4.8,15,4.6
		c0,0.3,0.3,0.4,0.5,0.7c0.6,0.7,1.3,1.2,1.9,2c0.1,0.2,0.3,0.3,0.5,0.3C17.1,8.1,16.1,8.4,15.2,8.8z"/>
	<path class="st6" d="M2.1,39.9c0.4-1.3,0.4-2.6,0.7-4c0-0.1,0-0.3,0.2-0.3c1,1.6,1.8,3.4,2.6,5c0.1,0.1,0.2,0.3,0,0.4
		C4.4,40.8,3.4,40.2,2.1,39.9z"/>
	<path class="st0" d="M9.2,29.3c-1-0.4-2-0.9-3-1.3c0.4-0.8,0.9-1.5,1.3-2.3c0.8,0.6,1.7,0.7,2.6,1.1c-0.2,0.8-0.5,1.7-0.7,2.5
		C9.3,29.4,9.2,29.4,9.2,29.3z"/>
	<path class="st6" d="M13.6,8.6c0,0.3,0.4,0.6,0.1,1c-0.6,0.3-1.3,0.6-2,0.9c-0.2-1.3-0.5-2.6-0.7-3.9c0.4-0.2,0.8-0.3,1.1-0.6
		c0.2-0.2,0.4,0.1,0.5,0.2C13,7,13.4,7.7,13.6,8.6z"/>
	<path class="st13" d="M38.3,29.1c1.6-0.1,3.2-0.1,4.8,0c-1.2,0.9-2.6,1.6-3.9,2.4c-0.3,0.2-0.6,0.4-1,0.5
		C38.1,31,38.4,30,38.3,29.1z"/>
	<path class="st1" d="M20.5,13c0.7,0,1.4-0.2,2.1-0.2c0.4-0.1,0.5,0,0.6,0.4c0.1,0.8,0.2,1.6,0.3,2.4c-0.3,0.3-0.7,0.2-1,0.3
		C22,16,21.5,16.1,21,16v-0.1C20.7,14.9,20.6,13.9,20.5,13z"/>
	<path class="st6" d="M8.8,45.8c0.2-0.4,0.6-0.3,0.9-0.4c1.6-0.4,3.3-0.8,4.9-1.1c0.2-0.1,0.4-0.1,0.5-0.1c-0.8,0.7-1.5,1.3-2.2,2
		c-0.2,0.2-0.5,0.2-0.4,0.6C11.3,46.3,10,46,8.8,45.8z"/>
	<path class="st7" d="M47.9,16.6c0.3,0.6,0.1,1.2,0.1,1.7c0.1,0.6,0,1.2,0,1.8c-0.2,0.2-0.5,0.2-0.7,0c0-1,0-2,0-2.9
		c0-0.2-0.1-0.4,0.1-0.6C47.7,16.5,47.8,16.5,47.9,16.6z"/>
	<path class="st7" d="M39.8,20.1c0-1,0-2,0-2.9c0-0.2-0.1-0.4,0.1-0.6c0.2-0.1,0.3-0.1,0.5,0c0.3,0.5,0.1,1.1,0.1,1.6
		c0.1,0.6,0,1.3,0,1.9C40.3,20.3,40.1,20.3,39.8,20.1z"/>
	<path class="st7" d="M37.2,20.1c0-1,0-2,0-2.9c0-0.2-0.1-0.4,0.1-0.6c0.2-0.1,0.3-0.1,0.5,0c0.3,0.4,0.1,1,0.1,1.5
		c0.1,0.7,0,1.3,0,2.1C37.8,20.3,37.5,20.3,37.2,20.1z"/>
	<path class="st2" d="M41.3,18.8c0.2-0.6,0.8-0.8,1.2-1.3c0.1-0.1,0.2-0.1,0.3,0c0.4,0.4,0.9,0.7,1.2,1.3
		C43.2,19.1,42.2,19.1,41.3,18.8z"/>
	<path class="st2" d="M46.4,20.1c-1.2,1.3-1.2,1.3-2.4,0c0.3,0,0.5,0,0.8-0.1c0.4-0.2,0.4-0.6,0.4-0.9c0-0.6,0-1.2,0-1.8
		c0-0.3-0.1-0.6,0.2-0.8c0.2,0.8,0.1,1.7,0.1,2.6C45.5,19.8,45.6,20.2,46.4,20.1z"/>
	<path class="st7" d="M45.4,16.6c0,1-0.1,2,0,2.9c0,0.4-0.2,0.6-0.6,0.6c0-1,0-2,0-2.9c0-0.2-0.1-0.4,0.1-0.6
		C45.1,16.5,45.3,16.5,45.4,16.6L45.4,16.6z"/>
	<path class="st7" d="M41.3,18.8c0.9,0,1.8,0,2.7,0c-0.4,0.4-0.8,0.9-1.2,1.3c-0.1,0.1-0.1,0.1-0.2,0C42.2,19.6,41.7,19.2,41.3,18.8
		z"/>
	<path class="st2" d="M37.2,20.1c0.2,0,0.5,0,0.7,0c0.3,0,0.6,0,0.8,0c-0.4,0.4-0.7,1-1.2,1.1c-0.4,0-0.8-0.6-1.2-1
		C36.7,19.9,37,20.2,37.2,20.1z"/>
	<path class="st2" d="M39.8,20.1c0.2,0,0.5,0,0.7,0c0.3,0,0.6,0,0.8,0c-1.2,1.3-1.2,1.3-2.4,0C39.2,20.1,39.5,20.1,39.8,20.1z"/>
	<path class="st2" d="M42.6,20.1c0.1,0,0.1,0,0.2,0c0.4,0,0.7,0,1.1,0.1c-1.2,1.3-1.2,1.3-2.4,0C41.9,20.1,42.2,20.1,42.6,20.1z"/>
	<path class="st2" d="M47.4,20.1c0.2,0,0.5,0,0.7,0c0.3,0.1,0.6-0.1,0.8,0.1c-0.1,0-0.1,0.1-0.1,0.1c-0.4,0.3-0.7,1-1.1,0.9
		c-0.5-0.1-0.8-0.7-1.2-1.1C46.8,20.1,47.1,20.1,47.4,20.1z"/>
	<path class="st11" d="M11.2,0.8C10.7,1,10.3,1.2,9.9,1.2C9.5,0.5,9.6,0.1,10.5,0C11-0.1,10.9,0.5,11.2,0.8z"/>
	<path class="st14" d="M37.8,16.6c-0.2,0-0.3,0-0.5,0C37,16,37,16,37.6,15.2C38,15.6,38.4,16,37.8,16.6z"/>
	<path class="st15" d="M40.4,16.6c-0.2,0-0.3,0-0.5,0c-0.5-0.5-0.2-1,0.2-1.4C40.5,15.6,40.9,16,40.4,16.6z"/>
	<path class="st16" d="M45.4,16.6c-0.2,0-0.3,0-0.5,0c-0.5-0.6-0.2-1,0.2-1.3C45.5,15.6,45.9,16,45.4,16.6z"/>
	<path class="st16" d="M47.9,16.6c-0.2,0-0.3,0-0.5,0c-0.5-0.5-0.2-1,0.2-1.4C48.1,15.6,48.4,16,47.9,16.6z"/>
	<path class="st17" d="M33.2,49.1c-0.1-0.2-0.4-0.1-0.6-0.3c0.4,0.1,0.9-0.1,1.4,0.3C33.7,49.1,33.4,49.1,33.2,49.1z"/>
	<path class="st18" d="M26,1.9c-0.2-0.2-0.5,0-0.7-0.2c0.2,0,0.5,0,0.6,0C26.1,1.7,26,1.8,26,1.9z"/>
	<path class="st10" d="M24,30c0,0.3,0.3,0.6,0.4,0.8c0.1,0,0.1,0.1,0.1,0.1c1.1,1.6,2.2,3.2,3,4.9c0,0.1,0,0.1,0,0.1
		c-0.4,0.6-1.1,0.8-1.7,1.1c-2,1.1-4.1,2.2-6.1,3.3c-0.2,0.1-0.5,0.3-0.8,0.3c-1.5,0.9-1.5,0.9-2.2-0.6c-0.6-1.2-1.3-2.5-2-3.7
		c-0.4-1-0.4-1,0.6-1.6c0.2-0.1,0.4-0.2,0.6-0.3c0.4-0.1,0.6,0.2,0.8,0.4c0.7,0.9,1.5,1.1,2.6,0.7c0.4-0.2,0.9-0.1,1.3-0.3
		c0.6-0.6,0.6-1.4,0.8-2.1c-0.1-0.6-0.8-0.8-0.8-1.4c0.2-0.3,0.6-0.4,0.8-0.7c0.6-0.3,1.3-0.8,2-1.1C23.6,29.9,23.8,29.6,24,30z"/>
	<path class="st2" d="M9.2,29.3c0.1,0,0.1,0,0.2,0c1.8-0.5,3.7-1,5.5-1.5c0.9-0.2,1.8-0.5,2.7-0.8c0.2,0,0.2,0.1,0.4,0.2
		c0.6,1,1.2,1.8,1.7,2.8c0.1,0.1,0.1,0.2,0,0.3c-1,0.7-2,1.3-3.2,1.7c-0.8-0.1-1.6-0.5-2.3-0.8c-1.5-0.6-3-1-4.4-1.7
		c-0.1-0.1-0.3-0.1-0.4,0C9.2,29.5,9.2,29.4,9.2,29.3z"/>
	<path class="st19" d="M9.6,29.6c1.5,0.3,2.7,1,4.2,1.5c0.9,0.3,1.8,0.7,2.7,1c0.5,0.4,0.7,1,0.7,1.6c-0.4,0.4-0.7,0.8-1.3,0.7
		c-1.3-0.8-2.5-1.8-3.8-2.8C11.2,30.9,10.4,30.2,9.6,29.6z"/>
	<path class="st10" d="M15.9,34.3c0.5-0.1,0.8-0.4,1.2-0.7c0.4,0.1,0.4,0.4,0.5,0.7c0.1,0.3,0.2,0.5,0.5,0.7
		c0.6,0.1,1.3,0.1,1.9,0.2c0.2,0,0.5-0.1,0.6,0.3c-0.9,0.2-1.8,0.4-2.6,0.6c-0.3,0.1-0.5-0.1-0.6-0.3c-0.5-0.4-0.9-1-1.5-1.3
		C15.9,34.4,15.9,34.3,15.9,34.3z"/>
	<path class="st2" d="M29.6,24.1c0.1,0.3-0.1,0.5-0.3,0.7c-0.6,0.8-1.1,1.7-1.7,2.6c-0.1,0.1-0.1,0.1-0.2,0.1
		c-1.1-0.3-2.3-0.4-3.4-0.9c-0.1-0.1-0.1-0.1,0-0.2c0.8-0.8,1.4-1.8,2.2-2.6c0.2-0.2,0.3-0.4,0.6-0.4C27.7,23.6,28.6,23.9,29.6,24.1
		z"/>
	<path class="st20" d="M26.8,23.4c-0.7,0.9-1.5,1.8-2.2,2.7c-0.1,0.2-0.2,0.4-0.5,0.4c-0.6-0.6-0.8-1.4-1.1-2.1
		c-0.2-0.4-0.5-0.7-0.4-1.2c0.5-0.2,0.8-0.6,1.4-0.7C24.9,22.8,25.8,23.1,26.8,23.4z"/>
	<path class="st21" d="M26.8,18c1.9,0.6,3.7,1.1,5.6,1.7c0,0.1,0,0.1,0,0.1c-0.9,0.2-1.8,0.4-2.7,0.7c-0.2,0.1-0.3,0-0.5-0.1
		c-0.8-0.7-1.7-1.5-2.5-2.2C26.8,18.1,26.8,18.1,26.8,18z"/>
	<path class="st3" d="M31,13c-0.4,1.2-0.8,2.4-1.2,3.6c-0.1,0-0.1,0-0.1,0c0-0.7,0-1.3,0-2c-0.1-0.3,0-0.7-0.4-1
		c-0.1-0.3-0.4-0.4-0.6-0.6C29.5,12.7,30.2,12.7,31,13z"/>
	<path class="st22" d="M34.6,14.2c0,0.3-0.2,0.3-0.4,0.3c-0.2,0-0.5-0.1-0.7,0.2c-0.4,0.1-0.5,0.6-0.7,0.8c-0.4,0-0.5,0.5-1,0.6
		c0.3-1,0.6-1.8,0.9-2.7C33.3,13.7,33.9,14,34.6,14.2z"/>
	<path class="st23" d="M31,13c-0.8,0-1.5,0-2.2,0c-0.1-0.5,0.2-0.7,0.7-0.7c0.4,0.1,0.8,0.1,1.1,0.1C31.1,12.4,31.3,12.5,31,13z"/>
	<path class="st24" d="M34.6,14.2c-0.1,0.2-0.2,0.2-0.4,0.1c-0.5-0.4-1.3-0.3-1.6-1c0.1-0.2,0.1-0.3,0.3-0.3
		c0.5,0.2,1.1,0.4,1.6,0.7C34.8,13.8,34.6,14,34.6,14.2z"/>
	<path class="st25" d="M29.3,13.5c0.9,0.1,0.5,0.6,0.4,1c-0.2,0.1-0.4,0.2-0.6,0C28.9,14.2,29.1,13.8,29.3,13.5z"/>
	<path class="st26" d="M32.8,15.4c0-0.4-0.1-1,0.7-0.8c0.1,0.3,0.2,0.6,0,0.8C33.2,15.7,33,15.7,32.8,15.4z"/>
	<path class="st27" d="M29.8,17.4c0.5-0.1,0.8,0.2,1.3,0.3C30.2,18.2,30.1,18.2,29.8,17.4z"/>
	<path class="st0" d="M24,26.5c1.2,0.4,2.4,0.6,3.6,0.9c0.4,0.6,0.8,1.3,1.4,1.8c-0.6,1.1-1.3,2.1-1.9,3.2c-0.1-0.1-0.1-0.1-0.1-0.2
		c-0.5-1.3-1.6-1.9-3-2.2c-0.3-0.2-0.5,0.1-0.6,0.2c-0.6,0.3-1.2,0.7-1.9,1c-0.6-0.2-1.2-0.4-1.8-0.7c-0.1-0.1-0.1-0.1-0.1-0.1
		c-0.5-1.2-1.3-2.2-2-3.3c0-0.1,0-0.1,0-0.2c0.9-0.4,1.7-0.8,2.4-1.5c1.2,0.2,2.5,0.6,3.7,0.9C23.8,26.3,23.9,26.4,24,26.5z"/>
	<path class="st2" d="M24,26.5c-1.2-0.3-2.5-0.6-3.6-0.8c-0.2-0.1-0.3-0.2-0.4-0.2c-0.2-2.5-0.3-5.1-0.5-7.6c-0.1-0.3,0-0.7-0.1-1
		c0-0.1,0-0.3,0-0.4c0.9,1.5,1.5,3.1,2.2,4.6c0.4,0.7,0.6,1.3,1,2.1C23.1,24.3,23.6,25.5,24,26.5C24.1,26.5,24,26.5,24,26.5z"/>
	<path class="st28" d="M20.9,16c0.5-0.1,1-0.2,1.5-0.2c-0.3,0.5-0.9,0.7-1.3,1.2C20.9,16.6,20.9,16.3,20.9,16z"/>
	<path class="st29" d="M19.4,16.9c0.2,0.3,0.1,0.6,0.1,1C19.3,17.5,19.4,17.2,19.4,16.9z"/>
	<path class="st11" d="M13.6,8.6c-0.5-0.6-0.6-1.4-1.1-2C12.4,6.3,12.4,6,12.1,6c0.5-0.2,0.9-0.4,1.4-0.7c0.2,0.8,0.9,1.5,1.1,2.4
		C14.3,8,14,8.3,13.6,8.6z"/>
	<path class="st30" d="M18.9,40.6c2.7-1.5,5.3-2.9,8-4.3c0.2-0.1,0.4-0.2,0.6-0.4c0.3-0.1,0.5,0.1,0.8,0.1c0.4,0.4-0.1,0.5-0.3,0.6
		c-2,1.1-4,2.1-6,3.2c-0.6,0.3-1.2,0.6-1.8,1c-0.5,0.3-0.9,0.3-1.3,0.1C18.9,40.7,18.9,40.7,18.9,40.6z"/>
	<path class="st31" d="M28.4,36c-0.4,0.3-0.6-0.1-0.8-0.1c-1.1-1.7-2-3.4-3.1-5.1c0.6,0.1,1.1,0.4,1.4,1
		C26.7,33.2,27.5,34.6,28.4,36z"/>
	<path class="st32" d="M21.4,13.7c1.1-0.4,1.2-0.2,1.1,1C22.1,14.4,21.7,14.1,21.4,13.7z"/>
	<path class="st1" d="M19.5,30.4c0.1,0,0.1,0,0.2,0c0.5,0.3,0.8,0.8,1,1.3c0.3,0.4,0.7,0.8,0.9,1.3c-1,0.9-2.2,1.4-3.4,2
		c-0.1,0.1-0.2,0.1-0.4,0c-0.2-0.5-0.5-1-0.8-1.5c-0.2-0.6-0.4-1.1-0.6-1.6C17.5,31.5,18.5,31,19.5,30.4z"/>
	<path class="st20" d="M17.9,35.1c1.2-0.7,2.5-1.3,3.7-2c-0.2,0.6-0.4,1.3-0.6,1.9c-0.1,0.2-0.1,0.4-0.4,0.4
		C19.7,35.3,18.8,35.3,17.9,35.1z"/>
	<path class="st33" d="M20.6,31.7c-0.4-0.4-0.6-0.9-1-1.3c0.6,0.3,1.3,0.2,1.8,0.8C21.2,31.3,20.9,31.6,20.6,31.7z"/>
	<path class="st34" d="M31.2,19.7c-1.8,0.7-1.8,0.7-3.1-0.9C29.2,19,30.1,19.4,31.2,19.7z"/>
</g>
</svg>
