<?xml version="1.0" encoding="utf-8"?>
<!-- Generator: Adobe Illustrator 23.1.0, SVG Export Plug-In . SVG Version: 6.00 Build 0)  -->
<svg version="1.1" id="Capa_1" xmlns="http://www.w3.org/2000/svg" xmlns:xlink="http://www.w3.org/1999/xlink" x="0px" y="0px"
	 viewBox="0 0 50 50" style="enable-background:new 0 0 50 50;" xml:space="preserve">
<style type="text/css">
	.st0{fill:#6F7173;}
	.st1{fill:#E8E8E8;}
	.st2{fill:#734C5F;}
	.st3{fill:#DEBCA4;}
	.st4{fill:#95637C;}
	.st5{fill:#543042;}
	.st6{fill:#8B6651;}
	.st7{fill:#474747;}
	.st8{fill:#8F8F8F;}
	.st9{fill:#C2977B;}
	.st10{fill:#8B6752;}
	.st11{fill:#6F7172;}
	.st12{fill:#C49A7E;}
	.st13{fill:#8A9898;}
	.st14{fill:#9B7A66;}
	.st15{fill:#AA8975;}
	.st16{fill:#8E8E8E;}
	.st17{fill:#2B2B2B;}
	.st18{fill:#C2977A;}
	.st19{fill:#4B4B4B;}
	.st20{fill:#8C6752;}
	.st21{fill:#6E7071;}
	.st22{fill:#E6C9B5;}
	.st23{fill:#C0987C;}
	.st24{fill:#C1997D;}
	.st25{fill:#926E58;}
	.st26{fill:#DCBBA4;}
	.st27{fill:#FCFDFD;}
	.st28{fill:#DBBBA4;}
	.st29{fill:#313131;}
	.st30{fill:#BD987E;}
	.st31{fill:#52605D;}
	.st32{fill:#393634;}
	.st33{fill:#8E7C70;}
	.st34{fill:#906B56;}
	.st35{fill:#EFF8FA;}
	.st36{fill:#3794AA;}
	.st37{fill:#302F2F;}
	.st38{fill:#31302F;}
	.st39{fill:#C6A792;}
</style>
<g>
	<path class="st0" d="M4.2,6.7C2.8,7.2,1.9,8,0.6,8.6c-0.4,0-0.3-0.1-0.2-0.3C1,6.8,2.1,5.3,2.9,3.7C3.3,3,3.8,2.3,4.2,1.5
		C4.3,1.2,4.5,1.2,5,1.3C6.7,1.8,8.4,2.2,10,2.7c0.3,0.1,0.6,0.2,1.1,0.1c4.9-0.9,9.8-1.8,14.7-2.7C25.9,0.1,25.9,0,26,0
		c0.1,0,0.2,0,0.2,0c0,0,0,0.1,0,0.1c0.2,0.1,0.4,0.2,0.4,0.4c0.5,1.4,1.2,2.7,1.4,4.1C27.8,4.9,27.2,5,26.7,5
		c-2.4,0.4-4.7,0.8-7.1,1.1c-1,0.2-2.1,0.4-3.1,0.5c-1.9-0.3-3.8-0.6-5.7-0.9c-0.5-0.1-1.1-0.2-1.1-0.5C9.6,4.6,10.1,4,10.2,3.4
		C8.6,4.4,7,5.3,5.4,6.2C5.1,6.4,4.7,6.6,4.2,6.7z"/>
	<path class="st1" d="M28.2,50c-1.7-0.4-3.5-0.3-5.3-0.5c-4.1-0.4-8.3-0.6-12.8-1c2.5-0.3,4.8-0.4,7.1-0.6c0.4,0,0.7,0,1-0.1
		c0.6,0.3,0.6,0.7,1.2,1c1.9,0.2,3.8,0.1,5.8,0.1c0.7,0,0.5-0.3,0.3-0.6c-0.3-0.3-1-0.6-0.6-1c2.6-0.4,5.3-0.6,8-0.2
		c0.8,0.2,0.5,0.7,1,0.9c0.6-0.1,0.5-0.6,1.2-0.5c0.6,0,1,0.2,1.5,0.4c0.5,0.2,1.1,0.3,1.7,0.3c1.4,0,2.9,0.1,4.3-0.1
		c0,0,0.1,0,0.2,0c1.9,0.2,3.7,0.3,5.6,0.5c0,0,0,0.1,0,0.1c-4.4,0.3-8.8,0.6-13.1,0.9c-1.3,0.1-2.6,0.1-3.9,0.4
		C30.2,50,29.2,50,28.2,50z"/>
	<path class="st2" d="M35.7,39c0.8,2,1.5,3.9,2.3,5.9c-0.6,0.4-1.4,0.3-2.2,0.4c-0.6,0.1-1.2,0.1-1.7,0.2c-0.3,0-0.5,0-0.8,0
		c-2.9,0.2-5.7,0.6-8.6,0.6c-0.3,0-0.7-0.1-0.9-0.2c-0.2-0.3-0.1-0.5,0.1-0.7c1.9-2.8,3.6-5.7,5.5-8.5c0.1-0.2,0.2-0.3,0.5-0.4
		c0.3-0.1,0.5-0.1,0.8,0C32.3,37.1,34.3,37.9,35.7,39z"/>
	<path class="st2" d="M14.7,21.4c1.1-0.5,2.5-0.7,3.7-1.1c1,0.2,1.8,0.6,2.7,0.9c1.7,0.7,3.6,1.2,5.2,1.9c0.6,0.3,1.1,0.2,1.5-0.2
		c0.6-0.6,1.3-1.1,1.9-1.7c0.2-0.2,0.3-0.4,0.8-0.4c0.2,0,0.4,0.1,0.4,0.3c0.1,0.2,0.4,0.4,0.6,0.7c1.1,1.2,2,2.5,2.9,3.8
		c0.1,0.2,0.3,0.4-0.2,0.6c-0.7,0.1-1.4,0.2-2.2,0.2c-3.7,0-7.4,0.3-11.1,0.3c-0.8,0-1.5,0.1-2.2,0.2c-0.3,0-0.5-0.1-0.6-0.2
		c-1-1.5-2.2-3-3.2-4.6C14.9,21.7,14.7,21.5,14.7,21.4z"/>
	<path class="st3" d="M38.1,9.5c0.2,1.6,0.4,3.2,0.6,4.9c0,0.4-0.7,0.4-1.1,0.5c-0.4-0.1-0.7,0-1.1,0.1c-0.4,0-0.7,0.1-1,0.1
		c-2.9,0.4-6,0.7-8.9,1c-0.6,0.1-1.1,0.1-1.7,0.1c-0.6-0.1-0.7-0.4-0.8-0.7c-0.2-1.3-0.4-2.5-0.6-3.8c0-0.2,0-0.3,0.2-0.5
		c0.1-0.1,0.2-0.1,0.4-0.1c2.7-0.2,5.4-0.2,8.1-0.2c0.6,0,0.7,0.2,0.9,0.5s0.3,0.5,0.8,0.5c0.5,0,0.5-0.3,0.7-0.5
		c0.2-0.3-0.3-0.5,0-0.8c1.2-0.2,2.2-0.7,3.3-1C37.9,9.5,38,9.5,38.1,9.5z"/>
	<path class="st4" d="M49.7,23.4c1.4,1.3,1.4,1.3-1,2c-0.7,0.2-1.4,0.4-2,0.6c-1.2-0.5-1.2-0.4-2.7,0.1c-1.1,0.3-1.4,0.9-1.9,1.4
		c-2.4,0.8-4.9,1.4-7.4,2.2c-0.3,0.1-0.7,0-1,0.2v0c-1.8,0.7-4,1.2-5.9,1.8c-0.3,0.1-0.7,0.2-1,0.3c-1,0.3-2.1,0.6-3.1,0.9
		c-0.7,0.2-1.4,0.5-2.2,0.5c-0.9-0.3-1.8-0.5-2.3-1.1c0.2-0.4,0.9-0.4,1.4-0.6c0.2-0.1,0.4-0.1,0.6-0.2c1.4-0.3,2.7-0.8,4-1.2
		c0.2-0.1,0.4-0.1,0.6-0.2c1.4-0.3,2.7-0.7,4.1-1.1c0.2-0.1,0.4-0.1,0.6-0.2c1.4-0.4,2.7-0.8,4-1.2c0.2-0.1,0.4-0.1,0.6-0.2
		c1.4-0.3,2.7-0.8,4.1-1.1c0.2-0.1,0.4-0.1,0.6-0.2c1.3-0.4,2.7-0.7,4-1.2c0.2-0.1,0.4-0.2,0.6-0.3c1.5-0.2,2.6-0.8,4-1.1
		c0.2-0.1,0.4-0.1,0.6-0.1C49,23.4,49.3,23.3,49.7,23.4z"/>
	<path class="st5" d="M38.1,9.5c-0.1,0-0.2,0-0.3,0c-1.1,0.3-2.2,0.6-3.6,0.5c-0.6-0.5-0.6-1.1-1-1.7c-0.1-0.2-0.2-0.3-0.2-0.5
		c-0.1-0.3-0.5-0.4-1-0.3c-0.5,0.1-0.6,0.2-0.5,0.5c0.2,0.6,0.5,1.1,0.7,1.7c0.1,0.2,0.3,0.5-0.1,0.7c-2.4,0.4-4.9,0.4-7.3,0.6
		c-0.2,0-0.5,0-0.7,0.1h-0.1h-0.1c-0.2-0.1-0.4-0.2-0.4-0.3c-0.3-1-0.9-2-0.9-3.1c0.6-0.4,1.5-0.4,2.3-0.5c0.5-0.1,1-0.1,1.5-0.2
		C27.3,7,28.2,6.9,29,6.8c0.5,0,0.8-0.2,1.2-0.2c1.7-0.2,3.4-0.4,5.2-0.6c0.5-0.1,0.9-0.2,1.4,0c0.9-0.1,1.9-0.2,2.8-0.3
		c0.6-0.1,0.9,0,1,0.3c0.3,0.9,0.6,1.7,0.9,2.6c0.1,0.3,0,0.4-0.6,0.5C39.9,9.2,39,9.4,38.1,9.5z"/>
	<path class="st3" d="M26.5,7.2c-1.2,0.2-2.5,0.4-3.7,0.5c-1.4-0.3-2.2-0.9-3.2-1.4c-0.2-0.1-0.3-0.2-0.1-0.4
		c2.8-0.5,5.7-0.9,8.5-1.4c0.4-0.2,0.9-0.3,1.4-0.4c2.1-0.3,4-0.8,6.2-0.9c0.7,0.8,0.9,1.7,1.2,2.6c-2.2,0.4-4.4,0.6-6.7,0.8
		c-0.3,0-0.5,0-0.8,0.1c-1.1,0.1-2.3,0-3.4-0.1c-0.2,0-0.4-0.1-0.6-0.1c-0.1,0-0.3,0-0.1,0c0,0,0,0,0,0C25.7,6.9,26.4,6.9,26.5,7.2z
		"/>
	<path class="st6" d="M25.1,16c3.2-0.3,6.3-0.6,9.5-1c0.4,0,0.8-0.1,1.2-0.1c0.2-0.1,0.3,0,0.3,0.1c-1.9,0.3-3.7,0.7-5.6,1
		c-0.6,0.1-0.8,0.2-0.8,0.6c-0.2,1.3-0.5,2.6-0.7,3.9c-1,0.3-1.9,0-2.8-0.2c-1.2-1.2-2.5-2.3-3.7-3.4c-0.5-0.5-0.3-0.7,0.7-0.8
		C23.8,16,24.4,16.1,25.1,16z"/>
	<path class="st7" d="M26,20.2c0.9,0.1,1.9,0.2,2.9,0.3c0.6,0.1,1.1,0.2,1.7,0.3c-0.9,0.8-1.8,1.6-2.8,2.5c-0.2,0.2-0.4,0.4-1,0.2
		c-2.7-1-5.5-2-8.2-3c0,0-0.1-0.1-0.1-0.1c0.6-0.2,1.2-0.5,1.9-0.7C22.3,19.6,24.2,19.7,26,20.2z"/>
	<path class="st7" d="M35.5,3.4c-2.5,0.5-5.1,0.9-7.6,1.3c-0.5-1.5-1.1-3-1.7-4.5C29.5,1.1,32.5,2.3,35.5,3.4z"/>
	<path class="st2" d="M35.7,39c-1.6-0.8-3.1-1.6-4.7-2.4c-0.3-0.2-0.6-0.3-1-0.5c-0.3,0-0.3-0.1-0.3-0.2c0.9-1.1,1.6-2.2,2.4-3.3
		c0.2-0.2,0.1-0.6,0.9-0.5C34,34.5,34.8,36.8,35.7,39z"/>
	<path class="st2" d="M33.1,32.3c-1.1,0.5-1,1.3-1.7,1.9c-0.6,0.6-0.6,1.3-1.6,1.8c-1.6-0.6-3.1-1.3-4.1-2.3c1.2-0.8,2.7-1.4,4.1-2
		c0.2,0,0.3-0.1,0.5-0.1c0.9-0.1,1.9,0.2,2.7-0.1C33.1,31.8,33.1,32,33.1,32.3z"/>
	<path class="st7" d="M33.6,29.8c2.6-0.9,5.4-1.7,8.3-2.4c0.4,0.4,0,0.8-0.2,1.2c-0.2,0.2,0,0.4,0.3,0.6c0.2,0.2,0.5,0.3,0.2,0.6
		c-1.8,0.3-3.6,0.5-5.3,0.7c-0.6,0.1-1-0.1-1.5-0.2C34.7,30.1,34.3,29.8,33.6,29.8z"/>
	<path class="st3" d="M41.4,28.6c0.2-0.4,0.3-0.8,0.5-1.3c0.1-1.2,2.1-1.4,3.4-2c0.4-0.2,0.6-0.1,0.8,0.1c0.1,0.2,0.3,0.3,0.5,0.5
		c0,0.2,0.2,0.3,0.5,0.3c0.2,0.3,0.5,0.6,0.4,1c0,0.1-0.1,0.1-0.2,0.1c-1.6,0.7-3.5,1-5.3,1.4C41.8,28.9,41.4,28.9,41.4,28.6z"/>
	<path class="st8" d="M34.5,25.9c-0.9-1.2-1.8-2.4-2.7-3.6c-0.2-0.2-0.3-0.4-0.4-0.6c-0.1-0.1,0-0.1,0.2-0.1
		c1.9,1.4,3.8,2.9,5.8,4.3c-0.9,0.5-1.7,1-3.2,0.9C34.1,26.4,34.2,26.1,34.5,25.9z"/>
	<path class="st9" d="M34,45.2c1.4-0.1,2.7-0.3,4-0.4c0.5,0.5,1,1,1.5,1.5c-0.5,0.5-1.3,0.9-2.4,1C35.4,46.9,34.1,46.3,34,45.2z"/>
	<path class="st10" d="M41.4,28.6c0.4,0.2,0.7,0,1-0.1c1.7-0.4,3.3-0.8,5-1.2c-0.6,0.6-1.3,1.1-1.9,1.7c-0.3,0.3-0.9,0.3-1.4,0.4
		c-0.6,0.1-1.3,0.2-1.9,0.3C42.2,29.3,41,29.1,41.4,28.6z"/>
	<path class="st2" d="M30.3,31.9c-0.2,0-0.3,0-0.5,0c-1.2,0.3-2.3,0.2-3.3-0.2c2.3-0.7,4.6-1.4,7.1-2c-0.1,0.2-0.2,0.4-0.3,0.6
		C32.6,31.1,31.4,31.4,30.3,31.9z"/>
	<path class="st11" d="M37.1,47.3c1-0.2,1.6-0.6,2.4-0.9c0.9,0.4,1.8,0.8,2.7,1.2c0.4,0.2,0.4,0.4,0.4,0.6l-0.1,0
		c-1.1-0.3-2.3-0.2-3.4-0.2C38.3,47.9,37.4,47.8,37.1,47.3z"/>
	<path class="st4" d="M43.5,25c-1.2,0.6-2.7,0.8-4,1.3c-0.4-0.2-0.9-0.4-0.7-0.8c1.4-0.4,2.8-0.8,4.2-1.3c0,0,0.1,0,0.1,0.1
		C43.5,24.5,43.9,24.7,43.5,25z"/>
	<path class="st4" d="M34.3,26.7c1-0.3,2.1-0.6,3.1-0.9c0.3-0.1,0.6-0.2,0.9-0.2c0.5,0.2,0.9,0.4,0.7,0.8c-1.4,0.4-2.7,0.9-4.2,1.1
		c-0.6-0.1-0.7-0.4-0.7-0.6C34.2,26.8,34.2,26.8,34.3,26.7z"/>
	<path class="st4" d="M48.3,23.7c-1.1,0.3-2.1,0.6-3.2,0.9c-0.3,0.1-0.7,0.3-1.1,0.1c-0.5-0.1-0.5-0.4-0.9-0.5l0,0
		c0.4-0.1,0.8-0.2,1.2-0.3c0.1,0.1,0.2,0.1,0.2,0c0.9-0.4,2.1-0.6,3.1-0.9C48.1,23.1,48.4,23.4,48.3,23.7z"/>
	<path class="st2" d="M30.3,31.9c0.8-0.6,2.1-1,3.1-1.5c-0.1,0.4-0.2,0.8-0.2,1.3c-0.2,0.3-0.5,0.4-1.1,0.4
		C31.4,31.9,30.9,31.9,30.3,31.9z"/>
	<path class="st12" d="M47.5,27.2c-0.2-0.3-0.9-0.6-0.4-1c0.2-0.1,0.5-0.2,0.7-0.3c0.5-0.2,0.7,0,1,0.1c0.4,0.2,0.1,0.3-0.1,0.4
		C48.3,26.8,47.9,27,47.5,27.2z"/>
	<path class="st5" d="M49.7,23.4c-0.3,0.1-0.6,0.2-0.9,0.2c-0.5-0.2-0.9-0.4-0.7-0.8C49.4,22.3,49.2,23.1,49.7,23.4z"/>
	<path class="st5" d="M48,22.9c0.2,0.3,0.5,0.5,0.7,0.8c-0.1,0-0.3,0.1-0.5,0.1c-0.2-0.3-0.5-0.5-0.7-0.8
		C47.7,22.9,47.8,22.9,48,22.9z"/>
	<path class="st5" d="M39.1,26.4c-0.2-0.3-0.5-0.5-0.7-0.8c0.2,0,0.3-0.1,0.5-0.1c0.2,0.3,0.5,0.5,0.7,0.8
		C39.4,26.3,39.2,26.3,39.1,26.4z"/>
	<path class="st13" d="M31.7,21.5c-0.1,0-0.1,0.1-0.2,0.1C31.1,21.5,31,21.2,31,21C31.2,21.2,31.4,21.3,31.7,21.5z"/>
	<path class="st5" d="M44.5,23.9c0.2,0.1,0.5,0.2,0.2,0.3c-0.3,0.1-0.4-0.1-0.4-0.3C44.3,23.9,44.4,23.9,44.5,23.9z"/>
	<path class="st14" d="M35.9,15.1c-0.1,0-0.2-0.1-0.3-0.1c0.3-0.2,0.6-0.1,1-0.1c0.1,0,0.1,0.1,0.1,0.1c0,0,0,0-0.1,0
		C36.4,15,36.2,15.1,35.9,15.1z"/>
	<path class="st15" d="M36.7,15c0,0,0-0.1,0-0.1c0.3-0.2,0.6-0.2,0.9,0C37.3,14.9,37,14.9,36.7,15z"/>
	<path class="st9" d="M26,20.2c-1.9-0.2-3.8-0.4-5.7-0.6c-1-1.2-2-2.4-3-3.6c-0.1-0.9,0.4-1.8,0.5-2.7c0-0.5-0.4-0.9-0.1-1.4
		c0.5-0.3,1-0.5,1.7-0.6c-0.5-0.6-0.8-1.3-1.3-2c-0.4-0.7-1-1.3-1.4-2c-0.1-0.2-0.4-0.5-0.1-0.7c0.8-0.4,1.9-0.4,2.9-0.6
		c0.5,0.6,1.7,0.9,2.5,1.3c0.3,0.2,0.6,0.2,0.8,0.4c0.4,1.1,0.8,2.2,1.2,3.3c0.2,1.5,0.3,3,0.7,4.5c0,0.2,0,0.4,0.5,0.4
		c-0.7,0.1-1.4,0.2-2,0.2c-0.8,0.1-0.9,0.2-0.5,0.6c1.1,0.9,2,1.9,3.1,2.8C25.9,19.8,26.1,20,26,20.2z"/>
	<path class="st2" d="M25.8,33.8c1.4,0.8,2.7,1.5,4.1,2.2c0.1,0.1,0.2,0.1,0.2,0.1c-1.6,2.4-3.2,4.9-4.7,7.3
		c-0.5,0.8-1.2,1.5-1.4,2.3c-0.8,0.2-0.8-0.2-0.9-0.5c-0.9-1.6-2.1-3.1-2.6-4.8c-0.6-1.2-1.3-2.3-1.9-3.5c1.4-0.9,3.3-1.6,4.9-2.3
		c0.7-0.3,1.3-0.7,2.1-0.9C25.6,33.7,25.7,33.7,25.8,33.8z"/>
	<path class="st7" d="M16.5,6.6c0.6,0.9,1.1,1.8,1.7,2.7c-0.7,0.4-1.8,0.4-2.6,0.5c-2.4,0.4-4.8,0.8-7.3,1c-0.4-0.6,0.2-1.2,0.3-1.8
		C8.7,8.6,8.8,8.2,9,7.7c0.3-0.6,0-0.8-1-0.8c1-0.2,1.2-0.6,1.3-1.1c0-0.2-0.1-0.6,0.6-0.7c0,0.3,0.3,0.4,0.8,0.5
		c1.4,0.2,2.8,0.5,4.3,0.7C15.5,6.3,16.1,6.4,16.5,6.6z"/>
	<path class="st16" d="M14.7,21.4c0.9,0.6,1.2,1.4,1.7,2.1c0.7,1,1.4,2,2,3c-1.2,0.4-2.7,0.5-4,0.8c-2,0.2-3.9,0.6-5.9,0.8
		c-0.5,0.1-1,0.2-1.4,0c1.1-1.2,2.6-2.3,3.9-3.5C12.2,23.5,13.5,22.4,14.7,21.4z"/>
	<path class="st7" d="M7.1,28c2.1-0.1,4.1-0.6,6.1-0.9c0.4-0.1,0.8-0.2,1.2,0c0.3,0.1,0.5,0.3,0.5,0.5c0.5,1.1,1.2,2.1,1.7,3.1
		c0,0.2,0,0.3-0.2,0.4c-1,0.3-2,0.7-3.3,0.6c-1.9-1.1-3.8-2.2-5.6-3.3C7.2,28.4,6.6,28.3,7.1,28z"/>
	<path class="st3" d="M13,31.7c1-0.2,1.9-0.4,2.9-0.6c0.4-0.1,0.4-0.2,0.4-0.4c0.7,0.1,0.9,0.5,1.5,0.7c0.4,0.3,1,0.4,1.3,0.7
		c0.7,0.3,1.4,0.7,2.2,1c0.1,0.1,0,0.2-0.2,0.2c-1.5,0.5-3,0.9-4.5,1.3c-0.3,0.1-0.6,0.1-1,0.1c-0.8-0.3-0.9-0.8-1.3-1.3
		c-0.2-0.3-0.6-0.6-0.5-0.9C13.5,32.3,13.2,32,13,31.7z"/>
	<path class="st17" d="M8.3,10.8c0.9-0.4,2.1-0.4,3.2-0.5c2.3-0.4,4.5-0.6,6.8-0.9c0.4,0.5,0.8,1.1,1.2,1.6c0.2,0.3,0,0.4-0.4,0.5
		c-0.4,0.1-0.8,0.2-1.2,0.4c-0.9-0.1-1.1-0.6-1.5-0.9c-0.5-0.4-0.9-0.5-1.6-0.1c-0.1,0.1-0.3,0.1-0.5,0.2c-1.2,0.5-1.2,0.5-0.5,1.2
		c0.1,0.2,0.3,0.3,0,0.5C11.8,12.2,10.1,11.5,8.3,10.8z"/>
	<path class="st2" d="M21.1,33.3c0.1-0.1,0.1-0.1,0.2-0.1c0.7-0.2,1.4-0.3,2.2-0.5c0.8,0.3,1.9,0.5,2.1,1.1c-0.7,0.6-1.9,1-2.8,1.4
		c-1.4,0.6-2.7,1.3-4.2,1.8c-0.3-0.4-0.5-0.8-0.8-1.2C18.6,34.9,19.8,34,21.1,33.3z"/>
	<path class="st5" d="M20.4,40.5c1.1,1.5,1.8,3.1,2.8,4.7c0.1,0.2,0,0.5,0.7,0.6c0.2,0.2,0.5,0.1,0.8,0.1c-0.2,0.3-0.7,0.3-1.1,0.3
		c-1,0-2,0-2.9,0c-0.4,0-0.9,0-1.2-0.2C19.7,44.2,20,42.3,20.4,40.5z"/>
	<path class="st3" d="M13.7,12.7c0-0.2-0.1-0.3-0.3-0.4c-0.9-0.7-0.9-0.7,0.5-1.3c1.8-0.8,1.8-0.8,3.1,0.2c0.3,0.2,0.5,0.4,0.8,0.6
		c0.1,0.5,0.5,0.9,0.2,1.3c-0.6,0.4-1.4,0.7-2.4,0.8C14.9,13.6,14.5,13.1,13.7,12.7z"/>
	<path class="st17" d="M9.9,5.1C9.5,5.4,9.6,5.8,9.5,6.2c0,0.6-0.6,0.7-1.5,0.7C6.8,6.8,5.5,6.8,4.3,6.7c2-1.2,4.1-2.5,6.1-3.7
		c0.1,0,0.2,0.1,0.3,0.1C10.4,3.8,10.1,4.5,9.9,5.1z"/>
	<path class="st18" d="M19.4,46c1.4,0,2.8,0,4.3,0c0.6,0.3,0.8,0.7,0.8,1.1c-1.4,0.6-3.1,0.9-4.8,1.3c-0.2,0.1-0.5,0-0.6-0.1
		c-0.4-0.7,0.3-1.4,0.2-2.1C19.3,46.2,19.3,46.1,19.4,46z"/>
	<path class="st4" d="M14.4,33.5c0.4,0.4,0.8,0.9,1.2,1.3l0,0.1c-1,0.3-2,0.5-3,0.8c-0.5,0.2-0.8,0.1-1-0.2c-0.3-0.3-0.6-0.7-0.9-1
		c-0.1-0.3,0.3-0.3,0.6-0.4c0.2-0.1,0.4-0.1,0.6-0.2C12.7,33.8,13.3,33.3,14.4,33.5z"/>
	<path class="st19" d="M19.2,46.2c0.5,0.4,0.1,0.9,0.1,1.3c0,0.3-0.1,0.5-0.1,0.8c1.7-0.1,3.3-0.1,5-0.1c0.4,0,0.9,0,1.3,0.1
		c0.4,0.1,0.5,0.2,0.5,0.4c0,0.2-0.1,0.3-0.5,0.3c-2.2,0-4.3,0.1-6.4-0.1c0-0.4-0.7-0.7-0.8-1.1C18,47.2,18.9,46.8,19.2,46.2z"/>
	<path class="st10" d="M15.6,34.8L15.6,34.8c1.8-0.6,3.7-1.1,5.5-1.6c-0.9,0.9-2,1.7-3.3,2.5C17,35.5,16.3,35.2,15.6,34.8z"/>
	<path class="st20" d="M15.6,14c0.8-0.3,1.6-0.5,2.4-0.8c0.1,1-0.3,1.9-0.7,2.8C16.7,15.3,16.1,14.7,15.6,14z"/>
	<path class="st4" d="M14.4,33.5c-0.9,0.1-1.7,0.4-2.6,0.6c-0.4-0.2-0.8-0.4-0.5-0.8c0.7-0.4,1.6-0.5,2.4-0.8
		C14,32.9,14.3,33.2,14.4,33.5z"/>
	<path class="st4" d="M11.4,34.2c-0.2,0.1-0.5,0.2-0.7,0.3c-0.2-0.3-1.5-0.7,0-1C11.2,33.7,11.4,33.9,11.4,34.2z"/>
	<path class="st5" d="M11.4,34.2c-0.2-0.2-0.5-0.5-0.7-0.7c0.2-0.1,0.4-0.2,0.7-0.1c0.2,0.3,0.3,0.5,0.5,0.8
		C11.7,34.2,11.5,34.2,11.4,34.2z"/>
	<path class="st0" d="M0.4,8.4c0.1,0.1,0.1,0.2,0.2,0.3C0.6,8.8,0.4,8.9,0.1,8.8C0,8.8,0.2,8.5,0.4,8.4z"/>
	<path class="st7" d="M32.9,47.2c-0.3-0.7-0.1-1.3,0.4-2c0.2,0,0.5,0,0.7,0c0.5,0.9,1.6,1.6,3.1,2c1.1,0.7,2.7,0.4,4.1,0.5
		c0.6,0,1.2,0,1.4,0.4c0.1,0.3-0.4,0.3-0.7,0.3c-1.4,0-2.7,0-4.1,0c-0.9,0-1.5-0.4-2.3-0.6c-0.5-0.2-0.9-0.3-1,0.2
		c0,0.2-0.1,0.4-0.7,0.4c-0.6,0-0.5-0.3-0.6-0.5C33.1,47.7,33.2,47.4,32.9,47.2z"/>
	<path class="st21" d="M24.3,47.1c0.1,0.1,0.3,0.2,0.4,0.3c0.4,0.3,0.7,0.6,1,0.9c0.6,0.5,0.3,0.8-0.8,0.8c-1.7,0-3.5,0-5.2,0
		c-0.3,0-0.6,0.1-0.8-0.1c2,0,3.9,0,5.9,0c0.4,0,0.9,0.1,0.9-0.3c0-0.3-0.5-0.2-0.9-0.2c-1.5,0-3.1,0-4.6,0c-0.4,0-0.8,0.1-1.1-0.1
		C21,48.1,22.6,47.6,24.3,47.1z"/>
	<path class="st2" d="M34.5,25.9c0.1,0.3-0.1,0.6-0.2,0.9l-0.1,0c-0.1,0.2-0.3,0.3-0.6,0.3c-0.2,0.1-0.5,0.1-0.7,0.2
		c-0.1,0-0.3,0.1-0.4,0.1c-0.5,0.2-1,0.4-1.6,0.5c-0.1,0-0.3,0.1-0.4,0.1c-0.3,0.1-0.6,0.2-0.9,0.3c-0.2,0.1-0.3,0.1-0.5,0.2
		c-0.6,0.2-1.1,0.4-1.7,0.5c-0.1,0-0.3,0.1-0.4,0.1c-0.3,0.1-0.6,0.2-0.9,0.3c-0.2,0-0.4,0.1-0.5,0.1c-0.2,0.1-0.3,0.1-0.5,0.2
		c-0.3,0.1-0.5,0.2-0.8,0.2c-0.9,0.3-1.7,0.6-2.7,0.8c-0.2,0-0.3,0.1-0.5,0.1c-0.2,0-0.4,0-0.5-0.1c-1-1.1-1.4-2.4-2.1-3.6
		c0-0.1,0-0.2,0.1-0.3c0-0.3,0.4-0.3,0.8-0.3c1.8-0.1,3.7-0.2,5.5-0.2C28.1,26.1,31.3,26,34.5,25.9z"/>
	<path class="st22" d="M32.2,10.4c-0.3-0.8-0.5-1.6-0.9-2.4c-0.2-0.5,0.3-0.5,0.9-0.6c0.7-0.1,1,0,1.2,0.4c0.3,0.8,0.7,1.5,1,2.2
		c0.3,0.2,0.5,0.3,0.2,0.5c0,0.3,0.5,0.5,0.2,0.8c-0.5,0.4-1.1,0.3-1.8,0.1c-0.5-0.1-0.2-0.4-0.5-0.5C32.1,10.7,32,10.6,32.2,10.4z"
		/>
	<path class="st5" d="M26.7,13c2.3,0,4.6-0.3,6.7,0.5c-0.7,0.2-1.4,0.2-2.1,0.2c-0.7,0.1-1.5,0.1-2.2,0.2c-0.4,0-0.7,0-0.9-0.2
		C27.8,13.4,27.3,13.1,26.7,13z"/>
	<path class="st23" d="M32.2,10.4c0.1,0.2,0.2,0.4,0.3,0.5c-0.2,0-0.4,0.1-0.5,0.1c-2.6-0.1-5.2,0.1-7.8,0.1
		C26.8,10.9,29.5,10.6,32.2,10.4z"/>
	<path class="st24" d="M34.5,10.5c-0.1-0.2-0.1-0.3-0.2-0.5c1.2-0.2,2.3-0.3,3.5-0.5c-0.7,0.4-1.7,0.6-2.6,1
		C35.1,10.6,34.8,10.6,34.5,10.5z"/>
	<path class="st25" d="M32.9,11.4c0.6,0,1.2,0,1.8-0.1c0,0.1,0,0.2-0.1,0.2c-0.2,0.2-0.4,0.6-0.8,0.5C33.4,12,32.9,11.7,32.9,11.4z"
		/>
	<path class="st2" d="M25.5,33.8c-0.5-0.5-1.6-0.7-2.1-1.1c0.9-0.4,2.1-0.6,3.1-0.9c1.1,0.1,2.2,0.1,3.3,0.2
		c-1.4,0.6-2.7,1.2-4.1,1.9C25.7,33.8,25.6,33.8,25.5,33.8z"/>
	<path class="st4" d="M20.3,30.8c0.2-0.1,0.3-0.2,0.5-0.3c0.1,0,0.3,0,0.5,0c0.3,0.1,0.1-0.1,0.3-0.1c0.9-0.3,1.9-0.5,2.8-0.8
		c0.7,0.1,0.9,0.3,0.7,0.6c-1.2,0.6-2.7,0.9-4,1.3C20.5,31.3,20.2,31.1,20.3,30.8z"/>
	<path class="st4" d="M32.9,27.1c0.2-0.1,0.5-0.1,0.7-0.2c0.7,0.1,0.8,0.3,0.7,0.7c-1.2,0.5-2.7,0.9-4,1.3c-0.5-0.2-0.8-0.4-0.7-0.8
		c0.3-0.1,0.6-0.2,0.9-0.3c0.1,0.1,0.2,0.2,0.3,0.3c0-0.2-0.3-0.3,0-0.4c0.6-0.2,1.3-0.3,1.9-0.5C32.9,27.3,32.7,27.1,32.9,27.1z"/>
	<path class="st4" d="M26,29.1c0.3-0.1,0.5-0.3,0.9-0.3c0.1,0,0.1,0.1,0.2,0.1c-0.1-0.1-0.1-0.2,0-0.3c0.6-0.2,1.2-0.3,1.8-0.5
		c0.6,0.2,0.8,0.4,0.7,0.7c-1.4,0.4-2.7,0.9-4.2,1.1c-0.5-0.2-0.8-0.4-0.5-0.7c0.2,0,0.3-0.1,0.5-0.1C25.7,29.2,26,29.4,26,29.1z"/>
	<path class="st4" d="M17.7,31.5c0.7-0.2,1.4-0.4,2.2-0.6c0.5,0.2,0.8,0.4,0.7,0.7c-0.5,0.2-0.9,0.4-1.4,0.5
		C18.6,32,18.1,31.8,17.7,31.5z"/>
	<path class="st5" d="M25.1,29.4c0.2,0.3,0.4,0.5,0.5,0.7c-0.1,0.1-0.3,0.1-0.5,0.1c-0.1-0.3-0.4-0.5-0.7-0.6
		C24.6,29.5,24.8,29.5,25.1,29.4z"/>
	<path class="st5" d="M34.3,27.6c-0.2-0.2-0.5-0.4-0.7-0.7c0.2-0.1,0.5-0.2,0.7-0.2c0,0.3,0.3,0.5,0.5,0.8
		C34.7,27.6,34.5,27.6,34.3,27.6z"/>
	<path class="st5" d="M20.6,31.6c-0.2-0.3-0.5-0.5-0.7-0.7c0.1,0,0.3-0.1,0.5-0.1c0.2,0.2,0.5,0.5,0.7,0.7
		C20.9,31.5,20.7,31.6,20.6,31.6z"/>
	<path class="st5" d="M29.8,29c-0.2-0.3-0.5-0.5-0.7-0.7c0.2-0.1,0.3-0.1,0.5-0.1c0.2,0.3,0.5,0.5,0.7,0.8C30.1,28.9,30,29,29.8,29z
		"/>
	<path class="st5" d="M43.1,24.3c0.7,0,0.6,0.3,0.9,0.5c0,0.2-0.1,0.3-0.5,0.2C43.5,24.7,43,24.5,43.1,24.3z"/>
	<path class="st26" d="M30.2,8.4c0.6,1.3,0.6,1.3-1.9,1.5c-0.9,0.1-1.9,0.2-2.8,0.3c-0.4,0-0.5,0-0.6-0.2C25,9.8,25,9.6,25.1,9.5
		C25.9,8.2,27.7,7.8,30.2,8.4z"/>
	<path class="st27" d="M37.9,8.7c-0.7-0.6-1.1-1.2-0.7-1.9"/>
	<path class="st23" d="M30.2,8.4c-0.6,0-1.2,0-1.8,0c-2.1,0-2.1,0-2.9,1.1c-0.2,0.2-0.3,0.4-0.6,0.6c-0.1-0.5-0.3-0.9-0.5-1.3
		c-0.1-0.2,0-0.4,0.6-0.4c1.4-0.2,2.9-0.3,4.3-0.5C30.4,7.6,29.9,8.2,30.2,8.4z"/>
	<path class="st28" d="M37.2,6.8c0.2,0.6,0.5,1.3,0.7,1.9c-0.1,0-0.1,0-0.2,0.1c-2.9,0.5-2.3,0.8-3.2-1c0.1-0.2,0.3-0.3,0.8-0.3
		c0.1,0,0.1,0.1,0.2,0.2c0.2,0.2,0,0.6,0.7,0.5c0.5-0.1,0.4-0.3,0.1-0.5c-0.2-0.1-0.5-0.1-0.6-0.3c0-0.4,0.7-0.3,1-0.5
		C36.8,6.9,37,6.8,37.2,6.8z"/>
	<path class="st29" d="M25.6,6.6c1.3,0.1,2.5,0.1,3.7,0.2c0.1,0.1,0,0.2-0.2,0.2c-0.9,0.1-1.8,0.2-2.6,0.3c-0.5-0.2-1.1-0.3-1.6-0.5
		C24.9,6.4,25.3,6.6,25.6,6.6z"/>
	<path class="st30" d="M36.7,6.9c-0.2,0.2-0.8,0.2-0.9,0.5c-0.1,0.1-0.3,0.1-0.5,0.1c-0.2,0.1-0.5,0.2-0.7,0.2
		c-0.5-0.4-0.3-0.6,0.6-0.7C35.6,7,36.2,6.9,36.7,6.9z"/>
	<path class="st31" d="M29.1,7c0.1-0.1,0.1-0.1,0.2-0.2c0.2,0,0.5,0,0.7,0C29.8,6.9,29.5,7,29.1,7z"/>
	<path class="st32" d="M35.8,5.1c-1.1,0.3-2,0.5-3,0.8C33.5,5,34.1,4.8,35.8,5.1z"/>
	<path class="st33" d="M25.6,6.6c-0.2,0.1-0.5,0-0.7,0.1c-0.2,0-0.5-0.1-0.3-0.2C24.9,6.4,25.2,6.5,25.6,6.6z"/>
	<path class="st5" d="M45.8,23.8c0.1,0.1,0.2,0.1,0.3,0.2c0,0.1,0,0.1-0.2,0.1c-0.1,0-0.2-0.1-0.3-0.2
		C45.7,23.8,45.7,23.8,45.8,23.8z"/>
	<path class="st34" d="M16.3,12.3c-0.8-0.1-1.4-0.1-2-0.3C15.4,11.2,15.4,11.2,16.3,12.3z"/>
	<path class="st35" d="M13.1,34.7c0,0.2-0.2,0.3-0.5,0.3c-0.3,0-0.5-0.1-0.5-0.3c0-0.2,0.2-0.3,0.5-0.3
		C12.9,34.5,13.1,34.6,13.1,34.7z"/>
	<path class="st5" d="M26,29.1c0,0.2,0.5,0.2,0.2,0.5c-0.2-0.1-0.5-0.2-0.7-0.3C25.7,29.2,25.9,29.1,26,29.1z"/>
	<path class="st5" d="M27.2,28.8c0.1,0.2,0.2,0.4,0.3,0.6c-0.5-0.1-0.5-0.3-0.6-0.5C27.1,28.9,27.1,28.8,27.2,28.8z"/>
	<path class="st5" d="M30.8,27.8c-0.1,0.2,0.3,0.3,0.1,0.5c-0.3-0.1-0.4-0.2-0.4-0.4C30.6,27.8,30.7,27.8,30.8,27.8z"/>
	<path class="st36" d="M21.5,30.4c0,0.1,0.1,0.3,0.2,0.4c-0.3-0.1-0.4-0.2-0.4-0.3C21.4,30.5,21.4,30.4,21.5,30.4z"/>
	<path class="st5" d="M32.9,27.1c0,0.1,0.1,0.3,0.2,0.4c-0.3-0.1-0.4-0.2-0.4-0.3C32.7,27.2,32.8,27.2,32.9,27.1z"/>
	<path class="st37" d="M28,8.5c0.5,0,0.9,0.2,0.9,0.5c0,0.3-0.3,0.4-0.8,0.4c-0.5,0-0.8-0.1-0.9-0.4C27.1,8.7,27.4,8.6,28,8.5z"/>
	<path class="st38" d="M36.4,7.5c0.5,0.2,0.7,0.4,0.3,0.7c-0.2,0.2-0.5,0.3-0.9,0.2c-0.7-0.1-0.7-0.4-0.5-0.7
		C35.5,7.4,36,7.4,36.4,7.5z"/>
	<path class="st39" d="M36.4,7.5c-0.4,0-0.8,0-1.2,0.2c0,0,0-0.1,0-0.1c0.1-0.1,0.3-0.1,0.5-0.1C36,7.4,36.3,7.4,36.4,7.5z"/>
</g>
</svg>
