<?xml version="1.0" encoding="utf-8"?>
<!-- Generator: Adobe Illustrator 23.1.0, SVG Export Plug-In . SVG Version: 6.00 Build 0)  -->
<svg version="1.1" id="Capa_1" xmlns="http://www.w3.org/2000/svg" xmlns:xlink="http://www.w3.org/1999/xlink" x="0px" y="0px"
	 viewBox="0 0 81.3 148.5" style="enable-background:new 0 0 81.3 148.5;" xml:space="preserve">
<style type="text/css">
	.st0{fill:#6F7173;}
	.st1{fill:#E8E8E8;}
	.st2{fill:#734C5F;}
	.st3{fill:#DEBCA4;}
	.st4{fill:#95637C;}
	.st5{fill:#543042;}
	.st6{fill:#8B6651;}
	.st7{fill:#474747;}
	.st8{fill:#8F8F8F;}
	.st9{fill:#C2977B;}
	.st10{fill:#8B6752;}
	.st11{fill:#6F7172;}
	.st12{fill:#C49A7E;}
	.st13{fill:#8A9898;}
	.st14{fill:#9B7A66;}
	.st15{fill:#AA8975;}
	.st16{fill:#8E8E8E;}
	.st17{fill:#2B2B2B;}
	.st18{fill:#C2977A;}
	.st19{fill:#4B4B4B;}
	.st20{fill:#8C6752;}
	.st21{fill:#6E7071;}
	.st22{fill:#E6C9B5;}
	.st23{fill:#C0987C;}
	.st24{fill:#C1997D;}
	.st25{fill:#926E58;}
	.st26{fill:#DCBBA4;}
	.st27{fill:#FCFDFD;}
	.st28{fill:#DBBBA4;}
	.st29{fill:#313131;}
	.st30{fill:#BD987E;}
	.st31{fill:#52605D;}
	.st32{fill:#393634;}
	.st33{fill:#8E7C70;}
	.st34{fill:#906B56;}
	.st35{fill:#EFF8FA;}
	.st36{fill:#3794AA;}
	.st37{fill:#302F2F;}
	.st38{fill:#31302F;}
	.st39{fill:#C6A792;}
</style>
<g>
	<path class="st0" d="M-0.2,18.8c-2.5,1.5-4.1,3.9-6.4,5.7c-0.7,0-0.5-0.3-0.4-0.9c1.1-4.5,3-9,4.4-13.8c0.7-2.1,1.6-4.2,2.3-6.6
		C0,2.3,0.4,2.3,1.2,2.6c3,1.5,6.1,2.7,8.9,4.2c0.5,0.3,1.1,0.6,2,0.3C20.8,4.4,29.5,1.7,38.3-1c0.2,0,0.2-0.3,0.4-0.3s0.4,0,0.4,0
		V-1c0.4,0.3,0.7,0.6,0.7,1.2c0.9,4.2,2.1,8.1,2.5,12.3c-0.4,0.9-1.4,1.2-2.3,1.2c-4.3,1.2-8.4,2.4-12.6,3.3
		c-1.8,0.6-3.7,1.2-5.5,1.5c-3.4-0.9-6.8-1.8-10.1-2.7c-0.9-0.3-2-0.6-2-1.5c-0.2-1.8,0.7-3.6,0.9-5.4c-2.8,3-5.7,5.7-8.5,8.4
		C1.4,17.9,0.7,18.5-0.2,18.8z"/>
	<path class="st1" d="M42.5,148.7c-3-1.2-6.2-0.9-9.4-1.5c-7.3-1.2-14.8-1.8-22.8-3c4.4-0.9,8.5-1.2,12.6-1.8c0.7,0,1.2,0,1.8-0.3
		c1.1,0.9,1.1,2.1,2.1,3c3.4,0.6,6.8,0.3,10.3,0.3c1.2,0,0.9-0.9,0.5-1.8c-0.5-0.9-1.8-1.8-1.1-3c4.6-1.2,9.4-1.8,14.2-0.6
		c1.4,0.6,0.9,2.1,1.8,2.7c1.1-0.3,0.9-1.8,2.1-1.5c1.1,0,1.8,0.6,2.7,1.2s2,0.9,3,0.9c2.5,0,5.2,0.3,7.7-0.3c0,0,0.2,0,0.4,0
		c3.4,0.6,6.6,0.9,10,1.5v0.3c-7.8,0.9-15.7,1.8-23.3,2.7c-2.3,0.3-4.6,0.3-6.9,1.2C46.1,148.7,44.3,148.7,42.5,148.7z"/>
	<path class="st2" d="M55.9,115.7c1.4,6,2.7,11.7,4.1,17.7c-1.1,1.2-2.5,0.9-3.9,1.2c-1.1,0.3-2.1,0.3-3,0.6c-0.5,0-0.9,0-1.4,0
		c-5.2,0.6-10.1,1.8-15.3,1.8c-0.5,0-1.2-0.3-1.6-0.6c-0.4-0.9-0.2-1.5,0.2-2.1c3.4-8.4,6.4-17.1,9.8-25.5c0.2-0.6,0.4-0.9,0.9-1.2
		c0.5-0.3,0.9-0.3,1.4,0C49.8,110,53.4,112.4,55.9,115.7z"/>
	<path class="st2" d="M18.5,62.9c2-1.5,4.4-2.1,6.6-3.3c1.8,0.6,3.2,1.8,4.8,2.7c3,2.1,6.4,3.6,9.3,5.7c1.1,0.9,2,0.6,2.7-0.6
		c1.1-1.8,2.3-3.3,3.4-5.1c0.4-0.6,0.5-1.2,1.4-1.2c0.4,0,0.7,0.3,0.7,0.9c0.2,0.6,0.7,1.2,1.1,2.1c2,3.6,3.6,7.5,5.2,11.4
		c0.2,0.6,0.5,1.2-0.4,1.8c-1.2,0.3-2.5,0.6-3.9,0.6c-6.6,0-13.2,0.9-19.8,0.9c-1.4,0-2.7,0.3-3.9,0.6c-0.5,0-0.9-0.3-1.1-0.6
		c-1.8-4.5-3.9-9-5.7-13.8C18.9,63.8,18.5,63.2,18.5,62.9z"/>
	<path class="st3" d="M60.1,27.2c0.4,4.8,0.7,9.6,1.1,14.7c0,1.2-1.2,1.2-2,1.5c-0.7-0.3-1.2,0-2,0.3c-0.7,0-1.2,0.3-1.8,0.3
		c-5.2,1.2-10.7,2.1-15.8,3c-1.1,0.3-2,0.3-3,0.3c-1.1-0.3-1.2-1.2-1.4-2.1c-0.4-3.9-0.7-7.5-1.1-11.4c0-0.6,0-0.9,0.4-1.5
		c0.2-0.3,0.4-0.3,0.7-0.3c4.8-0.6,9.6-0.6,14.4-0.6c1.1,0,1.2,0.6,1.6,1.5c0.4,0.9,0.5,1.5,1.4,1.5s0.9-0.9,1.2-1.5
		c0.4-0.9-0.5-1.5,0-2.4c2.1-0.6,3.9-2.1,5.9-3C59.8,27.2,60,27.2,60.1,27.2z"/>
	<path class="st4" d="M80.8,68.9c2.5,3.9,2.5,3.9-1.8,6c-1.2,0.6-2.5,1.2-3.6,1.8c-2.1-1.5-2.1-1.2-4.8,0.3c-2,0.9-2.5,2.7-3.4,4.2
		c-4.3,2.4-8.7,4.2-13.2,6.6c-0.5,0.3-1.2,0-1.8,0.6l0,0c-3.2,2.1-7.1,3.6-10.5,5.4c-0.5,0.3-1.2,0.6-1.8,0.9
		c-1.8,0.9-3.7,1.8-5.5,2.7c-1.2,0.6-2.5,1.5-3.9,1.5c-1.6-0.9-3.2-1.5-4.1-3.3c0.4-1.2,1.6-1.2,2.5-1.8c0.4-0.3,0.7-0.3,1.1-0.6
		c2.5-0.9,4.8-2.4,7.1-3.6c0.4-0.3,0.7-0.3,1.1-0.6c2.5-0.9,4.8-2.1,7.3-3.3c0.4-0.3,0.7-0.3,1.1-0.6c2.5-1.2,4.8-2.4,7.1-3.6
		c0.4-0.3,0.7-0.3,1.1-0.6c2.5-0.9,4.8-2.4,7.3-3.3c0.4-0.3,0.7-0.3,1.1-0.6c2.3-1.2,4.8-2.1,7.1-3.6c0.4-0.3,0.7-0.6,1.1-0.9
		c2.7-0.6,4.6-2.4,7.1-3.3c0.4-0.3,0.7-0.3,1.1-0.3C79.5,68.9,80.1,68.6,80.8,68.9z"/>
	<path class="st5" d="M60.1,27.2c-0.2,0-0.4,0-0.5,0c-2,0.9-3.9,1.8-6.4,1.5c-1.1-1.5-1.1-3.3-1.8-5.1c-0.2-0.6-0.4-0.9-0.4-1.5
		c-0.2-0.9-0.9-1.2-1.8-0.9s-1.1,0.6-0.9,1.5c0.4,1.8,0.9,3.3,1.2,5.1c0.2,0.6,0.5,1.5-0.2,2.1c-4.3,1.2-8.7,1.2-13,1.8
		c-0.4,0-0.9,0-1.2,0.3h-0.2h-0.2c-0.4-0.3-0.7-0.6-0.7-0.9c-0.5-3-1.6-6-1.6-9.3c1.1-1.2,2.7-1.2,4.1-1.5c0.9-0.3,1.8-0.3,2.7-0.6
		c1.6,0,3.2-0.3,4.6-0.6c0.9,0,1.4-0.6,2.1-0.6c3-0.6,6.1-1.2,9.3-1.8c0.9-0.3,1.6-0.6,2.5,0c1.6-0.3,3.4-0.6,5-0.9
		c1.1-0.3,1.6,0,1.8,0.9c0.5,2.7,1.1,5.1,1.6,7.8c0.2,0.9,0,1.2-1.1,1.5C63.3,26.3,61.7,26.9,60.1,27.2z"/>
	<path class="st3" d="M39.5,20.3c-2.1,0.6-4.4,1.2-6.6,1.5c-2.5-0.9-3.9-2.7-5.7-4.2c-0.4-0.3-0.5-0.6-0.2-1.2
		c5-1.5,10.1-2.7,15.1-4.2c0.7-0.6,1.6-0.9,2.5-1.2c3.7-0.9,7.1-2.4,11-2.7c1.2,2.4,1.6,5.1,2.1,7.8c-3.9,1.2-7.8,1.8-11.9,2.4
		c-0.5,0-0.9,0-1.4,0.3c-2,0.3-4.1,0-6.1-0.3c-0.4,0-0.7-0.3-1.1-0.3c-0.2,0-0.5,0-0.2,0l0,0C38.1,19.4,39.3,19.4,39.5,20.3z"/>
	<path class="st6" d="M37,46.7c5.7-0.9,11.2-1.8,16.9-3c0.7,0,1.4-0.3,2.1-0.3c0.4-0.3,0.5,0,0.5,0.3c-3.4,0.9-6.6,2.1-10,3
		c-1.1,0.3-1.4,0.6-1.4,1.8c-0.4,3.9-0.9,7.8-1.2,11.7c-1.8,0.9-3.4,0-5-0.6c-2.1-3.6-4.4-6.9-6.6-10.2c-0.9-1.5-0.5-2.1,1.2-2.4
		C34.7,46.7,35.8,47,37,46.7z"/>
	<path class="st7" d="M38.6,59.3c1.6,0.3,3.4,0.6,5.2,0.9c1.1,0.3,2,0.6,3,0.9c-1.6,2.4-3.2,4.8-5,7.5c-0.4,0.6-0.7,1.2-1.8,0.6
		c-4.8-3-9.8-6-14.6-9l-0.2-0.3c1.1-0.6,2.1-1.5,3.4-2.1C32,57.5,35.4,57.8,38.6,59.3z"/>
	<path class="st7" d="M55.5,8.9c-4.4,1.5-9.1,2.7-13.5,3.9c-0.9-4.5-2-9-3-13.5C44.8,2,50.2,5.6,55.5,8.9z"/>
	<path class="st2" d="M55.9,115.7c-2.8-2.4-5.5-4.8-8.4-7.2c-0.5-0.6-1.1-0.9-1.8-1.5c-0.5,0-0.5-0.3-0.5-0.6
		c1.6-3.3,2.8-6.6,4.3-9.9c0.4-0.6,0.2-1.8,1.6-1.5C52.9,102.2,54.3,109.1,55.9,115.7z"/>
	<path class="st2" d="M51.2,95.6c-2,1.5-1.8,3.9-3,5.7c-1.1,1.8-1.1,3.9-2.8,5.4c-2.8-1.8-5.5-3.9-7.3-6.9c2.1-2.4,4.8-4.2,7.3-6
		c0.4,0,0.5-0.3,0.9-0.3c1.6-0.3,3.4,0.6,4.8-0.3C51.2,94.1,51.2,94.7,51.2,95.6z"/>
	<path class="st7" d="M52.1,88.1c4.6-2.7,9.6-5.1,14.8-7.2c0.7,1.2,0,2.4-0.4,3.6c-0.4,0.6,0,1.2,0.5,1.8c0.4,0.6,0.9,0.9,0.4,1.8
		C64.2,89,61,89.6,58,90.2c-1.1,0.3-1.8-0.3-2.7-0.6C54.1,89,53.4,88.1,52.1,88.1z"/>
	<path class="st3" d="M66,84.5c0.4-1.2,0.5-2.4,0.9-3.9c0.2-3.6,3.7-4.2,6.1-6c0.7-0.6,1.1-0.3,1.4,0.3c0.2,0.6,0.5,0.9,0.9,1.5
		c0,0.6,0.4,0.9,0.9,0.9c0.4,0.9,0.9,1.8,0.7,3c0,0.3-0.2,0.3-0.4,0.3c-2.8,2.1-6.2,3-9.4,4.2C66.7,85.4,66,85.4,66,84.5z"/>
	<path class="st8" d="M53.7,76.4c-1.6-3.6-3.2-7.2-4.8-10.8c-0.4-0.6-0.5-1.2-0.7-1.8c-0.2-0.3,0-0.3,0.4-0.3
		c3.4,4.2,6.8,8.7,10.3,12.9c-1.6,1.5-3,3-5.7,2.7C53,77.9,53.2,77,53.7,76.4z"/>
	<path class="st9" d="M52.9,134.3c2.5-0.3,4.8-0.9,7.1-1.2c0.9,1.5,1.8,3,2.7,4.5c-0.9,1.5-2.3,2.7-4.3,3
		C55.3,139.4,53,137.6,52.9,134.3z"/>
	<path class="st10" d="M66,84.5c0.7,0.6,1.2,0,1.8-0.3c3-1.2,5.9-2.4,8.9-3.6c-1.1,1.8-2.3,3.3-3.4,5.1c-0.5,0.9-1.6,0.9-2.5,1.2
		c-1.1,0.3-2.3,0.6-3.4,0.9C67.4,86.6,65.3,86,66,84.5z"/>
	<path class="st2" d="M46.3,94.4c-0.4,0-0.5,0-0.9,0c-2.1,0.9-4.1,0.6-5.9-0.6c4.1-2.1,8.2-4.2,12.6-6c-0.2,0.6-0.4,1.2-0.5,1.8
		C50.4,92,48.2,92.9,46.3,94.4z"/>
	<path class="st11" d="M58.4,140.6c1.8-0.6,2.8-1.8,4.3-2.7c1.6,1.2,3.2,2.4,4.8,3.6c0.7,0.6,0.7,1.2,0.7,1.8H68
		c-2-0.9-4.1-0.6-6.1-0.6C60.5,142.4,58.9,142.1,58.4,140.6z"/>
	<path class="st4" d="M69.8,73.7c-2.1,1.8-4.8,2.4-7.1,3.9c-0.7-0.6-1.6-1.2-1.2-2.4c2.5-1.2,5-2.4,7.5-3.9c0,0,0.2,0,0.2,0.3
		C69.8,72.2,70.5,72.8,69.8,73.7z"/>
	<path class="st4" d="M53.4,78.8c1.8-0.9,3.7-1.8,5.5-2.7c0.5-0.3,1.1-0.6,1.6-0.6c0.9,0.6,1.6,1.2,1.2,2.4
		c-2.5,1.2-4.8,2.7-7.5,3.3C53.2,80.9,53,80,53,79.4C53.2,79.1,53.2,79.1,53.4,78.8z"/>
	<path class="st4" d="M78.3,69.8c-2,0.9-3.7,1.8-5.7,2.7c-0.5,0.3-1.2,0.9-2,0.3c-0.9-0.3-0.9-1.2-1.6-1.5l0,0
		c0.7-0.3,1.4-0.6,2.1-0.9c0.2,0.3,0.4,0.3,0.4,0c1.6-1.2,3.7-1.8,5.5-2.7C77.9,68,78.5,68.9,78.3,69.8z"/>
	<path class="st2" d="M46.3,94.4c1.4-1.8,3.7-3,5.5-4.5c-0.2,1.2-0.4,2.4-0.4,3.9c-0.4,0.9-0.9,1.2-2,1.2
		C48.2,94.4,47.3,94.4,46.3,94.4z"/>
	<path class="st12" d="M76.9,80.3c-0.4-0.9-1.6-1.8-0.7-3c0.4-0.3,0.9-0.6,1.2-0.9c0.9-0.6,1.2,0,1.8,0.3c0.7,0.6,0.2,0.9-0.2,1.2
		C78.3,79.1,77.6,79.7,76.9,80.3z"/>
	<path class="st5" d="M80.8,68.9c-0.5,0.3-1.1,0.6-1.6,0.6c-0.9-0.6-1.6-1.2-1.2-2.4C80.3,65.6,79.9,68,80.8,68.9z"/>
	<path class="st5" d="M77.8,67.4c0.4,0.9,0.9,1.5,1.2,2.4c-0.2,0-0.5,0.3-0.9,0.3c-0.4-0.9-0.9-1.5-1.2-2.4
		C77.2,67.4,77.4,67.4,77.8,67.4z"/>
	<path class="st5" d="M61.9,77.9c-0.4-0.9-0.9-1.5-1.2-2.4c0.4,0,0.5-0.3,0.9-0.3c0.4,0.9,0.9,1.5,1.2,2.4
		C62.5,77.6,62.1,77.6,61.9,77.9z"/>
	<path class="st13" d="M48.8,63.2c-0.2,0-0.2,0.3-0.4,0.3c-0.7-0.3-0.9-1.2-0.9-1.8C47.9,62.3,48.2,62.6,48.8,63.2z"/>
	<path class="st5" d="M71.5,70.4c0.4,0.3,0.9,0.6,0.4,0.9c-0.5,0.3-0.7-0.3-0.7-0.9C71.2,70.4,71.4,70.4,71.5,70.4z"/>
	<path class="st14" d="M56.2,44c-0.2,0-0.4-0.3-0.5-0.3c0.5-0.6,1.1-0.3,1.8-0.3c0.2,0,0.2,0.3,0.2,0.3s0,0-0.2,0
		C57.1,43.7,56.8,44,56.2,44z"/>
	<path class="st15" d="M57.7,43.7v-0.3c0.5-0.6,1.1-0.6,1.6,0C58.7,43.4,58.2,43.4,57.7,43.7z"/>
	<path class="st9" d="M38.6,59.3c-3.4-0.6-6.8-1.2-10.1-1.8c-1.8-3.6-3.6-7.2-5.3-10.8C23,44,23.8,41.3,24,38.6
		c0-1.5-0.7-2.7-0.2-4.2c0.9-0.9,1.8-1.5,3-1.8c-0.9-1.8-1.4-3.9-2.3-6c-0.7-2.1-1.8-3.9-2.5-6c-0.2-0.6-0.7-1.5-0.2-2.1
		c1.4-1.2,3.4-1.2,5.2-1.8c0.9,1.8,3,2.7,4.4,3.9c0.5,0.6,1.1,0.6,1.4,1.2c0.7,3.3,1.4,6.6,2.1,9.9c0.4,4.5,0.5,9,1.2,13.5
		c0,0.6,0,1.2,0.9,1.2c-1.2,0.3-2.5,0.6-3.6,0.6c-1.4,0.3-1.6,0.6-0.9,1.8c2,2.7,3.6,5.7,5.5,8.4C38.4,58.1,38.8,58.7,38.6,59.3z"/>
	<path class="st2" d="M38.3,100.1c2.5,2.4,4.8,4.5,7.3,6.6c0.2,0.3,0.4,0.3,0.4,0.3c-2.8,7.2-5.7,14.7-8.4,21.9
		c-0.9,2.4-2.1,4.5-2.5,6.9c-1.4,0.6-1.4-0.6-1.6-1.5c-1.6-4.8-3.7-9.3-4.6-14.4c-1.1-3.6-2.3-6.9-3.4-10.5c2.5-2.7,5.9-4.8,8.7-6.9
		c1.2-0.9,2.3-2.1,3.7-2.7C37.9,99.8,38.1,99.8,38.3,100.1z"/>
	<path class="st7" d="M21.7,18.5c1.1,2.7,2,5.4,3,8.1c-1.2,1.2-3.2,1.2-4.6,1.5c-4.3,1.2-8.5,2.4-13,3c-0.7-1.8,0.4-3.6,0.5-5.4
		c0.2-1.2,0.4-2.4,0.7-3.9c0.5-1.8,0-2.4-1.8-2.4c1.8-0.6,2.1-1.8,2.3-3.3c0-0.6-0.2-1.8,1.1-2.1c0,0.9,0.5,1.2,1.4,1.5
		c2.5,0.6,5,1.5,7.7,2.1C19.9,17.6,21,17.9,21.7,18.5z"/>
	<path class="st16" d="M18.5,62.9c1.6,1.8,2.1,4.2,3,6.3c1.2,3,2.5,6,3.6,9c-2.1,1.2-4.8,1.5-7.1,2.4C14.4,81.2,11,82.4,7.5,83
		c-0.9,0.3-1.8,0.6-2.5,0c2-3.6,4.6-6.9,6.9-10.5C14.1,69.2,16.4,65.9,18.5,62.9z"/>
	<path class="st7" d="M5,82.7c3.7-0.3,7.3-1.8,10.9-2.7c0.7-0.3,1.4-0.6,2.1,0c0.5,0.3,0.9,0.9,0.9,1.5c0.9,3.3,2.1,6.3,3,9.3
		c0,0.6,0,0.9-0.4,1.2c-1.8,0.9-3.6,2.1-5.9,1.8c-3.4-3.3-6.8-6.6-10-9.9C5.2,83.9,4.1,83.6,5,82.7z"/>
	<path class="st3" d="M15.5,93.8c1.8-0.6,3.4-1.2,5.2-1.8c0.7-0.3,0.7-0.6,0.7-1.2c1.2,0.3,1.6,1.5,2.7,2.1c0.7,0.9,1.8,1.2,2.3,2.1
		c1.2,0.9,2.5,2.1,3.9,3c0.2,0.3,0,0.6-0.4,0.6c-2.7,1.5-5.3,2.7-8,3.9c-0.5,0.3-1.1,0.3-1.8,0.3c-1.4-0.9-1.6-2.4-2.3-3.9
		c-0.4-0.9-1.1-1.8-0.9-2.7C16.4,95.6,15.8,94.7,15.5,93.8z"/>
	<path class="st17" d="M7.1,31.1c1.6-1.2,3.7-1.2,5.7-1.5c4.1-1.2,8-1.8,12.1-2.7c0.7,1.5,1.4,3.3,2.1,4.8c0.4,0.9,0,1.2-0.7,1.5
		c-0.7,0.3-1.4,0.6-2.1,1.2c-1.6-0.3-2-1.8-2.7-2.7c-0.9-1.2-1.6-1.5-2.8-0.3c-0.2,0.3-0.5,0.3-0.9,0.6c-2.1,1.5-2.1,1.5-0.9,3.6
		c0.2,0.6,0.5,0.9,0,1.5C13.3,35.3,10.3,33.2,7.1,31.1z"/>
	<path class="st2" d="M29.9,98.6c0.2-0.3,0.2-0.3,0.4-0.3c1.2-0.6,2.5-0.9,3.9-1.5c1.4,0.9,3.4,1.5,3.7,3.3c-1.2,1.8-3.4,3-5,4.2
		c-2.5,1.8-4.8,3.9-7.5,5.4c-0.5-1.2-0.9-2.4-1.4-3.6C25.4,103.4,27.6,100.7,29.9,98.6z"/>
	<path class="st5" d="M28.6,120.2c2,4.5,3.2,9.3,5,14.1c0.2,0.6,0,1.5,1.2,1.8c0.4,0.6,0.9,0.3,1.4,0.3c-0.4,0.9-1.2,0.9-2,0.9
		c-1.8,0-3.6,0-5.2,0c-0.7,0-1.6,0-2.1-0.6C27.4,131.3,27.9,125.6,28.6,120.2z"/>
	<path class="st3" d="M16.7,36.8c0-0.6-0.2-0.9-0.5-1.2c-1.6-2.1-1.6-2.1,0.9-3.9c3.2-2.4,3.2-2.4,5.5,0.6c0.5,0.6,0.9,1.2,1.4,1.8
		c0.2,1.5,0.9,2.7,0.4,3.9c-1.1,1.2-2.5,2.1-4.3,2.4C18.9,39.5,18.2,38,16.7,36.8z"/>
	<path class="st17" d="M10,14c-0.7,0.9-0.5,2.1-0.7,3.3c0,1.8-1.1,2.1-2.7,2.1c-2.1-0.3-4.4-0.3-6.6-0.6c3.6-3.6,7.3-7.5,10.9-11.1
		C11,7.7,11.2,8,11.4,8C10.9,10.1,10.3,12.2,10,14z"/>
	<path class="st18" d="M26.9,136.7c2.5,0,5,0,7.7,0c1.1,0.9,1.4,2.1,1.4,3.3c-2.5,1.8-5.5,2.7-8.5,3.9c-0.4,0.3-0.9,0-1.1-0.3
		c-0.7-2.1,0.5-4.2,0.4-6.3C26.7,137.3,26.7,137,26.9,136.7z"/>
	<path class="st4" d="M18,99.2c0.7,1.2,1.4,2.7,2.1,3.9v0.3c-1.8,0.9-3.6,1.5-5.3,2.4c-0.9,0.6-1.4,0.3-1.8-0.6
		c-0.5-0.9-1.1-2.1-1.6-3c-0.2-0.9,0.5-0.9,1.1-1.2c0.4-0.3,0.7-0.3,1.1-0.6C14.9,100.1,16,98.6,18,99.2z"/>
	<path class="st19" d="M26.5,137.3c0.9,1.2,0.2,2.7,0.2,3.9c0,0.9-0.2,1.5-0.2,2.4c3-0.3,5.9-0.3,8.9-0.3c0.7,0,1.6,0,2.3,0.3
		c0.7,0.3,0.9,0.6,0.9,1.2c0,0.6-0.2,0.9-0.9,0.9c-3.9,0-7.7,0.3-11.4-0.3c0-1.2-1.2-2.1-1.4-3.3C24.4,140.3,26,139.1,26.5,137.3z"
		/>
	<path class="st10" d="M20.1,103.1L20.1,103.1c3.2-1.8,6.6-3.3,9.8-4.8c-1.6,2.7-3.6,5.1-5.9,7.5C22.6,105.2,21.4,104.3,20.1,103.1z
		"/>
	<path class="st20" d="M20.1,40.7c1.4-0.9,2.8-1.5,4.3-2.4c0.2,3-0.5,5.7-1.2,8.4C22.1,44.6,21,42.8,20.1,40.7z"/>
	<path class="st4" d="M18,99.2c-1.6,0.3-3,1.2-4.6,1.8c-0.7-0.6-1.4-1.2-0.9-2.4c1.2-1.2,2.8-1.5,4.3-2.4
		C17.3,97.4,17.8,98.3,18,99.2z"/>
	<path class="st4" d="M12.6,101.3c-0.4,0.3-0.9,0.6-1.2,0.9c-0.4-0.9-2.7-2.1,0-3C12.3,99.8,12.6,100.4,12.6,101.3z"/>
	<path class="st5" d="M12.6,101.3c-0.4-0.6-0.9-1.5-1.2-2.1c0.4-0.3,0.7-0.6,1.2-0.3c0.4,0.9,0.5,1.5,0.9,2.4
		C13.2,101.3,12.8,101.3,12.6,101.3z"/>
	<path class="st0" d="M-6.9,23.9c0.2,0.3,0.2,0.6,0.4,0.9c0,0.3-0.4,0.6-0.9,0.3C-7.7,25.1-7.3,24.2-6.9,23.9z"/>
	<path class="st7" d="M50.9,140.3c-0.5-2.1-0.2-3.9,0.7-6c0.4,0,0.9,0,1.2,0c0.9,2.7,2.8,4.8,5.5,6c2,2.1,4.8,1.2,7.3,1.5
		c1.1,0,2.1,0,2.5,1.2c0.2,0.9-0.7,0.9-1.2,0.9c-2.5,0-4.8,0-7.3,0c-1.6,0-2.7-1.2-4.1-1.8c-0.9-0.6-1.6-0.9-1.8,0.6
		c0,0.6-0.2,1.2-1.2,1.2c-1.1,0-0.9-0.9-1.1-1.5C51.2,141.8,51.4,140.9,50.9,140.3z"/>
	<path class="st21" d="M35.6,140c0.2,0.3,0.5,0.6,0.7,0.9c0.7,0.9,1.2,1.8,1.8,2.7c1.1,1.5,0.5,2.4-1.4,2.4c-3,0-6.2,0-9.3,0
		c-0.5,0-1.1,0.3-1.4-0.3c3.6,0,6.9,0,10.5,0c0.7,0,1.6,0.3,1.6-0.9c0-0.9-0.9-0.6-1.6-0.6c-2.7,0-5.5,0-8.2,0c-0.7,0-1.4,0.3-2-0.3
		C29.7,143,32.6,141.5,35.6,140z"/>
	<path class="st2" d="M53.7,76.4c0.2,0.9-0.2,1.8-0.4,2.7h-0.2C53,79.7,52.7,80,52.1,80c-0.4,0.3-0.9,0.3-1.2,0.6
		c-0.2,0-0.5,0.3-0.7,0.3c-0.9,0.6-1.8,1.2-2.8,1.5c-0.2,0-0.5,0.3-0.7,0.3c-0.5,0.3-1.1,0.6-1.6,0.9c-0.4,0.3-0.5,0.3-0.9,0.6
		c-1.1,0.6-2,1.2-3,1.5c-0.2,0-0.5,0.3-0.7,0.3c-0.5,0.3-1.1,0.6-1.6,0.9c-0.4,0-0.7,0.3-0.9,0.3c-0.4,0.3-0.5,0.3-0.9,0.6
		c-0.5,0.3-0.9,0.6-1.4,0.6c-1.6,0.9-3,1.8-4.8,2.4c-0.4,0-0.5,0.3-0.9,0.3s-0.7,0-0.9-0.3c-1.8-3.3-2.5-7.2-3.7-10.8
		c0-0.3,0-0.6,0.2-0.9c0-0.9,0.7-0.9,1.4-0.9c3.2-0.3,6.6-0.6,9.8-0.6C42.4,77,48,76.7,53.7,76.4z"/>
	<path class="st22" d="M49.6,29.9c-0.5-2.4-0.9-4.8-1.6-7.2c-0.4-1.5,0.5-1.5,1.6-1.8c1.2-0.3,1.8,0,2.1,1.2
		c0.5,2.4,1.2,4.5,1.8,6.6c0.5,0.6,0.9,0.9,0.4,1.5c0,0.9,0.9,1.5,0.4,2.4c-0.9,1.2-2,0.9-3.2,0.3c-0.9-0.3-0.4-1.2-0.9-1.5
		C49.5,30.8,49.3,30.5,49.6,29.9z"/>
	<path class="st5" d="M39.9,37.7c4.1,0,8.2-0.9,11.9,1.5c-1.2,0.6-2.5,0.6-3.7,0.6c-1.2,0.3-2.7,0.3-3.9,0.6c-0.7,0-1.2,0-1.6-0.6
		C41.8,38.9,40.9,38,39.9,37.7z"/>
	<path class="st23" d="M49.6,29.9c0.2,0.6,0.4,1.2,0.5,1.5c-0.4,0-0.7,0.3-0.9,0.3C44.7,31.4,40,32,35.4,32
		C40,31.4,44.8,30.5,49.6,29.9z"/>
	<path class="st24" d="M53.7,30.2c-0.2-0.6-0.2-0.9-0.4-1.5c2.1-0.6,4.1-0.9,6.2-1.5c-1.2,1.2-3,1.8-4.6,3
		C54.8,30.5,54.3,30.5,53.7,30.2z"/>
	<path class="st25" d="M50.9,32.9c1.1,0,2.1,0,3.2-0.3c0,0.3,0,0.6-0.2,0.6c-0.4,0.6-0.7,1.8-1.4,1.5C51.8,34.7,50.9,33.8,50.9,32.9
		z"/>
	<path class="st2" d="M37.7,100.1c-0.9-1.5-2.8-2.1-3.7-3.3c1.6-1.2,3.7-1.8,5.5-2.7c2,0.3,3.9,0.3,5.9,0.6
		c-2.5,1.8-4.8,3.6-7.3,5.7C38.1,100.1,37.9,100.1,37.7,100.1z"/>
	<path class="st4" d="M28.5,91.1c0.4-0.3,0.5-0.6,0.9-0.9c0.2,0,0.5,0,0.9,0c0.5,0.3,0.2-0.3,0.5-0.3c1.6-0.9,3.4-1.5,5-2.4
		c1.2,0.3,1.6,0.9,1.2,1.8c-2.1,1.8-4.8,2.7-7.1,3.9C28.8,92.6,28.3,92,28.5,91.1z"/>
	<path class="st4" d="M50.9,80c0.4-0.3,0.9-0.3,1.2-0.6c1.2,0.3,1.4,0.9,1.2,2.1c-2.1,1.5-4.8,2.7-7.1,3.9c-0.9-0.6-1.4-1.2-1.2-2.4
		c0.5-0.3,1.1-0.6,1.6-0.9c0.2,0.3,0.4,0.6,0.5,0.9c0-0.6-0.5-0.9,0-1.2c1.1-0.6,2.3-0.9,3.4-1.5C50.9,80.6,50.5,80,50.9,80z"/>
	<path class="st4" d="M38.6,86c0.5-0.3,0.9-0.9,1.6-0.9c0.2,0,0.2,0.3,0.4,0.3c-0.2-0.3-0.2-0.6,0-0.9c1.1-0.6,2.1-0.9,3.2-1.5
		c1.1,0.6,1.4,1.2,1.2,2.1c-2.5,1.2-4.8,2.7-7.5,3.3c-0.9-0.6-1.4-1.2-0.9-2.1c0.4,0,0.5-0.3,0.9-0.3C38.1,86.3,38.6,86.9,38.6,86z"
		/>
	<path class="st4" d="M23.8,93.2c1.2-0.6,2.5-1.2,3.9-1.8c0.9,0.6,1.4,1.2,1.2,2.1c-0.9,0.6-1.6,1.2-2.5,1.5
		C25.4,94.7,24.6,94.1,23.8,93.2z"/>
	<path class="st5" d="M37,86.9c0.4,0.9,0.7,1.5,0.9,2.1c-0.2,0.3-0.5,0.3-0.9,0.3c-0.2-0.9-0.7-1.5-1.2-1.8
		C36.1,87.2,36.5,87.2,37,86.9z"/>
	<path class="st5" d="M53.4,81.5c-0.4-0.6-0.9-1.2-1.2-2.1c0.4-0.3,0.9-0.6,1.2-0.6c0,0.9,0.5,1.5,0.9,2.4
		C54.1,81.5,53.7,81.5,53.4,81.5z"/>
	<path class="st5" d="M29,93.5c-0.4-0.9-0.9-1.5-1.2-2.1c0.2,0,0.5-0.3,0.9-0.3c0.4,0.6,0.9,1.5,1.2,2.1
		C29.5,93.2,29.2,93.5,29,93.5z"/>
	<path class="st5" d="M45.4,85.7c-0.4-0.9-0.9-1.5-1.2-2.1c0.4-0.3,0.5-0.3,0.9-0.3c0.4,0.9,0.9,1.5,1.2,2.4
		C45.9,85.4,45.7,85.7,45.4,85.7z"/>
	<path class="st5" d="M69,71.6c1.2,0,1.1,0.9,1.6,1.5c0,0.6-0.2,0.9-0.9,0.6C69.8,72.8,68.9,72.2,69,71.6z"/>
	<path class="st26" d="M46.1,23.9c1.1,3.9,1.1,3.9-3.4,4.5c-1.6,0.3-3.4,0.6-5,0.9c-0.7,0-0.9,0-1.1-0.6c0.2-0.6,0.2-1.2,0.4-1.5
		C38.4,23.3,41.6,22.1,46.1,23.9z"/>
	<path class="st27" d="M59.8,24.8c-1.2-1.8-2-3.6-1.2-5.7"/>
	<path class="st23" d="M46.1,23.9c-1.1,0-2.1,0-3.2,0c-3.7,0-3.7,0-5.2,3.3c-0.4,0.6-0.5,1.2-1.1,1.8c-0.2-1.5-0.5-2.7-0.9-3.9
		c-0.2-0.6,0-1.2,1.1-1.2c2.5-0.6,5.2-0.9,7.7-1.5C46.4,21.5,45.6,23.3,46.1,23.9z"/>
	<path class="st28" d="M58.5,19.1c0.4,1.8,0.9,3.9,1.2,5.7c-0.2,0-0.2,0-0.4,0.3c-5.2,1.5-4.1,2.4-5.7-3c0.2-0.6,0.5-0.9,1.4-0.9
		c0.2,0,0.2,0.3,0.4,0.6c0.4,0.6,0,1.8,1.2,1.5c0.9-0.3,0.7-0.9,0.2-1.5c-0.4-0.3-0.9-0.3-1.1-0.9c0-1.2,1.2-0.9,1.8-1.5
		C57.8,19.4,58.2,19.1,58.5,19.1z"/>
	<path class="st29" d="M37.9,18.5c2.3,0.3,4.4,0.3,6.6,0.6c0.2,0.3,0,0.6-0.4,0.6c-1.6,0.3-3.2,0.6-4.6,0.9c-0.9-0.6-2-0.9-2.8-1.5
		C36.7,17.9,37.4,18.5,37.9,18.5z"/>
	<path class="st30" d="M57.7,19.4c-0.4,0.6-1.4,0.6-1.6,1.5c-0.2,0.3-0.5,0.3-0.9,0.3c-0.4,0.3-0.9,0.6-1.2,0.6
		C53,20.6,53.4,20,55,19.7C55.7,19.7,56.8,19.4,57.7,19.4z"/>
	<path class="st31" d="M44.1,19.7c0.2-0.3,0.2-0.3,0.4-0.6c0.4,0,0.9,0,1.2,0C45.4,19.4,44.8,19.7,44.1,19.7z"/>
	<path class="st32" d="M56.1,14c-2,0.9-3.6,1.5-5.3,2.4C52,13.7,53,13.1,56.1,14z"/>
	<path class="st33" d="M37.9,18.5c-0.4,0.3-0.9,0-1.2,0.3c-0.4,0-0.9-0.3-0.5-0.6C36.7,17.9,37.2,18.2,37.9,18.5z"/>
	<path class="st5" d="M73.8,70.1c0.2,0.3,0.4,0.3,0.5,0.6c0,0.3,0,0.3-0.4,0.3c-0.2,0-0.4-0.3-0.5-0.6
		C73.7,70.1,73.7,70.1,73.8,70.1z"/>
	<path class="st34" d="M21.4,35.6c-1.4-0.3-2.5-0.3-3.6-0.9C19.8,32.3,19.8,32.3,21.4,35.6z"/>
	<path class="st35" d="M15.7,102.8c0,0.6-0.4,0.9-0.9,0.9c-0.5,0-0.9-0.3-0.9-0.9c0-0.6,0.4-0.9,0.9-0.9
		C15.3,102.2,15.7,102.5,15.7,102.8z"/>
	<path class="st5" d="M38.6,86c0,0.6,0.9,0.6,0.4,1.5c-0.4-0.3-0.9-0.6-1.2-0.9C38.1,86.3,38.4,86,38.6,86z"/>
	<path class="st5" d="M40.8,85.1c0.2,0.6,0.4,1.2,0.5,1.8c-0.9-0.3-0.9-0.9-1.1-1.5C40.6,85.4,40.6,85.1,40.8,85.1z"/>
	<path class="st5" d="M47.2,82.1c-0.2,0.6,0.5,0.9,0.2,1.5c-0.5-0.3-0.7-0.6-0.7-1.2C46.8,82.1,47,82.1,47.2,82.1z"/>
	<path class="st36" d="M30.6,89.9c0,0.3,0.2,0.9,0.4,1.2c-0.5-0.3-0.7-0.6-0.7-0.9C30.4,90.2,30.4,89.9,30.6,89.9z"/>
	<path class="st5" d="M50.9,80c0,0.3,0.2,0.9,0.4,1.2c-0.5-0.3-0.7-0.6-0.7-0.9C50.5,80.3,50.7,80.3,50.9,80z"/>
	<path class="st37" d="M42.2,24.2c0.9,0,1.6,0.6,1.6,1.5c0,0.9-0.5,1.2-1.4,1.2s-1.4-0.3-1.6-1.2C40.6,24.8,41.1,24.5,42.2,24.2z"/>
	<path class="st38" d="M57.1,21.2c0.9,0.6,1.2,1.2,0.5,2.1c-0.4,0.6-0.9,0.9-1.6,0.6c-1.2-0.3-1.2-1.2-0.9-2.1
		C55.5,20.9,56.4,20.9,57.1,21.2z"/>
	<path class="st39" d="M57.1,21.2c-0.7,0-1.4,0-2.1,0.6v-0.3c0.2-0.3,0.5-0.3,0.9-0.3C56.4,20.9,56.9,20.9,57.1,21.2z"/>
</g>
</svg>
