<?xml version="1.0" encoding="utf-8"?>
<!-- Generator: Adobe Illustrator 23.1.0, SVG Export Plug-In . SVG Version: 6.00 Build 0)  -->
<svg version="1.1" id="Capa_1" xmlns="http://www.w3.org/2000/svg" xmlns:xlink="http://www.w3.org/1999/xlink" x="0px" y="0px"
	 viewBox="0 0 90.8 149.6" style="enable-background:new 0 0 90.8 149.6;" xml:space="preserve">
<style type="text/css">
	.st0{fill:#5C5C5C;}
	.st1{fill:#E4E4E4;}
	.st2{fill:#EEEEEE;}
	.st3{fill:#543042;}
	.st4{fill:#474747;}
	.st5{fill:#FEE5D5;}
	.st6{fill:#939393;}
	.st7{fill:#F4C9B2;}
	.st8{fill:#734C5F;}
	.st9{fill:#C3937D;}
	.st10{fill:#383838;}
	.st11{fill:#95637C;}
	.st12{fill:#010101;}
	.st13{fill:#FDE4D4;}
	.st14{fill:#C4937D;}
	.st15{fill:#F3C9B1;}
	.st16{fill:#C3947C;}
	.st17{fill:#2B2B2B;}
	.st18{fill:#7A7A7A;}
	.st19{fill:#949494;}
	.st20{fill:#F4CAB3;}
	.st21{fill:#C4947E;}
	.st22{fill:#B39960;}
	.st23{fill:#C59680;}
	.st24{fill:#C3937C;}
	.st25{fill:#C2927C;}
	.st26{fill:#080706;}
	.st27{fill:#747473;}
	.st28{fill:#F2C8B1;}
	.st29{fill:#F4C9B3;}
	.st30{fill:#090807;}
	.st31{fill:#343332;}
	.st32{fill:#BA8C75;}
	.st33{fill:#FDFCFB;}
</style>
<g>
	<path class="st0" d="M32.5,14.3c3.4-4.8,6.5-9.6,9.7-14.7c0.2,0,0.5,0,0.7,0c5.2,2.1,10.3,3.9,15.5,6c0.4,0.3,0.5,0.6,0.2,0.9
		s-0.9,0.6-1.4,0.9c-8.3,3.3-16.4,6.9-24.7,10.2c-0.5,0.3-1.3,0.6-2,0.3C30.2,16.1,31.6,15.2,32.5,14.3z"/>
	<path class="st1" d="M44.1,149.3c-4.9-0.3-9.7-0.9-14.8-1.5c-2.9-0.3-5.8-0.6-8.5-0.9c-1.6-0.3-3.2-0.3-4.9-0.6
		c4-0.3,7.9-0.9,11.7-1.2c0.9,0.9,2,0.9,3.1,0.9c2.2,0,4.3,0,6.3,0c0.7,0,1.3,0,1.8-0.6c0.2-0.3,0.2-0.3-0.2-0.6
		c-0.5-0.3-0.9-0.3-0.7-1.2c2-0.3,4.2-0.6,6.1-0.6c2.3,0,4.7,0.3,6.9,0.3c3.4,0.3,6.9,0.9,10.3,1.2c4,0.3,7.8,0.6,12.1,0.9
		c-3.8,1.2-7.2,1.2-10.8,1.8c-4.7,0.6-9.6,1.2-14.3,2.1c-0.2,0-0.4,0.3-0.4,0.3c-0.7,0-1.4,0-2.2,0C45.7,149,44.8,149.6,44.1,149.3z
		"/>
	<path class="st2" d="M44.1,149.3c0.7,0,1.6-0.3,2.2,0.3c-0.7,0-1.4,0-2.2,0V149.3z"/>
	<path class="st3" d="M27.5,95c-0.4-0.9,0.2-1.2,0.5-1.8c2.2-3.3,4.3-6.6,6.5-9.6c0.5-0.3,1.1,0,1.4,0.3c4,3.3,8.1,6.6,12.1,9.9
		c0.4,0.3,0.5,0.6,0.7,1.2c2.9,2.4,5.8,4.8,8.5,6.9c0.4,0.3,0.5,0.6,0.9,0.9c-0.2,0.3-0.2,0.6-0.4,0.6c-2.5,2.4-5.4,4.2-8.1,6.3
		c-2.5,1.8-5.1,3.9-7.6,5.7c-0.5,0.3-1.1,0.9-2,0.9c-0.9-0.3-1.3-0.9-1.6-1.8c-3.4-6-6.9-12-10.1-18.3C28,96.2,28,95.3,27.5,95z"/>
	<path class="st3" d="M48.8,94.7c-4.5-3.6-8.8-7.2-13.2-10.5c-0.4-0.3-0.7-0.6-1.1-0.6c0-1.8-0.2-3.6-0.2-5.7
		C34,77,34.1,76.1,35,75.5c3.4-3,6.9-6,10.5-8.7c0.4-0.3,0.7-0.6,1.3-0.6c0.7-0.3,1.4,0,2.2,0.3c2.3,1.2,4.7,2.1,6.9,3
		c0.7,0.3,1.8,0.6,1.8,1.8C54.5,79.1,51.6,86.9,48.8,94.7z"/>
	<path class="st4" d="M75.3,15.8c-1.1,0.6-2,1.2-3.1,1.5c-0.5,0.3-0.4,0.9-0.7,0.9c-3.8,2.4-7.6,4.5-11.4,6.6
		c-1.1,0.6-2.3,1.2-3.2,2.4c-0.9,0.3-2,0.6-2.7,1.2c-1.6,1.2-3.2,1.8-4.9,2.7c-2,1.5-4,1.8-6,0.3c-0.2-0.3-0.4-0.3-0.7-0.6
		c-3.1-2.1-6.3-3.9-9.6-5.7c-2.2-1.2-4.3-2.4-6.5-3.9c-0.4-0.3-1.3-0.3-0.7-1.2c0.7-0.3,1.6-0.3,2.3-0.6c10.5-1.2,20.9-2.1,31.2-3.3
		c4.3-0.6,8.7-0.9,12.8-1.2C73.5,14.9,74.6,14.3,75.3,15.8z"/>
	<path class="st5" d="M65.4,41c-1.8,1.5-1.6,3.9-2.5,5.7c-0.7,1.5-1.1,3.3-1.4,5.1c-0.4,0.9-0.7,1.2-1.6,0.9
		c-2.5-0.9-5.2-1.8-7.8-2.4c-0.5-0.3-1.3-0.6-1.8-0.3c-2-0.6-3.8-1.5-6-2.1c-0.7-0.3-1.4-0.3-1.8-1.2c0-1.8,0.5-3.6,1.1-5.4
		c0.7-2.7,1.1-5.4,2-8.1c2.5-2.1,5.4-3.6,8.5-4.5c0.4,0,0.5,0.3,0.7,0.3c1.6,0.9,2.2,3,1.4,5.4c0.7-3,1.8-5.7,2.9-8.4
		c1.3-1.2,2.7-2.4,4.7-2.4c0.5,0.9,0,1.5-0.4,2.1c-1.6,1.8-1.6,3.9-2.5,6.3c0.7-0.3,1.3-0.9,1.8-0.3c1.4,0.3,1.6,0,2-2.4
		c0-0.9,0.9-1.2,1.3-2.1c-0.2-0.9-0.9-1.8-1.3-2.7c-0.2-0.6-0.7-1.2-0.4-1.8c1.8-1.2,3.8-2.1,5.6-3.3c0.4-0.3,0.7-0.3,1.1,0
		c0.4,0.9,0,1.5-0.2,2.1c-0.7,2.1-1.4,4.2-2,6.6c-0.5,1.8-0.9,3.3-1.4,5.1C66.8,36.2,65.7,38.3,65.4,41z"/>
	<path class="st6" d="M75.3,15.8c-2.2-0.9-4.3,0-6.5,0.3c-4.3,0.3-8.8,0.9-13.2,1.2c-7,0.6-14.3,1.5-21.3,2.1
		C32.1,19.7,30,19.7,28,20c-0.4,0.3-0.9,0.3-1.3-0.3c0.5-1.2,1.6-1.2,2.7-1.5c0.4,0,0.7-0.3,1.1,0c7.8-3.3,15.5-6.6,23.5-9.9
		c1.4-0.6,2.9-1.2,4.3-1.8c0.5-0.3,0.5-0.3,0.4-0.9c1.4,0.6,2.7-0.6,3.8-1.2C67,2.6,67,2.6,69.9,6.5c2,2.4,4,5.1,5.8,7.5
		C76,14.9,76.6,15.5,75.3,15.8z"/>
	<path class="st7" d="M57.8,103.1c0.2,0,0.2-0.3,0.4-0.3c-0.9,5.4-1.8,10.8-2.7,16.2c-0.4,1.8-0.7,3.6-0.9,5.4
		c-0.2,2.1,1.1,3.9,1.8,5.7c-1.1,0.9-1.8,1.8-3.2,2.1c-1.8-1.2-3.1-3-4.3-4.5c0,0,0,0,0-0.3c0.7-1.2,2.5-1.8,2.3-3.3
		c-0.2-2.7-0.2-5.4-1.4-7.8c0-0.3,0-0.6,0.2-0.9c2-3,3.8-6,5.6-9C56.3,105.2,57.1,104,57.8,103.1z"/>
	<path class="st5" d="M32.7,60.5c0.9-0.9,2-0.6,3.1-0.9c0.7-0.3,1.4-0.3,2.2-0.6c2.3-1.2,5.1-1.2,7.6-1.5c0.4,0,0.9,0,1.3-0.3
		c0.2-0.3,0.5-0.3,0.9-0.3c1.1,0.6,2.2,0,3.2,0c0.7-0.3,1.4-0.3,2.3-0.3c0.2,0.3,0,0.9-0.2,1.2c-1.8,2.7-3.4,5.1-5.4,7.5
		c-0.4,0.3-0.7,0.6-1.1,0.6c-0.5,0-1.1,0-1.6-0.3C40.8,64.1,36.7,62.6,32.7,60.5z"/>
	<path class="st7" d="M27.6,142.4c1.3-5.1,1.6-10.5,2.2-15.9c0-0.9,0.2-1.5,0.4-2.1c0.2,0,0.5,0,0.7,0.3c1.4,2.1,3.1,3.9,4,6.6
		c-0.7,1.8-1.3,3.6-2,5.4c-0.7,1.5-0.5,2.4,0.7,3.3c0.7,0.6,1.4,1.2,2,1.8c-0.4,1.2-1.1,2.4-1.8,3.3c-2,0.3-3.6-0.9-5.2-1.8
		C28,143,27.8,142.7,27.6,142.4z"/>
	<path class="st5" d="M53.5,56.9c4.3,3.9,8.7,7.5,13,11.4c0.5,0.3,0.7,0.9,1.4,0.9c0,0.3-0.2,0.6-0.4,0.6c-2,0.9-4,2.1-6.1,2.4
		c-1.3-0.3-2.3-1.2-3.6-1.2c-1.1-1.5-1.4-3.3-2-5.1c-0.7-2.4-1.4-4.8-2.2-7.2C53.3,58.1,53.1,57.5,53.5,56.9z"/>
	<path class="st8" d="M53.5,56.9c1.4,4.8,2.9,9.6,4.3,14.1h-0.2c-0.9-1.5-2.3-1.5-3.8-2.1c-2.3-0.9-4.5-2.4-7-3
		c-0.2,0-0.2-0.3-0.2-0.3s0,0,0.2,0c2.3-2.7,4.3-6,6.5-9C53.3,56.9,53.3,56.9,53.5,56.9z"/>
	<path class="st7" d="M61.4,72.2c2-1.5,4.3-1.8,6.5-3c3.2-1.2,6.3-2.4,9.4-3.9h0.2c0.5,0.6,1.3,1.2,1.6,1.8c-3.1,2.4-6.1,4.5-9,6.6
		c-1.1,0.9-2.2,1.2-3.6,0.6C64.8,73.7,63,73.1,61.4,72.2z"/>
	<path class="st9" d="M34.7,131c-1.4-2.1-3.1-4.5-4.5-6.6v-0.3c0.2-0.3,0.2-0.6,0.5-0.9c2.7-2.1,5.4-4.2,8.1-6
		c0.4-0.3,0.7-0.3,1.1,0c0.4,1.2-0.5,2.1-1.3,3C37.4,123.8,35.9,127.4,34.7,131z"/>
	<path class="st8" d="M38.6,119.9c0.4-0.9,0.7-2.1,1.1-3c-0.2-0.3,0.2-0.6,0.4-0.6c3.1-2.4,6.1-4.5,9.2-6.9c1.1,1.8,1.3,3.9,0.7,6
		c-0.2,0-0.2,0.3-0.4,0.3c-2.9,1.2-6,2.4-8.8,3.6C40.3,119.9,39.6,120.2,38.6,119.9z"/>
	<path class="st3" d="M70.1,58.4c-0.4-0.3-0.7-0.9-1.1-1.2c-0.4-0.6,0.2-1.2,0.5-1.8c2.5-2.7,5.2-4.8,7.8-7.5
		c0.4-0.3,0.7-0.6,1.3-0.3c0.4,0.6,0.7,0.9,1.3,1.5c-0.4,2.1-2.3,2.7-3.4,4.5c1.3,0,2.3,0.3,3.4,0.6c0.4,0,1.1,0,1.1,0.9
		c-0.4,0.6-1.4,0.9-1.4,1.8c-0.5,0.9-1.3,1.5-2.2,2.1c-0.9,0-1.1,0.9-1.8,1.2c-0.9,0-0.7-0.9-0.7-1.5c-0.2-0.9,0-2.1,0-3.3
		c-1.1,0.6-1.8,1.5-2.5,2.1C71.5,58.1,71,59,70.1,58.4z"/>
	<path class="st0" d="M68.6,28.4c0.7-3,2-5.7,2.5-8.7c-0.2-0.6,0.4-1.2,0.4-2.1c0.2,0,0.4-0.3,0.9-0.3c-0.4,0.6,0.2,1.2,0.5,1.8
		c1.4,2.7,3.1,5.4,4.5,8.1c0.4,0.6,0.9,1.2-0.2,1.5C74.4,28.7,71.5,28.7,68.6,28.4z"/>
	<path class="st9" d="M47.7,57.2c-0.2,0.3-0.2,0.3-0.4,0.3c-1.1,0.6-1.3-0.6-1.6-0.9c-1.6-2.7-3.2-5.7-4.9-8.4
		c-0.4-0.6-0.9-1.5-0.4-2.1c0.7-0.6,1.6,0,2.2,0.6c2,0.6,3.8,1.2,5.8,2.1c0.5,0.3,1.4,0.3,1.4,1.2C49.1,52.4,48.4,54.8,47.7,57.2z"
		/>
	<path class="st10" d="M68.6,28.4c2.9-0.6,5.8-0.6,8.5,0c-0.9,0.9-2.5,1.2-2.9,2.7c-2,0.6-3.2,2.1-5.1,3c-0.5,0.3-1.1,0.9-2,0.6
		c-0.4-0.3-0.2-0.9-0.4-1.2C67.5,32,68.1,30.2,68.6,28.4z"/>
	<path class="st11" d="M78.6,47.9c-3.4,3-7,5.7-9.7,9.3c-0.5-0.6-1.1-1.5-1.8-2.1c0.2-0.9,1.1-1.5,1.6-2.1c2.2-2.1,4.3-3.9,6.5-6
		c0.5-0.6,1.1-0.9,1.6-0.9C77.6,46.7,78.2,47.3,78.6,47.9z"/>
	<path class="st3" d="M76.9,46.1c-3.2,3-6.5,6-9.7,9c-0.5-0.6-0.9-1.2-1.4-1.5c0-1.2,0.9-1.5,1.4-2.1c0.9-0.9,2-1.8,2.9-2.4
		c0.4-0.3,0.5-0.6,0.9-0.9c0.9-0.9,1.8-1.8,2.7-2.7c0.5-0.6,1.3-1.2,2.2-0.9C76,45.2,76.6,45.5,76.9,46.1z"/>
	<path class="st11" d="M86.3,65.3c1.3,1.5,2.5,3,3.8,4.5c1.1,1.2-0.4,1.5-0.9,2.1c-0.4,0.6-0.7,0.9-1.4,0.3
		c-1.4-1.8-3.1-3.6-4.5-5.4c-0.2-0.3,0-0.3,0-0.6C84.3,65,85.2,64.7,86.3,65.3z"/>
	<path class="st12" d="M67.5,35c2-1.2,4-2.7,5.8-3.9c0.4-0.3,0.7-0.9,0.9,0c0,1.5,0.5,3.6-0.4,4.8c-0.9,1.2-2.9,0-4.3,0
		c-0.5,0-1.1,0-1.6,0C67.7,35.6,67.4,35.6,67.5,35z"/>
	<path class="st3" d="M71.1,48.5c-0.2,0.3-0.4,0.6-0.7,0.6c-1.4,0.3-2.9,0-4.3-0.3c-0.5,0-1.4-0.3-1.1-1.2c1.8-1.8,3.4-3.6,5.4-4.8
		c0.9,1.2,0.4,2.4,0.5,3.6C71,47,70.8,47.6,71.1,48.5z"/>
	<path class="st13" d="M77.1,65.6c0.5-1.5,1.3-3,1.8-4.5c0.2-1.5,1.1-1.8,2.2-2.1c1.4,0.3,2.2,1.8,2.7,3c0.5,1.2-0.4,1.5-1.3,2.1
		c-0.5,0-1.1,0-1.4-0.3c-0.9-0.3-1.4,0.6-2,0.9C78.6,65,78,65.9,77.1,65.6L77.1,65.6z"/>
	<path class="st3" d="M48.8,127.1c2,0.9,2.7,3,4.3,4.5c0.5,0.3,1.1,0.9,1.6,1.5c0.4,0.3,0.5,0.6,0.7,0.9c0.2,0.3,0.5,0.6,0,1.2
		c-2.7-1.2-5.1-3.3-7.6-4.8c-0.5-0.3-0.4-0.6-0.2-1.2C48.2,128.3,48.6,127.7,48.8,127.1z"/>
	<path class="st7" d="M82.7,63.8c1.1-0.6,1.4-1.5,0.4-2.4c-0.7-0.6-1.1-1.5-2-2.1V59c1.3-1.5,2.3-1.2,3.1,0.6
		c0.2,0.6,0.7,0.9,1.1,1.2c1.4,1.2,1.6,2.1,0.2,3.6c-0.4,0.9-0.9,1.2-1.8,1.2C83.1,65,82.5,64.7,82.7,63.8z"/>
	<path class="st11" d="M71.1,48.5c-0.9-0.3-0.7-0.9-0.7-1.5c0-1.5,0-3,0-4.2c2,0,3.6,0.9,5.4,1.8C73.7,45.2,72.8,47.3,71.1,48.5z"/>
	<path class="st11" d="M64.8,47.6c0.2,0.9,0.9,0.6,1.6,0.9c1.3,0,2.7,0.3,3.8,0.9c-1.4,1.2-3.2,2.4-4.5,4.2
		c-0.7-1.5-0.9-3.3-1.3-5.1C64.3,47.9,64.5,47.9,64.8,47.6z"/>
	<path class="st11" d="M70.1,58.4c1.8-0.6,2.7-2.7,4.3-3.6c0.2,0,0.4-0.3,0.7-0.6c0.5,1.8-0.4,3.9,0.5,5.4c-0.5,0.9-1.1,0.3-1.8,0
		C72.4,59.6,71.1,59.3,70.1,58.4z"/>
	<path class="st11" d="M80.7,55.1c-1.3-0.6-2.7-0.6-4-0.6c-0.4,0-1.1,0.3-1.3-0.3s0.4-0.6,0.7-0.9c1.3-0.9,2.5-2.1,3.4-3.6
		C80.4,51.2,81.1,53,80.7,55.1z"/>
	<path class="st3" d="M67.5,35c0.2,0.3,0.4,0.6,0.5,0.9l-0.2,0.3c0,1.2,1.3,2.4,0.5,3.3c-0.7,0.9-2,0.9-3.1,1.2
		c-0.7,0-0.5-0.6-0.4-0.9c0.7-2.1,1.4-4.2,2.2-6.3C67.5,33.8,67.5,34.4,67.5,35z"/>
	<path class="st14" d="M77.3,65.6c0.9-0.9,2-1.5,2.9-2.4c0.4-0.3,0.7-0.6,1.1,0c0.7,0.9,1.8,1.5,2.2,2.7v0.3c-1.6,0-2.9,0.9-4.3,1.2
		C78,67.4,77.5,66.8,77.3,65.6z"/>
	<path class="st11" d="M81.1,59L81.1,59c-0.7,0.9-1.4,1.5-2.2,2.1c-0.7-0.6-1.3-1.2-1.8-2.1c0.5-0.9,1.1-1.8,2.2-2.1
		C80,57.5,80.5,58.1,81.1,59z"/>
	<path class="st15" d="M55.3,133.7c-0.4-0.3-0.5-0.6-0.9-0.9c0.4-1.2,1.1-1.8,2.3-1.8c0.5,1.2,0.9,2.4,1.4,3.3
		C56.9,135.2,56.2,134.3,55.3,133.7z"/>
	<path class="st15" d="M38.3,143.9c0.2,0.6,0.5,0.6,1.1,0.9c-1.1,1.5-2.5,0.9-3.8,1.2c-0.2,0-0.4-0.3-0.5-0.3
		c-0.4-1.5,0.2-2.4,1.4-2.7C37,143.3,37.7,143.6,38.3,143.9z"/>
	<path class="st8" d="M56.7,131.3c-0.9,0.6-1.8,0.9-2.3,1.8c-0.5-0.6-1.1-0.9-1.3-1.5c1.1-0.6,1.8-1.8,3.2-1.8
		C56.5,130.1,56.5,130.7,56.7,131.3z"/>
	<path class="st8" d="M36.5,142.7c-0.7,0.9-1.3,1.5-1.4,2.7c-0.7,0.3-1.4,0.3-1.4-0.9c0.5-1.2,0.9-2.1,1.8-3
		C35.9,142.1,36.3,142.4,36.5,142.7z"/>
	<path class="st11" d="M83.2,65.9c-0.9-0.9-1.8-1.5-2.2-2.7c0.5,0,0.9,0.3,1.4,0.3c0.7,1.8,1.8,1.5,2.9,0.3c0.2,0.3,0.5,0.6,0.7,1.2
		C85.2,65.6,84.3,65.6,83.2,65.9z"/>
	<path class="st16" d="M55.3,133.7c1.1,0,1.8,0.9,2.9,0.9c0.4,0.3,0.9,0.3,1.3,0.6c-1.4,1.2-2.7,1.2-3.8-0.3
		C55.4,134.6,55.4,134.3,55.3,133.7z"/>
	<path class="st17" d="M29.6,18.2c-0.9,0.3-1.8,0.9-2.7,1.2c-0.2,0.3-0.7,0.3-1.1,0.6c2.5,1.5,5.1,3,7.6,4.5
		c0.2,0.9-0.4,1.2-0.7,1.5c-2.3,2.4-4.3,4.8-6.7,7.2c-0.4,0.3,0,0.6-0.2,0.9c-1.3,0.9-1.6-0.3-2-0.9c-1.3-2.7-2.3-5.4-3.4-8.1
		c-0.5-2.1-2-3.9-2.2-6.3c-1.1-2.1-2-4.5-2.9-6.6c-0.2-0.6-0.7-1.2,0.4-0.9c4.5,1.5,8.7,3.9,13.2,6C29.3,17.3,29.8,17.6,29.6,18.2z"
		/>
	<path class="st3" d="M40.1,116.3c0,0.3-0.2,0.3-0.4,0.6c-3.4,2.1-6.5,4.8-9.6,7.2c-0.7-3-0.7-5.7-0.9-8.7
		c-0.5-6.9-1.1-13.8-1.6-20.4c2,2.4,3.1,5.1,4.7,7.8c2.3,3.9,4.5,8.1,6.9,12.3C39.4,115.4,39.6,116,40.1,116.3z"/>
	<path class="st7" d="M42.6,46.7c-0.7-0.3-1.3-0.3-2.5-0.6c2.3,3.9,4.5,7.8,6.5,11.4c0,0,0.4,0,0.5,0.3c-2,0.9-4,0.6-6,1.2
		c-1.1,0.3-2.2,0.6-3.4,0.3c-0.4-3-0.7-6-1.1-9c0-0.6,0-1.5-0.4-2.1c-1.1-2.4-0.7-4.8-1.3-7.2c0-0.3,0-0.6,0.2-0.9
		c0.7-1.5,2.3-1.5,3.4-2.4c0.5-0.3,1.3-0.6,1.8-1.2c0.4-0.3,0.5-0.9,0.7-1.2c0.7-0.9,1.1-2.4,2.5-2.7c0.7,0,1.4-0.3,2,0.3
		C44.8,38,43.7,42.2,42.6,46.7z"/>
	<path class="st4" d="M20.8,25.1c1.3,2.7,2.3,5.4,3.6,8.1c0.2,0.6,0.4,1.8,1.4,0.9c2.5-1.5,5.2-1.8,7.9-1.8c0.9,1.2-0.5,1.5-0.9,2.4
		c-1.6,1.8-3.4,3-5.1,4.8c-0.5,0.6-1.1,1.2-2,1.2c-1.6-0.6-2.7-2.1-3.8-3c-3.8-3.3-7.4-6.6-11-9.9c-0.4-0.3-0.7-0.6-0.7-1.2
		C10.1,26,10.7,26,11,25.7c3.1-0.6,6.1-0.9,9.4-0.9C20.4,24.8,20.6,25.1,20.8,25.1z"/>
	<path class="st8" d="M46.6,65.9v0.3c-3.8,3.3-7.6,6.3-11.4,9.6c-0.7,0.6-0.7,1.2-0.9,2.1c-0.2-2.4-0.5-5.1-0.7-7.5
		c-1.4-2.1-0.7-4.5-1.1-6.6c-0.2-0.9-0.2-2.1,0.2-3v-0.3c0.5-0.3,1.1,0,1.6,0.3C38.3,62.6,42.4,64.4,46.6,65.9z"/>
	<path class="st7" d="M11.7,68.9c4,1.2,8.1,2.1,12.3,3c2.2,0,4.3,0.3,6.1,1.5c-1.3,1.8-3.2,3.3-4.7,4.8c-0.5,0.6-1.1,0.3-1.6,0
		c-4.3-2.1-8.7-4.5-12.8-6.6c-0.2-0.9,0.2-1.8,0.4-2.7C11.4,68.9,11.6,68.9,11.7,68.9z"/>
	<path class="st10" d="M11,27.8c1.3,0,1.8,1.2,2.7,1.8c4.2,3.6,8.1,7.2,12.1,11.1c-0.7,2.1-2,3.6-4.2,4.2
		C17.9,39.2,14.5,33.5,11,27.8z"/>
	<path class="st5" d="M30,73.4c-2-0.6-4.2-0.9-6.1-1.5c1.3-2.4,3.2-4.5,5.1-6.9c1.1-1.5,2.2-3.3,3.8-4.5c0.5,3.3,0.7,6.6,1.1,9.9
		C32,71,31.4,72.8,30,73.4z"/>
	<path class="st17" d="M21.7,44.6c1.6-1.2,2.9-2.7,4.2-4.2c2.5-1.8,4.5-4.2,6.9-6c1.1-0.6,2,0,2.7,0.9c0.5,1.5,0.9,3.3,0.5,4.8
		c0,0.3,0,0.6,0,0.9c-4,1.5-7.9,2.7-12.1,4.2c-0.4,0-0.5,0-0.7,0.3C22.4,45.2,21.9,45.2,21.7,44.6z"/>
	<path class="st12" d="M22.9,45.2c0-0.3-0.2-0.6,0-0.6c3.8-1.2,7.6-2.4,11.4-3.6c0.4-0.3,0.9,0,1.4,0c0.2,2.4,0.5,5.1,0.7,7.5
		C32,47.3,27.5,46.4,22.9,45.2z"/>
	<path class="st3" d="M6.7,50.6c0-0.9,0.5-1.5,0.9-2.1c2-0.3,3.2,1.2,5.1,1.8c0.2-1.8-1.4-3.3-0.9-5.1c2.5,0.9,4.9,2.1,7.2,3.3
		c0,1.2-0.9,1.2-1.6,1.5c-0.7,0.3-1.6,0.6-2.7,1.2c1.4,0.6,2.5,1.2,3.8,1.8c0.5,0.3,1.3,0.6,1.1,1.5c-0.2,0.6-0.4,1.2-0.7,1.8
		c-0.4,0.3-0.9,0-1.3,0c-3.2-1.5-6.5-3.3-9.7-4.8C7.2,51.2,6.9,50.9,6.7,50.6z"/>
	<path class="st3" d="M7.4,61.1c-0.5-0.3-1.3-0.6-1.8-0.9c-0.4-0.6,0-0.9,0.4-1.2c1.3-0.6,2.3-1.2,3.8-1.5c-0.9-0.9-2.2-0.9-3.1-1.5
		c-0.7-0.3-1.6-0.6-1.6-1.8C5.4,53.6,5.6,53,6,52.4c0.7-0.3,1.1,0,1.6,0.3c3.1,1.5,6,2.7,8.8,4.2c0.5,0.3,1.3,0.6,1.3,1.5
		c-0.2,0.6-0.4,1.5-0.9,1.8c-1.1,0.6-1.8-0.3-2.7-0.6c-0.7-0.3-1.4-0.6-2.2-0.9c-0.2,1.8,1.4,3,0.7,4.8c-0.9,0-1.4-0.9-2.5-0.6
		C8.9,62.6,8,62,7.4,61.1z"/>
	<path class="st18" d="M29.6,18.2c-3.6-2.4-7.6-3.6-11.4-5.7c-0.9-0.3-1.8-0.6-2.5-1.2c4,0.3,7.9,1.2,12.1,2.1
		c1.6,0.3,3.2,0.6,4.7,0.9c-0.7,1.2-1.4,2.4-2.2,3.9C30.3,18.2,30,18.5,29.6,18.2z"/>
	<path class="st0" d="M20.8,25.1c-3.2,0.3-6.3,0.9-9.4,1.2c-0.4,0-0.9,0-1.1,0.6c-0.5-0.3-0.2-0.9,0-1.2c2.3-2.4,4.9-4.5,7.6-6.3
		c0,0,0.2,0,0.4,0C19.1,20.9,20.1,23,20.8,25.1z"/>
	<path class="st11" d="M17.5,58.4c-3.1-1.8-6.7-3.3-9.9-4.8c-0.7-0.3-1.3-0.6-2-0.9c0.2-0.6,0.4-1.5,0.9-2.1
		c4.2,1.8,7.9,3.6,11.9,5.7C18.2,56.9,17.9,57.8,17.5,58.4z"/>
	<path class="st11" d="M6.5,71.3c-0.9,2.1-2.2,4.2-2.9,6.3c-0.5,1.5-1.3,1.2-2.2,0.6c-1.3-0.6-1.1-1.2-0.5-2.1
		c0.9-1.8,1.6-3.3,2.3-5.1c0.9-0.6,1.8-0.6,2.9-0.3C6.1,71,6.3,71,6.5,71.3z"/>
	<path class="st3" d="M33.6,144.5c0.4,0.6,1.1,0.6,1.4,0.9c0.2,0,0.2,0,0.4,0c0.7,0.6,2.2-0.3,2.5,1.2c-2.9,0-5.8,0-8.7,0
		c-1.1,0-1.3-0.6-1.3-1.5c0-0.3,0-0.6,0-1.2c0-0.6-0.4-1.2,0.4-1.2C30.2,143.3,31.6,144.5,33.6,144.5z"/>
	<path class="st19" d="M17.9,19.1c-2.3,2.4-4.9,4.5-7.6,6.3c0.2-1.8,1.1-3.3,1.6-5.1c0.2-0.6,0.5-0.9,0.9-0.9
		C14.5,19.4,16.3,19.4,17.9,19.1z"/>
	<path class="st5" d="M11.7,68.9c-0.2,0-0.2,0-0.4,0c-0.7,0.6-1.3,0-1.8-0.3c-0.7,0-1.3-0.3-2,0c-0.5,0.3-1.1,0.6-1.8,0.6
		C4.3,68.9,4,68,4.5,66.5c0.4-0.9,0.5-2.1,1.6-2.7c1.1,0,2,0.6,2.9,1.2C9.6,66.8,10.8,67.7,11.7,68.9z"/>
	<path class="st20" d="M6.3,64.1c-0.9,0.9-1.1,2.1-1.6,3.3c-0.5,1.2,0.7,1.2,1.3,1.5c0.4,0.9,0,1.5-0.5,1.8c-0.7,0.3-1.4,0-2-0.6
		c-1.6-0.6-2-1.5-0.9-3c0.4-0.6,0.7-1.2,0.9-1.8c0.4-1.8,1.3-2.4,2.9-1.8C6.3,63.8,6.3,63.8,6.3,64.1L6.3,64.1z"/>
	<path class="st11" d="M19.3,54.5c-0.7-1.2-2.2-1.2-3.2-2.1c-0.7-0.6-1.4-0.9-2.2-1.2c1.4-1.5,3.6-1.2,5.1-2.7
		C19.5,50.3,19.9,52.4,19.3,54.5z"/>
	<path class="st11" d="M11.7,45.2c0.5,1.8,1.1,3.6,1.8,6c-2.2-0.9-4.2-1.8-6-2.7C8.7,47,10.3,46.1,11.7,45.2z"/>
	<path class="st11" d="M4.9,54.5c1.4,1.5,3.6,1.8,5.2,3c-1.3,1.5-3.6,1.2-4.5,3c-1.1-0.6-0.5-1.8-0.7-2.7
		C4.9,56.3,4.5,55.4,4.9,54.5z"/>
	<path class="st11" d="M12.5,63.5c-0.2-1.8-1.1-3.6-1.4-5.4c2.2,0.3,3.8,1.8,5.6,2.4C15.4,61.4,14.1,62.6,12.5,63.5z"/>
	<path class="st21" d="M7.4,68.3c1.6-0.9,2.5,0.9,4,0.9c0.7,0.9-0.2,1.8-0.4,2.7c-1.4,0-3.1,0.3-4.5-0.3H6.3H6.1
		C6,70.1,6.9,69.2,7.4,68.3z"/>
	<path class="st11" d="M6.3,64.1v-0.3c0.4-0.9,0.7-1.8,1.1-2.7c0.9,0.6,1.8,0.9,2.5,1.5C9.6,63.5,9.4,64.1,9,65
		C8,65.3,7.2,64.4,6.3,64.1z"/>
	<path class="st11" d="M7.4,68.3c0,1.2-0.7,2.1-1.1,3c-1.1,0-2.2,0-3.1,0c0.2-0.3,0.2-0.9,0.4-1.2C4.9,70.7,6,71,6.1,68.9
		C6.5,68.6,6.9,68.6,7.4,68.3z"/>
	<path class="st22" d="M28.4,142.7c-0.5,0.3-0.4,0.9-0.4,1.2c-0.4-0.6-0.4-0.9-0.2-1.5C27.8,142.7,28,142.7,28.4,142.7z"/>
	<path class="st23" d="M37.9,146.6c-0.7-0.6-1.8-0.6-2.5-1.2c1.4,0,2.7-0.3,4-0.9c0.2,0.3,1.3-0.6,0.7,0.6
		C39.6,146,39,146.9,37.9,146.6z"/>
	<path class="st24" d="M50.2,115.4c-0.2-2.1-0.5-3.9-0.7-6c2.7-2.4,5.6-4.5,8.3-6.3C55.4,107.3,52.9,111.5,50.2,115.4z"/>
	<path d="M34.1,32.6c-2.9,0.3-5.6,1.2-8.3,1.5c-1.1-0.6-0.2-0.9,0.2-1.2c2.5-2.7,5.1-5.7,7.4-8.4c3.4,1.8,6.7,3.6,9.7,5.7
		c-0.7,1.2-1.8,0.9-2.9,1.2c-1.4,0.3-2.7,0.6-4.2,0.9C35.4,32.3,34.9,32.9,34.1,32.6z"/>
	<path class="st3" d="M40.1,31.1c0.9-0.3,2-0.6,2.9-0.9c0.2,0,0.2,0.3,0.4,0.3c0.2,2.1-1.1,3.6-1.8,5.4c-0.2,0.3-0.4,0.6-0.5,1.2
		c-2.3,0.3-4.2-0.6-6-1.8c-0.9-0.3-1.6-0.6-2.5-0.9c0.5-0.6,0.9-1.2,1.4-1.8c0.5-0.3,1.1-0.3,1.6-0.6c0.4,0.3,0.7,0.3,1.1,0.3
		C38.3,32.9,39.4,32.6,40.1,31.1z"/>
	<path class="st9" d="M71.5,17.9c0.5,0.9,0,1.5-0.4,2.1c-2.2,1.2-4.2,2.7-6.5,3.3c-0.4,0.3,0,0.9-0.7,0.9c-1.6,0.6-3.1,1.2-4.3,2.4
		c-0.7,0.9-1.6,1.8-2.9,1.5c-0.2-0.3-0.2-0.6,0-0.9c0-1.2,1.3-1.5,2-1.8C62.8,22.7,67.2,20.3,71.5,17.9z"/>
	<path class="st25" d="M41.7,35.9c0.4-1.8,0.9-3.6,1.8-5.4c2.2,1.8,4.3,0.9,6.3-0.6c1.4-0.9,2.9-1.5,4.5-2.4c0.5,0.6,0.5,0.9,0,1.5
		c-2.9,1.2-5.4,2.7-8.3,4.2C43.5,32.6,42.6,34.4,41.7,35.9z"/>
	<path class="st26" d="M54.2,29.3c0-0.6,0-0.9,0-1.5c0.7-0.6,1.4-1.5,2.5-0.9c0,0.3,0,0.6,0,0.9c0,1.8-0.2,2.1-2.2,1.8
		C54.4,29.6,54.4,29.3,54.2,29.3z"/>
	<path class="st27" d="M25.8,20.3c0.2-0.6,0.7-0.6,1.1-0.6C27.1,20,27.6,20,28,20C27.3,20.6,26.6,20.3,25.8,20.3z"/>
	<path class="st11" d="M47.7,36.8c3.2,0.6,6.1,0.9,8.8,1.5c2,0.6,3.4,2.4,5.2,3.6c0.5,0.3,0.2,0.9-0.2,0.9c-2.3,1.5-4.7,3.3-7,4.8
		c-0.5,0.3-0.9,0.3-1.1-0.3C51.5,44,49.7,40.7,47.7,36.8z"/>
	<path class="st28" d="M66.8,27.8c-0.4,0.6-1.6,0.9-1.6,1.8c-2-0.3-2,1.2-2.5,2.4c-1.1-0.6-1.3,1.2-2.5,0.9c1.1-2.4,0.7-5.4,2.9-7.2
		C64.6,25.7,65.7,26.6,66.8,27.8z"/>
	<path class="st29" d="M54.5,29.6c1.4,0.3,1.8-0.9,2.2-1.8c0.9-0.6,1.8-0.9,2.9-1.5c-0.9,3-2,5.7-3.1,9C56.3,34.1,56,32.9,56,32
		C56.2,30.5,55.6,29.9,54.5,29.6z"/>
	<path class="st30" d="M62.7,32.3c-0.2-0.9-0.2-1.8,0.5-2.7c0.7-0.9,1.3-0.6,2,0C65.2,32.3,64.5,33.2,62.7,32.3z"/>
	<path class="st31" d="M66.8,27.8c-1.3-0.6-2.3-1.2-3.6-1.8c0.2-0.6,0.5-1.2,0.7-1.8c0.2-0.6,0.4-0.6,0.7-0.9
		C65,24.8,66.3,26,66.8,27.8z"/>
	<path class="st23" d="M58.9,36.5c-0.5,0.6-0.9,1.2-1.6,0.6c-0.4-0.3-0.7-0.9-0.4-1.2C57.4,35.6,58.1,36.2,58.9,36.5z"/>
	<path class="st25" d="M35.2,35.3c2,0.3,4,1.5,6,1.8c-1.6,1.2-3.6,2.1-5.4,3C35.4,38.6,35.4,36.8,35.2,35.3z"/>
	<path class="st32" d="M40.1,31.1c-0.7,2.4-2.2,2.7-4.3,0.9C37.2,31.7,38.6,31.4,40.1,31.1z"/>
	<path class="st33" d="M52,41.6c-0.9-0.9-1.3-1.8-2-3.3c3.6,1.5,6.7,2.4,9.9,3.9c-0.5,0.9-1.4,1.2-2.2,1.8
		C55.6,43.7,53.6,43.1,52,41.6z"/>
	<path class="st3" d="M52,41.6c2,0.6,3.8,1.5,5.8,2.1C55.6,46.7,52.7,44.6,52,41.6z"/>
</g>
</svg>
