<?xml version="1.0" encoding="utf-8"?>
<!-- Generator: Adobe Illustrator 23.1.0, SVG Export Plug-In . SVG Version: 6.00 Build 0)  -->
<svg version="1.1" id="Capa_1" xmlns="http://www.w3.org/2000/svg" xmlns:xlink="http://www.w3.org/1999/xlink" x="0px" y="0px"
	 viewBox="0 0 50 50" style="enable-background:new 0 0 50 50;" xml:space="preserve">
<style type="text/css">
	.st0{fill:#5C5C5C;}
	.st1{fill:#E4E4E4;}
	.st2{fill:#EEEEEE;}
	.st3{fill:#543042;}
	.st4{fill:#474747;}
	.st5{fill:#FEE5D5;}
	.st6{fill:#939393;}
	.st7{fill:#F4C9B2;}
	.st8{fill:#734C5F;}
	.st9{fill:#C3937D;}
	.st10{fill:#383838;}
	.st11{fill:#95637C;}
	.st12{fill:#010101;}
	.st13{fill:#FDE4D4;}
	.st14{fill:#C4937D;}
	.st15{fill:#F3C9B1;}
	.st16{fill:#C3947C;}
	.st17{fill:#2B2B2B;}
	.st18{fill:#7A7A7A;}
	.st19{fill:#949494;}
	.st20{fill:#F4CAB3;}
	.st21{fill:#C4947E;}
	.st22{fill:#B39960;}
	.st23{fill:#C59680;}
	.st24{fill:#C3937C;}
	.st25{fill:#C2927C;}
	.st26{fill:#080706;}
	.st27{fill:#747473;}
	.st28{fill:#F2C8B1;}
	.st29{fill:#F4C9B3;}
	.st30{fill:#090807;}
	.st31{fill:#343332;}
	.st32{fill:#BA8C75;}
	.st33{fill:#FDFCFB;}
</style>
<g>
	<path class="st0" d="M17.9,4.9c1.9-1.6,3.6-3.2,5.4-4.9c0.1,0,0.3,0,0.4,0c2.9,0.7,5.7,1.3,8.6,2c0.2,0.1,0.3,0.2,0.1,0.3
		c-0.2,0.1-0.5,0.2-0.8,0.3C27,3.7,22.5,4.9,17.9,6c-0.3,0.1-0.7,0.2-1.1,0.1C16.6,5.5,17.4,5.2,17.9,4.9z"/>
	<path class="st1" d="M24.3,49.9c-2.7-0.1-5.4-0.3-8.2-0.5c-1.6-0.1-3.2-0.2-4.7-0.3c-0.9-0.1-1.8-0.1-2.7-0.2
		c2.2-0.1,4.4-0.3,6.5-0.4c0.5,0.3,1.1,0.3,1.7,0.3c1.2,0,2.4,0,3.5,0c0.4,0,0.7,0,1-0.2c0.1-0.1,0.1-0.1-0.1-0.2
		c-0.3-0.1-0.5-0.1-0.4-0.4c1.1-0.1,2.3-0.2,3.4-0.2c1.3,0,2.6,0.1,3.8,0.1c1.9,0.1,3.8,0.3,5.7,0.4c2.2,0.1,4.3,0.2,6.7,0.3
		c-2.1,0.4-4,0.4-6,0.6c-2.6,0.2-5.3,0.4-7.9,0.7c-0.1,0-0.2,0.1-0.2,0.1c-0.4,0-0.8,0-1.2,0C25.2,49.8,24.7,50,24.3,49.9z"/>
	<path class="st2" d="M24.3,49.9c0.4,0,0.9-0.1,1.2,0.1c-0.4,0-0.8,0-1.2,0C24.3,50,24.3,49.9,24.3,49.9z"/>
	<path class="st3" d="M15.1,31.8c-0.2-0.3,0.1-0.4,0.3-0.6c1.2-1.1,2.4-2.2,3.6-3.2c0.3-0.1,0.6,0,0.8,0.1c2.2,1.1,4.5,2.2,6.7,3.3
		c0.2,0.1,0.3,0.2,0.4,0.4c1.6,0.8,3.2,1.6,4.7,2.3c0.2,0.1,0.3,0.2,0.5,0.3c-0.1,0.1-0.1,0.2-0.2,0.2c-1.4,0.8-3,1.4-4.5,2.1
		c-1.4,0.6-2.8,1.3-4.2,1.9c-0.3,0.1-0.6,0.3-1.1,0.3c-0.5-0.1-0.7-0.3-0.9-0.6c-1.9-2-3.8-4-5.6-6.1C15.4,32.2,15.4,31.9,15.1,31.8
		z"/>
	<path class="st3" d="M26.9,31.7c-2.5-1.2-4.9-2.4-7.3-3.5c-0.2-0.1-0.4-0.2-0.6-0.2c0-0.6-0.1-1.2-0.1-1.9
		c-0.2-0.3-0.1-0.6,0.4-0.8c1.9-1,3.8-2,5.8-2.9c0.2-0.1,0.4-0.2,0.7-0.2c0.4-0.1,0.8,0,1.2,0.1c1.3,0.4,2.6,0.7,3.8,1
		c0.4,0.1,1,0.2,1,0.6C30.1,26.5,28.5,29.1,26.9,31.7z"/>
	<path class="st4" d="M41.6,5.4c-0.6,0.2-1.1,0.4-1.7,0.5c-0.3,0.1-0.2,0.3-0.4,0.3c-2.1,0.8-4.2,1.5-6.3,2.2
		c-0.6,0.2-1.3,0.4-1.8,0.8c-0.5,0.1-1.1,0.2-1.5,0.4c-0.9,0.4-1.8,0.6-2.7,0.9c-1.1,0.5-2.2,0.6-3.3,0.1c-0.1-0.1-0.2-0.1-0.4-0.2
		c-1.7-0.7-3.5-1.3-5.3-1.9c-1.2-0.4-2.4-0.8-3.6-1.3c-0.2-0.1-0.7-0.1-0.4-0.4c0.4-0.1,0.9-0.1,1.3-0.2c5.8-0.4,11.6-0.7,17.3-1.1
		c2.4-0.2,4.8-0.3,7.1-0.4C40.6,5.1,41.2,4.9,41.6,5.4z"/>
	<path class="st5" d="M36.1,13.8c-1,0.5-0.9,1.3-1.4,1.9c-0.4,0.5-0.6,1.1-0.8,1.7c-0.2,0.3-0.4,0.4-0.9,0.3
		c-1.4-0.3-2.9-0.6-4.3-0.8c-0.3-0.1-0.7-0.2-1-0.1c-1.1-0.2-2.1-0.5-3.3-0.7C24,16,23.6,16,23.4,15.7c0-0.6,0.3-1.2,0.6-1.8
		c0.4-0.9,0.6-1.8,1.1-2.7c1.4-0.7,3-1.2,4.7-1.5c0.2,0,0.3,0.1,0.4,0.1c0.9,0.3,1.2,1,0.8,1.8c0.4-1,1-1.9,1.6-2.8
		c0.7-0.4,1.5-0.8,2.6-0.8c0.3,0.3,0,0.5-0.2,0.7c-0.9,0.6-0.9,1.3-1.4,2.1c0.4-0.1,0.7-0.3,1-0.1c0.8,0.1,0.9,0,1.1-0.8
		c0-0.3,0.5-0.4,0.7-0.7c-0.1-0.3-0.5-0.6-0.7-0.9c-0.1-0.2-0.4-0.4-0.2-0.6c1-0.4,2.1-0.7,3.1-1.1c0.2-0.1,0.4-0.1,0.6,0
		c0.2,0.3,0,0.5-0.1,0.7c-0.4,0.7-0.8,1.4-1.1,2.2c-0.3,0.6-0.5,1.1-0.8,1.7C36.9,12.2,36.3,12.9,36.1,13.8z"/>
	<path class="st6" d="M41.6,5.4c-1.2-0.3-2.4,0-3.6,0.1c-2.4,0.1-4.9,0.3-7.3,0.4c-3.9,0.2-7.9,0.5-11.8,0.7
		c-1.2,0.1-2.4,0.1-3.5,0.2c-0.2,0.1-0.5,0.1-0.7-0.1c0.3-0.4,0.9-0.4,1.5-0.5c0.2,0,0.4-0.1,0.6,0c4.3-1.1,8.6-2.2,13-3.3
		c0.8-0.2,1.6-0.4,2.4-0.6c0.3-0.1,0.3-0.1,0.2-0.3c0.8,0.2,1.5-0.2,2.1-0.4c2.5-0.6,2.5-0.6,4.1,0.7c1.1,0.8,2.2,1.7,3.2,2.5
		C42,5.1,42.3,5.3,41.6,5.4z"/>
	<path class="st7" d="M31.9,34.5c0.1,0,0.1-0.1,0.2-0.1c-0.5,1.8-1,3.6-1.5,5.4c-0.2,0.6-0.4,1.2-0.5,1.8c-0.1,0.7,0.6,1.3,1,1.9
		c-0.6,0.3-1,0.6-1.8,0.7c-1-0.4-1.7-1-2.4-1.5c0,0,0,0,0-0.1c0.4-0.4,1.4-0.6,1.3-1.1c-0.1-0.9-0.1-1.8-0.8-2.6
		c0-0.1,0-0.2,0.1-0.3c1.1-1,2.1-2,3.1-3C31.1,35.2,31.5,34.8,31.9,34.5z"/>
	<path class="st5" d="M18,20.3c0.5-0.3,1.1-0.2,1.7-0.3c0.4-0.1,0.8-0.1,1.2-0.2c1.3-0.4,2.8-0.4,4.2-0.5c0.2,0,0.5,0,0.7-0.1
		c0.1-0.1,0.3-0.1,0.5-0.1c0.6,0.2,1.2,0,1.8,0c0.4-0.1,0.8-0.1,1.3-0.1c0.1,0.1,0,0.3-0.1,0.4c-1,0.9-1.9,1.7-3,2.5
		c-0.2,0.1-0.4,0.2-0.6,0.2c-0.3,0-0.6,0-0.9-0.1C22.5,21.5,20.2,21,18,20.3z"/>
	<path class="st7" d="M15.2,47.6c0.7-1.7,0.9-3.5,1.2-5.3c0-0.3,0.1-0.5,0.2-0.7c0.1,0,0.3,0,0.4,0.1c0.8,0.7,1.7,1.3,2.2,2.2
		c-0.4,0.6-0.7,1.2-1.1,1.8c-0.4,0.5-0.3,0.8,0.4,1.1c0.4,0.2,0.8,0.4,1.1,0.6c-0.2,0.4-0.6,0.8-1,1.1c-1.1,0.1-2-0.3-2.9-0.6
		C15.4,47.8,15.3,47.7,15.2,47.6z"/>
	<path class="st5" d="M29.5,19.1c2.4,1.3,4.8,2.5,7.2,3.8c0.3,0.1,0.4,0.3,0.8,0.3c0,0.1-0.1,0.2-0.2,0.2c-1.1,0.3-2.2,0.7-3.4,0.8
		c-0.7-0.1-1.3-0.4-2-0.4c-0.6-0.5-0.8-1.1-1.1-1.7c-0.4-0.8-0.8-1.6-1.2-2.4C29.4,19.5,29.3,19.3,29.5,19.1z"/>
	<path class="st8" d="M29.5,19.1c0.8,1.6,1.6,3.2,2.4,4.7c0,0-0.1,0-0.1,0c-0.5-0.5-1.3-0.5-2.1-0.7c-1.3-0.3-2.5-0.8-3.9-1
		c-0.1,0-0.1-0.1-0.1-0.1c0,0,0,0,0.1,0c1.3-0.9,2.4-2,3.6-3C29.4,19.1,29.4,19.1,29.5,19.1z"/>
	<path class="st7" d="M33.9,24.2c1.1-0.5,2.4-0.6,3.6-1c1.8-0.4,3.5-0.8,5.2-1.3c0,0,0.1,0,0.1,0c0.3,0.2,0.7,0.4,0.9,0.6
		c-1.7,0.8-3.4,1.5-5,2.2c-0.6,0.3-1.2,0.4-2,0.2C35.8,24.7,34.8,24.5,33.9,24.2z"/>
	<path class="st9" d="M19.1,43.8c-0.8-0.7-1.7-1.5-2.5-2.2c0,0,0-0.1,0-0.1c0.1-0.1,0.1-0.2,0.3-0.3c1.5-0.7,3-1.4,4.5-2
		c0.2-0.1,0.4-0.1,0.6,0c0.2,0.4-0.3,0.7-0.7,1C20.6,41.4,19.8,42.6,19.1,43.8z"/>
	<path class="st8" d="M21.3,40.1c0.2-0.3,0.4-0.7,0.6-1c-0.1-0.1,0.1-0.2,0.2-0.2c1.7-0.8,3.4-1.5,5.1-2.3c0.6,0.6,0.7,1.3,0.4,2
		c-0.1,0-0.1,0.1-0.2,0.1c-1.6,0.4-3.3,0.8-4.9,1.2C22.2,40.1,21.8,40.2,21.3,40.1z"/>
	<path class="st3" d="M38.7,19.6c-0.2-0.1-0.4-0.3-0.6-0.4c-0.2-0.2,0.1-0.4,0.3-0.6c1.4-0.9,2.9-1.6,4.3-2.5
		c0.2-0.1,0.4-0.2,0.7-0.1c0.2,0.2,0.4,0.3,0.7,0.5c-0.2,0.7-1.3,0.9-1.9,1.5c0.7,0,1.3,0.1,1.9,0.2c0.2,0,0.6,0,0.6,0.3
		c-0.2,0.2-0.8,0.3-0.8,0.6c-0.3,0.3-0.7,0.5-1.2,0.7c-0.5,0-0.6,0.3-1,0.4c-0.5,0-0.4-0.3-0.4-0.5c-0.1-0.3,0-0.7,0-1.1
		c-0.6,0.2-1,0.5-1.4,0.7C39.5,19.5,39.2,19.8,38.7,19.6z"/>
	<path class="st0" d="M37.9,9.6c0.4-1,1.1-1.9,1.4-2.9c-0.1-0.2,0.2-0.4,0.2-0.7C39.6,6,39.7,5.9,40,5.9c-0.2,0.2,0.1,0.4,0.3,0.6
		c0.8,0.9,1.7,1.8,2.5,2.7c0.2,0.2,0.5,0.4-0.1,0.5C41.1,9.7,39.5,9.7,37.9,9.6z"/>
	<path class="st9" d="M26.3,19.2c-0.1,0.1-0.1,0.1-0.2,0.1c-0.6,0.2-0.7-0.2-0.9-0.3c-0.9-0.9-1.8-1.9-2.7-2.8
		c-0.2-0.2-0.5-0.5-0.2-0.7c0.4-0.2,0.9,0,1.2,0.2c1.1,0.2,2.1,0.4,3.2,0.7c0.3,0.1,0.8,0.1,0.8,0.4C27.1,17.6,26.7,18.4,26.3,19.2z
		"/>
	<path class="st10" d="M37.9,9.6c1.6-0.2,3.2-0.2,4.7,0c-0.5,0.3-1.4,0.4-1.6,0.9c-1.1,0.2-1.8,0.7-2.8,1c-0.3,0.1-0.6,0.3-1.1,0.2
		c-0.2-0.1-0.1-0.3-0.2-0.4C37.3,10.8,37.6,10.2,37.9,9.6z"/>
	<path class="st11" d="M43.4,16.1c-1.9,1-3.9,1.9-5.4,3.1c-0.3-0.2-0.6-0.5-1-0.7c0.1-0.3,0.6-0.5,0.9-0.7c1.2-0.7,2.4-1.3,3.6-2
		c0.3-0.2,0.6-0.3,0.9-0.3C42.9,15.7,43.2,15.9,43.4,16.1z"/>
	<path class="st3" d="M42.5,15.5c-1.8,1-3.6,2-5.4,3c-0.3-0.2-0.5-0.4-0.8-0.5c0-0.4,0.5-0.5,0.8-0.7c0.5-0.3,1.1-0.6,1.6-0.8
		c0.2-0.1,0.3-0.2,0.5-0.3c0.5-0.3,1-0.6,1.5-0.9c0.3-0.2,0.7-0.4,1.2-0.3C42,15.2,42.3,15.3,42.5,15.5z"/>
	<path class="st11" d="M47.7,21.9c0.7,0.5,1.4,1,2.1,1.5c0.6,0.4-0.2,0.5-0.5,0.7c-0.2,0.2-0.4,0.3-0.8,0.1
		c-0.8-0.6-1.7-1.2-2.5-1.8c-0.1-0.1,0-0.1,0-0.2C46.6,21.8,47.1,21.7,47.7,21.9z"/>
	<path class="st12" d="M37.3,11.8c1.1-0.4,2.2-0.9,3.2-1.3c0.2-0.1,0.4-0.3,0.5,0c0,0.5,0.3,1.2-0.2,1.6c-0.5,0.4-1.6,0-2.4,0
		c-0.3,0-0.6,0-0.9,0C37.4,12,37.2,12,37.3,11.8z"/>
	<path class="st3" d="M39.3,16.3c-0.1,0.1-0.2,0.2-0.4,0.2c-0.8,0.1-1.6,0-2.4-0.1c-0.3,0-0.8-0.1-0.6-0.4c1-0.6,1.9-1.2,3-1.6
		c0.5,0.4,0.2,0.8,0.3,1.2C39.2,15.8,39.1,16,39.3,16.3z"/>
	<path class="st13" d="M42.6,22c0.3-0.5,0.7-1,1-1.5c0.1-0.5,0.6-0.6,1.2-0.7c0.8,0.1,1.2,0.6,1.5,1c0.3,0.4-0.2,0.5-0.7,0.7
		c-0.3,0-0.6,0-0.8-0.1c-0.5-0.1-0.8,0.2-1.1,0.3C43.4,21.8,43.1,22.1,42.6,22L42.6,22z"/>
	<path class="st3" d="M26.9,42.5c1.1,0.3,1.5,1,2.4,1.5c0.3,0.1,0.6,0.3,0.9,0.5c0.2,0.1,0.3,0.2,0.4,0.3c0.1,0.1,0.3,0.2,0,0.4
		c-1.5-0.4-2.8-1.1-4.2-1.6c-0.3-0.1-0.2-0.2-0.1-0.4C26.6,42.9,26.8,42.7,26.9,42.5z"/>
	<path class="st7" d="M45.7,21.4c0.6-0.2,0.8-0.5,0.2-0.8c-0.4-0.2-0.6-0.5-1.1-0.7c0,0,0-0.1,0-0.1c0.7-0.5,1.3-0.4,1.7,0.2
		c0.1,0.2,0.4,0.3,0.6,0.4c0.8,0.4,0.9,0.7,0.1,1.2c-0.2,0.3-0.5,0.4-1,0.4C45.9,21.8,45.6,21.7,45.7,21.4z"/>
	<path class="st11" d="M39.3,16.3c-0.5-0.1-0.4-0.3-0.4-0.5c0-0.5,0-1,0-1.4c1.1,0,2,0.3,3,0.6C40.7,15.2,40.2,15.9,39.3,16.3z"/>
	<path class="st11" d="M35.8,16c0.1,0.3,0.5,0.2,0.9,0.3c0.7,0,1.5,0.1,2.1,0.3C38,17,37,17.4,36.3,18c-0.4-0.5-0.5-1.1-0.7-1.7
		C35.5,16.1,35.6,16.1,35.8,16z"/>
	<path class="st11" d="M38.7,19.6c1-0.2,1.5-0.9,2.4-1.2c0.1,0,0.2-0.1,0.4-0.2c0.3,0.6-0.2,1.3,0.3,1.8c-0.3,0.3-0.6,0.1-1,0
		C40,20,39.3,19.9,38.7,19.6z"/>
	<path class="st11" d="M44.6,18.5c-0.7-0.2-1.5-0.2-2.2-0.2c-0.2,0-0.6,0.1-0.7-0.1c-0.1-0.2,0.2-0.2,0.4-0.3
		c0.7-0.3,1.4-0.7,1.9-1.2C44.4,17.2,44.8,17.8,44.6,18.5z"/>
	<path class="st3" d="M37.3,11.8c0.1,0.1,0.2,0.2,0.3,0.3c0,0-0.1,0.1-0.1,0.1c0,0.4,0.7,0.8,0.3,1.1c-0.4,0.3-1.1,0.3-1.7,0.4
		c-0.4,0-0.3-0.2-0.2-0.3c0.4-0.7,0.8-1.4,1.2-2.1C37.3,11.4,37.3,11.6,37.3,11.8z"/>
	<path class="st14" d="M42.7,22c0.5-0.3,1.1-0.5,1.6-0.8c0.2-0.1,0.4-0.2,0.6,0c0.4,0.3,1,0.5,1.2,0.9c0,0,0,0.1,0,0.1
		c-0.9,0-1.6,0.3-2.4,0.4C43.1,22.6,42.8,22.4,42.7,22z"/>
	<path class="st11" d="M44.8,19.8C44.8,19.8,44.8,19.8,44.8,19.8c-0.4,0.3-0.8,0.5-1.2,0.7c-0.4-0.2-0.7-0.4-1-0.7
		c0.3-0.3,0.6-0.6,1.2-0.7C44.2,19.3,44.5,19.5,44.8,19.8z"/>
	<path class="st15" d="M30.5,44.7c-0.2-0.1-0.3-0.2-0.5-0.3c0.2-0.4,0.6-0.6,1.3-0.6c0.3,0.4,0.5,0.8,0.8,1.1
		C31.4,45.2,31,44.9,30.5,44.7z"/>
	<path class="st15" d="M21.1,48.1c0.1,0.2,0.3,0.2,0.6,0.3c-0.6,0.5-1.4,0.3-2.1,0.4c-0.1,0-0.2-0.1-0.3-0.1
		c-0.2-0.5,0.1-0.8,0.8-0.9C20.4,47.9,20.8,48,21.1,48.1z"/>
	<path class="st8" d="M31.3,43.9c-0.5,0.2-1,0.3-1.3,0.6c-0.3-0.2-0.6-0.3-0.7-0.5c0.6-0.2,1-0.6,1.8-0.6
		C31.2,43.5,31.2,43.7,31.3,43.9z"/>
	<path class="st8" d="M20.1,47.7c-0.4,0.3-0.7,0.5-0.8,0.9c-0.4,0.1-0.8,0.1-0.8-0.3c0.3-0.4,0.5-0.7,1-1
		C19.8,47.5,20,47.6,20.1,47.7z"/>
	<path class="st11" d="M46,22.1c-0.5-0.3-1-0.5-1.2-0.9c0.3,0,0.5,0.1,0.8,0.1c0.4,0.6,1,0.5,1.6,0.1c0.1,0.1,0.3,0.2,0.4,0.4
		C47.1,22,46.6,22,46,22.1z"/>
	<path class="st16" d="M30.5,44.7c0.6,0,1,0.3,1.6,0.3c0.2,0.1,0.5,0.1,0.7,0.2c-0.8,0.4-1.5,0.4-2.1-0.1
		C30.6,45,30.6,44.9,30.5,44.7z"/>
	<path class="st17" d="M16.3,6.2c-0.5,0.1-1,0.3-1.5,0.4c-0.1,0.1-0.4,0.1-0.6,0.2c1.4,0.5,2.8,1,4.2,1.5c0.1,0.3-0.2,0.4-0.4,0.5
		c-1.3,0.8-2.4,1.6-3.7,2.4c-0.2,0.1,0,0.2-0.1,0.3c-0.7,0.3-0.9-0.1-1.1-0.3c-0.7-0.9-1.3-1.8-1.9-2.7c-0.3-0.7-1.1-1.3-1.2-2.1
		C9.4,5.7,8.9,4.9,8.4,4.2C8.3,4,8,3.8,8.6,3.9c2.5,0.5,4.8,1.3,7.3,2C16.1,5.9,16.4,6,16.3,6.2z"/>
	<path class="st3" d="M22.1,38.9C22.1,39,22,39,21.9,39.1c-1.9,0.7-3.6,1.6-5.3,2.4c-0.4-1-0.4-1.9-0.5-2.9
		c-0.3-2.3-0.6-4.6-0.9-6.8c1.1,0.8,1.7,1.7,2.6,2.6c1.3,1.3,2.5,2.7,3.8,4.1C21.7,38.6,21.8,38.8,22.1,38.9z"/>
	<path class="st7" d="M23.5,15.7c-0.4-0.1-0.7-0.1-1.4-0.2c1.3,1.3,2.5,2.6,3.6,3.8c0,0,0.2,0,0.3,0.1c-1.1,0.3-2.2,0.2-3.3,0.4
		c-0.6,0.1-1.2,0.2-1.9,0.1c-0.2-1-0.4-2-0.6-3c0-0.2,0-0.5-0.2-0.7c-0.6-0.8-0.4-1.6-0.7-2.4c0-0.1,0-0.2,0.1-0.3
		c0.4-0.5,1.3-0.5,1.9-0.8c0.3-0.1,0.7-0.2,1-0.4c0.2-0.1,0.3-0.3,0.4-0.4c0.4-0.3,0.6-0.8,1.4-0.9c0.4,0,0.8-0.1,1.1,0.1
		C24.7,12.8,24.1,14.2,23.5,15.7z"/>
	<path class="st4" d="M11.4,8.5c0.7,0.9,1.3,1.8,2,2.7c0.1,0.2,0.2,0.6,0.8,0.3c1.4-0.5,2.9-0.6,4.4-0.6c0.5,0.4-0.3,0.5-0.5,0.8
		c-0.9,0.6-1.9,1-2.8,1.6c-0.3,0.2-0.6,0.4-1.1,0.4c-0.9-0.2-1.5-0.7-2.1-1C10,11.6,8,10.5,6,9.4C5.8,9.3,5.6,9.2,5.6,9
		C5.5,8.8,5.8,8.8,6,8.7c1.7-0.2,3.4-0.3,5.2-0.3C11.2,8.4,11.3,8.5,11.4,8.5z"/>
	<path class="st8" d="M25.7,22.1c0,0,0,0.1,0,0.1c-2.1,1.1-4.2,2.1-6.3,3.2c-0.4,0.2-0.4,0.4-0.5,0.7c-0.1-0.8-0.3-1.7-0.4-2.5
		c-0.8-0.7-0.4-1.5-0.6-2.2c-0.1-0.3-0.1-0.7,0.1-1c0,0,0-0.1,0-0.1c0.3-0.1,0.6,0,0.9,0.1C21.1,21,23.4,21.6,25.7,22.1z"/>
	<path class="st7" d="M6.4,23.1c2.2,0.4,4.5,0.7,6.8,1c1.2,0,2.4,0.1,3.4,0.5c-0.7,0.6-1.8,1.1-2.6,1.6c-0.3,0.2-0.6,0.1-0.9,0
		C10.7,25.5,8.3,24.7,6,24c-0.1-0.3,0.1-0.6,0.2-0.9C6.2,23.1,6.3,23.1,6.4,23.1z"/>
	<path class="st10" d="M6,9.4c0.7,0,1,0.4,1.5,0.6c2.3,1.2,4.5,2.4,6.7,3.7c-0.4,0.7-1.1,1.2-2.3,1.4C9.8,13.2,7.9,11.3,6,9.4z"/>
	<path class="st5" d="M16.5,24.6c-1.1-0.2-2.3-0.3-3.4-0.5c0.7-0.8,1.8-1.5,2.8-2.3c0.6-0.5,1.2-1.1,2.1-1.5
		c0.3,1.1,0.4,2.2,0.6,3.3C17.6,23.8,17.3,24.4,16.5,24.6z"/>
	<path class="st17" d="M11.9,15c0.9-0.4,1.6-0.9,2.3-1.4c1.4-0.6,2.5-1.4,3.8-2c0.6-0.2,1.1,0,1.5,0.3c0.3,0.5,0.5,1.1,0.3,1.6
		c0,0.1,0,0.2,0,0.3c-2.2,0.5-4.4,0.9-6.7,1.4c-0.2,0-0.3,0-0.4,0.1C12.3,15.2,12,15.2,11.9,15z"/>
	<path class="st12" d="M12.6,15.2c0-0.1-0.1-0.2,0-0.2c2.1-0.4,4.2-0.8,6.3-1.2c0.2-0.1,0.5,0,0.8,0c0.1,0.8,0.3,1.7,0.4,2.5
		C17.6,15.9,15.1,15.6,12.6,15.2z"/>
	<path class="st3" d="M3.6,17c0-0.3,0.3-0.5,0.5-0.7c1.1-0.1,1.8,0.4,2.8,0.6c0.1-0.6-0.8-1.1-0.5-1.7c1.4,0.3,2.7,0.7,4,1.1
		c0,0.4-0.5,0.4-0.9,0.5C9.1,16.9,8.6,17,8,17.2c0.8,0.2,1.4,0.4,2.1,0.6c0.3,0.1,0.7,0.2,0.6,0.5c-0.1,0.2-0.2,0.4-0.4,0.6
		c-0.2,0.1-0.5,0-0.7,0c-1.8-0.5-3.6-1.1-5.4-1.6C3.9,17.2,3.7,17.1,3.6,17z"/>
	<path class="st3" d="M4,20.5c-0.3-0.1-0.7-0.2-1-0.3c-0.2-0.2,0-0.3,0.2-0.4c0.7-0.2,1.3-0.4,2.1-0.5c-0.5-0.3-1.2-0.3-1.7-0.5
		c-0.4-0.1-0.9-0.2-0.9-0.6c0.2-0.2,0.3-0.4,0.5-0.6c0.4-0.1,0.6,0,0.9,0.1c1.7,0.5,3.3,0.9,4.9,1.4c0.3,0.1,0.7,0.2,0.7,0.5
		c-0.1,0.2-0.2,0.5-0.5,0.6c-0.6,0.2-1-0.1-1.5-0.2c-0.4-0.1-0.8-0.2-1.2-0.3c-0.1,0.6,0.8,1,0.4,1.6c-0.5,0-0.8-0.3-1.4-0.2
		C4.8,21,4.3,20.8,4,20.5z"/>
	<path class="st18" d="M16.3,6.2c-2-0.8-4.2-1.2-6.3-1.9C9.5,4.2,9,4.1,8.6,3.9C10.8,4,13,4.3,15.3,4.6c0.9,0.1,1.8,0.2,2.6,0.3
		c-0.4,0.4-0.8,0.8-1.2,1.3C16.7,6.2,16.5,6.3,16.3,6.2z"/>
	<path class="st0" d="M11.4,8.5C9.6,8.6,7.9,8.8,6.2,8.9c-0.2,0-0.5,0-0.6,0.2c-0.3-0.1-0.1-0.3,0-0.4c1.3-0.8,2.7-1.5,4.2-2.1
		c0,0,0.1,0,0.2,0C10.5,7.1,11,7.8,11.4,8.5z"/>
	<path class="st11" d="M9.6,19.6C7.9,19,5.9,18.5,4.1,18c-0.4-0.1-0.7-0.2-1.1-0.3c0.1-0.2,0.2-0.5,0.5-0.7c2.3,0.6,4.4,1.2,6.6,1.9
		C10,19.1,9.8,19.4,9.6,19.6z"/>
	<path class="st11" d="M3.5,23.9c-0.5,0.7-1.2,1.4-1.6,2.1c-0.3,0.5-0.7,0.4-1.2,0.2c-0.7-0.2-0.6-0.4-0.3-0.7
		c0.5-0.6,0.9-1.1,1.3-1.7c0.5-0.2,1-0.2,1.6-0.1C3.3,23.8,3.4,23.8,3.5,23.9z"/>
	<path class="st3" d="M18.5,48.3c0.2,0.2,0.6,0.2,0.8,0.3c0.1,0,0.1,0,0.2,0c0.4,0.2,1.2-0.1,1.4,0.4c-1.6,0-3.2,0-4.8,0
		c-0.6,0-0.7-0.2-0.7-0.5c0-0.1,0-0.2,0-0.4c0-0.2-0.2-0.4,0.2-0.4C16.6,47.9,17.4,48.3,18.5,48.3z"/>
	<path class="st19" d="M9.8,6.5C8.5,7.3,7.1,8,5.6,8.6C5.7,8,6.2,7.5,6.5,6.9C6.6,6.7,6.8,6.6,7,6.6C7.9,6.6,8.9,6.6,9.8,6.5z"/>
	<path class="st5" d="M6.4,23.1c-0.1,0-0.1,0-0.2,0c-0.4,0.2-0.7,0-1-0.1C4.8,23,4.5,22.9,4.1,23c-0.3,0.1-0.6,0.2-1,0.2
		c-0.8-0.1-1-0.4-0.7-0.9c0.2-0.3,0.3-0.7,0.9-0.9c0.6,0,1.1,0.2,1.6,0.4C5.2,22.4,5.9,22.7,6.4,23.1z"/>
	<path class="st20" d="M3.4,21.5c-0.5,0.3-0.6,0.7-0.9,1.1C2.2,23,2.9,23,3.2,23.1c0.2,0.3,0,0.5-0.3,0.6c-0.4,0.1-0.8,0-1.1-0.2
		c-0.9-0.2-1.1-0.5-0.5-1c0.2-0.2,0.4-0.4,0.5-0.6c0.2-0.6,0.7-0.8,1.6-0.6C3.4,21.4,3.4,21.4,3.4,21.5C3.4,21.5,3.4,21.5,3.4,21.5z
		"/>
	<path class="st11" d="M10.6,18.3c-0.4-0.4-1.2-0.4-1.8-0.7c-0.4-0.2-0.8-0.3-1.2-0.4c0.8-0.5,2-0.4,2.8-0.9
		C10.7,16.9,10.9,17.6,10.6,18.3z"/>
	<path class="st11" d="M6.4,15.2c0.3,0.6,0.6,1.2,1,2c-1.2-0.3-2.3-0.6-3.3-0.9C4.7,15.8,5.6,15.5,6.4,15.2z"/>
	<path class="st11" d="M2.6,18.3c0.8,0.5,2,0.6,2.9,1c-0.7,0.5-2,0.4-2.5,1c-0.6-0.2-0.3-0.6-0.4-0.9C2.6,18.9,2.4,18.6,2.6,18.3z"
		/>
	<path class="st11" d="M6.8,21.3c-0.1-0.6-0.6-1.2-0.8-1.8c1.2,0.1,2.1,0.6,3.1,0.8C8.4,20.6,7.7,21,6.8,21.3z"/>
	<path class="st21" d="M4,22.9c0.9-0.3,1.4,0.3,2.2,0.3c0.4,0.3-0.1,0.6-0.2,0.9c-0.8,0-1.7,0.1-2.5-0.1H3.4l-0.1,0
		C3.2,23.5,3.7,23.2,4,22.9z"/>
	<path class="st11" d="M3.4,21.5c0,0,0-0.1,0-0.1c0.2-0.3,0.4-0.6,0.6-0.9C4.5,20.7,5,20.8,5.4,21c-0.2,0.3-0.3,0.5-0.5,0.8
		C4.3,21.9,3.9,21.6,3.4,21.5z"/>
	<path class="st11" d="M4,22.9c0,0.4-0.4,0.7-0.6,1c-0.6,0-1.2,0-1.7,0c0.1-0.1,0.1-0.3,0.2-0.4c0.7,0.2,1.3,0.3,1.4-0.4
		C3.5,23,3.7,23,4,22.9z"/>
	<path class="st22" d="M15.6,47.7c-0.3,0.1-0.2,0.3-0.2,0.4c-0.2-0.2-0.2-0.3-0.1-0.5C15.3,47.7,15.4,47.7,15.6,47.7z"/>
	<path class="st23" d="M20.9,49c-0.4-0.2-1-0.2-1.4-0.4c0.8,0,1.5-0.1,2.2-0.3c0.1,0.1,0.7-0.2,0.4,0.2C21.8,48.8,21.5,49.1,20.9,49
		z"/>
	<path class="st24" d="M27.7,38.6c-0.1-0.7-0.3-1.3-0.4-2c1.5-0.8,3.1-1.5,4.6-2.1C30.6,35.9,29.2,37.3,27.7,38.6z"/>
	<path d="M18.8,11c-1.6,0.1-3.1,0.4-4.6,0.5c-0.6-0.2-0.1-0.3,0.1-0.4c1.4-0.9,2.8-1.9,4.1-2.8c1.9,0.6,3.7,1.2,5.4,1.9
		c-0.4,0.4-1,0.3-1.6,0.4c-0.8,0.1-1.5,0.2-2.3,0.3C19.5,10.9,19.2,11.1,18.8,11z"/>
	<path class="st3" d="M22.1,10.5c0.5-0.1,1.1-0.2,1.6-0.3c0.1,0,0.1,0.1,0.2,0.1c0.1,0.7-0.6,1.2-1,1.8c-0.1,0.1-0.2,0.2-0.3,0.4
		c-1.3,0.1-2.3-0.2-3.3-0.6c-0.5-0.1-0.9-0.2-1.4-0.3c0.3-0.2,0.5-0.4,0.8-0.6c0.3-0.1,0.6-0.1,0.9-0.2c0.2,0.1,0.4,0.1,0.6,0.1
		C21.1,11.1,21.7,11,22.1,10.5z"/>
	<path class="st9" d="M39.5,6.1c0.3,0.3,0,0.5-0.2,0.7c-1.2,0.4-2.3,0.9-3.6,1.1c-0.2,0.1,0,0.3-0.4,0.3c-0.9,0.2-1.7,0.4-2.4,0.8
		c-0.4,0.3-0.9,0.6-1.6,0.5c-0.1-0.1-0.1-0.2,0-0.3c0-0.4,0.7-0.5,1.1-0.6C34.7,7.7,37.1,6.9,39.5,6.1z"/>
	<path class="st25" d="M23,12.1c0.2-0.6,0.5-1.2,1-1.8c1.2,0.6,2.4,0.3,3.5-0.2c0.8-0.3,1.6-0.5,2.5-0.8c0.3,0.2,0.3,0.3,0,0.5
		c-1.6,0.4-3,0.9-4.6,1.4C24,11,23.5,11.6,23,12.1z"/>
	<path class="st26" d="M29.9,9.9c0-0.2,0-0.3,0-0.5c0.4-0.2,0.8-0.5,1.4-0.3c0,0.1,0,0.2,0,0.3c0,0.6-0.1,0.7-1.2,0.6
		C30,10,30,9.9,29.9,9.9z"/>
	<path class="st27" d="M14.2,6.9c0.1-0.2,0.4-0.2,0.6-0.2c0.1,0.1,0.4,0.1,0.6,0.1C15,7,14.6,6.9,14.2,6.9z"/>
	<path class="st11" d="M26.3,12.4c1.8,0.2,3.4,0.3,4.9,0.5c1.1,0.2,1.9,0.8,2.9,1.2c0.3,0.1,0.1,0.3-0.1,0.3
		c-1.3,0.5-2.6,1.1-3.9,1.6c-0.3,0.1-0.5,0.1-0.6-0.1C28.4,14.8,27.4,13.7,26.3,12.4z"/>
	<path class="st28" d="M36.9,9.4C36.7,9.6,36,9.7,36,10c-1.1-0.1-1.1,0.4-1.4,0.8c-0.6-0.2-0.7,0.4-1.4,0.3c0.6-0.8,0.4-1.8,1.6-2.4
		C35.7,8.7,36.3,9,36.9,9.4z"/>
	<path class="st29" d="M30.1,10c0.8,0.1,1-0.3,1.2-0.6c0.5-0.2,1-0.3,1.6-0.5c-0.5,1-1.1,1.9-1.7,3c-0.1-0.4-0.3-0.8-0.3-1.1
		C31,10.3,30.7,10.1,30.1,10z"/>
	<path class="st30" d="M34.6,10.9c-0.1-0.3-0.1-0.6,0.3-0.9c0.4-0.3,0.7-0.2,1.1,0C36,10.9,35.6,11.2,34.6,10.9z"/>
	<path class="st31" d="M36.9,9.4c-0.7-0.2-1.3-0.4-2-0.6c0.1-0.2,0.3-0.4,0.4-0.6C35.4,8,35.5,8,35.7,7.9
		C35.9,8.4,36.6,8.8,36.9,9.4z"/>
	<path class="st23" d="M32.5,12.3c-0.3,0.2-0.5,0.4-0.9,0.2c-0.2-0.1-0.4-0.3-0.2-0.4C31.7,12,32.1,12.2,32.5,12.3z"/>
	<path class="st25" d="M19.4,11.9c1.1,0.1,2.2,0.5,3.3,0.6c-0.9,0.4-2,0.7-3,1C19.5,13,19.5,12.4,19.4,11.9z"/>
	<path class="st32" d="M22.1,10.5c-0.4,0.8-1.2,0.9-2.4,0.3C20.5,10.7,21.3,10.6,22.1,10.5z"/>
	<path class="st33" d="M28.7,14c-0.5-0.3-0.7-0.6-1.1-1.1c2,0.5,3.7,0.8,5.5,1.3c-0.3,0.3-0.8,0.4-1.2,0.6
		C30.7,14.7,29.6,14.5,28.7,14z"/>
	<path class="st3" d="M28.7,14c1.1,0.2,2.1,0.5,3.2,0.7C30.7,15.7,29.1,15,28.7,14z"/>
</g>
</svg>
