<?xml version="1.0" encoding="utf-8"?>
<!-- Generator: Adobe Illustrator 23.1.0, SVG Export Plug-In . SVG Version: 6.00 Build 0)  -->
<svg version="1.1" id="Capa_1" xmlns="http://www.w3.org/2000/svg" xmlns:xlink="http://www.w3.org/1999/xlink" x="0px" y="0px"
	 viewBox="0 0 91 151.2" style="enable-background:new 0 0 91 151.2;" xml:space="preserve">
<style type="text/css">
	.st0{fill:#E8E8E8;}
	.st1{fill:#F6F6F6;}
	.st2{fill:#FCE5D5;}
	.st3{fill:#616363;}
	.st4{fill:#543042;}
	.st5{fill:#535453;}
	.st6{fill:#D5D8D5;}
	.st7{fill:#734C5F;}
	.st8{fill:#F6CAB3;}
	.st9{fill:#545554;}
	.st10{fill:#95637C;}
	.st11{fill:#565756;}
	.st12{fill:#929291;}
	.st13{fill:#8F8F8E;}
	.st14{fill:#E2E5E3;}
	.st15{fill:#5A5E5E;}
	.st16{fill:#747373;}
	.st17{fill:#C2C2C2;}
	.st18{fill:#A1A3A2;}
	.st19{fill:#5C5C5C;}
	.st20{fill:#3F3F3F;}
	.st21{fill:#C2917C;}
	.st22{fill:#FCF2EA;}
	.st23{fill:#C69781;}
	.st24{fill:#F2CAB4;}
	.st25{fill:#F3CAB5;}
	.st26{fill:#C99B86;}
	.st27{fill:#F5CAB3;}
	.st28{fill:#F9E3D4;}
	.st29{fill:#EDC8B3;}
	.st30{fill:#5B5E5E;}
	.st31{fill:#C59781;}
	.st32{fill:#FBE5D5;}
	.st33{fill:#C3947E;}
	.st34{fill:#A2A3A1;}
	.st35{fill:#C0917D;}
	.st36{fill:#FAE4D4;}
	.st37{fill:#F0C8B3;}
	.st38{fill:#467D7E;}
	.st39{fill:#2E2E2D;}
	.st40{fill:#C69782;}
	.st41{fill:#7E7C7B;}
	.st42{fill:#353634;}
</style>
<g>
	<path class="st0" d="M38.7,149.4c-12.5-1.2-25.2-2.4-37.8-3.6c0-0.3,0-0.3,0-0.3c7.2-0.3,14.5-0.9,21.7-1.2
		c0.7,0.6-0.4,1.8,1.1,2.1c4.1,0.6,8.4,0.3,12.5,0.3c0.9,0,1.4-0.3,2-0.9c2.1-0.9,4.3-0.3,6.6-0.6c0.9,0,2.1,0.3,2.5-0.9
		c0-0.3,0-0.9,0.2-1.2c6.8,0.3,13.8,0.9,20.6,1.5c4.3,0.3,8.6,0.6,12.9,0.9c1.3,0,2.5,0,4.1,0.6c-5.4,0.6-10.4,1.2-15.4,1.8
		c-5.9,0.9-12,0.9-17.9,2.1c-3.6,0-7.3,0-10.9,0C40.3,149.4,39.4,150,38.7,149.4z"/>
	<path class="st1" d="M38.7,149.4c0.7,0,1.6-0.3,2.1,0.3c-0.7,0-1.4,0-2.1,0C38.7,149.7,38.7,149.7,38.7,149.4z"/>
	<path class="st2" d="M57.3,26c0.9,5.7,2,11.4,3,17c0.2,0.9-0.4,1.2-1.3,1.2c-5.2,0.9-10.4,1.8-15.6,3c-0.4,0-0.7,0-0.9,0.3
		c-0.2,0-0.4,0.3-0.5,0.3c-2.3,0.3-4.5,1.2-7,0.6c-0.9-0.6-1.1-1.2-1.3-1.8c-1.4-4.8-2.5-9.6-3.9-14c-0.2-0.6-0.4-1.2,0-1.8
		c0.7-0.6,1.6-0.9,2.7-0.9c2.1,0,4.5-0.3,6.6-0.6c2-0.3,3.4,0,4.7,1.2c0.4,0,0.5,0.3,0.9,0.6c0.2,0.9,0.9,1.2,1.6,1.2
		c1.1,0,1.4-0.9,1.6-1.5c0.2-0.6-0.2-1.2,0.2-1.8c2.7-1.2,5.2-2.1,7.7-3C56.5,26,57,25.7,57.3,26z"/>
	<path class="st3" d="M20.5,124c-0.9-3.3-1.6-6.3-2.5-9.6c1.8-0.9,3.8-0.9,5.5-0.9c4.3-0.3,8.4-0.6,12.7-0.9c0.2,0,0.4-0.3,0.5,0
		c2.5,0.6,3.9-0.6,4.3-2.7c4.5-2.7,9.3-4.8,13.6-7.2c-0.7,0.3-2,0-3.2,0c-0.5,0-1.3,0-1.1-0.9c2.1-0.9,4.3-0.9,6.4,0
		c-2.9,6.6-5.7,13.1-9,19.4c-0.7,0.6-1.8,0.9-2.9,1.2c-3,0.6-5.9,1.2-9,1.8c-4.8,0-9.7-0.3-14.3-0.3C21.4,124.6,20.8,124.3,20.5,124
		z"/>
	<path class="st2" d="M51.4,2.7c0.7,0,1.1,0.6,1.1,0.9c0.9,3.6,2.1,7.2,2.3,10.8c-0.4,0.9-1.4,0.9-2.3,1.2c-2.3,0.6-4.5,0.6-6.8,1.2
		c-1.6,0.3-3.2,0.6-4.8,0.9c-3.8,0.6-7.3,1.2-11.1,1.8c-0.9,0.3-1.8,0.3-2.7,0c-1.6-1.8-1.8-4.2-2.7-6.6c-0.5-1.2-0.9-2.4-1.4-3.9
		c-0.2-0.6-0.5-1.2,0-2.1c2.5-0.9,5,0.3,7.5,0.3C36.2,6,41.8,4.5,47.3,3C48.8,3,50,2.7,51.4,2.7z"/>
	<path class="st4" d="M65.2,73.5c3.2-0.9,5.7-3,8.6-4.5c0.4,0,0.5,0,0.7,0.3c1.8,2.4,4.1,4.5,5.2,7.5c-3.9,3-8.2,5.7-12.5,8.7
		c-3.8,2.4-3.8,2.4-7-0.6c-1.4-1.5-3-2.7-4.5-3.9c0,0-0.2,0-0.5-0.3c0,0.6-0.2,0.9-0.2,1.5c-1.1-0.3-0.7-1.2-0.9-1.8
		c0-0.3,0-0.3,0.2-0.6c1.4-1.5,3.6-2.1,5.4-3.3C61.6,75.3,63.3,74.4,65.2,73.5z"/>
	<path class="st4" d="M54.7,80.1c0.2,0.6-0.2,1.2,0.4,1.8c0.5,6,1.3,12,1.8,17.9c0,0.9,0,1.5,0,2.4c-2.1,0.3-4.3-0.3-6.4,0.3
		c-2.1,1.2-4.5,0.6-6.6,0.3c-1.1-0.3-0.9-0.9-0.2-1.5c2-1.5,2.5-3.3,3.6-5.1c0.9-1.5,0.5-2.1-1.1-3c-0.7-0.3-1.3-0.6-1.8-0.9
		c-0.2-0.3-0.2-0.3-0.2-0.6c0-0.6,0.2-1.2,0.2-1.8c0-0.3,0.2-0.6,0.5-0.9c2.7-2.4,5-5.1,7.5-7.8C53.1,80.7,53.6,80.1,54.7,80.1z"/>
	<path class="st4" d="M65.2,73.5c-2.5,2.1-5.7,3.3-8.4,5.1c-0.7,0.3-1.4,0.6-2,1.2c-0.9-0.9-0.7-1.8-0.9-2.7
		c-0.5-6-1.3-12.3-1.8-18.2c0-0.3,0-0.9,0.2-1.2s0.4-0.3,0.7-0.3C57.2,62.7,61.3,68.1,65.2,73.5z"/>
	<path class="st4" d="M45.7,16.1c3-0.6,6.1-1.2,9.1-1.8c4.3-0.3,4.3-0.3,5,3.3c0.4,1.8,0.5,3.6,1.3,5.4c0.5,1.8,0.4,2.7-2,2.7
		c-0.5,0-1.1,0.3-1.6,0.3c-0.4,0-0.9,0.3-1.3,0.3c-2,0.6-3.8,1.2-5.7,1.5c-0.9,0.3-1.6,0.3-2.5,0c-1.1-0.9-0.9-2.4-1.3-3.6
		c-0.5-1.8-0.5-3.3-1.6-4.8C45.4,18.2,45,17.3,45.7,16.1z"/>
	<path class="st5" d="M36.6,124.3c3.6-1.5,7.5-1.5,11.3-2.7c-2,5.1-4.5,9.9-7,14.6c-1.8,1.2-4.1,1.2-6.1,1.2c-0.2,0-0.5-0.3-0.7-0.3
		c-0.4-0.6-0.4-0.9-0.4-1.5c0.4-3.3,1.1-6.9,1.8-10.2C35.7,124.9,36,124.6,36.6,124.3z"/>
	<path class="st6" d="M51.4,2.7C47.3,4.2,43.2,4.8,39.1,6c-2.7,0.9-5.4,1.2-8.1,1.8c-2-2.1-2.9-4.8-4.1-7.2c-0.2-0.3,0-0.6,0.2-0.6
		l0,0c7,0.9,14,1.5,20.8,2.4C48.9,2.4,50.4,2.1,51.4,2.7z"/>
	<path class="st7" d="M53.1,57.4h-0.2h-0.2c-1.8,3.3-3.9,6.3-6.6,9.3c-2.1,0-3.9-0.9-5.7-1.8c-0.5-0.9,0.2-1.5,0.5-2.1
		c0.7-0.9,1.4-2.1,2-3.3c0.9-1.2,1.6-2.1,2.5-3.3c0.4-0.6,0.7-1.2,1.6-0.6C48.9,56.2,51.3,56.5,53.1,57.4z"/>
	<path class="st4" d="M34.8,137.2c2-0.3,4.1-0.6,6.1-0.9c2.1,2.4,4.3,4.5,6.4,6.9c0.2,0.3,0.2,0.6,0.4,0.9c-0.9,0.6-1.8,0.6-2.9,0.6
		c-2.3,0-4.7,0.3-7-0.3c-2.3-1.8-2.9-4.2-3.6-6.6C34.3,137.5,34.6,137.2,34.8,137.2z"/>
	<path class="st8" d="M88.7,63.9c0,0.9,0.4,1.8,1.4,1.8c0.7,0,1.1,0.3,0.7,0.9c-1.4,2.7-2.1,5.7-3.9,8.4c-1.4,0.9-2.9,0-4.3,0.3
		L82.4,75c-0.2-0.3-0.4-0.6-0.2-0.9c0.4-1.5,0.4-3,1.1-4.5c2.5-1.2,2.5-1.2,1.8-3.9c-0.2-0.6-0.2-0.9,0-1.5
		C86,63.9,87.6,65.1,88.7,63.9z"/>
	<path class="st9" d="M88.7,63.9c-0.5,2.1-2.1,0.6-3.4,0.6c-0.9-0.3-0.9-0.9-0.9-1.5c0.4-3,0.9-6.3,1.3-9.3c1.1-1.2,2.5-1.2,3.9-0.3
		c0.4,2.4-0.5,4.8-0.7,7.5C88.9,61.9,88.7,62.7,88.7,63.9z"/>
	<path class="st2" d="M84.4,63c0.4,0.6,0.5,0.9,0.9,1.5c0,0.9,0.4,1.8,0.7,2.4c0.9,2.7,0.9,2.7-2.5,2.7c-0.5-0.3-1.3-0.6-1.6,0.3
		c-0.2,0.6-0.5,1.2-1.4,1.5c-2-0.9-2.7-2.4-3.4-3.9C79.2,65.7,81.9,64.5,84.4,63z"/>
	<path class="st10" d="M76.9,67.5c1.6,0.9,2,3,3.6,3.9c1.1,0.9,2,1.8,2.1,3c0,0.3,0,0.6,0,0.9c-1.1,0.3-1.4,1.5-2.5,1.5
		c-2-2.4-4.1-5.1-6.1-7.5C74.9,68.4,75.8,67.8,76.9,67.5z"/>
	<path class="st10" d="M47,55.6c-1.4,0.3-1.6,1.8-2.3,2.7c-0.5,0.6-0.9,1.2-1.6,1.8c-2,0.3-3.6-0.6-4.7-2.1c0-0.9,0.7-1.8,1.3-2.4
		c1.4-1.8,2.1-3.6,2-5.7c0-0.6-0.2-1.5,0.7-1.8c0.2,0,0.2,0,0.4,0c0,0.3,0,0.6,0,0.9C42,52,43.6,54.1,47,55.6z"/>
	<path class="st11" d="M82.8,75.6c0.2-0.9,1.1-0.9,1.8-0.9c0.7,0,1.6,0.3,2.3,0.3c0,0.6,0,0.9,0,1.2c-0.2,2.7-0.9,3-3.8,2.1
		c-0.5-0.3-0.7-0.3-0.5-0.9C82.6,77.1,82.6,76.2,82.8,75.6z"/>
	<path class="st12" d="M89.6,53.5c-1.3,0.3-2.7-0.3-3.9,0.3c0.5-2.1,1.8-3.9,2.9-5.7C89,49.9,89.7,51.4,89.6,53.5z"/>
	<path class="st4" d="M2.8,94.7c0.4-4.5,0.5-9,0.9-13.1C4,76.8,4.5,72,4.9,67.2c0-1.2,0.5-2.1,1.8-2.7c3-1.5,5.9-3,9-4.5
		c0.4,0,0.5,0,0.7,0.3c0.7,2.7,0.2,5.1,0.4,7.8c0,5.4,0.2,11.1,0,16.4c-0.2,1.2-1.3,1.8-2.1,2.4c-3.2,2.4-6.6,4.8-9.8,7.2
		C4.2,94.4,3.6,95,2.8,94.7z"/>
	<path class="st13" d="M41.4,110c-0.4,1.2,0,2.7-1.1,3.3c-0.9,0.6-2.5,0-3.8-0.3c-6.6,0-13.1-1.5-19.5-2.1c-2.1-1.5-4.7-1.2-7-1.5
		c-2.1-0.3-2.3-0.9-2-2.4c0.4-2.1,0.9-4.2,1.3-6c2.3-0.3,4.5,0.3,6.6,0.3c5.5,0,10.9,0.6,16.5,0.6c3,0,5.9,0.6,8.8,0.3
		c0.7,0,1.3,0.3,1.8,0.6C43.2,105.2,42.8,107.6,41.4,110z"/>
	<path class="st8" d="M30.1,30.8c1.6,5.7,3.2,11.4,4.7,17c0,0.3,0.4,0.6,0.5,0.9c-0.4,1.2-1.8,0.6-2.5,1.2c1.4,1.8,2.9,3.6,4.3,5.7
		c0.5,0.6,1.3,1.2,0.7,2.1c-0.5,0.3-1.1,0-1.6-0.3c-4.3-1.8-8.4-3.9-12.9-5.4c-0.2,0-0.4-0.3-0.5-0.6c-1.3-2.4-2.7-4.8-3.9-7.2
		c-0.2-0.3-0.2-0.3-0.2-0.6c1.1-2.7,2.5-5.4,3.4-8.1c-0.2-1.2-1.4-2.1-1.1-3.3c2.3-0.9,3.2-2.1,1.8-4.2c0-0.3,0-0.3,0.2-0.6
		c1.8-1.2,3.9-1.8,6.1-1.8C30,27.8,30.3,29.3,30.1,30.8z"/>
	<path class="st4" d="M2.8,94.7c3.4-1.8,6.1-4.5,9.3-6.6c1.4-0.9,2.7-2.1,4.1-3c0.5-0.3,1.3-0.3,1.8,0c3.8,1.2,7.5,2.4,11.1,3.3
		c0.9,0.3,1.6,0.6,2,1.2c-0.2,3.3-0.5,6.3-2.5,9c-4.7,0-9.1-1.2-13.6-1.5c-1.8-0.3-3.6-0.3-5.2-1.2C7.9,95.6,6,95.3,4.2,95
		C3.8,95.3,2.9,95.6,2.8,94.7z"/>
	<path class="st14" d="M5.6,33.8c-1.1-1.2,0-2.1,0.2-3.3c0.5-4.2,1.3-8.1,1.8-12.3c0-0.3,0.2-0.6,0.4-0.6C8.3,17,9,16.7,9.7,16.4
		c3-1.5,6.3-2.7,9.3-3.9c0.9-0.3,1.8-1.2,2.7,0c0.5,1.8-0.2,3.6-0.2,5.4s-0.2,3.3-0.4,5.1c-0.2,0.9-0.9,1.5-1.8,2.1
		c-3.2,2.1-6.4,4.5-9.8,6.6C8.1,32.3,7.2,33.5,5.6,33.8z"/>
	<path class="st15" d="M36.6,124.3c-1.1,4.2-1.8,8.4-2.1,12.8c-3.2,1.5-6.6,2.1-10.4,1.5c-1.3-4.8-2.5-9.9-3.8-14.6
		C25.8,123.7,31.2,124.3,36.6,124.3z"/>
	<path class="st7" d="M16.2,60.1c-0.2,0-0.4,0-0.5,0c1.8-1.2,3.4-2.4,5.2-3.3c1.1-0.6,2,0,2.9,0.3c3.8,1.5,7.5,3.3,11.5,4.8
		c1.4,1.2,3.8,1.5,5,3c-0.7,2.1-1.6,3.9-3.9,4.8c-0.9,0-1.8-0.6-2.5-0.9c-5.4-2.4-10.6-4.8-15.8-7.2C17.1,61,16.5,60.7,16.2,60.1z"
		/>
	<path class="st16" d="M9.9,96.2c5.2,0.6,10.2,1.2,15.4,2.1c1.3,0.3,2.5,0.3,3.6,0.6c1.6-0.9,3.2,0,4.7,0.3c2.1,0.6,4.1,1.5,6.1,2.1
		c0.7,0.3,1.4,0.3,1.6,1.2c-1.6,0.6-3.2,0.3-4.8,0.3c-1.8-0.3-3.6-0.3-5.5-0.3c-6.8-0.3-13.8-0.6-20.6-0.9c-0.4,0-0.9,0-1.1-0.3
		C9.4,99.5,9.7,97.7,9.9,96.2z"/>
	<path class="st4" d="M24.1,138.6c3.4-0.6,6.8-0.9,10.4-1.5c0.2,0,0.4,0,0.4,0c-0.2,2.1,1.4,3.6,2,5.4c0.2,0.6,0.4,0.9,0.5,1.5
		c0.5,0.3,1.1,0.6,0.9,1.2c-0.2,0.6-1.1,0.6-1.6,0.6c-0.7,0-1.6,0-2.3,0c-2.9,0-5.7,0-8.6,0c-1.1,0-2.3,0-3,0.9
		c-0.9-0.9,0-1.8,0-2.7C23.2,142.2,23.5,140.4,24.1,138.6z"/>
	<path class="st10" d="M35.3,61.9c-2.9-0.3-5.2-1.8-7.7-2.7c-2.1-0.9-4.1-2.1-6.6-2.4c0.7-1.8,0.7-3.6,1.8-5.4
		c4.5,1.2,8.4,3.6,12.7,5.1c0.9,0.3,1.6,0.9,2.5,0.9c0.4,0,0.5,0,0.5,0.3C37.8,59.5,37.3,61.3,35.3,61.9z"/>
	<path class="st17" d="M21.4,12c-4.7,1.5-9,3.9-13.4,5.7c0-2.7,0.7-5.4,0.9-8.4c0-0.9,0.5-1.5,1.6-1.8c1.4-0.3,2.9-0.9,4.3-1.5
		c0.4,0,0.5,0,0.9,0.3c1.6,1.5,3.2,3,4.8,4.5C21,11.1,21.7,11.4,21.4,12z"/>
	<path class="st17" d="M15.3,6.6c-0.2-0.3-0.4-0.3-0.4-0.6c3.9-2.1,7.9-4.5,12.2-6c1.3,2.7,2.7,5.1,3.9,7.8c-2.7,0-5.4-0.6-8.1-0.6
		C20.5,7.5,18,6.6,15.3,6.6z"/>
	<path class="st18" d="M5.6,33.8c0.9-1.2,2.1-1.8,3.6-2.7c1.8,0.6,1.4,2.4,2,3.3c-0.2-0.9-1.1-2.4,0.4-3.6c1.3,0.3,1.4,1.5,2.1,2.4
		c1.1,1.5,2.1,3,3.2,4.5c0.4,2.1,2.1,3.9,1.8,6v0.3C14.4,40.9,10.1,37.4,5.6,33.8z"/>
	<path class="st19" d="M16.9,110.9c0.4-0.3,0.5-0.3,1.1-0.3c6.3,0.9,12.5,1.5,18.6,2.7c-1.8,0.9-3.9,0.3-5.9,0.6
		c-4.3,0.6-8.6,0.6-12.7,0.9C17.4,113.2,17.3,112.1,16.9,110.9z"/>
	<path class="st20" d="M22.6,147c-0.2-1.2,0.5-1.5,2-1.5c3.2,0,6.6,0,9.8,0c1.3,0.6,2.7,0,3.9,0.3c0.2,1.2,0,1.8-1.6,1.5
		C31.9,147,27.3,147.3,22.6,147z"/>
	<path class="st20" d="M38.2,145.8c-1.3-0.3-2.7,0.3-3.9-0.3c0.7,0,1.4,0,2.1,0c1.8,0.3,1.6-0.6,0.9-1.5c3.4,0,6.8,0,10.4,0
		c0.5,1.5-0.2,1.8-2,1.8C43.4,145.5,40.7,145.8,38.2,145.8z"/>
	<path class="st4" d="M30.1,30.8c-0.9-1.5-0.7-3-1.4-4.5c-0.5-0.6-0.7-1.2-0.9-1.8c-0.2-1.5-0.7-3.3-1.1-4.8c0-0.3,0-0.3,0.2-0.6
		c4.7-0.6,9.3-1.5,14-2.1c0.9,0.9,1.1,1.8,1.4,2.7c0.2,2.1,0.9,4.5,1.3,6.6c0.2,0.6,0.4,1.2,0,2.1c-1.4,1.5-3.6,0.9-5.4,1.2
		c-1.8,0.3-3.8,0.6-5.7,0.9C31.8,30.5,30.9,30.8,30.1,30.8z"/>
	<path class="st21" d="M38.4,58c-0.2-0.3-0.4-0.3-0.5-0.6c-2-2.7-3.9-5.1-5.9-8.1c0.9-0.9,2.3-0.3,3.2-1.2c2.3,0,4.7-1.2,7-0.9
		C43.2,51.7,40.9,54.7,38.4,58L38.4,58z"/>
	<path class="st22" d="M43.6,28.1c-0.5-2.4-1.1-4.8-1.4-7.2c-0.2-0.6-0.2-1.2,0.4-1.5c0.9-0.6,1.8-0.9,3-0.6c1.1,0,1.1,0.9,1.1,1.5
		c0.5,2.4,1.1,4.8,1.4,6.9c0.7,0.3,0.9,0.9,0.4,1.5c0.4,0.6,0.5,1.2,0.4,2.1c-1.3,0.6-2.5,1.2-3.9,0.3c-0.4,0-0.5,0-0.9,0
		C43.2,30.2,42.7,29.3,43.6,28.1z"/>
	<path class="st23" d="M40.2,39.7c0,0-0.4,0-0.4-0.6c0-0.3,0.4-0.6,0.7-0.6c3.9-0.6,7.9-1.5,11.8-2.1c0.4,0,0.7,0,0.9,0.3
		c0.2,0.3-0.2,0.6-0.5,0.6C48.6,38.2,44.6,38.8,40.2,39.7z"/>
	<path class="st24" d="M43.6,28.1c0.2,0.9,0.4,2.1,0.5,3c-2.5-2.7-5.5-0.9-8.4-0.9c-0.9,0-2,0.3-3,0.3C36.2,29.6,39.8,29,43.6,28.1z
		"/>
	<path class="st25" d="M48.2,29c-0.2-0.6-0.2-0.9-0.4-1.5c2.9,0,5.4-0.9,8.2-1.2C53.6,27.5,51.1,28.7,48.2,29z"/>
	<path class="st26" d="M44.8,31.1c1.3,0,2.5-0.3,3.9-0.3c-0.4,0.3-0.5,0.9-0.9,1.2c-0.4,0.3-0.7,1.2-1.4,0.9
		C45.7,32.6,44.5,32.3,44.8,31.1z"/>
	<path class="st5" d="M41.4,110c0.4-2.4,0.9-5.1,1.3-7.5c0,0,0,0,0.2-0.3H43c2.5,0,4.8,0,7.3,0c1.8,0,3.4,0,5.5,0
		c-1.6,1.5-3.6,2.1-5.2,3C47.7,107,44.8,108.8,41.4,110z"/>
	<path class="st8" d="M27.1,19.1l-0.2,0.3c-1.8,1.8-3.6,3.3-6.4,3.9c-0.2-3.6,0.7-7.5,0.9-11.4c-2.1-1.8-4.1-3.6-6.1-5.4
		c1.1-0.9,2,0,3,0c1.6,0,3.2,0.3,4.8,0.6C24.4,11.1,25.7,15.2,27.1,19.1z"/>
	<path class="st4" d="M45.2,19.1c-1.1,0.3-2,0.3-3,0.6c-1.4-0.6-0.9-1.8-1.3-2.7c1.6-0.3,3-0.9,4.8-0.9C45.2,17,46.6,18.2,45.2,19.1
		z"/>
	<path class="st4" d="M46.1,66.3c2.1-3,3.9-6.3,6.6-9c0.5,5.1,1.1,10.5,1.6,15.5c0.2,2.1,0.4,4.5,0.5,6.6v0.3
		c-3,2.4-5.4,5.4-8.2,8.4c-0.4,0.3-0.7,0.9-1.4,1.2c-0.7-0.9-0.5-1.8-0.4-2.4c0.7-3.6,1.3-7.2,2-10.8c0.5-2.7,0.5-2.7-2.5-3.3
		c-0.5,0-1.1-0.3-1.4-0.3c-0.7-0.3-0.7-0.9-0.4-1.5C43.6,69.3,44.3,67.5,46.1,66.3z"/>
	<path class="st13" d="M42.7,72c6.4,0.9,5.2,0,4.5,5.1c-0.5,4.2-1.6,8.1-2,12.3c-0.2,0.3-0.4,0.6-0.5,0.9c-0.7,0.6-1.4,0.3-2,0
		c-2-0.9-3.8-0.9-5.7,0.3c-0.7,0.3-1.4,0.6-2.1,0.6c-1.4,0-2.7-0.3-3.8-1.2c-4.8-1.8-9.8-3.3-14.7-4.5c0-5.7,0-11.4,0-17.3
		c0.9-0.6,2-0.3,2.9,0c6.8,0.9,13.4,2.1,20.2,3c0.7,0.3,1.4,0.3,2,0.3C42,71.4,42.3,71.7,42.7,72z"/>
	<path class="st2" d="M41.4,102.2c-2.7-0.9-5.2-1.8-7.7-2.7C33,98.9,33,98,33.2,97.1c0.2-1.8,0.5-3.3,0.9-5.1c0-0.6,0.2-1.2,0.9-1.5
		c3.4-0.3,6.6,0,9.7,1.2V92c0.2,0.3,0.4,0.6,0.4,0.6c-0.5,3.6-0.5,6.9-2.3,9.9l0,0C42.1,102.5,41.8,102.5,41.4,102.2z"/>
	<path class="st27" d="M42.7,102.5c0.5-3.3,1.3-6.9,1.8-10.2c4.3,1.8,4.3,1.8,2.5,5.7c-0.9,1.8-2,3.6-3.9,4.8h-0.2L42.7,102.5z"/>
	<path class="st27" d="M44.5,92c-3.2-0.3-6.3-1.2-9.7-1.2c-0.2,0-0.2,0-0.2-0.3c0,0,0,0,0.2,0c3.2-1.8,6.4-2.1,9.8-0.3
		C44.8,90.8,44.8,91.4,44.5,92z"/>
	<path class="st28" d="M56.1,18.5c0,0.3,0.2,0.6,0.2,0.6c0.2,1.2,1.4,2.7,0.4,3.6c-1.3,1.2-3.6,0.9-5.4,1.2c-0.5,0-0.5-0.3-0.5-0.9
		c-0.4-0.9,0-1.5-0.4-2.4c-0.2-0.3,0-0.9,0.5-1.2c0.5-0.3,0.9,0.3,1.3,0.6c0.5,0.3,0.7,0.9,1.4,0.9c1.1-0.6,0-1.2,0.2-1.8
		C54.3,17.9,55.2,17.9,56.1,18.5z"/>
	<path class="st29" d="M56.1,18.5c-0.9,0-1.6,0-2.1,0.6c-0.5,0.6-1.1,1.2-1.8,1.5c-0.4-0.3-0.2-0.9-0.9-0.9c-0.5,1.2,0,2.4-0.4,3.3
		c0-0.3-0.2-0.3-0.4-0.6c-1.1-4.2-0.7-4.5,4.5-4.8C55.9,17.3,56.1,17.6,56.1,18.5z"/>
	<path class="st7" d="M42.7,72c-0.5,0-0.9-0.3-1.4-0.3c-0.5-0.3-1.1-0.3-1.6-0.6c-1.3-0.6-3-0.6-3.6-2.1c2-1.2,2.7-3,3.8-4.5
		c0.2-0.3,0.4-0.3,0.4,0c1.8,0.6,3.6,1.8,5.5,1.8C45.2,68.4,43.2,69.9,42.7,72z"/>
	<path class="st30" d="M40.5,64.5c-0.2,0-0.4,0-0.4,0c-1.4-0.9-3.8-0.9-4.7-2.7c1.1-1.5,2.1-2.7,3-4.2h0.2c1.4,0.6,2.9,1.2,4.5,1.8
		c0.5,1.2-0.9,1.8-1.3,2.7C41.4,63.3,40.7,63.9,40.5,64.5z"/>
	<path class="st31" d="M82.6,74.4c-0.7-0.9-1.6-1.8-2.1-3c0.7-0.9,1.3-2.1,2-3c0.7,0.3,0.5,0.9,1.1,1.5
		C83.5,71.4,83.3,72.9,82.6,74.4z"/>
	<path class="st4" d="M36.2,69.3c1.3,0.6,2.5,1.2,3.8,1.8c0,0.3,0,0.6-0.4,0.3c-4.8-0.3-9.7-1.5-14.5-2.1c-3-0.3-5.9-0.9-9-1.5
		c0-2.7,0-5.1,0-7.8C22.8,63,29.6,66.3,36.2,69.3z"/>
	<path class="st32" d="M16.5,37.9c-2-2.1-3.6-4.5-4.8-6.9c1.6-1.8,4.1-2.4,6.4-3c0.5,0,1.1,0.3,1.4,0.9c0.7,1.2,1.6,2.4,1.4,3.6
		c0.5,0.9,1.1,2.1,1.6,3C20.8,36.8,19,38.2,16.5,37.9z"/>
	<path class="st33" d="M16.5,37.9c2-0.9,4.1-1.5,6.1-2.4c-1.3,2.7-2.1,5.7-3.9,8.4C18.1,42.1,16.7,40,16.5,37.9z"/>
	<path class="st34" d="M21,32.6c-0.5-1.2-1.1-2.4-1.8-3.3c0.7-1.2,2-1.5,3.2-1.2c0,0,0.2,0,0.2,0.3c0,0.3,0.2,0.3,0.2,0.6
		C24.6,31.7,24.6,31.7,21,32.6z"/>
	<path class="st35" d="M28.3,24.2c0.4,0.6,0.5,1.2,0.4,2.1c-2,0.6-3.9,1.2-5.9,2.1h-0.2c-0.7-0.3-0.9-0.9-0.5-1.5
		C23.9,25.4,25.8,24.2,28.3,24.2z"/>
	<path class="st10" d="M34.8,90.5v0.3c-0.9,2.7-1.4,5.7-1.3,8.4c-1.6-0.3-3-0.6-4.7-0.6c0.7-3,1.4-6,2.1-9
		C32.3,89.9,33.5,90.2,34.8,90.5z"/>
	<path class="st4" d="M28.3,24.2c-2.1,0.6-4.1,1.5-6.1,2.4c-0.9,1.2-2.3,1.8-3.9,1.8c-2.1,0.9-4.3,1.8-6.6,2.7
		c-0.9,1.2,0,2.4-0.5,3.9c-0.7-1.5-1.4-2.7-2-3.9c3.8-2.7,7.5-5.1,11.3-7.8c2.1-1.2,4.3-2.4,6.4-3.9C28,20.9,28,22.7,28.3,24.2z"/>
	<path class="st36" d="M38.4,21.5c0.5,1.5,1.8,3.9,0.9,4.5c-1.6,0.9-4.1,0.9-6.3,1.5c-0.9,0.3-0.7-0.6-0.7-0.9c0.2-0.9,0-1.8,0-2.7
		c0-1.5,0.7-1.8,2.5-1.8c0.7,0.3,0.5,1.8,1.8,1.5c1.1-0.3-0.2-1.5,0.4-2.1C37.5,21.2,37.8,21.2,38.4,21.5z"/>
	<path class="st37" d="M38.4,21.5c-0.5,0-1.1,0-1.4,0.6c-0.7,0.3-1.3,0.9-2.1,0.6c-1.4-0.9-2-0.3-2.1,1.2c-0.2,0.9,0.4,1.8-0.4,2.7
		c-1.8-4.8-1.6-4.8,4.1-5.7C36.9,20.6,38.4,19.7,38.4,21.5z"/>
	<path class="st38" d="M39.6,71.4c0.2,0,0.4-0.3,0.4-0.3c0.4,0.3,0.9,0.6,1.3,0.6C40.7,71.7,40.2,72,39.6,71.4z"/>
	<path class="st39" d="M52.2,20.6c0-1.2,0.5-1.5,1.8-1.5c0.9,0.6,1.4,1.2,0.5,2.1C53.8,21.8,52.7,21.5,52.2,20.6z"/>
	<path class="st40" d="M18.9,34.1c-1.4-0.6-2.5-1.2-3.4-1.8c-0.4-0.3-1.3-0.3-1.1-0.9c0.2-0.6,1.1-0.6,1.8-0.9
		c0.7-0.3,1.1,0.3,1.3,0.6C17.8,32,18.5,32.9,18.9,34.1z"/>
	<path class="st41" d="M18.3,28.4c1.3-0.6,2.5-1.2,3.9-1.8c0.2,0.6,0.2,0.9,0.4,1.5c-1.1,0.3-2.1,0.9-3.4,1.2
		C19,29,18.7,28.7,18.3,28.4z"/>
	<path class="st42" d="M34.8,22.7c0.5-0.6,1.3-0.9,2.1-0.6c0.4,0.6,1.3,0.9,0.5,1.8c-0.4,0.6-0.9,0.6-1.4,0.6
		C35,23.9,34.8,23.3,34.8,22.7z"/>
</g>
</svg>
