<?xml version="1.0" encoding="utf-8"?>
<!-- Generator: Adobe Illustrator 23.1.0, SVG Export Plug-In . SVG Version: 6.00 Build 0)  -->
<svg version="1.1" id="Capa_1" xmlns="http://www.w3.org/2000/svg" xmlns:xlink="http://www.w3.org/1999/xlink" x="0px" y="0px"
	 viewBox="0 0 50 50" style="enable-background:new 0 0 50 50;" xml:space="preserve">
<style type="text/css">
	.st0{fill:#E8E8E8;}
	.st1{fill:#F6F6F6;}
	.st2{fill:#FCE5D5;}
	.st3{fill:#616363;}
	.st4{fill:#543042;}
	.st5{fill:#535453;}
	.st6{fill:#D5D8D5;}
	.st7{fill:#734C5F;}
	.st8{fill:#F6CAB3;}
	.st9{fill:#545554;}
	.st10{fill:#95637C;}
	.st11{fill:#565756;}
	.st12{fill:#929291;}
	.st13{fill:#8F8F8E;}
	.st14{fill:#E2E5E3;}
	.st15{fill:#5A5E5E;}
	.st16{fill:#747373;}
	.st17{fill:#C2C2C2;}
	.st18{fill:#A1A3A2;}
	.st19{fill:#5C5C5C;}
	.st20{fill:#3F3F3F;}
	.st21{fill:#C2917C;}
	.st22{fill:#FCF2EA;}
	.st23{fill:#C69781;}
	.st24{fill:#F2CAB4;}
	.st25{fill:#F3CAB5;}
	.st26{fill:#C99B86;}
	.st27{fill:#F5CAB3;}
	.st28{fill:#F9E3D4;}
	.st29{fill:#EDC8B3;}
	.st30{fill:#5B5E5E;}
	.st31{fill:#C59781;}
	.st32{fill:#FBE5D5;}
	.st33{fill:#C3947E;}
	.st34{fill:#A2A3A1;}
	.st35{fill:#C0917D;}
	.st36{fill:#FAE4D4;}
	.st37{fill:#F0C8B3;}
	.st38{fill:#467D7E;}
	.st39{fill:#2E2E2D;}
	.st40{fill:#C69782;}
	.st41{fill:#7E7C7B;}
	.st42{fill:#353634;}
</style>
<g>
	<path class="st0" d="M20.8,50c-7-0.4-14.1-0.8-21.1-1.2c0-0.1,0-0.1,0-0.1c4-0.1,8.1-0.3,12.1-0.4c0.4,0.2-0.2,0.6,0.6,0.7
		c2.3,0.2,4.7,0.1,7,0.1c0.5,0,0.8-0.1,1.1-0.3c1.2-0.3,2.4-0.1,3.7-0.2c0.5,0,1.2,0.1,1.4-0.3c0-0.1,0-0.3,0.1-0.4
		c3.8,0.1,7.7,0.3,11.5,0.5c2.4,0.1,4.8,0.2,7.2,0.3c0.7,0,1.4,0,2.3,0.2c-3,0.2-5.8,0.4-8.6,0.6c-3.3,0.3-6.7,0.3-10,0.7
		c-2,0-4.1,0-6.1,0C21.7,50,21.2,50.2,20.8,50z"/>
	<path class="st1" d="M20.8,50c0.4,0,0.9-0.1,1.2,0.1c-0.4,0-0.8,0-1.2,0C20.8,50.1,20.8,50.1,20.8,50z"/>
	<path class="st2" d="M31.2,8.7c0.5,1.9,1.1,3.8,1.7,5.7c0.1,0.3-0.2,0.4-0.7,0.4c-2.9,0.3-5.8,0.6-8.7,1c-0.2,0-0.4,0-0.5,0.1
		c-0.1,0-0.2,0.1-0.3,0.1c-1.3,0.1-2.5,0.4-3.9,0.2c-0.5-0.2-0.6-0.4-0.7-0.6c-0.8-1.6-1.4-3.2-2.2-4.7c-0.1-0.2-0.2-0.4,0-0.6
		c0.4-0.2,0.9-0.3,1.5-0.3c1.2,0,2.5-0.1,3.7-0.2c1.1-0.1,1.9,0,2.6,0.4c0.2,0,0.3,0.1,0.5,0.2c0.1,0.3,0.5,0.4,0.9,0.4
		c0.6,0,0.8-0.3,0.9-0.5c0.1-0.2-0.1-0.4,0.1-0.6C27.6,9.3,29,9,30.4,8.7C30.7,8.7,31,8.6,31.2,8.7z"/>
	<path class="st3" d="M10.6,41.5c-0.5-1.1-0.9-2.1-1.4-3.2c1-0.3,2.1-0.3,3.1-0.3c2.4-0.1,4.7-0.2,7.1-0.3c0.1,0,0.2-0.1,0.3,0
		c1.4,0.2,2.2-0.2,2.4-0.9c2.5-0.9,5.2-1.6,7.6-2.4c-0.4,0.1-1.1,0-1.8,0c-0.3,0-0.7,0-0.6-0.3c1.2-0.3,2.4-0.3,3.6,0
		c-1.6,2.2-3.2,4.4-5,6.5c-0.4,0.2-1,0.3-1.6,0.4c-1.7,0.2-3.3,0.4-5,0.6c-2.7,0-5.4-0.1-8-0.1C11.1,41.7,10.8,41.6,10.6,41.5z"/>
	<path class="st2" d="M27.9,0.9c0.4,0,0.6,0.2,0.6,0.3c0.5,1.2,1.2,2.4,1.3,3.6c-0.2,0.3-0.8,0.3-1.3,0.4c-1.3,0.2-2.5,0.2-3.8,0.4
		c-0.9,0.1-1.8,0.2-2.7,0.3c-2.1,0.2-4.1,0.4-6.2,0.6c-0.5,0.1-1,0.1-1.5,0c-0.9-0.6-1-1.4-1.5-2.2C12.5,3.9,12.3,3.5,12,3
		c-0.1-0.2-0.3-0.4,0-0.7c1.4-0.3,2.8,0.1,4.2,0.1c3.2-0.4,6.3-0.9,9.4-1.4C26.4,1,27.1,0.9,27.9,0.9z"/>
	<path class="st4" d="M35.6,24.6c1.8-0.3,3.2-1,4.8-1.5c0.2,0,0.3,0,0.4,0.1c1,0.8,2.3,1.5,2.9,2.5c-2.2,1-4.6,1.9-7,2.9
		c-2.1,0.8-2.1,0.8-3.9-0.2c-0.8-0.5-1.7-0.9-2.5-1.3c0,0-0.1,0-0.3-0.1c0,0.2-0.1,0.3-0.1,0.5c-0.6-0.1-0.4-0.4-0.5-0.6
		c0-0.1,0-0.1,0.1-0.2c0.8-0.5,2-0.7,3-1.1C33.6,25.2,34.5,24.9,35.6,24.6z"/>
	<path class="st4" d="M29.7,26.8c0.1,0.2-0.1,0.4,0.2,0.6c0.3,2,0.7,4,1,6c0,0.3,0,0.5,0,0.8c-1.2,0.1-2.4-0.1-3.6,0.1
		c-1.2,0.4-2.5,0.2-3.7,0.1c-0.6-0.1-0.5-0.3-0.1-0.5c1.1-0.5,1.4-1.1,2-1.7c0.5-0.5,0.3-0.7-0.6-1c-0.4-0.1-0.7-0.2-1-0.3
		c-0.1-0.1-0.1-0.1-0.1-0.2c0-0.2,0.1-0.4,0.1-0.6c0-0.1,0.1-0.2,0.3-0.3c1.5-0.8,2.8-1.7,4.2-2.6C28.8,27,29.1,26.8,29.7,26.8z"/>
	<path class="st4" d="M35.6,24.6c-1.4,0.7-3.2,1.1-4.7,1.7c-0.4,0.1-0.8,0.2-1.1,0.4c-0.5-0.3-0.4-0.6-0.5-0.9c-0.3-2-0.7-4.1-1-6.1
		c0-0.1,0-0.3,0.1-0.4c0.1-0.1,0.2-0.1,0.4-0.1C31.1,21,33.4,22.8,35.6,24.6z"/>
	<path class="st4" d="M24.7,5.4c1.7-0.2,3.4-0.4,5.1-0.6c2.4-0.1,2.4-0.1,2.8,1.1c0.2,0.6,0.3,1.2,0.7,1.8c0.3,0.6,0.2,0.9-1.1,0.9
		c-0.3,0-0.6,0.1-0.9,0.1c-0.2,0-0.5,0.1-0.7,0.1c-1.1,0.2-2.1,0.4-3.2,0.5c-0.5,0.1-0.9,0.1-1.4,0c-0.6-0.3-0.5-0.8-0.7-1.2
		C25,7.5,25,7,24.4,6.5C24.5,6.1,24.3,5.8,24.7,5.4z"/>
	<path class="st5" d="M19.6,41.6c2-0.5,4.2-0.5,6.3-0.9c-1.1,1.7-2.5,3.3-3.9,4.9c-1,0.4-2.3,0.4-3.4,0.4c-0.1,0-0.3-0.1-0.4-0.1
		c-0.2-0.2-0.2-0.3-0.2-0.5c0.2-1.1,0.6-2.3,1-3.4C19.1,41.8,19.3,41.7,19.6,41.6z"/>
	<path class="st6" d="M27.9,0.9C25.6,1.4,23.3,1.6,21,2c-1.5,0.3-3,0.4-4.5,0.6c-1.1-0.7-1.6-1.6-2.3-2.4c-0.1-0.1,0-0.2,0.1-0.2v0
		c3.9,0.3,7.8,0.5,11.6,0.8C26.5,0.8,27.3,0.7,27.9,0.9z"/>
	<path class="st7" d="M28.8,19.2h-0.1h-0.1c-1,1.1-2.2,2.1-3.7,3.1c-1.2,0-2.2-0.3-3.2-0.6c-0.3-0.3,0.1-0.5,0.3-0.7
		c0.4-0.3,0.8-0.7,1.1-1.1c0.5-0.4,0.9-0.7,1.4-1.1c0.2-0.2,0.4-0.4,0.9-0.2C26.5,18.8,27.8,18.9,28.8,19.2z"/>
	<path class="st4" d="M18.6,45.9c1.1-0.1,2.3-0.2,3.4-0.3c1.2,0.8,2.4,1.5,3.6,2.3c0.1,0.1,0.1,0.2,0.2,0.3c-0.5,0.2-1,0.2-1.6,0.2
		c-1.3,0-2.6,0.1-3.9-0.1c-1.3-0.6-1.6-1.4-2-2.2C18.3,46,18.5,45.9,18.6,45.9z"/>
	<path class="st8" d="M48.7,21.4c0,0.3,0.2,0.6,0.8,0.6c0.4,0,0.6,0.1,0.4,0.3c-0.8,0.9-1.2,1.9-2.2,2.8c-0.8,0.3-1.6,0-2.4,0.1
		c0,0-0.1-0.1-0.1-0.1c-0.1-0.1-0.2-0.2-0.1-0.3c0.2-0.5,0.2-1,0.6-1.5c1.4-0.4,1.4-0.4,1-1.3c-0.1-0.2-0.1-0.3,0-0.5
		C47.2,21.4,48.1,21.8,48.7,21.4z"/>
	<path class="st9" d="M48.7,21.4c-0.3,0.7-1.2,0.2-1.9,0.2c-0.5-0.1-0.5-0.3-0.5-0.5c0.2-1,0.5-2.1,0.7-3.1c0.6-0.4,1.4-0.4,2.2-0.1
		c0.2,0.8-0.3,1.6-0.4,2.5C48.8,20.7,48.7,21,48.7,21.4z"/>
	<path class="st2" d="M46.3,21.1c0.2,0.2,0.3,0.3,0.5,0.5c0,0.3,0.2,0.6,0.4,0.8c0.5,0.9,0.5,0.9-1.4,0.9c-0.3-0.1-0.7-0.2-0.9,0.1
		c-0.1,0.2-0.3,0.4-0.8,0.5c-1.1-0.3-1.5-0.8-1.9-1.3C43.4,22,44.9,21.6,46.3,21.1z"/>
	<path class="st10" d="M42.1,22.6c0.9,0.3,1.1,1,2,1.3c0.6,0.3,1.1,0.6,1.2,1c0,0.1,0,0.2,0,0.3c-0.6,0.1-0.8,0.5-1.4,0.5
		c-1.1-0.8-2.3-1.7-3.4-2.5C41,22.9,41.5,22.7,42.1,22.6z"/>
	<path class="st10" d="M25.4,18.6c-0.8,0.1-0.9,0.6-1.3,0.9c-0.3,0.2-0.5,0.4-0.9,0.6c-1.1,0.1-2-0.2-2.6-0.7c0-0.3,0.4-0.6,0.7-0.8
		c0.8-0.6,1.2-1.2,1.1-1.9c0-0.2-0.1-0.5,0.4-0.6c0.1,0,0.1,0,0.2,0c0,0.1,0,0.2,0,0.3C22.6,17.4,23.5,18.1,25.4,18.6z"/>
	<path class="st11" d="M45.4,25.3C45.5,25,46,25,46.4,25c0.4,0,0.9,0.1,1.3,0.1c0,0.2,0,0.3,0,0.4c-0.1,0.9-0.5,1-2.1,0.7
		c-0.3-0.1-0.4-0.1-0.3-0.3C45.3,25.8,45.3,25.5,45.4,25.3z"/>
	<path class="st12" d="M49.2,17.9c-0.7,0.1-1.5-0.1-2.2,0.1c0.3-0.7,1-1.3,1.6-1.9C48.9,16.7,49.3,17.2,49.2,17.9z"/>
	<path class="st4" d="M0.7,31.7c0.2-1.5,0.3-3,0.5-4.4c0.2-1.6,0.5-3.2,0.7-4.8c0-0.4,0.3-0.7,1-0.9c1.7-0.5,3.3-1,5-1.5
		c0.2,0,0.3,0,0.4,0.1c0.4,0.9,0.1,1.7,0.2,2.6c0,1.8,0.1,3.7,0,5.5c-0.1,0.4-0.7,0.6-1.2,0.8c-1.8,0.8-3.7,1.6-5.5,2.4
		C1.5,31.6,1.2,31.8,0.7,31.7z"/>
	<path class="st13" d="M22.3,36.8c-0.2,0.4,0,0.9-0.6,1.1c-0.5,0.2-1.4,0-2.1-0.1c-3.7,0-7.3-0.5-10.9-0.7c-1.2-0.5-2.6-0.4-3.9-0.5
		c-1.2-0.1-1.3-0.3-1.1-0.8c0.2-0.7,0.5-1.4,0.7-2c1.3-0.1,2.5,0.1,3.7,0.1c3.1,0,6.1,0.2,9.2,0.2c1.7,0,3.3,0.2,4.9,0.1
		c0.4,0,0.7,0.1,1,0.2C23.3,35.2,23.1,36,22.3,36.8z"/>
	<path class="st8" d="M16,10.3c0.9,1.9,1.8,3.8,2.6,5.7c0,0.1,0.2,0.2,0.3,0.3c-0.2,0.4-1,0.2-1.4,0.4c0.8,0.6,1.6,1.2,2.4,1.9
		c0.3,0.2,0.7,0.4,0.4,0.7c-0.3,0.1-0.6,0-0.9-0.1c-2.4-0.6-4.7-1.3-7.2-1.8c-0.1,0-0.2-0.1-0.3-0.2c-0.7-0.8-1.5-1.6-2.2-2.4
		c-0.1-0.1-0.1-0.1-0.1-0.2c0.6-0.9,1.4-1.8,1.9-2.7c-0.1-0.4-0.8-0.7-0.6-1.1c1.3-0.3,1.8-0.7,1-1.4c0-0.1,0-0.1,0.1-0.2
		c1-0.4,2.2-0.6,3.4-0.6C15.9,9.3,16.1,9.8,16,10.3z"/>
	<path class="st4" d="M0.7,31.7c1.9-0.6,3.4-1.5,5.2-2.2c0.8-0.3,1.5-0.7,2.3-1c0.3-0.1,0.7-0.1,1,0c2.1,0.4,4.2,0.8,6.2,1.1
		c0.5,0.1,0.9,0.2,1.1,0.4c-0.1,1.1-0.3,2.1-1.4,3c-2.6,0-5.1-0.4-7.6-0.5c-1-0.1-2-0.1-2.9-0.4c-1-0.1-2.1-0.2-3.1-0.3
		C1.3,31.9,0.8,32,0.7,31.7z"/>
	<path class="st14" d="M2.3,11.3c-0.6-0.4,0-0.7,0.1-1.1c0.3-1.4,0.7-2.7,1-4.1c0-0.1,0.1-0.2,0.2-0.2c0.2-0.2,0.6-0.3,1-0.4
		C6.3,5,8.1,4.6,9.8,4.2c0.5-0.1,1-0.4,1.5,0c0.3,0.6-0.1,1.2-0.1,1.8c0,0.6-0.1,1.1-0.2,1.7C10.9,8,10.5,8.2,10,8.4
		c-1.8,0.7-3.6,1.5-5.5,2.2C3.7,10.8,3.2,11.2,2.3,11.3z"/>
	<path class="st15" d="M19.6,41.6c-0.6,1.4-1,2.8-1.2,4.3c-1.8,0.5-3.7,0.7-5.8,0.5c-0.7-1.6-1.4-3.3-2.1-4.9
		C13.6,41.4,16.6,41.6,19.6,41.6z"/>
	<path class="st7" d="M8.2,20.1c-0.1,0-0.2,0-0.3,0c1-0.4,1.9-0.8,2.9-1.1c0.6-0.2,1.1,0,1.6,0.1c2.1,0.5,4.2,1.1,6.4,1.6
		c0.8,0.4,2.1,0.5,2.8,1c-0.4,0.7-0.9,1.3-2.2,1.6c-0.5,0-1-0.2-1.4-0.3c-3-0.8-5.9-1.6-8.8-2.4C8.7,20.4,8.4,20.3,8.2,20.1z"/>
	<path class="st16" d="M4.7,32.2c2.9,0.2,5.7,0.4,8.6,0.7c0.7,0.1,1.4,0.1,2,0.2c0.9-0.3,1.8,0,2.6,0.1c1.2,0.2,2.3,0.5,3.4,0.7
		c0.4,0.1,0.8,0.1,0.9,0.4c-0.9,0.2-1.8,0.1-2.7,0.1c-1-0.1-2-0.1-3.1-0.1c-3.8-0.1-7.7-0.2-11.5-0.3c-0.2,0-0.5,0-0.6-0.1
		C4.4,33.3,4.6,32.7,4.7,32.2z"/>
	<path class="st4" d="M12.6,46.4c1.9-0.2,3.8-0.3,5.8-0.5c0.1,0,0.2,0,0.2,0c-0.1,0.7,0.8,1.2,1.1,1.8c0.1,0.2,0.2,0.3,0.3,0.5
		c0.3,0.1,0.6,0.2,0.5,0.4c-0.1,0.2-0.6,0.2-0.9,0.2c-0.4,0-0.9,0-1.3,0c-1.6,0-3.2,0-4.8,0c-0.6,0-1.3,0-1.7,0.3
		c-0.5-0.3,0-0.6,0-0.9C12.1,47.6,12.3,47,12.6,46.4z"/>
	<path class="st10" d="M18.9,20.7c-1.6-0.1-2.9-0.6-4.3-0.9c-1.2-0.3-2.3-0.7-3.7-0.8c0.4-0.6,0.4-1.2,1-1.8
		c2.5,0.4,4.7,1.2,7.1,1.7c0.5,0.1,0.9,0.3,1.4,0.3c0.2,0,0.3,0,0.3,0.1C20.3,19.9,20,20.5,18.9,20.7z"/>
	<path class="st17" d="M11.1,4c-2.6,0.5-5,1.3-7.5,1.9C3.6,5,4,4.1,4.1,3.1c0-0.3,0.3-0.5,0.9-0.6C5.8,2.4,6.6,2.2,7.4,2
		c0.2,0,0.3,0,0.5,0.1c0.9,0.5,1.8,1,2.7,1.5C10.9,3.7,11.3,3.8,11.1,4z"/>
	<path class="st17" d="M7.7,2.2C7.6,2.1,7.5,2.1,7.5,2c2.2-0.7,4.4-1.5,6.8-2c0.7,0.9,1.5,1.7,2.2,2.6C15,2.6,13.5,2.4,12,2.4
		C10.6,2.5,9.2,2.2,7.7,2.2z"/>
	<path class="st18" d="M2.3,11.3c0.5-0.4,1.2-0.6,2-0.9c1,0.2,0.8,0.8,1.1,1.1c-0.1-0.3-0.6-0.8,0.2-1.2c0.7,0.1,0.8,0.5,1.2,0.8
		c0.6,0.5,1.2,1,1.8,1.5c0.2,0.7,1.2,1.3,1,2c0,0,0,0.1,0,0.1C7.2,13.7,4.8,12.5,2.3,11.3z"/>
	<path class="st19" d="M8.6,37.1C8.8,37,8.9,37,9.2,37c3.5,0.3,7,0.5,10.4,0.9c-1,0.3-2.2,0.1-3.3,0.2c-2.4,0.2-4.8,0.2-7.1,0.3
		C8.9,37.9,8.8,37.5,8.6,37.1z"/>
	<path class="st20" d="M11.8,49.2c-0.1-0.4,0.3-0.5,1.1-0.5c1.8,0,3.7,0,5.5,0c0.7,0.2,1.5,0,2.2,0.1c0.1,0.4,0,0.6-0.9,0.5
		C17,49.2,14.4,49.3,11.8,49.2z"/>
	<path class="st20" d="M20.5,48.8c-0.7-0.1-1.5,0.1-2.2-0.1c0.4,0,0.8,0,1.2,0c1,0.1,0.9-0.2,0.5-0.5c1.9,0,3.8,0,5.8,0
		c0.3,0.5-0.1,0.6-1.1,0.6C23.4,48.7,21.9,48.8,20.5,48.8z"/>
	<path class="st4" d="M16,10.3c-0.5-0.5-0.4-1-0.8-1.5c-0.3-0.2-0.4-0.4-0.5-0.6c-0.1-0.5-0.4-1.1-0.6-1.6c0-0.1,0-0.1,0.1-0.2
		c2.6-0.2,5.2-0.5,7.8-0.7c0.5,0.3,0.6,0.6,0.8,0.9c0.1,0.7,0.5,1.5,0.7,2.2c0.1,0.2,0.2,0.4,0,0.7c-0.8,0.5-2,0.3-3,0.4
		c-1,0.1-2.1,0.2-3.2,0.3C16.9,10.2,16.4,10.3,16,10.3z"/>
	<path class="st21" d="M20.6,19.4c-0.1-0.1-0.2-0.1-0.3-0.2c-1.1-0.9-2.2-1.7-3.3-2.7c0.5-0.3,1.3-0.1,1.8-0.4
		c1.3,0,2.6-0.4,3.9-0.3C23.3,17.3,22,18.3,20.6,19.4L20.6,19.4z"/>
	<path class="st22" d="M23.5,9.4c-0.3-0.8-0.6-1.6-0.8-2.4c-0.1-0.2-0.1-0.4,0.2-0.5c0.5-0.2,1-0.3,1.7-0.2c0.6,0,0.6,0.3,0.6,0.5
		c0.3,0.8,0.6,1.6,0.8,2.3c0.4,0.1,0.5,0.3,0.2,0.5c0.2,0.2,0.3,0.4,0.2,0.7c-0.7,0.2-1.4,0.4-2.2,0.1c-0.2,0-0.3,0-0.5,0
		C23.3,10.1,23,9.8,23.5,9.4z"/>
	<path class="st23" d="M21.6,13.3c0,0-0.2,0-0.2-0.2c0-0.1,0.2-0.2,0.4-0.2c2.2-0.2,4.4-0.5,6.6-0.7c0.2,0,0.4,0,0.5,0.1
		c0.1,0.1-0.1,0.2-0.3,0.2C26.3,12.8,24.1,13,21.6,13.3z"/>
	<path class="st24" d="M23.5,9.4c0.1,0.3,0.2,0.7,0.3,1c-1.4-0.9-3.1-0.3-4.7-0.3c-0.5,0-1.1,0.1-1.7,0.1
		C19.4,9.9,21.4,9.7,23.5,9.4z"/>
	<path class="st25" d="M26.1,9.7c-0.1-0.2-0.1-0.3-0.2-0.5c1.6,0,3-0.3,4.6-0.4C29.1,9.2,27.7,9.6,26.1,9.7z"/>
	<path class="st26" d="M24.2,10.4c0.7,0,1.4-0.1,2.2-0.1c-0.2,0.1-0.3,0.3-0.5,0.4c-0.2,0.1-0.4,0.4-0.8,0.3
		C24.7,10.9,24,10.8,24.2,10.4z"/>
	<path class="st5" d="M22.3,36.8c0.2-0.8,0.5-1.7,0.7-2.5c0,0,0,0,0.1-0.1c0,0,0.1,0,0.1,0c1.4,0,2.7,0,4.1,0c1,0,1.9,0,3.1,0
		c-0.9,0.5-2,0.7-2.9,1C25.8,35.8,24.2,36.4,22.3,36.8z"/>
	<path class="st8" d="M14.3,6.4c0,0-0.1,0.1-0.1,0.1c-1,0.6-2,1.1-3.6,1.3C10.5,6.6,11,5.3,11.1,4C9.9,3.4,8.8,2.8,7.7,2.2
		c0.6-0.3,1.1,0,1.7,0c0.9,0,1.8,0.1,2.7,0.2C12.8,3.7,13.5,5.1,14.3,6.4z"/>
	<path class="st4" d="M24.4,6.4c-0.6,0.1-1.1,0.1-1.7,0.2C21.9,6.4,22.2,6,22,5.7c0.9-0.1,1.7-0.3,2.7-0.3
		C24.4,5.7,25.2,6.1,24.4,6.4z"/>
	<path class="st4" d="M24.9,22.2c1.2-1,2.2-2.1,3.7-3c0.3,1.7,0.6,3.5,0.9,5.2c0.1,0.7,0.2,1.5,0.3,2.2c0,0,0,0.1,0,0.1
		c-1.7,0.8-3,1.8-4.6,2.8c-0.2,0.1-0.4,0.3-0.8,0.4c-0.4-0.3-0.3-0.6-0.2-0.8c0.4-1.2,0.7-2.4,1.1-3.6c0.3-0.9,0.3-0.9-1.4-1.1
		c-0.3,0-0.6-0.1-0.8-0.1c-0.4-0.1-0.4-0.3-0.2-0.5C23.5,23.2,23.9,22.6,24.9,22.2z"/>
	<path class="st13" d="M23,24.1c3.6,0.3,2.9,0,2.5,1.7c-0.3,1.4-0.9,2.7-1.1,4.1c-0.1,0.1-0.2,0.2-0.3,0.3c-0.4,0.2-0.8,0.1-1.1,0
		c-1.1-0.3-2.1-0.3-3.2,0.1c-0.4,0.1-0.8,0.2-1.2,0.2c-0.8,0-1.5-0.1-2.1-0.4c-2.7-0.6-5.5-1.1-8.2-1.5c0-1.9,0-3.8,0-5.8
		c0.5-0.2,1.1-0.1,1.6,0c3.8,0.3,7.5,0.7,11.3,1c0.4,0.1,0.8,0.1,1.1,0.1C22.6,23.9,22.8,24,23,24.1z"/>
	<path class="st2" d="M22.3,34.2c-1.5-0.3-2.9-0.6-4.3-0.9c-0.4-0.2-0.4-0.5-0.3-0.8c0.1-0.6,0.3-1.1,0.5-1.7c0-0.2,0.1-0.4,0.5-0.5
		c1.9-0.1,3.7,0,5.4,0.4c0,0,0,0.1,0,0.1c0.1,0.1,0.2,0.2,0.2,0.2C24,32.2,24,33.3,23,34.3l0,0C22.7,34.3,22.5,34.3,22.3,34.2z"/>
	<path class="st27" d="M23,34.3c0.3-1.1,0.7-2.3,1-3.4c2.4,0.6,2.4,0.6,1.4,1.9c-0.5,0.6-1.1,1.2-2.2,1.6l-0.1,0L23,34.3z"/>
	<path class="st27" d="M24,30.8c-1.8-0.1-3.5-0.4-5.4-0.4c-0.1,0-0.1,0-0.1-0.1c0,0,0,0,0.1,0c1.8-0.6,3.6-0.7,5.5-0.1
		C24.2,30.4,24.2,30.6,24,30.8z"/>
	<path class="st28" d="M30.5,6.2c0,0.1,0.1,0.2,0.1,0.2c0.1,0.4,0.8,0.9,0.2,1.2c-0.7,0.4-2,0.3-3,0.4c-0.3,0-0.3-0.1-0.3-0.3
		c-0.2-0.3,0-0.5-0.2-0.8c-0.1-0.1,0-0.3,0.3-0.4c0.3-0.1,0.5,0.1,0.7,0.2C28.6,6.8,28.7,7,29.1,7c0.6-0.2,0-0.4,0.1-0.6
		C29.5,6,30,6,30.5,6.2z"/>
	<path class="st29" d="M30.5,6.2c-0.5,0-0.9,0-1.2,0.2c-0.3,0.2-0.6,0.4-1,0.5c-0.2-0.1-0.1-0.3-0.5-0.3c-0.3,0.4,0,0.8-0.2,1.1
		c0-0.1-0.1-0.1-0.2-0.2C26.8,6.1,27,6,29.9,5.9C30.4,5.8,30.5,5.9,30.5,6.2z"/>
	<path class="st7" d="M23,24.1c-0.3,0-0.5-0.1-0.8-0.1c-0.3-0.1-0.6-0.1-0.9-0.2c-0.7-0.2-1.7-0.2-2-0.7c1.1-0.4,1.5-1,2.1-1.5
		c0.1-0.1,0.2-0.1,0.2,0c1,0.2,2,0.6,3.1,0.6C24.4,22.9,23.3,23.4,23,24.1z"/>
	<path class="st30" d="M21.8,21.6c-0.1,0-0.2,0-0.2,0c-0.8-0.3-2.1-0.3-2.6-0.9c0.6-0.5,1.2-0.9,1.7-1.4h0.1
		c0.8,0.2,1.6,0.4,2.5,0.6c0.3,0.4-0.5,0.6-0.7,0.9C22.3,21.2,21.9,21.4,21.8,21.6z"/>
	<path class="st31" d="M45.3,24.9c-0.4-0.3-0.9-0.6-1.2-1c0.4-0.3,0.7-0.7,1.1-1c0.4,0.1,0.3,0.3,0.6,0.5
		C45.8,23.9,45.7,24.4,45.3,24.9z"/>
	<path class="st4" d="M19.4,23.2c0.7,0.2,1.4,0.4,2.1,0.6c0,0.1,0,0.2-0.2,0.1c-2.7-0.1-5.4-0.5-8.1-0.7c-1.7-0.1-3.3-0.3-5-0.5
		c0-0.9,0-1.7,0-2.6C11.9,21.1,15.7,22.2,19.4,23.2z"/>
	<path class="st32" d="M8.4,12.7c-1.1-0.7-2-1.5-2.7-2.3c0.9-0.6,2.3-0.8,3.6-1c0.3,0,0.6,0.1,0.8,0.3c0.4,0.4,0.9,0.8,0.8,1.2
		c0.3,0.3,0.6,0.7,0.9,1C10.8,12.3,9.8,12.8,8.4,12.7z"/>
	<path class="st33" d="M8.4,12.7c1.1-0.3,2.3-0.5,3.4-0.8c-0.7,0.9-1.2,1.9-2.2,2.8C9.3,14.1,8.5,13.4,8.4,12.7z"/>
	<path class="st34" d="M10.9,10.9c-0.3-0.4-0.6-0.8-1-1.1c0.4-0.4,1.1-0.5,1.8-0.4c0,0,0.1,0,0.1,0.1c0,0.1,0.1,0.1,0.1,0.2
		C12.9,10.6,12.9,10.6,10.9,10.9z"/>
	<path class="st35" d="M15,8.1c0.2,0.2,0.3,0.4,0.2,0.7C14.1,9,13,9.2,11.9,9.5l-0.1,0c-0.4-0.1-0.5-0.3-0.3-0.5
		C12.5,8.5,13.6,8.1,15,8.1z"/>
	<path class="st10" d="M18.6,30.3c0,0,0,0.1,0,0.1c-0.5,0.9-0.8,1.9-0.7,2.8c-0.9-0.1-1.7-0.2-2.6-0.2c0.4-1,0.8-2,1.2-3
		C17.2,30.1,17.9,30.2,18.6,30.3z"/>
	<path class="st4" d="M15,8.1c-1.2,0.2-2.3,0.5-3.4,0.8c-0.5,0.4-1.3,0.6-2.2,0.6C8.2,9.8,7,10.1,5.7,10.4c-0.5,0.4,0,0.8-0.3,1.3
		c-0.4-0.5-0.8-0.9-1.1-1.3c2.1-0.9,4.2-1.7,6.3-2.6C11.8,7.4,13,7,14.2,6.5C14.8,7,14.8,7.6,15,8.1z"/>
	<path class="st36" d="M20.6,7.2c0.3,0.5,1,1.3,0.5,1.5C20.2,9,18.8,9,17.6,9.2c-0.5,0.1-0.4-0.2-0.4-0.3c0.1-0.3,0-0.6,0-0.9
		c0-0.5,0.4-0.6,1.4-0.6c0.4,0.1,0.3,0.6,1,0.5c0.6-0.1-0.1-0.5,0.2-0.7C20.1,7.1,20.3,7.1,20.6,7.2z"/>
	<path class="st37" d="M20.6,7.2c-0.3,0-0.6,0-0.8,0.2c-0.4,0.1-0.7,0.3-1.2,0.2c-0.8-0.3-1.1-0.1-1.2,0.4c-0.1,0.3,0.2,0.6-0.2,0.9
		c-1-1.6-0.9-1.6,2.3-1.9C19.8,6.9,20.6,6.6,20.6,7.2z"/>
	<path class="st38" d="M21.3,23.9c0.1,0,0.2-0.1,0.2-0.1c0.2,0.1,0.5,0.2,0.7,0.2C21.9,24,21.6,24.1,21.3,23.9z"/>
	<path class="st39" d="M28.3,6.9c0-0.4,0.3-0.5,1-0.5c0.5,0.2,0.8,0.4,0.3,0.7C29.2,7.3,28.6,7.2,28.3,6.9z"/>
	<path class="st40" d="M9.7,11.4c-0.8-0.2-1.4-0.4-1.9-0.6c-0.2-0.1-0.7-0.1-0.6-0.3c0.1-0.2,0.6-0.2,1-0.3c0.4-0.1,0.6,0.1,0.7,0.2
		C9.1,10.7,9.5,11,9.7,11.4z"/>
	<path class="st41" d="M9.4,9.5c0.7-0.2,1.4-0.4,2.2-0.6c0.1,0.2,0.1,0.3,0.2,0.5c-0.6,0.1-1.2,0.3-1.9,0.4C9.8,9.7,9.6,9.6,9.4,9.5
		z"/>
	<path class="st42" d="M18.6,7.6c0.3-0.2,0.7-0.3,1.2-0.2c0.2,0.2,0.7,0.3,0.3,0.6c-0.2,0.2-0.5,0.2-0.8,0.2
		C18.7,8,18.6,7.8,18.6,7.6z"/>
</g>
</svg>
