<?xml version="1.0" encoding="utf-8"?>
<!-- Generator: Adobe Illustrator 23.1.0, SVG Export Plug-In . SVG Version: 6.00 Build 0)  -->
<svg version="1.1" id="Capa_1" xmlns="http://www.w3.org/2000/svg" xmlns:xlink="http://www.w3.org/1999/xlink" x="0px" y="0px"
	 viewBox="0 0 89.7 150.1" style="enable-background:new 0 0 89.7 150.1;" xml:space="preserve">
<style type="text/css">
	.st0{fill:#E8E8E8;}
	.st1{fill:#95637C;}
	.st2{fill:#FEECE7;}
	.st3{fill:#734C5F;}
	.st4{fill:#4D4D4D;}
	.st5{fill:#3D3D3D;}
	.st6{fill:#666666;}
	.st7{fill:#543042;}
	.st8{fill:#EED0CB;}
	.st9{fill:#474747;}
	.st10{fill:#464645;}
	.st11{fill:#4D4E4D;}
	.st12{fill:#4E4E4E;}
	.st13{fill:#676766;}
	.st14{fill:#505050;}
	.st15{fill:#EFD0CB;}
	.st16{fill:#454545;}
	.st17{fill:#CEA39E;}
	.st18{fill:#FEF3F0;}
	.st19{fill:#4A4949;}
	.st20{fill:#4B4B4A;}
	.st21{fill:#2F2F2F;}
	.st22{fill:#2E2E2E;}
	.st23{fill:#D0A5A0;}
	.st24{fill:#CDA39D;}
	.st25{fill:#7F7F7F;}
	.st26{fill:#FDECE7;}
	.st27{fill:#507365;}
	.st28{fill:#696868;}
	.st29{fill:#CFA49F;}
	.st30{fill:#CCA29C;}
</style>
<g>
	<path class="st0" d="M39.4,150.1c-5.1-1.5-10.3-2.4-15.6-3.6c-7.4-1.8-14.9-3.6-22.3-5.4c-0.2,0-0.4,0-0.9-0.3
		c4.3-0.6,8.3-1.2,12.4-1.8c0.5,2.4,2.5,2.7,4.8,3c5.1,0.9,10.1,2.1,15.2,2.7c12.8-0.9,25.3-1.8,38.1-2.7c3.9-0.6,7.6-1.2,11.5-1.8
		c1.1-0.3,1.9-0.6,2.8,0.3c-4.1,1.5-8.7,2.1-12.9,3c-9.4,2.1-18.8,4.2-28.2,6c-0.2,0-0.4,0.3-0.5,0.3
		C42.4,150.1,40.8,150.1,39.4,150.1z"/>
	<path class="st1" d="M71.1,84.7c0.2,3-0.7,5.7-1.1,8.4c-1.4,9.3-3.2,18.9-4.8,28.2c-0.7,3.9-1.8,7.8-1.8,12
		c-0.2,0.3-0.4,0.3-0.5,0.3c-0.4,0-0.5-0.3-0.7-0.6c-5.3-9.3-10.8-18.9-16.1-28.2c-2.1-3.6-4.4-7.2-6.2-11.1c0-2.1-0.7-4.2-0.2-6.3
		c2.1-1.2,4.4-1.2,6.7-1.8c2.8-0.6,5.8-1.2,8.7-1.8c1.6-0.3,3.2-0.9,5-0.9C63.7,83.5,67.4,84.1,71.1,84.7z"/>
	<path class="st2" d="M15.3,37.6c0.4-2.7-1.4-4.5-2.3-6.6c-0.2-2.1-0.4-4.2-0.2-6.6c0.2-1.5,0.9-1.8,2.5-0.9
		c1.4,0.6,2.8,1.5,3.7,2.7c0.4,0.9,0.4,1.8,1.4,2.4c1.2,0.3,2.3,1.2,2.8,2.1c0.7,1.5,1.8,2.7,2.5,3.9c0.2,0.3,0.2,0.3,0.4,0.6
		c0.9,1.2,1.8,1.5,3,0.3c0.2-0.3,0.4-0.3,0.4-0.3c2.1-2.1,3.2-4.5,5.7-6.3c1.4-0.3,2.7-0.3,2.7-1.8c0.9-1.5,2.5-1.8,3.9-2.7
		c0.5-0.3,1.6-0.6,1.1-1.5c-1.6-1.8-3.2-2.1-5.1-1.5c-1.4,0.6-2.8,0.9-4.3,1.2c-0.9,0.3-1.6,0.6-1.6,1.5c-0.5,1.2-1.6,2.1-3,2.7
		c-1.6,0-2.3,0.9-2.1,2.1c0.2,0.9,0.2,1.8,0,2.7c-0.2,0.6,0.2,1.5-1.1,1.8c-1.1-0.9-0.7-2.4-0.7-3.3c0.2-2.1-0.2-3.6-1.8-5.1
		c-0.2-1.2-0.9-1.5-1.9-1.8c-2.1-0.9-4.1-2.1-6.4-0.6c-0.4,0.3-1.1,0-1.4-0.3c-0.9-2.1-0.2-4.5-0.5-6.6c0-0.6,0-1.2,0.4-1.5
		c4.1-0.9,8-1.8,11.7,0.6c2.5,1.8,2.7,1.8,5.1,0c1.8-1.2,3.5-1.8,5.7-1.8c3.7,0,7.6,0,11.3,0.6c0.2,0,0.4,0.3,0.5,0.3
		c0.7,1.8-0.2,3.6-0.4,5.4c-0.2,0.9-0.4,1.8-0.4,2.7c-0.7,5.7-1.6,11.4-2.5,17.1C43.8,43,41,46,37.8,49c-3.2,0.6-6.2,0.6-9.4,0.6
		c-0.2,0-0.5,0-0.7,0c-2.8,0.6-5,0-6.2-2.4c-0.2-0.3-0.4-0.6-0.5-0.6c-1.1-1.5-2.7-3-3.5-4.5C16.5,40.6,16.5,38.8,15.3,37.6z"/>
	<path class="st3" d="M32.7,145.6c-6.2-1.2-12.4-2.4-18.6-3.6c-2.1-0.3-0.5-1.8-1.1-2.7c0.7-3,1.1-5.7,1.4-8.7
		c0.2-0.3,0.4-0.3,0.5-0.6c1.8-1.8,3.7-3.6,5.5-5.4c0.7-0.9,1.4-1.5,1.4-2.4c0.5-6.9,1.2-13.8,1.9-20.7c0.2-2.1-0.4-4.5,1.2-6.6
		c2.8-0.3,5,0.9,7.3,1.8c0.2,0.3,0.4,0.3,0.4,0.6c0.2,0.3,0.2,0.9,0.2,1.2c-0.4,7.5,0.7,15.3,0.5,22.8c-0.2,7.2,0.7,14.1,0.5,21.3
		C33.4,143.5,33.5,144.7,32.7,145.6z"/>
	<path class="st1" d="M14.8,130.3c-0.2,0-0.2,0-0.4,0c-0.9-9.9-1.9-19.8-2.8-30C11,95.2,10.5,89.8,10,84.7c-0.2-0.9-0.4-1.5,0.2-2.4
		c3.4,1.5,6.9,2.4,10.3,3.9c0.2,0,0.4,0.3,0.5,0.6c0.2,0.3,0.2,0.3,0.2,0.6c0.2,2.1-0.2,4.2,0.5,6.6c-1.4,5.4-2.1,11.1-3,16.8
		c-1.1,5.7-1.9,11.4-2.8,16.8C15.5,128.5,15.5,129.7,14.8,130.3z"/>
	<path class="st1" d="M71.1,84.7c-0.9,0.9-1.8,0-2.7,0c-2.8-0.3-5.7-0.9-8.5-1.5c-1.6-1.2-1.8-3-2.7-4.5c-0.5-0.9-1.1-1.8-1.4-3
		c0-2.7,0.9-5.1,1.2-7.5c0.2-0.3,0.2-0.9,0.4-1.2c0.5-3.9,1.4-7.5,2.3-11.4c0.2-0.6,0-1.2,1.1-1.5c2.5,7.5,5.1,14.7,7.6,21.9
		C69.3,79.3,70.2,82,71.1,84.7z"/>
	<path class="st4" d="M11,7.4c1.8-1.8,3-3.9,5.5-5.1c5.1,0.6,10.1,2.4,15.1,3.6c4.4,0.9,9,2.1,13.5,3.3c0.7,0.3,1.8,0.3,1.8,1.2
		c-4.8,0.6-9.6,1.5-14.5,0.3c-1.1-0.3-1.8-0.3-2.5,0.3c-1.9,1.5-3.9,1.2-5.8,0.3c-0.9-0.6-1.9-0.9-2.8-0.9c-2.7-0.9-5.3-1.2-8.1-1.8
		C12.3,8.6,11,8.6,11,7.4z"/>
	<path class="st1" d="M21.5,9.8c0.7,0,1.2,0.3,1.6,0.6c2.5,1.5,5,2.1,7.4,0c0.4-0.3,0.9-0.6,1.4-0.3c1.4,1.5,3.4,0.9,5.1,0.9
		c3.2,0,6.6-0.3,9.7-0.3c0.5-0.3,0.9-0.3,1.4,0c0.4,1.5,0.4,2.7-1.1,3.9c-3.9,0-7.6,0-11.5-0.6c-3-0.3-4.8,1.2-6.7,2.7
		c-0.7,0.6-1.4,1.2-2.3,0.3c-3.7-3.6-8.7-2.7-13.5-2.4c-0.4,0-0.9,0-1.4,0c0-0.9-0.2-1.8-0.2-2.7c0.9-0.9,2.1-0.9,3.2-0.9
		C17.3,11,19.6,11,21.5,9.8z"/>
	<path class="st5" d="M55.5,32c1.8,7.2,3.5,14.4,5.3,21.3c0,0.3,0,0.6,0.2,0.9c-2.3,0.3-3.9-1.2-6-1.8c-1.8-0.9-3.7-0.9-5.1-2.4
		c-0.2-1.2,0.9-2.1,1.4-3.3c0.7-1.5,1.9-3,2.5-4.5c-0.9-2.1-2.1-3.6-2.8-5.7c-0.7-0.9-0.7-1.5-0.7-2.1c0-1.5,0.7-2.7,2.7-2.7
		C53.9,31.4,54.8,31.4,55.5,32z"/>
	<path class="st6" d="M31.4,6.2c-5-1.5-10.1-2.4-14.9-3.9C23.6,1.7,30.9,0.5,38,0.2c4.1-0.3,8,1.2,11.9,2.1c0.9,0.3,2.1,0,2.8,0.6
		c0.2,0.3-0.2,0.6-0.7,0.6C46.1,3.8,40.5,5,34.6,5.9C33.5,5.9,32.3,5.6,31.4,6.2z"/>
	<path class="st3" d="M63.1,133.3c0.2,0,0.4,0,0.4,0c8.9,2.1,17.7,4.2,27.1,6.3c-2.1,0.3-3.5,0.6-5.1,0.9c-4.1,0.6-8,1.2-12,1.8
		c-0.7,0-1.4,0.3-2.1,0.3c-1.1,0.3-1.8,0-2.3-0.6c-2.1-2.4-3.9-5.1-5.8-7.8C63,133.9,63,133.6,63.1,133.3z"/>
	<path class="st1" d="M20.6,86.8c-3.2-1.2-6.4-2.1-9.4-3.3c-0.5-0.3-0.9-0.6-0.9-0.9c1.9-5.4,4.1-10.8,6-15.9
		c1.6,0.6,1.6,2.1,2.1,3.3c-0.2,3.3-0.9,6.9-1.4,10.2c-0.4,0.6-0.5,1.2-0.5,2.1c0,0.3,0.4,0,0.2,0c-0.5-0.3,0.2-0.9,0-1.2
		c0.5-1.2,0.7-2.4,1.2-3.6c0.4-0.6,0.2-1.2,1.2-1.2c0.5,0.3,0.7,0.6,0.7,1.2c0.5,3,0.9,5.7,1.2,8.7C21,85.9,21,86.5,20.6,86.8z"/>
	<path class="st7" d="M55,51.7c1.9,0.6,3.9,1.5,5.8,2.1c0,0.3,0,0.3,0.2,0.3c-1.2,3.3-1.4,6.6-2.1,9.9c-0.4,0.9-0.4,2.1-0.5,3
		c-2.1-0.3-3.5-1.2-4.8-2.7c0.2-3.9,0.5-8.1,1.2-12C54.5,52.6,54.6,52,55,51.7z"/>
	<path class="st2" d="M55.5,32c-0.9,0-1.8,0-2.7,0c-0.7,0.3-1.2,0.3-1.9,0c-0.7-0.9-0.5-2.1-0.4-3c1.1-1.5,2.3-3,3.5-4.2
		c-1.1,0-2.1,1.5-3.7,0.6C50,25.1,50,24.5,50,23.9c0-0.3,0.2-0.9,0.5-0.9c2.3-0.9,4.4-2.4,7.1-2.7c0.5-0.3,1.1-0.6,1.8-0.3
		C58.4,23.9,56.4,27.8,55.5,32z"/>
	<path class="st8" d="M25.4,34.9c-1.2-1.2-2.1-2.7-2.8-3.9c-0.5-1.2-1.4-1.8-2.7-2.1c0.5-0.9,2.5-0.6,1.9-1.8
		c-0.7-1.2-1.9-0.3-3-0.3c-1.2-1.8-3.4-2.4-5.5-3.9c0,2.4,0,4.2,0,6c0,0.6,0.4,1.5-0.5,1.8c-0.2-0.3-0.2-0.3-0.4-0.6
		c-0.5-3.9-0.2-8.1-0.2-12.3c0-0.9-0.4-1.8,1.1-2.4c0,1.8,0,3.3,0.2,5.1c0,0.6-0.2,1.2,0.5,1.8c3.5-0.9,6.6,0.3,9.4,1.8
		c2.8,1.8,2.1,4.2,2.3,6.6c0,0.9,0,1.5,0,2.4C26.1,33.7,26.1,34.3,25.4,34.9z"/>
	<path class="st9" d="M13.4,15.8c-0.5,4.2-0.2,8.4-0.4,12.6c0,0.6,0.4,1.5-0.4,2.1c-1.1-1.8-2.1-3.6-3.4-5.4
		c-0.9-1.2-0.9-2.4-0.4-3.6c1.1-2.4,1.9-4.5,2.8-6.9c0.5,0,1.1-0.3,1.6-0.3C13.4,14.6,13.4,15.2,13.4,15.8z"/>
	<path class="st6" d="M57.6,20.3c-2.3,0.9-4.4,2.1-6.7,3c-0.4-0.3-0.5-0.9-0.2-1.2c1.6-3.3,2.5-6.6,4.6-9.6c0.9-0.6,1.8-0.9,2.8-0.3
		C58,14.9,57.8,17.6,57.6,20.3z"/>
	<path class="st1" d="M58.2,12.2c-0.9,0.3-1.8,0.3-2.7,0.6c-2.5,1.2-5.1,1.8-8,1.5h-0.2c0.7-1.2,0.5-2.4,0.9-3.6
		c0-0.3,0.4-0.6,0.7-0.6c3-0.3,6-1.2,9.2-1.2C58.9,9.8,58.5,11,58.2,12.2z"/>
	<path class="st10" d="M58.2,8.6c-3,0.9-6.2,1.2-9.4,1.5c-0.5,0-0.7-0.3-0.5-0.6C49.3,7.4,50,5,52.3,3.2c0.2-0.3,0.4-0.3,0.5-0.3
		C55,4.4,56.4,6.8,58.2,8.6z"/>
	<path class="st11" d="M15.7,64.9c0.7-2.1,1.4-4.2,2.3-6.3c0.4-0.9,1.2-1.2,1.9-1.8c1.4-0.6,2.5-0.6,2.5,0.9
		c-0.2,1.8-0.5,3.6-1.1,5.4C19.9,65.2,18,65.2,15.7,64.9z"/>
	<path class="st6" d="M22,57.7c-0.2-0.6,0.2-1.5-1.2-0.9c-0.9,0.6-1.9,0.9-2.8,1.5c-0.7-1.8-1.4-3.6-2.1-5.4
		c-0.5-1.2-0.7-2.4-0.2-3.3c0.7,2.4,3.2,1.5,5,2.1c1.9,1.2,1.6,3,2.3,4.5C22.7,56.8,23.1,57.7,22,57.7z"/>
	<path class="st12" d="M20.6,52c-0.7,0-1.4,0-1.9,0c-2.1,0.3-3.4-0.3-3-2.4c0-0.9,0-1.8,0.2-2.7c1.8-0.9,3.7-1.2,5.8-0.9
		c0.2,0.3,0.4,0.3,0.5,0.3C22.4,48.7,22.2,50.5,20.6,52z"/>
	<path class="st13" d="M21.5,9.8c-1.1,1.5-2.5,2.1-4.6,1.8c-1.8,0-3.5,0.3-5.3,0.3c-0.2-1.5-1.2-3-0.4-4.5c2.3,1.5,5.3,0.9,8,1.8
		C19.9,9.5,20.6,9.5,21.5,9.8z"/>
	<path class="st6" d="M21.5,46.3c-1.9,0.3-3.9,0.6-5.8,0.9c-0.7-1.2-1.4-2.4-1.8-3.9c0.9-1.2,2.3-1.5,3.9-1.5
		C19.2,43.3,20.6,44.8,21.5,46.3z"/>
	<path class="st6" d="M15.7,64.9c1.8-0.6,3.9,0,5.3-1.5c1.1,1.2,1.1,2.4,1.6,3.6c0,0.3,0,0.3,0,0.6c-0.2,0.3-0.4,0.3-0.5,0.3
		c-1.4,0.6-2.3,1.8-4.3,1.5c-0.5-0.9-1.1-2.1-1.6-3C16,66.1,15.8,65.5,15.7,64.9z"/>
	<path class="st14" d="M18,41.8c-1.4,0.6-2.7,0.9-3.9,1.5c0.4-2.1,0.9-3.9,1.2-6c0.5-0.6,0.9-0.3,1.1,0.3
		C16.7,39.1,17.3,40.6,18,41.8z"/>
	<path class="st3" d="M63.1,133.3c1.9,2.7,4.1,5.4,6,8.1c0.5,0.6,1.1,1.2,2.1,1.2c-3,0.6-6.4,0.6-9.6,0.9
		c-9.2,0.9-18.4,1.5-27.5,2.1c-0.5,0-1.1,0-1.6,0c-0.4-16.2-0.7-32.7-0.9-48.9c1.4-1.5,3.4-1.8,5.5-1.8c1.1,0.6,1.1,1.5,1.2,2.4
		c2.3,8.1,4.8,16.2,6.9,24.6c0.5,1.8,1.4,3,3.2,3.9c3.7,1.8,7.3,3.6,11,5.4c1.2,0.6,2.1,1.2,3.2,2.1C62.8,133.3,63,133.3,63.1,133.3
		z"/>
	<path class="st3" d="M20.6,86.8c-0.7-3.6-0.7-7.2-1.8-10.8c-0.4-1.5,0.4-2.7,1.4-3.9c1.2-0.3,1.6,0.6,2.3,1.2
		c1.4,1.2,2.1,3,4.4,3.6c6.6,0,13.1,0.6,19.5-0.6c1.1-0.3,1.2,0.6,1.4,1.2c0.2,0.6,0.5,1.5,0.5,2.1c-0.2-2.1,0.7-3.6,2.3-5.1
		c1.6-1.5,3.2-3.3,4.8-4.8c0.5-0.6,1.1-1.2,2.1-1.2c-0.4,2.1-0.7,4.2-1.1,6.3c-0.2,0.6-0.2,1.2-0.2,1.8c0.5,2.7,0.2,5.4-1.1,8.1
		c-5.1,0.9-10.5,2.1-15.6,3c-0.2,0-0.4,0.3-0.5,0c-2.7-1.8-5-0.3-7.3,0.6c-0.5,0-0.9,0-1.2,0c-2.5-2.1-5.3-2.7-8.5-1.2
		C21.7,87.1,21,87.1,20.6,86.8L20.6,86.8z"/>
	<path class="st7" d="M62.8,133c-5.5-2.7-10.8-5.4-16.3-8.1c-0.9-0.6-1.2-1.2-1.4-2.1c-2.5-9-5.1-17.7-7.6-26.7
		c-0.2-0.3-0.4-0.9-0.5-1.2c0.7-1.2,1.8-1.5,3.2-1.2c3.7,5.4,6.6,11.1,9.9,16.8c3.7,6.3,7.4,12.9,11,19.2
		C61.7,130.9,62.3,132.1,62.8,133z"/>
	<path class="st15" d="M40.3,94c-1.1,0.3-2.1,0.6-3.2,1.2c-1.8,0.6-3.5,1.2-5.3,1.8v-0.3c-0.9-2.7-1.4-5.4-0.7-8.1
		c1.2-0.6,2.5-0.6,3.7-0.9c1.6-0.3,3-0.3,4.6,0c0.2,0,0.4,0,0.5,0C40.3,89.8,40.6,91.6,40.3,94z"/>
	<path class="st15" d="M38,48.7c0.9-1.2,1.8-2.4,2.8-3.6c2.7-2.7,3-5.7,3.4-9c0.7-4.8,1.1-9.6,2.3-14.4c1.8,0.6,1.8,2.1,2.7,3.3
		c0.5,1.8-1.2,3.3-1.8,5.1c-0.9,2.1-1.2,4.5-1.9,6.6c-0.4,0.9,0.4,1.5,0.9,2.1c0.9,1.2,2.1,2.1,2.5,3.3c-0.7,2.4-1.8,4.5-3,6.6
		c-2.5,2.4-5.3,4.5-8,6.9c-0.5,0.3-0.9,1.2-1.8,0.6c-0.4-0.9,0.2-1.5,0.7-1.8c1.4-1.8,2.8-3.6,4.3-5.4C39.9,49.3,39,49.3,38,48.7z"
		/>
	<path class="st15" d="M35,28.7c-1.8,2.4-3.4,4.5-5.5,6.6c-0.4-0.3-0.5-0.6-0.5-1.2c-0.2-2.1-0.2-3.9-0.5-6
		c-0.2-0.6,0.2-1.2,0.5-1.5c0.5-0.9,2.1-1.5,2.3-2.7c2.5-0.6,5.1-1.2,7.6-1.8c1.4-0.3,2.7-0.3,3.9,0.3c1.2,0.6,0.9,0.9,0,1.5
		c-1.6,0.9-3.4,1.5-5,2.7C35.1,26.3,35.1,26.3,35,28.7z"/>
	<path class="st16" d="M48.8,25.4c-0.7-1.2-1.6-2.4-2.3-3.3c-0.2-2.7,0.7-5.1,0.9-7.8c2.7-0.6,5.3-0.9,8-1.5
		c-1.2,2.7-2.5,5.4-3.7,8.4c-0.4,0.6-0.4,1.2-0.5,2.1c-0.2,0.3-0.4,0.6-0.5,0.9C50,24.5,50.6,26,48.8,25.4z"/>
	<path class="st17" d="M38,48.7c1.1,0,2.1,0,3.2,0c-1.2,3-3.9,4.8-5.1,7.5c0,0.9-0.4,1.2-1.2,1.5c-0.9,0.3-1.2-0.6-1.8-0.9
		c-1.4-1.5-2.5-3.3-3.5-4.8c-0.5-0.9-1.9-1.5-1.4-3C31.6,49.3,34.8,49,38,48.7z"/>
	<path class="st18" d="M29.1,26.6c0.2,3,0.7,5.7,0.5,8.7l0,0c-1.2,0.6-2.7,0.6-3.9,0c0-0.3,0-0.3,0-0.6c0-0.6,0-0.9,0-1.5
		c0.9-1.5,0.4-2.7,0.4-4.2C26.1,26.6,25.9,26.6,29.1,26.6z"/>
	<path class="st19" d="M42.9,22.4c-3.2-0.6-6,0.9-9.2,1.5c-0.9,0.3-1.6,0.6-2.5,0c-0.5-0.6-0.5-0.9,0.5-1.2c2.5-0.6,5-1.5,7.4-2.1
		C41,20.3,42.1,21.5,42.9,22.4z"/>
	<path class="st1" d="M23.6,40.9c-0.4-0.3-0.7-0.3-1.4-0.6c4.1-1.2,8-1.2,11.7,0c-0.4,0.6-0.9,0.6-1.2,0.6c-0.9,0.3-1.8,0.3-2.5,0.6
		C27.9,42.4,25.8,41.5,23.6,40.9z"/>
	<path class="st20" d="M23.3,24.5c-0.7-0.3-1.4-0.3-2.1-0.6c-2.3-0.9-4.6-1.5-7.1-1.5c1.1,0,1.8-1.5,3-1.2c2.1,0.6,4.3,1.2,6.4,1.8
		C24.3,23.6,23.3,23.9,23.3,24.5z"/>
	<path class="st21" d="M35,28.7c-0.7-0.9-0.9-1.8,0.2-2.4c1.1-0.9,2.1-0.3,2.8,0.3C38.2,28.7,37.4,29.3,35,28.7z"/>
	<path class="st22" d="M18.8,26.6c0.7-0.6,1.6-1.2,2.7-0.6c0.9,0.3,1.1,0.9,0.9,1.8C22,29,21.1,29,20.1,29
		C18.8,28.4,18.7,27.8,18.8,26.6z"/>
	<path class="st1" d="M23.6,40.9c3,0.6,6,0.6,9,0c-1.2,0.6-2.7,1.2-3.9,1.5C26.6,43,25.2,41.5,23.6,40.9z"/>
	<path class="st23" d="M25.6,35.2c1.2,0,2.7,0,3.9,0C27.5,37.3,27.5,37.3,25.6,35.2z"/>
	<path class="st7" d="M14.8,130.3c0.2-4.2,1.2-8.4,1.9-12.6c1.2-7.5,2.7-15,3.9-22.5c0.2-0.6,0-1.2,0.9-1.2c1.1-0.6,1.9,0,3,0.3
		c0.4,0.3,0.5,0.3,0.5,0.6c-0.9,1.8-0.5,3.9-0.7,5.7c-0.7,5.7-0.9,11.4-1.6,17.1c-0.2,1.8-0.4,3.3-0.5,5.1c0,0.6-0.2,1.2-0.5,1.5
		C19.4,126.1,17.4,128.5,14.8,130.3z"/>
	<path class="st2" d="M25,94.6c-0.2,0-0.4-0.3-0.5-0.3c-0.4-0.6-0.5-0.9-0.7-1.5c-0.7-2.7-0.2-3.9,3.2-4.5c1.4-0.3,2.8-0.9,4.3-0.3
		c0,2.7,0.7,5.4,0.5,8.1C29.3,96.1,27.3,95.2,25,94.6z"/>
	<path class="st8" d="M31.2,88.3c-0.4,0-0.7,0-0.9,0c-1.9,0.3-4.3,0.3-5.7,1.5c-1.6,1.2,0.4,3-0.2,4.8c-1.1-0.3-2.1-0.3-3.2-0.6
		c-1.1-0.6-0.9-1.5-0.9-2.4c0-1.5,0-3,0-4.2c3.5-0.9,6.9-0.3,10.3,0.6c0.4,0,0.9,0,1.2,0c0.9-0.3,1.8-0.6,2.7,0
		C33.7,88.6,32.5,88,31.2,88.3z"/>
	<path class="st24" d="M30.9,88c-3.4,0.3-6.7-0.9-10.3-0.6v-0.3c0.7-0.3,1.6-0.3,2.3-0.6C26.3,84.7,28.8,85.6,30.9,88z"/>
	<path class="st7" d="M57.6,68.2c-3,2.4-5.7,5.4-8.1,8.4c-0.9,0.9-0.2,2.1-0.4,3.3c0,0.3,0.4,1.2-0.9,0.9c0.5-1.8-0.5-3.3-0.4-5.1
		c0.2-1.8-0.2-3.6,0.2-5.4c1.4-2.1,2.8-3.9,5.5-5.1c1.6,0.6,3,1.5,4.4,2.4C58,67.9,57.8,67.9,57.6,68.2z"/>
	<path class="st25" d="M52.3,3.2C51.3,5,50,6.8,49,8.6c-0.2,0.3-0.9,0.9-0.4,1.2c-0.2,0-0.4,0.3-0.5,0.3c-0.5,0-0.9,0-1.4,0
		c-5.1-1.8-10.5-2.7-15.6-4.2c0.5-1.5,2.1-0.9,3-0.9C39.4,4.1,44.7,3.5,50,2.6C50.9,2.9,51.8,2.6,52.3,3.2z"/>
	<path class="st26" d="M53.6,65.2c-1.6,1.5-3.2,3-4.8,4.5c-1.2-1.5-0.5-3-0.7-4.5c-0.2-0.6,0-1.5,0.2-2.1c0.7-2.4,2.3-4.5,3-6.9
		c-0.2-2.1-1.6-3.9-1.8-5.7c0-0.3,0.2-0.3,0.4-0.6c1.8,0.6,3.5,1.2,5.3,1.8C54.5,56.2,54.1,60.7,53.6,65.2z"/>
	<path class="st6" d="M49.7,49.9C49.8,50.2,49.7,50.2,49.7,49.9c-0.4,0.3-0.7,0.3-0.9,0.3c-1.2-0.6-2.1-0.9-2.5,0.6
		c0,0.3-0.4,0.3-0.7,0.3c-0.9-0.9-0.5-1.5,0-2.4c1.1-2.1,1.9-4.5,3-6.6c1.8-1.2,3.7-0.9,5.5,0C53,44.8,50.9,47.2,49.7,49.9z"/>
	<path class="st4" d="M54.1,42.1c-1.8,0-3.7,0-5.5,0c-1.1-1.2-1.9-2.4-3-3.6c-0.4-0.3-1.1-0.9-0.5-1.5c1.1-0.6,2.3-0.9,3.5-1.2
		c0.9-0.3,1.8-0.3,2.3,0.6C52,38.2,53,40,54.1,42.1z"/>
	<path class="st16" d="M50.9,36.4c-1.1-0.6-1.9,0-2.8,0.3c-1.1,0.3-1.9,0.9-3,0.6c0.7-2.4,1.2-4.8,1.9-7.2c1.9-0.3,2.8,0.9,3.9,1.8
		c0.5,0,1.2,0,1.8,0C50.7,32.6,50.4,33.4,50.9,36.4z"/>
	<path class="st11" d="M20.6,72.1c-0.9,1.2-1.1,2.7-1.8,3.9c-0.7,1.8-1.2,3.3-1.9,5.1c-0.9,0-0.7-0.3-0.5-0.6
		c0.5-3.6,0.9-7.2,1.4-10.8c1.6-0.3,2.5-1.5,4.1-1.8C22.7,69.4,21.5,70.6,20.6,72.1z"/>
	<path class="st27" d="M16.5,80.2c0,0.3,0.2,0.6,0.4,0.9c-0.2,0.3-0.4,0.9-0.7,1.5C16,81.7,16,80.8,16.5,80.2z"/>
	<path class="st28" d="M50.9,32c-1.4-0.3-2.5-1.5-3.9-1.8c0.4-1.5,2.1-2.7,1.8-4.5c1.1,0,0.9-1.2,1.6-1.5c0.2,0.6,0.2,0.9,0.2,1.5
		c0.9,0.9,1.1,2.1,0.4,3C50.9,29.6,50.9,30.8,50.9,32z"/>
	<path class="st29" d="M50.9,28.4c-0.2-0.9-0.2-2.1-0.4-3c1.2-0.6,2.7-0.9,4.4-1.5C53.7,25.7,52.7,27.2,50.9,28.4z"/>
	<path class="st7" d="M22.4,56.2c0.7-0.3,1.4-0.9,2.1-1.2c0.9,0.3,0.7,0.9,0.5,1.2c-0.5,3.3-1.4,6.6-2.1,9.9
		c-0.2,0.3-0.4,0.6-0.7,0.9c-0.7-1.2-1.4-2.4-1.4-3.9c0.4-1.8,0.7-3.6,1.1-5.7C22.6,57.4,22.4,56.8,22.4,56.2z"/>
	<path class="st2" d="M22.4,67.3c0.7-3.3,1.6-6.6,2.1-10.2c0.2-0.6,0.5-1.2,0.2-2.1c1.2-0.6,2.5-1.2,3.7-1.8
		c0.9,1.8,0.2,3.3-0.4,4.8c-0.9,3-0.2,4.8,3.2,6c1.1,0.6,2.1,1.2,2.8,2.1c0.4,0.6,0.2,0.9-0.2,1.5c-0.5,0.9-0.4,1.5,0.2,2.4
		c0.5,0.9,1.2,1.8,0.2,2.4c-1.8,0.6-3.5,0.3-5.5,0.3C26.1,71.2,24,69.7,22.4,67.3C22.4,67.3,22.4,67.3,22.4,67.3z"/>
	<path class="st7" d="M22.4,67.6c1.9,1.5,3.9,3.3,5.8,4.8c0.5,1.8-0.5,3.3-1.8,4.5c-2.3-0.6-2.8-2.4-4.3-3.6
		c-0.5-0.3-0.9-0.9-1.6-1.2c0.5-1.5,0.9-3,1.4-4.5C22,67.6,22.2,67.6,22.4,67.6z"/>
	<path class="st7" d="M26.5,76.9c0.7-1.5,1.2-3,1.8-4.5c2.1,0,4.1,0,6.2,0c1.1-0.6,2.3-0.3,3.4-0.6c2.5-0.3,5.1-0.3,7.6,0
		c1.6,1.2,2.1,2.7,1.6,4.5c-1.1,1.5-3,0.9-4.4,0.9c-5.1,0.3-10.3,0-15.6,0C26.8,77.2,26.6,77.2,26.5,76.9z"/>
	<path class="st4" d="M47,76.3c-0.5-1.5-0.9-2.7-1.4-4.2c-1.6-2.4-2.5-5.1-2.3-7.8c1.6-1.2,3.4-1.8,5.5-1.5c0,2.4,0,4.8,0.2,6.9
		c0,3,0,6,0,9.3c0,0.6,0.4,1.2-0.4,1.8C48.3,79.3,47.5,77.8,47,76.3z"/>
	<path class="st30" d="M35,88c-0.9,0-1.8,0-2.7,0c1.2-0.6,2.5-1.2,3.9-1.5c1.4-0.6,2.3,0.6,3.4,1.2C38,88.3,36.4,87.7,35,88z"/>
	<path class="st2" d="M45.6,48.7c0.4,0.9-0.2,1.5,0.5,2.4c1.1,0.9,0.5,2.1,0.7,3.3c-0.2,2.1,0.4,4.5-1.6,6.6
		c-2.7,1.8-5.8,3.3-8.7,4.8c-0.7,0.3-1.4,0.6-2.3,0.3c-6.6-3-6.7-3-5.7-9.3c0.2-1.2,0.2-2.7,1.1-3.9c0.5-0.3,0.5-0.6,0.5-1.2
		c1.6,2.1,3,3.9,4.6,6c0.9-0.3,1.1-0.9,1.6-1.5c2.8-1.8,5-4.2,7.6-6C44.4,49.6,45.1,49.3,45.6,48.7z"/>
	<path class="st7" d="M29.5,52.9c0.2,2.7-0.7,5.1-1.1,7.5c-0.2,0.9,0.2,1.5,1.1,2.1c1.8,0.9,3.4,2.1,5,3c0.2,0,0.2,0.3,0.2,0.6
		c-0.2,0.3-0.4,0.6-0.7,0.3c-1.2-0.9-2.5-1.8-3.9-2.1c-2.8-1.2-3.5-2.7-2.8-5.1c0.5-1.8,0.7-3.9,1.1-5.7
		C28.6,53.2,28.9,52.9,29.5,52.9z"/>
	<path class="st12" d="M46.1,54.4c0-1.2-0.2-2.1-0.2-3.3c0.4-0.6-0.5-1.8,0.7-2.1c1.2-0.3,2.1,0.6,3,1.5c0.7,2.1,1.9,3.9,2.1,6
		C50.6,57.4,49,58,47.4,58C45.1,57.4,46.8,55.3,46.1,54.4z"/>
	<path class="st6" d="M46.1,54.4c1.1,0.9-0.5,2.7,1.1,2.7c1.1,0.3,2.5-0.6,3.7-0.9c0.4,0,0.5,0,0.9,0c-0.9,2.1-1.9,4.2-3.2,6.3
		c-1.8,0.6-3.5,1.2-5.3,1.5c-0.5-0.6-0.2-1.2,0.2-1.8s0.7-1.2,1.2-1.5C46.3,58.9,46.1,56.5,46.1,54.4z"/>
	<path class="st7" d="M33.9,66.4c0.2,0,0.4-0.3,0.5-0.3c0.5-0.3,1.1,0,1.4,0.3c1.2,1.2,2.1,2.7,0.7,4.2c-0.7,0.9,0.4,1.2,0.9,1.8
		c-1.1,0.6-2.1,0.3-3,0.3c0-0.3,0-0.6-0.2-0.6C33,70,32.3,68.2,33.9,66.4z"/>
	<path class="st2" d="M37.4,72.1c-0.7,0-1.2,0-2.3-0.3c1.4-1.8,2.3-3.6,0.7-5.4c2.3-1.8,4.6-3.6,8-4.2c-0.2,0.6-0.4,1.2-0.5,1.8
		c0.2,2.7,1.8,5.1,2.1,7.8C42.9,72.1,40.3,72.1,37.4,72.1z"/>
	<path class="st7" d="M43.8,62.2c-3,0.9-5.3,3-8,4.2c-0.5-0.3-0.9-0.3-1.4-0.3v-0.3c2.5-0.3,4.1-2.1,6.4-3c1.4-0.6,2.7-1.2,3.9-2.1
		C44.7,61.3,44.5,61.9,43.8,62.2z"/>
</g>
</svg>
