<?xml version="1.0" encoding="utf-8"?>
<!-- Generator: Adobe Illustrator 23.1.0, SVG Export Plug-In . SVG Version: 6.00 Build 0)  -->
<svg version="1.1" id="Capa_1" xmlns="http://www.w3.org/2000/svg" xmlns:xlink="http://www.w3.org/1999/xlink" x="0px" y="0px"
	 viewBox="0 0 50 50" style="enable-background:new 0 0 50 50;" xml:space="preserve">
<style type="text/css">
	.st0{fill:#E8E8E8;}
	.st1{fill:#95637C;}
	.st2{fill:#FEECE7;}
	.st3{fill:#734C5F;}
	.st4{fill:#4D4D4D;}
	.st5{fill:#3D3D3D;}
	.st6{fill:#666666;}
	.st7{fill:#543042;}
	.st8{fill:#EED0CB;}
	.st9{fill:#474747;}
	.st10{fill:#464645;}
	.st11{fill:#4D4E4D;}
	.st12{fill:#4E4E4E;}
	.st13{fill:#676766;}
	.st14{fill:#505050;}
	.st15{fill:#EFD0CB;}
	.st16{fill:#454545;}
	.st17{fill:#CEA39E;}
	.st18{fill:#FEF3F0;}
	.st19{fill:#4A4949;}
	.st20{fill:#4B4B4A;}
	.st21{fill:#2F2F2F;}
	.st22{fill:#2E2E2E;}
	.st23{fill:#D0A5A0;}
	.st24{fill:#CDA39D;}
	.st25{fill:#7F7F7F;}
	.st26{fill:#FDECE7;}
	.st27{fill:#507365;}
	.st28{fill:#696868;}
	.st29{fill:#CFA49F;}
	.st30{fill:#CCA29C;}
</style>
<g>
	<path class="st0" d="M21.9,50c-2.9-0.5-5.8-0.8-8.8-1.2C8.9,48.2,4.7,47.6,0.5,47C0.4,47,0.3,47,0,46.9c2.4-0.2,4.7-0.4,7-0.6
		c0.3,0.8,1.4,0.9,2.7,1c2.9,0.3,5.7,0.7,8.6,0.9c7.2-0.3,14.3-0.6,21.5-0.9c2.2-0.2,4.3-0.4,6.5-0.6c0.6-0.1,1.1-0.2,1.6,0.1
		c-2.3,0.5-4.9,0.7-7.3,1c-5.3,0.7-10.6,1.4-15.9,2c-0.1,0-0.2,0.1-0.3,0.1C23.6,50,22.7,50,21.9,50z"/>
	<path class="st1" d="M39.8,28.2c0.1,1-0.4,1.9-0.6,2.8c-0.8,3.1-1.8,6.3-2.7,9.4c-0.4,1.3-1,2.6-1,4c-0.1,0.1-0.2,0.1-0.3,0.1
		c-0.2,0-0.3-0.1-0.4-0.2c-3-3.1-6.1-6.3-9.1-9.4c-1.2-1.2-2.5-2.4-3.5-3.7c0-0.7-0.4-1.4-0.1-2.1c1.2-0.4,2.5-0.4,3.8-0.6
		c1.6-0.2,3.3-0.4,4.9-0.6c0.9-0.1,1.8-0.3,2.8-0.3C35.6,27.8,37.7,28,39.8,28.2z"/>
	<path class="st2" d="M8.3,12.5C8.5,11.6,7.5,11,7,10.3C6.9,9.6,6.8,8.9,6.9,8.1C7,7.6,7.4,7.5,8.3,7.8C9.1,8,9.9,8.3,10.4,8.7
		c0.2,0.3,0.2,0.6,0.8,0.8c0.7,0.1,1.3,0.4,1.6,0.7c0.4,0.5,1,0.9,1.4,1.3c0.1,0.1,0.1,0.1,0.2,0.2c0.5,0.4,1,0.5,1.7,0.1
		c0.1-0.1,0.2-0.1,0.2-0.1c1.2-0.7,1.8-1.5,3.2-2.1c0.8-0.1,1.5-0.1,1.5-0.6c0.5-0.5,1.4-0.6,2.2-0.9c0.3-0.1,0.9-0.2,0.6-0.5
		C22.9,7,22,6.9,20.9,7.1c-0.8,0.2-1.6,0.3-2.4,0.4c-0.5,0.1-0.9,0.2-0.9,0.5c-0.3,0.4-0.9,0.7-1.7,0.9c-0.9,0-1.3,0.3-1.2,0.7
		c0.1,0.3,0.1,0.6,0,0.9c-0.1,0.2,0.1,0.5-0.6,0.6c-0.6-0.3-0.4-0.8-0.4-1.1c0.1-0.7-0.1-1.2-1-1.7c-0.1-0.4-0.5-0.5-1.1-0.6
		C10.4,7.4,9.3,7,8,7.5c-0.2,0.1-0.6,0-0.8-0.1C6.7,6.7,7.1,5.9,6.9,5.2c0-0.2,0-0.4,0.2-0.5c2.3-0.3,4.5-0.6,6.6,0.2
		c1.4,0.6,1.5,0.6,2.9,0c1-0.4,2-0.6,3.2-0.6c2.1,0,4.3,0,6.4,0.2c0.1,0,0.2,0.1,0.3,0.1c0.4,0.6-0.1,1.2-0.2,1.8
		c-0.1,0.3-0.2,0.6-0.2,0.9c-0.4,1.9-0.9,3.8-1.4,5.7c-0.3,1.3-1.9,2.3-3.7,3.3c-1.8,0.2-3.5,0.2-5.3,0.2c-0.1,0-0.3,0-0.4,0
		c-1.6,0.2-2.8,0-3.5-0.8c-0.1-0.1-0.2-0.2-0.3-0.2c-0.6-0.5-1.5-1-2-1.5C9,13.5,9,12.9,8.3,12.5z"/>
	<path class="st3" d="M18.1,48.5c-3.5-0.4-7-0.8-10.5-1.2c-1.2-0.1-0.3-0.6-0.6-0.9c0.4-1,0.6-1.9,0.8-2.9c0.1-0.1,0.2-0.1,0.3-0.2
		c1-0.6,2.1-1.2,3.1-1.8c0.4-0.3,0.8-0.5,0.8-0.8c0.3-2.3,0.7-4.6,1.1-6.9c0.1-0.7-0.2-1.5,0.7-2.2c1.6-0.1,2.8,0.3,4.1,0.6
		c0.1,0.1,0.2,0.1,0.2,0.2c0.1,0.1,0.1,0.3,0.1,0.4c-0.2,2.5,0.4,5.1,0.3,7.6c-0.1,2.4,0.4,4.7,0.3,7.1
		C18.5,47.8,18.6,48.2,18.1,48.5z"/>
	<path class="st1" d="M8,43.4c-0.1,0-0.1,0-0.2,0c-0.5-3.3-1.1-6.6-1.6-10c-0.3-1.7-0.6-3.5-0.9-5.2c-0.1-0.3-0.2-0.5,0.1-0.8
		c1.9,0.5,3.9,0.8,5.8,1.3c0.1,0,0.2,0.1,0.3,0.2c0.1,0.1,0.1,0.1,0.1,0.2c0.1,0.7-0.1,1.4,0.3,2.2c-0.8,1.8-1.2,3.7-1.7,5.6
		c-0.6,1.9-1.1,3.8-1.6,5.6C8.4,42.8,8.4,43.2,8,43.4z"/>
	<path class="st1" d="M39.8,28.2c-0.5,0.3-1,0-1.5,0c-1.6-0.1-3.2-0.3-4.8-0.5c-0.9-0.4-1-1-1.5-1.5c-0.3-0.3-0.6-0.6-0.8-1
		c0-0.9,0.5-1.7,0.7-2.5c0.1-0.1,0.1-0.3,0.2-0.4c0.3-1.3,0.8-2.5,1.3-3.8c0.1-0.2,0-0.4,0.6-0.5c1.4,2.5,2.9,4.9,4.3,7.3
		C38.8,26.4,39.3,27.3,39.8,28.2z"/>
	<path class="st4" d="M5.9,2.4c1-0.6,1.7-1.3,3.1-1.7c2.9,0.2,5.7,0.8,8.5,1.2C20,2.2,22.6,2.6,25.1,3c0.4,0.1,1,0.1,1,0.4
		c-2.7,0.2-5.4,0.5-8.2,0.1c-0.6-0.1-1-0.1-1.4,0.1c-1.1,0.5-2.2,0.4-3.3,0.1c-0.5-0.2-1.1-0.3-1.6-0.3C10.1,3.1,8.6,3,7,2.8
		C6.6,2.8,5.9,2.8,5.9,2.4z"/>
	<path class="st1" d="M11.8,3.2c0.4,0,0.7,0.1,0.9,0.2c1.4,0.5,2.8,0.7,4.2,0c0.2-0.1,0.5-0.2,0.8-0.1c0.8,0.5,1.9,0.3,2.9,0.3
		c1.8,0,3.7-0.1,5.5-0.1c0.3-0.1,0.5-0.1,0.8,0c0.2,0.5,0.2,0.9-0.6,1.3c-2.2,0-4.3,0-6.5-0.2c-1.7-0.1-2.7,0.4-3.8,0.9
		c-0.4,0.2-0.8,0.4-1.3,0.1c-2.1-1.2-4.9-0.9-7.6-0.8C6.9,4.8,6.6,4.8,6.3,4.8c0-0.3-0.1-0.6-0.1-0.9c0.5-0.3,1.2-0.3,1.8-0.3
		C9.4,3.6,10.7,3.6,11.8,3.2z"/>
	<path class="st5" d="M31,10.6c1,2.4,2,4.8,3,7.1c0,0.1,0,0.2,0.1,0.3c-1.3,0.1-2.2-0.4-3.4-0.6c-1-0.3-2.1-0.3-2.9-0.8
		c-0.1-0.4,0.5-0.7,0.8-1.1c0.4-0.5,1.1-1,1.4-1.5c-0.5-0.7-1.2-1.2-1.6-1.9C28,11.8,28,11.6,28,11.4c0-0.5,0.4-0.9,1.5-0.9
		C30.1,10.4,30.6,10.4,31,10.6z"/>
	<path class="st6" d="M17.4,2C14.6,1.5,11.7,1.2,9,0.7c4-0.2,8.1-0.6,12.1-0.7c2.3-0.1,4.5,0.4,6.7,0.7c0.5,0.1,1.2,0,1.6,0.2
		c0.1,0.1-0.1,0.2-0.4,0.2c-3.3,0.1-6.5,0.5-9.8,0.8C18.6,1.9,17.9,1.8,17.4,2z"/>
	<path class="st3" d="M35.3,44.4c0.1,0,0.2,0,0.2,0c5,0.7,10,1.4,15.3,2.1c-1.2,0.1-2,0.2-2.9,0.3c-2.3,0.2-4.5,0.4-6.8,0.6
		c-0.4,0-0.8,0.1-1.2,0.1c-0.6,0.1-1,0-1.3-0.2c-1.2-0.8-2.2-1.7-3.3-2.6C35.2,44.6,35.2,44.5,35.3,44.4z"/>
	<path class="st1" d="M11.3,28.9c-1.8-0.4-3.6-0.7-5.3-1.1c-0.3-0.1-0.5-0.2-0.5-0.3c1.1-1.8,2.3-3.6,3.4-5.3
		c0.9,0.2,0.9,0.7,1.2,1.1c-0.1,1.1-0.5,2.3-0.8,3.4c-0.2,0.2-0.3,0.4-0.3,0.7c0,0.1,0.2,0,0.1,0c-0.3-0.1,0.1-0.3,0-0.4
		c0.3-0.4,0.4-0.8,0.7-1.2c0.2-0.2,0.1-0.4,0.7-0.4c0.3,0.1,0.4,0.2,0.4,0.4c0.3,1,0.5,1.9,0.7,2.9C11.5,28.6,11.5,28.8,11.3,28.9z"
		/>
	<path class="st7" d="M30.7,17.2c1.1,0.2,2.2,0.5,3.3,0.7c0,0.1,0,0.1,0.1,0.1c-0.7,1.1-0.8,2.2-1.2,3.3c-0.2,0.3-0.2,0.7-0.3,1
		c-1.2-0.1-2-0.4-2.7-0.9c0.1-1.3,0.3-2.7,0.7-4C30.4,17.5,30.5,17.3,30.7,17.2z"/>
	<path class="st2" d="M31,10.6c-0.5,0-1,0-1.5,0c-0.4,0.1-0.7,0.1-1.1,0c-0.4-0.3-0.3-0.7-0.2-1c0.6-0.5,1.3-1,2-1.4
		c-0.6,0-1.2,0.5-2.1,0.2c-0.2-0.1-0.2-0.3-0.2-0.5c0-0.1,0.1-0.3,0.3-0.3c1.3-0.3,2.5-0.8,4-0.9c0.3-0.1,0.6-0.2,1-0.1
		C32.6,7.9,31.5,9.2,31,10.6z"/>
	<path class="st8" d="M14,11.6c-0.7-0.4-1.2-0.9-1.6-1.3c-0.3-0.4-0.8-0.6-1.5-0.7C11.2,9.3,12.3,9.4,12,9c-0.4-0.4-1.1-0.1-1.7-0.1
		C9.6,8.3,8.4,8.1,7.2,7.6c0,0.8,0,1.4,0,2c0,0.2,0.2,0.5-0.3,0.6c-0.1-0.1-0.1-0.1-0.2-0.2C6.4,8.7,6.6,7.3,6.6,5.9
		c0-0.3-0.2-0.6,0.6-0.8c0,0.6,0,1.1,0.1,1.7c0,0.2-0.1,0.4,0.3,0.6c2-0.3,3.7,0.1,5.3,0.6c1.6,0.6,1.2,1.4,1.3,2.2
		c0,0.3,0,0.5,0,0.8C14.4,11.2,14.4,11.4,14,11.6z"/>
	<path class="st9" d="M7.2,5.2C6.9,6.6,7.1,8,7,9.4c0,0.2,0.2,0.5-0.2,0.7C6.2,9.5,5.6,8.9,4.9,8.3C4.4,7.9,4.4,7.5,4.7,7.1
		c0.6-0.8,1.1-1.5,1.6-2.3c0.3,0,0.6-0.1,0.9-0.1C7.2,4.8,7.2,5,7.2,5.2z"/>
	<path class="st6" d="M32.2,6.7c-1.3,0.3-2.5,0.7-3.8,1c-0.2-0.1-0.3-0.3-0.1-0.4c0.9-1.1,1.4-2.2,2.6-3.2c0.5-0.2,1-0.3,1.6-0.1
		C32.4,4.9,32.3,5.8,32.2,6.7z"/>
	<path class="st1" d="M32.5,4c-0.5,0.1-1,0.1-1.5,0.2c-1.4,0.4-2.9,0.6-4.5,0.5l-0.1,0c0.4-0.4,0.3-0.8,0.5-1.2
		c0-0.1,0.2-0.2,0.4-0.2c1.7-0.1,3.4-0.4,5.2-0.4C32.9,3.2,32.7,3.6,32.5,4z"/>
	<path class="st10" d="M32.5,2.8c-1.7,0.3-3.5,0.4-5.3,0.5c-0.3,0-0.4-0.1-0.3-0.2c0.6-0.7,1-1.5,2.3-2.1c0.1-0.1,0.2-0.1,0.3-0.1
		C30.7,1.4,31.5,2.2,32.5,2.8z"/>
	<path class="st11" d="M8.5,21.6c0.4-0.7,0.8-1.4,1.3-2.1c0.2-0.3,0.7-0.4,1.1-0.6c0.8-0.2,1.4-0.2,1.4,0.3
		c-0.1,0.6-0.3,1.2-0.6,1.8C10.9,21.7,9.8,21.7,8.5,21.6z"/>
	<path class="st6" d="M12.1,19.2c-0.1-0.2,0.1-0.5-0.7-0.3c-0.5,0.2-1.1,0.3-1.6,0.5c-0.4-0.6-0.8-1.2-1.2-1.8
		c-0.3-0.4-0.4-0.8-0.1-1.1c0.4,0.8,1.8,0.5,2.8,0.7c1.1,0.4,0.9,1,1.3,1.5C12.5,18.9,12.7,19.2,12.1,19.2z"/>
	<path class="st12" d="M11.3,17.3c-0.4,0-0.8,0-1.1,0c-1.2,0.1-1.9-0.1-1.7-0.8c0-0.3,0-0.6,0.1-0.9c1-0.3,2.1-0.4,3.3-0.3
		c0.1,0.1,0.2,0.1,0.3,0.1C12.3,16.2,12.2,16.8,11.3,17.3z"/>
	<path class="st13" d="M11.8,3.2c-0.6,0.5-1.4,0.7-2.6,0.6c-1,0-2,0.1-3,0.1C6.1,3.4,5.5,2.9,6,2.4C7.3,2.9,9,2.7,10.5,3
		C10.9,3.1,11.3,3.1,11.8,3.2z"/>
	<path class="st6" d="M11.8,15.4c-1.1,0.1-2.2,0.2-3.3,0.3c-0.4-0.4-0.8-0.8-1-1.3c0.5-0.4,1.3-0.5,2.2-0.5
		C10.5,14.4,11.3,14.9,11.8,15.4z"/>
	<path class="st6" d="M8.5,21.6c1-0.2,2.2,0,3-0.5c0.6,0.4,0.6,0.8,0.9,1.2c0,0.1,0,0.1,0,0.2c-0.1,0.1-0.2,0.1-0.3,0.1
		c-0.8,0.2-1.3,0.6-2.4,0.5c-0.3-0.3-0.6-0.7-0.9-1C8.7,22,8.6,21.8,8.5,21.6z"/>
	<path class="st14" d="M9.8,13.9c-0.8,0.2-1.5,0.3-2.2,0.5c0.2-0.7,0.5-1.3,0.7-2c0.3-0.2,0.5-0.1,0.6,0.1C9.1,13,9.4,13.5,9.8,13.9
		z"/>
	<path class="st3" d="M35.3,44.4c1.1,0.9,2.3,1.8,3.4,2.7c0.3,0.2,0.6,0.4,1.2,0.4c-1.7,0.2-3.6,0.2-5.4,0.3
		c-5.2,0.3-10.4,0.5-15.5,0.7c-0.3,0-0.6,0-0.9,0c-0.2-5.4-0.4-10.9-0.5-16.3c0.8-0.5,1.9-0.6,3.1-0.6c0.6,0.2,0.6,0.5,0.7,0.8
		c1.3,2.7,2.7,5.4,3.9,8.2c0.3,0.6,0.8,1,1.8,1.3c2.1,0.6,4.1,1.2,6.2,1.8c0.7,0.2,1.2,0.4,1.8,0.7C35.1,44.4,35.2,44.4,35.3,44.4z"
		/>
	<path class="st3" d="M11.3,28.9c-0.4-1.2-0.4-2.4-1-3.6c-0.2-0.5,0.2-0.9,0.8-1.3c0.7-0.1,0.9,0.2,1.3,0.4c0.8,0.4,1.2,1,2.5,1.2
		c3.7,0,7.4,0.2,11-0.2c0.6-0.1,0.7,0.2,0.8,0.4c0.1,0.2,0.3,0.5,0.3,0.7c-0.1-0.7,0.4-1.2,1.3-1.7c0.9-0.5,1.8-1.1,2.7-1.6
		c0.3-0.2,0.6-0.4,1.2-0.4c-0.2,0.7-0.4,1.4-0.6,2.1c-0.1,0.2-0.1,0.4-0.1,0.6c0.3,0.9,0.1,1.8-0.6,2.7c-2.9,0.3-5.9,0.7-8.8,1
		c-0.1,0-0.2,0.1-0.3,0c-1.5-0.6-2.8-0.1-4.1,0.2c-0.3,0-0.5,0-0.7,0c-1.4-0.7-3-0.9-4.8-0.4C11.9,29,11.5,29,11.3,28.9L11.3,28.9z"
		/>
	<path class="st7" d="M35.1,44.3c-3.1-0.9-6.1-1.8-9.2-2.7c-0.5-0.2-0.7-0.4-0.8-0.7c-1.4-3-2.9-5.9-4.3-8.9
		c-0.1-0.1-0.2-0.3-0.3-0.4c0.4-0.4,1-0.5,1.8-0.4c2.1,1.8,3.7,3.7,5.6,5.6c2.1,2.1,4.2,4.3,6.2,6.4C34.5,43.6,34.8,44,35.1,44.3z"
		/>
	<path class="st15" d="M22.4,31.3c-0.6,0.1-1.2,0.2-1.8,0.4c-1,0.2-2,0.4-3,0.6l0-0.1c-0.5-0.9-0.8-1.8-0.4-2.7
		c0.7-0.2,1.4-0.2,2.1-0.3c0.9-0.1,1.7-0.1,2.6,0c0.1,0,0.2,0,0.3,0C22.4,29.9,22.6,30.5,22.4,31.3z"/>
	<path class="st15" d="M21.1,16.2c0.5-0.4,1-0.8,1.6-1.2c1.5-0.9,1.7-1.9,1.9-3c0.4-1.6,0.6-3.2,1.3-4.8c1,0.2,1,0.7,1.5,1.1
		c0.3,0.6-0.7,1.1-1,1.7c-0.5,0.7-0.7,1.5-1.1,2.2c-0.2,0.3,0.2,0.5,0.5,0.7c0.5,0.4,1.2,0.7,1.4,1.1c-0.4,0.8-1,1.5-1.7,2.2
		c-1.4,0.8-3,1.5-4.5,2.3c-0.3,0.1-0.5,0.4-1,0.2c-0.2-0.3,0.1-0.5,0.4-0.6c0.8-0.6,1.6-1.2,2.4-1.8C22.2,16.4,21.7,16.4,21.1,16.2z
		"/>
	<path class="st15" d="M19.4,9.5c-1,0.8-1.9,1.5-3.1,2.2c-0.2-0.1-0.3-0.2-0.3-0.4c-0.1-0.7-0.1-1.3-0.3-2c-0.1-0.2,0.1-0.4,0.3-0.5
		c0.3-0.3,1.2-0.5,1.3-0.9c1.4-0.2,2.9-0.4,4.3-0.6c0.8-0.1,1.5-0.1,2.2,0.1c0.7,0.2,0.5,0.3,0,0.5c-0.9,0.3-1.9,0.5-2.8,0.9
		C19.5,8.7,19.5,8.7,19.4,9.5z"/>
	<path class="st16" d="M27.2,8.4c-0.4-0.4-0.9-0.8-1.3-1.1c-0.1-0.9,0.4-1.7,0.5-2.6c1.5-0.2,3-0.3,4.5-0.5C30.2,5.1,29.5,6,28.8,7
		c-0.2,0.2-0.2,0.4-0.3,0.7c-0.1,0.1-0.2,0.2-0.3,0.3C27.9,8.1,28.2,8.6,27.2,8.4z"/>
	<path class="st17" d="M21.1,16.2c0.6,0,1.2,0,1.8,0c-0.7,1-2.2,1.6-2.9,2.5c0,0.3-0.2,0.4-0.7,0.5c-0.5,0.1-0.7-0.2-1-0.3
		c-0.8-0.5-1.4-1.1-2-1.6c-0.3-0.3-1.1-0.5-0.8-1C17.5,16.4,19.3,16.3,21.1,16.2z"/>
	<path class="st18" d="M16.1,8.8c0.1,1,0.4,1.9,0.3,2.9l0,0c-0.7,0.2-1.5,0.2-2.2,0c0-0.1,0-0.1,0-0.2c0-0.2,0-0.3,0-0.5
		c0.5-0.5,0.2-0.9,0.2-1.4C14.4,8.8,14.3,8.8,16.1,8.8z"/>
	<path class="st19" d="M23.9,7.4c-1.8-0.2-3.4,0.3-5.2,0.5c-0.5,0.1-0.9,0.2-1.4,0c-0.3-0.2-0.3-0.3,0.3-0.4C19,7.3,20.4,7,21.8,6.8
		C22.8,6.7,23.4,7.1,23.9,7.4z"/>
	<path class="st1" d="M13,13.6c-0.2-0.1-0.4-0.1-0.8-0.2c2.3-0.4,4.5-0.4,6.6,0c-0.2,0.2-0.5,0.2-0.7,0.2c-0.5,0.1-1,0.1-1.4,0.2
		C15.4,14.1,14.2,13.8,13,13.6z"/>
	<path class="st20" d="M12.8,8.1C12.4,8,12,8,11.6,7.9C10.3,7.6,9,7.4,7.6,7.4C8.2,7.4,8.6,6.9,9.3,7c1.2,0.2,2.4,0.4,3.6,0.6
		C13.4,7.8,12.8,7.9,12.8,8.1z"/>
	<path class="st21" d="M19.4,9.5c-0.4-0.3-0.5-0.6,0.1-0.8c0.6-0.3,1.2-0.1,1.6,0.1C21.2,9.5,20.8,9.7,19.4,9.5z"/>
	<path class="st22" d="M10.3,8.8c0.4-0.2,0.9-0.4,1.5-0.2c0.5,0.1,0.6,0.3,0.5,0.6c-0.2,0.4-0.7,0.4-1.3,0.4
		C10.3,9.4,10.2,9.2,10.3,8.8z"/>
	<path class="st1" d="M13,13.6c1.7,0.2,3.4,0.2,5.1,0c-0.7,0.2-1.5,0.4-2.2,0.5C14.7,14.3,13.9,13.8,13,13.6z"/>
	<path class="st23" d="M14.1,11.7c0.7,0,1.5,0,2.2,0C15.2,12.4,15.2,12.4,14.1,11.7z"/>
	<path class="st7" d="M8,43.4c0.1-1.4,0.7-2.8,1.1-4.2c0.7-2.5,1.5-5,2.2-7.5c0.1-0.2,0-0.4,0.5-0.4c0.6-0.2,1.1,0,1.7,0.1
		c0.2,0.1,0.3,0.1,0.3,0.2c-0.5,0.6-0.3,1.3-0.4,1.9c-0.4,1.9-0.5,3.8-0.9,5.7c-0.1,0.6-0.2,1.1-0.3,1.7c0,0.2-0.1,0.4-0.3,0.5
		C10.6,42,9.5,42.8,8,43.4z"/>
	<path class="st2" d="M13.8,31.5c-0.1,0-0.2-0.1-0.3-0.1c-0.2-0.2-0.3-0.3-0.4-0.5c-0.4-0.9-0.1-1.3,1.8-1.5
		c0.8-0.1,1.6-0.3,2.4-0.1c0,0.9,0.4,1.8,0.3,2.7C16.2,32,15.1,31.7,13.8,31.5z"/>
	<path class="st8" d="M17.3,29.4c-0.2,0-0.4,0-0.5,0c-1.1,0.1-2.4,0.1-3.2,0.5c-0.9,0.4,0.2,1-0.1,1.6c-0.6-0.1-1.2-0.1-1.8-0.2
		c-0.6-0.2-0.5-0.5-0.5-0.8c0-0.5,0-1,0-1.4c2-0.3,3.9-0.1,5.8,0.2c0.2,0,0.5,0,0.7,0c0.5-0.1,1-0.2,1.5,0
		C18.7,29.5,18,29.3,17.3,29.4z"/>
	<path class="st24" d="M17.1,29.3c-1.9,0.1-3.8-0.3-5.8-0.2c0,0,0-0.1,0-0.1c0.4-0.1,0.9-0.1,1.3-0.2C14.5,28.2,15.9,28.5,17.1,29.3
		z"/>
	<path class="st7" d="M32.2,22.7c-1.7,0.8-3.2,1.8-4.6,2.8c-0.5,0.3-0.1,0.7-0.2,1.1c0,0.1,0.2,0.4-0.5,0.3c0.3-0.6-0.3-1.1-0.2-1.7
		c0.1-0.6-0.1-1.2,0.1-1.8c0.8-0.7,1.6-1.3,3.1-1.7c0.9,0.2,1.7,0.5,2.5,0.8C32.4,22.6,32.3,22.6,32.2,22.7z"/>
	<path class="st25" d="M29.2,1c-0.6,0.6-1.3,1.2-1.9,1.8c-0.1,0.1-0.5,0.3-0.2,0.4c-0.1,0-0.2,0.1-0.3,0.1c-0.3,0-0.5,0-0.8,0
		c-2.9-0.6-5.9-0.9-8.8-1.4c0.3-0.5,1.2-0.3,1.7-0.3c3-0.3,6-0.5,9-0.8C28.4,0.9,28.9,0.8,29.2,1z"/>
	<path class="st26" d="M29.9,21.7c-0.9,0.5-1.8,1-2.7,1.5c-0.7-0.5-0.3-1-0.4-1.5c-0.1-0.2,0-0.5,0.1-0.7c0.4-0.8,1.3-1.5,1.7-2.3
		c-0.1-0.7-0.9-1.3-1-1.9c0-0.1,0.1-0.1,0.2-0.2c1,0.2,2,0.4,3,0.6C30.4,18.7,30.2,20.2,29.9,21.7z"/>
	<path class="st6" d="M27.7,16.6C27.8,16.7,27.7,16.7,27.7,16.6c-0.2,0.1-0.4,0.1-0.5,0.1c-0.7-0.2-1.2-0.3-1.4,0.2
		c0,0.1-0.2,0.1-0.4,0.1c-0.5-0.3-0.3-0.5,0-0.8c0.6-0.7,1.1-1.5,1.7-2.2c1-0.4,2.1-0.3,3.1,0C29.6,14.9,28.4,15.7,27.7,16.6z"/>
	<path class="st4" d="M30.2,14c-1,0-2.1,0-3.1,0c-0.6-0.4-1.1-0.8-1.7-1.2c-0.2-0.1-0.6-0.3-0.3-0.5c0.6-0.2,1.3-0.3,2-0.4
		c0.5-0.1,1-0.1,1.3,0.2C29,12.7,29.6,13.3,30.2,14z"/>
	<path class="st16" d="M28.4,12.1c-0.6-0.2-1.1,0-1.6,0.1c-0.6,0.1-1.1,0.3-1.7,0.2c0.4-0.8,0.7-1.6,1.1-2.4
		c1.1-0.1,1.6,0.3,2.2,0.6c0.3,0,0.7,0,1,0C28.3,10.8,28.1,11.1,28.4,12.1z"/>
	<path class="st11" d="M11.3,24c-0.5,0.4-0.6,0.9-1,1.3c-0.4,0.6-0.7,1.1-1.1,1.7c-0.5,0-0.4-0.1-0.3-0.2c0.3-1.2,0.5-2.4,0.8-3.6
		c0.9-0.1,1.4-0.5,2.3-0.6C12.5,23.1,11.8,23.5,11.3,24z"/>
	<path class="st27" d="M9,26.7C9,26.8,9.1,26.9,9.2,27c-0.1,0.1-0.2,0.3-0.4,0.5C8.7,27.2,8.7,26.9,9,26.7z"/>
	<path class="st28" d="M28.4,10.6c-0.8-0.1-1.4-0.5-2.2-0.6c0.2-0.5,1.2-0.9,1-1.5c0.6,0,0.5-0.4,0.9-0.5c0.1,0.2,0.1,0.3,0.1,0.5
		c0.5,0.3,0.6,0.7,0.2,1C28.4,9.8,28.4,10.2,28.4,10.6z"/>
	<path class="st29" d="M28.4,9.4c-0.1-0.3-0.1-0.7-0.2-1c0.7-0.2,1.5-0.3,2.5-0.5C30,8.5,29.4,9,28.4,9.4z"/>
	<path class="st7" d="M12.3,18.7c0.4-0.1,0.8-0.3,1.2-0.4c0.5,0.1,0.4,0.3,0.3,0.4c-0.3,1.1-0.8,2.2-1.2,3.3
		c-0.1,0.1-0.2,0.2-0.4,0.3c-0.4-0.4-0.8-0.8-0.8-1.3c0.2-0.6,0.4-1.2,0.6-1.9C12.4,19.1,12.3,18.9,12.3,18.7z"/>
	<path class="st2" d="M12.3,22.4c0.4-1.1,0.9-2.2,1.2-3.4c0.1-0.2,0.3-0.4,0.1-0.7c0.7-0.2,1.4-0.4,2.1-0.6c0.5,0.6,0.1,1.1-0.2,1.6
		c-0.5,1-0.1,1.6,1.8,2c0.6,0.2,1.2,0.4,1.6,0.7c0.2,0.2,0.1,0.3-0.1,0.5c-0.3,0.3-0.2,0.5,0.1,0.8c0.3,0.3,0.7,0.6,0.1,0.8
		c-1,0.2-2,0.1-3.1,0.1c-1.5-0.5-2.7-1-3.6-1.8C12.3,22.4,12.3,22.4,12.3,22.4z"/>
	<path class="st7" d="M12.3,22.5c1.1,0.5,2.2,1.1,3.3,1.6c0.3,0.6-0.3,1.1-1,1.5c-1.3-0.2-1.6-0.8-2.4-1.2c-0.3-0.1-0.5-0.3-0.9-0.4
		c0.3-0.5,0.5-1,0.8-1.5C12.1,22.5,12.2,22.5,12.3,22.5z"/>
	<path class="st7" d="M14.6,25.6c0.4-0.5,0.7-1,1-1.5c1.2,0,2.3,0,3.5,0c0.6-0.2,1.3-0.1,1.9-0.2c1.4-0.1,2.9-0.1,4.3,0
		c0.9,0.4,1.2,0.9,0.9,1.5c-0.6,0.5-1.7,0.3-2.5,0.3c-2.9,0.1-5.8,0-8.8,0C14.8,25.7,14.7,25.7,14.6,25.6z"/>
	<path class="st4" d="M26.2,25.4c-0.3-0.5-0.5-0.9-0.8-1.4c-0.9-0.8-1.4-1.7-1.3-2.6c0.9-0.4,1.9-0.6,3.1-0.5c0,0.8,0,1.6,0.1,2.3
		c0,1,0,2,0,3.1c0,0.2,0.2,0.4-0.2,0.6C26.9,26.4,26.5,25.9,26.2,25.4z"/>
	<path class="st30" d="M19.4,29.3c-0.5,0-1,0-1.5,0c0.7-0.2,1.4-0.4,2.2-0.5c0.8-0.2,1.3,0.2,1.9,0.4C21.1,29.4,20.2,29.2,19.4,29.3
		z"/>
	<path class="st2" d="M25.4,16.2c0.2,0.3-0.1,0.5,0.3,0.8c0.6,0.3,0.3,0.7,0.4,1.1c-0.1,0.7,0.2,1.5-0.9,2.2
		c-1.5,0.6-3.3,1.1-4.9,1.6c-0.4,0.1-0.8,0.2-1.3,0.1c-3.7-1-3.8-1-3.2-3.1c0.1-0.4,0.1-0.9,0.6-1.3c0.3-0.1,0.3-0.2,0.3-0.4
		c0.9,0.7,1.7,1.3,2.6,2c0.5-0.1,0.6-0.3,0.9-0.5c1.6-0.6,2.8-1.4,4.3-2C24.7,16.5,25.1,16.4,25.4,16.2z"/>
	<path class="st7" d="M16.3,17.6c0.1,0.9-0.4,1.7-0.6,2.5c-0.1,0.3,0.1,0.5,0.6,0.7c1,0.3,1.9,0.7,2.8,1c0.1,0,0.1,0.1,0.1,0.2
		c-0.1,0.1-0.2,0.2-0.4,0.1c-0.7-0.3-1.4-0.6-2.2-0.7c-1.6-0.4-2-0.9-1.6-1.7c0.3-0.6,0.4-1.3,0.6-1.9C15.8,17.7,16,17.6,16.3,17.6z
		"/>
	<path class="st12" d="M25.7,18.1c0-0.4-0.1-0.7-0.1-1.1c0.2-0.2-0.3-0.6,0.4-0.7c0.7-0.1,1.2,0.2,1.7,0.5c0.4,0.7,1.1,1.3,1.2,2
		c-0.7,0.3-1.6,0.5-2.5,0.5C25.1,19.1,26.1,18.4,25.7,18.1z"/>
	<path class="st6" d="M25.7,18.1c0.6,0.3-0.3,0.9,0.6,0.9c0.6,0.1,1.4-0.2,2.1-0.3c0.2,0,0.3,0,0.5,0c-0.5,0.7-1.1,1.4-1.8,2.1
		c-1,0.2-2,0.4-3,0.5c-0.3-0.2-0.1-0.4,0.1-0.6c0.2-0.2,0.4-0.4,0.7-0.5C25.8,19.6,25.7,18.8,25.7,18.1z"/>
	<path class="st7" d="M18.8,22.1c0.1,0,0.2-0.1,0.3-0.1c0.3-0.1,0.6,0,0.8,0.1c0.7,0.4,1.2,0.9,0.4,1.4c-0.4,0.3,0.2,0.4,0.5,0.6
		c-0.6,0.2-1.2,0.1-1.7,0.1c0-0.1,0-0.2-0.1-0.2C18.3,23.3,17.9,22.7,18.8,22.1z"/>
	<path class="st2" d="M20.8,24c-0.4,0-0.7,0-1.3-0.1c0.8-0.6,1.3-1.2,0.4-1.8c1.3-0.6,2.6-1.2,4.5-1.4c-0.1,0.2-0.2,0.4-0.3,0.6
		c0.1,0.9,1,1.7,1.2,2.6C23.9,24,22.4,24,20.8,24z"/>
	<path class="st7" d="M24.4,20.7c-1.7,0.3-3,1-4.5,1.4c-0.3-0.1-0.5-0.1-0.8-0.1c0,0,0-0.1,0-0.1c1.4-0.1,2.3-0.7,3.6-1
		c0.8-0.2,1.5-0.4,2.2-0.7C24.9,20.4,24.8,20.6,24.4,20.7z"/>
</g>
</svg>
