<?xml version="1.0" encoding="utf-8"?>
<!-- Generator: Adobe Illustrator 23.1.0, SVG Export Plug-In . SVG Version: 6.00 Build 0)  -->
<svg version="1.1" id="Capa_1" xmlns="http://www.w3.org/2000/svg" xmlns:xlink="http://www.w3.org/1999/xlink" x="0px" y="0px"
	 viewBox="0 0 50 50" style="enable-background:new 0 0 50 50;" xml:space="preserve">
<style type="text/css">
	.st0{fill:#E8E8E8;}
	.st1{fill:#BBBBBB;}
	.st2{fill:#F5F5F5;}
	.st3{fill:#F6F6F6;}
	.st4{fill:#734D60;}
	.st5{fill:#543042;}
	.st6{fill:#8C8C8C;}
	.st7{fill:#95637C;}
	.st8{fill:#565656;}
	.st9{fill:#7A7A7A;}
	.st10{fill:#9E9E9E;}
	.st11{fill:#C06053;}
	.st12{fill:#FEEDE8;}
	.st13{fill:#A94943;}
	.st14{fill:#EED0CB;}
	.st15{fill:#AA4A44;}
	.st16{fill:#96637C;}
	.st17{fill:#CF6B5A;}
	.st18{fill:#7A5F87;}
	.st19{fill:#5A4265;}
	.st20{fill:#5B4367;}
	.st21{fill:#9D9D9D;}
	.st22{fill:#8F759F;}
	.st23{fill:#785D88;}
	.st24{fill:#9E9D9D;}
	.st25{fill:#BCBCBC;}
	.st26{fill:#484748;}
	.st27{fill:#444444;}
	.st28{fill:#A587B9;}
	.st29{fill:#594165;}
	.st30{fill:#956680;}
	.st31{fill:#FCFCFC;}
	.st32{fill:#DFDFDF;}
	.st33{fill:#CFA6A2;}
	.st34{fill:#EECFCA;}
	.st35{fill:#BBBABB;}
	.st36{fill:#95637B;}
	.st37{fill:#90759F;}
	.st38{fill:#EDCFCA;}
	.st39{fill:#CDA39F;}
	.st40{fill:#FEF4F2;}
	.st41{fill:#EDCEC9;}
	.st42{fill:#CEA4A0;}
	.st43{fill:#908F8F;}
	.st44{fill:#959494;}
	.st45{fill:#302F2F;}
	.st46{fill:#EFD1CC;}
	.st47{fill:#D0A7A3;}
	.st48{fill:#F0D3CF;}
	.st49{fill:#F4DBD6;}
	.st50{fill:#F0EFF1;}
</style>
<g>
	<path class="st0" d="M40.7,47.2c0,0.4,0.5,0.5,0.9,0.5c2.8,0.4,5.5,0.7,8.4,1.1c-1.4,0.3-2.8,0.2-4.1,0.3
		c-3.6,0.2-7.2,0.4-10.7,0.6c-1,0.1-2.1,0.1-3.1,0.1c-0.4,0.2-0.8,0-1.2,0.1c-0.7,0-1.4,0-2.1,0c-0.3-0.2-0.7,0-1-0.1
		c-2.4-0.2-4.7-0.3-7.1-0.5c-1.5-0.1-3-0.2-4.5-0.3c-2.5-0.2-5-0.3-7.5-0.5c-1-0.1-2-0.1-3-0.2c2.5-0.2,5-0.4,7.5-0.5
		c0.7-0.1,1.4-0.2,2.2-0.1c0,0.2,0.2,0.2,0.5,0.2c1.4,0,2.8,0,4.2,0c0.7,0,1.2-0.1,1.8-0.3c0.4-0.1,0.7-0.3,1.2-0.2
		c0.3,0.2,0.4,0.5,1,0.5c0.5,0,0.9-0.1,1-0.5c0.1-0.2,0.1-0.5,0.5-0.6c1.7-0.3,3.5-0.3,5.2-0.5c1.5-0.2,3,0.1,4.4,0.4
		c0.3,0.4-0.2,0.7-0.4,1.1c-0.7,1-0.7,1,0.9,1c1.4,0,2.7,0,4.1,0c0.7-0.2,0.4-0.6,0.6-0.9C40.3,47.7,40.1,47.3,40.7,47.2z"/>
	<path class="st1" d="M33.2,0c2.3,0.6,4.7,1.1,7.1,1.6c0.2,0,0.3,0,0.4,0.1c-0.9,0.4-2,0.3-3,0.4c-2.3,0.3-4.7,0.4-7,0.7
		c-0.9,0.4-1.8,0.9-2.6,1.4c-0.3,0.2-0.5,0.3-0.9,0.4c-0.3,0.1-0.6,0.1-0.7-0.1c-0.3-0.9-0.7-1.8-0.5-2.8c0,0,0.1-0.1,0.1-0.1
		c1.4-0.5,3-0.8,4.5-1.1c0.6-0.2,1.3-0.3,1.8-0.5C32.7,0,32.9,0,33.2,0z"/>
	<path class="st2" d="M30.9,50c0.3-0.2,0.8-0.1,1.2-0.1c0,0,0,0.1,0,0.1C31.7,50,31.3,50,30.9,50z"/>
	<path class="st3" d="M27.8,49.9c0.3,0,0.7-0.1,1,0.1c-0.3,0-0.6,0-1,0C27.8,50,27.8,49.9,27.8,49.9z"/>
	<path class="st4" d="M22.5,35.1c-0.4-3.5-0.6-7-0.8-10.5c-0.7-1-0.5-2.1-0.3-3.2c0.1-0.2,0.4-0.2,0.6-0.2c1.1,0.3,2.4,0.5,3.4,1
		c0.4,0.4,0.4,0.8,0.5,1.3c0.6,2.5,1.1,4.9,1.7,7.4c0.1,0.2-0.1,0.4-0.3,0.6c-1.3,1.1-2.6,2.2-3.9,3.3C23,35,22.9,35.2,22.5,35.1z"
		/>
	<path class="st5" d="M22.5,35.1c1.3-1.1,2.7-2.2,4-3.2c0.3-0.3,0.6-0.5,1-0.8c0.5-0.9,1.6-1.5,2.5-2.2c0.1-0.1,0.3-0.1,0.5,0
		c0.1,0.1,0.1,0.1,0.1,0.2c0,0.5-0.3,0.9-0.5,1.4c-1.2,2.7-2.3,5.4-3.5,8.1c-0.2,0.5-0.4,1-0.7,1.5c-0.1,0.2-0.2,0.4-0.5,0.6
		c-1.2,0-2.3-0.2-3.3-0.8c-1.3-0.3-2.6-0.6-4-0.9C19.5,37.7,21,36.4,22.5,35.1z"/>
	<path class="st5" d="M21.5,21.4c0,1.1,0,2.2,0.2,3.3c-2.7,0.1-5.4,0.3-8.2,0.4c-0.3,0-0.7,0.2-1-0.1c0.2-0.5,0.7-0.9,1.1-1.2
		c0.8-0.8,1.5-1.7,2.4-2.5c0.2-0.2,0.5-0.1,0.7-0.2c0.7-0.2,1.4-0.3,2.1-0.4C19.9,20.6,20.8,20.9,21.5,21.4z"/>
	<path class="st6" d="M26.1,1.7c0.2,0.9,0.4,1.8,0.6,2.7c0.1,0.4,0.4,0.2,0.6,0.1c1.1-0.6,2.1-1.1,3.2-1.7c0.3-0.1,0.6,0,0.9,0.1
		C32.2,3.2,33,3.6,33.8,4c-0.4,0.7-0.7,1.5-1.7,2.1c-0.9,0-1.6-0.2-2.4-0.4C27.9,5.1,26,4.8,24,5.2c-0.2,0-0.5,0-0.8,0
		c-1.4-0.2-2.7-0.4-3.8-1c0-0.2,0.1-0.3,0.3-0.4c2-0.8,3.9-1.7,6.1-2.2C26,1.7,26,1.7,26.1,1.7z"/>
	<path class="st7" d="M16.7,21.2c-0.2,0.1-0.4,0.2-0.6,0.2c-1.5,0.6-3.1,1.1-4.8,1.4c0,0-0.1,0-0.1,0c-0.6,0.1-1.1,0.5-1.6,0.3
		c-0.4-0.2-0.2-0.7-0.2-1.1c-0.2-1.3-0.4-2.6-0.7-3.9c0-0.1,0.1-0.2,0.2-0.2c0.7-0.2,1.3-0.7,2.3-0.5c0.2,0.3,0.5,0.7,0.6,1.1
		c0.2,0.8,0.7,1.5,1.5,2.2c0.2,0.2,0.4,0.4,0.4,0.6c-0.2-1.5-1.6-2.7-2.5-3.9c0.3-0.3,0.7-0.4,1.2-0.2c1.2,1.3,2.4,2.6,3.6,3.9
		C16,21.2,16.4,21.2,16.7,21.2z"/>
	<path class="st6" d="M19.2,18.6c-0.1-1.7-0.9-3.2-1.3-4.9c-0.1-0.2-0.1-0.4-0.2-0.6c-0.1-0.3,0.2-0.4,0.6-0.4
		c1.1,0,2.2-0.1,3.2,0.1c0.3,0.1,0.4,0.3,0.4,0.5c0.3,1.4,0.6,2.7,0.7,4.1c-0.3,0.3-0.8,0.3-1.2,0.4C20.7,18,19.7,18.1,19.2,18.6z"
		/>
	<path class="st1" d="M21.6,12.9c-1,0-2,0-3.1,0c-0.3,0-0.7-0.1-0.8,0.3c-0.2-0.2-0.1-0.3,0-0.5c0.6-1.5,1.2-2.9,1.8-4.4
		C20.5,8,21.5,7.8,22.5,8c0.2,0.4,0,0.9,0,1.3c-0.1,1-0.3,2-0.4,3C22.1,12.5,22,12.8,21.6,12.9z"/>
	<path class="st8" d="M23,47.5C22.9,47.5,22.9,47.5,23,47.5c-2.6,1-5.3,0.5-8,0.6c-0.1-0.3,0.3-0.2,0.4-0.4c1.2-0.5,2.4-1,3.6-1.5
		c0.1,0,0.1-0.1,0.2-0.1c1.4,0.2,2.2-0.5,3.1-0.9c0.3-0.2,0.6-0.3,0.9-0.4c0.7-0.1,1.3-0.2,2,0.1c0.1,0.1,0.1,0.2,0,0.3
		C24.5,46.1,23.9,46.9,23,47.5z"/>
	<path class="st1" d="M25.1,45.1c-0.7-0.2-1.4,0-2.1-0.1c0.2-0.7-0.6-0.9-1.4-1.1c0.1-1,0.2-2,0.4-3c0.2,0.1,0.4,0.2,0.6,0.3
		c1.6,0.3,3.2,0.4,4.7,0.8c0.2,0.2,0.1,0.3,0,0.5c-0.7,0.9-1.2,1.9-2,2.7C25.3,45.2,25.2,45.2,25.1,45.1z"/>
	<path class="st1" d="M21.5,21.4c-0.9-0.3-1.7-0.6-2.7-0.7c0.5-0.4,0-0.9,0.4-1.4c0.5,0.3,0.1,0.8,0.5,1c2.1-0.1,4.2-0.5,6.3-0.6
		c0.5-0.1,1.1-0.2,1.6-0.1c0.1,0.1,0.2,0.1,0.2,0.2c0,1-0.1,2-0.6,2.9c-0.9,0.3-1.5-0.2-2.1-0.5C23.9,22.1,22.7,21.7,21.5,21.4z"/>
	<path class="st9" d="M19.4,20.6c-0.4-0.4,0-0.8-0.2-1.3c0-0.3,0-0.5,0.1-0.8c0.1-0.5,0.6-0.7,1.4-0.8c0.7-0.1,1.3-0.3,2.1-0.4
		c0.8-0.3,1.6-0.2,2.4-0.1c0.5,0,0.9,0.1,1.4,0.1c0.4,0.1,0.8,0.1,1.2,0.2c0.1,0,0.2,0.1,0.2,0.1c0,0.2-0.2,0.3-0.4,0.3
		C24.7,18.9,22.2,19.9,19.4,20.6z"/>
	<path class="st10" d="M22.4,8c-0.9,0.1-1.9,0.3-2.8,0.3c-0.1-1.2-0.2-2.4-0.3-3.7c0-0.2-0.1-0.3,0.1-0.5c0.1-0.1,0.2-0.1,0.2,0
		c1.1,0.5,2.4,0.8,3.7,0.9c-0.4,0.8-0.3,1.6-0.5,2.4C22.7,7.6,22.7,7.9,22.4,8z"/>
	<path class="st11" d="M8.7,21.5c-0.1,0.1-0.1,0.2-0.3,0.3c-1.9,0.7-3.9,1.2-5.8,2c-0.3,0-0.6,0-0.7-0.2c-0.5-0.9-1.3-1.6-1.7-2.5
		c0.1-0.1,0.3-0.1,0.5-0.1c2.3,0,4.6,0.2,6.9,0.3C8.1,21.2,8.5,21.3,8.7,21.5z"/>
	<path class="st12" d="M12.2,17.1c-0.4,0-0.9,0-1.2,0.3l0,0c-0.8,0.1-1.5,0.5-2.3,0.7c-0.6,0.1-0.7-0.3-1-0.5
		c-0.2-0.2-0.4-0.5-0.7-0.7c-0.3-0.2-0.6-0.5-1-0.7c-0.7-0.3-1.4-0.7-1.8-1.2c1-0.3,2.1-0.2,3,0.1c1.6,0.5,3.2,1.2,4.7,1.8
		C12.2,17,12.2,17.1,12.2,17.1z"/>
	<path class="st13" d="M8.7,21.5c-1.2-0.3-2.5-0.1-3.8-0.2c-1.3-0.1-2.7-0.1-4-0.2c-0.1,0-0.3-0.1-0.4-0.1c0.1-0.2,0.3-0.3,0.6-0.3
		c2-0.4,4-0.9,6.1-1.2c0.2,0,0.3,0,0.4,0.1C8,20.2,8.5,20.8,8.7,21.5z"/>
	<path class="st4" d="M11.3,22.8c1.5-0.5,3.1-1,4.8-1.4c-1.1,1.1-2.2,2.3-3.3,3.4c-0.1,0.1-0.2,0.1-0.3,0.2
		C11.9,24.3,11.7,23.5,11.3,22.8z"/>
	<path class="st14" d="M4.4,15c0.6,0.4,1.3,0.8,1.9,1.1c-0.1,0.3-0.4,0.5-0.5,0.9c0.5,0,1-0.3,1.5-0.2C8,17.1,8,17.7,8.8,18
		c-0.1,0-0.1,0.1-0.2,0.1c-1,0-1.9,0-2.9,0c-0.7,0-0.5-0.4-0.6-0.6c0-0.3-0.3-0.3-0.6-0.3c-0.6-0.5-0.2-1.1-0.2-1.6
		C4.4,15.4,4.4,15.2,4.4,15z"/>
	<path class="st1" d="M19.6,4.1c-0.1,0-0.1,0-0.2,0c0.4-0.7,1-1.2,1.5-1.9C21,2,21.2,1.9,21.6,1.9c1.4-0.1,2.9-0.2,4.3-0.3
		C23.8,2.5,21.7,3.3,19.6,4.1z"/>
	<path class="st15" d="M2.6,23.7c-0.1-0.1-0.1-0.2,0.1-0.3c1.8-0.6,3.6-1.2,5.4-1.8c0.1,0,0.2,0,0.3,0.1c-0.6,0.6-1.2,1.3-1.8,1.9
		c-0.2,0.2-0.5,0.2-0.8,0.2C4.8,23.8,3.7,23.8,2.6,23.7z"/>
	<path class="st16" d="M21.6,43.9c0.1,0,0.2,0,0.4,0c1.4,0.2,1.4,0.2,1,1.1c-0.7,0.6-1.6,0.9-2.4,1.4c-0.5,0.3-1.1-0.2-1.6-0.1
		C19.9,45.4,20.8,44.7,21.6,43.9z"/>
	<path class="st17" d="M7.6,19.5c-2.4,0.4-4.7,1-7.1,1.5c-0.1,0-0.2,0-0.3,0c0.7-0.7,1.5-1.3,2.2-2c1.1-0.1,2,0.3,2.9,0.5
		C6.1,19.6,6.9,19.3,7.6,19.5z"/>
	<path class="st18" d="M5.4,19.5c-1.1,0-1.9-0.4-2.9-0.5c-0.1-0.4-0.2-0.7-0.3-1.1c0-0.1-0.1-0.3,0-0.3c0.2-0.1,0.4,0,0.6,0.1
		c0.4,0.5,1,0.8,1.5,1.2c0.4-0.1,0.3-0.4,0.6-0.6c0.1-0.3,0.3-0.6,0.4-0.9c0.3,0.2,0.2,0.5,0.6,0.6C5.5,18.6,5.4,19,5.4,19.5z"/>
	<path class="st19" d="M22.4,41.3c-0.5,0-0.3-0.2-0.4-0.4c0-0.3,0-0.7,0.1-1c1.1,0.3,2.2,0.5,3.2,0.8c0,0,0,0.1,0,0.1
		C24.5,41.2,23.5,41.2,22.4,41.3z"/>
	<path class="st20" d="M4.7,18.4C4.7,18.4,4.7,18.4,4.7,18.4c-0.1,0.3,0,0.7-0.4,0.8c-0.4,0.1-0.6-0.3-0.8-0.5
		c-0.3-0.3-0.9-0.5-0.8-0.9C3.4,17.9,4.1,18.1,4.7,18.4z"/>
	<path class="st12" d="M4.4,15.6c0.1,0.5-0.2,1.1,0.2,1.6C3.8,16.8,4.2,16.2,4.4,15.6z"/>
	<path class="st4" d="M44.9,34.5c0.7,1.5,1.3,3,2.1,4.5c0.2,0.4,0,0.5-0.5,0.5c-1.8,0.2-3.5,0.4-5.3,0.6c-0.2,0.1-0.4,0.3-0.7,0.3
		c-1.6,0.2-3.3,0.4-4.9,0.6c-0.5,0.1-1,0.2-1.5-0.1c-0.1-0.1-0.2-0.3-0.2-0.4c0.1-1.3,0-2.6,0.5-3.9c0.2-0.3,0.6-0.3,1-0.4
		c2.8-0.6,5.7-1.1,8.5-1.7C44.2,34.4,44.6,34.3,44.9,34.5z"/>
	<path class="st21" d="M33.8,4c-0.9-0.1-1.5-0.6-2.2-0.9C31.2,3,31,2.8,30.5,2.8c1.3-0.3,2.7-0.3,4-0.5c1.8-0.2,3.7-0.4,5.5-0.5
		c0.2,0,0.4,0,0.7,0c1.6,1.2,3.2,2.4,4.7,3.6c0.1,0.1,0.1,0.2,0.1,0.2c-0.4,0.1-0.7-0.1-1-0.2c-1.5-0.4-3-0.9-4.6-1.3
		c1.4,1.2,2.8,2.4,4.2,3.6c0.4,0.4,1.2,0.6,0.9,1.2c-0.2,0-0.3,0.1-0.5,0c-2.1-0.5-4.2-0.7-6.2-1.3c-0.9-0.7-1.5-1.4-2.2-2.2
		c0-0.1,0-0.1,0-0.2c0.3-0.7,1.4-0.9,2-1.4c-1.1,0-2.2,0.1-3.3,0.2C34.4,4.2,34.1,4.2,33.8,4z"/>
	<path class="st5" d="M47.8,22.4c0.1,2,0.2,4,0.2,6c0.1,0.4,0.4,0.9-0.2,1.2c-0.5,0.2-1.1-0.2-1.6-0.3c-1-0.3-2-0.7-3-1
		c-0.4-0.1-0.7-0.3-0.9-0.6c-0.3-1-0.8-2-0.6-3.1c1.2-0.7,2.6-1.3,3.9-2c0.4-0.2,0.8-0.4,1.2-0.7C48,21.6,47.6,22.2,47.8,22.4z"/>
	<path class="st21" d="M46.5,11.8c-0.1,1.2-0.6,2.3-1,3.4c-0.4,0.2-0.7,0.1-1.1,0c-1.7-0.3-3.5-0.7-5.2-1.1
		c-0.6-0.1-1.1-0.1-1.6,0.1c-0.3-0.1-0.3-0.3-0.3-0.5c-0.2-0.8-0.3-1.5-0.5-2.3c-0.1-0.3-0.1-0.5,0.1-0.7c0.3-0.2,0.8-0.2,1.2-0.1
		c2.4,0.3,4.9,0.6,7.3,0.9C45.8,11.5,46.2,11.6,46.5,11.8z"/>
	<path class="st21" d="M46.2,17.8c0.5,1.3,0.9,2.7,1.4,4c-0.3,0.1-0.7,0.1-1,0c-3-0.6-5.9-1.3-8.9-1.9c-0.2-0.1-0.5-0.1-0.6-0.3
		c0-0.7,0.6-1.3,1.2-1.8c0.1-0.1,0.3-0.1,0.5-0.2c2.2-0.1,4.4,0,6.6,0C45.7,17.6,46,17.6,46.2,17.8z"/>
	<path class="st9" d="M46.2,17.8c-2.6,0-5.1,0-7.7,0c-0.3-0.1-0.4-0.3-0.4-0.4c-0.1-0.9-0.4-1.8-0.5-2.7c0-0.2,0-0.4,0.2-0.5
		c-0.1-0.5,0.2-0.5,0.9-0.4c2.2,0.5,4.5,1,6.8,1.4C45.7,16,46,16.9,46.2,17.8z"/>
	<path class="st1" d="M46.5,11.8c-2.8-0.4-5.6-0.7-8.4-1.1c-0.3-0.1-0.7-0.1-1-0.1c-0.2-0.1-0.2-0.2-0.1-0.3
		c0.4-0.9,0.8-1.9,1.5-2.8c2.2,0.5,4.4,1,6.7,1.4c0.1,0,0.1,0.1,0.2,0.1C45.7,9.9,46.2,10.8,46.5,11.8z"/>
	<path class="st1" d="M37.2,19.5c3,0.8,6,1.4,9,2c0.5,0.1,0.9,0.2,1.4,0.3c0.3,0.2,0.2,0.4,0.1,0.7c-0.3-0.1,0.1-0.7-0.7-0.4
		c-1.7,0.6-3.6,0.9-5.4,1.4c-0.1,0-0.3,0.1-0.4,0.1c-0.1,0-0.2,0-0.3,0c-1.2-0.3-2.5-0.6-3.7-0.8c-0.6-0.2-1.3-0.2-1.9-0.5
		c-0.2-0.4,0.3-0.7,0.5-1.1c0.1-0.3,0.3-0.5,0.5-0.7C36.7,20.1,36.5,19.6,37.2,19.5z"/>
	<path class="st22" d="M44.9,34.5c-1.3,0.1-2.5,0.5-3.8,0.7c-2.2,0.4-4.4,0.9-6.6,1.3c-0.1,0-0.3,0-0.3-0.1
		c-0.4-0.9-1.1-1.7-1.2-2.7c0.1-0.1,0.2-0.2,0.4-0.2c1.3,0.4,2.6,0.3,4-0.1c1.6-0.5,3.4-0.3,5.1-0.5c0.4,0,0.8,0,1.1-0.1
		c0.2,0,0.4-0.1,0.6-0.1c0.1,0,0.2,0,0.2,0.1c0.2,0.4,0.4,0.9,0.5,1.4C44.9,34.4,44.9,34.5,44.9,34.5z"/>
	<path class="st1" d="M40.7,42.1c-0.3,1.2-0.5,2.4-0.8,3.7c-0.3,0.2-0.6,0.5-1.2,0.3c-0.3-0.9-0.3-0.9-1.7-0.9c-0.4,0-0.7,0-1.1-0.1
		c-0.5-0.8-1.2-1.5-1-2.4c1.2-0.4,2.5-0.4,3.7-0.5C39.3,42.1,40,41.9,40.7,42.1z"/>
	<path class="st8" d="M38.8,46.1c0.4-0.1,0.7-0.2,1.1-0.4c0,0,0,0.1,0,0.1c0.2,0.9,0.1,1.7,0.1,2.6c0,0.2-0.1,0.4-0.3,0.5
		c-2,0-4,0-6.2,0c0.5-0.8,1-1.4,1.5-2.1c0-0.4,0.2-0.7,0.6-0.9c0.6,0.1,0.3,0.5,0.5,0.7c0.1,0.2,0.1,0.4,0.5,0.5
		c0.4,0.1,0.7-0.1,0.9-0.3C38,46.7,38.2,46.3,38.8,46.1z"/>
	<path class="st6" d="M45.3,9c-0.1,0-0.1-0.1-0.2-0.1c-1.9-1.6-3.8-3.3-5.7-4.9c0-0.1,0.1-0.1,0.1-0.1c2,0.6,4,1.2,6,1.8
		C45.5,6.8,45.4,7.9,45.3,9z"/>
	<path class="st4" d="M42.6,27.6c1.5,0.8,3.3,1.2,4.9,1.8c0.3,0.1,0.4,0,0.4-0.2c0-0.3,0-0.6,0-0.9c0.2,0.3,0.1,0.7,0.2,1
		c0.1,0.3-0.3,0.3-0.6,0.4c-0.9,0.2-1.9,0.5-2.8,0.7c-0.3,0.3-0.8,0.4-1.4,0.4c-0.8-0.2-0.6-0.9-1-1.2c0-0.1-0.1-0.1-0.1-0.2
		c-0.1-0.5-0.6-1-0.4-1.6C42.1,27.8,42.3,27.7,42.6,27.6z"/>
	<path class="st23" d="M40.7,42.1c-1.9,0.2-3.8,0.4-5.7,0.6c-0.5-0.2-0.6-0.4-0.5-0.8c0.2-0.2,0.6-0.3,0.9-0.4
		c1.7-0.5,3.4-1,5.1-1.3c0.2,0,0.4-0.1,0.6-0.1C41,40.8,40.8,41.5,40.7,42.1z"/>
	<path class="st24" d="M43.4,30.9c0.5-0.1,0.9-0.2,1.4-0.4c0.1,0.3,0.2,0.7,0.4,1c0.1,0.6,0,1.1-0.8,1.5c-0.1,0-0.1,0-0.2,0
		c-0.5-0.3-0.5-0.8-0.7-1.2c0-0.1-0.1-0.1-0.1-0.2C43.3,31.4,43.1,31.1,43.4,30.9z"/>
	<path class="st25" d="M44.3,33c0.4-0.5,0.7-1,0.8-1.5c0.8,1,0.7,2-0.2,2.9C44.5,34,44.3,33.5,44.3,33z"/>
	<path class="st26" d="M39.7,49c0-0.8,0-1.7,0-2.5c0-0.2-0.1-0.4,0.2-0.6c0.5,0.4,0.9,0.8,0.8,1.4c-0.1,0.5-0.3,1-0.4,1.4
		C40.3,48.9,40.2,49.1,39.7,49z"/>
	<path class="st27" d="M25.3,45.1c0.8,0.6,0.2,1.3,0.2,1.9c-0.2,0.1-0.2,0.2-0.2,0.3c0,0.6-0.4,0.9-1.5,0.8c-0.7,0-1-0.2-0.9-0.6
		c0.5-0.9,1.5-1.6,2.2-2.5C25.2,45.1,25.3,45.1,25.3,45.1z"/>
	<path class="st7" d="M25.1,22.4c0.6,0.2,1.3,0.3,1.9,0.5c0.6,0.3,0.8,0.9,1.1,1.3c0.2,0.4,0.5,0.7,0.8,1.1c0.3,0.6,0.8,1.2,1.1,1.8
		c0.2,0.6,0.7,1,0.6,1.6c-0.1,0.1-0.2,0.2-0.3,0.2c-0.9,0.4-1.4,1.1-2.2,1.6c-0.3,0.2-0.5,0.4-0.7,0.6c-0.7-0.7-0.5-1.5-0.7-2.3
		C26.1,26.7,25.8,24.5,25.1,22.4z"/>
	<path class="st28" d="M31.4,38.8c-0.6,0-1.2-0.1-1.7,0.1c-0.9,0.1-1.9,0.1-2.8,0c-0.3,0-0.8,0-0.7-0.4c1.4-3.2,2.7-6.3,4.1-9.5
		c0.6,0.1,0.3,0.5,0.4,0.7c-0.3,2.6-0.4,5.1-0.6,7.7c-0.1,0.9,0,0.9,1.2,1.2C31.5,38.6,31.5,38.7,31.4,38.8z"/>
	<path class="st29" d="M26.2,38.5c0.1,0.3,0.5,0.2,0.8,0.2c0.9,0.1,1.8-0.2,2.7,0.1c-0.3,0.4-0.7,0.8-1,1.2
		c-1.1,0.4-2.1,0.7-3.4,0.5l0,0C25.6,39.9,25.9,39.2,26.2,38.5z"/>
	<path class="st30" d="M30.5,29.8c-0.1-0.2,0.1-0.5-0.2-0.7c0-0.1,0-0.1,0-0.2c0.1,0,0.1-0.1,0.2-0.1c0.5,0,0.5,0.3,0.6,0.5
		c0.2,0.3,0.4,0.7,0.5,1c0.1,0.2,0.1,0.4,0,0.6c-0.2,0.2-0.4,0.4-0.9,0.4c-0.4-0.2-0.2-0.5-0.2-0.7C30.6,30.3,30.7,30,30.5,29.8z"/>
	<path class="st12" d="M22.4,8c0.1-0.8,0.3-1.7,0.4-2.5c0-0.2,0.2-0.4,0.5-0.5c0.5,0,1,0,1.5-0.1c1.6-0.2,3,0.1,4.4,0.4
		c1,0.3,2,0.4,3.1,0.7c1-0.4,2.1-0.5,3.2-0.7c0.3-0.1,0.6,0,0.8,0.1l0,0.1c0.3,0.8,0,1.5-0.1,2.2c-0.5,3-1,6.1-1.5,9.1
		c0,0.2-0.1,0.4-0.1,0.6c0,0.5-0.5,0.7-1.2,0.7c-1.3,0-2.5,0-3.7-0.2c-0.5-0.1-1.1-0.1-1.6-0.2c-0.2-0.1-0.5,0-0.7,0
		c-0.3-0.1-0.1-0.2-0.1-0.4c0.1-0.2,0.3-0.3-0.1-0.5c-0.5,0.2,0.1,0.5-0.1,0.8c-0.1,0-0.2,0.1-0.2,0c-1.3-0.1-2.7-0.1-4-0.2
		c-0.5-0.8-0.4-1.6-0.6-2.4c-0.2-0.7-0.3-1.4-0.4-2.2c0.3-0.7,0.2-1.3,0.4-2C22.2,9.9,22.3,9,22.4,8z"/>
	<path class="st9" d="M36.3,5.4c-1,0-1.9,0.3-2.9,0.5C33,5.9,32.7,6,32.3,6c0.6-0.6,0.9-1.4,1.5-2c1.6-0.1,3.2-0.2,4.9-0.3
		c-0.4,0.4-0.9,0.7-1.4,1C36.8,4.8,36.4,5,36.3,5.4z"/>
	<path class="st4" d="M11.1,17.4c1.6,1.2,2.5,2.6,2.8,4.2C12.2,20.4,11.4,18.9,11.1,17.4L11.1,17.4z"/>
	<path class="st4" d="M11.3,22.5c-1.2-1.5-1.6-3-1.3-4.5C11.1,19.4,11.3,20.9,11.3,22.5z"/>
	<path class="st23" d="M25.3,40.6c1.1-0.2,2.3-0.3,3.4-0.5c-0.5,0.6-0.9,1.2-1.4,1.9c-1.7-0.1-3.3-0.4-4.9-0.7
		C23.3,40.9,24.4,41,25.3,40.6z"/>
	<path class="st31" d="M28.7,25.3c-0.6-0.8-1.1-1.6-1.7-2.4c0.2-1,0.4-2,0.6-3c0.4-0.2,0.7-0.1,1.1,0.1c1,0.3,2,0.6,3,0.9
		c0.1,0.1,0.2,0.1,0.3,0.2c0,0.6-0.7,1.1-1,1.7c-0.4,0.7-1,1.4-1.5,2.1C29.3,25,29.2,25.3,28.7,25.3z"/>
	<path class="st21" d="M19.4,20.6c2.5-0.8,5-1.7,7.5-2.5c0.3-0.1,0.7-0.3,1-0.4c0.3-0.1,0.5,0,0.5,0.1c-0.1,0.6,0,1.3-0.7,1.9
		C24.9,20,22.1,20.3,19.4,20.6z"/>
	<path class="st32" d="M27.6,19.8c0.2-0.6,0.3-1.2,0.5-1.8c0.1-0.2-0.1-0.2-0.3-0.2l0,0c-0.1,0-0.1-0.1-0.1-0.1c0,0,0,0,0.1,0
		c0.5,0,1.1-0.1,1.6,0.1c-0.3,0.2-0.5,0.3-0.2,0.6c0.7,0.7,1.5,1.3,2.2,1.9c0.2,0.2,0.6,0.4,0.3,0.6c-1-0.1-1.9-0.5-2.9-0.8
		c-0.4-0.1-0.7-0.3-1.2-0.2C27.6,19.8,27.6,19.8,27.6,19.8z"/>
	<path class="st21" d="M27.8,17.6c0,0,0,0.1,0,0.1c-0.4,0-0.8,0.1-1.2-0.1c0.1,0,0.1,0,0.2,0c0.1-0.1,0.2-0.1,0.2,0
		C27.3,17.6,27.5,17.6,27.8,17.6z"/>
	<path class="st33" d="M7.3,16.8c-0.6,0.2-1.2,0.4-2,0.5c0.4-0.5,0.3-0.9,1-1.1C6.6,16.3,6.9,16.5,7.3,16.8z"/>
	<path class="st7" d="M31.4,38.8c0-0.1,0-0.1,0-0.1c-0.3-0.2-0.4-0.5-0.4-0.8c-0.1-1.8-0.3-3.6-0.4-5.3c0-0.2,0-0.5,0.2-0.7
		c0.6-0.2,0.6,0.2,0.7,0.4c0.3,0.5,0.5,1.1,1.4,1.3c0.1,0.1,0.2,0.1,0.2,0.2c0.3,1,0.8,1.9,1.3,2.8c-0.1,1.5-0.5,2.9-0.4,4.4
		c0,0.1,0,0.1-0.1,0.2c-0.6-0.1-1.1,0-1.7,0.1c-0.5,0.1-0.8,0-0.8-0.4C31.6,40,31.5,39.4,31.4,38.8z"/>
	<path class="st29" d="M34.1,41c0-0.1,0-0.1,0.1-0.2c1.9-0.1,3.7-0.4,5.6-0.6c0.2,0,0.5,0,0.7-0.1c-1.5,0.6-3.1,0.9-4.6,1.4
		c-0.4,0.1-0.9,0.3-1.3,0.4C34.4,41.7,34.3,41.4,34.1,41z"/>
	<path class="st34" d="M33.2,17.9c0.7,0,0.9-0.1,1-0.6c0.4-2.7,0.9-5.3,1.3-8C35.8,8,36,6.7,36.2,5.4c0.9,0.6,1.4,1.4,2.2,2.1
		c-0.1,0.8-0.7,1.6-1.1,2.4c-0.1,0.3-0.3,0.5-0.3,0.8c0.2,1.2,0.4,2.4,0.7,3.5c0.3,1.2,0.5,2.4,0.8,3.6c-0.1,0-0.1,0.1-0.2,0.1
		c-1,0.3-2,0.6-3.1,0.7c-0.6-0.2-1.1-0.4-1.8-0.4C33.4,18.1,33.2,18.1,33.2,17.9z"/>
	<path class="st35" d="M42.6,27.6c-0.1,0.2-0.4,0.3-0.6,0.4c-0.1,0-0.2,0.1-0.3,0c-0.6-0.4-0.6-1-0.9-1.5c-0.3-0.5-0.6-1.1-0.7-1.6
		c0.2-0.6,0.3-1.1,1.1-1.5c0.1-0.1,0.2-0.1,0.2-0.2c0.4,0.4,0.6,0.8,0.6,1.3C42,25.6,42.4,26.6,42.6,27.6z"/>
	<path class="st4" d="M42,24.5c-0.3-0.4-0.5-0.8-0.6-1.3c1.8-0.4,3.7-0.8,5.6-1.2C45.5,23,43.8,23.8,42,24.5z"/>
	<path class="st32" d="M35.3,18.5c1-0.2,2-0.6,3.1-0.6c-0.4,0.6-0.9,1.1-1.2,1.6c-0.5,0.2-0.3,0.7-0.8,0.9c-0.7,0.4-1.6,0.4-2.4,0.5
		c-1.7,0.3-1.9,0.1-1.2,1.4c0.3,0.7,0.8,1.3,1,1.9c0,0.3-0.2,0.6-0.4,0.8c-0.2,0.2-0.5,0.3-0.8,0.3c-1.6,0.2-2.2,0.9-2.5,1.8
		c-0.1,0.1-0.3,0.2-0.4,0c-0.3-0.6-0.7-1.2-1-1.8c0.8-0.6,1-1.3,1.5-1.9c0.6-0.8,1.1-1.6,1.6-2.4C31.8,19.4,33.1,18.5,35.3,18.5z"/>
	<path class="st31" d="M30.1,27c-0.1-0.6,0.6-1.4,1.4-1.6c0.6-0.1,1.3-0.3,1.9-0.4c0.4-0.4,1.1-0.4,1.7-0.6c0.5-0.1,1-0.2,1.5-0.3
		c1.1-0.3,2.2-0.5,3.3-0.7c0.4-0.1,0.7-0.1,1.1,0c0.1,0,0.1,0,0.2,0.1c-0.3,0.5-0.6,1-0.9,1.5c-0.2,0.3-0.7,0.3-1.1,0.4
		c-2.7,0.6-5.4,1.1-8.1,1.7C30.8,27.1,30.5,27.2,30.1,27z"/>
	<path class="st31" d="M33.8,24.3c-0.7-0.9-1.1-1.9-1.6-2.9c-0.2-0.4,0.3-0.4,0.7-0.5c1.2-0.2,2.4-0.3,3.6-0.5
		c-0.2,0.7-0.8,1.2-1.1,1.8C35.2,23,34.7,23.7,33.8,24.3z"/>
	<path class="st16" d="M33.8,24.3c0.5-0.7,1.1-1.4,1.6-2.1c0.7,0,1.3,0.1,1.9,0.4c0.2,0.6-0.4,1.2-0.6,1.8c-1.1,0.3-2.2,0.5-3.2,0.7
		C33.3,24.7,33.7,24.5,33.8,24.3z"/>
	<path class="st4" d="M36.7,24.3c-0.2-0.6,0.4-1.2,0.6-1.8c1.3,0.3,2.6,0.4,3.8,0.9C39.6,23.7,38.1,24,36.7,24.3z"/>
	<path class="st36" d="M41.8,28c0.1,0,0.1,0,0.2,0c-0.1,0.6,0.6,1.1,0.4,1.6c-0.3,0.1-0.6,0.1-0.9,0.2c-1.6,0.2-3.2,0.4-4.3,1.1
		c1.8,0,3.4-0.8,5.2-1.2c0.7,0.3,0.3,0.9,1,1.3c0.1,0.3,0.1,0.5,0.2,0.8c-0.6,0.1-1.3,0.1-1.9,0c-1.2-0.1-2.3-0.1-3.5,0.2
		c-0.3,0.1-0.5,0.1-0.7,0.1c1.1,0,2.3,0.1,3.5-0.1c0.8-0.1,1.7-0.2,2.5-0.1c0.3,0.4,0.5,0.8,0.6,1.3c-0.1,0.1-0.2,0.1-0.4,0.1
		c-1.7,0.1-3.4-0.1-5.1-0.3c-0.5,0-1,0-1.5-0.2c-0.8-0.6-0.9-1.4-1.2-2.1c0-0.1,0-0.1,0-0.2c1-0.6,2.2-1,3.3-1.5
		C40.1,28.6,40.9,28.2,41.8,28z"/>
	<path class="st12" d="M36,30.5c0.4,0.7,0.7,1.4,1,2.1c-1.1,0.6-2.2,0.9-3.6,1.1c-0.1,0-0.2,0.1-0.2,0.1c-0.1,0-0.1-0.1-0.2-0.1
		c-0.7-0.9-1.3-1.8-1.4-2.9c0,0,0.1-0.1,0.1-0.1C33.1,30.4,34.6,30.2,36,30.5z"/>
	<path class="st23" d="M33.4,33.7c1.2-0.4,2.4-0.7,3.6-1.1c2.3,0.1,4.5,0.3,6.7,0.5c-0.9,0.3-1.9,0.2-2.9,0.2
		c-1.6,0.1-3.1,0.2-4.6,0.6C35.3,34.3,34.3,34,33.4,33.7z"/>
	<path class="st7" d="M35.8,46c0.2-0.3,0.1-0.7,0.2-1c0.3,0,0.7,0,1.1,0c0.6,0,1.3-0.1,1.7,0.1c0.2,0.1,0,0.7,0,1
		c-0.3,0.3-0.6,0.6-0.9,0.9c-0.3,0.4-0.8,0.4-1.4,0.4c-0.6,0-0.3-0.4-0.5-0.6C35.8,46.5,36,46.2,35.8,46z"/>
	<path class="st4" d="M43.6,31.8c-1.7,0.1-3.3,0.5-5,0.4c-0.4,0-0.9,0-1.3-0.2c1.6-0.6,3.3-0.6,5.1-0.4c0.4,0.1,0.8,0.1,1.2,0.1
		C43.6,31.7,43.6,31.7,43.6,31.8z"/>
	<path class="st37" d="M41.8,28c-1,0.6-2.3,1-3.5,1.5c-0.7,0.3-1.5,0.6-2.3,0.9c-0.2,0.1-0.4,0.1-0.7,0c-1.1-0.1-2.2-0.3-3.3-0.1
		c-0.2,0-0.4,0-0.6-0.1c-0.6-0.4-0.5-1.1-1-1.5c-0.1-0.6-0.5-1.1-0.7-1.7c0.1,0,0.2-0.1,0.4-0.1c3.4-0.7,6.8-1.4,10.2-2.1
		C40.8,25.9,41.3,27,41.8,28z"/>
	<path class="st37" d="M31,31.8c-0.3,0.5-0.2,1-0.1,1.4c0.2,1.5,0.4,3,0.4,4.4c0,0.4,0.3,0.7,0.2,1c-1.5,0-1.6,0-1.5-1
		c0.1-2.3,0.2-4.5,0.4-6.8c0-0.4,0.2-0.7,0.2-1.1c0.5,0.5-0.1,1,0.3,1.5C31.1,31.4,31.3,31.5,31,31.8z"/>
	<path class="st34" d="M31,31.8c-0.1-0.2-0.1-0.3-0.2-0.5c0.2-0.1,0.4-0.3,0.6-0.4c0.1-0.1,0.1-0.1,0.2,0c0.5,0.9,1.1,1.8,1.3,2.8
		c-0.8-0.1-1.2-0.4-1.4-0.9C31.4,32.4,31.2,32.1,31,31.8z"/>
	<path class="st38" d="M31.7,30.9c-0.1,0-0.1,0-0.2,0c0-0.2,0-0.4,0.1-0.6c1.5-0.3,3.1-0.1,4.6,0.1c0,0,0,0.1,0,0.1
		c-1.2-0.1-2.4,0.2-3.7,0.1C32.1,30.6,31.8,30.7,31.7,30.9z"/>
	<path class="st39" d="M35.3,18.5c-2.2,0.2-3.2,1.1-3.5,2.5c-0.1,0-0.1-0.1-0.2-0.1c-0.7-1-1.9-1.7-2.7-2.6
		c-0.1-0.2-0.5-0.3-0.4-0.5c0.2-0.2,0.6-0.1,0.9-0.1c1.3,0.1,2.6,0.1,3.8,0.2C33.9,18.1,34.8,18,35.3,18.5z"/>
	<path class="st40" d="M27,8.3c1.5,0.1,1.5,0.1,1.6,0.9c0.3,0.2,0.3,0.5,0.3,0.8c-0.2,0.9-0.1,1.8-0.6,2.6c0,0.2-0.3,0.3-0.6,0.3
		c-0.4,0.1-0.7,0-1.1,0c-0.2-0.1-0.4-0.1-0.5-0.2c0-0.6,0.1-1.2,0.4-1.8c-0.4-0.4-0.2-0.8-0.1-1.2c0.1-0.4,0.2-0.9,0.3-1.3
		C26.7,8.3,26.8,8.2,27,8.3z"/>
	<path class="st34" d="M28.2,12.6c0.1-1.2,0.4-2.3,0.4-3.5c0.3-0.2,0.1-0.5,0.2-0.8C29.9,8.3,31,8.2,32,8.7
		c-0.3,0.5-0.6,0.9-0.7,1.4c-0.1,0-0.2-0.1-0.2-0.2c-0.1-0.2-0.2-0.4-0.6-0.3c-0.2,0-0.3,0.1-0.4,0.2c0,0.2,0.2,0.3,0.5,0.4
		c0.1,0,0.2,0.1,0.3,0.2c-1.2,0.7-1.7,1.6-2.5,2.4C28.3,12.7,28.3,12.7,28.2,12.6z"/>
	<path class="st41" d="M26.8,8.4c0.1,0.9-0.4,1.7-0.4,2.5c-0.6-0.2-0.5-0.7-1.2-0.9c0.3-0.7,0.3-0.7-0.7-1c0-0.4-0.5-0.6-0.6-0.9
		C25,8.1,25.9,7.9,26.8,8.4z"/>
	<path class="st42" d="M27.1,15c-0.8-0.1-1.7-0.2-2.5-0.4c-0.2,0-0.4-0.1-0.4-0.3c0-0.2,0.3-0.2,0.5-0.2c1.7,0.3,3.5,0.2,5.2,0.2
		c0.3,0,0.5,0,0.5,0.2c0,0.2-0.2,0.3-0.5,0.3c-1,0-1.9,0-2.9,0C27.1,14.9,27.1,14.9,27.1,15z"/>
	<path class="st43" d="M32,8.6c-1.1-0.2-2.2-0.1-3.3-0.3c-0.1-0.5,0.1-0.7,0.9-0.5C30.3,8,31,8,31.7,8C32.2,8.1,32.5,8.3,32,8.6z"/>
	<path class="st44" d="M26.8,8.4c-1-0.1-1.9-0.1-2.9-0.2c-0.1-0.4,0.2-0.5,0.7-0.5c0.5,0,1,0,1.5,0c0.7,0,0.9,0.2,0.8,0.6
		C27,8.3,26.9,8.3,26.8,8.4z"/>
	<path class="st45" d="M30.9,10.3c-0.4,0-0.8,0-1-0.3c-0.1-0.2-0.1-0.4,0.1-0.6c0.2-0.2,0.5-0.2,0.8-0.2c0.6,0.1,0.5,0.4,0.5,0.7
		C31.2,10.1,31,10.2,30.9,10.3z"/>
	<path class="st45" d="M24.6,9c0.4-0.1,0.9-0.1,1.1,0.2c0.2,0.3,0,0.6-0.4,0.8C24.2,9.9,24.1,9.7,24.6,9z"/>
	<path class="st46" d="M28.4,12.9c1.3,0,1.4,0.1,2.1,1.2c-0.8-0.4-1.5-0.8-2.1-1.1C28.3,13,28.3,12.9,28.4,12.9
		C28.4,12.9,28.4,12.9,28.4,12.9z"/>
	<path class="st47" d="M26.5,12.8c0.4,0,0.7,0,1.1,0c0.1,0.1,0.5,0,0.4,0.2c-1.1,0.6-1.1,0.6-1.9-0.1C26.1,12.7,26.3,12.7,26.5,12.8
		z"/>
	<path class="st48" d="M26.5,12.8c-0.2,0-0.3,0-0.4,0.1c-0.8,0.1-1,0.6-1.6,0.8c-0.3-0.9,0.8-0.9,1.6-1.1
		C26.2,12.7,26.4,12.7,26.5,12.8z"/>
	<path class="st46" d="M27.1,17.6c-0.1,0-0.2,0-0.2,0c-0.3-0.4-0.5-0.7,0.1-1C28,16.9,27.5,17.3,27.1,17.6z"/>
	<path class="st49" d="M28,13c-0.1-0.1-0.2-0.2-0.4-0.2c0.2,0,0.5,0,0.6-0.1c0.1,0,0.1,0,0.2,0c0,0.1,0,0.2,0,0.3c0,0,0,0.1,0,0.1
		C28.3,13,28.1,13,28,13z"/>
	<path class="st4" d="M42.4,29.6c-1.7,0.8-3.6,1.4-5.8,1.4C38.3,30,40.3,29.7,42.4,29.6L42.4,29.6z"/>
	<path class="st50" d="M33.8,27.9c0.3-0.1,0.6-0.2,1-0.2c0.1-0.1,0.1-0.1,0.2,0C34.6,27.9,34.2,28,33.8,27.9
		C33.8,28,33.8,27.9,33.8,27.9z"/>
	<path class="st50" d="M34.9,27.8c-0.1,0-0.1,0-0.2,0c0.2-0.2,0.6-0.1,0.8-0.2C35.4,27.8,35.2,27.8,34.9,27.8z"/>
	<path class="st50" d="M33.8,27.9C33.8,27.9,33.8,28,33.8,27.9c-0.2,0.3-0.4,0.2-0.7,0.2C33.3,28,33.6,28,33.8,27.9z"/>
</g>
</svg>
