<svg id="Capa_1" data-name="Capa 1" xmlns="http://www.w3.org/2000/svg" viewBox="0 0 26 40"><defs><style>.cls-1{fill:#e8e8e8;}.cls-2{fill:#bbb;}.cls-3{fill:#f5f5f5;}.cls-4{fill:#f6f6f6;}.cls-5{fill:#734d60;}.cls-6{fill:#543042;}.cls-7{fill:#8c8c8c;}.cls-8{fill:#95637c;}.cls-9{fill:#565656;}.cls-10{fill:#7a7a7a;}.cls-11{fill:#9e9e9e;}.cls-12{fill:#c06053;}.cls-13{fill:#feede8;}.cls-14{fill:#a94943;}.cls-15{fill:#eed0cb;}.cls-16{fill:#aa4a44;}.cls-17{fill:#96637c;}.cls-18{fill:#cf6b5a;}.cls-19{fill:#7a5f87;}.cls-20{fill:#5a4265;}.cls-21{fill:#5b4367;}.cls-22{fill:#9d9d9d;}.cls-23{fill:#8f759f;}.cls-24{fill:#785d88;}.cls-25{fill:#9e9d9d;}.cls-26{fill:#bcbcbc;}.cls-27{fill:#484748;}.cls-28{fill:#444;}.cls-29{fill:#a587b9;}.cls-30{fill:#594165;}.cls-31{fill:#956680;}.cls-32{fill:#fcfcfc;}.cls-33{fill:#dfdfdf;}.cls-34{fill:#cfa6a2;}.cls-35{fill:#eecfca;}.cls-36{fill:#bbbabb;}.cls-37{fill:#95637b;}.cls-38{fill:#90759f;}.cls-39{fill:#edcfca;}.cls-40{fill:#cda39f;}.cls-41{fill:#fef4f2;}.cls-42{fill:#edcec9;}.cls-43{fill:#cea4a0;}.cls-44{fill:#908f8f;}.cls-45{fill:#959494;}.cls-46{fill:#302f2f;}.cls-47{fill:#efd1cc;}.cls-48{fill:#d0a7a3;}.cls-49{fill:#f0d3cf;}.cls-50{fill:#f4dbd6;}.cls-51{fill:#f0eff1;}</style></defs><title>Pensador</title><path class="cls-1" d="M21.32,38.64c0,.32.26.4.47.4,1.46.32,2.87.56,4.38.88a10.1,10.1,0,0,1-2.14.24l-5.58.48a11.06,11.06,0,0,1-1.62.08c-.21.16-.42,0-.63.08H15.11c-.16-.16-.37,0-.53-.08-1.25-.16-2.45-.24-3.7-.4l-2.35-.24c-1.31-.16-2.61-.24-3.92-.4-.52-.08-1-.08-1.57-.16,1.31-.16,2.62-.32,3.92-.4A2.75,2.75,0,0,1,8.11,39c0,.16.1.16.26.16h2.19A1.88,1.88,0,0,0,11.5,39c.21-.08.37-.24.63-.16s.21.4.52.4.47-.08.52-.4c.06-.16.06-.4.26-.48.89-.24,1.83-.24,2.72-.4a4.53,4.53,0,0,1,2.3.32c.15.32-.11.56-.21.88-.37.8-.37.8.47.8h2.14c.36-.16.21-.48.31-.72C21.11,39,21,38.72,21.32,38.64Z" transform="translate(-0.17 -0.88)"/><path class="cls-2" d="M17.4.88c1.2.48,2.46.88,3.71,1.28.1,0,.16,0,.21.08a3.54,3.54,0,0,1-1.57.32c-1.2.24-2.45.32-3.65.56a11.08,11.08,0,0,0-1.36,1.12,1.16,1.16,0,0,1-.47.32c-.16.08-.31.08-.37-.08a6.63,6.63,0,0,1-.26-2.24l.06-.08A12.48,12.48,0,0,1,16,1.28c.32-.16.68-.24.94-.4Z" transform="translate(-0.17 -0.88)"/><path class="cls-3" d="M16.2,40.88c.16-.16.42-.08.63-.08v.08Z" transform="translate(-0.17 -0.88)"/><path class="cls-4" d="M14.58,40.8c.16,0,.37-.08.53.08h-.53Z" transform="translate(-0.17 -0.88)"/><path class="cls-5" d="M11.82,29c-.21-2.8-.32-5.6-.42-8.4A4.71,4.71,0,0,1,11.24,18c0-.16.21-.16.31-.16a7.48,7.48,0,0,1,1.78.8,2.22,2.22,0,0,1,.26,1c.31,2,.58,3.92.89,5.92a.59.59,0,0,1-.16.48l-2,2.64C12.08,28.88,12,29,11.82,29Z" transform="translate(-0.17 -0.88)"/><path class="cls-6" d="M11.82,29c.67-.88,1.41-1.76,2.08-2.56a6,6,0,0,1,.53-.64A6.09,6.09,0,0,1,15.73,24c0-.08.16-.08.26,0a.2.2,0,0,1,0,.16,4.13,4.13,0,0,1-.26,1.12c-.62,2.16-1.2,4.32-1.82,6.48a11,11,0,0,1-.37,1.2,1,1,0,0,1-.26.48,2.39,2.39,0,0,1-1.72-.64c-.68-.24-1.36-.48-2.09-.72C10.25,31,11,30,11.82,29Z" transform="translate(-0.17 -0.88)"/><path class="cls-6" d="M11.29,18a21.2,21.2,0,0,0,.11,2.64c-1.41.08-2.82.24-4.28.32-.16,0-.37.16-.52-.08a2.38,2.38,0,0,1,.57-1c.42-.64.78-1.36,1.25-2,.11-.16.26-.08.37-.16a5.62,5.62,0,0,1,1.09-.32A1.55,1.55,0,0,1,11.29,18Z" transform="translate(-0.17 -0.88)"/><path class="cls-7" d="M13.7,2.24,14,4.4c.05.32.21.16.31.08C14.9,4,15.42,3.6,16,3.12a.5.5,0,0,1,.47.08,12,12,0,0,1,1.26.88,3.92,3.92,0,0,1-.89,1.68,3.3,3.3,0,0,1-1.25-.32,3.89,3.89,0,0,0-3-.4h-.42a4.33,4.33,0,0,1-2-.8.36.36,0,0,1,.15-.32,17.17,17.17,0,0,1,3.19-1.76C13.64,2.24,13.64,2.24,13.7,2.24Z" transform="translate(-0.17 -0.88)"/><path class="cls-8" d="M8.79,17.84a.61.61,0,0,1-.32.16A9.52,9.52,0,0,1,6,19.12h0c-.32.08-.58.4-.84.24S5,18.8,5,18.48c-.11-1-.21-2.08-.37-3.12,0-.08,0-.16.11-.16.36-.16.67-.56,1.2-.4a3.94,3.94,0,0,1,.31.88A4,4,0,0,0,7,17.44a.92.92,0,0,1,.21.48,8.86,8.86,0,0,0-1.3-3.12.41.41,0,0,1,.62-.16l1.88,3.12C8.42,17.84,8.63,17.84,8.79,17.84Z" transform="translate(-0.17 -0.88)"/><path class="cls-7" d="M10.09,15.76a33.5,33.5,0,0,0-.68-3.92c-.05-.16-.05-.32-.1-.48s.1-.32.31-.32a5.75,5.75,0,0,1,1.67.08.41.41,0,0,1,.21.4c.16,1.12.32,2.16.37,3.28-.16.24-.42.24-.63.32C10.88,15.28,10.35,15.36,10.09,15.76Z" transform="translate(-0.17 -0.88)"/><path class="cls-2" d="M11.35,11.2H9.73c-.16,0-.37-.08-.42.24-.1-.16-.05-.24,0-.4.31-1.2.63-2.32.94-3.52a2.19,2.19,0,0,1,1.57-.24,3.62,3.62,0,0,1,0,1c-.06.8-.16,1.6-.21,2.4A.5.5,0,0,1,11.35,11.2Z" transform="translate(-0.17 -0.88)"/><path class="cls-9" d="M12.08,38.88h0c-1.36.8-2.77.4-4.18.48-.05-.24.16-.16.21-.32L10,37.84s0-.08.1-.08c.73.16,1.15-.4,1.62-.72a1.64,1.64,0,0,1,.47-.32,1.22,1.22,0,0,1,1.05.08.21.21,0,0,1,0,.24A7.42,7.42,0,0,1,12.08,38.88Z" transform="translate(-0.17 -0.88)"/><path class="cls-2" d="M13.17,37c-.36-.16-.73,0-1.09-.08.1-.56-.32-.72-.73-.88.05-.8.1-1.6.2-2.4l.32.24a23.75,23.75,0,0,1,2.45.64c.11.16,0,.24,0,.4a21.59,21.59,0,0,1-1,2.16S13.23,37,13.17,37Z" transform="translate(-0.17 -0.88)"/><path class="cls-2" d="M11.29,18a4.52,4.52,0,0,0-1.41-.56c.27-.32,0-.72.21-1.12.26.24.06.64.26.8,1.1-.08,2.2-.4,3.29-.48a1.52,1.52,0,0,1,.84-.08c0,.08.1.08.1.16A6.86,6.86,0,0,1,14.27,19c-.47.24-.78-.16-1.1-.4A8.89,8.89,0,0,1,11.29,18Z" transform="translate(-0.17 -0.88)"/><path class="cls-10" d="M10.2,17.36c-.21-.32,0-.64-.11-1a2.32,2.32,0,0,1,.06-.64c0-.4.31-.56.73-.64s.67-.24,1.09-.32a1.72,1.72,0,0,1,1.26-.08c.26,0,.47.08.73.08s.41.08.62.16c.06,0,.11.08.11.08a.22.22,0,0,1-.21.24A40.93,40.93,0,0,1,10.2,17.36Z" transform="translate(-0.17 -0.88)"/><path class="cls-11" d="M11.76,7.28a9.26,9.26,0,0,1-1.46.24c-.05-1-.1-1.92-.15-3,0-.16-.06-.24,0-.4s.1-.08.1,0a4.29,4.29,0,0,0,1.93.72A12.65,12.65,0,0,0,12,6.8C11.92,7,11.92,7.2,11.76,7.28Z" transform="translate(-0.17 -0.88)"/><path class="cls-12" d="M4.61,18.08c-.05.08-.05.16-.16.24-1,.56-2,1-3,1.6-.16,0-.32,0-.37-.16-.26-.72-.68-1.28-.89-2,.06-.08.16-.08.26-.08,1.21,0,2.41.16,3.61.24A.47.47,0,0,1,4.61,18.08Z" transform="translate(-0.17 -0.88)"/><path class="cls-13" d="M6.44,14.56a.67.67,0,0,0-.63.24h0a8.07,8.07,0,0,0-1.2.56c-.31.08-.36-.24-.52-.4a3.6,3.6,0,0,0-.37-.56,4.43,4.43,0,0,0-.52-.56,2.79,2.79,0,0,1-.94-1A1.8,1.8,0,0,1,3.83,13c.83.4,1.67,1,2.45,1.44C6.44,14.48,6.44,14.56,6.44,14.56Z" transform="translate(-0.17 -0.88)"/><path class="cls-14" d="M4.61,18.08a8.07,8.07,0,0,0-2-.16c-.68-.08-1.41-.08-2.09-.16-.05,0-.16-.08-.21-.08a.31.31,0,0,1,.31-.24c1-.32,2.09-.72,3.19-1,.1,0,.15,0,.21.08A6.72,6.72,0,0,1,4.61,18.08Z" transform="translate(-0.17 -0.88)"/><path class="cls-5" d="M6,19.12A22,22,0,0,1,8.47,18c-.57.88-1.14,1.84-1.72,2.72,0,.08-.1.08-.15.16A11.26,11.26,0,0,1,6,19.12Z" transform="translate(-0.17 -0.88)"/><path class="cls-15" d="M2.37,12.88a8.81,8.81,0,0,0,1,.88,7.15,7.15,0,0,0-.26.72c.26,0,.52-.24.78-.16.37.24.37.72.78,1,0,0,0,.08-.1.08H3c-.36,0-.26-.32-.31-.48s-.15-.24-.31-.24c-.31-.4-.11-.88-.11-1.28A1.32,1.32,0,0,0,2.37,12.88Z" transform="translate(-0.17 -0.88)"/><path class="cls-2" d="M10.3,4.16h-.1c.21-.56.52-1,.78-1.52a.33.33,0,0,1,.37-.24l2.24-.24C12.49,2.88,11.4,3.52,10.3,4.16Z" transform="translate(-0.17 -0.88)"/><path class="cls-16" d="M1.43,19.84c-.06-.08-.06-.16.05-.24L4.3,18.16a.15.15,0,0,1,.15.08c-.31.48-.62,1-.94,1.52a.42.42,0,0,1-.41.16A12,12,0,0,1,1.43,19.84Z" transform="translate(-0.17 -0.88)"/><path class="cls-17" d="M11.35,36h.2c.74.16.74.16.53.88A10.2,10.2,0,0,1,10.82,38c-.26.24-.57-.16-.83-.08C10.46,37.2,10.93,36.64,11.35,36Z" transform="translate(-0.17 -0.88)"/><path class="cls-18" d="M4,16.48c-1.26.32-2.46.8-3.71,1.2H.17c.37-.56.79-1,1.15-1.6a3.21,3.21,0,0,1,1.52.4C3.25,16.56,3.67,16.32,4,16.48Z" transform="translate(-0.17 -0.88)"/><path class="cls-19" d="M2.89,16.48a9.16,9.16,0,0,1-1.52-.4c-.05-.32-.1-.56-.15-.88,0-.08-.05-.24,0-.24s.21,0,.31.08a5.73,5.73,0,0,0,.78,1c.21-.08.16-.32.32-.48s.15-.48.21-.72c.15.16.1.4.31.48A2.69,2.69,0,0,0,2.89,16.48Z" transform="translate(-0.17 -0.88)"/><path class="cls-20" d="M11.76,33.92c-.26,0-.15-.16-.21-.32a3.6,3.6,0,0,1,.06-.8c.57.24,1.15.4,1.67.64v.08A3.06,3.06,0,0,1,11.76,33.92Z" transform="translate(-0.17 -0.88)"/><path class="cls-21" d="M2.52,15.6h0c0,.24,0,.56-.21.64S2,16,1.9,15.84s-.47-.4-.42-.72A2.66,2.66,0,0,1,2.52,15.6Z" transform="translate(-0.17 -0.88)"/><path class="cls-13" d="M2.37,13.36c0,.4-.11.88.1,1.28C2.05,14.32,2.26,13.84,2.37,13.36Z" transform="translate(-0.17 -0.88)"/><path class="cls-5" d="M23.51,28.48c.37,1.2.68,2.4,1.1,3.6.1.32,0,.4-.26.4L21.58,33c-.11.08-.21.24-.37.24l-2.55.48a.72.72,0,0,1-.79-.08.79.79,0,0,1-.1-.32A15.65,15.65,0,0,1,18,30.16c.1-.24.31-.24.52-.32,1.46-.48,3-.88,4.44-1.36C23.15,28.4,23.35,28.32,23.51,28.48Z" transform="translate(-0.17 -0.88)"/><path class="cls-22" d="M17.72,4.08c-.47-.08-.79-.48-1.15-.72-.21-.08-.32-.24-.58-.24a19.22,19.22,0,0,1,2.09-.4C19,2.56,20,2.4,21,2.32h.37c.83,1,1.67,1.92,2.45,2.88a.33.33,0,0,1,.05.16c-.2.08-.36-.08-.52-.16-.78-.32-1.56-.72-2.4-1L23.09,7c.21.32.63.48.47,1-.1,0-.15.08-.26,0-1.09-.4-2.19-.56-3.24-1A11.53,11.53,0,0,1,18.92,5.2V5c.15-.56.73-.72,1-1.12a12.5,12.5,0,0,0-1.72.16C18,4.24,17.87,4.24,17.72,4.08Z" transform="translate(-0.17 -0.88)"/><path class="cls-6" d="M25,18.8c.06,1.6.11,3.2.11,4.8.05.32.21.72-.11,1s-.57-.16-.83-.24c-.52-.24-1-.56-1.57-.8a.85.85,0,0,1-.47-.48,8.12,8.12,0,0,1-.31-2.48c.63-.56,1.36-1,2-1.6a3.92,3.92,0,0,0,.62-.56C25.13,18.16,24.92,18.64,25,18.8Z" transform="translate(-0.17 -0.88)"/><path class="cls-22" d="M24.35,10.32A15.78,15.78,0,0,1,23.82,13c-.2.16-.36.08-.57,0-.89-.24-1.83-.56-2.72-.88a1,1,0,0,0-.83.08c-.16-.08-.16-.24-.16-.4-.1-.64-.15-1.2-.26-1.84a.7.7,0,0,1,0-.56A.6.6,0,0,1,20,9.36l3.81.72A.82.82,0,0,1,24.35,10.32Z" transform="translate(-0.17 -0.88)"/><path class="cls-22" d="M24.19,15.12c.26,1,.47,2.16.73,3.2a.59.59,0,0,1-.52,0c-1.57-.48-3.08-1-4.65-1.52-.1-.08-.26-.08-.31-.24a2.42,2.42,0,0,1,.62-1.44c.06-.08.16-.08.27-.16,1.14-.08,2.29,0,3.44,0C23.93,15,24.09,15,24.19,15.12Z" transform="translate(-0.17 -0.88)"/><path class="cls-10" d="M24.19,15.12h-4A.38.38,0,0,1,20,14.8c-.05-.72-.21-1.44-.26-2.16,0-.16,0-.32.1-.4-.05-.4.11-.4.47-.32,1.15.4,2.35.8,3.55,1.12C23.93,13.68,24.09,14.4,24.19,15.12Z" transform="translate(-0.17 -0.88)"/><path class="cls-2" d="M24.35,10.32C22.88,10,21.42,9.76,20,9.44a1.18,1.18,0,0,0-.52-.08c-.11-.08-.11-.16-.05-.24a12.44,12.44,0,0,1,.78-2.24c1.15.4,2.3.8,3.5,1.12,0,0,0,.08.1.08C23.93,8.8,24.19,9.52,24.35,10.32Z" transform="translate(-0.17 -0.88)"/><path class="cls-2" d="M19.49,16.48c1.57.64,3.13,1.12,4.7,1.6l.73.24c.16.16.1.32,0,.56-.15-.08.05-.56-.36-.32-.89.48-1.88.72-2.82,1.12-.05,0-.16.08-.21.08h-.16a17.44,17.44,0,0,0-1.93-.64,5.14,5.14,0,0,1-1-.4c-.11-.32.16-.56.26-.88a1.62,1.62,0,0,1,.26-.56C19.23,17,19.13,16.56,19.49,16.48Z" transform="translate(-0.17 -0.88)"/><path class="cls-23" d="M23.51,28.48a18.35,18.35,0,0,0-2,.56c-1.15.32-2.3.72-3.45,1,0,0-.16,0-.16-.08a10.16,10.16,0,0,1-.62-2.16c.05-.08.1-.16.21-.16a2.41,2.41,0,0,0,2.09-.08,9.84,9.84,0,0,1,2.66-.4,1.27,1.27,0,0,0,.57-.08c.11,0,.21-.08.32-.08s.1,0,.1.08a6.6,6.6,0,0,1,.26,1.12Z" transform="translate(-0.17 -0.88)"/><path class="cls-2" d="M21.32,34.56c-.16,1-.26,1.92-.42,3-.16.16-.31.4-.63.24-.15-.72-.15-.72-.88-.72a1.46,1.46,0,0,1-.58-.08A3.65,3.65,0,0,1,18.29,35a5.6,5.6,0,0,1,1.93-.4A1.74,1.74,0,0,1,21.32,34.56Z" transform="translate(-0.17 -0.88)"/><path class="cls-9" d="M20.33,37.76a2.2,2.2,0,0,0,.57-.32v.08A14.45,14.45,0,0,1,21,39.6a.52.52,0,0,1-.15.4H17.56c.26-.64.52-1.12.78-1.68a.85.85,0,0,1,.32-.72c.31.08.15.4.26.56s0,.32.26.4.36-.08.47-.24C19.91,38.24,20,37.92,20.33,37.76Z" transform="translate(-0.17 -0.88)"/><path class="cls-7" d="M23.72,8.08s0-.08-.1-.08c-1-1.28-2-2.64-3-3.92,0-.08.05-.08.05-.08l3.13,1.44C23.82,6.32,23.77,7.2,23.72,8.08Z" transform="translate(-0.17 -0.88)"/><path class="cls-5" d="M22.31,23a17.06,17.06,0,0,0,2.56,1.44c.15.08.21,0,.21-.16v-.72a4.38,4.38,0,0,1,.1.8c.05.24-.16.24-.31.32-.47.16-1,.4-1.46.56a.81.81,0,0,1-.73.32c-.42-.16-.32-.72-.53-1,0-.08,0-.08,0-.16-.05-.4-.31-.8-.21-1.28A.91.91,0,0,0,22.31,23Z" transform="translate(-0.17 -0.88)"/><path class="cls-24" d="M21.32,34.56l-3,.48a.52.52,0,0,1-.26-.64,1.16,1.16,0,0,1,.47-.32,18.73,18.73,0,0,1,2.66-1c.11,0,.21-.08.32-.08C21.47,33.52,21.37,34.08,21.32,34.56Z" transform="translate(-0.17 -0.88)"/><path class="cls-25" d="M22.73,25.6a2.9,2.9,0,0,0,.73-.32,3.94,3.94,0,0,0,.21.8,1.18,1.18,0,0,1-.42,1.2h-.1c-.27-.24-.27-.64-.37-1,0-.08-.05-.08-.05-.16S22.57,25.76,22.73,25.6Z" transform="translate(-0.17 -0.88)"/><path class="cls-26" d="M23.2,27.28a3.83,3.83,0,0,0,.42-1.2,2.2,2.2,0,0,1-.11,2.32A2.05,2.05,0,0,1,23.2,27.28Z" transform="translate(-0.17 -0.88)"/><path class="cls-27" d="M20.8,40.08v-2c0-.16-.06-.32.1-.48a1.44,1.44,0,0,1,.42,1.12c-.05.4-.16.8-.21,1.12C21.11,40,21.06,40.16,20.8,40.08Z" transform="translate(-0.17 -0.88)"/><path class="cls-28" d="M13.28,37c.42.48.1,1,.1,1.52a.26.26,0,0,0-.1.24c0,.48-.21.72-.79.64-.36,0-.52-.16-.47-.48a22.75,22.75,0,0,1,1.15-2C13.23,37,13.28,37,13.28,37Z" transform="translate(-0.17 -0.88)"/><path class="cls-8" d="M13.17,18.8c.32.16.68.24,1,.4s.41.72.57,1a5.86,5.86,0,0,0,.42.88c.15.48.42,1,.57,1.44s.37.8.31,1.28c0,.08-.1.16-.15.16-.47.32-.73.88-1.15,1.28a3.09,3.09,0,0,0-.37.48A4.38,4.38,0,0,1,14,23.92C13.7,22.24,13.54,20.48,13.17,18.8Z" transform="translate(-0.17 -0.88)"/><path class="cls-29" d="M16.46,31.92a1.62,1.62,0,0,0-.88.08,4.53,4.53,0,0,1-1.47,0c-.15,0-.41,0-.36-.32.73-2.56,1.41-5,2.14-7.6.31.08.15.4.21.56-.16,2.08-.21,4.08-.32,6.16,0,.72,0,.72.63,1C16.51,31.76,16.51,31.84,16.46,31.92Z" transform="translate(-0.17 -0.88)"/><path class="cls-30" d="M13.75,31.68c.05.24.26.16.42.16.47.08.94-.16,1.41.08-.16.32-.37.64-.53,1a2.32,2.32,0,0,1-1.77.4h0C13.43,32.8,13.59,32.24,13.75,31.68Z" transform="translate(-0.17 -0.88)"/><path class="cls-31" d="M16,24.72c-.05-.16,0-.4-.1-.56V24s0-.08.1-.08c.26,0,.26.24.32.4a6.21,6.21,0,0,1,.26.8.79.79,0,0,1,0,.48c-.11.16-.21.32-.47.32-.21-.16-.11-.4-.11-.56S16.1,24.88,16,24.72Z" transform="translate(-0.17 -0.88)"/><path class="cls-13" d="M11.76,7.28c.06-.64.16-1.36.21-2a.48.48,0,0,1,.26-.4A2.66,2.66,0,0,0,13,4.8a4.42,4.42,0,0,1,2.29.32c.53.24,1,.32,1.62.56a6.2,6.2,0,0,1,1.67-.56A.39.39,0,0,1,19,5.2v.08A4.91,4.91,0,0,1,19,7c-.26,2.4-.52,4.88-.78,7.28,0,.16-.06.32-.06.48,0,.4-.26.56-.62.56a7.63,7.63,0,0,1-1.93-.16c-.27-.08-.58-.08-.84-.16-.1-.08-.26,0-.37,0s0-.16,0-.32.16-.24-.05-.4c-.26.16.05.4,0,.64-.05,0-.11.08-.11,0-.68-.08-1.41-.08-2.09-.16a8.54,8.54,0,0,1-.31-1.92,17.71,17.71,0,0,1-.21-1.76,14.6,14.6,0,0,0,.21-1.6A17,17,0,0,1,11.76,7.28Z" transform="translate(-0.17 -0.88)"/><path class="cls-10" d="M19,5.2a5.29,5.29,0,0,0-1.51.4c-.21,0-.37.08-.58.08.32-.48.47-1.12.79-1.6l2.55-.24a4.32,4.32,0,0,1-.73.8A.67.67,0,0,0,19,5.2Z" transform="translate(-0.17 -0.88)"/><path class="cls-5" d="M5.86,14.8a6.11,6.11,0,0,1,1.47,3.36A6,6,0,0,1,5.86,14.8Z" transform="translate(-0.17 -0.88)"/><path class="cls-5" d="M6,18.88a5.9,5.9,0,0,1-.68-3.6A7.7,7.7,0,0,1,6,18.88Z" transform="translate(-0.17 -0.88)"/><path class="cls-24" d="M13.28,33.36c.57-.16,1.2-.24,1.77-.4-.26.48-.47,1-.73,1.52a13.74,13.74,0,0,1-2.56-.56C12.23,33.6,12.81,33.68,13.28,33.36Z" transform="translate(-0.17 -0.88)"/><path class="cls-32" d="M15.05,21.12c-.31-.64-.57-1.28-.88-1.92l.31-2.4c.21-.16.36-.08.57.08l1.57.72c.05.08.1.08.16.16,0,.48-.37.88-.53,1.36s-.52,1.12-.78,1.68C15.37,20.88,15.31,21.12,15.05,21.12Z" transform="translate(-0.17 -0.88)"/><path class="cls-22" d="M10.2,17.36c1.3-.64,2.61-1.36,3.91-2,.16-.08.37-.24.53-.32s.26,0,.26.08a2.76,2.76,0,0,1-.37,1.52Z" transform="translate(-0.17 -0.88)"/><path class="cls-33" d="M14.48,16.72c.1-.48.16-1,.26-1.44,0-.16-.05-.16-.16-.16h0c-.05,0-.05-.08-.05-.08h.05a1.52,1.52,0,0,1,.84.08c-.16.16-.26.24-.11.48.37.56.79,1,1.15,1.52.11.16.32.32.16.48A6.11,6.11,0,0,1,15.11,17c-.21-.08-.37-.24-.63-.16Z" transform="translate(-0.17 -0.88)"/><path class="cls-22" d="M14.58,15V15c-.21,0-.41.08-.62-.08h.1c0-.08.11-.08.11,0Z" transform="translate(-0.17 -0.88)"/><path class="cls-34" d="M3.88,14.32a3.76,3.76,0,0,1-1,.4c.2-.4.15-.72.52-.88A2.13,2.13,0,0,1,3.88,14.32Z" transform="translate(-0.17 -0.88)"/><path class="cls-8" d="M16.46,31.92v-.08a.93.93,0,0,1-.21-.64C16.2,29.76,16.1,28.32,16,27a1,1,0,0,1,.11-.56c.31-.16.31.16.36.32.16.4.27.88.74,1,.05.08.1.08.1.16A15.38,15.38,0,0,0,18,30.16c-.05,1.2-.26,2.32-.21,3.52a.2.2,0,0,1-.05.16,1.69,1.69,0,0,0-.89.08c-.26.08-.42,0-.42-.32A5.84,5.84,0,0,0,16.46,31.92Z" transform="translate(-0.17 -0.88)"/><path class="cls-30" d="M17.87,33.68a.2.2,0,0,1,.05-.16c1-.08,1.94-.32,2.93-.48a.59.59,0,0,0,.36-.08c-.78.48-1.61.72-2.4,1.12-.21.08-.47.24-.68.32A4.26,4.26,0,0,1,17.87,33.68Z" transform="translate(-0.17 -0.88)"/><path class="cls-35" d="M17.4,15.2c.37,0,.47-.08.52-.48.21-2.16.47-4.24.68-6.4.16-1,.26-2.08.37-3.12a16,16,0,0,1,1.15,1.68,9.36,9.36,0,0,1-.58,1.92,3,3,0,0,0-.15.64c.1,1,.21,1.92.36,2.8s.26,1.92.42,2.88c-.05,0-.05.08-.11.08a5.81,5.81,0,0,1-1.61.56,2,2,0,0,0-.94-.32C17.51,15.36,17.4,15.36,17.4,15.2Z" transform="translate(-0.17 -0.88)"/><path class="cls-36" d="M22.31,23c0,.16-.21.24-.31.32s-.11.08-.16,0c-.31-.32-.31-.8-.47-1.2A6.18,6.18,0,0,1,21,20.8a1.76,1.76,0,0,1,.58-1.2c.05-.08.1-.08.1-.16a1.8,1.8,0,0,1,.32,1A19.09,19.09,0,0,0,22.31,23Z" transform="translate(-0.17 -0.88)"/><path class="cls-5" d="M22,20.48a3.33,3.33,0,0,1-.32-1c.94-.32,1.94-.64,2.93-1A12.84,12.84,0,0,1,22,20.48Z" transform="translate(-0.17 -0.88)"/><path class="cls-33" d="M18.5,15.68a5.61,5.61,0,0,1,1.62-.48c-.21.48-.47.88-.63,1.28-.26.16-.16.56-.42.72a2.37,2.37,0,0,1-1.25.4c-.89.24-1,.08-.63,1.12.16.56.42,1,.53,1.52a1.28,1.28,0,0,1-.21.64.51.51,0,0,1-.42.24,1.6,1.6,0,0,0-1.31,1.44c0,.08-.15.16-.2,0-.16-.48-.37-1-.53-1.44a6.91,6.91,0,0,0,.79-1.52c.31-.64.57-1.28.83-1.92A1.75,1.75,0,0,1,18.5,15.68Z" transform="translate(-0.17 -0.88)"/><path class="cls-32" d="M15.78,22.48a1.4,1.4,0,0,1,.73-1.28c.32-.08.68-.24,1-.32.21-.32.57-.32.88-.48l.79-.24a14.35,14.35,0,0,1,1.72-.56.71.71,0,0,1,.57,0c.06,0,.06,0,.11.08l-.47,1.2c-.11.24-.37.24-.58.32-1.4.48-2.81.88-4.22,1.36C16.15,22.56,16,22.64,15.78,22.48Z" transform="translate(-0.17 -0.88)"/><path class="cls-32" d="M17.72,20.32A15.55,15.55,0,0,1,16.88,18c-.1-.32.16-.32.37-.4.62-.16,1.25-.24,1.88-.4a10.54,10.54,0,0,1-.58,1.44A3,3,0,0,1,17.72,20.32Z" transform="translate(-0.17 -0.88)"/><path class="cls-17" d="M17.72,20.32c.26-.56.57-1.12.83-1.68a1.51,1.51,0,0,1,1,.32c.11.48-.21,1-.31,1.44a17.24,17.24,0,0,1-1.67.56C17.45,20.64,17.66,20.48,17.72,20.32Z" transform="translate(-0.17 -0.88)"/><path class="cls-5" d="M19.23,20.32c-.1-.48.21-1,.31-1.44a9,9,0,0,1,2,.72C20.74,19.84,20,20.08,19.23,20.32Z" transform="translate(-0.17 -0.88)"/><path class="cls-37" d="M21.89,23.28H22c-.06.48.31.88.21,1.28-.16.08-.32.08-.47.16a4.22,4.22,0,0,0-2.25.88,9.24,9.24,0,0,0,2.72-1c.36.24.15.72.52,1,.05.24.05.4.1.64a2.07,2.07,0,0,1-1,0,3.59,3.59,0,0,0-1.83.16.67.67,0,0,1-.36.08,7,7,0,0,0,1.82-.08,3.63,3.63,0,0,1,1.31-.08,3.08,3.08,0,0,1,.31,1c-.05.08-.1.08-.21.08a10,10,0,0,1-2.66-.24,1.38,1.38,0,0,1-.78-.16,4,4,0,0,1-.63-1.68v-.16a15.58,15.58,0,0,1,1.72-1.2A6,6,0,0,1,21.89,23.28Z" transform="translate(-0.17 -0.88)"/><path class="cls-13" d="M18.86,25.28c.21.56.37,1.12.53,1.68a4.13,4.13,0,0,1-1.88.88c-.06,0-.11.08-.11.08s0-.08-.1-.08a5.65,5.65,0,0,1-.73-2.32l.05-.08A3.6,3.6,0,0,1,18.86,25.28Z" transform="translate(-0.17 -0.88)"/><path class="cls-24" d="M17.51,27.84c.62-.32,1.25-.56,1.88-.88,1.2.08,2.35.24,3.49.4a3.2,3.2,0,0,1-1.51.16A8.13,8.13,0,0,0,19,28C18.5,28.32,18,28.08,17.51,27.84Z" transform="translate(-0.17 -0.88)"/><path class="cls-8" d="M18.76,37.68a4.38,4.38,0,0,0,.1-.8h.58c.31,0,.68-.08.89.08s0,.56,0,.8l-.47.72c-.16.32-.42.32-.73.32s-.16-.32-.27-.48S18.86,37.84,18.76,37.68Z" transform="translate(-0.17 -0.88)"/><path class="cls-5" d="M22.83,26.32a14.54,14.54,0,0,1-2.61.32,1.07,1.07,0,0,1-.68-.16,3.84,3.84,0,0,1,2.67-.32,1.63,1.63,0,0,0,.62.08Z" transform="translate(-0.17 -0.88)"/><path class="cls-38" d="M21.89,23.28a12.57,12.57,0,0,1-1.83,1.2c-.36.24-.78.48-1.2.72-.1.08-.2.08-.36,0a4.17,4.17,0,0,0-1.72-.08.48.48,0,0,1-.32-.08c-.31-.32-.26-.88-.52-1.2a13.66,13.66,0,0,0-.36-1.36c.05,0,.1-.08.2-.08l5.33-1.68C21.37,21.6,21.63,22.48,21.89,23.28Z" transform="translate(-0.17 -0.88)"/><path class="cls-38" d="M16.25,26.32a2.16,2.16,0,0,0-.05,1.12c.11,1.2.21,2.4.21,3.52,0,.32.16.56.1.8-.78,0-.83,0-.78-.8,0-1.84.11-3.6.21-5.44,0-.32.1-.56.1-.88.27.4,0,.8.16,1.2C16.31,26,16.41,26.08,16.25,26.32Z" transform="translate(-0.17 -0.88)"/><path class="cls-35" d="M16.25,26.32c-.05-.16-.05-.24-.1-.4.1-.08.21-.24.31-.32s.05-.08.11,0a11,11,0,0,1,.68,2.24.88.88,0,0,1-.74-.72A2.89,2.89,0,0,0,16.25,26.32Z" transform="translate(-0.17 -0.88)"/><path class="cls-39" d="M16.62,25.6h-.11a1.32,1.32,0,0,1,.06-.48,4.88,4.88,0,0,1,2.4.08v.08c-.63-.08-1.25.16-1.93.08A.4.4,0,0,0,16.62,25.6Z" transform="translate(-0.17 -0.88)"/><path class="cls-40" d="M18.5,15.68a2,2,0,0,0-1.83,2c-.05,0-.05-.08-.1-.08a24.41,24.41,0,0,0-1.41-2.08c-.05-.16-.26-.24-.21-.4s.31-.08.47-.08c.68.08,1.36.08,2,.16C17.77,15.36,18.24,15.28,18.5,15.68Z" transform="translate(-0.17 -0.88)"/><path class="cls-41" d="M14.17,7.52c.78.08.78.08.83.72a.86.86,0,0,1,.16.64A8.7,8.7,0,0,1,14.84,11c0,.16-.15.24-.31.24s-.36,0-.57,0-.21-.08-.26-.16a4.77,4.77,0,0,1,.2-1.44,1.28,1.28,0,0,1-.05-1l.16-1C14,7.52,14.06,7.44,14.17,7.52Z" transform="translate(-0.17 -0.88)"/><path class="cls-35" d="M14.79,11c.05-1,.21-1.84.21-2.8.16-.16.05-.4.11-.64a2.48,2.48,0,0,1,1.67.32A4.46,4.46,0,0,0,16.41,9c-.05,0-.1-.08-.1-.16s-.11-.32-.32-.24-.15.08-.21.16S15.89,9,16,9s.11.08.16.16a8.23,8.23,0,0,0-1.3,1.92Z" transform="translate(-0.17 -0.88)"/><path class="cls-42" d="M14.06,7.6c0,.72-.21,1.36-.21,2-.31-.16-.26-.56-.62-.72.15-.56.15-.56-.37-.8,0-.32-.26-.48-.31-.72C13.12,7.36,13.59,7.2,14.06,7.6Z" transform="translate(-0.17 -0.88)"/><path class="cls-43" d="M14.22,12.88a7.81,7.81,0,0,1-1.31-.32.22.22,0,0,1-.21-.24c0-.16.16-.16.26-.16a10.37,10.37,0,0,0,2.72.16c.16,0,.26,0,.26.16s-.1.24-.26.24H14.17A.2.2,0,0,1,14.22,12.88Z" transform="translate(-0.17 -0.88)"/><path class="cls-44" d="M16.78,7.76c-.58-.16-1.15-.08-1.73-.24-.05-.4.06-.56.47-.4a2.63,2.63,0,0,0,1.1.16C16.88,7.36,17,7.52,16.78,7.76Z" transform="translate(-0.17 -0.88)"/><path class="cls-45" d="M14.06,7.6c-.52-.08-1-.08-1.51-.16-.06-.32.1-.4.36-.4h.79c.36,0,.47.16.41.48C14.17,7.52,14.11,7.52,14.06,7.6Z" transform="translate(-0.17 -0.88)"/><path class="cls-46" d="M16.2,9.12c-.21,0-.42,0-.52-.24a.55.55,0,0,1,.05-.48.43.43,0,0,1,.42-.16c.31.08.26.32.26.56A1.1,1.1,0,0,1,16.2,9.12Z" transform="translate(-0.17 -0.88)"/><path class="cls-46" d="M12.91,8.08a.42.42,0,0,1,.58.16.53.53,0,0,1-.21.64C12.7,8.8,12.65,8.64,12.91,8.08Z" transform="translate(-0.17 -0.88)"/><path class="cls-47" d="M14.9,11.2c.68,0,.73.08,1.09,1-.41-.32-.78-.64-1.09-.88a0,0,0,1,1,0-.08Z" transform="translate(-0.17 -0.88)"/><path class="cls-48" d="M13.9,11.12h.58c0,.08.26,0,.21.16-.58.48-.58.48-1-.08C13.7,11,13.8,11,13.9,11.12Z" transform="translate(-0.17 -0.88)"/><path class="cls-49" d="M13.9,11.12c-.1,0-.15,0-.2.08-.42.08-.53.48-.84.64-.16-.72.42-.72.84-.88C13.75,11,13.85,11,13.9,11.12Z" transform="translate(-0.17 -0.88)"/><path class="cls-47" d="M14.22,15h-.11c-.15-.32-.26-.56.06-.8C14.69,14.4,14.43,14.72,14.22,15Z" transform="translate(-0.17 -0.88)"/><path class="cls-50" d="M14.69,11.28c0-.08-.11-.16-.21-.16.1,0,.26,0,.31-.08h.11v.32A.25.25,0,0,0,14.69,11.28Z" transform="translate(-0.17 -0.88)"/><path class="cls-5" d="M22.21,24.56a5.17,5.17,0,0,1-3,1.12,4.77,4.77,0,0,1,3-1.12Z" transform="translate(-0.17 -0.88)"/><path class="cls-51" d="M17.72,23.2a1.06,1.06,0,0,1,.52-.16c.05-.08.05-.08.1,0a.63.63,0,0,1-.62.16Z" transform="translate(-0.17 -0.88)"/><path class="cls-51" d="M18.29,23.12h-.1c.1-.16.31-.08.41-.16C18.55,23.12,18.45,23.12,18.29,23.12Z" transform="translate(-0.17 -0.88)"/><path class="cls-51" d="M17.72,23.2h0c-.11.24-.21.16-.37.16C17.45,23.28,17.61,23.28,17.72,23.2Z" transform="translate(-0.17 -0.88)"/></svg>