<?xml version="1.0" encoding="utf-8"?>
<!-- Generator: Adobe Illustrator 23.1.0, SVG Export Plug-In . SVG Version: 6.00 Build 0)  -->
<svg version="1.1" id="Capa_1" xmlns="http://www.w3.org/2000/svg" xmlns:xlink="http://www.w3.org/1999/xlink" x="0px" y="0px"
	 viewBox="0 0 50 50" style="enable-background:new 0 0 50 50;" xml:space="preserve">
<style type="text/css">
	.st0{fill:#E8E8E8;}
	.st1{fill:#74665B;}
	.st2{fill:#F6F6F6;}
	.st3{fill:#E6CFBD;}
	.st4{fill:#95637C;}
	.st5{fill:#D0B096;}
	.st6{fill:#46382D;}
	.st7{fill:#D0B097;}
	.st8{fill:#5E5044;}
	.st9{fill:#734C5F;}
	.st10{fill:#8D7D73;}
	.st11{fill:#C06053;}
	.st12{fill:#AA4943;}
	.st13{fill:#AA4A44;}
	.st14{fill:#8D7E73;}
	.st15{fill:#75675C;}
	.st16{fill:#CF6C5B;}
	.st17{fill:#287C7E;}
	.st18{fill:#58ADA6;}
	.st19{fill:#8F8075;}
	.st20{fill:#807268;}
	.st21{fill:#AD9581;}
	.st22{fill:#543042;}
	.st23{fill:#EBDED5;}
	.st24{fill:#312F2E;}
	.st25{fill:#2D2C2C;}
	.st26{fill:#4E3F34;}
	.st27{fill:#514236;}
	.st28{fill:#B19984;}
	.st29{fill:#54463A;}
	.st30{fill:#8C7969;}
	.st31{fill:#A58B75;}
	.st32{fill:#A58C75;}
	.st33{fill:#A48A74;}
	.st34{fill:#E5CEBC;}
	.st35{fill:#493B2F;}
	.st36{fill:#AC9172;}
	.st37{fill:#D2B39A;}
	.st38{fill:#A38A74;}
	.st39{fill:#F7F2EB;}
	.st40{fill:#E1CEB4;}
	.st41{fill:#A68C76;}
</style>
<g>
	<path class="st0" d="M36.4,49.1c-1.9,0.3-3.9,0.3-5.8,0.5c-1.7,0.2-3.5,0.1-5.2,0.5c-0.9,0-1.8,0-2.6,0c-0.4-0.2-0.9,0-1.3-0.1
		c-5.7-0.3-11.3-0.6-17.2-0.9c1.8-0.4,3.6-0.3,5.1-0.7c1.7-0.1,3.5-0.1,5.2,0c1.7,0,3.2,0,4-0.9c0.7,0,0.5,0.3,0.6,0.5
		c0.1,0.2,0.2,0.3,0.7,0.3c0.4,0,0.6-0.2,0.7-0.3c0.4-0.3,0.1-0.8,1.1-1c0.3,0,0.5,0,0.8,0c2.9-0.5,5.6,0.2,8.4,0.4
		c0.3,0,0.7,0.1,0.9,0.3c0.4,0.4-0.2,0.6-0.4,1c-0.2,0.3,0.1,0.4,0.7,0.4c0.9,0,1.9,0,2.8,0C35.4,49,36,48.9,36.4,49.1z"/>
	<path class="st1" d="M24.1,0c1.3,0.5,2.9,0.7,4.2,1.1c0.1,0.4-0.6,0.5-1,0.7c-2.8,1.2-5.7,2.4-8.4,3.7c-0.2,0.1-0.4,0.2-0.8,0.3
		c-0.1,0-0.2,0-0.4,0c-0.2,0-0.3-0.1-0.4-0.2c-1.5-1.1-3.3-2.1-4.8-3.2c-0.1-0.1,0-0.1,0-0.2c3.2-0.7,6.4-1.3,9.6-2
		c0.4-0.1,0.8-0.2,1.1-0.3C23.6,0,23.8,0,24.1,0z"/>
	<path class="st2" d="M21.5,50c0.4,0,0.9-0.1,1.3,0.1c-0.4,0-0.9,0-1.3,0C21.5,50.1,21.5,50,21.5,50z"/>
	<path class="st3" d="M17.8,5.7c0.1,0,0.2,0,0.3,0c2.5-0.3,5-0.2,7.4-0.1c1.4,0.4,2.3,1,3.4,1.6c0.7,0.4,1.8,0.7,2.1,1.3
		c0.3,0.9-0.1,1.8-0.3,2.7c-0.1,1-0.4,2-0.5,3.1c-0.1,0.4-0.3,0.7-0.7,1.1c-1.2,0.9-2.6,1.8-3.9,2.7c-0.4,0.3-0.9,0.5-1.6,0.5
		c-2.4,0-4.9,0-7.3,0c-0.4,0-0.7-0.1-1-0.2c-1.9-1.4-3.5-2.8-5.2-4.3c-0.1-0.7-0.1-1.3-0.3-2c-0.1-0.3-0.1-0.6-0.1-1
		c0,0,0-0.1,0-0.1C9.2,9,11.4,7.5,13.3,6c0.2-0.2,0.6-0.3,1-0.4C15.5,5.6,16.7,5.5,17.8,5.7z"/>
	<path class="st4" d="M40,34.6c1.6,1.3,0.4,2.6,0,4c-0.2,0.1-0.4,0.2-0.7,0.2c-2.6,0-5.1,0.1-7.7,0c-1.4,0-2.8,0-4.2,0
		c-2.6,0-5.1,0-7.7,0c-0.3,0-0.5-0.1-0.7-0.2c0.8-2,1.8-3.9,2.8-5.9c0.6-0.3,1.3-0.2,2-0.2c2.4-0.1,4.8,0.1,7.2-0.1
		c0.2,0,0.3,0,0.4,0c1.4,0.2,2.8,0.1,4.2,0.1c0.5,0,1,0,1.5,0.1c0.9,0.3,0,0.4-0.3,0.5c-1.2,0.5-2.6,1-3.9,1.5
		c-0.7,0.6-0.6,1.2-0.9,1.8c0,0.1,0,0.1,0.1,0.2c0.4,0.4,3.4,0.6,4,0.3c0.8-0.4,1.8-0.8,2.4-1.3C39.3,35.3,39.1,34.8,40,34.6z"/>
	<path class="st5" d="M15.7,18.3c2.7,0,5.4,0,8.1,0c0.6,0,1-0.1,1.4-0.3c1.3-0.9,2.6-1.9,4-2.8c0.4-0.3,0.6-0.5,0.7-0.8
		c0.1-2,0.8-4,0.8-6c1.3,0.1,1.6,0.8,2.5,1.1c0.1,0.1,0.3,0.2,0.4,0.3c0.6,0.8,1.4,1.5,2,2.3c0,0.2-0.1,0.5-0.1,0.7
		c0,0.2,0.1,0.5,0.1,0.7c-0.5,0.6-0.3,1.2,0.7,1.6c0.6,0.3,0.6,0.6,0.3,0.9c-0.5,0.8-1,1.5-1.5,2.2c-0.6,0.7-0.9,1.4-1.4,2.1
		c-0.2,0.2-0.3,0.4-0.7,0.6c-1.7,0.4-3.6,0.5-5.4,0.7c-1.2,0.2-2.3,0.4-3.5,0.3C24,22,24,21.9,24,21.8c1.3-0.9,3-1.6,4.5-2.4
		c0.5-0.3,1.1-0.5,1.5-0.8c-2.7,0-5.2,0-7.8,0c-0.2,0-0.4,0-0.7,0c-1.4,0-2.8,0-4.1,0c-0.6,0-1.1,0-1.6-0.2
		C15.7,18.4,15.7,18.3,15.7,18.3z"/>
	<path class="st4" d="M31.4,32.4c-0.3,0.2-0.8,0.3-1.4,0.3c-2.7,0-5.4,0-8.1,0c-0.7-1.3-1.4-2.7-2.1-4c-0.9-0.7-1.5-1.5-1.2-2.3
		c0.2-0.1,0.4-0.1,0.7-0.1c3.8,0.1,7.7,0,11.5,0c0.7,0,1.4,0,2.1,0.1c0.2,0,0.3,0.1,0.3,0.2c-0.1,1.4-0.6,2.8-1,4.1
		C32,31.3,32.1,31.9,31.4,32.4z"/>
	<path class="st3" d="M18.3,28.9c-1.1,0.6-2.6,1-3.8,1.6c-0.7,0.3-1,0-1.4-0.2c-2-1.3-4-2.7-6-4c0.5-0.5,0.8-1.1,2.1-1.3
		c1.1,0.3,1.9,0.8,2.9,1.2c0.3,0.1,0.7,0.3,1.2,0.3c1.5,0.6,2.8,1.2,4.3,1.8C18,28.5,18.5,28.6,18.3,28.9z"/>
	<path class="st6" d="M17.8,5.7c-0.1,0-0.3,0-0.4,0c-2.7-0.3-3.9,0.4-5.1,1.4c-1.5,1.2-2.1,2.4-1.8,3.8C9,10.9,8.5,10.3,7.6,9.9
		C7.4,9.8,7.2,9.7,7,9.5C6.8,9.4,7,9.2,7,9c0.3-0.7,0.7-1.4,1.3-2.1c1.1-1,2.8-1.7,4.5-2.5c1.8,0.2,3.4,0.6,4.7,1.2
		C17.6,5.7,17.7,5.7,17.8,5.7z"/>
	<path class="st7" d="M16.2,45c0.5-1.3,1-2.7,1.8-4c2.1,0,4.1,0.1,5.9,0.7c0.1,0.1,0.1,0.2,0.1,0.2c-1,1.1-1.7,2.2-3.3,3.2
		c-0.6,0.1-1.1,0.2-1.7,0.2C18.1,45.1,17,45.3,16.2,45z"/>
	<path class="st3" d="M23.8,41.7c-1.5-0.5-3.2-0.4-4.8-0.6c-0.3-0.1-0.7-0.1-1-0.1c0.2-0.8,0.5-1.6,1.1-2.4c0.2,0,0.3,0,0.5,0
		c2.3,0.2,4.6,0.5,6.8,0.9c0.3,0.1,0.1,0.3,0,0.4c-0.6,0.6-1.3,1.1-1.9,1.6C24.3,41.7,24.2,41.8,23.8,41.7z"/>
	<path class="st5" d="M18.3,28.9c-1.1-0.7-2.7-1.2-3.9-1.8c-0.4-0.2-1-0.3-1.1-0.7c0.9-0.6,1.7-1.3,2.9-1.9c1.4,0.4,2,1,2.4,1.8
		c0.4,0.8,0.8,1.5,1.3,2.2C19.1,28.5,18.9,28.9,18.3,28.9z"/>
	<path class="st3" d="M16.2,45c0.7,0,1.3,0,2,0c0.4,0,0.8,0,0.8,0.3c0.3,0.6-0.5,1-0.9,1.4C17,48.1,17,48.1,13.7,48
		c-1.1,0-2.3,0.2-3.3-0.2C12.4,46.9,14.3,45.9,16.2,45z"/>
	<path class="st6" d="M18.6,26.5c-0.8-0.6-1.6-1.2-2.4-1.8c0,0,0-0.1,0.1-0.1c1.4-0.6,3.2-0.7,4.8-1c0.8,0,1.4,0.3,2,0.5
		c0.3,0.1,0.5,0.4,1,0.2c0.1-0.1,0.2-0.2,0.4-0.2c0.4,0.1,0.4,0.3,0.4,0.5c0,0.1-0.1,0.2-0.1,0.3c-1.6,0.8-3.5,1.3-5.6,1.7
		C19,26.5,18.8,26.5,18.6,26.5z"/>
	<path class="st8" d="M24.3,24.4c-0.1,0.3-0.3,0.1-0.6,0.1c-0.9-0.2-1.5-0.7-2.6-0.8c-1.3-0.4-2.7-0.8-3.6-1.5
		c-0.9-0.4-2.3-0.7-2.9-1.2c0.9-0.5,2-1,3.4-1.2C20.2,21.3,22.4,22.8,24.3,24.4z"/>
	<path class="st7" d="M9.1,25.1C8.2,25.4,8,26,7,26.3c-1.2-0.3-2.3-0.7-3.5-0.9c-1.7-0.3-2.6-0.9-3.3-1.7c-0.4-0.5-0.3-0.8,0.8-0.9
		c0.8,0.2,1.1,0.5,1.4,0.8c0.5,0.4,1.2,0.6,2.2,0.7c1.1,0.1,2.3,0.2,3.4,0.4c0.8,0.1,0.6-0.3,1-0.4C9.2,24.5,9.1,24.8,9.1,25.1z"/>
	<path class="st9" d="M10.4,47.9c1.8,0,3.5,0,5.2,0c0.7,0,1.1-0.1,1.4-0.4c0.6-0.8,1.3-1.5,2-2.2c0.4-0.3,1-0.3,1.5-0.2
		c0.1,0.1,0.1,0.1,0.1,0.2c-0.6,0.8-1.1,1.6-1.9,2.3c-0.6,1-2.2,1-3.9,1c-1.8-0.1-3.7,0.1-5.5-0.1C9.7,48.2,10.1,48,10.4,47.9z"/>
	<path class="st1" d="M12.8,4.5c-1,0.6-2,1.1-3.1,1.6C9.3,6.4,8.9,6.6,8.6,6.9c-0.4-0.1-0.7-0.2-1-0.4c1.5-1.4,3.1-2.9,5-4.2
		c0,0,0,0.1,0,0.1c0.5,0.5,0.6,1.1,0.7,1.6C13.3,4.2,13.2,4.4,12.8,4.5z"/>
	<path class="st10" d="M18,19.8c-1.1,0.4-2.3,0.8-3.4,1.1c0.4-0.8,0.7-1.7,1.1-2.5c2,0,4,0,6,0C20.9,19.1,19.5,19.5,18,19.8z"/>
	<path class="st11" d="M4.4,24.4c-1.3,0-1.9-0.4-2.4-0.8c-0.3-0.3-0.7-0.5-1-0.8c0,0,0.1-0.1,0.1-0.1c0.1,0,0.3-0.1,0.4-0.1
		c2.3,0,4.5-0.2,6.8-0.3c0.4,0,1,0,1,0.3C9.4,22.8,9,22.9,8.6,23c-1.1,0.3-2.2,0.7-3.3,1C4.9,24.1,4.6,24.2,4.4,24.4z"/>
	<path class="st12" d="M8.6,22.6c-1.7,0.1-3.4,0.2-5.2,0.2c-0.7,0-1.5,0.1-2.2-0.1c1.2-0.6,2.9-0.8,4.4-1.3c0.5-0.2,1.1-0.3,1.5-0.5
		c0.3-0.1,0.6-0.2,0.9,0c0.6,0.5,1.4,0.9,1.8,1.5C9.5,22.6,9,22.4,8.6,22.6z"/>
	<path class="st13" d="M8.6,22.6c0.4-0.2,0.9-0.1,1.3-0.1c0.1,0.6-1,1-1.1,1.6c-0.3,0.2,0,0.6-0.8,0.8c-1.2-0.1-2.4-0.3-3.7-0.4
		c-0.7-0.3,0-0.3,0.3-0.4c1.3-0.4,2.7-0.8,4.1-1.2c0.2-0.1,0.6-0.1,0.3-0.2C9,22.5,8.8,22.6,8.6,22.6z"/>
	<path class="st14" d="M17.5,22.2c1.2,0.5,2.7,0.9,3.6,1.5c-1.7,0.3-3.3,0.6-4.9,0.9C16.5,23.8,17.5,23,17.5,22.2z"/>
	<path class="st15" d="M7,9.5c1.1,0.5,2.3,1,3.4,1.5c0,0.3,0,0.7,0.1,1c0,0.6,0.5,1.1-0.2,1.6C9.2,12.3,8.1,10.9,7,9.5z"/>
	<path class="st16" d="M7.3,21.1c-1.9,0.7-4,1.1-6,1.6c-0.1,0-0.2,0-0.2,0c0.1-0.1,0.2-0.3,0.3-0.4c0.4-0.9,1.5-1.4,3.6-1.2
		C5.1,21,5.2,21,5.3,20.9C6,20.9,6.7,20.8,7.3,21.1z"/>
	<path class="st17" d="M5.2,21H5.1L5,21c-0.2-0.5-0.3-1-0.6-1.4c-0.4-0.6,0-0.8,1.3-0.8c-0.1,0.6-0.2,1.3-0.2,1.9
		C5.6,20.9,5.4,21,5.2,21z"/>
	<path class="st18" d="M5.2,21c0.1-0.1,0.2-0.2,0.3-0.3c1.2-0.3,1.8-0.8,3.2-1.1c-0.2,0.5-0.4,0.9-0.6,1.3c-0.3,0-0.5,0.1-0.8,0.1
		C6.6,21.1,5.9,21,5.2,21z"/>
	<path class="st19" d="M7.6,6.5c0.6,0,1,0.1,1,0.4C8.1,7.6,7.7,8.3,7,9C7,8.2,7.3,7.3,7.6,6.5z"/>
	<path class="st20" d="M10.2,13.7c0.4-0.5,0.1-1.1,0.2-1.6c0.2,0.7,0.4,1.3,0,2C10.4,13.9,10.3,13.8,10.2,13.7z"/>
	<path class="st21" d="M8.1,24.8c0.3-0.2,0.3-0.6,0.8-0.8c0,0.1,0.1,0.2,0.1,0.2C8.6,24.4,9.5,25,8.1,24.8z"/>
	<path class="st1" d="M33,9.5c-1-0.3-1.4-0.8-2.3-1.1c-1.6-0.9-3.2-1.7-4.7-2.6c-0.2-0.2,0.1-0.2,0.3-0.3c2-0.7,4.2-1.1,6.1-1.6
		c-1.8-0.1-3.8,0.1-5.8-0.1c-0.3-0.2,0.1-0.3,0.3-0.4c2.9-0.7,5.7-1.4,8.7-2.1c0.2,0,0.4-0.1,0.6,0c1.4,0.6,2.4,1.3,3.6,1.9
		c0.3,0.4-0.4,0.4-0.9,0.4c-1.3,0.1-2.5,0.2-3.8,0.2c-0.8,0-1,0.2-0.6,0.6c1.1,1.1,2.4,2.1,3.5,3.1c0.2,0.2,0.5,0.4,0.4,0.6
		c-0.1,0.2-0.4,0.3-0.7,0.4c-1.2,0.3-2.4,0.7-3.6,1C33.7,9.6,33.3,9.7,33,9.5z"/>
	<path class="st3" d="M38.8,20.9c1.9,1.7,3.7,3.4,5.6,5.1c0.3,0.3,0.8,0.4,1.5,0.5c0.8,0,1.6-0.2,2.4,0.1c-0.5,0.2-1.1,0.2-1.6,0.2
		c-0.8,0-0.9,0.1-0.6,0.4c0.4,0.3,0.8,0.7,1.1,1.1c0.2,0.2,0.4,0.5-0.1,0.7c-2.1,0.2-4.2,0.3-6.3,0.3c-0.1,0-0.3,0-0.4-0.1
		c-1.6-0.8-2.9-1.7-4-2.7c0.5-1.8,1.1-3.7,2-5.5C38.5,20.9,38.6,20.9,38.8,20.9z"/>
	<path class="st1" d="M34.9,18.2c0.5-0.7,0.9-1.5,1.4-2.2c0.2-0.3,0.2-0.6-0.1-0.8c1-0.5,1.1-1.1,1.5-1.7c0.1-0.2,0.4-0.5,0.5-0.7
		c0.4-0.7,0.8-1.4,1.3-2c0.3-0.1,0.5-0.1,0.7,0.1c0.1,0.1,0.2,0.2,0.2,0.3c0.8,1.4,2.2,2.7,3.3,4.1c0.1,0.1,0.3,0.3,0.3,0.4
		c-0.1,0.5,0.4,1,0.6,1.5c0.1,0.2,0.4,0.4-0.1,0.6c-2.8,0.2-5.7,0.4-8.6,0.5C35.6,18.3,35.1,18.3,34.9,18.2z"/>
	<path class="st14" d="M38.2,8.1c-1.5-1.4-3.1-2.8-4.7-4.4c1.8-0.1,3.5-0.2,5.1-0.3c0.4,0,1,0.1,1.2-0.3C41.2,4,42.6,4.7,44,5.5
		c0.3,0.2,0.7,0.4,0.6,0.7c-1.3,0.1-2,0.7-3,1c-1,0.3-1.8,0.8-2.9,1.1C38.5,8.2,38.3,8.2,38.2,8.1z"/>
	<path class="st5" d="M40.3,29.1c2.3-0.1,4.5-0.2,6.7-0.3c0,0,0.1,0.1,0.1,0.1c0,0.2-0.2,0.4-0.4,0.6c-1,0.9-2.3,1.7-3.4,2.5
		c-0.6,0.5-0.6,0.5,0.6,0.5c1.5,0,3,0,4.6,0c0.5,0,1,0,1.5,0.2c-1.2,0.3-2.4,0.1-3.6,0.1c-0.7,0-1.4,0.1-2.1,0
		c-1.7-0.1-3,0.1-3.8,0.9c-1.3-0.1-2.2-0.5-2.8-1.1c0-0.8,0.9-1.5,1.4-2.3C39.4,29.9,39.5,29.4,40.3,29.1z"/>
	<path class="st8" d="M34.9,18.2c2.7-0.2,5.3-0.3,8-0.5c0.6,0,1.2-0.1,1.7,0.1c-1.9,1-3.9,2.1-5.8,3.1h-0.1l-0.1,0
		c-0.7,0.2-1.4,0.2-2.2,0.2c-1.1-0.1-2.3,0.2-3.4-0.2C33.6,20,34.3,19.1,34.9,18.2z"/>
	<path class="st3" d="M39.6,38.6c0.2,0,0.3,0,0.5,0c-0.4,1.4-1,2.7-1.5,4c-1.9-0.4-4-0.3-5.9-0.5c-0.8-0.8-0.9-1.6-0.8-2.5
		c0.3-0.3,0.9-0.3,1.5-0.4C35.3,39,37.4,38.7,39.6,38.6z"/>
	<path class="st10" d="M36.2,1.4c-3.2,0.8-6.6,1.5-9.8,2.4c-0.8,0.4-1.9,0.6-2.9,0.8c-1.2,0.3-2.4,0.6-3.6,0.9
		c-0.4,0.1-0.8,0.3-1.3,0.1c1.6-1,3.7-1.7,5.6-2.5c1.4-0.6,2.8-1.3,4.1-1.9C30.9,1.2,33.6,1.2,36.2,1.4z"/>
	<path class="st1" d="M38.5,8.1c1.5-0.6,3-1.3,4.5-1.8c0.4-0.1,0.7-0.6,1.4-0.2c0.4,1.8,0.9,3.7,1.3,5.5c-0.3,0.1-0.6,0.1-0.8,0
		c-1-0.7-2.5-1.3-3.8-1.9c-0.7-0.4-1.4-0.7-2.1-1C38.8,8.6,38.3,8.4,38.5,8.1z"/>
	<path class="st7" d="M32.7,42.1c0.9-0.4,1.9,0.1,2.9,0c0.8,0,1.5,0.1,2.3,0.1c0.6,0,0.6,0.2,0.6,0.4c-0.4,0.9-0.7,1.8-1.1,2.8
		c-0.2,0.1-0.6,0.1-0.9,0.2c-0.9,0-1.9,0.1-2.8-0.1c-0.2-0.1-0.4-0.2-0.5-0.3c-0.4-0.9-0.7-1.8-0.9-2.7
		C32.4,42.3,32.5,42.2,32.7,42.1z"/>
	<path class="st22" d="M50,32.7c-2.6,0-5.1,0-8,0c1.6-1.2,3.1-2.3,4.6-3.4c0.8,0,0.9,0.3,1.1,0.5c0.8,0.9,1.7,1.7,2.2,2.6
		C50,32.5,50,32.6,50,32.7z"/>
	<path class="st8" d="M44,15.7c-1-0.4-1.1-1-1.5-1.5c-0.8-1-1.9-2-2.4-3c0.5-0.2,0.8,0,1.1,0.2c1.8,0.7,3.5,1.5,5.3,2.2
		c0.5,0.2,1.1,0.4,0.9,0.8C46.3,14.7,45.1,15.2,44,15.7z"/>
	<path class="st3" d="M38,32.7c0.8,0.4,1.7,0.7,2.6,1c-0.2,0.3-0.4,0.6-0.6,0.9c-0.3,0.3-0.6,0.7-1,1c-0.4,0.1-0.8,0.1-1.3,0
		c-1.3-0.2-2.6-0.5-3.9-0.7c-0.4-0.1-1-0.1-0.9-0.5c1.6-0.6,3.1-1.2,4.7-1.8C37.8,32.7,37.9,32.7,38,32.7z"/>
	<path class="st9" d="M36.7,45.4c0.2,0,0.5,0,0.7,0c0.1,0.1,0.2,0.2,0.3,0.2c0.3,0.8,0.1,1.6,0.1,2.4c0,0.4,0.1,0.7,0.7,1
		c-0.7,0.2-1.4,0-2.1,0.1c-1.5,0-3-0.1-4.6,0c-1.3,0-1.3-0.2-0.7-0.6c0.9-0.3,1.9-0.2,2.9-0.2c1,0,1.5-0.2,1.6-0.7
		c0.1-0.5,0.3-1.1,0.4-1.6C36.2,45.8,36.3,45.5,36.7,45.4z"/>
	<path class="st14" d="M47.4,14.3c-0.3-0.6-1.5-0.8-2.4-1.2c-1.6-0.7-3.1-1.4-5-2c0-0.1,0-0.2,0-0.2c0.3-0.1,0.7-0.1,1-0.1
		c1.3,0.2,2.8,0.3,4,0.7c0.2,0.1,0.5,0.1,0.8,0.1c0.6,0.7,1.1,1.4,1.7,2.2C47.6,14,48,14.1,47.4,14.3z"/>
	<path class="st9" d="M47.1,28.8c0-0.7-1-1.2-1.6-1.7c-0.5-0.5-0.4-0.6,0.7-0.6c0.6,0,1.3,0,1.9,0c0.2,0.7,0.4,1.4,0.6,2.1
		c-0.4,0.2-0.9,0.2-1.5,0.1C47.2,28.8,47.2,28.8,47.1,28.8z"/>
	<path class="st9" d="M47.3,28.8c0.5-0.2,1-0.1,1.5-0.1c0.6,1.2,0.9,2.5,1.2,3.8c-0.9-0.7-1.5-1.5-2.2-2.2c-0.3-0.3-0.5-0.7-1.1-0.9
		C46.9,29.1,47.1,29,47.3,28.8z"/>
	<path class="st22" d="M38.5,49c-0.4,0-1,0.1-1-0.3c0.1-1-0.3-2.1,0.2-3.1c1.2,0.6,1.6,1.3,1.3,2.1c-0.2,0.2-0.1,0.4,0,0.6
		c0.1,0.2,0.1,0.4-0.3,0.6C38.6,49,38.6,49,38.5,49z"/>
	<path class="st0" d="M38.7,49c0.1-0.4-0.1-0.9,0.3-1.3c-0.1,0.4,0.3,0.6,1.2,0.7c0.8,0,1.5,0.2,2.5,0.3C41.2,48.9,40,49,38.7,49z"
		/>
	<path class="st3" d="M31.7,47.6c0.9-0.7,1.4-1.5,2.1-2.2c1,0,2,0,2.9,0c-0.3,0.9-0.6,1.8-0.8,2.7c-0.1,0.3-0.4,0.4-1,0.4
		c-1.3,0-2.5,0-3.8,0C31,48.1,31.8,48,31.7,47.6z"/>
	<path class="st22" d="M20.7,45.1c0.5,0.6,1.3,1.2,1,1.9c-0.2,0.4-0.6,0.7-0.7,1.1c-0.2,0.3-0.4,0.5-1.2,0.5c-0.8,0-0.7-0.3-0.8-0.5
		c-0.1-0.1-0.1-0.3-0.1-0.4C19,46.7,19.8,45.9,20.7,45.1z"/>
	<path class="st8" d="M18.6,5.5c2.1-0.5,4.2-1,6.3-1.5c0.5-0.1,1-0.2,1.5-0.3c2.2,0,4.4,0,6.8,0c-2.4,0.9-5.2,1.2-7.3,2
		c-2.6,0-5.2,0-7.8-0.1C18.2,5.7,18.4,5.6,18.6,5.5z"/>
	<path class="st8" d="M12.8,4.5c0.2-0.5,0-1-0.2-1.4c-0.1-0.2-0.1-0.5-0.1-0.7c1.8,1,3.5,2.1,5,3.2c-1.3-0.3-2.5-0.6-3.8-1
		C13.5,4.6,13.2,4.5,12.8,4.5z"/>
	<path class="st5" d="M19.6,10c0.4-0.3,1-0.5,1.3-0.9c1,0,1.9-0.2,2.8-0.3c0.5-0.1,0.9-0.1,1.4,0c0.3,0.1,0.7,0.1,1.1,0.2
		c0.3,0.1,0.7,0.1,1,0.2c-0.4,0.4-1.4,0.5-2,0.8c-0.3,0.2-0.7,0.2-0.9,0.4c-0.3,0-0.5-0.1-0.7-0.2c-0.4-0.2-0.9-0.2-1.2,0.1
		c-0.3,0.2-0.1,0.4,0.5,0.5c0.2,0,0.5,0.1,0.6,0.2c-1.6,0.2-1.6,1-2.5,1.5c-0.5,0.3-0.5,0.7-1.2,0.9c-0.7,0.2-1.4,0.2-2.1,0
		c-0.1,0-0.2-0.1-0.3-0.1c0.1,0,0.2-0.1,0.3-0.1c1.7-0.3,1.7-0.3,1.6-1.1c0-0.4-0.3-0.9-0.3-1.3C19.2,10.5,19.2,10.2,19.6,10z"/>
	<path class="st5" d="M17.3,9.3c0.3,0.3,0.7,0.5,1,0.8c0.5,0.9,0.2,1.8-0.6,2.6c-0.3-0.2-0.7-0.4-0.9-0.7c-0.5-0.5-1.1-0.8-2.2-0.9
		c0.2-0.2,0.6-0.2,0.9-0.3c0.4-0.1,0.5-0.3,0.2-0.5c-0.3-0.2-0.8-0.2-1.1,0.1c-0.2,0.1-0.2,0.3-0.5,0.4c-0.2-0.6-0.9-1-1.8-1.3
		c-0.2-0.1-0.9-0.2-0.2-0.4C13.9,8.7,15.6,9,17.3,9.3z"/>
	<path class="st23" d="M17.8,12.7c0.2-0.9,0.4-1.7,0.6-2.6c0.4,0,0.9,0,1.3,0c0.1,0.8,0.1,1.7,0.3,2.5c0.1,0.6-0.2,0.9-1.6,0.8
		c-0.3,0-0.5,0-0.8,0C17.6,13.1,17.7,12.9,17.8,12.7z"/>
	<path class="st4" d="M15.7,15.2c-0.2-0.1-0.3-0.2-0.1-0.2c1.1,0,2-0.2,3.2-0.2c1.4,0.1,2.8,0,4.2,0.1c0.6,0,0.6,0.1,0.2,0.3
		c-0.2,0-0.4,0.1-0.7,0.1c-1.5,0.1-3,0.3-4.5,0.1c-0.6-0.1-1.1-0.1-1.7-0.1C16.1,15.3,15.9,15.2,15.7,15.2z"/>
	<path class="st4" d="M22.5,15.2c0.2,0,0.4,0,0.6,0c-1.1,0.7-2.2,1.1-4.2,1c-1.6-0.1-2.2-0.7-3.2-1c0.2,0,0.4,0,0.6,0
		c0.3,0.1,0.7,0.1,1,0.2C19.1,15.9,20.8,15.6,22.5,15.2z"/>
	<path class="st24" d="M23.6,11.1c-0.7,0-1.4,0-1.6-0.4c-0.1-0.3,0-0.5,0.6-0.6c0.9-0.2,1.4,0,1.8,0.4C24.3,10.7,24,10.9,23.6,11.1z
		"/>
	<path class="st25" d="M14.1,10.8c0-0.3-0.2-0.7,0.7-0.8c0.5-0.1,1,0,1.3,0.2c0.3,0.2,0.3,0.4,0.1,0.6c-0.3,0.4-1,0.3-1.6,0.3
		C14.4,11,14.2,10.9,14.1,10.8z"/>
	<path class="st26" d="M25,8.9c-1.2-0.1-2.2,0.2-3.3,0.3c-0.3,0-0.8,0.2-0.9-0.1c1.2-0.5,3.4-0.7,4.7-0.4C25.6,9,25.3,8.9,25,8.9z"
		/>
	<path class="st27" d="M17.3,9.3c-0.1,0.1-0.2,0.2-0.4,0.1C15.4,9,13.8,9,12.1,9c1.4-0.4,2.8-0.6,4.3-0.2C16.8,9,17.2,9,17.3,9.3z"
		/>
	<path class="st3" d="M23,14c0.3,0.1,0.7,0.2,1,0.3c1.8,0.4,1.8,0.4,0.3,1.2c0.7-0.9-0.8-1-1.6-1.4C22.7,14,22.8,14,23,14z"/>
	<path class="st3" d="M15.9,14.2c-0.8,0.3-1.8,0.5-1.2,1.3c-1.4-0.6-1.4-0.7-0.3-1c0.4-0.1,0.9-0.4,1.4-0.4C16,14,16,14.1,15.9,14.2
		C16,14.1,16,14.2,15.9,14.2z"/>
	<path class="st28" d="M17.8,13.4c0.7,0,1.4,0,2.1,0C18.8,14.1,18.8,14.1,17.8,13.4z"/>
	<path class="st3" d="M23,14c-0.1,0-0.2,0.1-0.3,0.1c-0.3-0.1-0.5-0.1-0.7-0.3C22.6,13.8,22.8,13.9,23,14z"/>
	<path class="st29" d="M25,8.9c0.2,0,0.4-0.1,0.6-0.1c0.3,0.1,0.5,0.1,0.8,0.1c0.1,0.1,0,0.2-0.2,0.1C25.8,9,25.4,9,25,8.9z"/>
	<path class="st30" d="M26.1,9.1c0.1,0,0.2-0.1,0.2-0.1C26.7,9,27,9,27.2,9.2C26.8,9.2,26.4,9.2,26.1,9.1z"/>
	<path class="st3" d="M15.9,14.2c0,0,0-0.1,0-0.1c0.1-0.1,0.4-0.3,0.5-0.2C16.6,14,16.2,14.1,15.9,14.2z"/>
	<path class="st22" d="M38,32.7c-0.1,0-0.2,0-0.3,0c-1.7,0-3.4,0-5.1,0c-0.4,0-0.9,0.1-1.2-0.1c0.9-1.1,2.3-2.2,3.5-3.2
		c0.5-0.4,1.4-0.5,2.2-0.5c1,0,2.2-0.1,3.1,0.2l0.1,0C39.6,30.3,38.8,31.5,38,32.7z"/>
	<path class="st5" d="M33,34.5c1.2,0.5,2.9,0.5,4.2,0.9c0.6,0.1,1.2,0.2,1.8,0.3c-0.7,0.6-2,1-2.9,1.6c-0.2,0.1-0.5,0.1-0.8,0.1
		c-0.4-0.1-0.8-0.1-1.2-0.2c-2.3-0.3-2.3-0.4-1.8-1.5C32.4,35.2,32.3,34.8,33,34.5z"/>
	<path class="st9" d="M36.9,29.1c-0.8,0-1.4,0.1-1.9,0.5c-1.3,1-2.2,2.1-3.6,3c0,0,0-0.1,0-0.1c0.4-1.9,0.9-3.8,1.6-5.8
		c0.6,0,0.7,0.2,0.9,0.4C34.9,27.7,35.3,28.6,36.9,29.1z"/>
	<path class="st31" d="M27.5,38.6c-0.4,0.3-0.7,0.7-1.1,1c-2.4-0.2-4.6-0.6-6.8-1C22.2,38.6,24.9,38.6,27.5,38.6z"/>
	<path class="st32" d="M32,39.6c-0.4-0.3-0.3-0.6-0.3-1c2.7,0,5.3,0,8,0C37,38.9,34.5,39.3,32,39.6z"/>
	<path class="st3" d="M33,20.9c1.1,0,2.2,0,3.3,0c0,0,0.1,0,0.1,0.1c-0.4,1.3-1.1,2.6-2.4,3.7c-2.4,0.2-4.8,0.1-7.2,0.1
		c-1,0-1-0.4-1-0.8c-0.5,0.2-0.4,0.6-1.2,0.6c-0.1-0.2-0.2-0.4-0.2-0.5c-0.6-0.7-0.9-1.4-0.3-2.1C27.1,21.6,30.1,21.3,33,20.9z"/>
	<path class="st6" d="M24.1,21.9c0.1,0.7,0.2,1.4,0.3,2.1c0,0.1,0,0.3-0.1,0.4c-1.5-0.8-2.5-1.7-3.7-2.6c-0.9-0.7-2.1-1.3-2.6-2.1
		c1.2-0.5,2.5-0.9,3.7-1.4c0.2,0,0.3,0,0.4,0c0.2,0.1,0.4,0.2,0.5,0.4c0.4,0.9,1,1.7,1.4,2.6c0.1,0.1,0.1,0.3,0,0.4
		C24.1,21.9,24.1,21.9,24.1,21.9z"/>
	<path class="st8" d="M45,11.5c-1.7-0.2-3.3-0.4-5-0.6c-0.1-0.1-0.4-0.1-0.6-0.1c-0.2,0.1-0.3,0.1-0.5,0.1c-0.8-0.1-1.6-0.3-2.4-0.4
		c-0.5-0.1-0.5,0.3-1,0.2c-0.3-0.6-1.4-0.7-2.3-0.9c-0.1-0.1-0.2-0.2-0.3-0.3c1.9-0.3,3.6-0.8,5.3-1.4c0.1,0,0.2,0,0.3,0
		c2,1,4,1.9,6,2.9C44.7,11.2,45.4,11.3,45,11.5z"/>
	<path class="st33" d="M24.1,21.8c-0.8-1.1-1.3-2.2-1.9-3.4c2.7,0,5.5,0,8.6,0C28.4,19.6,26.5,20.8,24.1,21.8z"/>
	<path class="st34" d="M35.6,10.7c0.3-0.2,0-0.6,1-0.4c0.8,0.4-0.1,0.9,0.1,1.3c0.7-0.3,1.1-0.8,2.3-0.8c0.2,0,0.3,0,0.4,0
		c0.2,0.8-0.8,1.4-1,2.1C38.3,13,38,13,37.6,13c-0.4-0.1-0.7-0.4-1.3-0.2c-0.4,0.1-0.9,0.1-1.3-0.1c0-0.3,0-0.5,0.2-0.8
		C35,11.5,35.1,11.1,35.6,10.7z"/>
	<path class="st4" d="M37.9,13.6c-0.3,0.4-0.5,0.8-0.8,1.2c-0.2,0.2-0.4,0.4-1,0.4c-1.3-0.3-1.7-1-0.8-1.7c0.2-0.1,0.5-0.1,0.8-0.1
		c0.4,0,0.9,0,1.3,0C37.6,13.4,37.8,13.5,37.9,13.6z"/>
	<path class="st35" d="M35.6,10.7c-0.1,0.5-0.2,0.9-0.3,1.3c-1-0.7-1.5-1.5-2.1-2.2C34.9,9.8,35.6,10,35.6,10.7z"/>
	<path class="st36" d="M36.1,13.5c-0.3,0-0.6,0-0.8,0c-0.3-0.2-0.2-0.5-0.2-0.7c0.4,0,0.9,0,1.3-0.1C36.8,13,36.5,13.2,36.1,13.5z"
		/>
	<path class="st4" d="M34,24.7c0.8-1.2,1.5-2.5,2.3-3.7c0.8,0,1.5,0,2.3,0c-0.7,1.9-1.3,3.7-1.9,5.6c-1.2,0.3-2.4,0.3-3.6,0
		c-4.2,0-8.4,0-12.6,0c-0.4,0-0.9,0.1-1.2-0.1c1.8-0.6,3.7-1.1,5.5-1.7c0.3-0.2,0.8-0.2,1.2-0.1c2.6,0.2,5.3,0.1,7.9,0.1
		C33.8,24.7,33.9,24.7,34,24.7z"/>
	<path class="st9" d="M33,26.6c1.2,0,2.4,0,3.6,0c1.2,0.8,2.4,1.7,3.6,2.5c-1.1,0-2.2,0-3.4,0c-1.2-0.1-1.8-0.5-2.3-1
		c-0.4-0.5-1-1-1.7-1.4C33,26.6,33,26.6,33,26.6z"/>
	<path class="st37" d="M34,24.7c-0.3,0.2-0.8,0.1-1.2,0.1c-2.7,0-5.4,0-8.2,0c0-0.1,0-0.2,0-0.3c0.6-0.3,0.8-0.8,1.3-1.2
		c0.3,0.3,0.2,0.6,0.2,0.9c0,0.4,0.3,0.5,1,0.5C29.5,24.7,31.7,24.7,34,24.7z"/>
	<path class="st38" d="M37.9,13.6c-0.2,0-0.3,0-0.5,0c-0.3-0.2-0.4-0.4,0.1-0.6c0.3,0,0.6,0,1,0C38.3,13.1,38.1,13.3,37.9,13.6z"/>
	<path class="st39" d="M22.5,15.2C20.7,15.9,19,16,17,15.4c0.1-0.3,0.5-0.1,0.8-0.1C19.4,15.4,21,15.2,22.5,15.2z"/>
	<path class="st40" d="M17.8,15.3c-0.3,0.1-0.6,0-0.8,0.1c-0.3-0.1-0.6-0.1-0.7-0.2C16.8,15.2,17.4,15.1,17.8,15.3z"/>
	<path class="st41" d="M39,10.8c-0.8,0.4-1.6,0.7-2.5,1.1c-0.3-0.6,0.4-1.1,0.1-1.6C37.4,10.5,38.2,10.6,39,10.8z"/>
	<path class="st22" d="M37.5,12.9c0,0.2,0,0.4-0.1,0.6c-0.4,0-0.9,0-1.3,0c0.1-0.3,0.2-0.6,0.2-0.9C37,12.4,37.5,12.4,37.5,12.9z"/>
</g>
</svg>
