<?xml version="1.0" encoding="utf-8"?>
<!-- Generator: Adobe Illustrator 23.1.0, SVG Export Plug-In . SVG Version: 6.00 Build 0)  -->
<svg version="1.1" id="Capa_1" xmlns="http://www.w3.org/2000/svg" xmlns:xlink="http://www.w3.org/1999/xlink" x="0px" y="0px"
	 viewBox="0 0 91.3 150.9" style="enable-background:new 0 0 91.3 150.9;" xml:space="preserve">
<style type="text/css">
	.st0{fill:#E8E8E8;}
	.st1{fill:#74665B;}
	.st2{fill:#F6F6F6;}
	.st3{fill:#E6CFBD;}
	.st4{fill:#95637C;}
	.st5{fill:#D0B096;}
	.st6{fill:#46382D;}
	.st7{fill:#D0B097;}
	.st8{fill:#5E5044;}
	.st9{fill:#734C5F;}
	.st10{fill:#8D7D73;}
	.st11{fill:#C06053;}
	.st12{fill:#AA4943;}
	.st13{fill:#AA4A44;}
	.st14{fill:#8D7E73;}
	.st15{fill:#75675C;}
	.st16{fill:#CF6C5B;}
	.st17{fill:#287C7E;}
	.st18{fill:#58ADA6;}
	.st19{fill:#8F8075;}
	.st20{fill:#807268;}
	.st21{fill:#AD9581;}
	.st22{fill:#543042;}
	.st23{fill:#EBDED5;}
	.st24{fill:#312F2E;}
	.st25{fill:#2D2C2C;}
	.st26{fill:#4E3F34;}
	.st27{fill:#514236;}
	.st28{fill:#B19984;}
	.st29{fill:#54463A;}
	.st30{fill:#8C7969;}
	.st31{fill:#A58B75;}
	.st32{fill:#A58C75;}
	.st33{fill:#A48A74;}
	.st34{fill:#E5CEBC;}
	.st35{fill:#493B2F;}
	.st36{fill:#AC9172;}
	.st37{fill:#D2B39A;}
	.st38{fill:#A38A74;}
	.st39{fill:#F7F2EB;}
	.st40{fill:#E1CEB4;}
	.st41{fill:#A68C76;}
</style>
<g>
	<path class="st0" d="M55.4,147c-2.7,0.9-5.6,0.9-8.3,1.5c-2.4,0.6-5,0.3-7.5,1.5c-1.3,0-2.6,0-3.7,0c-0.6-0.6-1.3,0-1.9-0.3
		c-8.2-0.9-16.2-1.8-24.6-2.7c2.6-1.2,5.2-0.9,7.3-2.1c2.4-0.3,5-0.3,7.5,0c2.4,0,4.6,0,5.7-2.7c1,0,0.7,0.9,0.9,1.5
		c0.1,0.6,0.3,0.9,1,0.9c0.6,0,0.9-0.6,1-0.9c0.6-0.9,0.1-2.4,1.6-3c0.4,0,0.7,0,1.1,0c4.2-1.5,8,0.6,12,1.2c0.4,0,1,0.3,1.3,0.9
		c0.6,1.2-0.3,1.8-0.6,3c-0.3,0.9,0.1,1.2,1,1.2c1.3,0,2.7,0,4,0C53.9,146.7,54.8,146.4,55.4,147z"/>
	<path class="st1" d="M37.7,0.3c1.9,1.5,4.2,2.1,6,3.3c0.1,1.2-0.9,1.5-1.4,2.1c-4,3.6-8.2,7.2-12,11.1c-0.3,0.3-0.6,0.6-1.1,0.9
		c-0.1,0-0.3,0-0.6,0c-0.3,0-0.4-0.3-0.6-0.6c-2.1-3.3-4.7-6.3-6.9-9.6c-0.1-0.3,0-0.3,0-0.6c4.6-2.1,9.2-3.9,13.8-6
		C35.5,0.6,36,0.3,36.5,0C37,0.3,37.3,0.3,37.7,0.3z"/>
	<path class="st2" d="M34,149.7c0.6,0,1.3-0.3,1.9,0.3c-0.6,0-1.3,0-1.9,0V149.7z"/>
	<path class="st3" d="M28.7,17.3c0.1,0,0.3,0,0.4,0c3.6-0.9,7.2-0.6,10.6-0.3c2,1.2,3.3,3,4.9,4.8c1,1.2,2.6,2.1,3,3.9
		c0.4,2.7-0.1,5.4-0.4,8.1c-0.1,3-0.6,6-0.7,9.3c-0.1,1.2-0.4,2.1-1,3.3c-1.7,2.7-3.7,5.4-5.6,8.1c-0.6,0.9-1.3,1.5-2.3,1.5
		c-3.4,0-7,0-10.5,0c-0.6,0-1-0.3-1.4-0.6c-2.7-4.2-5-8.4-7.5-12.8c-0.1-2.1-0.1-3.9-0.4-6c-0.1-0.9-0.1-1.8-0.1-3v-0.3
		c-1.3-6,1.9-10.5,4.6-14.9c0.3-0.6,0.9-0.9,1.4-1.2C25.4,17,27.1,16.7,28.7,17.3z"/>
	<path class="st4" d="M60.5,103.7c2.3,3.9,0.6,7.8,0,12c-0.3,0.3-0.6,0.6-1,0.6c-3.7,0-7.3,0.3-11,0c-2,0-4,0-6,0c-3.7,0-7.3,0-11,0
		c-0.4,0-0.7-0.3-1-0.6c1.1-6,2.6-11.7,4-17.6c0.9-0.9,1.9-0.6,2.9-0.6c3.4-0.3,6.9,0.3,10.3-0.3c0.3,0,0.4,0,0.6,0
		c2,0.6,4,0.3,6,0.3c0.7,0,1.4,0,2.1,0.3c1.3,0.9,0,1.2-0.4,1.5c-1.7,1.5-3.7,3-5.6,4.5c-1,1.8-0.9,3.6-1.3,5.4c0,0.3,0,0.3,0.1,0.6
		c0.6,1.2,4.9,1.8,5.7,0.9c1.1-1.2,2.6-2.4,3.4-3.9C59.5,105.8,59.2,104.3,60.5,103.7z"/>
	<path class="st5" d="M25.7,55c3.9,0,7.7,0,11.6,0c0.9,0,1.4-0.3,2-0.9c1.9-2.7,3.7-5.7,5.7-8.4c0.6-0.9,0.9-1.5,1-2.4
		c0.1-6,1.1-12,1.1-17.9c1.9,0.3,2.3,2.4,3.6,3.3c0.1,0.3,0.4,0.6,0.6,0.9c0.9,2.4,2,4.5,2.9,6.9c0,0.6-0.1,1.5-0.1,2.1
		c0,0.6,0.1,1.5,0.1,2.1c-0.7,1.8-0.4,3.6,1,4.8c0.9,0.9,0.9,1.8,0.4,2.7c-0.7,2.4-1.4,4.5-2.1,6.6c-0.9,2.1-1.3,4.2-2,6.3
		c-0.3,0.6-0.4,1.2-1,1.8c-2.4,1.2-5.2,1.5-7.7,2.1c-1.7,0.6-3.3,1.2-5,0.9c-0.1,0.3-0.1,0-0.1-0.3c1.9-2.7,4.3-4.8,6.4-7.2
		c0.7-0.9,1.6-1.5,2.1-2.4c-3.9,0-7.5,0-11.2,0c-0.3,0-0.6,0-1,0c-2,0-4,0-5.9,0c-0.9,0-1.6,0-2.3-0.6C25.7,55.3,25.7,55,25.7,55z"
		/>
	<path class="st4" d="M48.2,97.1c-0.4,0.6-1.1,0.9-2,0.9c-3.9,0-7.7,0-11.6,0c-1-3.9-2-8.1-3-12c-1.3-2.1-2.1-4.5-1.7-6.9
		c0.3-0.3,0.6-0.3,1-0.3c5.4,0.3,11,0,16.5,0c1,0,2,0,3,0.3c0.3,0,0.4,0.3,0.4,0.6c-0.1,4.2-0.9,8.4-1.4,12.3
		C49.1,93.8,49.2,95.6,48.2,97.1z"/>
	<path class="st3" d="M29.4,86.7c-1.6,1.8-3.7,3-5.4,4.8c-1,0.9-1.4,0-2-0.6c-2.9-3.9-5.7-8.1-8.6-12c0.7-1.5,1.1-3.3,3-3.9
		c1.6,0.9,2.7,2.4,4.2,3.6c0.4,0.3,1,0.9,1.7,0.9c2.1,1.8,4,3.6,6.2,5.4C29,85.5,29.7,85.8,29.4,86.7z"/>
	<path class="st6" d="M28.7,17.3c-0.1,0-0.4,0-0.6,0c-3.9-0.9-5.6,1.2-7.3,4.2c-2.1,3.6-3,7.2-2.6,11.4c-2.1,0-2.9-1.8-4.2-3
		c-0.3-0.3-0.6-0.6-0.9-1.2c-0.3-0.3,0-0.9,0-1.5c0.4-2.1,1-4.2,1.9-6.3c1.6-3,4-5.1,6.4-7.5c2.6,0.6,4.9,1.8,6.7,3.6
		C28.4,17.3,28.6,17.3,28.7,17.3z"/>
	<path class="st7" d="M26.4,134.8c0.7-3.9,1.4-8.1,2.6-12c3,0,5.9,0.3,8.5,2.1c0.1,0.3,0.1,0.6,0.1,0.6c-1.4,3.3-2.4,6.6-4.7,9.6
		c-0.9,0.3-1.6,0.6-2.4,0.6C29.1,135.1,27.6,135.7,26.4,134.8z"/>
	<path class="st3" d="M37.3,124.9c-2.1-1.5-4.6-1.2-6.9-1.8c-0.4-0.3-1-0.3-1.4-0.3c0.3-2.4,0.7-4.8,1.6-7.2c0.3,0,0.4,0,0.7,0
		c3.3,0.6,6.6,1.5,9.7,2.7c0.4,0.3,0.1,0.9,0,1.2c-0.9,1.8-1.9,3.3-2.7,4.8C38,124.9,37.9,125.2,37.3,124.9z"/>
	<path class="st5" d="M29.4,86.7c-1.6-2.1-3.9-3.6-5.6-5.4c-0.6-0.6-1.4-0.9-1.6-2.1c1.3-1.8,2.4-3.9,4.2-5.7c2,1.2,2.9,3,3.4,5.4
		c0.6,2.4,1.1,4.5,1.9,6.6C30.6,85.5,30.3,86.7,29.4,86.7z"/>
	<path class="st3" d="M26.4,134.8c1,0,1.9,0,2.9,0c0.6,0,1.1,0,1.1,0.9c0.4,1.8-0.7,3-1.3,4.2c-1.6,4.2-1.6,4.2-6.3,3.9
		c-1.6,0-3.3,0.6-4.7-0.6C21,140.4,23.7,137.5,26.4,134.8z"/>
	<path class="st6" d="M29.9,79.5c-1.1-1.8-2.3-3.6-3.4-5.4c0,0,0-0.3,0.1-0.3c2-1.8,4.6-2.1,6.9-3c1.1,0,2,0.9,2.9,1.5
		c0.4,0.3,0.7,1.2,1.4,0.6c0.1-0.3,0.3-0.6,0.6-0.6c0.6,0.3,0.6,0.9,0.6,1.5c0,0.3-0.1,0.6-0.1,0.9c-2.3,2.4-5,3.9-8,5.1
		C30.4,79.5,30.1,79.5,29.9,79.5z"/>
	<path class="st8" d="M38,73.2c-0.1,0.9-0.4,0.3-0.9,0.3c-1.3-0.6-2.1-2.1-3.7-2.4c-1.9-1.2-3.9-2.4-5.2-4.5
		C27,65.4,25,64.5,24.1,63c1.3-1.5,2.9-3,4.9-3.6C32.2,63.9,35.3,68.4,38,73.2z"/>
	<path class="st7" d="M16.2,75.3c-1.3,0.9-1.6,2.7-3,3.6c-1.7-0.9-3.3-2.1-5-2.7c-2.4-0.9-3.7-2.7-4.7-5.1c-0.6-1.5-0.4-2.4,1.1-2.7
		c1.1,0.6,1.6,1.5,2,2.4c0.7,1.2,1.7,1.8,3.2,2.1c1.6,0.3,3.3,0.6,4.9,1.2c1.1,0.3,0.9-0.9,1.4-1.2C16.4,73.5,16.2,74.4,16.2,75.3z"
		/>
	<path class="st9" d="M18.1,143.4c2.6,0,5,0,7.5,0c1,0,1.6-0.3,2-1.2c0.9-2.4,1.9-4.5,2.9-6.6c0.6-0.9,1.4-0.9,2.1-0.6
		c0.1,0.3,0.1,0.3,0.1,0.6c-0.9,2.4-1.6,4.8-2.7,6.9c-0.9,3-3.2,3-5.6,3c-2.6-0.3-5.3,0.3-7.9-0.3C17.1,144.3,17.7,143.7,18.1,143.4
		z"/>
	<path class="st1" d="M21.6,13.7c-1.4,1.8-2.9,3.3-4.4,4.8c-0.6,0.9-1.1,1.5-1.6,2.4c-0.6-0.3-1-0.6-1.4-1.2
		c2.1-4.2,4.4-8.7,7.2-12.5v0.3c0.7,1.5,0.9,3.3,1,4.8C22.3,12.8,22.1,13.4,21.6,13.7z"/>
	<path class="st10" d="M29,59.5c-1.6,1.2-3.3,2.4-4.9,3.3c0.6-2.4,1-5.1,1.6-7.5c2.9,0,5.7,0,8.6,0C33.2,57.4,31.2,58.6,29,59.5z"/>
	<path class="st11" d="M9.5,73.2c-1.9,0-2.7-1.2-3.4-2.4c-0.4-0.9-1-1.5-1.4-2.4l0.1-0.3c0.1,0,0.4-0.3,0.6-0.3
		c3.3,0,6.4-0.6,9.7-0.9c0.6,0,1.4,0,1.4,0.9c0.1,0.6-0.4,0.9-1,1.2c-1.6,0.9-3.2,2.1-4.7,3C10.2,72.3,9.8,72.6,9.5,73.2z"/>
	<path class="st12" d="M15.5,67.8c-2.4,0.3-4.9,0.6-7.5,0.6c-1,0-2.1,0.3-3.2-0.3c1.7-1.8,4.2-2.4,6.3-3.9c0.7-0.6,1.6-0.9,2.1-1.5
		c0.4-0.3,0.9-0.6,1.3,0c0.9,1.5,2,2.7,2.6,4.5C16.8,67.8,16.1,67.2,15.5,67.8z"/>
	<path class="st13" d="M15.5,67.8c0.6-0.6,1.3-0.3,1.9-0.3c0.1,1.8-1.4,3-1.6,4.8c-0.4,0.6,0,1.8-1.1,2.4c-1.7-0.3-3.4-0.9-5.3-1.2
		c-1-0.9,0-0.9,0.4-1.2c1.9-1.2,3.9-2.4,5.9-3.6c0.3-0.3,0.9-0.3,0.4-0.6C16.1,67.5,15.8,67.8,15.5,67.8z"/>
	<path class="st14" d="M28.3,66.6c1.7,1.5,3.9,2.7,5.2,4.5c-2.4,0.9-4.7,1.8-7,2.7C26.9,71.4,28.3,69,28.3,66.6z"/>
	<path class="st15" d="M13.2,28.7c1.6,1.5,3.3,3,4.9,4.5c0,0.9,0,2.1,0.1,3c0,1.8,0.7,3.3-0.3,4.8C16.4,37.1,14.8,32.9,13.2,28.7z"
		/>
	<path class="st16" d="M13.7,63.3c-2.7,2.1-5.7,3.3-8.6,4.8c-0.1,0-0.3,0-0.3,0c0.1-0.3,0.3-0.9,0.4-1.2c0.6-2.7,2.1-4.2,5.2-3.6
		c0.1-0.3,0.3-0.3,0.4-0.6C11.8,62.7,12.8,62.5,13.7,63.3z"/>
	<path class="st17" d="M10.7,63h-0.1h-0.1c-0.3-1.5-0.4-3-0.9-4.2c-0.6-1.8,0-2.4,1.9-2.4c-0.1,1.8-0.3,3.9-0.3,5.7
		C11.2,62.7,10.9,63,10.7,63z"/>
	<path class="st18" d="M10.7,63c0.1-0.3,0.3-0.6,0.4-0.9c1.7-0.9,2.6-2.4,4.6-3.3c-0.3,1.5-0.6,2.7-0.9,3.9c-0.4,0-0.7,0.3-1.1,0.3
		C12.7,63.3,11.7,63,10.7,63z"/>
	<path class="st19" d="M14.1,19.7c0.9,0,1.4,0.3,1.4,1.2c-0.7,2.1-1.3,4.2-2.3,6.3C13.2,24.8,13.7,22.1,14.1,19.7z"/>
	<path class="st20" d="M17.8,41.2c0.6-1.5,0.1-3.3,0.3-4.8c0.3,2.1,0.6,3.9,0,6C18.1,41.8,18,41.5,17.8,41.2z"/>
	<path class="st21" d="M14.8,74.4c0.4-0.6,0.4-1.8,1.1-2.4c0,0.3,0.1,0.6,0.1,0.6C15.5,73.2,16.8,75,14.8,74.4z"/>
	<path class="st1" d="M50.5,28.7c-1.4-0.9-2-2.4-3.3-3.3c-2.3-2.7-4.6-5.1-6.7-7.8c-0.3-0.6,0.1-0.6,0.4-0.9c2.9-2.1,6-3.3,8.7-4.8
		c-2.6-0.3-5.4,0.3-8.3-0.3c-0.4-0.6,0.1-0.9,0.4-1.2c4.2-2.1,8.2-4.2,12.5-6.3c0.3,0,0.6-0.3,0.9,0c2,1.8,3.4,3.9,5.2,5.7
		c0.4,1.2-0.6,1.2-1.3,1.2c-1.9,0.3-3.6,0.6-5.4,0.6c-1.1,0-1.4,0.6-0.9,1.8c1.6,3.3,3.4,6.3,5,9.3c0.3,0.6,0.7,1.2,0.6,1.8
		c-0.1,0.6-0.6,0.9-1,1.2c-1.7,0.9-3.4,2.1-5.2,3C51.5,29,50.9,29.3,50.5,28.7z"/>
	<path class="st3" d="M58.8,62.7c2.7,5.1,5.3,10.2,8,15.2c0.4,0.9,1.1,1.2,2.1,1.5c1.1,0,2.3-0.6,3.4,0.3c-0.7,0.6-1.6,0.6-2.3,0.6
		c-1.1,0-1.3,0.3-0.9,1.2c0.6,0.9,1.1,2.1,1.6,3.3c0.3,0.6,0.6,1.5-0.1,2.1c-3,0.6-6,0.9-9,0.9c-0.1,0-0.4,0-0.6-0.3
		c-2.3-2.4-4.2-5.1-5.7-8.1c0.7-5.4,1.6-11.1,2.9-16.4C58.4,62.7,58.5,62.7,58.8,62.7z"/>
	<path class="st1" d="M53.2,54.7c0.7-2.1,1.3-4.5,2-6.6c0.3-0.9,0.3-1.8-0.1-2.4c1.4-1.5,1.6-3.3,2.1-5.1c0.1-0.6,0.6-1.5,0.7-2.1
		c0.6-2.1,1.1-4.2,1.9-6c0.4-0.3,0.7-0.3,1,0.3c0.1,0.3,0.3,0.6,0.3,0.9c1.1,4.2,3.2,8.1,4.7,12.3c0.1,0.3,0.4,0.9,0.4,1.2
		c-0.1,1.5,0.6,3,0.9,4.5c0.1,0.6,0.6,1.2-0.1,1.8c-4,0.6-8.2,1.2-12.3,1.5C54.2,55,53.5,55,53.2,54.7z"/>
	<path class="st14" d="M58,24.5c-2.1-4.2-4.4-8.4-6.7-13.1c2.6-0.3,5-0.6,7.3-0.9c0.6,0,1.4,0.3,1.7-0.9c2,2.7,4,4.8,6,7.2
		c0.4,0.6,1,1.2,0.9,2.1c-1.9,0.3-2.9,2.1-4.3,3c-1.4,0.9-2.6,2.4-4.2,3.3C58.4,24.8,58.1,24.8,58,24.5z"/>
	<path class="st5" d="M61,87.3c3.3-0.3,6.4-0.6,9.6-0.9l0.1,0.3c0,0.6-0.3,1.2-0.6,1.8c-1.4,2.7-3.3,5.1-4.9,7.5
		c-0.9,1.5-0.9,1.5,0.9,1.5c2.1,0,4.3,0,6.6,0c0.7,0,1.4,0,2.1,0.6c-1.7,0.9-3.4,0.3-5.2,0.3c-1,0-2,0.3-3,0
		c-2.4-0.3-4.3,0.3-5.4,2.7c-1.9-0.3-3.2-1.5-4-3.3c0-2.4,1.3-4.5,2-6.9C59.7,89.6,59.8,88.1,61,87.3z"/>
	<path class="st8" d="M53.2,54.7c3.9-0.6,7.6-0.9,11.5-1.5c0.9,0,1.7-0.3,2.4,0.3c-2.7,3-5.6,6.3-8.3,9.3h-0.1h-0.1
		c-1,0.6-2,0.6-3.2,0.6c-1.6-0.3-3.3,0.6-4.9-0.6C51.4,60.1,52.4,57.4,53.2,54.7z"/>
	<path class="st3" d="M60,115.6c0.3,0,0.4,0,0.7,0c-0.6,4.2-1.4,8.1-2.1,12c-2.7-1.2-5.7-0.9-8.5-1.5c-1.1-2.4-1.3-4.8-1.1-7.5
		c0.4-0.9,1.3-0.9,2.1-1.2C53.8,116.8,56.8,115.9,60,115.6z"/>
	<path class="st10" d="M55.1,4.5c-4.6,2.4-9.5,4.5-14,7.2c-1.1,1.2-2.7,1.8-4.2,2.4c-1.7,0.9-3.4,1.8-5.2,2.7
		c-0.6,0.3-1.1,0.9-1.9,0.3c2.3-3,5.3-5.1,8-7.5c2-1.8,4-3.9,5.9-5.7C47.5,3.9,51.4,3.9,55.1,4.5z"/>
	<path class="st1" d="M58.4,24.5c2.1-1.8,4.3-3.9,6.4-5.4c0.6-0.3,1-1.8,2-0.6c0.6,5.4,1.3,11.1,1.9,16.4c-0.4,0.3-0.9,0.3-1.1,0
		c-1.4-2.1-3.6-3.9-5.4-5.7c-1-1.2-2-2.1-3-3C58.8,26,58.1,25.4,58.4,24.5z"/>
	<path class="st7" d="M50.1,126.1c1.3-1.2,2.7,0.3,4.2,0c1.1,0,2.1,0.3,3.3,0.3c0.9,0,0.9,0.6,0.9,1.2c-0.6,2.7-1,5.4-1.6,8.4
		c-0.3,0.3-0.9,0.3-1.3,0.6c-1.3,0-2.7,0.3-4-0.3c-0.3-0.3-0.6-0.6-0.7-0.9c-0.6-2.7-1-5.4-1.3-8.1
		C49.6,126.7,49.8,126.4,50.1,126.1z"/>
	<path class="st22" d="M74.9,98c-3.7,0-7.3,0-11.5,0c2.3-3.6,4.4-6.9,6.6-10.2c1.1,0,1.3,0.9,1.6,1.5c1.1,2.7,2.4,5.1,3.2,7.8
		C74.9,97.4,74.9,97.7,74.9,98z"/>
	<path class="st8" d="M66.3,47.2c-1.4-1.2-1.6-3-2.1-4.5c-1.1-3-2.7-6-3.4-9c0.7-0.6,1.1,0,1.6,0.6c2.6,2.1,5,4.5,7.6,6.6
		c0.7,0.6,1.6,1.2,1.3,2.4C69.6,44.2,67.8,45.7,66.3,47.2z"/>
	<path class="st3" d="M57.7,98c1.1,1.2,2.4,2.1,3.7,3c-0.3,0.9-0.6,1.8-0.9,2.7c-0.4,0.9-0.9,2.1-1.4,3c-0.6,0.3-1.1,0.3-1.9,0
		c-1.9-0.6-3.7-1.5-5.6-2.1c-0.6-0.3-1.4-0.3-1.3-1.5c2.3-1.8,4.4-3.6,6.7-5.4C57.4,98,57.5,98,57.7,98z"/>
	<path class="st9" d="M55.8,136c0.3,0,0.7,0,1,0c0.1,0.3,0.3,0.6,0.4,0.6c0.4,2.4,0.1,4.8,0.1,7.2c0,1.2,0.1,2.1,1,3
		c-1,0.6-2,0-3,0.3c-2.1,0-4.3-0.3-6.6,0c-1.9,0-1.9-0.6-1-1.8c1.3-0.9,2.7-0.6,4.2-0.6s2.1-0.6,2.3-2.1s0.4-3.3,0.6-4.8
		C55.1,137.2,55.2,136.3,55.8,136z"/>
	<path class="st14" d="M71.1,43c-0.4-1.8-2.1-2.4-3.4-3.6c-2.3-2.1-4.4-4.2-7.2-6c0-0.3,0-0.6,0-0.6c0.4-0.3,1-0.3,1.4-0.3
		c1.9,0.6,4,0.9,5.7,2.1C68,35,68.4,35,68.8,35c0.9,2.1,1.6,4.2,2.4,6.6C71.4,42.1,72,42.4,71.1,43z"/>
	<path class="st9" d="M70.7,86.4c0-2.1-1.4-3.6-2.3-5.1c-0.7-1.5-0.6-1.8,1-1.8c0.9,0,1.9,0,2.7,0c0.3,2.1,0.6,4.2,0.9,6.3
		c-0.6,0.6-1.3,0.6-2.1,0.3C70.8,86.4,70.8,86.4,70.7,86.4z"/>
	<path class="st9" d="M71,86.4c0.7-0.6,1.4-0.3,2.1-0.3c0.9,3.6,1.3,7.5,1.7,11.4c-1.3-2.1-2.1-4.5-3.2-6.6
		c-0.4-0.9-0.7-2.1-1.6-2.7C70.4,87.3,70.7,87,71,86.4z"/>
	<path class="st22" d="M58.4,146.7c-0.6,0-1.4,0.3-1.4-0.9c0.1-3-0.4-6.3,0.3-9.3c1.7,1.8,2.3,3.9,1.9,6.3c-0.3,0.6-0.1,1.2,0,1.8
		s0.1,1.2-0.4,1.8C58.5,146.7,58.5,146.7,58.4,146.7z"/>
	<path class="st0" d="M58.7,146.7c0.1-1.2-0.1-2.7,0.4-3.9c-0.1,1.2,0.4,1.8,1.7,2.1c1.1,0,2.1,0.6,3.6,0.9
		C62.3,146.4,60.5,146.7,58.7,146.7z"/>
	<path class="st3" d="M48.6,142.5c1.3-2.1,2-4.5,3-6.6c1.4,0,2.9,0,4.2,0c-0.4,2.7-0.9,5.4-1.1,8.1c-0.1,0.9-0.6,1.2-1.4,1.2
		c-1.9,0-3.6,0-5.4,0C47.6,144,48.8,143.7,48.6,142.5z"/>
	<path class="st22" d="M32.9,135.1c0.7,1.8,1.9,3.6,1.4,5.7c-0.3,1.2-0.9,2.1-1,3.3c-0.3,0.9-0.6,1.5-1.7,1.5c-1.1,0-1-0.9-1.1-1.5
		c-0.1-0.3-0.1-0.9-0.1-1.2C30.4,139.8,31.6,137.5,32.9,135.1z"/>
	<path class="st8" d="M29.9,16.7c3-1.5,6-3,9-4.5c0.7-0.3,1.4-0.6,2.1-0.9c3.2,0,6.3,0,9.7,0c-3.4,2.7-7.5,3.6-10.5,6
		c-3.7,0-7.5,0-11.2-0.3C29.3,17.3,29.6,17,29.9,16.7z"/>
	<path class="st8" d="M21.6,13.7c0.3-1.5,0-3-0.3-4.2c-0.1-0.6-0.1-1.5-0.1-2.1c2.6,3,5,6.3,7.2,9.6c-1.9-0.9-3.6-1.8-5.4-3
		C22.6,14,22.1,13.7,21.6,13.7z"/>
	<path class="st5" d="M31.3,30.2c0.6-0.9,1.4-1.5,1.9-2.7c1.4,0,2.7-0.6,4-0.9c0.7-0.3,1.3-0.3,2,0c0.4,0.3,1,0.3,1.6,0.6
		c0.4,0.3,1,0.3,1.4,0.6c-0.6,1.2-2,1.5-2.9,2.4c-0.4,0.6-1,0.6-1.3,1.2c-0.4,0-0.7-0.3-1-0.6c-0.6-0.6-1.3-0.6-1.7,0.3
		c-0.4,0.6-0.1,1.2,0.7,1.5c0.3,0,0.7,0.3,0.9,0.6c-2.3,0.6-2.3,3-3.6,4.5c-0.7,0.9-0.7,2.1-1.7,2.7c-1,0.6-2,0.6-3,0
		c-0.1,0-0.3-0.3-0.4-0.3c0.1,0,0.3-0.3,0.4-0.3c2.4-0.9,2.4-0.9,2.3-3.3c0-1.2-0.4-2.7-0.4-3.9C30.7,31.7,30.7,30.8,31.3,30.2z"/>
	<path class="st5" d="M28,28.1c0.4,0.9,1,1.5,1.4,2.4c0.7,2.7,0.3,5.4-0.9,7.8c-0.4-0.6-1-1.2-1.3-2.1c-0.7-1.5-1.6-2.4-3.2-2.7
		c0.3-0.6,0.9-0.6,1.3-0.9c0.6-0.3,0.7-0.9,0.3-1.5s-1.1-0.6-1.6,0.3c-0.3,0.3-0.3,0.9-0.7,1.2c-0.3-1.8-1.3-3-2.6-3.9
		c-0.3-0.3-1.3-0.6-0.3-1.2C23.1,26.3,25.6,27.2,28,28.1z"/>
	<path class="st23" d="M28.7,38.2c0.3-2.7,0.6-5.1,0.9-7.8c0.6,0,1.3,0,1.9,0c0.1,2.4,0.1,5.1,0.4,7.5c0.1,1.8-0.3,2.7-2.3,2.4
		c-0.4,0-0.7,0-1.1,0C28.4,39.4,28.6,38.8,28.7,38.2z"/>
	<path class="st4" d="M25.7,45.7c-0.3-0.3-0.4-0.6-0.1-0.6c1.6,0,2.9-0.6,4.6-0.6c2,0.3,4,0,6,0.3c0.9,0,0.9,0.3,0.3,0.9
		c-0.3,0-0.6,0.3-1,0.3c-2.1,0.3-4.3,0.9-6.4,0.3C28.1,46,27.4,46,26.6,46C26.3,46,26,45.7,25.7,45.7z"/>
	<path class="st4" d="M35.5,45.7c0.3,0,0.6,0,0.9,0c-1.6,2.1-3.2,3.3-6,3c-2.3-0.3-3.2-2.1-4.6-3c0.3,0,0.6,0,0.9,0
		c0.4,0.3,1,0.3,1.4,0.6C30.6,47.8,33,46.9,35.5,45.7z"/>
	<path class="st24" d="M37,33.5c-1,0-2,0-2.3-1.2c-0.1-0.9,0-1.5,0.9-1.8c1.3-0.6,2,0,2.6,1.2C38,32.3,37.6,32.9,37,33.5z"/>
	<path class="st25" d="M23.4,32.6c0-0.9-0.3-2.1,1-2.4c0.7-0.3,1.4,0,1.9,0.6s0.4,1.2,0.1,1.8c-0.4,1.2-1.4,0.9-2.3,0.9
		C23.8,33.2,23.6,32.9,23.4,32.6z"/>
	<path class="st26" d="M39,26.9c-1.7-0.3-3.2,0.6-4.7,0.9c-0.4,0-1.1,0.6-1.3-0.3c1.7-1.5,4.9-2.1,6.7-1.2
		C39.9,27.2,39.5,26.9,39,26.9z"/>
	<path class="st27" d="M28,28.1c-0.1,0.3-0.3,0.6-0.6,0.3c-2.1-1.2-4.4-1.2-6.9-1.2c2-1.2,4-1.8,6.2-0.6
		C27.3,27.2,27.9,27.2,28,28.1z"/>
	<path class="st3" d="M36.2,42.1c0.4,0.3,1,0.6,1.4,0.9c2.6,1.2,2.6,1.2,0.4,3.6c1-2.7-1.1-3-2.3-4.2C35.7,42.1,35.9,42.1,36.2,42.1
		z"/>
	<path class="st3" d="M26,42.7c-1.1,0.9-2.6,1.5-1.7,3.9c-2-1.8-2-2.1-0.4-3c0.6-0.3,1.3-1.2,2-1.2C26.1,42.1,26.1,42.4,26,42.7
		C26.1,42.4,26.1,42.7,26,42.7z"/>
	<path class="st28" d="M28.7,40.3c1,0,2,0,3,0C30.1,42.4,30.1,42.4,28.7,40.3z"/>
	<path class="st3" d="M36.2,42.1c-0.1,0-0.3,0.3-0.4,0.3c-0.4-0.3-0.7-0.3-1-0.9C35.6,41.5,35.9,41.8,36.2,42.1z"/>
	<path class="st29" d="M39,26.9c0.3,0,0.6-0.3,0.9-0.3c0.4,0.3,0.7,0.3,1.1,0.3c0.1,0.3,0,0.6-0.3,0.3C40.2,27.2,39.6,27.2,39,26.9z
		"/>
	<path class="st30" d="M40.6,27.5c0.1,0,0.3-0.3,0.3-0.3c0.6,0,1,0,1.3,0.6C41.6,27.8,41,27.8,40.6,27.5z"/>
	<path class="st3" d="M26,42.7v-0.3c0.1-0.3,0.6-0.9,0.7-0.6C27,42.1,26.4,42.4,26,42.7z"/>
	<path class="st22" d="M57.7,98c-0.1,0-0.3,0-0.4,0c-2.4,0-4.9,0-7.3,0c-0.6,0-1.3,0.3-1.7-0.3c1.3-3.3,3.3-6.6,5-9.6
		c0.7-1.2,2-1.5,3.2-1.5c1.4,0,3.2-0.3,4.4,0.6H61C60,90.8,58.8,94.4,57.7,98z"/>
	<path class="st5" d="M50.5,103.4c1.7,1.5,4.2,1.5,6,2.7c0.9,0.3,1.7,0.6,2.6,0.9c-1,1.8-2.9,3-4.2,4.8c-0.3,0.3-0.7,0.3-1.1,0.3
		c-0.6-0.3-1.1-0.3-1.7-0.6c-3.3-0.9-3.3-1.2-2.6-4.5C49.6,105.5,49.5,104.3,50.5,103.4z"/>
	<path class="st9" d="M56.1,87.3c-1.1,0-2,0.3-2.7,1.5c-1.9,3-3.2,6.3-5.2,9v-0.3c0.6-5.7,1.3-11.4,2.3-17.3c0.9,0,1,0.6,1.3,1.2
		C53.2,83.1,53.8,85.8,56.1,87.3z"/>
	<path class="st31" d="M42.6,115.6c-0.6,0.9-1,2.1-1.6,3c-3.4-0.6-6.6-1.8-9.7-3C35,115.6,38.9,115.6,42.6,115.6z"/>
	<path class="st32" d="M49.1,118.6c-0.6-0.9-0.4-1.8-0.4-3c3.9,0,7.6,0,11.5,0C56.2,116.5,52.6,117.7,49.1,118.6z"/>
	<path class="st3" d="M50.5,62.7c1.6,0,3.2,0,4.7,0c0,0,0.1,0,0.1,0.3c-0.6,3.9-1.6,7.8-3.4,11.1c-3.4,0.6-6.9,0.3-10.3,0.3
		c-1.4,0-1.4-1.2-1.4-2.4c-0.7,0.6-0.6,1.8-1.7,1.8c-0.1-0.6-0.3-1.2-0.3-1.5c-0.9-2.1-1.3-4.2-0.4-6.3C42,64.8,46.3,63.9,50.5,62.7
		z"/>
	<path class="st6" d="M37.7,65.7c0.1,2.1,0.3,4.2,0.4,6.3c0,0.3,0,0.9-0.1,1.2c-2.1-2.4-3.6-5.1-5.3-7.8c-1.3-2.1-3-3.9-3.7-6.3
		c1.7-1.5,3.6-2.7,5.3-4.2c0.3,0,0.4,0,0.6,0c0.3,0.3,0.6,0.6,0.7,1.2c0.6,2.7,1.4,5.1,2,7.8c0.1,0.3,0.1,0.9,0,1.2
		C37.7,65.7,37.7,65.7,37.7,65.7z"/>
	<path class="st8" d="M67.7,34.7c-2.4-0.6-4.7-1.2-7.2-1.8c-0.1-0.3-0.6-0.3-0.9-0.3c-0.3,0.3-0.4,0.3-0.7,0.3
		c-1.1-0.3-2.3-0.9-3.4-1.2c-0.7-0.3-0.7,0.9-1.4,0.6c-0.4-1.8-2-2.1-3.3-2.7c-0.1-0.3-0.3-0.6-0.4-0.9c2.7-0.9,5.2-2.4,7.6-4.2
		c0.1,0,0.3,0,0.4,0c2.9,3,5.7,5.7,8.6,8.7C67.3,33.8,68.3,34.1,67.7,34.7z"/>
	<path class="st33" d="M37.7,65.4c-1.1-3.3-1.9-6.6-2.7-10.2c3.9,0,7.9,0,12.3,0C43.9,58.9,41.2,62.5,37.7,65.4z"/>
	<path class="st34" d="M54.2,32.3c0.4-0.6,0-1.8,1.4-1.2c1.1,1.2-0.1,2.7,0.1,3.9c1-0.9,1.6-2.4,3.3-2.4c0.3,0,0.4,0,0.6,0
		c0.3,2.4-1.1,4.2-1.4,6.3c-0.1,0.3-0.6,0.3-1.1,0.3c-0.6-0.3-1-1.2-1.9-0.6c-0.6,0.3-1.3,0.3-1.9-0.3c0-0.9,0-1.5,0.3-2.4
		C53.4,34.7,53.5,33.5,54.2,32.3z"/>
	<path class="st4" d="M57.5,40.9c-0.4,1.2-0.7,2.4-1.1,3.6c-0.3,0.6-0.6,1.2-1.4,1.2c-1.9-0.9-2.4-3-1.1-5.1
		c0.3-0.3,0.7-0.3,1.1-0.3c0.6,0,1.3,0,1.9,0C57.1,40.3,57.4,40.6,57.5,40.9z"/>
	<path class="st35" d="M54.2,32.3c-0.1,1.5-0.3,2.7-0.4,3.9c-1.4-2.1-2.1-4.5-3-6.6C53.2,29.6,54.2,30.2,54.2,32.3z"/>
	<path class="st36" d="M54.9,40.6c-0.4,0-0.9,0-1.1,0c-0.4-0.6-0.3-1.5-0.3-2.1c0.6,0,1.3,0,1.9-0.3C55.9,39.1,55.5,39.7,54.9,40.6z
		"/>
	<path class="st4" d="M51.9,74.1c1.1-3.6,2.1-7.5,3.3-11.1c1.1,0,2.1,0,3.3,0c-1,5.7-1.9,11.1-2.7,16.7c-1.7,0.9-3.4,0.9-5.2,0
		c-6,0-12,0-18.1,0c-0.6,0-1.3,0.3-1.7-0.3c2.6-1.8,5.3-3.3,7.9-5.1c0.4-0.6,1.1-0.6,1.7-0.3c3.7,0.6,7.6,0.3,11.3,0.3
		C51.6,74.1,51.8,74.1,51.9,74.1z"/>
	<path class="st9" d="M50.5,79.8c1.7,0,3.4,0,5.2,0c1.7,2.4,3.4,5.1,5.2,7.5c-1.6,0-3.2,0-4.9,0c-1.7-0.3-2.6-1.5-3.3-3
		c-0.6-1.5-1.4-3-2.4-4.2C50.5,79.8,50.5,79.8,50.5,79.8z"/>
	<path class="st37" d="M51.9,74.1c-0.4,0.6-1.1,0.3-1.7,0.3c-3.9,0-7.7,0-11.8,0c0-0.3,0-0.6,0-0.9c0.9-0.9,1.1-2.4,1.9-3.6
		c0.4,0.9,0.3,1.8,0.3,2.7c0,1.2,0.4,1.5,1.4,1.5C45.5,74.1,48.6,74.1,51.9,74.1z"/>
	<path class="st38" d="M57.5,40.9c-0.3,0-0.4,0-0.7,0c-0.4-0.6-0.6-1.2,0.1-1.8c0.4,0,0.9,0,1.4,0C58.1,39.4,57.8,40,57.5,40.9z"/>
	<path class="st39" d="M35.5,45.7c-2.6,2.1-5,2.4-7.9,0.6c0.1-0.9,0.7-0.3,1.1-0.3C31,46.3,33.3,45.7,35.5,45.7z"/>
	<path class="st40" d="M28.7,46c-0.4,0.3-0.9,0-1.1,0.3c-0.4-0.3-0.9-0.3-1-0.6C27.3,45.7,28.1,45.4,28.7,46z"/>
	<path class="st41" d="M59.1,32.6c-1.1,1.2-2.3,2.1-3.6,3.3c-0.4-1.8,0.6-3.3,0.1-4.8C56.8,31.7,58,32,59.1,32.6z"/>
	<path class="st22" d="M56.9,38.8c0,0.6,0,1.2-0.1,1.8c-0.6,0-1.3,0-1.9,0c0.1-0.9,0.3-1.8,0.3-2.7C56.2,37.4,56.9,37.4,56.9,38.8z"
		/>
</g>
</svg>
