<?xml version="1.0" encoding="utf-8"?>
<!-- Generator: Adobe Illustrator 23.1.0, SVG Export Plug-In . SVG Version: 6.00 Build 0)  -->
<svg version="1.1" id="Capa_1" xmlns="http://www.w3.org/2000/svg" xmlns:xlink="http://www.w3.org/1999/xlink" x="0px" y="0px"
	 viewBox="0 0 50 50" style="enable-background:new 0 0 50 50;" xml:space="preserve">
<style type="text/css">
	.st0{fill:#E8E8E8;}
	.st1{fill:#F2F2F2;}
	.st2{fill:#505353;}
	.st3{fill:#714E61;}
	.st4{fill:#FCE5D5;}
	.st5{fill:#B2879B;}
	.st6{fill:#474747;}
	.st7{fill:#F6CAB3;}
	.st8{fill:#868787;}
	.st9{fill:#636566;}
	.st10{fill:#744F62;}
	.st11{fill:#F6CAB4;}
	.st12{fill:#2C2C2C;}
	.st13{fill:#FBE4D4;}
	.st14{fill:#9A6881;}
	.st15{fill:#68696A;}
	.st16{fill:#734F62;}
	.st17{fill:#97667D;}
	.st18{fill:#C3937E;}
	.st19{fill:#96647E;}
	.st20{fill:#B2889B;}
	.st21{fill:#FDF3EB;}
	.st22{fill:#F5CAB3;}
	.st23{fill:#F4C9B3;}
	.st24{fill:#4C4C4B;}
	.st25{fill:#E0B5A0;}
	.st26{fill:#5C384A;}
	.st27{fill:#98677E;}
	.st28{fill:#2F2F2E;}
	.st29{fill:#2F2E2E;}
	.st30{fill:#F9D6C4;}
	.st31{fill:#CCA18D;}
	.st32{fill:#6F7075;}
	.st33{fill:#FDFDFD;}
	.st34{fill:#FBF9F9;}
	.st35{fill:#FCDAC7;}
	.st36{fill:#C2947F;}
	.st37{fill:#FDFCFB;}
	.st38{fill:#C69782;}
	.st39{fill:#C2937E;}
	.st40{fill:#4F4E4D;}
	.st41{fill:#996780;}
	.st42{fill:#EDEDEC;}
	.st43{fill:#FDFCFC;}
	.st44{fill:#C5957F;}
</style>
<g>
	<path class="st0" d="M24.6,49.9c-2.5-0.2-5-0.4-7.6-0.6c-0.4,0-0.9-0.1-1.3-0.1c-0.1-0.1,0-0.1,0.1-0.2c1.5-0.3,3-0.1,4.6-0.1
		c0.5,0,1,0,1.5,0c0.4,0,0.8,0,0.8-0.3c-0.1-0.3-0.7-0.6-0.6-0.9c0-0.1,0.1-0.1,0.2-0.2c2.6-0.4,5.4-0.5,8.1-0.3c1,0.1,2,0,2.9,0.3
		c0.4,0.2,0.5,0.5,0.6,0.7c0.1,0.3,0.4,0.5,0.9,0.1c0.3-0.3,0.9-0.4,1.3-0.2c1.8,0.8,3.9,0.7,6,0.6c0.5,0,1.1,0,1.6,0.1
		c0.1,0.1,0.1,0.1,0,0.2c-3.9,0.3-7.8,0.4-11.6,0.9c-2,0-4.1,0-6.2,0C25.5,49.8,25,50,24.6,49.9z"/>
	<path class="st1" d="M24.6,49.9c0.4,0,0.9-0.1,1.2,0.1c-0.4,0-0.8,0-1.2,0C24.6,50,24.6,49.9,24.6,49.9z"/>
	<path class="st2" d="M13,41.5c-0.1-0.1-0.1-0.2-0.2-0.3c0.5-1.1,1.4-2.2,2.1-3.2c1-1.4,2-2.8,3-4.2c0.2-0.3,0.3-0.5,0.8-0.7
		c0.1,0,0.3-0.1,0.4-0.1c2.8,0.1,5.5,0.3,8.3,0.4c2.1,0.1,4.3,0.2,6.4,0.4c1.1,0.2,0.8,0.7,0.6,1.1c-0.6,1.1-1.3,2.2-2,3.3
		c-0.6,1-1.2,1.9-1.9,2.8C30,42,30,42,28,42c-0.2,0-0.4,0-0.6,0c-2.4,0.1-4.8-0.1-7.2-0.1c-2.3-0.2-4.6-0.1-6.8-0.3
		C13.3,41.6,13.1,41.5,13,41.5z"/>
	<path class="st3" d="M19,33.2c-0.1,0-0.2,0-0.3,0c-0.4,0.1-0.8,0.1-1.2,0.1c-3-0.2-5.9-0.4-8.8-0.6c-0.5,0-1-0.1-1.4-0.3
		c0.5-1,1.5-2,2.2-2.9c0.3-0.5,0.6-0.9,1.1-1.3c1-0.8,0.6-1.4-0.4-2.1c-1.6-1-2.9-2.1-4.3-3.1c-0.5-0.3-0.5-0.6,0-0.9
		c1.8-1.2,3.5-2.5,5.2-3.8c0.1,0,0.2,0,0.3,0c1.8,0.7,2.9,1.7,4.3,2.6c1,0.6,2.2,1.2,2.9,2c-0.3,0.8-1.7,1.2-2.6,1.8
		c-1.1,0.7-2.3,1.4-3.7,2.2c3.5-0.3,6.7-0.6,10-0.9c0.5,0,1-0.1,1.5-0.1c0.2,0,0.3,0.1,0.4,0.2c-0.2,0.8-1,1.5-1.5,2.3
		c-0.9,1.3-2,2.6-2.9,4C19.6,32.7,19.4,33,19,33.2z"/>
	<path class="st4" d="M35.5,9.1c-0.2,0.4-0.2,0.7-0.2,1.1c-0.1,1.8-0.3,3.6-0.5,5.3c0,0.4-0.4,0.5-1,0.5c-1.3,0-2.6-0.1-3.9,0.1
		c-0.2-0.4,0.4-0.6,0.6-1c-1.8,0.2-3.6,0.2-5.1,0.8c-0.5,0.2-1,0.3-1.6,0.4c-1.8,0.1-3.6,0-5.4,0c-0.8,0-1-0.3-1-0.7
		c-0.1-0.8-0.3-1.5-0.3-2.3c0.1-1.5-0.1-3-0.2-4.5c0-0.3,0-0.6,0.1-0.9c0.8-0.6,2-0.7,3.3-0.8c0.3,0,0.6,0.1,0.8,0.2
		c0.7,0.4,1.6,0.7,2.3,1c0.3,0.1,0.7,0.3,0.8,0.5c-0.4,0.8-0.3,0.8,1.2,0.7c0.8,0.2,0.9,0.7,1.3,1c0.4,0.3,0.5,0.7,1,0.9
		c0.2,0.1,0.3,0.2,0.2,0.3c-0.2,0.1-0.1,0.1,0.1,0.2c0.6,0.3,1.1,0.5,1.6-0.1c0.2-0.3,0.3-0.5,0.4-0.8c0.4-0.6,0.2-1.2,1.1-1.7
		c0,0,0.1,0,0.1,0c1.7-0.1,1.7-0.1,1-0.9c0.6-0.6,1.8-0.8,2.8-1.1c0.2-0.1,0.5,0,0.6,0.1C36.1,8,35.5,8.6,35.5,9.1z"/>
	<path class="st2" d="M0.4,6.1c2.7-2,5.5-3.9,8.2-5.9C8.9,0.1,9.2,0,9.7,0c7,0.3,14.1,0.5,21.1,0.8C32.5,0.9,34.2,0.9,36,1
		c0.1,0.1,1.2-0.1,0.4,0.4c-7.7,1.1-15.3,2.2-23,3.3c-3.6,0.5-7.3,1-10.9,1.6C2,6.3,1.5,6.4,0.9,6.4C0.7,6.3,0.4,6.3,0.4,6.1z"/>
	<path class="st5" d="M24.1,26.1c-0.1,0-0.2-0.1-0.3-0.1c0,0,0-0.1,0-0.1c0.7-1.4,1.1-2.9,1.9-4.3c0.5-0.2,0.9-0.1,1.3,0.1
		c0.5,0.2,1,0.4,1.6,0.7c-0.4-1.3-1-2.5-1.4-3.6c0-0.2-0.1-0.3,0-0.5c0.1-0.1,0.2-0.1,0.3,0c0.6,0.1,1.2-0.1,1.8,0.1
		c0.7,0.7,0.8,1.5,1,2.3c0.4,1.2,0.8,2.3,1.2,3.4c0.1,0.4,0.3,0.7,0.7,1c-0.2,0.7,0.1,1.3,0.3,1.9c0.2,0.7,0.6,1.5,0.7,2.2
		c0.1,0.9,0.8,1.7,0.6,2.5c0.2,0.8,0.5,1.5,0.7,2.3c-0.1,0-0.2,0-0.3,0c-3-2.1-5.9-4.3-8.7-6.5C25.1,27,24.4,26.6,24.1,26.1z"/>
	<path class="st6" d="M7.3,32.5c2.3,0.1,4.5,0.3,6.8,0.4c1.6,0.1,3.1,0.2,4.6,0.3c-1.7,2.3-3.3,4.7-5,7c-0.2,0.4-0.4,0.7-0.9,1
		C10.9,38.3,9,35.4,7.3,32.5z"/>
	<path class="st7" d="M17.2,7.8c-0.1,2.2,0.4,4.4,0.3,6.6c0,0.5,0.3,0.9,0.2,1.4c0,0.3,0.3,0.4,0.8,0.4c0,0.1,0,0.1-0.1,0.2
		c-1.3,0.3-2.6,0-4.1,0.2c0.8,0.5,1.9,0.8,2.7,1.2c0.3,0.2,0.9,0.3,0.2,0.6c-2,0.1-4,0.1-5.9,0c-0.1,0-0.1,0-0.2,0
		c-0.2-1-0.8-1.9-1.3-2.8c0,0,0-0.1,0-0.1c0.2-0.5,1.1-0.8,1.2-1.3c0-0.1,0.1-0.2,0.2-0.3c0.9-0.3,1.2-0.8,1.5-1.3
		c0.1-0.3-0.2-0.6-0.4-0.9c-0.1-0.2-0.4-0.4-0.1-0.7c1.4-0.3,1.5-1,1.6-1.7c0-0.3,0-0.5,0.2-0.7c0.1-0.2,0.4-0.4,0.8-0.5
		C15.6,7.9,16.3,7.6,17.2,7.8z"/>
	<path class="st6" d="M14.3,8.5c-0.1,0.6-0.2,1.2-0.3,1.8c-0.1,0.6-1.1,0.5-1.7,0.7c-0.9-0.3-1-0.9-1.3-1.4C10.7,9.2,10.5,9,9.5,9.3
		C7.4,10,7.4,10,8,11.2c0.4,0.7,0.7,1.5,1.1,2.2c0.1,0.5,0.7,1,0.5,1.6c-0.7,0.2-0.8-0.1-1-0.3c-0.4-0.4-0.9-0.8-1.4-1.2
		c-0.4-0.6-1.1-1.1-1.7-1.6c-0.4-0.3-0.8-0.6-0.9-1C3.1,9.5,1.7,8.1,0.4,6.7C0.3,6.4,0.6,6.4,0.9,6.4c1.4,0,2.6,0.3,4,0.4
		c2.7,0.4,5.4,0.7,8.1,1.1C13.5,8,14.4,8,14.3,8.5z"/>
	<path class="st8" d="M17.2,7.8C16.5,7.9,15.7,8,15,8.1c-0.1-0.3,0.3-0.4,0.7-0.5c6.3-2,12.7-4,19.1-6c0.5-0.2,1.1-0.2,1.7-0.4
		C36.6,1,36,1.1,36,1c0.8-0.1,1.3,0,1.6,0.4c0.5,0.6,1.1,1.2,1.7,1.8c0.3,0.3,0.3,0.5-0.4,0.6c-0.5,0.1-1.3,0-1.4,0.5
		c-0.6,0.1-1.2,0.2-1.8,0.3c-3.2,0.5-6.2,1.1-9.4,1.7c-1.6,0.3-3.2,0.6-4.7,0.9c-0.4,0.1-0.8,0.1-1.2,0.1
		C19.3,7.3,18.3,7.6,17.2,7.8z"/>
	<path class="st9" d="M34.5,33.9c0.1,0,0.1,0,0.2,0c0.9,2.7,1.9,5.3,2.8,8c0.1,0.2,0,0.3-0.4,0.3c-2.4,0.1-4.8-0.2-7.3-0.1
		c-0.8-0.1-1.7,0.2-2.3-0.3c2.3-0.1,2.2-0.1,3-1.2c1.3-2,2.6-4,3.8-6.1c0.1-0.3,0.2-0.5-0.3-0.6C34.1,33.9,34.3,33.9,34.5,33.9z"/>
	<path class="st3" d="M32.3,25.1c-1,0-0.9-0.4-1-0.7c-0.6-1.5-1-2.9-1.5-4.4c-0.2-0.6-0.5-1.1-0.5-1.7c3.5,2,6.9,4,10.4,6.1
		c0,0.1-0.1,0.2-0.3,0.2c-2.1,0.3-4.2,0.4-6.3,0.6C32.8,25.2,32.5,25.2,32.3,25.1z"/>
	<path class="st2" d="M4.6,10.9c0.9,0.7,1.8,1.5,2.7,2.2c0.2,0.1,0.1,0.2,0,0.3c0.1,0.5-0.6,0.8-1,1.2c-1,0.5-1.4,1.2-2.1,1.8
		c-0.8,0.7-1.5,1.4-2.4,2.2c-0.3-1.6-0.6-3-0.8-4.5c-0.1-0.6-0.1-1.2-0.3-1.7c-0.2-0.5,0.2-0.7,1.1-0.8C2.7,11.4,3.8,11.3,4.6,10.9z
		"/>
	<path class="st4" d="M39.5,24.5c0.1-0.1,0.2-0.1,0.2-0.2c0,0,0.1,0.1,0.1,0.1c-1.9,1.8-3.5,3.7-5.6,5.4c-0.9,0-0.9-0.3-1.2-0.6
		c-0.2-0.8-0.5-1.5-0.7-2.3c0.1-0.4-0.2-0.9,0.5-1.3C35,25.3,37.2,24.7,39.5,24.5z"/>
	<path class="st7" d="M13,41.5c0.1,0,0.2,0,0.2,0c2.4,0.4,4.4,1,6.6,1.6c0.3,0.1,0.5,0.2,0.6,0.3c0.1,0.7,0.3,1.4-0.1,2.1
		c-1.4,0.4-2.9,0.4-4.3,0.4c-0.1-0.8-1-1.5-1.5-2.2C14,42.9,13.5,42.2,13,41.5z"/>
	<path class="st7" d="M37.2,42.2c0.2,0,0.2-0.1,0.3-0.2c0.4,1,0.8,2.1,1.2,3.1c0.2,0.5-0.5,0.4-0.9,0.4c-1.1,0.1-2.2,0-3.2,0.1
		c-0.2,0-0.4,0-0.6,0c-0.7-0.7-2-1.2-2.2-2C33.4,43,35.2,42.5,37.2,42.2z"/>
	<path class="st7" d="M27.6,18.2L27.6,18.2l-0.1,0c-1.3,0.3-2.6,0.2-3.9,0.1c-0.3-0.1-0.4-0.3-0.4-0.4c0.2-0.6,0.2-1.2,1-1.7
		c2-0.8,4.3-1.1,6.9-1.2c-0.4,0.4-0.8,0.8-1.2,1.2C29.1,16.8,28.1,17.4,27.6,18.2z"/>
	<path class="st6" d="M35.8,4.5c0.4-0.3,0.9-0.5,1.7-0.3c0.7,0.7,1.9,1.3,1.9,2c0,0.7-1.5,1.2-2.3,1.8c-0.5,0.4-1.1,0.7-1.6,1.1
		c-0.4-0.6,0.1-1.2,0-1.7c-0.3-0.2-0.6-0.3-0.6-0.6c0-0.1,0.1-0.2,0.2-0.3c0.1-0.5,0.3-1,0.3-1.5C35.4,4.9,35.4,4.7,35.8,4.5z"/>
	<path class="st4" d="M34.2,45.5c1.1-0.3,2.2-0.1,3.3-0.2c0.4,0,1,0.1,1.2-0.3c0.4,0.5,0.8,0.9,1.2,1.4c-0.5,0.6-1.7,0.8-2.8,1.1
		C35.5,47.3,34.2,46.4,34.2,45.5z"/>
	<path class="st4" d="M16,45.9c1.3-0.3,2.7-0.4,4.2-0.4c0.8,0.2,0.8,0.6,0.8,1c-1.3,0.7-3.1,1-4.7,1.4C16,48,15.7,48,15.5,47.8
		c0-0.6,0-1.2,0.4-1.8C16,46,16,45.9,16,45.9z"/>
	<path class="st10" d="M16,46c0.1,0.6-0.1,1.2-0.2,1.8c0.2,0.1,0.3,0.3,0.5,0.4c1.6,0.2,3.2,0,4.8,0.1c0.6,0,1.2,0,1.8,0.2
		c0.4,0.5,0.1,0.7-0.9,0.7c-2.1,0-4.2,0-6.2,0c-0.8-0.3-0.9-0.7-1-1.1C14.3,47.2,15.4,46.6,16,46z"/>
	<path class="st0" d="M14.7,48c0.3,0.4,0.6,0.8,1,1.1c0,0,0,0.1,0,0.1c-2.8-0.2-5.6-0.4-8.4-0.6c0,0,0-0.1,0-0.1
		c2.2-0.1,4.4-0.3,6.6-0.4C14.2,48.1,14.5,48,14.7,48z"/>
	<path class="st11" d="M33.1,29.2c0.3,0.2,0.6,0.5,1.2,0.6c0.3,0.3,0.8,0.5,1.3,0.6c0.3,0.1,0.9,0.3,0.8,0.5
		c-0.1,0.2-0.7,0.3-1.1,0.3c-0.5,0.1-1,0.2-1.3,0.4C33.5,30.9,33.3,30,33.1,29.2z"/>
	<path class="st0" d="M43.6,49.1c0-0.1,0-0.1,0-0.2c-0.4-0.2-0.3-0.5-0.3-0.7c0-0.3,0-0.5,0.3-0.7c0.2,0.8,1.3,0.8,2.6,0.9
		c1.2,0.1,2.4,0.1,3.8,0.3C47.7,48.8,45.7,49,43.6,49.1z"/>
	<path class="st12" d="M6.4,14.6c-0.1-0.5,0.7-0.8,1-1.2c0.7,0.3,1,0.7,1.5,1.1C9,14.7,9.1,14.9,9.5,15c0.5,0.1,0.5,0.3,0.2,0.5l0,0
		C8.7,15.2,7.5,14.9,6.4,14.6z"/>
	<path class="st13" d="M40.6,47c0.7,0.2,1.2,0.6,2,0.6c0,0.3-0.5,0.3-0.9,0.3c-0.9,0.1-1.7,0.3-2.5,0.4c-0.5,0-0.9-0.1-1.1-0.3
		C38.3,47.5,39.4,47,40.6,47z"/>
	<path class="st14" d="M40.6,47c-0.8,0.3-1.9,0.5-2.4,1c-0.7,0-1-0.2-1-0.5c0.9-0.3,1.8-0.7,2.7-1C40.3,46.6,40.5,46.8,40.6,47z"/>
	<path class="st11" d="M39.2,48.2c1.1-0.3,2.4-0.3,3.5-0.6c0.3,0,0.6-0.1,1-0.1c0,0.3,0,0.5,0,0.8C42.1,48.5,40.6,48.6,39.2,48.2z"
		/>
	<path class="st15" d="M0.9,6.5c-0.2,0-0.4,0-0.5,0.2C0,6.5,0,6.3,0.4,6.1c0.1,0.1,0.3,0.1,0.5,0.1C1.1,6.3,1.1,6.4,0.9,6.5z"/>
	<path class="st16" d="M33.2,47.6c-0.6-0.8,0.3-1.4,0.6-2.1c0.1,0,0.2,0,0.4,0c0.7,0.8,1.3,1.6,3,2c0.3,0.2,0.7,0.3,1,0.5
		c0.3,0.1,0.5,0.3,0.9,0.2c1.5,0,3,0,4.4,0c0,0.2,0,0.5,0,0.7c-1.1,0-2.1,0-3.2,0c-1.6,0.1-3.1-0.1-4.4-0.6c-0.5-0.2-0.9-0.3-1,0.2
		c0,0.2-0.2,0.4-0.7,0.4c-0.6,0-0.6-0.2-0.7-0.4C33.4,48.2,33.3,47.9,33.2,47.6z"/>
	<path class="st11" d="M22.9,48.5c-2,0-4.1,0-6.1,0c-0.3,0-0.7,0.1-1-0.1c0.3-0.3,0.7-0.4,1.3-0.4c1.2,0.1,2.3-0.2,3.5-0.3
		c0.5-0.1,1.1-0.2,1.6,0C22.3,48,22.8,48.2,22.9,48.5z"/>
	<path class="st13" d="M22.1,47.7c-1.4,0-2.6,0.3-3.9,0.4c-0.4,0.1-0.9,0.1-1.3,0c0.3-0.3,1-0.4,1.6-0.5c0.9-0.2,1.8-0.5,2.6-0.8
		c0.4,0.2,0.3,0.6,0.9,0.8C22.1,47.7,22.1,47.7,22.1,47.7z"/>
	<path class="st17" d="M34.5,33.9c-0.2,0-0.3,0-0.5,0c-3.9-0.2-7.8-0.4-11.6-0.6c-1.1-0.1-2.3-0.1-3.4-0.2c0.5-1.1,1.5-2.2,2.2-3.2
		c1-1.3,2-2.6,2.9-3.9c2.2,1.5,4.1,3.1,6.2,4.7C31.7,31.8,33.3,32.8,34.5,33.9z"/>
	<path class="st18" d="M20.2,41.7c0,0.5,0,1,0,1.5c-2.4-0.5-4.7-1.1-6.9-1.7C15.5,41.5,17.9,41.6,20.2,41.7z"/>
	<path class="st19" d="M23.8,25.9c-3.1,0.3-6.2,0.6-9.4,0.9c-0.8,0.1-1.7,0.2-2.7,0.3c0.6-0.6,1.6-1,2.3-1.5
		c1.2-0.7,2.5-1.4,3.7-2.2c0.3-0.2,0.7-0.4,0.7-0.6c0.1,0,0.2-0.1,0.3,0c1.8,0.9,3.4,1.8,4.9,2.8C23.8,25.7,23.9,25.8,23.8,25.9
		C23.9,25.9,23.8,25.9,23.8,25.9z"/>
	<path class="st20" d="M18.7,22.8c-0.1,0-0.2,0-0.3,0c-2.4-1.5-4.8-3-7.2-4.5c1.3-0.3,2.6-0.1,3.9-0.1c0.8,0,1.6,0,2.3,0
		c0.1,0,0.2,0,0.3,0c0.1,0.1,0.1,0.1,0.2,0.2c0.1,0.5,0,1.1,0.1,1.6c0,0.4,0.3,0.5,1,0.3c0.8-0.2,1.4-0.5,2.4-0.4
		c0.3,0.2,0.2,0.4,0.1,0.5c-0.7,0.8-1.4,1.5-2.2,2.2C19.2,22.7,19,22.8,18.7,22.8z"/>
	<path class="st21" d="M27.8,11.8c0-0.1-0.1-0.2-0.2-0.2c-0.8-0.8-0.9-1.8-1.3-2.6c-0.1-0.4-0.6-0.7,0.1-1.1c1.2-0.2,2.5-0.2,3.7,0
		c0.5,0.7,0.3,1.5,0.2,2.3c-0.2,0.4-0.2,0.7-0.3,1.1C29.9,12,29.3,12.1,27.8,11.8z"/>
	<path class="st22" d="M30,10.1c0-0.8,0-1.5,0-2.3c0.1,0,0.2,0,0.3,0c0.2,0.1,0.1,0.3,0.3,0.4c1-0.5,2-1,3-1.5
		c0.5-0.2,1-0.4,1.4,0.1c0.1,0.2,0.6,0.3,0.4,0.5c-1.2,0.3-2.2,0.7-3.2,1.1c-0.6,0.2-1,0.5-1,0.9c-0.7,0.5-0.7,1.2-1,1.8
		C29.5,10.8,30,10.5,30,10.1z"/>
	<path class="st23" d="M26.6,8.9c0.3,0.9,0.6,1.8,1,2.6c-0.8-0.2-0.8-0.7-1.3-1.1c-0.3-0.3-0.4-0.6-0.9-0.8
		c-0.3-0.3-0.7-0.6-1.3-0.8c-1-0.5-2.3-0.8-3.2-1.4c0.3-0.1,0.6,0,0.8,0C23.4,8,25.1,8.3,26.6,8.9z"/>
	<path class="st24" d="M26.6,8.9C25.3,8.8,24.2,8.3,23,8c-0.7-0.2-1.4-0.4-2-0.5c-0.2-0.1-0.3-0.1-0.5-0.2c0.3-0.2,0.6-0.2,1-0.2
		c1.8,0,3.4,0.3,4.8,0.8C26.4,8.2,26.5,8.6,26.6,8.9z"/>
	<path class="st25" d="M24.1,16.2c-0.2,0.7-0.5,1.3-0.7,2c-0.1,0-0.2,0-0.4,0c-0.7-0.3-0.9-0.7-1.3-1.1c-0.4-0.5-1-0.7-2.1-0.7
		c-0.4,0-0.9,0-1.2-0.2c0,0,0-0.1,0-0.1C20.3,16.2,22.2,16.2,24.1,16.2z"/>
	<path class="st26" d="M23.6,13.2c-0.3-0.2-0.8-0.2-0.9-0.6c1.8,0.6,4,0.3,5.8,0.7c0,0,0,0,0,0.1c0,0-0.1,0.1-0.1,0.1
		C26.7,13.9,25.1,13.6,23.6,13.2z"/>
	<path class="st27" d="M23.6,13.2c1.6,0.2,3.1,0.5,4.8,0.3C26.8,14.3,25.7,14.1,23.6,13.2z"/>
	<path class="st28" d="M31.3,9.4c-0.4-0.6-0.3-0.7,1-0.9c0.6,0.2,1,0.4,0.6,0.8C32.5,9.6,31.9,9.6,31.3,9.4z"/>
	<path class="st29" d="M24.1,8.9c1.1,0,1.5,0.2,1.3,0.8c-0.5,0.2-1.1,0.4-1.6,0C23.3,9.4,23.5,9.1,24.1,8.9z"/>
	<path class="st30" d="M30,10.1c0.1,0.3-0.2,0.7,0.2,1c-0.2,0.3-0.1,0.5-0.5,0.8c-0.7,0.2-1.3,0.2-2,0c-0.2-0.1-0.1-0.1,0-0.1
		c0.2,0,0.5,0,0.7,0c0.9,0.1,1.3-0.1,1.3-0.6C29.8,10.8,29.6,10.4,30,10.1z"/>
	<path class="st31" d="M27.8,11.9c0.7,0,1.3,0,2,0C29,12.6,29,12.6,27.8,11.9z"/>
	<path class="st32" d="M0.9,6.5c0-0.1,0-0.2,0-0.2c11.6-1.7,23.2-3.3,34.8-5c0.2,0,0.5,0,0.7-0.1c-4.9,1.6-9.9,3.1-14.8,4.7
		c-2.2,0.7-4.6,1.4-6.7,2.2c-0.4,0.1-0.5,0.2-0.7,0.4C14,8.1,13.2,8.1,12.6,8C8.7,7.5,4.8,7,0.9,6.5z"/>
	<path class="st4" d="M23.1,18.1c0.1,0,0.2,0,0.3,0c1.3,0,2.7,0,4,0c0,0.1,0.1,0.3,0.1,0.4c-0.5,0.7-0.6,1.4-0.9,2.1
		c-0.1,0.3-0.2,0.7-0.8,0.9c-0.4,1.5-1,3-1.9,4.4c-1.7-1.1-3.6-2-5.2-3.1c1-0.9,2.1-1.8,2.7-2.9c-0.1-0.2,0.2-0.3,0.3-0.4
		c1.1-1.1,1.1-1.1-1.2-1.1c-0.7,0-1.5,0-2.2,0c-0.2,0-0.3-0.1-0.4-0.2c0,0,0-0.1,0-0.1C19.5,17.8,21.3,17.9,23.1,18.1z"/>
	<path class="st33" d="M25.8,21.5c0.4-0.9,0.8-1.8,1.2-2.8c0-0.1,0-0.3,0.5-0.2c0.5,1.3,1.1,2.7,1.6,4.1
		C27.8,22.3,27.2,21.7,25.8,21.5z"/>
	<path class="st34" d="M33,25.7c-0.2,0.4-0.4,0.8-0.6,1.2c-0.2-0.4-0.3-0.8-0.5-1.2c-0.1-0.3-0.1-0.5,0.5-0.6c0.2,0,0.5,0,0.7,0
		C33.8,25.3,33.3,25.5,33,25.7z"/>
	<path class="st35" d="M8.9,13.4c-0.5-1-1-2.1-1.5-3.1C7.2,10,7.2,9.8,7.7,9.7c1-0.3,2-0.6,3-0.9c0.5,0.8,1.1,1.5,1.6,2.2
		c0,0.5,1,1,0.7,1.5c-0.5,0.3-1.3,0.4-2,0.7c-0.5-0.1-1-0.2-1.2,0.2C9.5,13.4,9.2,13.6,8.9,13.4z"/>
	<path class="st18" d="M23.1,18.1c-1.8,0-3.6,0-5.4,0c-0.1,0-0.2,0-0.3,0c-1.3-0.6-2.6-1.2-3.9-1.7c0-0.1,0-0.1,0-0.2
		c1.6,0,3.2,0,4.8,0c2.2-0.2,3.5,0.3,4.1,1.3C22.7,17.8,22.9,18,23.1,18.1z"/>
	<path class="st36" d="M8.9,13.4c0.3,0,0.6-0.1,0.9-0.1c0.3,0.4,0.4,0.8,1.5,0.9c-0.3,0.5-0.8,1-1.5,1.4c0-0.2-0.1-0.3-0.2-0.5
		C9.3,14.5,9.1,13.9,8.9,13.4z"/>
	<path class="st37" d="M11.3,14.1c-0.2,0-0.4,0-0.6,0c-0.8,0.2-1,0-0.9-0.4c0-0.2,0-0.3,0-0.5c0-0.2,0-0.4,0.5-0.5
		c0.6-0.1,0.4,0.3,0.6,0.4c0.4,0.2,0.6,0.4,0.3,0.6C11.3,13.9,11.3,14,11.3,14.1z"/>
	<path class="st38" d="M11.3,13.8c-0.1-0.2-0.2-0.4-0.3-0.6c0.4-0.5,1.3-0.5,2-0.6c-0.1,0.4-0.7,0.8-1,1.2
		C11.8,13.8,11.6,13.9,11.3,13.8z"/>
	<path class="st4" d="M26.3,7.9c-1.6-0.3-3.2-0.5-4.8-0.8C21.5,7,21.7,6.9,22,6.9c4.3-0.8,8.6-1.6,12.9-2.4c0.3-0.1,0.6-0.2,0.9,0
		c-0.1,0.6-0.1,1.2-0.2,1.7c0,0.2,0.2,0.4-0.3,0.5c-0.6-0.4-1.2-0.4-2,0c-0.9,0.4-1.6,1-3,1.2c-0.1,0-0.1,0-0.2,0
		C28.8,7.9,27.6,7.9,26.3,7.9z"/>
	<path class="st18" d="M31.8,43.6c-0.7-0.5-1.3-1.1-2-1.6c2.5,0,5,0.1,7.4,0.2C35.4,42.7,33.6,43.1,31.8,43.6z"/>
	<path class="st39" d="M33,25.7c0-0.2,0.4-0.4,0.1-0.6c2.1-0.3,4.3-0.5,6.4-0.6c-2,0.5-4.1,0.9-6.1,1.3C33.2,25.7,33.1,25.8,33,25.7
		z"/>
	<path class="st40" d="M30.3,7.9c1-0.5,2-0.9,3-1.3C34.5,6,34.5,6,35.2,6.8c-0.1,0-0.1,0.1-0.2,0.1c-0.4-0.3-0.8-0.2-1.2,0
		c-1.1,0.6-2.2,1.2-3.4,1.8C30.1,8.4,30.4,8.1,30.3,7.9z"/>
	<path class="st41" d="M21.2,46.9c0,0.3-0.4,0.3-0.7,0.4c-1.2,0.3-2.3,0.6-3.5,0.9c-0.4,0.1-0.8,0.2-1.2,0.3c0-0.2,0-0.4,0-0.6
		c1.8-0.3,3.4-0.9,5.1-1.3C21,46.6,21.1,46.8,21.2,46.9z"/>
	<path class="st42" d="M21.9,19.7c-0.2,0.1-0.3,0.2-0.5,0.2c-0.9,0.2-1.9,0.4-2.8,0.7c-0.7,0.2-0.9,0.1-0.9-0.3c0-0.7,0-1.3,0-2
		c0.1,0,0.3,0,0.4,0C19.6,18.6,20.7,19.2,21.9,19.7z"/>
	<path class="st43" d="M21.9,19.7c-1.5-0.3-2.5-0.9-3.7-1.4c1.2,0,2.4,0,3.7,0c1.4,0,1.4,0,0.7,0.7C22.4,19.2,22.1,19.4,21.9,19.7z"
		/>
	<path class="st44" d="M11.5,11.5c-1.1-0.2-1.7-0.6-2.5-0.9c-0.3-0.1-0.6-0.3-0.1-0.4c0.5-0.1,1-0.6,1.5-0.2
		C11,10.5,11.3,10.9,11.5,11.5z"/>
</g>
</svg>
