<?xml version="1.0" encoding="utf-8"?>
<!-- Generator: Adobe Illustrator 23.1.0, SVG Export Plug-In . SVG Version: 6.00 Build 0)  -->
<svg version="1.1" id="Capa_1" xmlns="http://www.w3.org/2000/svg" xmlns:xlink="http://www.w3.org/1999/xlink" x="0px" y="0px"
	 viewBox="0 0 87.3 149.6" style="enable-background:new 0 0 87.3 149.6;" xml:space="preserve">
<style type="text/css">
	.st0{fill:#E8E8E8;}
	.st1{fill:#F2F2F2;}
	.st2{fill:#505353;}
	.st3{fill:#714E61;}
	.st4{fill:#FCE5D5;}
	.st5{fill:#B2879B;}
	.st6{fill:#474747;}
	.st7{fill:#F6CAB3;}
	.st8{fill:#868787;}
	.st9{fill:#636566;}
	.st10{fill:#744F62;}
	.st11{fill:#F6CAB4;}
	.st12{fill:#2C2C2C;}
	.st13{fill:#FBE4D4;}
	.st14{fill:#9A6881;}
	.st15{fill:#68696A;}
	.st16{fill:#734F62;}
	.st17{fill:#97667D;}
	.st18{fill:#C3937E;}
	.st19{fill:#96647E;}
	.st20{fill:#B2889B;}
	.st21{fill:#FDF3EB;}
	.st22{fill:#F5CAB3;}
	.st23{fill:#F4C9B3;}
	.st24{fill:#4C4C4B;}
	.st25{fill:#E0B5A0;}
	.st26{fill:#5C384A;}
	.st27{fill:#98677E;}
	.st28{fill:#2F2F2E;}
	.st29{fill:#2F2E2E;}
	.st30{fill:#F9D6C4;}
	.st31{fill:#CCA18D;}
	.st32{fill:#6F7075;}
	.st33{fill:#FDFDFD;}
	.st34{fill:#FBF9F9;}
	.st35{fill:#FCDAC7;}
	.st36{fill:#C2947F;}
	.st37{fill:#FDFCFB;}
	.st38{fill:#C69782;}
	.st39{fill:#C2937E;}
	.st40{fill:#4F4E4D;}
	.st41{fill:#996780;}
	.st42{fill:#EDEDEC;}
	.st43{fill:#FDFCFC;}
	.st44{fill:#C5957F;}
</style>
<g>
	<path class="st0" d="M42.5,149.7c-4.5-0.6-9-1.2-13.7-1.8c-0.7,0-1.6-0.3-2.3-0.3c-0.2-0.3,0-0.3,0.2-0.6c2.7-0.9,5.4-0.3,8.3-0.3
		c0.9,0,1.8,0,2.7,0c0.7,0,1.4,0,1.4-0.9c-0.2-0.9-1.3-1.8-1.1-2.7c0-0.3,0.2-0.3,0.4-0.6c4.7-1.2,9.7-1.5,14.6-0.9
		c1.8,0.3,3.6,0,5.2,0.9c0.7,0.6,0.9,1.5,1.1,2.1c0.2,0.9,0.7,1.5,1.6,0.3c0.5-0.9,1.6-1.2,2.3-0.6c3.2,2.4,7,2.1,10.8,1.8
		c0.9,0,2,0,2.9,0.3c0.2,0.3,0.2,0.3,0,0.6c-7,0.9-14.1,1.2-20.9,2.7c-3.6,0-7.4,0-11.2,0C44.1,149.4,43.2,150,42.5,149.7z"/>
	<path class="st1" d="M42.5,149.7c0.7,0,1.6-0.3,2.2,0.3c-0.7,0-1.4,0-2.2,0V149.7z"/>
	<path class="st2" d="M21.5,124.5c-0.2-0.3-0.2-0.6-0.4-0.9c0.9-3.3,2.5-6.6,3.8-9.6c1.8-4.2,3.6-8.4,5.4-12.6
		c0.4-0.9,0.5-1.5,1.4-2.1c0.2,0,0.5-0.3,0.7-0.3c5.1,0.3,9.9,0.9,15,1.2c3.8,0.3,7.8,0.6,11.5,1.2c2,0.6,1.4,2.1,1.1,3.3
		c-1.1,3.3-2.3,6.6-3.6,9.9c-1.1,3-2.2,5.7-3.4,8.4c-0.9,3-0.9,3-4.5,3c-0.4,0-0.7,0-1.1,0c-4.3,0.3-8.7-0.3-13-0.3
		c-4.1-0.6-8.3-0.3-12.3-0.9C22.1,124.8,21.7,124.5,21.5,124.5z"/>
	<path class="st3" d="M32.4,99.6c-0.2,0-0.4,0-0.5,0c-0.7,0.3-1.4,0.3-2.2,0.3c-5.4-0.6-10.6-1.2-15.9-1.8c-0.9,0-1.8-0.3-2.5-0.9
		c0.9-3,2.7-6,4-8.7c0.5-1.5,1.1-2.7,2-3.9c1.8-2.4,1.1-4.2-0.7-6.3c-2.9-3-5.2-6.3-7.8-9.3c-0.9-0.9-0.9-1.8,0-2.7
		c3.2-3.6,6.3-7.5,9.4-11.4c0.2,0,0.4,0,0.5,0c3.2,2.1,5.2,5.1,7.8,7.8c1.8,1.8,4,3.6,5.2,6c-0.5,2.4-3.1,3.6-4.7,5.4
		c-2,2.1-4.1,4.2-6.7,6.6c6.3-0.9,12.1-1.8,18-2.7c0.9,0,1.8-0.3,2.7-0.3c0.4,0,0.5,0.3,0.7,0.6c-0.4,2.4-1.8,4.5-2.7,6.9
		c-1.6,3.9-3.6,7.8-5.2,12C33.4,98.1,33.1,99,32.4,99.6z"/>
	<path class="st4" d="M62.1,27.3c-0.4,1.2-0.4,2.1-0.4,3.3c-0.2,5.4-0.5,10.8-0.9,15.9c0,1.2-0.7,1.5-1.8,1.5c-2.3,0-4.7-0.3-7,0.3
		c-0.4-1.2,0.7-1.8,1.1-3c-3.2,0.6-6.5,0.6-9.2,2.4c-0.9,0.6-1.8,0.9-2.9,1.2c-3.2,0.3-6.5,0-9.7,0c-1.4,0-1.8-0.9-1.8-2.1
		c-0.2-2.4-0.5-4.5-0.5-6.9c0.2-4.5-0.2-9-0.4-13.5c0-0.9,0-1.8,0.2-2.7c1.4-1.8,3.6-2.1,6-2.4c0.5,0,1.1,0.3,1.4,0.6
		c1.3,1.2,2.9,2.1,4.1,3c0.5,0.3,1.3,0.9,1.4,1.5c-0.7,2.4-0.5,2.4,2.2,2.1c1.4,0.6,1.6,2.1,2.3,3c0.7,0.9,0.9,2.1,1.8,2.7
		c0.4,0.3,0.5,0.6,0.4,0.9c-0.4,0.3-0.2,0.3,0.2,0.6c1.1,0.9,2,1.5,2.9-0.3c0.4-0.9,0.5-1.5,0.7-2.4c0.7-1.8,0.4-3.6,2-5.1h0.2
		c3.1-0.3,3.1-0.3,1.8-2.7c1.1-1.8,3.2-2.4,5.1-3.3c0.4-0.3,0.9,0,1.1,0.3C63.2,24,62.1,25.8,62.1,27.3z"/>
	<path class="st2" d="M-1.2,18.3c4.9-6,9.9-11.7,14.8-17.7c0.5-0.3,1.1-0.6,2-0.6C28.2,0.9,41,1.5,53.6,2.4C56.7,2.7,59.8,2.7,63,3
		c0.2,0.3,2.2-0.3,0.7,1.2c-13.9,3.3-27.6,6.6-41.5,9.9c-6.5,1.5-13.2,3-19.7,4.8c-0.9,0-1.8,0.3-2.9,0.3
		C-0.7,18.9-1.2,18.9-1.2,18.3z"/>
	<path class="st5" d="M41.6,78.3c-0.2,0-0.4-0.3-0.5-0.3v-0.3c1.3-4.2,2-8.7,3.4-12.9c0.9-0.6,1.6-0.3,2.3,0.3
		c0.9,0.6,1.8,1.2,2.9,2.1c-0.7-3.9-1.8-7.5-2.5-10.8c0-0.6-0.2-0.9,0-1.5c0.2-0.3,0.4-0.3,0.5,0c1.1,0.3,2.2-0.3,3.2,0.3
		c1.3,2.1,1.4,4.5,1.8,6.9c0.7,3.6,1.4,6.9,2.2,10.2c0.2,1.2,0.5,2.1,1.3,3c-0.4,2.1,0.2,3.9,0.5,5.7c0.4,2.1,1.1,4.5,1.3,6.6
		c0.2,2.7,1.4,5.1,1.1,7.5c0.4,2.4,0.9,4.5,1.3,6.9c-0.2,0-0.4,0-0.5,0c-5.4-6.3-10.6-12.9-15.7-19.5C43.4,81,42.1,79.8,41.6,78.3z"
		/>
	<path class="st6" d="M11.3,97.5c4.1,0.3,8.1,0.9,12.3,1.2c2.9,0.3,5.6,0.6,8.3,0.9c-3.1,6.9-6,14.1-9,21c-0.4,1.2-0.7,2.1-1.6,3
		C17.7,114.9,14.3,106.2,11.3,97.5z"/>
	<path class="st7" d="M29.1,23.4c-0.2,6.6,0.7,13.2,0.5,19.8c0,1.5,0.5,2.7,0.4,4.2c0,0.9,0.5,1.2,1.4,1.2c0,0.3,0,0.3-0.2,0.6
		c-2.3,0.9-4.7,0-7.4,0.6c1.4,1.5,3.4,2.4,4.9,3.6c0.5,0.6,1.6,0.9,0.4,1.8c-3.6,0.3-7.2,0.3-10.6,0c-0.2,0-0.2,0-0.4,0
		c-0.4-3-1.4-5.7-2.3-8.4v-0.3c0.4-1.5,2-2.4,2.2-3.9c0-0.3,0.2-0.6,0.4-0.9c1.6-0.9,2.2-2.4,2.7-3.9c0.2-0.9-0.4-1.8-0.7-2.7
		c-0.2-0.6-0.7-1.2-0.2-2.1c2.5-0.9,2.7-3,2.9-5.1c0-0.9,0-1.5,0.4-2.1c0.2-0.6,0.7-1.2,1.4-1.5C26.2,23.7,27.5,22.8,29.1,23.4z"/>
	<path class="st6" d="M23.9,25.5c-0.2,1.8-0.4,3.6-0.5,5.4c-0.2,1.8-2,1.5-3.1,2.1c-1.6-0.9-1.8-2.7-2.3-4.2
		c-0.5-1.2-0.9-1.8-2.7-0.9c-3.8,2.1-3.8,2.1-2.7,5.7c0.7,2.1,1.3,4.5,2,6.6c0.2,1.5,1.3,3,0.9,4.8c-1.3,0.6-1.4-0.3-1.8-0.9
		c-0.7-1.2-1.6-2.4-2.5-3.6c-0.7-1.8-2-3.3-3.1-4.8c-0.7-0.9-1.4-1.8-1.6-3c-2.7-4.2-5.2-8.4-7.6-12.6c-0.2-0.9,0.4-0.9,0.9-0.9
		c2.5,0,4.7,0.9,7.2,1.2c4.9,1.2,9.7,2.1,14.6,3.3C22.4,24,24.1,24,23.9,25.5z"/>
	<path class="st8" d="M29.1,23.4c-1.3,0.3-2.7,0.6-4,0.9c-0.2-0.9,0.5-1.2,1.3-1.5c11.4-6,22.9-12,34.4-18c0.9-0.6,2-0.6,3.1-1.2
		C64.1,3,63,3.3,63,3c1.4-0.3,2.3,0,2.9,1.2c0.9,1.8,2,3.6,3.1,5.4c0.5,0.9,0.5,1.5-0.7,1.8c-0.9,0.3-2.3,0-2.5,1.5
		c-1.1,0.3-2.2,0.6-3.2,0.9c-5.8,1.5-11.2,3.3-17,5.1c-2.9,0.9-5.8,1.8-8.5,2.7c-0.7,0.3-1.4,0.3-2.2,0.3
		C32.9,21.9,31.1,22.8,29.1,23.4z"/>
	<path class="st9" d="M60.3,101.7c0.2,0,0.2,0,0.4,0c1.6,8.1,3.4,15.9,5.1,24c0.2,0.6,0,0.9-0.7,0.9c-4.3,0.3-8.7-0.6-13.2-0.3
		c-1.4-0.3-3.1,0.6-4.1-0.9c4.1-0.3,4-0.3,5.4-3.6c2.3-6,4.7-12,6.9-18.3c0.2-0.9,0.4-1.5-0.5-1.8C59.6,101.7,59.9,101.7,60.3,101.7
		z"/>
	<path class="st3" d="M56.3,75.3c-1.8,0-1.6-1.2-1.8-2.1c-1.1-4.5-1.8-8.7-2.7-13.2c-0.4-1.8-0.9-3.3-0.9-5.1
		c6.3,6,12.4,12,18.8,18.3c0,0.3-0.2,0.6-0.5,0.6c-3.8,0.9-7.6,1.2-11.4,1.8C57.2,75.6,56.7,75.6,56.3,75.3z"/>
	<path class="st2" d="M6.4,32.7c1.6,2.1,3.2,4.5,4.9,6.6c0.4,0.3,0.2,0.6,0,0.9c0.2,1.5-1.1,2.4-1.8,3.6c-1.8,1.5-2.5,3.6-3.8,5.4
		c-1.4,2.1-2.7,4.2-4.3,6.6c-0.5-4.8-1.1-9-1.4-13.5c-0.2-1.8-0.2-3.6-0.5-5.1s0.4-2.1,2-2.4C3,34.2,4.9,33.9,6.4,32.7z"/>
	<path class="st4" d="M69.3,73.5c0.2-0.3,0.4-0.3,0.4-0.6l0.2,0.3c-3.4,5.4-6.3,11.1-10.1,16.2c-1.6,0-1.6-0.9-2.2-1.8
		c-0.4-2.4-0.9-4.5-1.3-6.9c0.2-1.2-0.4-2.7,0.9-3.9C61.2,75.9,65.2,74.1,69.3,73.5z"/>
	<path class="st7" d="M21.5,124.5c0.2,0,0.4,0,0.4,0c4.3,1.2,7.9,3,11.9,4.8c0.5,0.3,0.9,0.6,1.1,0.9c0.2,2.1,0.5,4.2-0.2,6.3
		c-2.5,1.2-5.2,1.2-7.8,1.2c-0.2-2.4-1.8-4.5-2.7-6.6C23.3,128.7,22.4,126.6,21.5,124.5z"/>
	<path class="st7" d="M65.2,126.6c0.4,0,0.4-0.3,0.5-0.6c0.7,3,1.4,6.3,2.2,9.3c0.4,1.5-0.9,1.2-1.6,1.2c-2,0.3-4,0-5.8,0.3
		c-0.4,0-0.7,0-1.1,0c-1.3-2.1-3.6-3.6-4-6C58.3,129,61.6,127.5,65.2,126.6z"/>
	<path class="st7" d="M47.9,54.6L47.9,54.6h-0.2c-2.3,0.9-4.7,0.6-7,0.3c-0.5-0.3-0.7-0.9-0.7-1.2c0.4-1.8,0.4-3.6,1.8-5.1
		c3.6-2.4,7.8-3.3,12.4-3.6c-0.7,1.2-1.4,2.4-2.2,3.6C50.6,50.4,48.8,52.2,47.9,54.6z"/>
	<path class="st6" d="M62.7,13.5c0.7-0.9,1.6-1.5,3.1-0.9c1.3,2.1,3.4,3.9,3.4,6S66.4,22.2,65,24c-0.9,1.2-2,2.1-2.9,3.3
		c-0.7-1.8,0.2-3.6,0-5.1c-0.5-0.6-1.1-0.9-1.1-1.8c0-0.3,0.2-0.6,0.4-0.9c0.2-1.5,0.5-3,0.5-4.5C61.9,14.7,61.9,14.1,62.7,13.5z"/>
	<path class="st4" d="M59.8,136.5c2-0.9,4-0.3,6-0.6c0.7,0,1.8,0.3,2.2-0.9c0.7,1.5,1.4,2.7,2.2,4.2c-0.9,1.8-3.1,2.4-5.1,3.3
		C62.1,141.9,59.8,139.2,59.8,136.5z"/>
	<path class="st4" d="M26.9,137.7c2.3-0.9,4.9-1.2,7.6-1.2c1.4,0.6,1.4,1.8,1.4,3c-2.3,2.1-5.6,3-8.5,4.2c-0.5,0.3-1.1,0.3-1.4-0.3
		c0-1.8,0-3.6,0.7-5.4C26.9,138,26.9,137.7,26.9,137.7z"/>
	<path class="st10" d="M26.9,138c0.2,1.8-0.2,3.6-0.4,5.4c0.4,0.3,0.5,0.9,0.9,1.2c2.9,0.6,5.8,0,8.7,0.3c1.1,0,2.2,0,3.2,0.6
		c0.7,1.5,0.2,2.1-1.6,2.1c-3.8,0-7.6,0-11.2,0c-1.4-0.9-1.6-2.1-1.8-3.3C23.9,141.6,25.9,139.8,26.9,138z"/>
	<path class="st0" d="M24.6,144c0.5,1.2,1.1,2.4,1.8,3.3v0.3c-5.1-0.6-10.1-1.2-15.2-1.8v-0.3c4-0.3,7.9-0.9,11.9-1.2
		C23.7,144.3,24.2,144,24.6,144z"/>
	<path class="st11" d="M57.8,87.6c0.5,0.6,1.1,1.5,2.2,1.8c0.5,0.9,1.4,1.5,2.3,1.8c0.5,0.3,1.6,0.9,1.4,1.5c-0.2,0.6-1.3,0.9-2,0.9
		c-0.9,0.3-1.8,0.6-2.3,1.2C58.5,92.7,58.1,90,57.8,87.6z"/>
	<path class="st0" d="M76.7,147.3c0-0.3,0-0.3,0-0.6c-0.7-0.6-0.5-1.5-0.5-2.1c0-0.9,0-1.5,0.5-2.1c0.4,2.4,2.3,2.4,4.7,2.7
		c2.2,0.3,4.3,0.3,6.9,0.9C84.1,146.4,80.5,147,76.7,147.3z"/>
	<path class="st12" d="M9.6,43.8c-0.2-1.5,1.3-2.4,1.8-3.6c1.3,0.9,1.8,2.1,2.7,3.3c0.2,0.6,0.4,1.2,1.1,1.5
		c0.9,0.3,0.9,0.9,0.4,1.5l0,0C13.8,45.6,11.6,44.7,9.6,43.8z"/>
	<path class="st13" d="M71.3,141c1.3,0.6,2.2,1.8,3.6,1.8c0,0.9-0.9,0.9-1.6,0.9c-1.6,0.3-3.1,0.9-4.5,1.2c-0.9,0-1.6-0.3-2-0.9
		C67.2,142.5,69.1,141,71.3,141z"/>
	<path class="st14" d="M71.3,141c-1.4,0.9-3.4,1.5-4.3,3c-1.3,0-1.8-0.6-1.8-1.5c1.6-0.9,3.2-2.1,4.9-3
		C70.8,139.8,71.1,140.4,71.3,141z"/>
	<path class="st11" d="M68.8,144.6c2-0.9,4.3-0.9,6.3-1.8c0.5,0,1.1-0.3,1.8-0.3c0,0.9,0,1.5,0,2.4C74,145.5,71.3,145.8,68.8,144.6z
		"/>
	<path class="st15" d="M-0.3,19.5c-0.4,0-0.7,0-0.9,0.6c-0.7-0.6-0.7-1.2,0-1.8c0.2,0.3,0.5,0.3,0.9,0.3C0.1,18.9,0.1,19.2-0.3,19.5
		z"/>
	<path class="st16" d="M58,142.8c-1.1-2.4,0.5-4.2,1.1-6.3c0.2,0,0.4,0,0.7,0c1.3,2.4,2.3,4.8,5.4,6c0.5,0.6,1.3,0.9,1.8,1.5
		c0.5,0.3,0.9,0.9,1.6,0.6c2.7,0,5.4,0,7.9,0c0,0.6,0,1.5,0,2.1c-2,0-3.8,0-5.8,0c-2.9,0.3-5.6-0.3-7.9-1.8
		c-0.9-0.6-1.6-0.9-1.8,0.6c0,0.6-0.4,1.2-1.3,1.2c-1.1,0-1.1-0.6-1.3-1.2C58.3,144.6,58.1,143.7,58,142.8z"/>
	<path class="st11" d="M39.4,145.5c-3.6,0-7.4,0-11,0c-0.5,0-1.3,0.3-1.8-0.3c0.5-0.9,1.3-1.2,2.3-1.2c2.2,0.3,4.1-0.6,6.3-0.9
		c0.9-0.3,2-0.6,2.9,0C38.3,144,39.2,144.6,39.4,145.5z"/>
	<path class="st13" d="M37.9,143.1c-2.5,0-4.7,0.9-7,1.2c-0.7,0.3-1.6,0.3-2.3,0c0.5-0.9,1.8-1.2,2.9-1.5c1.6-0.6,3.2-1.5,4.7-2.4
		c0.7,0.6,0.5,1.8,1.6,2.4C37.9,143.1,37.9,143.1,37.9,143.1z"/>
	<path class="st17" d="M60.3,101.7c-0.4,0-0.5,0-0.9,0c-7-0.6-14.1-1.2-20.9-1.8c-2-0.3-4.1-0.3-6.1-0.6c0.9-3.3,2.7-6.6,4-9.6
		c1.8-3.9,3.6-7.8,5.2-11.7c4,4.5,7.4,9.3,11.2,14.1C55.3,95.4,58.1,98.4,60.3,101.7z"/>
	<path class="st18" d="M34.5,125.1c0,1.5,0,3,0,4.5c-4.3-1.5-8.5-3.3-12.4-5.1C26,124.5,30.4,124.8,34.5,125.1z"/>
	<path class="st19" d="M41,77.7c-5.6,0.9-11.2,1.8-17,2.7c-1.4,0.3-3.1,0.6-4.9,0.9c1.1-1.8,2.9-3,4.1-4.5c2.2-2.1,4.5-4.2,6.7-6.6
		c0.5-0.6,1.3-1.2,1.3-1.8c0.2,0,0.4-0.3,0.5,0c3.2,2.7,6.1,5.4,8.8,8.4C41,77.1,41.2,77.4,41,77.7C41.2,77.7,41,77.7,41,77.7z"/>
	<path class="st20" d="M31.8,68.4c-0.2,0-0.4,0-0.5,0c-4.3-4.5-8.7-9-13-13.5c2.3-0.9,4.7-0.3,7-0.3c1.4,0,2.9,0,4.1,0
		c0.2,0,0.4,0,0.5,0c0.2,0.3,0.2,0.3,0.4,0.6c0.2,1.5,0,3.3,0.2,4.8c0,1.2,0.5,1.5,1.8,0.9c1.4-0.6,2.5-1.5,4.3-1.2
		c0.5,0.6,0.4,1.2,0.2,1.5c-1.3,2.4-2.5,4.5-4,6.6C32.7,68.1,32.4,68.4,31.8,68.4z"/>
	<path class="st21" d="M48.2,35.4c0-0.3-0.2-0.6-0.4-0.6c-1.4-2.4-1.6-5.4-2.3-7.8c-0.2-1.2-1.1-2.1,0.2-3.3c2.2-0.6,4.5-0.6,6.7,0
		c0.9,2.1,0.5,4.5,0.4,6.9c-0.4,1.2-0.4,2.1-0.5,3.3C52,36,50.9,36.3,48.2,35.4z"/>
	<path class="st22" d="M52.2,30.3c0-2.4,0-4.5,0-6.9c0.2,0,0.4,0,0.5,0c0.4,0.3,0.2,0.9,0.5,1.2c1.8-1.5,3.6-3,5.4-4.5
		c0.9-0.6,1.8-1.2,2.5,0.3c0.2,0.6,1.1,0.9,0.7,1.5c-2.2,0.9-4,2.1-5.8,3.3c-1.1,0.6-1.8,1.5-1.8,2.7c-1.3,1.5-1.3,3.6-1.8,5.4
		C51.3,32.4,52.2,31.5,52.2,30.3z"/>
	<path class="st23" d="M46.1,26.7c0.5,2.7,1.1,5.4,1.8,7.8c-1.4-0.6-1.4-2.1-2.3-3.3c-0.5-0.9-0.7-1.8-1.6-2.4
		c-0.5-0.9-1.3-1.8-2.3-2.4c-1.8-1.5-4.1-2.4-5.8-4.2c0.5-0.3,1.1,0,1.4,0C40.3,24,43.4,24.9,46.1,26.7z"/>
	<path class="st24" d="M46.1,26.7c-2.3-0.3-4.3-1.8-6.5-2.7c-1.3-0.6-2.5-1.2-3.6-1.5c-0.4-0.3-0.5-0.3-0.9-0.6
		c0.5-0.6,1.1-0.6,1.8-0.6c3.2,0,6.1,0.9,8.7,2.4C45.7,24.6,45.9,25.8,46.1,26.7z"/>
	<path class="st25" d="M41.6,48.6c-0.4,2.1-0.9,3.9-1.3,6c-0.2,0-0.4,0-0.7,0c-1.3-0.9-1.6-2.1-2.3-3.3c-0.7-1.5-1.8-2.1-3.8-2.1
		c-0.7,0-1.6,0-2.2-0.6v-0.3C34.7,48.6,38.1,48.6,41.6,48.6z"/>
	<path class="st26" d="M40.7,39.6C40.1,39,39.2,39,39,37.8c3.2,1.8,7.2,0.9,10.5,2.1c0,0,0,0,0,0.3l-0.2,0.3
		C46.2,41.7,43.4,40.8,40.7,39.6z"/>
	<path class="st27" d="M40.7,39.6c2.9,0.6,5.6,1.5,8.7,0.9C46.4,42.9,44.4,42.3,40.7,39.6z"/>
	<path class="st28" d="M54.5,28.2c-0.7-1.8-0.5-2.1,1.8-2.7c1.1,0.6,1.8,1.2,1.1,2.4C56.7,28.8,55.6,28.8,54.5,28.2z"/>
	<path class="st29" d="M41.6,26.7c2,0,2.7,0.6,2.3,2.4c-0.9,0.6-2,1.2-2.9,0C40.1,28.2,40.5,27.3,41.6,26.7z"/>
	<path class="st30" d="M52.2,30.3c0.2,0.9-0.4,2.1,0.4,3c-0.4,0.9-0.2,1.5-0.9,2.4c-1.3,0.6-2.3,0.6-3.6,0c-0.4-0.3-0.2-0.3,0-0.3
		c0.4,0,0.9,0,1.3,0c1.6,0.3,2.3-0.3,2.3-1.8C51.8,32.4,51.5,31.2,52.2,30.3z"/>
	<path class="st31" d="M48.2,35.7c1.3,0,2.3,0,3.6,0C50.4,37.8,50.4,37.8,48.2,35.7z"/>
	<path class="st32" d="M-0.3,19.5c0-0.3,0-0.6,0-0.6c20.9-5.1,41.8-9.9,62.8-15c0.4,0,0.9,0,1.3-0.3C54.9,8.4,45.9,12.9,37,17.7
		c-4,2.1-8.3,4.2-12.1,6.6c-0.7,0.3-0.9,0.6-1.3,1.2c-0.4-1.2-1.8-1.2-2.9-1.5C13.8,22.5,6.7,21-0.3,19.5z"/>
	<path class="st4" d="M39.7,54.3c0.2,0,0.4,0,0.5,0c2.3,0,4.9,0,7.2,0c0,0.3,0.2,0.9,0.2,1.2c-0.9,2.1-1.1,4.2-1.6,6.3
		c-0.2,0.9-0.4,2.1-1.4,2.7c-0.7,4.5-1.8,9-3.4,13.2c-3.1-3.3-6.5-6-9.4-9.3c1.8-2.7,3.8-5.4,4.9-8.7c-0.2-0.6,0.4-0.9,0.5-1.2
		c2-3.3,2-3.3-2.2-3.3c-1.3,0-2.7,0-4,0c-0.4,0-0.5-0.3-0.7-0.6v-0.3C33.3,53.4,36.5,53.7,39.7,54.3z"/>
	<path class="st33" d="M44.6,64.5c0.7-2.7,1.4-5.4,2.2-8.4c0-0.3,0-0.9,0.9-0.6c0.9,3.9,2,8.1,2.9,12.3
		C48.2,66.9,47.1,65.1,44.6,64.5z"/>
	<path class="st34" d="M57.6,77.1c-0.4,1.2-0.7,2.4-1.1,3.6c-0.4-1.2-0.5-2.4-0.9-3.6c-0.2-0.9-0.2-1.5,0.9-1.8c0.4,0,0.9,0,1.3,0
		C59,75.9,58.1,76.5,57.6,77.1z"/>
	<path class="st35" d="M14.1,40.2c-0.9-3-1.8-6.3-2.7-9.3c-0.4-0.9-0.4-1.5,0.5-1.8c1.8-0.9,3.6-1.8,5.4-2.7c0.9,2.4,2,4.5,2.9,6.6
		c0,1.5,1.8,3,1.3,4.5c-0.9,0.9-2.3,1.2-3.6,2.1c-0.9-0.3-1.8-0.6-2.2,0.6C15.2,40.2,14.7,40.8,14.1,40.2z"/>
	<path class="st18" d="M39.7,54.3c-3.2,0-6.5,0-9.7,0c-0.2,0-0.4,0-0.5,0c-2.3-1.8-4.7-3.6-7-5.1c0-0.3,0-0.3,0-0.6
		c2.9,0,5.8,0,8.7,0c4-0.6,6.3,0.9,7.4,3.9C39,53.4,39.4,54,39.7,54.3z"/>
	<path class="st36" d="M14.1,40.2c0.5,0,1.1-0.3,1.6-0.3c0.5,1.2,0.7,2.4,2.7,2.7c-0.5,1.5-1.4,3-2.7,4.2c0-0.6-0.2-0.9-0.4-1.5
		C14.9,43.5,14.5,41.7,14.1,40.2z"/>
	<path class="st37" d="M18.5,42.3c-0.4,0-0.7,0-1.1,0c-1.4,0.6-1.8,0-1.6-1.2c0-0.6,0-0.9,0-1.5s0-1.2,0.9-1.5
		c1.1-0.3,0.7,0.9,1.1,1.2c0.7,0.6,1.1,1.2,0.5,1.8C18.5,41.7,18.5,42,18.5,42.3z"/>
	<path class="st38" d="M18.5,41.4c-0.2-0.6-0.4-1.2-0.5-1.8c0.7-1.5,2.3-1.5,3.6-1.8c-0.2,1.2-1.3,2.4-1.8,3.6
		C19.4,41.4,19,41.7,18.5,41.4z"/>
	<path class="st4" d="M45.5,23.7c-2.9-0.9-5.8-1.5-8.7-2.4c0-0.3,0.4-0.6,0.9-0.6c7.8-2.4,15.5-4.8,23.3-7.2c0.5-0.3,1.1-0.6,1.6,0
		c-0.2,1.8-0.2,3.6-0.4,5.1c0,0.6,0.4,1.2-0.5,1.5c-1.1-1.2-2.2-1.2-3.6,0c-1.6,1.2-2.9,3-5.4,3.6c-0.2,0-0.2,0-0.4,0
		C50,23.7,47.9,23.7,45.5,23.7z"/>
	<path class="st18" d="M55.4,130.8c-1.3-1.5-2.3-3.3-3.6-4.8c4.5,0,9,0.3,13.3,0.6C61.9,128.1,58.7,129.3,55.4,130.8z"/>
	<path class="st39" d="M57.6,77.1c0-0.6,0.7-1.2,0.2-1.8c3.8-0.9,7.8-1.5,11.5-1.8c-3.6,1.5-7.4,2.7-11,3.9
		C58,77.1,57.8,77.4,57.6,77.1z"/>
	<path class="st40" d="M52.7,23.7c1.8-1.5,3.6-2.7,5.4-3.9c2.2-1.8,2.2-1.8,3.4,0.6c-0.2,0-0.2,0.3-0.4,0.3c-0.7-0.9-1.4-0.6-2.2,0
		c-2,1.8-4,3.6-6.1,5.4C52.4,25.2,52.9,24.3,52.7,23.7z"/>
	<path class="st41" d="M36.3,140.7c0,0.9-0.7,0.9-1.3,1.2c-2.2,0.9-4.1,1.8-6.3,2.7c-0.7,0.3-1.4,0.6-2.2,0.9c0-0.6,0-1.2,0-1.8
		c3.2-0.9,6.1-2.7,9.2-3.9C36,139.8,36.1,140.4,36.3,140.7z"/>
	<path class="st42" d="M37.6,59.1c-0.4,0.3-0.5,0.6-0.9,0.6c-1.6,0.6-3.4,1.2-5.1,2.1c-1.3,0.6-1.6,0.3-1.6-0.9c0-2.1,0-3.9,0-6
		c0.2,0,0.5,0,0.7,0C33.4,55.8,35.4,57.6,37.6,59.1z"/>
	<path class="st43" d="M37.6,59.1c-2.7-0.9-4.5-2.7-6.7-4.2c2.2,0,4.3,0,6.7,0c2.5,0,2.5,0,1.3,2.1C38.5,57.6,37.9,58.2,37.6,59.1z"
		/>
	<path class="st44" d="M18.8,34.5c-2-0.6-3.1-1.8-4.5-2.7c-0.5-0.3-1.1-0.9-0.2-1.2c0.9-0.3,1.8-1.8,2.7-0.6
		C17.9,31.5,18.5,32.7,18.8,34.5z"/>
</g>
</svg>
