<?xml version="1.0" encoding="utf-8"?>
<!-- Generator: Adobe Illustrator 23.1.0, SVG Export Plug-In . SVG Version: 6.00 Build 0)  -->
<svg version="1.1" id="Capa_1" xmlns="http://www.w3.org/2000/svg" xmlns:xlink="http://www.w3.org/1999/xlink" x="0px" y="0px"
	 viewBox="0 0 50 50" style="enable-background:new 0 0 50 50;" xml:space="preserve">
<style type="text/css">
	.st0{fill:#E7E8E8;}
	.st1{fill:#898989;}
	.st2{fill:#EECFCA;}
	.st3{fill:#543042;}
	.st4{fill:#B2879C;}
	.st5{fill:#606060;}
	.st6{fill:#9E9E9E;}
	.st7{fill:#E8E8E8;}
	.st8{fill:#3A9FB9;}
	.st9{fill:#4F4F4F;}
	.st10{fill:#6D6D6D;}
	.st11{fill:#328FA6;}
	.st12{fill:#6E6E6E;}
	.st13{fill:#464546;}
	.st14{fill:#616161;}
	.st15{fill:#4A494A;}
	.st16{fill:#FDEDE8;}
	.st17{fill:#318EA5;}
	.st18{fill:#5B5B5B;}
	.st19{fill:#EECFCB;}
	.st20{fill:#6F6F6F;}
	.st21{fill:#C8A4A0;}
	.st22{fill:#CDA39F;}
	.st23{fill:#707070;}
	.st24{fill:#8A8989;}
	.st25{fill:#CEA4A0;}
	.st26{fill:#1E7678;}
	.st27{fill:#FDFDFD;}
	.st28{fill:#5DBFD7;}
	.st29{fill:#734C5F;}
	.st30{fill:#FEF4F2;}
	.st31{fill:#EDCEC9;}
	.st32{fill:#FAEAE5;}
	.st33{fill:#535656;}
	.st34{fill:#525556;}
	.st35{fill:#F1D4CF;}
	.st36{fill:#727375;}
	.st37{fill:#747577;}
	.st38{fill:#EFD0CB;}
	.st39{fill:#EED0CB;}
	.st40{fill:#2F2F2F;}
	.st41{fill:#EFD1CC;}
	.st42{fill:#F0D2CD;}
	.st43{fill:#F9E8E4;}
	.st44{fill:#F5DCD7;}
	.st45{fill:#5EBFD8;}
	.st46{fill:#CBA39F;}
	.st47{fill:#5BA6B7;}
	.st48{fill:#28788C;}
	.st49{fill:#494849;}
	.st50{fill:#399FB8;}
	.st51{fill:#318FA5;}
	.st52{fill:#626161;}
	.st53{fill:#626262;}
	.st54{fill:#343333;}
	.st55{fill:#D0A7A3;}
	.st56{fill:#8CE6F5;}
	.st57{fill:#89E2F1;}
	.st58{fill:#E7F3F5;}
	.st59{fill:#F2F8FA;}
	.st60{fill:#1F686B;}
	.st61{fill:#F3F9FA;}
	.st62{fill:#FAFCFC;}
	.st63{fill:#499DA0;}
	.st64{fill:#40999B;}
	.st65{fill:#8BE6F5;}
	.st66{fill:#47A3B7;}
	.st67{fill:#71CDE1;}
	.st68{fill:#3B99AF;}
	.st69{fill:#4CAAC2;}
</style>
<g>
	<path class="st0" d="M24.2,50c-3.2-0.5-6.6-0.7-9.9-1.1c-1.2-0.1-2.5-0.2-3.7-0.4c0.2-0.4,0.9-0.3,1.4-0.3c1.9,0,3.8,0,5.7,0
		c0.5,0,1.1,0,1.6-0.1c1.1-0.1,2.3-0.5,3.5,0c0.4,0.8,1.6,0.9,3,0.8c2.3,0,4.6,0,6.9,0c0.6,0,1.3,0,1.8,0.2
		c-2.2,0.4-4.5,0.4-6.7,0.6c-0.6,0.1-1.3,0.1-1.8,0.2C25.5,50,24.8,50,24.2,50z"/>
	<path class="st1" d="M18.1,0.4c0.3-0.2,0.9,0,1.1-0.2c0.5,0,0.9,0,1.4,0c1,0.2,2.2,0.2,3.3,0.3c0.1,0.2-0.3,0.3-0.6,0.4
		c-1.4,0.4-2.8,0.9-4.3,1.3c-0.3,0.1,0.3,0.1,0.1,0.2c-1.8,0.5-3.3,0.1-4.9-0.3c-0.3-0.4,0.5-0.4,0.9-0.6C16,1.1,17.3,0.9,18.1,0.4z
		"/>
	<path class="st2" d="M37,13.8c-0.5,1-0.9,2.1-1.4,3.1c-0.8,0.3-1.7,0.2-2.6,0.2c-1.6,0.1-3.3,0.2-4.9,0.2c-1.1-0.1-2.3-0.1-3.5-0.2
		c-0.5,0-1,0-1.3-0.2c0.7-0.4,0.9-0.8,1-1.3c1.2-3.1,2.4-6.1,3.6-9.2c0.5-1.3,2.5-2.3,4.4-3.2c0.2,0,0.3,0,0.4,0
		c0.6,0.8,0.8,1.7,1.1,2.5c-0.2,0.6-1,1.2-1.3,1.8c0.2,0.9,0.9,1.7,1.1,2.5c0.7-0.5,1-1.2,2-1.7c1.5,0,2.7,0.3,3.7,0.8
		c0.1,0.6-0.4,1.1-0.6,1.6c-0.1,0.3-0.2,0.6-0.7,0.9c-1,0.2-1.9-0.1-3,0C35.2,12.4,36.7,13,37,13.8C37,13.7,37,13.8,37,13.8z"/>
	<path class="st3" d="M39.8,35.7c-1,2.3-2,4.5-3.3,6.7c-0.6,0.2-1.3,0.1-2,0c-3.3-0.2-6.6-0.3-9.8-0.5c-0.5,0-0.9-0.1-1.3-0.2
		c-0.4-0.1-0.6-0.3-0.7-0.6c-0.7-1.1-1.3-2.3-1.9-3.4c-0.1-0.2-0.2-0.4,0.1-0.6c0.8-0.3,1.9-0.2,2.9-0.4c4.7-0.4,9.4-0.8,14.1-1.2
		c0.5,0,1.1-0.1,1.6,0C39.5,35.6,39.7,35.6,39.8,35.7z"/>
	<path class="st4" d="M48.3,28c-1.2,1.3-2.5,2.6-3.7,3.8c-0.2,0.2-0.7,0.3-1.2,0.3c-3.1-0.2-6.2-0.4-9.3-0.5c-1.3-0.2-2.7,0-3.9-0.4
		c-0.2-0.1-0.3-0.3-0.2-0.4c0.4-1,0.5-2,1.1-3c0.1-0.1,0.2-0.1,0.3-0.2c0.6-0.1,1.3-0.1,2-0.1c1.5,0.1,3,0.1,4.4,0.1
		c0.2,0,0.4,0,0.5,0c2.8,0,5.5,0,8.3,0C47.3,27.7,48,27.6,48.3,28z"/>
	<path class="st3" d="M23.4,41.7c2,0.1,3.9,0.3,5.9,0.4c2.4,0.1,4.8,0.2,7.2,0.4c-0.5,1.2-1,2.4-1.5,3.6c-0.1,0.3-0.3,0.5-0.1,0.8
		c0.1,0.1,0.1,0.2,0,0.3c-2.2-0.6-4.9-0.6-7.3-0.9C27,46,26.4,46,26,45.9c-0.1,0-0.2-0.1-0.4-0.1c-1.1-1.3-2-2.6-2.4-4
		C23.3,41.7,23.3,41.7,23.4,41.7z"/>
	<path class="st4" d="M48.3,28c-0.3-0.2-0.8-0.1-1.2-0.1c-3,0-6,0-8.9,0c-0.5-0.2-0.2-0.5-0.1-0.8c1.6-2.3,3.4-4.6,5-6.8
		c0.1-0.2,0.3-0.4,0.7-0.5c1.2,1.7,1.9,3.4,2.9,5.1c0.5,0.9,1,1.8,1.5,2.8C48.4,27.7,48.6,27.9,48.3,28z"/>
	<path class="st3" d="M43.9,19.7c-1.8,2.4-3.6,4.8-5.4,7.3c-0.2,0.3-0.5,0.5-0.4,0.8c-0.1,0-0.2,0-0.3,0c-1.9-1-3.7-2-5.4-3.1
		c-0.2-0.1-0.4-0.3-0.3-0.5c0.4-0.2,0.8-0.2,1.3-0.1c0.3,0,0.6,0.1,0.9,0.1c1.9,0.1,1.9,0.1,2.6-0.7c0.1-0.1,0.1-0.2,0.2-0.2
		c0.3-0.4,0.9-0.7,0.7-1.2c-0.7-0.9-1.7-1.8-2.5-2.7c-0.2-0.2-0.5-0.4-0.3-0.6c0.1-0.1,0.2-0.1,0.4,0C38.2,19,41.1,19.3,43.9,19.7z"
		/>
	<path class="st5" d="M33.5,5.8c-0.3-0.9-0.6-1.7-0.9-2.6c0.5-0.2,1-0.1,1.5,0c2.2,0.4,4.6,0.7,6.7,1.3c0.3,0,0.5,0.1,0.6,0.2
		c0.2,0.8,0,1.7,0.1,2.5c0,0.2-0.2,0.4-0.7,0.3C38.3,7,35.7,6.7,33.5,5.8C33.4,5.8,33.6,5.9,33.5,5.8z"/>
	<path class="st6" d="M33.5,5.8c2.3,0.6,4.7,1,7,1.5c0.7,0.1,0.8,0,0.8-0.3c0-0.8,0-1.6,0.1-2.4c0.4,0.6,0.2,1.3,0.2,1.9
		c0.1,1.6,0,3.1,0,4.7c0,0.2,0.2,0.5-0.2,0.7c-0.1,0-0.2-0.1-0.3-0.1C40.9,11.4,41,11,41,10.7c0.1-0.5-0.1-1-1.3-1.2
		c-0.2,0-0.4-0.2-0.5-0.3C38,8.9,37,8.6,35.7,8.4c-1.2-0.2-2.5-0.5-3.5-0.9C32.6,7,33,6.4,33.5,5.8z"/>
	<path class="st7" d="M34.8,47c0-0.1,0.1-0.2,0.1-0.2c2.7,0.2,5.3,0.3,8,0.5c2.3,0.2,4.5,0.3,7.1,0.5c-1.8,0.3-3.4,0.4-5,0.5
		c-3.1,0.3-6.2,0.5-9.3,0.8c-0.2,0-0.4,0-0.7,0c-0.1-0.3,0.1-0.6-0.2-0.9C34.8,47.8,34.3,47.4,34.8,47z"/>
	<path class="st8" d="M43.6,32c0.4,0,0.7-0.1,1-0.1c0.2,0.7,1,1.3,1.5,2c0.1,0.2,0.7,0.4,0,0.6c-2.4-0.1-4.6-0.5-7-0.8
		c-0.8-0.1-1.7-0.2-2.6-0.3c-0.5-0.1-1-0.1-1.2-0.3c0.2-0.3,0.7-0.3,1.2-0.3C38.9,32.4,41.1,32,43.6,32z"/>
	<path class="st9" d="M35.2,48.3c0.2,0.3,0.2,0.6-0.1,0.9c-0.2,0-0.3,0-0.5,0c-3.3,0-6.6,0-9.9,0c-1.1,0-2,0-1.8-0.7
		c0-0.1-0.2-0.2-0.3-0.2c0.2-0.1,0.4-0.1,0.7-0.1c3.3,0.1,6.6,0,9.9,0C33.8,48.1,34.5,48,35.2,48.3z"/>
	<path class="st10" d="M40.8,4.4c-2.1-0.3-4.2-0.7-6.3-1c-0.6-0.1-1.2-0.3-1.9-0.2c-0.1,0-0.1,0-0.2,0c-1.4,0-2.6-0.4-3.9-0.6
		c-0.3-0.1-0.6-0.2-0.5-0.4c1.8-0.4,3.6-0.5,5.5-0.3C36,2.7,38.5,3.6,40.8,4.4z"/>
	<path class="st1" d="M33.5,1.9C31.6,2,29.8,2,28,2.3c-1.6,0-2.9-0.2-3.9-0.7c1.1-0.6,2.8-0.5,4.2-0.7c0.4-0.1,0.9,0,1.3-0.1
		C31.2,1,32.3,1.5,33.5,1.9z"/>
	<path class="st11" d="M39.2,33.4c1.8,0.2,3.5,0.4,5.3,0.7c0.5,0.1,1.1,0.1,1.5,0.3c-2,0.5-4.3,0.8-6.3,1.3c-0.1,0-0.2,0-0.3,0
		C39.4,34.9,38.8,34.2,39.2,33.4z"/>
	<path class="st12" d="M29.6,0.7c-1.2,0.4-2.6,0.4-4,0.6c-0.5,0.1-1,0.2-1.5,0.2C22.6,2,20.9,2.3,19,2.2c-0.8-0.1-0.1-0.2,0-0.2
		c1.6-0.5,3.2-1,4.9-1.5C25.8,0.6,27.7,0.6,29.6,0.7z"/>
	<path class="st13" d="M35.2,18.1c-0.1,0.1-0.1,0.2-0.1,0.3c-0.1,0.3-0.6,0.4-1.2,0.5c-1.4,0.2-2.9,0.2-4.4,0.3
		c-0.8,0-1.6,0.2-2.4,0c-0.5-0.4,0.1-0.8,0.6-1.1c0.4-0.1,0.8-0.2,1.2-0.2c0.8,0,1.7-0.1,2.5-0.1c0.5,0,1,0,1.5-0.1
		c0.5,0,1.1-0.1,1.6,0C34.9,17.8,35.3,17.8,35.2,18.1z"/>
	<path class="st4" d="M31.2,18c-0.8-0.1-1.6,0.2-2.5,0c-0.3-0.2-0.4-0.4-0.6-0.6c-0.1-0.1-0.2-0.1-0.2-0.2c0,0,0-0.1,0.1-0.1
		c2.5,0,5-0.3,7.6-0.3c-0.5,0.4,0.1,0.9-0.5,1.2c-0.7-0.5-1.7-0.2-2.5-0.2C32.2,18,31.7,17.9,31.2,18z"/>
	<path class="st14" d="M41.3,11.8c0,0,0.1,0.1,0.1,0.1c-1.3,0.7-2.9,1.3-4.4,1.9l0.1,0c-0.4-0.7,0.1-1.4,0.8-2.1
		c0.2-0.3,0.4-0.6,0.5-0.9C40,10.8,40.5,11.4,41.3,11.8z"/>
	<path class="st15" d="M34,18.7c0.3-0.1,0.8-0.1,1-0.3c0,0.1,0.1,0.3,0.3,0.3c-0.1,0-0.1,0-0.2,0c-0.1,0-0.2,0.1-0.4,0.1
		C34.5,18.9,34.2,18.9,34,18.7z"/>
	<path class="st16" d="M19,2.2c1.7-0.2,3.4-0.4,5.1-0.6c1.2,0.3,2.5,0.5,3.9,0.7c1.4,0.4,3,0.5,4.3,0.9c-0.8,0.5-1.6,1.1-2.6,1.6
		c-1.7,0.9-1.6,2-2,3c-1.2,2.8-2.2,5.6-3.3,8.4c-0.1,0.3-0.2,0.6-1.1,0.6c-0.4,0.2-0.9,0.2-1.4,0.1c-1.5-0.1-3-0.2-4.5-0.4
		c-0.4-0.1-0.8-0.1-1.2-0.3c-2.3,0-4.6-0.3-6.8-0.4c-0.7,0-1.3-0.2-1.9-0.5c-0.7-0.3-1.4-0.7-2.3-1c-0.5-0.1-0.6-0.4-0.5-0.7
		c0.5-1.9,0.8-3.7,1.2-5.6c0.3-1.2,0.7-2.5,0.8-3.7c0-0.1,0.2-0.3,0.4-0.4c1.7-0.8,3.4-1.5,5.4-2.2c0.6-0.2,1.1-0.1,1.6,0.1
		C15.7,2.1,17.3,2.7,19,2.2z"/>
	<path class="st3" d="M21,37.2c0.7,1.5,1.5,3,2.5,4.5l0,0c-0.2,0.1-0.5,0.1-0.8,0.1c-2.6-0.3-5.4-0.4-7.9-0.8
		c-1.6-1.8-3.3-3.6-4.9-5.4c0.1,0,0.1,0,0.2-0.1c0.5-0.1,1,0,1.4,0.1c2.2,0.4,4.5,0.7,6.7,1.1C19,36.9,20.1,36.8,21,37.2z"/>
	<path class="st3" d="M14.6,40.9c1.9,0,3.6,0.3,5.5,0.4c1.1,0.1,2.2,0.2,3.3,0.3c0.8,1.4,1.6,2.7,2.5,4.1c-0.4,0.1-0.8,0.1-1.2,0.1
		c-1.9-0.2-3.8-0.4-5.7-0.5c-0.4,0-0.8-0.1-1-0.3C16.8,43.6,15.7,42.3,14.6,40.9z"/>
	<path class="st9" d="M17.9,45c2.6,0.2,5.3,0.5,7.9,0.8l0,0c-0.3,0.8-0.9,1.5-2.5,1.9c-4.4,0-8.8,0.1-13.2,0
		c-0.5-0.1-0.5-0.2-0.1-0.4c0.3-0.1,0.6-0.2,0.9-0.2C13.3,46.4,15.6,45.7,17.9,45z"/>
	<path class="st16" d="M4.3,24c0.2-0.2,0.1-0.4,0.5-0.5c0.2,0,0.3,0.1,0.4,0.2c0.8,0.6,2,1.1,2.9,1.7c0.4,0.3,0.9,0.5,1.4,0.8
		c0.3,0.2,0.1,0.4-0.3,0.5c-1.6,0.5-3.2,1.1-5,1.5c-0.1,0-0.3,0-0.4,0c-0.7-0.3-1.6-0.5-1.7-1C2.5,26.1,3.2,25,4.3,24z"/>
	<path class="st3" d="M10.3,19.3c1.8-0.3,3.6-0.6,5.5-0.8c0.1,0,0.2,0,0.3,0c-0.1,0.5-0.8,1-1.3,1.4c-0.9,0.7-1.7,1.4-2.4,2.2
		c-0.4,0.6-0.5,1.3-0.9,1.9c-0.1,0.2-0.1,0.5-0.8,0.6c-0.5,0-0.8,0-1-0.2c-0.1-0.1-0.1-0.2-0.1-0.2c-0.1-1.4,0.4-2.8,0.3-4.2
		C9.9,19.7,10.1,19.5,10.3,19.3z"/>
	<path class="st4" d="M10.3,19.3c0.1,1.7-0.2,3.4-0.3,5.1c-1.9,0.1-3.5-0.3-5.1-0.7c0-0.1-0.1-0.1-0.1-0.2
		C6.6,22.1,8.5,20.7,10.3,19.3z"/>
	<path class="st4" d="M3.8,28.2c0.1,0,0.2,0,0.2,0c1.1,0.2,1.6,0.8,2.5,1.2c0.4,0.1,0.6,0.4,1.1,0.4c0.5,0,1,0,1.5,0
		c0.3,0,0.6,0.1,0.8,0.2c0.3,0.4,0.5,0.8-0.2,1.2c-2-0.2-4.1-0.4-6.1-0.6c-0.7-0.1-1-0.2-1.1-0.5c-0.2-0.6-0.4-1.2-0.6-1.8
		C2.4,27.9,3.1,28.1,3.8,28.2z"/>
	<path class="st17" d="M9.7,35.6c-0.4-0.5-0.2-1,0-1.5c0.6-1.1,1.7-2.1,2.5-3.1c0.2-0.2,0.4-0.4,0.8-0.6c1.4,0,2.8,0,3.7,0.6
		c-0.2,0.4-0.9,0.7-1.5,1c-0.9,0.5-1.4,1-1.6,1.6c-0.3,0.9-0.4,0.9-2.3,1c-0.8,0-1.2,0.1-1.2,0.5C10.1,35.3,10.1,35.4,9.7,35.6
		L9.7,35.6z"/>
	<path class="st3" d="M13,30.5c-1.1,1.2-1.9,2.5-3.3,3.6c0-0.9,0-1.9,0-2.9c0-0.4,0-0.8,0-1.3C11,29.8,12.4,30,13,30.5z"/>
	<path class="st0" d="M10.9,47c-0.4,0.1-0.9,0.3-1.3,0.5c0.2,0.5,0.9,0.6,1.9,0.6c2.1,0,4.2,0,6.3,0c0.6,0,1.3,0,1.8,0.2
		c-2.3,0.2-4.7,0-7,0.1c-0.7,0-1.4-0.1-2,0.1c-2.3-0.3-4.7-0.5-7.1-0.8c0,0,0-0.1-0.1-0.1C5.9,47.4,8.4,47.2,10.9,47z"/>
	<path class="st18" d="M16,18.5c-0.1,0-0.1,0-0.2,0c0.2,0,0.4-0.1,0.5-0.1c1-0.3,2.2-0.2,3.2-0.1c0.1,0,0.3,0.1,0.4,0.1
		c0.4,0.3,0.3,0.6,0.2,0.9c-0.4,0.4-1.4,0.7-2,1.1c-0.4,0.1-0.7,0.4-1.4,0.2C16,19.9,16.2,19.2,16,18.5z"/>
	<path class="st4" d="M19.9,18.4c-1.2,0-2.4,0-3.6,0c0-0.7,0-1.4,0-2.1c0.4,0,0.8,0,1.1,0.1c0.7,0.6,2.2,0.9,3.1,1.4
		c0.3,0.1,0.9,0.2,0.7,0.5C21,18.5,20.4,18.4,19.9,18.4z"/>
	<path class="st19" d="M4.3,24c-0.4,1.2-1.5,2.3-2.2,3.4c-0.8,0.1-1-0.3-1.6-0.4c-0.6-0.3-0.6-0.5-0.1-0.8C1.7,25.5,2.8,24.6,4.3,24
		z"/>
	<path class="st20" d="M14.1,1.9c-0.5,0-1-0.1-1.6-0.1c1.3-1,3.3-1.3,5.6-1.4c0.8,0.1,0.3,0.2,0,0.3C16.8,1.1,15.5,1.5,14.1,1.9z"/>
	<path class="st21" d="M0.5,27c0.7,0,1.1,0.2,1.6,0.4c0.6,0.3,1.1,0.6,1.7,0.8c-0.6,0.1-1.3,0-1.9,0.1C1.4,27.9,0.9,27.4,0.5,27z"/>
	<path class="st9" d="M19.6,48.3c-2.9,0-5.9,0-8.8,0c-1.6,0-1.6,0-1.1-0.8c4.7,0,9.3,0,14,0c0.4,0.3,0,0.5-0.5,0.6
		c-0.2,0-0.4,0-0.6,0C21.4,47.8,20.5,48.1,19.6,48.3z"/>
	<path class="st22" d="M19.9,18.4c0.3-0.2,0.8,0,1.2-0.2c-1.3-0.5-2.5-1-3.7-1.5c-0.2-0.1-0.8-0.2,0-0.3c2,0.1,4,0.3,6,0.4
		c1.6,0.1,3.1,0.2,4.6,0.4c0,0,0,0.1,0,0.1c-0.3,0.2-0.8,0.3-1.3,0.4c-1.8,0.3-3.5,0.6-5.3,0.9C20.8,18.6,20.3,18.6,19.9,18.4
		L19.9,18.4z"/>
	<path class="st23" d="M41.3,11.8c-1.1-0.2-1.7-0.8-2.9-1c0.2-0.5,0.5-1.1,0.7-1.6c1.8,0.2,2.5,0.7,2.2,1.6
		C41.3,11.1,41.3,11.4,41.3,11.8z"/>
	<path class="st24" d="M32.1,7.6c1.3,0.2,2.5,0.4,3.5,0.9c-0.7,0.6-1.3,1.3-1.9,1.9c-0.1,0-0.2,0-0.3,0C33,9.4,32.6,8.5,32.1,7.6z"
		/>
	<path class="st22" d="M37.9,11.7c-0.3,0.7-0.5,1.4-0.8,2.1c-1.1-0.6-1.7-1.3-2.5-2c-0.4-0.3,0-0.4,0.6-0.3
		C36.1,11.5,37,11.6,37.9,11.7z"/>
	<path class="st25" d="M35.4,10.5c0.2-0.4,0.5-0.8,0.7-1.2c0.1-0.2,0.3-0.3,0.7-0.2c0.4,0.1,1,0,1.1,0.3c0.1,0.2-0.4,0.3-0.7,0.4
		c-0.5,0.3-1.1,0.5-1.6,0.8C35.6,10.6,35.5,10.6,35.4,10.5z"/>
	<path class="st3" d="M39.2,33.4c0.2,0.7,0.8,1.5,0.2,2.2c-4.8,0.4-9.6,0.8-14.5,1.2c-0.4,0-0.9,0-1.3,0.1c-1.3-0.5-2.2-1-2.6-1.8
		c-0.1-0.9,0-1.8,0-2.8c0-0.3,0-0.6,0.5-0.8c1-0.3,2.2-0.2,3.2-0.4c0.9,0,1.8-0.3,2.8,0c0.5,0.4,0.3,0.8,0.2,1.2
		c-0.1,0.4-0.2,0.9-0.2,1.3c0,0.7,0.2,0.7,1.7,0.7c0.4,0,0.7,0,1.1-0.1c1.2-0.7,1.6-1.5,2.5-2.3c0.3-0.2,0.3-0.5,1.1-0.5
		c0.7,0.4,1.1,0.9,1.4,1.4C36.7,33.1,37.9,33.3,39.2,33.4z"/>
	<path class="st26" d="M21.4,35.3c0.4,0.6,1.6,1,2.2,1.6c-0.8,0.2-1.8,0.2-2.7,0.3c-1-0.1-2-0.2-3-0.4c1.3-0.4,2.1-1,3.2-1.5
		C21.2,35.3,21.3,35.3,21.4,35.3z"/>
	<path class="st17" d="M32.1,24.4c1.8,1,3.5,2.1,5.3,3.1c0.2,0.1,0.4,0.2,0.4,0.4c-2.2,0-4.3-0.1-6.5-0.1c-0.1,0-0.1,0-0.2-0.1
		c-0.3-0.3-0.3-0.6-0.2-1c0.2-0.7,0.2-1.5,0.3-2.2c0-0.1,0.1-0.2,0.2-0.3C31.9,24,32,24.2,32.1,24.4z"/>
	<path class="st8" d="M34,31.6c-0.6,0-0.6,0.3-0.8,0.4c-0.8,0.8-1.6,1.6-2.4,2.4c-2.1,0-3.3-0.8-2.5-1.6c0.5-0.5,1-1.1,1.4-1.6
		c0.2,0,0.4-0.1,0.6,0c1.3,0.1,2.6,0.2,3.8,0.2C34.1,31.5,34.1,31.6,34,31.6z"/>
	<path class="st2" d="M27.5,31.2c-0.9,0-1.8,0.1-2.7,0.1c-1.1,0.1-0.7-0.3-0.6-0.5c0.3-0.7,0.8-1.4,1.1-2.1c0.1-0.1,0.2-0.2,0.4-0.3
		c1-0.4,2.3-0.5,3.4-0.8c0.8,0,1.5-0.1,2.2,0.1h0.1c0,0,0,0.1-0.1,0.1c-2.1,0.1-2.3,0.9-2.5,1.6c-0.2,0.6-0.7,1.2-0.4,1.8
		C28,31.3,27.7,31.3,27.5,31.2z"/>
	<path class="st27" d="M28.3,31.2c-0.4-0.1-0.7-0.2-0.5-0.4c0.4-0.8,0.8-1.6,1.1-2.5c0.3-0.7,1.6-0.4,2.4-0.4
		c-0.4,1.1-0.7,2.2-1.1,3.4c-0.2,0-0.3,0-0.5,0C29.2,31.4,28.7,31.4,28.3,31.2z"/>
	<path class="st28" d="M34,31.6c0,0,0.1-0.1,0.1-0.1c3.2,0.1,6.4,0.3,9.5,0.5c-2.5,0.4-5,0.6-7.6,0.9c-0.2,0-0.4,0.1-0.6,0.1
		C34.5,32.6,34.4,32.1,34,31.6z"/>
	<path class="st9" d="M23.1,48.1c0.2-0.2,0.4-0.4,0.5-0.6c0.7-0.6,1.4-1.2,2.2-1.7c2.5,0.2,5,0.5,7.5,0.7c0.7,0.1,1.2,0.2,1.5,0.5
		c0.1,0.4,0.2,0.8,0.4,1.2c-3.6,0-7.2,0-10.8,0C23.9,48.3,23.5,48.3,23.1,48.1z"/>
	<path class="st3" d="M34.9,18.8c0.1,0,0.2,0,0.3,0c0.7,1,1.9,2,2.7,3c0.1,0.1,0.2,0.2,0.2,0.3c-0.7,0.2-1.1-0.2-1.7-0.2
		c-0.2,0-0.5-0.1-0.7-0.2c-0.8-0.4-1.6-0.3-2.4,0c-0.3,0.1-0.6,0.1-0.8,0.2c-0.5,0-1,0.3-1.3,0c0.3-0.7,1.4-1.3,2.1-2
		C33.7,19.5,33.9,19,34.9,18.8z"/>
	<path class="st29" d="M37.3,23.5c-1,1.2-1,1.2-3.8,0.8c0,0,0.1,0,0.1-0.1c0.3-0.1,1.3,0,0.8-0.5c-0.1-0.1,0.3-0.2,0.4-0.3
		c0.1-0.1,0.3-0.2,0.5-0.2c0.3,0,0.5,0.1,0.7,0.1c0.1,0.1,0,0.3,0.5,0.1C36.7,23.4,37,23.4,37.3,23.5z"/>
	<path class="st29" d="M36.5,21.8c0.5,0.1,1.1,0.2,1.7,0.4c0.2,0.4-0.4,0.8-0.8,1.1c-0.7-0.1-0.6-0.4-1-0.6
		c-0.1-0.1-0.1-0.2-0.2-0.3C36.1,22.1,36.1,21.9,36.5,21.8z"/>
	<path class="st29" d="M32.1,24.4c-0.2-0.1-0.4-0.2-0.6-0.2c-0.1,0-0.1,0-0.1-0.1c-0.2-0.2-0.5-0.4-0.2-0.7c0.6-0.2,0.8,0.1,1.2,0.2
		c0.1,0.1,0.5,0.1,0.7,0.2c0.2,0.1,0.5,0.2,0.4,0.4l-0.1,0C33,24.3,32.5,24.2,32.1,24.4z"/>
	<path class="st4" d="M36.5,22.6c0.8,0,0.4,0.5,0.8,0.6c0,0.1-0.1,0.1-0.1,0.2c-0.5,0-0.8,0.3-1.5,0.3c0.1-0.1,0.1-0.3,0.2-0.4
		c-0.1-0.2,0.2-0.3,0.2-0.5C36.3,22.7,36.4,22.7,36.5,22.6z"/>
	<path class="st4" d="M34.9,18.8c-1.2,1-2.4,2.1-3.6,3.1c-0.1,0.3-0.3,0.5-0.5,0.7c-1,0.7-1.6,1.5-2.7,2.1c-1.4,0.4-3.1,0.5-4.7,0.7
		c-1.8-0.1-3.7-0.3-5.5-0.6c-0.2-0.1-0.4-0.1-0.4-0.2c-0.5-1.1-0.7-2.2-1-3.3c-0.1-0.2-0.1-0.4,0.4-0.6c0.4-0.1,0.7-0.2,1.1-0.4
		c1.1-0.3,2-0.8,3.5-0.8c0.2,0,0.4,0.1,0.5,0.1c0.7,0.6,1.5,1.1,2.2,1.6c0.7,0.6,0.8,0.6,1.6,0c0.1,0,0.1-0.1,0.2-0.1
		c0.8-0.5,1.5-1,2.2-1.5c0.3-0.2,0.7-0.4,1.3-0.5c1.6-0.1,3.1-0.2,4.6-0.3C34.3,18.7,34.6,18.7,34.9,18.8z"/>
	<path class="st4" d="M21.5,18.4c2-0.5,4.3-0.8,6.5-1.1c0.1,0,0.2,0.1,0.3,0.1c0.3,0.3-0.1,0.5-0.5,0.7c-0.3,0.3-0.6,0.7-0.8,1
		c-0.1,0-0.1,0-0.2,0C24.9,19,23.2,18.9,21.5,18.4C21.6,18.4,21.5,18.4,21.5,18.4z"/>
	<path class="st4" d="M29.4,19c-1.1,0.7-2.2,1.4-3.2,2.1c-0.1,0-0.2-0.1-0.2-0.2c0.1-0.6,0.2-1.3,1.1-1.9l0,0
		C27.8,19.1,28.6,19.1,29.4,19z"/>
	<path class="st4" d="M27.8,18.1c0.2-0.2,0.4-0.5,0.5-0.7c0.5,0.2,0.6,0.4,0.5,0.7C28.4,18.1,28.1,18.1,27.8,18.1z"/>
	<path class="st15" d="M31.2,18c0.5-0.1,0.9-0.1,1.4-0.1C32.2,18.1,31.7,18,31.2,18z"/>
	<path class="st2" d="M15.8,6.9c0.2-0.1,0.4-0.2,0.6-0.3c2.6,0,5.1,0.1,7,1c0.2,0,0.4,0.1,0.7,0.2c-1.1,0.5-2.6,0.6-3.4,1.2l0,0
		c-1.7,0.2-3,0.8-4.4,1.3c-0.9,0.3,0.2,0.4,0.5,0.5c1.9,0.5,2.3,0.8,1.8,1.6c-0.9-0.1-1.1-0.5-1.8-0.7c-0.5-0.4-1.1-0.7-1.7-1.1
		c-0.1-0.1-0.1-0.2,0-0.3c0.4-0.8,0.3-1.6,0.4-2.5C15.4,7.5,15.3,7.2,15.8,6.9z"/>
	<path class="st30" d="M15.8,6.9C15.7,8,16,9.1,15.5,10.1c-0.1,0.1-0.1,0.2-0.3,0.3c-0.9,0.3-1.7,0.1-2.6,0c-0.1,0-0.2-0.1-0.3-0.1
		c0.2-0.3,0.4-0.7,0.5-1c-0.2-0.8,0-1.6,1.1-2.4C14.5,6.9,15.1,6.9,15.8,6.9z"/>
	<path class="st31" d="M13.8,6.9c-0.4,0.8-0.7,1.6-1.1,2.4C12,9,11.3,8.7,10.5,8.4l0,0c-0.2-0.1-0.4-0.2-0.5-0.3
		c0.1-0.2,1.1-0.2,0.7-0.5c-0.3-0.2-0.9,0-1.3,0C9.2,7.6,9,7.7,8.8,7.7C8.3,7.5,7.6,7.3,7.5,6.9c1.8-0.8,3.8-0.6,6-0.4
		C13.6,6.7,13.7,6.8,13.8,6.9z"/>
	<path class="st32" d="M8.7,12.7c0-0.2-0.2-0.5,0.6-0.5c0.2-0.2,0.6-0.2,1-0.3c1.3-0.1,2.5-0.3,3.6-0.6c0.7,0.4,1.6,0.6,2.7,0.8
		c0.8,0.1,1.6,0.3,2.1,0.6c0.2,0.1,0.5,0.3,0.1,0.4c-0.8,0.1-1.5,0-2.2-0.1c-2-0.3-4-0.4-6.1-0.2C9.8,12.8,9.2,12.9,8.7,12.7z"/>
	<path class="st25" d="M8.7,12.7c0.9,0,1.8,0,2.7-0.1c2.6-0.3,4.9,0.3,7.4,0.5c0.4,0.1,0.6,0.3,0.3,0.5c-1-0.1-2.1-0.2-3.1-0.4
		c-2.2-0.4-4.4-0.3-6.7-0.1c-0.6,0.1-0.8,0-0.6-0.3C8.6,12.7,8.6,12.7,8.7,12.7z"/>
	<path class="st33" d="M23.4,7.7c-2.1-0.7-4.6-0.8-7-1c0.4-0.5,1.1-0.6,2.1-0.4c0.7,0.1,1.6,0.2,2.3,0.3C22.3,6.6,22.9,7.1,23.4,7.7
		z"/>
	<path class="st34" d="M13.5,6.5c-0.6,0-1.3,0.1-1.9,0c-1.4,0-2.8,0.1-4,0.4c0.4-0.3,0.8-0.7,1.6-0.8C10.4,6,11.7,6,13,6.1
		C13.5,6.1,13.3,6.4,13.5,6.5z"/>
	<path class="st35" d="M20.1,5.3c-3.2,0.1-7.3,0-9.1-0.4C14.1,4.7,17,5,20.1,5.3z"/>
	<path class="st36" d="M18.5,12.6c-1-0.3-1.9-0.5-3-0.6c-1-0.1-1.5-0.3-1.6-0.7c0.1,0,0.2-0.1,0.4-0.1c1,0,2,0,2.6,0.5
		c0.9,0.1,1.1,0.5,1.7,0.8c0,0,0,0.1,0,0.1C18.6,12.6,18.6,12.6,18.5,12.6z"/>
	<path class="st37" d="M14.2,11.3c-0.1,0-0.2,0-0.4,0c-1.1,0.8-3.1,0.5-4.6,0.9C9.1,12.1,9,12,8.9,11.9c0.5-0.3,1.1-0.6,2-0.8
		c0.8-0.1,1.6-0.1,2.5-0.2c0.1,0,0.3,0,0.4,0C14,11.1,14.2,11.2,14.2,11.3z"/>
	<path class="st38" d="M20.7,9c1.3,0.3,2.5,0.6,4.1,0.5c0,0.1,0,0.1,0,0.1C22.8,10.5,22,10.4,20.7,9L20.7,9z"/>
	<path class="st39" d="M18.5,12.6c0,0,0-0.1,0.1-0.1c0.7,0.2,0.5,0.7,1.4,0.9c0.7,0.2,1.1,0.5,1.7,0.8c-2.1,0.2-2.1,0.2-2.6-0.6
		c0.1-0.2-0.1-0.3-0.3-0.5C18.7,12.9,18.6,12.8,18.5,12.6z"/>
	<path class="st39" d="M10.8,11.3c-0.7,0.2-1,0.6-1.9,0.6c0.1-0.8,1.1-1.3,2.7-1.5c0.5-0.1,0.7,0,0.5,0.2
		C12,10.9,11.4,11.1,10.8,11.3z"/>
	<path class="st38" d="M10.6,8.4c-1.7,1.2-1.7,1.2-4.2,0C7.8,8.7,9.2,8.7,10.6,8.4L10.6,8.4z"/>
	<path class="st40" d="M8.9,7.7c0.5-0.5,1.5-0.3,2.3-0.4c0.3,0,0.2,0.3,0.1,0.4C11,8,10.5,8.1,10,8.1C9.5,8,9.1,7.9,8.9,7.7z"/>
	<path class="st41" d="M8.6,12.8c0,0.2,0.2,0.2,0.6,0.3c-0.3,0.1-0.7,0.2-0.8,0.4c-0.3,0.5-1.1,0.3-1.7,0.2c-0.4,0-0.3-0.2-0.1-0.3
		C7.3,13.2,7.7,12.9,8.6,12.8z"/>
	<path class="st42" d="M13.8,4.2C16,4.1,18,4.5,20.1,4.7c-1.9-0.1-3.8-0.2-5.7-0.3C14.3,4.3,13.7,4.4,13.8,4.2z"/>
	<path class="st43" d="M10.8,11.3c0.4-0.2,0.7-0.5,1.1-0.7c0.2-0.1,0-0.2-0.3-0.2c0.1-0.1,0.3-0.1,0.5-0.1c0.1,0,0.2,0,0.3,0
		c0.5,0.2,1.1,0.4,1,0.8C12.6,11.2,11.8,11.3,10.8,11.3z"/>
	<path class="st44" d="M13.8,4.2c0.2,0.1,0.4,0.2,0.5,0.2c-0.7,0-1.4-0.1-2.4-0.2C12.7,4.1,13.3,4.2,13.8,4.2z"/>
	<path class="st3" d="M21.2,35.3c-0.9,0.6-1.5,1.3-3.3,1.5c-2.7-0.4-5.4-0.9-8.1-1.3c0-0.1-0.1-0.2-0.1-0.2
		c-0.1-0.9-0.1-0.9,1.9-0.8c1,0,1.5-0.1,1.4-0.5c0-1.2,1.8-2,3.4-2.9c0.8-0.4,1.3-0.1,1.8,0.2c0.2,0.2,0.2,0.5,0.1,0.7
		c-0.3,0.8-0.1,1.6-0.1,2.4c0,0.3,0.5,0.4,1.1,0.5C20.1,35,20.8,35,21.2,35.3z"/>
	<path class="st45" d="M17.7,24.6c0.1,0,0.2,0.1,0.3,0.1c0.9,0.6,1.2,1.4,1.5,2.1c0,0.1-0.1,0.1-0.1,0.2c-1.6,0.4-3.3,0.7-4.8,1.1
		c-0.2-0.4-1.2-0.5-1.5-0.9c0.4-0.2,1.1-0.3,1.6-0.4c0.1,0,0.2-0.1,0.3-0.1c0.2,0,0.3-0.1,0.4-0.2c0.1-0.1,0.3-0.2,0-0.2
		c-0.3-0.1-0.5,0-0.5,0.2c-0.2,0.1-0.5,0.1-0.7,0.2c-0.5,0.1-0.5,0.4-1,0.6c-0.1,0-0.1,0.1-0.2,0.1c-0.4,0.2-1.1,0.4-1.7,0.5
		c-0.1,0-0.2,0-0.4,0c-0.5,0-1-0.1-1.4-0.1c-0.2,0-0.4,0-0.5,0c-0.5,0.1-0.8,0.3-1,0.5c0.4,0.1,0.9,0,1.3,0c0.1,0,0.2,0,0.3-0.1
		c0.5-0.1,0.8-0.3,1.4-0.2c0.6,0.3,0.1,0.6,0.1,0.9c-0.9,0.6-2.2,0.9-3.5,1.1C6,29.4,5,28.8,4,28.2c1.6-0.5,3.1-1,4.7-1.5
		c0.3-0.1,0.8-0.2,0.4-0.4C8.8,25.8,8.7,25.4,9,25c0.4-0.3,1.2-0.4,1.9-0.4c0.4-0.1,0.9-0.1,1.4-0.1c1,0,2,0,3.1,0
		c0.6,0,1.3,0,1.9,0.1C17.4,24.5,17.5,24.6,17.7,24.6z"/>
	<path class="st46" d="M10.8,24.6c-0.5,0.1-1.1,0.3-1.6,0.4c-0.4,0.2-0.8,0.4-1.4,0.5c-1-0.6-1.9-1.2-2.9-1.7
		c1.7,0.2,3.4,0.4,5.1,0.7C10.3,24.4,10.5,24.5,10.8,24.6c0.1,0,0.2,0,0.1,0C10.9,24.6,10.8,24.6,10.8,24.6z"/>
	<path class="st47" d="M7.8,25.5c0.3-0.2,0.8-0.4,1.4-0.5c0,0.4,0,0.8,0,1.2C8.7,26,8.2,25.7,7.8,25.5z"/>
	<path class="st3" d="M17.7,24.6c-0.1,0-0.2,0-0.2,0c-1-0.2-1.5-0.6-2.2-0.9c-0.7-0.4-1.6-0.7-2.3-1.1c-0.3-0.2-0.8-0.3-0.7-0.6
		c0.7-1,2-1.9,3.1-2.8c0.2-0.2,0.5-0.4,0.7-0.7c0.8,0.6,0.4,1.4,0.9,2.1C16.9,22,17.5,23.3,17.7,24.6z"/>
	<path class="st8" d="M12.2,22c1.7,0.9,3.5,1.7,5.2,2.6c-0.6,0-1.3,0-1.9,0c-0.5-0.1-0.9-0.3-1.3-0.5c-0.7-0.4-0.8-0.4-1.3,0.1
		c-0.2,0.2-0.3,0.3-0.7,0.4c-0.5,0-1,0-1.4,0c0,0,0,0,0-0.1c0.5-0.6,0.6-1.2,0.8-1.8C11.8,22.5,11.8,22.2,12.2,22z"/>
	<path class="st48" d="M18.2,31.2c-0.5-0.1-1-0.3-1.6-0.1c-0.9-0.5-2.2-0.5-3.5-0.6c-1-0.3-2.1-0.5-3.3-0.5c-0.3,0-0.6,0-0.8,0
		c0-0.1,0.2-0.2,0.4-0.2c0.4-0.1,0.7-0.1,1.1-0.1c3.1,0.3,5.2-0.4,6.6-1.6c0.3-0.2,0.7-0.5,1.2-0.7c0.3-0.1,0.6-0.4,1.1-0.1
		c0.4,0.4,0.1,0.8,0,1.3c-0.1,0.7-0.3,1.3-0.4,2C18.7,30.8,18.6,31,18.2,31.2z"/>
	<path class="st8" d="M19,27.2c-1.6,0.6-2.6,1.5-3.8,2.2c-0.5,0.3-1.1,0.4-1.9,0.4c-1.5,0-2.9-0.1-4.4,0.1c-0.5,0-1.1,0-1.6,0
		c1.1-0.4,2.2-0.7,3.3-1.1c0.1,0,0.2,0,0.3,0c0.3,0,0.6,0,0.9,0c1.9,0.1,1.9,0.1,2.3-0.5c0-0.1,0.1-0.1,0.1-0.2c0.1,0,0.1,0,0.1-0.1
		c1.4-0.5,3.2-0.9,4.9-1.1C19.4,27.1,19.5,27.2,19,27.2z"/>
	<path class="st49" d="M19.8,18.4c0.5,0,1.1,0,1.7,0l0,0c0.5,0.3,0.5,0.7,0.1,1c-0.6,0-1.1,0.2-1.7,0C19.8,19,19.8,18.7,19.8,18.4z"
		/>
	<path class="st4" d="M19.8,19.4c0.5,0,1.1,0,1.6,0c0.1,0,0.1,0,0.1,0.1c0,0,0,0-0.1,0c-0.9,0-1.5,0.3-2.2,0.5
		c-0.4,0.1-0.8,0.3-1.3,0.3C18.6,19.9,19.2,19.7,19.8,19.4z"/>
	<path class="st50" d="M21.2,35.3c-3.2-0.5-3.3-0.5-3.2-2c0-0.5-0.3-0.9,0.2-1.4c0.4,0.2,0.8,0.2,1.3,0.1c0.6-0.2,1.2-0.4,2-0.5
		c0.1,0,0.2,0,0.3,0.1c-0.5,0.5-0.2,1-0.2,1.5c-0.1,0.7,0,1.4,0,2.2C21.4,35.3,21.3,35.3,21.2,35.3z"/>
	<path class="st48" d="M28.3,31.2c0.5,0,0.9,0,1.4,0.1c0.3,0.5-0.4,0.8-0.7,1.2c-1,1.2-0.8,1.5,1.8,2c-1,0.3-2,0.1-3.1,0.1
		c-0.7,0-0.5-0.3-0.5-0.5c-0.2-1,0.4-1.9,0.3-2.8C27.8,31.2,28,31.2,28.3,31.2z"/>
	<path class="st46" d="M21.7,31.6c-0.1,0-0.1,0-0.2,0c-0.1-0.3,0.3-0.5,0.6-0.7c0.8-0.6,1.8-1.2,2.7-1.9c0.2-0.1,0.3-0.3,0.8-0.2
		c-0.2,0.7-0.7,1.4-1,2.1c-0.1,0.2-0.6,0.4,0.2,0.5C23.8,31.4,22.7,31.5,21.7,31.6z"/>
	<path class="st45" d="M23.4,25.3c1.6-0.2,3.1-0.4,4.6-0.6c1.1-0.3,2.2-0.6,3.5-0.5l0,0c0,0.1,0,0.1,0,0.2c-1,1-2.1,2-3.8,2.8
		c-0.4,0-0.6,0-0.8-0.1c-0.7-0.4-1.6-0.5-2.6-0.4C23.6,26.2,23.4,25.7,23.4,25.3z"/>
	<path class="st8" d="M27.8,27.1c1.3-0.9,2.4-1.9,3.8-2.8c0.2,1.1-0.3,2.3-0.3,3.4c-0.8,0-1.6,0-2.4,0
		C28.2,27.6,27.7,27.5,27.8,27.1z"/>
	<path class="st45" d="M25.6,28.7c-1.4,0.9-2.7,1.9-4.1,2.8c-0.8,0.2-1.6,0.4-2.2,0.7c-1,0.3-1.1,0.1-1.1-0.3c0-0.2,0-0.5,0-0.7
		c0.3-1.3,0.6-2.7,0.8-4c0.2-0.1,0.2-0.1,0.2-0.2l0,0c0.4-0.2,0.8,0,1.1,0c1.7,0.4,3.5,0.8,5.2,1.2c0.2,0.1,0.3,0.1,0.2,0.2
		C25.8,28.5,25.7,28.6,25.6,28.7z"/>
	<path class="st2" d="M25.9,28.5c-0.1,0-0.2-0.1-0.2-0.1c-0.8-0.4-1-1-1.3-1.5c-0.1-0.1-0.1-0.3,0.2-0.4c1.7-0.4,2.2,0.3,3.2,0.6
		c0.4,0.2,0.8,0.4,1.1,0.6C28.2,28.2,26.9,28.2,25.9,28.5z"/>
	<path class="st29" d="M30.5,22.5c0.1-0.2,0.4-0.4,0.8-0.6c0.5,0.2,0.7-0.1,1.1-0.1c0.2,0.6,0.2,0.6,1.6,0.4c0.2,0,0.4,0,0.6,0
		c0.4,0,0.8,0.3,1.3,0c0.1-0.1,0.4,0.1,0.6,0.3c0,0.1,0,0.2,0,0.3c0,0.1,0,0.1,0,0.2c-0.5-0.1-0.7,0-0.8,0.2c0,0.1-0.2,0.1-0.4,0.1
		c-0.1,0.1-0.1,0.2-0.2,0.2c-0.5,0.1-1,0.2-1.5,0.2c-0.3,0-0.5-0.1-0.8-0.1c-0.2-0.1-0.2-0.3-0.3-0.5c-0.1-0.2-0.2,0-0.3,0
		c-0.8-0.3-0.6,0.2-1,0.2C30.5,23.1,30.8,22.7,30.5,22.5z"/>
	<path class="st4" d="M34,22.2c-0.5,0-0.7,0.3-1.3,0.3c-1.3-0.1-0.3-0.5-0.3-0.8c0.3,0,0.5-0.1,0.8-0.1c0.3-0.1,0.7-0.1,0.9,0
		c0,0,0.1,0.1,0,0.1C33.8,22,33.8,22.1,34,22.2z"/>
	<path class="st4" d="M36.5,22.4c-0.5-0.3-1.4,0.2-1.9-0.1c-0.1-0.2-0.2-0.4,0-0.6c0.5-0.1,0.9-0.1,1.3,0c0.2,0,0.4,0.1,0.5,0.1
		C36.5,22,36.5,22.2,36.5,22.4z"/>
	<path class="st29" d="M35.9,21.6c-0.5,0-1-0.1-1.3,0.1c-0.2,0.1-0.4,0.1-0.5,0c-0.2-0.1-0.5-0.1-0.8-0.1
		C34.1,21.2,35,21.2,35.9,21.6z"/>
	<path class="st4" d="M33.5,23.5c0.5,0,1.1,0,1.6,0c0,0.1-1.3,0.3,0.1,0.4c-0.5,0.2-1,0.4-1.7,0.3c-0.2-0.1-0.4-0.2-0.6-0.4
		C33.3,23.8,33.5,23.7,33.5,23.5z"/>
	<path class="st3" d="M35.3,23.2c0.2-0.2,0.2-0.6,1.1-0.4c0,0.2-0.2,0.4-0.5,0.5C35.7,23.4,35.5,23.3,35.3,23.2z"/>
	<path class="st3" d="M30.5,22.5c0.8,0.1,0.3,0.5,0.7,0.8c0.1,0,0.1,0,0.1,0.1c0,0,0,0-0.1,0c0.1,0.2,0.2,0.5,0.3,0.8
		c-1.2,0.2-2.3,0.3-3.5,0.5C28.8,23.9,29.7,23.2,30.5,22.5z"/>
	<path class="st4" d="M31.3,23.4c0,0,0-0.1-0.1-0.1c0.1-0.3,0.1-0.8,1.1-0.3c0.2,0.1,0.2,0.2,0.3,0.3c0,0.2,0.1,0.3-0.3,0.5
		C32,23.6,31.7,23.5,31.3,23.4z"/>
	<path class="st3" d="M32.4,23.7c0-0.2,0-0.3,0-0.5c0.3-0.1,0.4,0,0.5,0.1c0.1,0.1,0.3,0.1,0.5,0.1c0.7,0.4,0.1,0.4-0.6,0.4
		C32.7,23.8,32.6,23.8,32.4,23.7z"/>
	<path class="st51" d="M24.6,26.5c0.1,0.6,0.9,1.2,1.1,1.8c-2.1-0.4-4.2-0.9-6.4-1.4c-0.5-0.7-0.9-1.5-1.4-2.3
		c1.8,0.2,3.6,0.3,5.5,0.5C24,25.6,23.8,26.1,24.6,26.5z"/>
	<path class="st18" d="M21.5,19.5C21.5,19.5,21.5,19.4,21.5,19.5c0-0.4,0-0.8,0-1.1c1.8,0.2,3.7,0.5,5.5,0.7
		c-0.3,0.6-0.5,1.3-0.8,1.9c-0.4,0.1-0.7,0-1-0.1c-1.2-0.4-2.4-0.8-3.4-1.3C21.7,19.6,21.6,19.5,21.5,19.5z"/>
	<path class="st4" d="M21.7,19.6c1.1,0.4,2.2,0.8,3.3,1.1c0.3,0.1,0.5,0.3,1,0.2c0,0,0,0.1,0,0.1c-0.4,0.3-0.8,0.5-1.3,0.9
		C23.7,21.2,22.6,20.4,21.7,19.6z"/>
	<path class="st52" d="M20.7,24.3c-0.5-0.1-1-0.3-1.1-0.5c-0.1-0.2,0.5-0.5,1-0.5c0.5,0,1.1,0.2,1.1,0.4
		C21.7,24,21.1,24.1,20.7,24.3z"/>
	<path class="st53" d="M21,22c-0.6-0.2-1-0.4-1.1-0.6c0-0.2,0.5-0.4,1-0.4c0.5,0,1,0.3,1,0.5C21.9,21.7,21.3,21.9,21,22z"/>
	<path class="st54" d="M19.5,7.7c0.5,0.2,1.6,0,1.8,0.4c0.1,0.3-0.7,0.4-1.3,0.4c-0.8,0-1.2-0.2-1.3-0.6C18.7,7.7,19,7.7,19.5,7.7z"
		/>
	<path class="st32" d="M14.2,11.3c-0.1,0-0.2-0.1-0.3-0.1c0.1-0.3,0.6-0.5,1.3-0.5c1.1,0.1,1.3,0.6,1.6,1
		C16,11.5,15.1,11.3,14.2,11.3z"/>
	<path class="st55" d="M15.2,10.7c-0.4,0.2-0.9,0.3-1.3,0.5c-0.1,0-0.2,0-0.4,0c-0.3-0.3-1-0.5-1-0.8c0.9,0,1.8,0.1,2.7,0.1
		C15.2,10.5,15.2,10.6,15.2,10.7z"/>
	<path class="st48" d="M12.2,24.6c0.1-0.1,0.2-0.3,0.3-0.4c0.2-0.2,0.2-0.6,0.7-0.6c0.6-0.1,0.9,0.3,1.3,0.5c0.4,0.2,0.7,0.4,1,0.6
		C14.4,24.6,13.3,24.6,12.2,24.6z"/>
	<path class="st56" d="M10.8,28.8c-0.1,0-0.2,0-0.3,0c-0.2-0.3,0.6-0.6,0-0.9c-0.1-0.1,0.1-0.2,0.3-0.2c0.1,0,0.2,0,0.2,0
		c0.4,0,0.8,0.1,1.1,0.2c0.5,0.2,0.8,0.3,0.3,0.6c-0.3,0.1-0.6,0.2-1,0.3C11.3,28.8,11.1,28.9,10.8,28.8z"/>
	<path class="st57" d="M13,27.2c0.4,0.3,2,0.2,1.3,0.8l0,0c-0.4,0.2-0.8,0.3-1.4,0.2c-0.3-0.1-0.5-0.3-0.5-0.4
		c-0.1-0.2,0.1-0.4,0.2-0.6c0.1,0,0.1,0,0.2,0C12.9,27.2,13,27.2,13,27.2z"/>
	<path class="st58" d="M9.2,28.4c-0.6,0.2-1.3,0.1-2,0.1c0.3-0.4,0.8-0.6,1.4-0.9C9,27.8,8.9,28.1,9.2,28.4z"/>
	<path class="st59" d="M13,27.2c-0.1,0-0.1,0-0.2,0c0.3-0.3,0.1-0.6,1-0.7c0.4,0.1,0.7,0.2,0.8,0.4C14.3,27.2,13.6,27.1,13,27.2z"/>
	<path class="st60" d="M12.7,27.2c0.2,0.2,0.1,0.4,0,0.6c-0.1,0.2-0.4,0.2-0.7,0.1c-0.3-0.1-0.6-0.2-0.9-0.2
		C11.6,27.6,12.1,27.4,12.7,27.2z"/>
	<path class="st61" d="M14.6,26.3c0-0.1-0.5-0.2-0.2-0.2c0.5-0.1,1-0.2,1.6-0.1c-0.3,0.3-0.5,0.6-1.1,0.8
		C14.6,26.7,14.6,26.5,14.6,26.3z"/>
	<path class="st62" d="M10.8,27.7c-0.1,0.1-0.2,0.1-0.3,0.2c-0.4,0.1-0.7,0.3-1.1,0.4c-0.4-0.2-0.5-0.5-0.3-0.7
		C9.7,27.6,10.3,27.6,10.8,27.7z"/>
	<path class="st63" d="M9.2,27.6c0.3,0.2,0.4,0.5,0.3,0.7H9.3l-0.1,0c-0.8-0.2-0.8-0.4-0.6-0.8C8.8,27.6,9,27.6,9.2,27.6z"/>
	<path class="st64" d="M14.6,26.3c0.4,0.1,0.3,0.3,0.3,0.5c-0.1,0-0.2,0-0.3,0c-0.5,0-0.8-0.1-0.8-0.4C14,26.3,14.3,26.3,14.6,26.3z
		"/>
	<path class="st65" d="M14.4,28.2c-0.1,0.9-0.1,0.9-2.7,0.7c-0.2-0.1,0-0.2,0.2-0.3c0.2-0.1,0.5-0.1,0.8-0.2c0.2,0,0.4-0.1,0.6-0.2
		C13.6,28.3,13.9,28.1,14.4,28.2z"/>
	<path class="st66" d="M14.4,28.2c-0.5,0-0.7,0.2-1.1,0.3c-0.3,0-0.4-0.1-0.3-0.3c0.5,0,0.8-0.2,1.4-0.1
		C14.4,28.1,14.4,28.2,14.4,28.2z"/>
	<path class="st67" d="M11.9,28.7c-0.1,0.1-0.2,0.1-0.3,0.2c-0.3,0-0.6,0-0.8-0.1c0.2,0,0.4-0.1,0.5-0.1
		C11.6,28.6,11.8,28.6,11.9,28.7z"/>
	<path class="st3" d="M34,21.7c0.2,0,0.4,0,0.5,0c0.5,0.2,0.5,0.3,0,0.5c-0.2,0-0.4,0-0.6,0C33.1,22.1,33.6,21.9,34,21.7z"/>
	<path class="st3" d="M32.9,23.4c-0.2,0-0.4-0.1-0.5-0.1c0-0.1,0-0.2,0-0.3c0.1-0.1,0.1-0.2,0.3-0.1C32.9,23,33,23.2,32.9,23.4z"/>
	<path class="st68" d="M13,28.2c0.1,0.1,0.2,0.2,0.3,0.3c-0.2,0-0.4,0.1-0.5,0.1c-0.3,0-0.5,0.1-0.5-0.1c0.7-0.3,0-0.4-0.3-0.5
		c0.2,0,0.5-0.1,0.7-0.1C12.8,28,12.9,28.1,13,28.2z"/>
	<path class="st69" d="M12.2,28.5c0.2,0,0.4,0.1,0.5,0.1c-0.2,0.1-0.5,0.1-0.8,0.1c-0.2,0-0.4,0-0.6,0
		C11.6,28.6,11.9,28.5,12.2,28.5z"/>
</g>
</svg>
