<?xml version="1.0" encoding="utf-8"?>
<!-- Generator: Adobe Illustrator 23.1.0, SVG Export Plug-In . SVG Version: 6.00 Build 0)  -->
<svg version="1.1" id="Capa_1" xmlns="http://www.w3.org/2000/svg" xmlns:xlink="http://www.w3.org/1999/xlink" x="0px" y="0px"
	 viewBox="0 0 91.2 150" style="enable-background:new 0 0 91.2 150;" xml:space="preserve">
<style type="text/css">
	.st0{fill:#E7E8E8;}
	.st1{fill:#898989;}
	.st2{fill:#EECFCA;}
	.st3{fill:#543042;}
	.st4{fill:#B2879C;}
	.st5{fill:#606060;}
	.st6{fill:#9E9E9E;}
	.st7{fill:#E8E8E8;}
	.st8{fill:#3A9FB9;}
	.st9{fill:#4F4F4F;}
	.st10{fill:#6D6D6D;}
	.st11{fill:#328FA6;}
	.st12{fill:#6E6E6E;}
	.st13{fill:#464546;}
	.st14{fill:#616161;}
	.st15{fill:#4A494A;}
	.st16{fill:#FDEDE8;}
	.st17{fill:#318EA5;}
	.st18{fill:#5B5B5B;}
	.st19{fill:#EECFCB;}
	.st20{fill:#6F6F6F;}
	.st21{fill:#C8A4A0;}
	.st22{fill:#CDA39F;}
	.st23{fill:#707070;}
	.st24{fill:#8A8989;}
	.st25{fill:#CEA4A0;}
	.st26{fill:#1E7678;}
	.st27{fill:#FDFDFD;}
	.st28{fill:#5DBFD7;}
	.st29{fill:#734C5F;}
	.st30{fill:#FEF4F2;}
	.st31{fill:#EDCEC9;}
	.st32{fill:#FAEAE5;}
	.st33{fill:#535656;}
	.st34{fill:#525556;}
	.st35{fill:#F1D4CF;}
	.st36{fill:#727375;}
	.st37{fill:#747577;}
	.st38{fill:#EFD0CB;}
	.st39{fill:#EED0CB;}
	.st40{fill:#2F2F2F;}
	.st41{fill:#EFD1CC;}
	.st42{fill:#F0D2CD;}
	.st43{fill:#F9E8E4;}
	.st44{fill:#F5DCD7;}
	.st45{fill:#5EBFD8;}
	.st46{fill:#CBA39F;}
	.st47{fill:#5BA6B7;}
	.st48{fill:#28788C;}
	.st49{fill:#494849;}
	.st50{fill:#399FB8;}
	.st51{fill:#318FA5;}
	.st52{fill:#626161;}
	.st53{fill:#626262;}
	.st54{fill:#343333;}
	.st55{fill:#D0A7A3;}
	.st56{fill:#8CE6F5;}
	.st57{fill:#89E2F1;}
	.st58{fill:#E7F3F5;}
	.st59{fill:#F2F8FA;}
	.st60{fill:#1F686B;}
	.st61{fill:#F3F9FA;}
	.st62{fill:#FAFCFC;}
	.st63{fill:#499DA0;}
	.st64{fill:#40999B;}
	.st65{fill:#8BE6F5;}
	.st66{fill:#47A3B7;}
	.st67{fill:#71CDE1;}
	.st68{fill:#3B99AF;}
	.st69{fill:#4CAAC2;}
</style>
<g>
	<path class="st0" d="M45.3,150c-4.6-1.5-9.5-2.1-14.2-3.3c-1.8-0.3-3.6-0.6-5.3-1.2c0.3-1.2,1.3-0.9,2-0.9c2.7,0,5.4,0,8.2,0
		c0.7,0,1.6,0,2.3-0.3c1.6-0.3,3.3-1.5,5,0c0.6,2.4,2.3,2.7,4.3,2.4c3.3,0,6.6,0,9.9,0c0.9,0,1.8,0,2.6,0.6
		c-3.2,1.2-6.5,1.2-9.7,1.8c-0.9,0.3-1.8,0.3-2.6,0.6C47.1,150,46.1,150,45.3,150z"/>
	<path class="st1" d="M36.5,0.6c0.4-0.6,1.3,0,1.6-0.6c0.7,0,1.3,0,2,0c1.4,0.6,3.2,0.6,4.7,0.9c0.2,0.6-0.4,0.9-0.9,1.2
		c-2,1.2-4,2.7-6.1,3.9c-0.4,0.3,0.4,0.3,0.2,0.6c-2.6,1.5-4.7,0.3-7-0.9c-0.4-1.2,0.7-1.2,1.3-1.8C33.5,2.7,35.3,2.1,36.5,0.6z"/>
	<path class="st2" d="M63.6,41c-0.7,3-1.3,6.3-2,9.3c-1.1,0.9-2.5,0.6-3.8,0.6c-2.3,0.3-4.7,0.6-7,0.6c-1.6-0.3-3.3-0.3-5-0.6
		c-0.7,0-1.4,0-1.8-0.6c1-1.2,1.3-2.4,1.4-3.9c1.8-9.3,3.4-18.4,5.2-27.7c0.7-3.9,3.6-6.9,6.3-9.6c0.3,0,0.4,0,0.6,0
		c0.9,2.4,1.1,5.1,1.6,7.5c-0.3,1.8-1.4,3.6-1.9,5.4c0.3,2.7,1.3,5.1,1.6,7.5c1-1.5,1.4-3.6,2.9-5.1c2.2,0,3.9,0.9,5.3,2.4
		c0.2,1.8-0.6,3.3-0.9,4.8c-0.2,0.9-0.3,1.8-1,2.7c-1.4,0.6-2.7-0.3-4.3,0C61.1,36.7,63.2,38.6,63.6,41C63.6,40.7,63.6,41,63.6,41z"
		/>
	<path class="st3" d="M67.7,106.9c-1.4,6.9-2.9,13.6-4.7,20.2c-0.9,0.6-1.8,0.3-2.9,0c-4.7-0.6-9.5-0.9-14.1-1.5
		c-0.7,0-1.3-0.3-1.8-0.6c-0.6-0.3-0.9-0.9-1-1.8c-1-3.3-1.8-6.9-2.7-10.2c-0.2-0.6-0.3-1.2,0.2-1.8c1.1-0.9,2.7-0.6,4.2-1.2
		c6.8-1.2,13.5-2.4,20.3-3.6c0.7,0,1.6-0.3,2.3,0C67.2,106.6,67.6,106.6,67.7,106.9z"/>
	<path class="st4" d="M79.9,83.7c-1.8,3.9-3.6,7.8-5.3,11.4c-0.3,0.6-1,0.9-1.8,0.9c-4.5-0.6-8.9-1.2-13.4-1.5
		c-1.8-0.6-3.9,0-5.6-1.2c-0.3-0.3-0.4-0.9-0.3-1.2c0.6-3,0.7-6,1.6-9c0.2-0.3,0.3-0.3,0.4-0.6c0.9-0.3,1.8-0.3,2.9-0.3
		c2.2,0.3,4.3,0.3,6.3,0.3c0.3,0,0.6,0,0.7,0c4,0,7.9,0,12,0C78.5,82.8,79.4,82.5,79.9,83.7z"/>
	<path class="st3" d="M44.1,125c2.9,0.3,5.6,0.9,8.5,1.2c3.4,0.3,6.9,0.6,10.4,1.2c-0.7,3.6-1.4,7.2-2.2,10.8
		c-0.2,0.9-0.4,1.5-0.2,2.4c0.2,0.3,0.2,0.6,0,0.9c-3.2-1.8-7-1.8-10.5-2.7c-0.9-0.9-1.8-0.9-2.3-1.2c-0.2,0-0.3-0.3-0.6-0.3
		c-1.6-3.9-2.9-7.8-3.4-12C43.9,125,43.9,125,44.1,125z"/>
	<path class="st4" d="M79.9,83.7c-0.4-0.6-1.1-0.3-1.8-0.3c-4.3,0-8.6,0-12.8,0c-0.7-0.6-0.3-1.5-0.2-2.4c2.3-6.9,4.9-13.9,7.2-20.5
		c0.2-0.6,0.4-1.2,1-1.5c1.8,5.1,2.7,10.2,4.2,15.4c0.7,2.7,1.4,5.4,2.2,8.4C80.1,82.8,80.3,83.4,79.9,83.7z"/>
	<path class="st3" d="M73.6,58.7c-2.6,7.2-5.2,14.5-7.7,22c-0.3,0.9-0.7,1.5-0.6,2.4c-0.2,0-0.3,0-0.4,0c-2.7-3-5.3-6-7.7-9.3
		c-0.3-0.3-0.6-0.9-0.4-1.5c0.6-0.6,1.1-0.6,1.8-0.3c0.4,0,0.9,0.3,1.3,0.3c2.7,0.3,2.7,0.3,3.8-2.1c0.2-0.3,0.2-0.6,0.3-0.6
		c0.4-1.2,1.3-2.1,1-3.6c-1-2.7-2.5-5.4-3.6-8.1c-0.3-0.6-0.7-1.2-0.4-1.8c0.2-0.3,0.3-0.3,0.6,0C65.4,56.6,69.6,57.5,73.6,58.7z"/>
	<path class="st5" d="M58.6,16.9c-0.4-2.7-0.9-5.1-1.3-7.8c0.7-0.6,1.4-0.3,2.2,0c3.2,1.2,6.6,2.1,9.7,3.9c0.4,0,0.7,0.3,0.9,0.6
		c0.3,2.4,0,5.1,0.2,7.5c0,0.6-0.3,1.2-1,0.9C65.6,20.5,61.8,19.6,58.6,16.9C58.5,16.9,58.8,17.2,58.6,16.9z"/>
	<path class="st6" d="M58.6,16.9c3.3,1.8,6.8,3,10.1,4.5c1,0.3,1.1,0,1.1-0.9c0-2.4,0-4.8,0.2-7.2c0.6,1.8,0.3,3.9,0.3,5.7
		c0.2,4.8,0,9.3,0,14.2c0,0.6,0.3,1.5-0.3,2.1c-0.2,0-0.3-0.3-0.4-0.3c-0.3-1.2-0.2-2.4-0.2-3.3c0.2-1.5-0.2-3-1.8-3.6
		c-0.3,0-0.6-0.6-0.7-0.9c-1.8-0.9-3.2-1.8-5-2.4c-1.8-0.6-3.6-1.5-5-2.7C57.3,20.5,57.9,18.7,58.6,16.9z"/>
	<path class="st7" d="M60.5,141c0-0.3,0.2-0.6,0.2-0.6c3.9,0.6,7.6,0.9,11.5,1.5c3.3,0.6,6.5,0.9,10.2,1.5c-2.6,0.9-4.9,1.2-7.2,1.5
		c-4.5,0.9-8.9,1.5-13.4,2.4c-0.3,0-0.6,0-1,0c-0.2-0.9,0.2-1.8-0.3-2.7C60.5,143.4,59.8,142.2,60.5,141z"/>
	<path class="st8" d="M73.1,95.8c0.6,0,1-0.3,1.4-0.3c0.3,2.1,1.4,3.9,2.2,6c0.2,0.6,1,1.2,0,1.8c-3.4-0.3-6.6-1.5-10.1-2.4
		c-1.1-0.3-2.5-0.6-3.8-0.9c-0.7-0.3-1.4-0.3-1.8-0.9c0.3-0.9,1-0.9,1.8-0.9C66.4,97,69.6,95.8,73.1,95.8z"/>
	<path class="st9" d="M61.1,144.9c0.3,0.9,0.3,1.8-0.2,2.7c-0.3,0-0.4,0-0.7,0c-4.7,0-9.5,0-14.2,0c-1.6,0-2.9,0-2.6-2.1
		c0-0.3-0.3-0.6-0.4-0.6c0.3-0.3,0.6-0.3,1-0.3c4.7,0.3,9.5,0,14.2,0C59.1,144.3,60.1,144,61.1,144.9z"/>
	<path class="st10" d="M69.2,12.7c-3-0.9-6.1-2.1-9-3c-0.9-0.3-1.8-0.9-2.7-0.6C57.2,9,57.2,9,57,9c-2,0-3.8-1.2-5.6-1.8
		C51,6.9,50.6,6.6,50.7,6c2.6-1.2,5.2-1.5,7.9-0.9C62.2,7.5,65.8,10.2,69.2,12.7z"/>
	<path class="st1" d="M58.6,5.1c-2.7,0.3-5.3,0.3-7.9,1.2c-2.3,0-4.2-0.6-5.6-2.1c1.6-1.8,4-1.5,6.1-2.1c0.6-0.3,1.3,0,1.8-0.3
		C55.3,2.4,56.9,3.9,58.6,5.1z"/>
	<path class="st11" d="M66.8,100c2.6,0.6,5,1.2,7.6,2.1c0.7,0.3,1.6,0.3,2.2,0.9c-2.9,1.5-6.1,2.4-9,3.9c-0.2,0-0.3,0-0.4,0
		C67.1,104.5,66.3,102.4,66.8,100z"/>
	<path class="st12" d="M53,1.5c-1.8,1.2-3.8,1.2-5.7,1.8c-0.7,0.3-1.4,0.6-2.2,0.6C43,5.4,40.5,6.3,37.8,6c-1.1-0.3-0.2-0.6,0-0.6
		c2.3-1.5,4.6-3,7-4.5C47.6,1.2,50.3,1.2,53,1.5z"/>
	<path class="st13" d="M61.1,53.9c-0.2,0.3-0.2,0.6-0.2,0.9c-0.2,0.9-0.9,1.2-1.8,1.5c-2,0.6-4.2,0.6-6.3,0.9c-1.1,0-2.3,0.6-3.4,0
		c-0.7-1.2,0.2-2.4,0.9-3.3c0.6-0.3,1.1-0.6,1.8-0.6c1.1,0,2.5-0.3,3.6-0.3c0.7,0,1.4,0,2.2-0.3c0.7,0,1.6-0.3,2.3,0
		C60.6,53,61.3,53,61.1,53.9z"/>
	<path class="st4" d="M55.3,53.6c-1.1-0.3-2.3,0.6-3.6,0c-0.4-0.6-0.6-1.2-0.9-1.8c-0.2-0.3-0.3-0.3-0.3-0.6c0,0,0-0.3,0.2-0.3
		c3.6,0,7.2-0.9,10.9-0.9c-0.7,1.2,0.2,2.7-0.7,3.6c-1-1.5-2.5-0.6-3.6-0.6C56.8,53.6,56.1,53.3,55.3,53.6z"/>
	<path class="st14" d="M69.9,34.9l0.2,0.3c-1.8,2.1-4.2,3.9-6.3,5.7h0.2c-0.6-2.1,0.2-4.2,1.1-6.3c0.3-0.9,0.6-1.8,0.7-2.7
		C68,31.9,68.7,33.7,69.9,34.9z"/>
	<path class="st15" d="M59.3,55.7c0.4-0.3,1.1-0.3,1.4-0.9c0,0.3,0.2,0.9,0.4,0.9c-0.2,0-0.2,0-0.3,0c-0.2,0-0.3,0.3-0.6,0.3
		C60.1,56.3,59.7,56.3,59.3,55.7z"/>
	<path class="st16" d="M37.8,6c2.5-0.6,4.9-1.2,7.3-1.8c1.8,0.9,3.6,1.5,5.6,2.1c2,1.2,4.3,1.5,6.1,2.7c-1.1,1.5-2.3,3.3-3.8,4.8
		c-2.5,2.7-2.3,6-2.9,9c-1.8,8.4-3.2,16.9-4.7,25.3c-0.2,0.9-0.3,1.8-1.6,1.8c-0.6,0.6-1.3,0.6-2,0.3c-2.2-0.3-4.3-0.6-6.5-1.2
		c-0.6-0.3-1.1-0.3-1.8-0.9c-3.3,0-6.6-0.9-9.7-1.2c-1,0-1.8-0.6-2.7-1.5c-1-0.9-2-2.1-3.3-3c-0.7-0.3-0.9-1.2-0.7-2.1
		c0.7-5.7,1.1-11.1,1.8-16.9c0.4-3.6,1-7.5,1.1-11.1c0-0.3,0.3-0.9,0.6-1.2c2.5-2.4,4.9-4.5,7.7-6.6c0.9-0.6,1.6-0.3,2.3,0.3
		C33.1,5.7,35.3,7.5,37.8,6z"/>
	<path class="st3" d="M40.7,111.4c1,4.5,2.2,9,3.6,13.6l0,0c-0.3,0.3-0.7,0.3-1.1,0.3c-3.8-0.9-7.7-1.2-11.3-2.4
		c-2.3-5.4-4.7-10.8-7-16.3c0.2,0,0.2,0,0.3-0.3c0.7-0.3,1.4,0,2,0.3c3.2,1.2,6.5,2.1,9.7,3.3C37.8,110.5,39.4,110.2,40.7,111.4z"/>
	<path class="st3" d="M31.5,122.6c2.7,0,5.2,0.9,7.9,1.2c1.6,0.3,3.2,0.6,4.7,0.9c1.1,4.2,2.3,8.1,3.6,12.3
		c-0.6,0.3-1.1,0.3-1.8,0.3c-2.7-0.6-5.4-1.2-8.2-1.5c-0.6,0-1.1-0.3-1.4-0.9C34.6,130.7,33.1,126.8,31.5,122.6z"/>
	<path class="st9" d="M36.2,134.9c3.8,0.6,7.6,1.5,11.3,2.4l0,0c-0.4,2.4-1.3,4.5-3.6,5.7c-6.3,0-12.7,0.3-19,0
		c-0.7-0.3-0.7-0.6-0.2-1.2c0.4-0.3,0.9-0.6,1.3-0.6C29.6,139.2,32.9,137,36.2,134.9z"/>
	<path class="st16" d="M16.6,71.7c0.3-0.6,0.2-1.2,0.7-1.5c0.3,0,0.4,0.3,0.6,0.6c1.1,1.8,2.9,3.3,4.2,5.1c0.6,0.9,1.3,1.5,2,2.4
		c0.4,0.6,0.2,1.2-0.4,1.5c-2.3,1.5-4.6,3.3-7.2,4.5c-0.2,0-0.4,0-0.6,0c-1-0.9-2.3-1.5-2.5-3C14.1,78,15,74.7,16.6,71.7z"/>
	<path class="st3" d="M25.3,57.5c2.6-0.9,5.2-1.8,7.9-2.4c0.2,0,0.3,0,0.4,0c-0.2,1.5-1.1,3-1.8,4.2c-1.3,2.1-2.5,4.2-3.4,6.6
		c-0.6,1.8-0.7,3.9-1.3,5.7c-0.2,0.6-0.2,1.5-1.1,1.8c-0.7,0-1.1,0-1.4-0.6c-0.2-0.3-0.2-0.6-0.2-0.6c-0.2-4.2,0.6-8.4,0.4-12.7
		C24.7,58.7,25,58.1,25.3,57.5z"/>
	<path class="st4" d="M25.3,57.5c0.2,5.1-0.3,10.2-0.4,15.4c-2.7,0.3-5-0.9-7.3-2.1c0-0.3-0.2-0.3-0.2-0.6
		C20,66,22.7,61.7,25.3,57.5z"/>
	<path class="st4" d="M15.9,84.3c0.2,0,0.3,0,0.3,0c1.6,0.6,2.3,2.4,3.6,3.6c0.6,0.3,0.9,1.2,1.6,1.2c0.7,0,1.4,0,2.2,0
		c0.4,0,0.9,0.3,1.1,0.6c0.4,1.2,0.7,2.4-0.3,3.6c-2.9-0.6-5.9-1.2-8.8-1.8c-1-0.3-1.4-0.6-1.6-1.5c-0.3-1.8-0.6-3.6-0.9-5.4
		C13.9,83.4,15,84,15.9,84.3z"/>
	<path class="st17" d="M24.4,106.6c-0.6-1.5-0.3-3,0-4.5c0.9-3.3,2.5-6.3,3.6-9.3c0.3-0.6,0.6-1.2,1.1-1.8c2,0,4,0,5.3,1.8
		c-0.3,1.2-1.3,2.1-2.2,3c-1.3,1.5-2,3-2.3,4.8c-0.4,2.7-0.6,2.7-3.3,3c-1.1,0-1.8,0.3-1.8,1.5C25,105.7,25,106,24.4,106.6
		L24.4,106.6z"/>
	<path class="st3" d="M29.2,91.3c-1.6,3.6-2.7,7.5-4.7,10.8c0-2.7,0-5.7,0-8.7c0-1.2,0-2.4,0-3.9C26.3,89.2,28.3,89.8,29.2,91.3z"/>
	<path class="st0" d="M26.1,141c-0.6,0.3-1.3,0.9-1.8,1.5c0.3,1.5,1.3,1.8,2.7,1.8c3,0,6.1,0,9,0c0.9,0,1.8,0,2.6,0.6
		c-3.3,0.6-6.8,0-10.1,0.3c-1,0-2-0.3-2.9,0.3c-3.3-0.9-6.8-1.5-10.2-2.4c0,0,0-0.3-0.2-0.3C18.9,142.2,22.5,141.6,26.1,141z"/>
	<path class="st18" d="M33.5,55.1c-0.2,0-0.2,0-0.3,0c0.3,0,0.6-0.3,0.7-0.3c1.4-0.9,3.2-0.6,4.6-0.3c0.2,0,0.4,0.3,0.6,0.3
		c0.6,0.9,0.4,1.8,0.3,2.7c-0.6,1.2-2,2.1-2.9,3.3c-0.6,0.3-1,1.2-2,0.6C33.5,59.3,33.8,57.2,33.5,55.1z"/>
	<path class="st4" d="M39.1,54.8c-1.8,0-3.4,0-5.2,0c0-2.1,0-4.2,0-6.3c0.6,0,1.1,0,1.6,0.3c1,1.8,3.2,2.7,4.5,4.2
		c0.4,0.3,1.3,0.6,1,1.5C40.7,55.1,39.8,54.8,39.1,54.8z"/>
	<path class="st19" d="M16.6,71.7c-0.6,3.6-2.2,6.9-3.2,10.2c-1.1,0.3-1.4-0.9-2.3-1.2c-0.9-0.9-0.9-1.5-0.2-2.4
		C12.9,76.2,14.5,73.5,16.6,71.7z"/>
	<path class="st20" d="M30.8,5.1c-0.7,0-1.4-0.3-2.3-0.3c1.8-3,4.7-3.9,8.1-4.2c1.1,0.3,0.4,0.6,0,0.9C34.6,2.7,32.8,3.9,30.8,5.1z"
		/>
	<path class="st21" d="M11.2,80.7c1,0,1.6,0.6,2.3,1.2c0.9,0.9,1.6,1.8,2.5,2.4c-0.9,0.3-1.8,0-2.7,0.3
		C12.5,83.4,11.8,81.9,11.2,80.7z"/>
	<path class="st9" d="M38.7,144.9c-4.2,0-8.5,0-12.7,0c-2.3,0-2.3,0-1.6-2.4c6.8,0,13.4,0,20.1,0c0.6,0.9,0,1.5-0.7,1.8
		c-0.3,0-0.6,0-0.9,0C41.2,143.4,39.9,144.3,38.7,144.9z"/>
	<path class="st22" d="M39.1,54.8c0.4-0.6,1.1,0,1.8-0.6c-1.8-1.5-3.6-3-5.3-4.5c-0.3-0.3-1.1-0.6,0-0.9c2.9,0.3,5.7,0.9,8.6,1.2
		c2.3,0.3,4.5,0.6,6.6,1.2v0.3c-0.4,0.6-1.1,0.9-1.8,1.2c-2.6,0.9-5,1.8-7.6,2.7C40.3,55.4,39.6,55.4,39.1,54.8L39.1,54.8z"/>
	<path class="st23" d="M69.9,34.9c-1.6-0.6-2.5-2.4-4.2-3c0.3-1.5,0.7-3.3,1-4.8c2.6,0.6,3.6,2.1,3.2,4.8
		C69.9,32.8,69.9,33.7,69.9,34.9z"/>
	<path class="st24" d="M56.6,22.3c1.8,0.6,3.6,1.2,5,2.7c-1,1.8-1.8,3.9-2.7,5.7c-0.2,0-0.3,0-0.4,0C57.9,27.7,57.3,25,56.6,22.3z"
		/>
	<path class="st22" d="M64.9,34.6c-0.4,2.1-0.7,4.2-1.1,6.3c-1.6-1.8-2.5-3.9-3.6-6c-0.6-0.9,0-1.2,0.9-0.9
		C62.4,34,63.6,34.3,64.9,34.6z"/>
	<path class="st25" d="M61.3,31c0.3-1.2,0.7-2.4,1-3.6c0.2-0.6,0.4-0.9,1-0.6c0.6,0.3,1.4,0,1.6,0.9c0.2,0.6-0.6,0.9-1,1.2
		c-0.7,0.9-1.6,1.5-2.3,2.4C61.7,31.3,61.5,31.3,61.3,31z"/>
	<path class="st3" d="M66.8,100c0.3,2.1,1.1,4.5,0.3,6.6c-6.9,1.2-13.8,2.4-20.8,3.6c-0.6,0-1.3,0-1.8,0.3c-1.8-1.5-3.2-3-3.8-5.4
		c-0.2-2.7,0-5.4,0-8.4c0-0.9,0-1.8,0.7-2.4c1.4-0.9,3.2-0.6,4.6-1.2c1.3,0,2.6-0.9,4,0c0.7,1.2,0.4,2.4,0.3,3.6
		c-0.2,1.2-0.3,2.7-0.3,3.9c0,2.1,0.3,2.1,2.5,2.1c0.6,0,1,0,1.6-0.3c1.8-2.1,2.3-4.5,3.6-6.9c0.4-0.6,0.4-1.5,1.6-1.5
		c1,1.2,1.6,2.7,2,4.2C63.2,99.1,64.9,99.7,66.8,100z"/>
	<path class="st26" d="M41.2,105.7c0.6,1.8,2.3,3,3.2,4.8c-1.1,0.6-2.6,0.6-3.9,0.9c-1.4-0.3-2.9-0.6-4.3-1.2c1.8-1.2,3-3,4.6-4.5
		C41,105.7,41.1,105.7,41.2,105.7z"/>
	<path class="st17" d="M56.6,72.9c2.6,3,5,6.3,7.6,9.3c0.3,0.3,0.6,0.6,0.6,1.2c-3.2,0-6.1-0.3-9.3-0.3c-0.2,0-0.2,0-0.3-0.3
		c-0.4-0.9-0.4-1.8-0.3-3c0.3-2.1,0.3-4.5,0.4-6.6c0-0.3,0.2-0.6,0.3-0.9C56.3,71.7,56.5,72.3,56.6,72.9z"/>
	<path class="st8" d="M59.3,94.6c-0.9,0-0.9,0.9-1.1,1.2c-1.1,2.4-2.3,4.8-3.4,7.2c-3,0-4.7-2.4-3.6-4.8c0.7-1.5,1.4-3.3,2-4.8
		c0.3,0,0.6-0.3,0.9,0c1.8,0.3,3.8,0.6,5.4,0.6C59.5,94.3,59.5,94.6,59.3,94.6z"/>
	<path class="st2" d="M50,93.4c-1.3,0-2.6,0.3-3.9,0.3c-1.6,0.3-1-0.9-0.9-1.5c0.4-2.1,1.1-4.2,1.6-6.3c0.2-0.3,0.3-0.6,0.6-0.9
		c1.4-1.2,3.3-1.5,4.9-2.4c1.1,0,2.2-0.3,3.2,0.3h0.2c0,0,0,0.3-0.2,0.3c-3,0.3-3.3,2.7-3.6,4.8c-0.3,1.8-1,3.6-0.6,5.4
		C50.7,93.7,50.3,93.7,50,93.4z"/>
	<path class="st27" d="M51.2,93.4c-0.6-0.3-1-0.6-0.7-1.2c0.6-2.4,1.1-4.8,1.6-7.5c0.4-2.1,2.3-1.2,3.4-1.2c-0.6,3.3-1,6.6-1.6,10.2
		c-0.3,0-0.4,0-0.7,0C52.5,94,51.8,94,51.2,93.4z"/>
	<path class="st28" d="M59.3,94.6l0.2-0.3c4.6,0.3,9.2,0.9,13.6,1.5c-3.6,1.2-7.2,1.8-10.9,2.7c-0.3,0-0.6,0.3-0.9,0.3
		C60.1,97.6,59.9,96.1,59.3,94.6z"/>
	<path class="st9" d="M43.7,144.3c0.3-0.6,0.6-1.2,0.7-1.8c1-1.8,2-3.6,3.2-5.1c3.6,0.6,7.2,1.5,10.8,2.1c1,0.3,1.8,0.6,2.2,1.5
		c0.2,1.2,0.3,2.4,0.6,3.6c-5.2,0-10.4,0-15.6,0C44.8,144.9,44.3,144.9,43.7,144.3z"/>
	<path class="st3" d="M60.6,56c0.2,0,0.3,0,0.4,0c1,3,2.7,6,3.9,9c0.2,0.3,0.3,0.6,0.3,0.9c-1,0.6-1.6-0.6-2.5-0.6
		c-0.3,0-0.7-0.3-1-0.6c-1.1-1.2-2.3-0.9-3.4,0c-0.4,0.3-0.9,0.3-1.1,0.6c-0.7,0-1.4,0.9-1.8,0c0.4-2.1,2-3.9,3-6
		C58.9,58.1,59.2,56.6,60.6,56z"/>
	<path class="st29" d="M64.1,70.2c-1.4,3.6-1.4,3.6-5.4,2.4c0,0,0.2,0,0.2-0.3c0.4-0.3,1.8,0,1.1-1.5c-0.2-0.3,0.4-0.6,0.6-0.9
		s0.4-0.6,0.7-0.6c0.4,0,0.7,0.3,1,0.3c0.2,0.3,0,0.9,0.7,0.3C63.2,69.9,63.6,69.9,64.1,70.2z"/>
	<path class="st29" d="M62.9,65.1c0.7,0.3,1.6,0.6,2.5,1.2c0.3,1.2-0.6,2.4-1.1,3.3c-1-0.3-0.9-1.2-1.4-1.8
		c-0.2-0.3-0.2-0.6-0.3-0.9C62.4,66,62.4,65.4,62.9,65.1z"/>
	<path class="st29" d="M56.6,72.9c-0.3-0.3-0.6-0.6-0.9-0.6c-0.2,0-0.2,0-0.2-0.3c-0.3-0.6-0.7-1.2-0.3-2.1c0.9-0.6,1.1,0.3,1.8,0.6
		c0.2,0.3,0.7,0.3,1,0.6c0.3,0.3,0.7,0.6,0.6,1.2h-0.2C57.9,72.6,57.2,72.3,56.6,72.9z"/>
	<path class="st4" d="M62.9,67.5c1.1,0,0.6,1.5,1.1,1.8c0,0.3-0.2,0.3-0.2,0.6c-0.7,0-1.1,0.9-2.2,0.9c0.2-0.3,0.2-0.9,0.3-1.2
		c-0.2-0.6,0.3-0.9,0.3-1.5C62.7,67.8,62.8,67.8,62.9,67.5z"/>
	<path class="st4" d="M60.6,56c-1.8,3-3.4,6.3-5.2,9.3c-0.2,0.9-0.4,1.5-0.7,2.1c-1.4,2.1-2.3,4.5-3.9,6.3c-2,1.2-4.5,1.5-6.8,2.1
		c-2.6-0.3-5.3-0.9-7.9-1.8c-0.3-0.3-0.6-0.3-0.6-0.6c-0.7-3.3-1-6.6-1.4-9.9C34,63,34,62.3,34.8,61.7c0.6-0.3,1-0.6,1.6-1.2
		c1.6-0.9,2.9-2.4,5-2.4c0.3,0,0.6,0.3,0.7,0.3c1,1.8,2.2,3.3,3.2,4.8c1,1.8,1.1,1.8,2.3,0c0.2,0,0.2-0.3,0.3-0.3
		c1.1-1.5,2.2-3,3.2-4.5c0.4-0.6,1-1.2,1.8-1.5c2.3-0.3,4.5-0.6,6.6-0.9C59.8,55.7,60.2,55.7,60.6,56z"/>
	<path class="st4" d="M41.4,54.8c2.9-1.5,6.1-2.4,9.3-3.3c0.2,0,0.3,0.3,0.4,0.3c0.4,0.9-0.2,1.5-0.7,2.1c-0.4,0.9-0.9,2.1-1.1,3
		c-0.2,0-0.2,0-0.3,0C46.2,56.6,43.9,56.3,41.4,54.8C41.5,54.8,41.4,54.8,41.4,54.8z"/>
	<path class="st4" d="M52.7,56.6c-1.6,2.1-3.2,4.2-4.6,6.3c-0.2,0-0.3-0.3-0.3-0.6c0.2-1.8,0.3-3.9,1.6-5.7l0,0
		C50.5,56.9,51.6,56.9,52.7,56.6z"/>
	<path class="st4" d="M50.5,53.9c0.3-0.6,0.6-1.5,0.7-2.1c0.7,0.6,0.9,1.2,0.7,2.1C51.3,53.9,50.9,53.9,50.5,53.9z"/>
	<path class="st15" d="M55.3,53.6c0.7-0.3,1.3-0.3,2-0.3C56.8,53.9,56.1,53.6,55.3,53.6z"/>
	<path class="st2" d="M33.2,20.2c0.3-0.3,0.6-0.6,0.9-0.9c3.8,0,7.3,0.3,10.1,3c0.3,0,0.6,0.3,1,0.6c-1.6,1.5-3.8,1.8-4.9,3.6l0,0
		c-2.5,0.6-4.3,2.4-6.3,3.9c-1.3,0.9,0.3,1.2,0.7,1.5c2.7,1.5,3.3,2.4,2.6,4.8c-1.3-0.3-1.6-1.5-2.6-2.1c-0.7-1.2-1.6-2.1-2.5-3.3
		c-0.2-0.3-0.2-0.6,0-0.9c0.6-2.4,0.4-4.8,0.6-7.5C32.6,22,32.4,21.1,33.2,20.2z"/>
	<path class="st30" d="M33.2,20.2c-0.2,3.3,0.3,6.6-0.4,9.6c-0.2,0.3-0.2,0.6-0.4,0.9c-1.3,0.9-2.5,0.3-3.8,0
		c-0.2,0-0.3-0.3-0.4-0.3c0.3-0.9,0.6-2.1,0.7-3c-0.3-2.4,0-4.8,1.6-7.2C31.3,20.2,32.2,20.2,33.2,20.2z"/>
	<path class="st31" d="M30.3,20.2c-0.6,2.4-1,4.8-1.6,7.2c-1-0.9-2-1.8-3.2-2.7l0,0c-0.3-0.3-0.6-0.6-0.7-0.9c0.2-0.6,1.6-0.6,1-1.5
		c-0.4-0.6-1.3,0-1.8,0c-0.3,0-0.6,0.3-0.9,0.3c-0.7-0.6-1.8-1.2-1.8-2.4c2.6-2.4,5.4-1.8,8.6-1.2C30,19.6,30.2,19.9,30.3,20.2z"/>
	<path class="st32" d="M22.9,37.7c0-0.6-0.3-1.5,0.9-1.5c0.3-0.6,0.9-0.6,1.4-0.9c1.8-0.3,3.6-0.9,5.2-1.8c1,1.2,2.3,1.8,3.9,2.4
		c1.1,0.3,2.3,0.9,3,1.8c0.3,0.3,0.7,0.9,0.2,1.2c-1.1,0.3-2.2,0-3.2-0.3c-2.9-0.9-5.7-1.2-8.8-0.6C24.5,38,23.7,38.3,22.9,37.7z"/>
	<path class="st25" d="M22.9,37.7c1.3,0,2.6,0,3.9-0.3c3.8-0.9,7,0.9,10.6,1.5c0.6,0.3,0.9,0.9,0.4,1.5c-1.4-0.3-3-0.6-4.5-1.2
		c-3.2-1.2-6.3-0.9-9.7-0.3c-0.9,0.3-1.1,0-0.9-0.9C22.9,37.7,22.9,37.7,22.9,37.7z"/>
	<path class="st33" d="M44.1,22.6c-3-2.1-6.6-2.4-10.1-3c0.6-1.5,1.6-1.8,3-1.2c1,0.3,2.3,0.6,3.3,0.9
		C42.5,19.3,43.4,20.8,44.1,22.6z"/>
	<path class="st34" d="M29.9,19c-0.9,0-1.8,0.3-2.7,0c-2,0-4,0.3-5.7,1.2c0.6-0.9,1.1-2.1,2.3-2.4c1.8-0.3,3.6-0.3,5.4,0
		C29.9,17.8,29.6,18.7,29.9,19z"/>
	<path class="st35" d="M39.4,15.4c-4.6,0.3-10.5,0-13.1-1.2C30.8,13.6,34.9,14.5,39.4,15.4z"/>
	<path class="st36" d="M37.1,37.3c-1.4-0.9-2.7-1.5-4.3-1.8c-1.4-0.3-2.2-0.9-2.3-2.1c0.2,0,0.3-0.3,0.6-0.3c1.4,0,2.9,0,3.8,1.5
		c1.3,0.3,1.6,1.5,2.5,2.4v0.3C37.2,37.3,37.2,37.3,37.1,37.3z"/>
	<path class="st37" d="M30.9,33.4c-0.2,0-0.3,0-0.6,0c-1.6,2.4-4.5,1.5-6.6,2.7c-0.2-0.3-0.3-0.6-0.4-0.9c0.7-0.9,1.6-1.8,2.9-2.4
		c1.1-0.3,2.3-0.3,3.6-0.6c0.2,0,0.4,0,0.6,0C30.6,32.8,30.9,33.1,30.9,33.4z"/>
	<path class="st38" d="M40.3,26.5c1.8,0.9,3.6,1.8,5.9,1.5c0,0.3,0,0.3,0,0.3C43.2,31,42.1,30.7,40.3,26.5L40.3,26.5z"/>
	<path class="st39" d="M37.1,37.3c0,0,0-0.3,0.2-0.3c1,0.6,0.7,2.1,2,2.7c1,0.6,1.6,1.5,2.5,2.4c-3,0.6-3,0.6-3.8-1.8
		c0.2-0.6-0.2-0.9-0.4-1.5C37.4,38.3,37.2,38,37.1,37.3z"/>
	<path class="st39" d="M26,33.4c-1,0.6-1.4,1.8-2.7,1.8c0.2-2.4,1.6-3.9,3.9-4.5c0.7-0.3,1,0,0.7,0.6C27.7,32.2,26.9,32.8,26,33.4z"
		/>
	<path class="st38" d="M25.7,24.7c-2.5,3.6-2.5,3.6-6.1,0C21.7,25.6,23.7,25.6,25.7,24.7L25.7,24.7z"/>
	<path class="st40" d="M23.3,22.6c0.7-1.5,2.2-0.9,3.3-1.2c0.4,0,0.3,0.9,0.2,1.2c-0.4,0.9-1.1,1.2-1.8,1.2
		C24.1,23.5,23.6,23.2,23.3,22.6z"/>
	<path class="st41" d="M22.9,38c0,0.6,0.3,0.6,0.9,0.9c-0.4,0.3-1,0.6-1.1,1.2c-0.4,1.5-1.6,0.9-2.5,0.6c-0.6,0-0.4-0.6-0.2-0.9
		C20.9,39.2,21.5,38.3,22.9,38z"/>
	<path class="st42" d="M30.3,12c3.2-0.3,6.1,0.9,9,1.5c-2.7-0.3-5.4-0.6-8.2-0.9C31,12.3,30.2,12.7,30.3,12z"/>
	<path class="st43" d="M26,33.4c0.6-0.6,1-1.5,1.6-2.1c0.3-0.3,0-0.6-0.4-0.6c0.2-0.3,0.4-0.3,0.7-0.3c0.2,0,0.3,0,0.4,0
		c0.7,0.6,1.6,1.2,1.4,2.4C28.6,33.1,27.4,33.4,26,33.4z"/>
	<path class="st44" d="M30.3,12c0.3,0.3,0.6,0.6,0.7,0.6c-1,0-2-0.3-3.4-0.6C28.8,11.7,29.6,12,30.3,12z"/>
	<path class="st3" d="M41,105.7c-1.3,1.8-2.2,3.9-4.7,4.5c-3.9-1.2-7.7-2.7-11.7-3.9c0-0.3-0.2-0.6-0.2-0.6
		c-0.2-2.7-0.2-2.7,2.7-2.4c1.4,0,2.2-0.3,2-1.5c0-3.6,2.6-6,4.9-8.7c1.1-1.2,1.8-0.3,2.6,0.6c0.3,0.6,0.3,1.5,0.2,2.1
		c-0.4,2.4-0.2,4.8-0.2,7.2c0,0.9,0.7,1.2,1.6,1.5C39.4,104.8,40.3,104.8,41,105.7z"/>
	<path class="st45" d="M36,73.5c0.2,0,0.3,0.3,0.4,0.3c1.3,1.8,1.8,4.2,2.2,6.3c0,0.3-0.2,0.3-0.2,0.6c-2.3,1.2-4.7,2.1-6.9,3.3
		c-0.3-1.2-1.8-1.5-2.2-2.7c0.6-0.6,1.6-0.9,2.3-1.2c0.2,0,0.3-0.3,0.4-0.3c0.3,0,0.4-0.3,0.6-0.6c0.2-0.3,0.4-0.6,0-0.6
		c-0.4-0.3-0.7,0-0.7,0.6c-0.3,0.3-0.7,0.3-1,0.6c-0.7,0.3-0.7,1.2-1.4,1.8c-0.2,0-0.2,0.3-0.3,0.3c-0.6,0.6-1.6,1.2-2.5,1.5
		c-0.2,0-0.3,0-0.6,0c-0.7,0-1.4-0.3-2-0.3c-0.3,0-0.6,0-0.7,0c-0.7,0.3-1.1,0.9-1.4,1.5c0.6,0.3,1.3,0,1.8,0c0.2,0,0.3,0,0.4-0.3
		c0.7-0.3,1.1-0.9,2-0.6c0.9,0.9,0.2,1.8,0.2,2.7c-1.3,1.8-3.2,2.7-5,3.3c-2.3-1.8-3.8-3.6-5.2-5.4c2.3-1.5,4.5-3,6.8-4.5
		c0.4-0.3,1.1-0.6,0.6-1.2c-0.4-1.5-0.6-2.7-0.2-3.9c0.6-0.9,1.8-1.2,2.7-1.2c0.6-0.3,1.3-0.3,2-0.3c1.4,0,2.9,0,4.5,0
		c0.9,0,1.8,0,2.7,0.3C35.5,73.2,35.6,73.5,36,73.5z"/>
	<path class="st46" d="M26,73.5c-0.7,0.3-1.6,0.9-2.3,1.2c-0.6,0.6-1.1,1.2-2,1.5c-1.4-1.8-2.7-3.6-4.2-5.1c2.5,0.6,4.9,1.2,7.3,2.1
		C25.3,72.9,25.6,73.2,26,73.5c0.2,0,0.3,0,0.2,0H26z"/>
	<path class="st47" d="M21.7,76.2c0.4-0.6,1.1-1.2,2-1.5c0,1.2,0,2.4,0,3.6C22.9,77.7,22.2,76.8,21.7,76.2z"/>
	<path class="st3" d="M36,73.5c-0.2,0-0.3,0-0.3,0c-1.4-0.6-2.2-1.8-3.2-2.7c-1-1.2-2.3-2.1-3.3-3.3c-0.4-0.6-1.1-0.9-1-1.8
		c1-3,2.9-5.7,4.5-8.4c0.3-0.6,0.7-1.2,1-2.1c1.1,1.8,0.6,4.2,1.3,6.3C34.8,65.7,35.6,69.6,36,73.5z"/>
	<path class="st8" d="M28,65.7c2.5,2.7,5,5.1,7.5,7.8c-0.9,0-1.8,0-2.7,0c-0.7-0.3-1.3-0.9-1.8-1.5c-1-1.2-1.1-1.2-1.8,0.3
		c-0.3,0.6-0.4,0.9-1,1.2c-0.7,0-1.4,0-2,0c0,0,0,0,0-0.3c0.7-1.8,0.9-3.6,1.1-5.4C27.4,67.2,27.4,66.3,28,65.7z"/>
	<path class="st48" d="M36.7,93.4c-0.7-0.3-1.4-0.9-2.3-0.3c-1.3-1.5-3.2-1.5-5-1.8c-1.4-0.9-3-1.5-4.7-1.5c-0.4,0-0.9,0-1.1,0
		c0-0.3,0.3-0.6,0.6-0.6c0.6-0.3,1-0.3,1.6-0.3c4.5,0.9,7.5-1.2,9.5-4.8c0.4-0.6,1-1.5,1.8-2.1c0.4-0.3,0.9-1.2,1.6-0.3
		c0.6,1.2,0.2,2.4,0,3.9c-0.2,2.1-0.4,3.9-0.6,6C37.4,92.2,37.2,92.8,36.7,93.4z"/>
	<path class="st8" d="M37.8,81.3c-2.3,1.8-3.8,4.5-5.4,6.6c-0.7,0.9-1.6,1.2-2.7,1.2c-2.2,0-4.2-0.3-6.3,0.3c-0.7,0-1.6,0-2.3,0
		c1.6-1.2,3.2-2.1,4.7-3.3c0.2,0,0.3,0,0.4,0c0.4,0,0.9,0,1.3,0c2.7,0.3,2.7,0.3,3.3-1.5c0-0.3,0.2-0.3,0.2-0.6c0.2,0,0.2,0,0.2-0.3
		c2-1.5,4.6-2.7,7-3.3C38.3,81,38.5,81.3,37.8,81.3z"/>
	<path class="st49" d="M38.9,54.8c0.7,0,1.6,0,2.5,0l0,0c0.7,0.9,0.7,2.1,0.2,3c-0.9,0-1.6,0.6-2.5,0C38.9,56.6,38.9,55.7,38.9,54.8
		z"/>
	<path class="st4" d="M38.9,57.8c0.7,0,1.6,0,2.3,0c0.2,0,0.2,0,0.2,0.3c0,0,0,0-0.2,0c-1.3,0-2.2,0.9-3.2,1.5
		c-0.6,0.3-1.1,0.9-1.8,0.9C37.2,59.3,38.1,58.7,38.9,57.8z"/>
	<path class="st50" d="M41,105.7c-4.6-1.5-4.7-1.5-4.6-6c0-1.5-0.4-2.7,0.3-4.2c0.6,0.6,1.1,0.6,1.8,0.3c0.9-0.6,1.8-1.2,2.9-1.5
		c0.2,0,0.3,0,0.4,0.3c-0.7,1.5-0.3,3-0.3,4.5c-0.2,2.1,0,4.2,0,6.6C41.2,105.7,41.1,105.7,41,105.7z"/>
	<path class="st48" d="M51.2,93.4c0.7,0,1.3,0,2,0.3c0.4,1.5-0.6,2.4-1,3.6c-1.4,3.6-1.1,4.5,2.6,6c-1.4,0.9-2.9,0.3-4.5,0.3
		c-1,0-0.7-0.9-0.7-1.5c-0.3-3,0.6-5.7,0.4-8.4C50.5,93.4,50.7,93.4,51.2,93.4z"/>
	<path class="st46" d="M41.7,94.6c-0.2,0-0.2,0-0.3,0c-0.2-0.9,0.4-1.5,0.9-2.1c1.1-1.8,2.6-3.6,3.9-5.7c0.3-0.3,0.4-0.9,1.1-0.6
		c-0.3,2.1-1,4.2-1.4,6.3c-0.2,0.6-0.9,1.2,0.3,1.5C44.6,94,43.1,94.3,41.7,94.6z"/>
	<path class="st45" d="M44.1,75.6c2.3-0.6,4.5-1.2,6.6-1.8c1.6-0.9,3.2-1.8,5-1.5l0,0c0,0.3,0,0.3,0,0.6c-1.4,3-3,6-5.4,8.4
		c-0.6,0-0.9,0-1.1-0.3c-1-1.2-2.3-1.5-3.8-1.2C44.4,78.3,44.1,76.8,44.1,75.6z"/>
	<path class="st8" d="M50.5,81c1.8-2.7,3.4-5.7,5.4-8.4c0.3,3.3-0.4,6.9-0.4,10.2c-1.1,0-2.3,0-3.4,0C51,82.5,50.3,82.2,50.5,81z"/>
	<path class="st45" d="M47.3,85.8c-2,2.7-3.9,5.7-5.9,8.4c-1.1,0.6-2.3,1.2-3.2,2.1c-1.4,0.9-1.6,0.3-1.6-0.9c0-0.6,0-1.5,0-2.1
		c0.4-3.9,0.9-8.1,1.1-12C38,81,38,81,38,80.7l0,0c0.6-0.6,1.1,0,1.6,0c2.5,1.2,5,2.4,7.5,3.6c0.3,0.3,0.4,0.3,0.3,0.6
		C47.6,85.2,47.4,85.5,47.3,85.8z"/>
	<path class="st2" d="M47.7,85.2c-0.2,0-0.3-0.3-0.3-0.3c-1.1-1.2-1.4-3-1.8-4.5c-0.2-0.3-0.2-0.9,0.3-1.2c2.5-1.2,3.2,0.9,4.6,1.8
		c0.6,0.6,1.1,1.2,1.6,1.8C51,84.3,49.1,84.3,47.7,85.2z"/>
	<path class="st29" d="M54.3,67.2c0.2-0.6,0.6-1.2,1.1-1.8c0.7,0.6,1-0.3,1.6-0.3c0.3,1.8,0.3,1.8,2.3,1.2c0.3,0,0.6,0,0.9,0
		c0.6,0,1.1,0.9,1.8,0c0.2-0.3,0.6,0.3,0.9,0.9c0,0.3,0,0.6,0,0.9s0,0.3,0,0.6c-0.7-0.3-1,0-1.1,0.6c0,0.3-0.3,0.3-0.6,0.3
		c-0.2,0.3-0.2,0.6-0.3,0.6c-0.7,0.3-1.4,0.6-2.2,0.6c-0.4,0-0.7-0.3-1.1-0.3c-0.3-0.3-0.3-0.9-0.4-1.5c-0.2-0.6-0.3,0-0.4,0
		c-1.1-0.9-0.9,0.6-1.4,0.6C54.3,69,54.8,67.8,54.3,67.2z"/>
	<path class="st4" d="M59.3,66.3c-0.7,0-1,0.9-1.8,0.9c-1.8-0.3-0.4-1.5-0.4-2.4c0.4,0,0.7-0.3,1.1-0.3c0.4-0.3,1-0.3,1.3,0
		c0,0,0.2,0.3,0,0.3C59.1,65.7,59.1,66,59.3,66.3z"/>
	<path class="st4" d="M62.9,66.9c-0.7-0.9-2,0.6-2.7-0.3c-0.2-0.6-0.3-1.2,0-1.8c0.7-0.3,1.3-0.3,1.8,0c0.3,0,0.6,0.3,0.7,0.3
		C62.9,65.7,62.9,66.3,62.9,66.9z"/>
	<path class="st29" d="M62,64.5c-0.7,0-1.4-0.3-1.8,0.3c-0.3,0.3-0.6,0.3-0.7,0c-0.3-0.3-0.7-0.3-1.1-0.3
		C59.5,63.3,60.8,63.3,62,64.5z"/>
	<path class="st4" d="M58.6,70.2c0.7,0,1.6,0,2.3,0c0,0.3-1.8,0.9,0.2,1.2c-0.7,0.6-1.4,1.2-2.5,0.9c-0.3-0.3-0.6-0.6-0.9-1.2
		C58.4,71.1,58.6,70.8,58.6,70.2z"/>
	<path class="st3" d="M61.3,69.3c0.3-0.6,0.3-1.8,1.6-1.2c0,0.6-0.3,1.2-0.7,1.5C61.8,69.9,61.5,69.6,61.3,69.3z"/>
	<path class="st3" d="M54.3,67.2c1.1,0.3,0.4,1.5,1,2.4c0.2,0,0.2,0,0.2,0.3c0,0,0,0-0.2,0c0.2,0.6,0.3,1.5,0.4,2.4
		c-1.8,0.6-3.3,0.9-5,1.5C51.9,71.4,53.2,69.3,54.3,67.2z"/>
	<path class="st4" d="M55.5,69.9c0,0,0-0.3-0.2-0.3c0.2-0.9,0.2-2.4,1.6-0.9c0.3,0.3,0.3,0.6,0.4,0.9c0,0.6,0.2,0.9-0.4,1.5
		C56.5,70.5,56.1,70.2,55.5,69.9z"/>
	<path class="st3" d="M57,70.8c0-0.6,0-0.9,0-1.5c0.4-0.3,0.6,0,0.7,0.3c0.2,0.3,0.4,0.3,0.7,0.3c1,1.2,0.2,1.2-0.9,1.2
		C57.5,71.1,57.3,71.1,57,70.8z"/>
	<path class="st51" d="M45.8,79.2c0.2,1.8,1.3,3.6,1.6,5.4c-3-1.2-6.1-2.7-9.2-4.2c-0.7-2.1-1.3-4.5-2-6.9c2.6,0.6,5.2,0.9,7.9,1.5
		C45,76.5,44.6,78,45.8,79.2z"/>
	<path class="st18" d="M41.4,58.1C41.4,58.1,41.4,57.8,41.4,58.1c0-1.2,0-2.4,0-3.3c2.6,0.6,5.3,1.5,7.9,2.1
		c-0.4,1.8-0.7,3.9-1.1,5.7c-0.6,0.3-1,0-1.4-0.3c-1.8-1.2-3.4-2.4-4.9-3.9C41.7,58.4,41.5,58.1,41.4,58.1z"/>
	<path class="st4" d="M41.7,58.4c1.6,1.2,3.2,2.4,4.7,3.3c0.4,0.3,0.7,0.9,1.4,0.6v0.3c-0.6,0.9-1.1,1.5-1.8,2.7
		C44.6,63.3,43,60.8,41.7,58.4z"/>
	<path class="st52" d="M40.3,72.6c-0.7-0.3-1.4-0.9-1.6-1.5s0.7-1.5,1.4-1.5c0.7,0,1.6,0.6,1.6,1.2C41.7,71.7,40.8,72,40.3,72.6z"/>
	<path class="st53" d="M40.7,65.7c-0.9-0.6-1.4-1.2-1.6-1.8c0-0.6,0.7-1.2,1.4-1.2c0.7,0,1.4,0.9,1.4,1.5
		C41.9,64.8,41.1,65.4,40.7,65.7z"/>
	<path class="st54" d="M38.5,22.6c0.7,0.6,2.3,0,2.6,1.2c0.2,0.9-1,1.2-1.8,1.2c-1.1,0-1.8-0.6-1.8-1.8
		C37.4,22.6,37.8,22.6,38.5,22.6z"/>
	<path class="st32" d="M30.9,33.4c-0.2,0-0.3-0.3-0.4-0.3c0.2-0.9,0.9-1.5,1.8-1.5c1.6,0.3,1.8,1.8,2.3,3
		C33.5,34,32.2,33.4,30.9,33.4z"/>
	<path class="st55" d="M32.4,31.6c-0.6,0.6-1.3,0.9-1.8,1.5c-0.2,0-0.3,0-0.6,0c-0.4-0.9-1.4-1.5-1.4-2.4c1.3,0,2.6,0.3,3.9,0.3
		C32.4,31,32.4,31.3,32.4,31.6z"/>
	<path class="st48" d="M28,73.5c0.2-0.3,0.3-0.9,0.4-1.2c0.3-0.6,0.3-1.8,1-1.8c0.9-0.3,1.3,0.9,1.8,1.5s1,1.2,1.4,1.8
		C31.2,73.5,29.6,73.5,28,73.5z"/>
	<path class="st56" d="M26,86.1c-0.2,0-0.3,0-0.4,0c-0.3-0.9,0.9-1.8,0-2.7c-0.2-0.3,0.2-0.6,0.4-0.6c0.2,0,0.3,0,0.3,0
		c0.6,0,1.1,0.3,1.6,0.6c0.7,0.6,1.1,0.9,0.4,1.8c-0.4,0.3-0.9,0.6-1.4,0.9C26.7,86.1,26.5,86.4,26,86.1z"/>
	<path class="st57" d="M29.2,81.3c0.6,0.9,2.9,0.6,1.8,2.4l0,0c-0.6,0.6-1.1,0.9-2,0.6c-0.4-0.3-0.7-0.9-0.7-1.2
		c-0.2-0.6,0.2-1.2,0.3-1.8c0.2,0,0.2,0,0.3,0C29.1,81.3,29.2,81.3,29.2,81.3z"/>
	<path class="st58" d="M23.7,84.9c-0.9,0.6-1.8,0.3-2.9,0.3c0.4-1.2,1.1-1.8,2-2.7C23.4,83.1,23.3,84,23.7,84.9z"/>
	<path class="st59" d="M29.2,81.3c-0.2,0-0.2,0-0.3,0c0.4-0.9,0.2-1.8,1.4-2.1c0.6,0.3,1,0.6,1.1,1.2C31,81.3,30,81,29.2,81.3z"/>
	<path class="st60" d="M28.8,81.3c0.3,0.6,0.2,1.2,0,1.8c-0.2,0.6-0.6,0.6-1,0.3c-0.4-0.3-0.9-0.6-1.3-0.6
		C27.2,82.5,27.9,81.9,28.8,81.3z"/>
	<path class="st61" d="M31.5,78.6c0-0.3-0.7-0.6-0.3-0.6c0.7-0.3,1.4-0.6,2.3-0.3c-0.4,0.9-0.7,1.8-1.6,2.4
		C31.5,79.8,31.5,79.2,31.5,78.6z"/>
	<path class="st62" d="M26,82.8c-0.2,0.3-0.3,0.3-0.4,0.6c-0.6,0.3-1,0.9-1.6,1.2c-0.6-0.6-0.7-1.5-0.4-2.1
		C24.4,82.5,25.3,82.5,26,82.8z"/>
	<path class="st63" d="M23.7,82.5c0.4,0.6,0.6,1.5,0.4,2.1h-0.3h-0.1c-1.1-0.6-1.1-1.2-0.9-2.4C23.1,82.5,23.4,82.5,23.7,82.5z"/>
	<path class="st64" d="M31.5,78.6c0.6,0.3,0.4,0.9,0.4,1.5c-0.2,0-0.3,0-0.4,0c-0.7,0-1.1-0.3-1.1-1.2C30.6,78.6,31,78.6,31.5,78.6z
		"/>
	<path class="st65" d="M31.2,84.3C31,87,31,87,27.3,86.4c-0.3-0.3,0-0.6,0.3-0.9s0.7-0.3,1.1-0.6c0.3,0,0.6-0.3,0.9-0.6
		C30,84.6,30.4,84,31.2,84.3z"/>
	<path class="st66" d="M31.2,84.3c-0.7,0-1,0.6-1.6,0.9c-0.4,0-0.6-0.3-0.4-0.9c0.7,0,1.1-0.6,2-0.3V84.3z"/>
	<path class="st67" d="M27.6,85.8c-0.2,0.3-0.3,0.3-0.4,0.6c-0.4,0-0.9,0-1.1-0.3c0.3,0,0.6-0.3,0.7-0.3
		C27.2,85.5,27.4,85.5,27.6,85.8z"/>
	<path class="st3" d="M59.3,64.8c0.3,0,0.6,0,0.7,0c0.7,0.6,0.7,0.9,0,1.5c-0.3,0-0.6,0-0.9,0C58.1,66,58.8,65.4,59.3,64.8z"/>
	<path class="st3" d="M57.7,69.9c-0.3,0-0.6-0.3-0.7-0.3c0-0.3,0-0.6,0-0.9c0.2-0.3,0.2-0.6,0.4-0.3C57.7,68.7,57.9,69.3,57.7,69.9z
		"/>
	<path class="st68" d="M29.2,84.3c0.2,0.3,0.3,0.6,0.4,0.9c-0.3,0-0.6,0.3-0.7,0.3c-0.4,0-0.7,0.3-0.7-0.3c1-0.9,0-1.2-0.4-1.5
		c0.3,0,0.7-0.3,1-0.3C28.8,83.7,29,84,29.2,84.3z"/>
	<path class="st69" d="M28,85.2c0.3,0,0.6,0.3,0.7,0.3c-0.3,0.3-0.7,0.3-1.1,0.3c-0.3,0-0.6,0-0.9,0C27.2,85.5,27.6,85.2,28,85.2z"
		/>
</g>
</svg>
