<svg id="Capa_1" data-name="Capa 1" xmlns="http://www.w3.org/2000/svg" viewBox="0 0 70 70"><defs><style>.cls-1{fill:#e24c4b;}.cls-2{fill:#d1403f;}.cls-3{fill:#fff;}</style></defs><title>error</title><circle class="cls-1" cx="35" cy="35" r="35"/><path class="cls-2" d="M135,99.9a35.1,35.1,0,0,1-35,35,34.42,34.42,0,0,1-27.34-13.13,34.56,34.56,0,0,0,21.88,7.66,35.1,35.1,0,0,0,35-35,34.58,34.58,0,0,0-7.66-21.88A34.46,34.46,0,0,1,135,99.9Z" transform="translate(-65.03 -64.9)"/><path class="cls-3" d="M116,115.87a3.43,3.43,0,0,1-4.81,0L100,104.71,88.88,115.87a3.4,3.4,0,1,1-4.81-4.82L95.22,99.9,84.07,88.74a3.4,3.4,0,0,1,4.81-4.81L100,95.08l11.16-11.15A3.4,3.4,0,0,1,116,88.74L104.85,99.9,116,111.05A3.43,3.43,0,0,1,116,115.87Z" transform="translate(-65.03 -64.9)"/></svg>