<svg id="Capa_1" data-name="Capa 1" xmlns="http://www.w3.org/2000/svg" viewBox="0 0 125.57 123.7"><defs><style>.cls-1{fill:#f6d186;}.cls-2{opacity:0.1;}.cls-3{fill:#262626;}.cls-4{fill:#544f57;}.cls-5{fill:#454045;}.cls-6{fill:#f1b986;}.cls-7{fill:#f1d0a5;}.cls-8{fill:#785252;}</style></defs><title>estrovertido</title><path class="cls-1" d="M137.38,48.09,123,69.19,108.08,58.77l14.4-21.06a.94.94,0,0,1,1.64.17l3.2,7.82a.93.93,0,0,0,.83.58l8.49.34a.94.94,0,0,1,.74,1.47Z" transform="translate(-41.24 -37.3)"/><g class="cls-2"><path d="M136.64,46.62l-3.94-.16L119,66.44,123,69.19l14.42-21.1A.94.94,0,0,0,136.64,46.62Z" transform="translate(-41.24 -37.3)"/></g><path class="cls-3" d="M142.55,88.13l.1-3.34-4.45-2.43-2.76,1.88-14.67,26.82a2.82,2.82,0,0,1-2.47,1.47H73.66a6.09,6.09,0,0,0-4.07,1.55l-8.73,7.85-4.73-10.49-2.44-2-4.63,2.1v3.12l6.41,14.71a3.87,3.87,0,0,0,5.83,1.74l7.06-5a1.88,1.88,0,0,1,3,1.53v28.7A4.69,4.69,0,0,0,76,161h40.38a4.69,4.69,0,0,0,4.69-4.69V130.86a12.67,12.67,0,0,1,1.55-6.09l20-36.6-.1,0Z" transform="translate(-41.24 -37.3)"/><path d="M142.65,84.79l-4.45-2.43-2.76,1.88-2,3.59.86.6a3.54,3.54,0,0,1,1.07,4.6l-17.35,31.74a12.7,12.7,0,0,0-1.55,6.09v25.45a4.69,4.69,0,0,1-4.69,4.69h4.57a4.69,4.69,0,0,0,4.69-4.69V130.86a12.7,12.7,0,0,1,1.55-6.09l20-36.6-.1,0Z" transform="translate(-41.24 -37.3)"/><path class="cls-1" d="M53.69,109.41l-4.63,2.1v3.12l1.72,4,.26-.11a3.54,3.54,0,0,1,4.66,1.71l1,2.22a2,2,0,0,0,3.18.64l1.15-1.3-4.95-10.3Z" transform="translate(-41.24 -37.3)"/><path class="cls-4" d="M117.63,76.82a5.19,5.19,0,0,0-5.2-5.19H105.5a3.6,3.6,0,0,0-3.09,1.75.1.1,0,0,1-.12,0,.1.1,0,0,1-.08-.1,4.53,4.53,0,0,0-4.53-4.53H82.42a7.65,7.65,0,0,0-7.65,7.65V90.37a2.4,2.4,0,0,0,2.4,2.4h36.7A3.76,3.76,0,0,0,117.63,89Z" transform="translate(-41.24 -37.3)"/><path class="cls-5" d="M117.63,76.82a5.19,5.19,0,0,0-5.2-5.19h-5a5.19,5.19,0,0,1,5.2,5.19V89a3.76,3.76,0,0,1-3.76,3.76h5A3.76,3.76,0,0,0,117.63,89Z" transform="translate(-41.24 -37.3)"/><path class="cls-6" d="M96.2,126.83a6.6,6.6,0,0,1-6.6-6.6v-8.45h13.2v8.45A6.59,6.59,0,0,1,96.2,126.83Z" transform="translate(-41.24 -37.3)"/><path class="cls-7" d="M101.19,83.11a.36.36,0,0,0-.27-.18.36.36,0,0,0-.31.11c-1.57,1.76-8.58,8.5-21,5.11a.35.35,0,0,0-.31.06.34.34,0,0,0-.14.28v18.65a7.13,7.13,0,0,0,7.13,7.13h19.86a7.13,7.13,0,0,0,7.13-7.13V88a.37.37,0,0,0-.13-.28.35.35,0,0,0-.3-.07c-7.63,1.64-10.82-3-11.64-4.53Z" transform="translate(-41.24 -37.3)"/><path class="cls-6" d="M112.26,87.75C105,89.05,102,84.59,101.19,83.1a.35.35,0,0,0-.57-.06c-1.57,1.75-8.58,8.51-21,5.11a.35.35,0,0,0-.31.06.34.34,0,0,0-.14.28v3.19c10.35,3,16.6-.06,19.34-2.07a2.67,2.67,0,0,1,3.18,0,11.1,11.1,0,0,0,5,2,2.65,2.65,0,0,1,2.24,2.62v12.91a7.13,7.13,0,0,1-7.13,7.13h4.37a7.13,7.13,0,0,0,7.13-7.13V88a.37.37,0,0,0-.13-.27.35.35,0,0,0-.3-.07l-.57.11Z" transform="translate(-41.24 -37.3)"/><path class="cls-5" d="M89.6,100.32a1.87,1.87,0,0,1-1.86-1.87V96a1.87,1.87,0,1,1,3.73,0v2.42a1.87,1.87,0,0,1-1.87,1.87Z" transform="translate(-41.24 -37.3)"/><path class="cls-5" d="M102.8,100.32a1.87,1.87,0,0,1-1.87-1.87V96a1.87,1.87,0,0,1,3.74,0v2.42A1.87,1.87,0,0,1,102.8,100.32Z" transform="translate(-41.24 -37.3)"/><path class="cls-8" d="M165,101.13a1.84,1.84,0,0,1-1.09-.35l-59.3-42.2a1.87,1.87,0,1,1,2.17-3L166,97.74a1.87,1.87,0,0,1-1.08,3.39Z" transform="translate(-41.24 -37.3)"/><path class="cls-7" d="M149,83.78l-3.54,5.06a2.28,2.28,0,0,1-3.17.56l-7.56-5.3a2.28,2.28,0,0,1-.56-3.17l3.54-5.05a2.28,2.28,0,0,1,3.17-.56l7.56,5.3A2.27,2.27,0,0,1,149,83.78Z" transform="translate(-41.24 -37.3)"/><path class="cls-7" d="M54.72,105.39a.36.36,0,0,1-.47-.17l-2.4-5.32A3.66,3.66,0,0,0,47,98.07L43.4,99.7a3.66,3.66,0,0,0-1.83,4.84l4,8.83a2.58,2.58,0,0,0,3.42,1.3L58,110.58A3,3,0,0,0,55.52,105Z" transform="translate(-41.24 -37.3)"/></svg>