<svg id="Capa_1" data-name="Capa 1" xmlns="http://www.w3.org/2000/svg" viewBox="0 0 40.16 48.15"><defs><style>.cls-1{opacity:0.09;}.cls-2{fill:#f6bb93;}.cls-3{fill:#e49775;}.cls-4{fill:#544f57;}.cls-5{opacity:0.1;}.cls-6{fill:#243b5d;}.cls-7{fill:#f6d186;}</style></defs><title>pensamiento</title><path d="M101.82,107.69h1.7c3.07-3.93,14.52-1.6,10.79,11.56H91C87.3,106.09,98.75,103.76,101.82,107.69Z" transform="translate(-86.84 -71.11)"/><path class="cls-1" d="M105.9,106.19c3.72,1,7.19,5,4.89,13.06h3.52C117.36,108.5,110.27,105,105.9,106.19Z" transform="translate(-86.84 -71.11)"/><path class="cls-2" d="M102.67,110.64h0a3.52,3.52,0,0,0,3.52-3.52v-4.35h-7v4.35A3.52,3.52,0,0,0,102.67,110.64Z" transform="translate(-86.84 -71.11)"/><path class="cls-3" d="M99.15,106.24a22.58,22.58,0,0,0,7,.4v-3.87h-7v3.47Z" transform="translate(-86.84 -71.11)"/><path class="cls-2" d="M90.58,95.57h3.93V89.62H90.58a3,3,0,0,0-3,3h0A3,3,0,0,0,90.58,95.57Z" transform="translate(-86.84 -71.11)"/><path class="cls-2" d="M114.75,95.57h-3.93V89.62h3.93a3,3,0,0,1,3,3h0A3,3,0,0,1,114.75,95.57Z" transform="translate(-86.84 -71.11)"/><path class="cls-4" d="M92.09,94.39c-.73-3.17-1.81-7.4-2.3-9.46C86.65,82.2,86,76.44,87.9,72.35A1,1,0,0,1,89.43,72c1.25,1,3.71,2,8.31.29,9-3.29,16.5,1.14,16.93,3.4.49,0,2.84.33,2.84,2.65,0,2-3.24,12.44-4.63,16.06Z" transform="translate(-86.84 -71.11)"/><path class="cls-5" d="M114.67,75.68c-.34-1.78-5.07-4.89-11.43-4.55,4.8.29,8.22,3,8.5,4.55a2.56,2.56,0,0,1,2.53,2.65c0,2-2.89,12.44-4.14,16.06h2.75c1.39-3.62,4.63-14.09,4.63-16.06C117.51,76,115.16,75.68,114.67,75.68Z" transform="translate(-86.84 -71.11)"/><path class="cls-2" d="M91.59,98.39c0,7.83,22.16,7.83,22.16,0,0-4.48-.6-12.07-1.91-15a4.32,4.32,0,0,0-1.53-1.75,2.85,2.85,0,0,0-1.46-.44,3.88,3.88,0,0,0-1.65.44c-1.41.67-2.84,1.87-4.53,1.87s-3.12-1.2-4.54-1.87a3.83,3.83,0,0,0-1.64-.44,2.85,2.85,0,0,0-1.46.44,4.34,4.34,0,0,0-1.54,1.75C92.19,86.31,91.59,93.83,91.59,98.39Z" transform="translate(-86.84 -71.11)"/><path class="cls-3" d="M111.84,83.37a4.32,4.32,0,0,0-1.53-1.75,2.85,2.85,0,0,0-1.46-.44,3.44,3.44,0,0,0-1.2.25,2.07,2.07,0,0,1,.32.19,4.29,4.29,0,0,1,1.35,1.75c1.14,2.95,1.66,10.54,1.66,15,0,3.74-4.42,5.7-9,5.86,5.78.18,11.82-1.77,11.82-5.86C113.75,93.91,113.15,86.32,111.84,83.37Z" transform="translate(-86.84 -71.11)"/><path class="cls-6" d="M108,92.88a.73.73,0,0,1-.73-.72V91a.73.73,0,1,1,1.46,0v1.13A.73.73,0,0,1,108,92.88Z" transform="translate(-86.84 -71.11)"/><path class="cls-6" d="M97.38,92.88a.72.72,0,0,1-.73-.72V91a.73.73,0,1,1,1.45,0v1.13A.72.72,0,0,1,97.38,92.88Z" transform="translate(-86.84 -71.11)"/><path class="cls-6" d="M107.9,89.59a3.87,3.87,0,0,1-2.24-.68.73.73,0,0,1,.85-1.18,2.55,2.55,0,0,0,2.78,0,.73.73,0,0,1,.85,1.18A3.87,3.87,0,0,1,107.9,89.59Z" transform="translate(-86.84 -71.11)"/><path class="cls-6" d="M99.25,89.59a.69.69,0,0,1-.43-.14,2.57,2.57,0,0,0-2.77,0,.73.73,0,1,1-.86-1.17,4,4,0,0,1,4.49,0,.73.73,0,0,1,.16,1A.71.71,0,0,1,99.25,89.59Z" transform="translate(-86.84 -71.11)"/><path class="cls-7" d="M120.82,72.19a6.87,6.87,0,0,0-1.95,13.58,4.94,4.94,0,0,1-1.23,1.8.36.36,0,0,0,.27.63,4,4,0,0,0,.68-.09A5,5,0,0,0,122,85.64a6.87,6.87,0,0,0-1.13-13.45Z" transform="translate(-86.84 -71.11)"/><path class="cls-5" d="M120.82,72.19a6.68,6.68,0,0,0-1.34,0h0c3.16.38,5.43,3.82,5.07,7.62a6.6,6.6,0,0,1-4.14,5.83,4.28,4.28,0,0,1-2.78,2.47h0a.35.35,0,0,0,.27.08,4,4,0,0,0,.68-.09A5,5,0,0,0,122,85.64a6.87,6.87,0,0,0-1.13-13.45Z" transform="translate(-86.84 -71.11)"/><path class="cls-6" d="M119.77,83.47a.73.73,0,0,1-.73-.72v-.1a.73.73,0,0,1,.73-.73.73.73,0,0,1,.72.73v.1A.72.72,0,0,1,119.77,83.47Z" transform="translate(-86.84 -71.11)"/><path class="cls-6" d="M119.77,81.44a.73.73,0,0,1-.73-.73V79.43a1.12,1.12,0,0,1,1.12-1.12h.27a1.16,1.16,0,0,0,1.16-1.24,1.17,1.17,0,0,0-2.27-.3A.72.72,0,0,1,118,76.3,2.62,2.62,0,0,1,123,77a2.58,2.58,0,0,1-.7,2,2.65,2.65,0,0,1-1.85.83v.94A.73.73,0,0,1,119.77,81.44Z" transform="translate(-86.84 -71.11)"/><path class="cls-6" d="M107.36,98.81a.71.71,0,0,1-.51-.21,2.05,2.05,0,0,0-2.9,0,.73.73,0,0,1-1-1,3.51,3.51,0,0,1,5,0,.72.72,0,0,1,0,1A.71.71,0,0,1,107.36,98.81Z" transform="translate(-86.84 -71.11)"/></svg>