<svg id="Capa_1" data-name="Capa 1" xmlns="http://www.w3.org/2000/svg" viewBox="0 0 70 70"><defs><style>.cls-1{fill:#a4d166;}.cls-2{fill:#8dc640;}.cls-3{fill:#fff;}</style></defs><title>success</title><circle class="cls-1" cx="35" cy="35" r="35"/><path class="cls-2" d="M135.46,99.7a35.1,35.1,0,0,1-35,35,34.44,34.44,0,0,1-27.34-13.12A34.55,34.55,0,0,0,95,129.24a35.1,35.1,0,0,0,35-35,34.55,34.55,0,0,0-7.65-21.88A34.44,34.44,0,0,1,135.46,99.7Z" transform="translate(-65.46 -64.7)"/><path class="cls-3" d="M119.49,89.64,96.74,114.58a3.73,3.73,0,0,1-5.68,0l-9.63-10.72a3.87,3.87,0,0,1,5.69-5.25l6.78,7.66,19.91-21.66a3.84,3.84,0,0,1,5.47-.22A3.76,3.76,0,0,1,119.49,89.64Z" transform="translate(-65.46 -64.7)"/></svg>