<svg id="Capa_1" data-name="Capa 1" xmlns="http://www.w3.org/2000/svg" viewBox="0 0 152.02 144.98"><defs><style>.cls-1{fill:#f2f2f2;}.cls-2{fill:#fff;}.cls-3{opacity:0.1;isolation:isolate;}.cls-4{fill:#2f2e41;}.cls-5{fill:#a0616a;}.cls-6{fill:#d0cde1;}.cls-7{fill:#575a89;}.cls-8{fill:#3f3d56;}</style></defs><title>share</title><path class="cls-1" d="M165.87,110.09a56.18,56.18,0,0,0-3.94-49.46L72.12,73.06l86.07-17.94A56.13,56.13,0,0,0,58.12,97Z" transform="translate(-17.81 -24.02)"/><path class="cls-1" d="M61.35,109.55a56.14,56.14,0,0,0,103.1,3.82Z" transform="translate(-17.81 -24.02)"/><path class="cls-2" d="M163.06,129.07c0,22.05-32.52,39.93-72.62,39.93-21.55,0-40.91-5.16-54.21-13.35-8.67-5.35-14.77-12-17.22-19.33a22.87,22.87,0,0,1-1.2-7.25C17.81,107,78,7.55,90.44,89.14S163.06,107,163.06,129.07Z" transform="translate(-17.81 -24.02)"/><path class="cls-3" d="M126.53,143.55c0,8.14-25.72,14.75-57.44,14.75a190.42,190.42,0,0,1-32.86-2.65c-8.67-5.35-14.77-12-17.22-19.33,9.85-4.48,28.58-7.51,50.08-7.51C100.81,128.81,126.53,135.41,126.53,143.55Z" transform="translate(-17.81 -24.02)"/><path class="cls-4" d="M85.07,59.56c-4.56-7.69-13.56-8.05-13.56-8.05s-8.78-1.12-14.41,10.6c-5.24,10.92-12.49,21.46-1.16,24l2-6.36,1.27,6.84a46,46,0,0,0,4.84.08c12.13-.39,23.68.12,23.31-4.24C86.9,76.66,89.45,67,85.07,59.56Z" transform="translate(-17.81 -24.02)"/><path class="cls-4" d="M55.29,126.92a17.46,17.46,0,0,1-.58,2.5c-.28.8-.72,1.55-1,2.35-.84,2.58.32,5.46,2.15,7.45a12.24,12.24,0,0,0,5.93,3.52,23.46,23.46,0,0,0,5.09.53c4.73.16,9.59.31,14.07-1.21a24.32,24.32,0,0,0,4.09-1.86,3.18,3.18,0,0,0,1.06-.83,3,3,0,0,0,.38-1.72c0-2-.42-4-.32-6a24.76,24.76,0,0,0,.16-3.33A6.12,6.12,0,0,0,81.65,123a12.32,12.32,0,0,0-3.88,0,100.64,100.64,0,0,1-10.12.45c-3.45,0-6.88-.55-10.31-.6-1,0-1,.29-1.32,1.27A24.4,24.4,0,0,0,55.29,126.92Z" transform="translate(-17.81 -24.02)"/><path class="cls-5" d="M65.08,77.39a5.92,5.92,0,0,1-.86,2.48c-.6.82-1.58,1.29-2.23,2.08-1,1.18-1,2.84-1,4.37a7.21,7.21,0,0,0,.81,4.09,7.1,7.1,0,0,0,2,1.8c2.95,2,6.13,4,9.69,4.08a5.18,5.18,0,0,0,4-1.47,5.79,5.79,0,0,0,1-1.73,23.25,23.25,0,0,0,1.64-7,8.32,8.32,0,0,0-.31-3.37,32.45,32.45,0,0,0-1.89-3.34A7.41,7.41,0,0,1,77.23,75a.44.44,0,0,0,0-.32.45.45,0,0,0-.38-.16l-7-.5a16.12,16.12,0,0,1-2-.23c-.38-.08-1.38-.62-1.74-.47C65.4,73.54,65.22,76.67,65.08,77.39Z" transform="translate(-17.81 -24.02)"/><path class="cls-3" d="M65.08,77.61a5.92,5.92,0,0,1-.86,2.48c-.6.82-1.58,1.29-2.23,2.08-1,1.18-1,2.84-1,4.37a7.21,7.21,0,0,0,.81,4.09,7.1,7.1,0,0,0,2,1.8c2.95,2,6.13,4,9.69,4.08a5.18,5.18,0,0,0,4-1.47,5.79,5.79,0,0,0,1-1.73,23.25,23.25,0,0,0,1.64-7,8.32,8.32,0,0,0-.31-3.37,32.45,32.45,0,0,0-1.89-3.34,7.4,7.4,0,0,1-.71-4.39.44.44,0,0,0,0-.32.45.45,0,0,0-.38-.16l-7-.5a16.12,16.12,0,0,1-2-.23c-.38-.08-1.38-.62-1.74-.47C65.4,73.76,65.22,76.89,65.08,77.61Z" transform="translate(-17.81 -24.02)"/><circle class="cls-5" cx="54.01" cy="43.97" r="10.34"/><path class="cls-6" d="M66.53,91.16a6.37,6.37,0,0,0,1.82,1.45,5.63,5.63,0,0,0,2.27.43,6.85,6.85,0,0,0,5.18-1.63c1.67-1.73,1.62-4.51,2.93-6.53a1.54,1.54,0,0,1,.42-.46,1.39,1.39,0,0,1,.72-.17c1.66,0,3.1,1.06,4.4,2.09a5.79,5.79,0,0,1,1.55,1.57,5.56,5.56,0,0,1,.52,1.6A71.58,71.58,0,0,1,87.4,99.1c.12,1.77.23,3.55.22,5.32,0,5.86-1.39,11.61-2.74,17.31a2.67,2.67,0,0,1-1.08,1.91,2.82,2.82,0,0,1-.94.23,116.94,116.94,0,0,1-11.67,1c-1.52,0-3,0-4.56-.11a2.5,2.5,0,0,1-.77-.14,2.07,2.07,0,0,1-.84-.71c-2.11-2.66-2.24-6.34-2.22-9.73q0-12.45.89-24.89a2.78,2.78,0,0,0-.44-2.05A26.25,26.25,0,0,0,66.53,91.16Z" transform="translate(-17.81 -24.02)"/><path class="cls-7" d="M64.34,79.21c-.35.64-2.92,2.21-3.42,2.73-2.78,2.93-7.85,2.82-10.39,6a9.8,9.8,0,0,0-1.7,3.86,9.29,9.29,0,0,0,.07,5.92c.78,1.77,2.42,3,3.53,4.57a17.75,17.75,0,0,1,2.3,5.9,13.57,13.57,0,0,1,.63,4.63c-.17,1.77-1,3.4-1.54,5.11s-.59,3.74.58,5.08a5.78,5.78,0,0,0,3.5,1.6,39.68,39.68,0,0,0,5,.43c1.47.07,3.1.08,4.23-.87A4.22,4.22,0,0,0,68.46,121a20.41,20.41,0,0,0-.35-3.47c-.15-1.2-.21-2.4-.27-3.61q-.33-8.12-.09-16.25a13.55,13.55,0,0,0-.16-3.37,18.36,18.36,0,0,0-1.76-4.08,15.53,15.53,0,0,1-1.71-8.15C64.32,79.17,65.59,77,64.34,79.21Z" transform="translate(-17.81 -24.02)"/><path class="cls-7" d="M78.87,79.43c.53.55,2.34.73,3,1.08a10,10,0,0,0,2,.69,25.62,25.62,0,0,1,7,3.2,4.27,4.27,0,0,1,1.16,1,4.51,4.51,0,0,1,.64,1.82,20.06,20.06,0,0,1,.59,5,20.17,20.17,0,0,1-1.14,5.19l-2,6.34c-1.48,4.74-3,9.52-3.39,14.46A33.69,33.69,0,0,0,87,126.4a1,1,0,0,1-.1.79.79.79,0,0,1-.49.22,4.7,4.7,0,0,1-2.75-.77,30.3,30.3,0,0,0-8.4-2.74,19.57,19.57,0,0,0,2.61-5.38,33.35,33.35,0,0,0,.79-3.7l.92-5.33a51.26,51.26,0,0,0,.79-5.9,7.25,7.25,0,0,0-.13-2.23,10,10,0,0,0-.84-2A17.11,17.11,0,0,1,77.8,89.13a14.74,14.74,0,0,0,.55-4.55,32.41,32.41,0,0,0-.36-4C76.45,74.59,77.87,78.41,78.87,79.43Z" transform="translate(-17.81 -24.02)"/><path class="cls-7" d="M50.5,92.9c-.69,1.43-1.85,2.66-2.24,4.21a9,9,0,0,0-.2,2.2,10.51,10.51,0,0,0,.33,3.31c.22.68.58,1.31.84,2a7.31,7.31,0,0,1,.47,2.93c-.07,1.39-.54,2.73-.58,4.12-.06,2.18,1,4.23,1.93,6.18A4.55,4.55,0,0,1,57,115.32a3.65,3.65,0,0,1,.68.35,1.37,1.37,0,0,0,.3-1q.12-3.8.21-7.59a45.26,45.26,0,0,0-.69-11.69,11.1,11.1,0,0,0-2.2-4.77c-.61-.7-2.68-2.55-3.68-1.76-.45.35-.35,1.31-.42,1.8A7.65,7.65,0,0,1,50.5,92.9Z" transform="translate(-17.81 -24.02)"/><path class="cls-7" d="M93.44,88.75a10.64,10.64,0,0,1,.35,3.19c0,2.18,0,4.37-.09,6.56a12,12,0,0,1-.42,3.32c-.23.7-.57,1.36-.8,2.06-.69,2.11-.32,4.39-.26,6.6a7.29,7.29,0,0,1-.18,2.13,17.51,17.51,0,0,1-2,3.72,36.92,36.92,0,0,1-1.82,3.61,3.46,3.46,0,0,1-3.43,1.64,3.81,3.81,0,0,1-2.18-2,9.94,9.94,0,0,1-1-6.46c.49-2.69,2.06-5.07,2.63-7.74.78-3.67-.4-7.45-.37-11.2a5.61,5.61,0,0,1,.24-1.73,7.33,7.33,0,0,1,1.53-2.23,28.3,28.3,0,0,0,2.06-2.7c.42-.63,1-2.26,1.75-2.4C91.07,84.79,93,87.46,93.44,88.75Z" transform="translate(-17.81 -24.02)"/><path class="cls-4" d="M41.8,125.29A10.48,10.48,0,0,0,39,125a7.1,7.1,0,0,0-6.69,7.47,6.76,6.76,0,0,0,.11.89,12.17,12.17,0,0,0,1.12,3.07,10.39,10.39,0,0,0,3,4,11.94,11.94,0,0,0,2.7,1.28l7.34,2.76c1.08.41,2.16.82,3.25,1.19a63.19,63.19,0,0,0,17,3.38,17.9,17.9,0,0,0,5.27-.27,1.68,1.68,0,0,0,1.08-.58,1.86,1.86,0,0,0,.24-.8l.45-3.16a2.5,2.5,0,0,0,0-1.33,2.45,2.45,0,0,0-1.22-1.15c-4.82-2.78-10.46-4.31-14.52-8.11-1-.9-1.76-2.32-2.92-2.93-1.32-.69-2.87-1.08-4.24-1.72C48,127.63,45,126,41.8,125.29Z" transform="translate(-17.81 -24.02)"/><path class="cls-3" d="M49.13,129.56c2.6.81,13.55,6.45,15.43,8.41-.25.09-8.79-4.69-9.05-4.77a50.61,50.61,0,0,1-6.88-2.43c-.45-.2-2.9-1.17-2.78-1.73S48.67,129.41,49.13,129.56Z" transform="translate(-17.81 -24.02)"/><path class="cls-5" d="M81.51,150.71a.59.59,0,0,0,.41-.12.61.61,0,0,0,.13-.47c0-1.44,0-2.88,0-4.31a13.24,13.24,0,0,0-4-1L71.7,144c.15,0-1,2.73-.81,3.09.3.64,2.66,1.21,3.32,1.51C76.52,149.65,78.91,150.8,81.51,150.71Z" transform="translate(-17.81 -24.02)"/><path class="cls-5" d="M61.59,145.79c-1.2.19-2.53.36-3.31,1.3-1,1.18-.57,2.94-.1,4.41a1.85,1.85,0,0,0,.41.8,1.9,1.9,0,0,0,1.26.39,5.76,5.76,0,0,0,3.22-.41,13.82,13.82,0,0,0,1.24-.93,8.12,8.12,0,0,1,2.3-1,23.35,23.35,0,0,1,4.6-1A7.46,7.46,0,0,0,73,149a2,2,0,0,0,1.27-1.25,2.92,2.92,0,0,0-.67-2.26,8.94,8.94,0,0,0-1.93-2.39c-1.18-.92-1.77-.21-3,.37A24.58,24.58,0,0,1,61.59,145.79Z" transform="translate(-17.81 -24.02)"/><path class="cls-4" d="M58.46,146.87l-7.61-2.25a10.28,10.28,0,0,0-2.83-.55,3.37,3.37,0,0,0-2.6,1.06,5.09,5.09,0,0,0-.91,2.53l-.32,1.92a9.48,9.48,0,0,0-.17,2.95A3.23,3.23,0,0,0,45.53,155a5.18,5.18,0,0,0,3.52.06,37.17,37.17,0,0,1,7.21-.77,5.85,5.85,0,0,0,2.67-.43,3.34,3.34,0,0,0,1.63-2.66C60.71,149.52,60.16,147.38,58.46,146.87Z" transform="translate(-17.81 -24.02)"/><path class="cls-4" d="M84.5,144.91a18.38,18.38,0,0,0,2.81-1.06,12.22,12.22,0,0,1,4.18-.46,2.64,2.64,0,0,1,1.5.3,2.73,2.73,0,0,1,.89,2l.63,4.45a7,7,0,0,1,0,2.53A2.37,2.37,0,0,1,93,154.48c-1,.26-2-.37-2.92-.79-2.34-1.05-5.07-.78-7.52-1.56a1.68,1.68,0,0,1-1.13-.81,2,2,0,0,1-.09-.77c0-1.43-.26-3.38.17-4.75S83.4,144.91,84.5,144.91Z" transform="translate(-17.81 -24.02)"/><path class="cls-4" d="M100.61,123.5a13.29,13.29,0,0,1,4.66-.32,4.91,4.91,0,0,1,4.92,5.54,13.09,13.09,0,0,1-2.84,8.37,7.83,7.83,0,0,1-1.63,1.57,11.18,11.18,0,0,1-2.12,1l-16.45,6.48A105.74,105.74,0,0,1,74,150.71a1,1,0,0,1-1.37-.48v0a33.78,33.78,0,0,1-3.6-6.6.43.43,0,0,1,.06-.62.57.57,0,0,1,.13-.08l11.63-6.68a11.86,11.86,0,0,0,2.37-1.63,6,6,0,0,0,1.22-1.69c.24-.51.26-1.7.57-2.07s1.33-.39,1.81-.54a15.59,15.59,0,0,0,2-.74c2.6-1.16,4.92-2.86,7.41-4.22A19,19,0,0,1,100.61,123.5Z" transform="translate(-17.81 -24.02)"/><path class="cls-3" d="M94,128.49c-2,1.5-4.59,2.88-6.57,4.42-.68.53-11.94,6.86-12.1,7.7,1.84.32,13.61-7.92,15.3-8.74a27.32,27.32,0,0,0,4.66-3.13c.37-.29,2-1.18.89-1.5C95.59,127.05,94.47,128.19,94,128.49Z" transform="translate(-17.81 -24.02)"/><path class="cls-8" d="M80.27,79.58H62.72A2.68,2.68,0,0,0,60,82.27v1h-.19v2.2H60V87h-.19v1.32H60v16.24a2.68,2.68,0,0,0,2.68,2.69H80.27A2.68,2.68,0,0,0,83,104.55V82.27A2.68,2.68,0,0,0,80.27,79.58Z" transform="translate(-17.81 -24.02)"/><polygon class="cls-4" points="65.24 34.8 56.34 30.14 44.06 32.05 41.52 43.28 47.84 43.03 49.61 38.91 49.61 42.97 52.53 42.85 54.23 36.28 55.28 43.28 65.67 43.06 65.24 34.8"/><path class="cls-5" d="M52.83,122.05a4.77,4.77,0,0,0,1.66,1.65,3.27,3.27,0,0,0,2.86-.08,5.11,5.11,0,0,0,2.06-2.06,10.28,10.28,0,0,0,1.05-5.71c-.13-2-.54-3.89-.73-5.84-.13-1.42-.14-2.85-.16-4.28a1.47,1.47,0,0,1,.18-.86,1.66,1.66,0,0,1,1-.48c1.95-.58,3.25-2.41,4.17-4.22a7.31,7.31,0,0,0,1-3.89,3,3,0,0,0-2.44-2.85,3.88,3.88,0,0,0-2.95,1.37,12.64,12.64,0,0,0-3.7,7.4,29.86,29.86,0,0,1-.5,4.13c-.8,2.85-3.3,4.6-4.55,7.17C50.41,116.33,51.16,119.54,52.83,122.05Z" transform="translate(-17.81 -24.02)"/><path class="cls-5" d="M89.65,111.14a5.41,5.41,0,0,1-3,2.91,4.22,4.22,0,0,1-2.63.16,2.92,2.92,0,0,1-1.92-1.72,4.79,4.79,0,0,1-.22-1.3,13.37,13.37,0,0,1,.62-5.7c.27-.7.64-1.35.85-2.07a10.61,10.61,0,0,0,.32-2.52l.23-5.25a3.38,3.38,0,0,0-.08-1.14,3.58,3.58,0,0,0-1.59-1.7,10.49,10.49,0,0,1-3.89-4.13,2.45,2.45,0,0,1,2-3.66A5.16,5.16,0,0,1,86.49,89a1.7,1.7,0,0,1,0,.22c.11.59.11,1.2.17,1.8a37.07,37.07,0,0,0,.78,3.74c.62,3.08.3,6.27.91,9.35C88.91,106.64,90.84,108.32,89.65,111.14Z" transform="translate(-17.81 -24.02)"/><circle class="cls-6" cx="53.92" cy="65.17" r="2.2"/><path d="M110.28,24a12.23,12.23,0,1,0,12.23,12.23A12.23,12.23,0,0,0,110.28,24Zm3.86,7.4h-1.56c-1.07,0-1.28.51-1.28,1.25v1.58h2.55l-.33,2.49H111.3v6.74h-2.84V36.74h-2V34.25h2V32.42A3.24,3.24,0,0,1,112,29c.94,0,2,.07,2.19.1Z" transform="translate(-17.81 -24.02)"/></svg>